# MagicaVoxel @ ephtracy

# material
mtllib Bathroom Door Alt.mtl
usemtl palette

# normals
vn -1 0 0
vn 1 0 0
vn 0 0 1
vn 0 0 -1
vn 0 -1 0
vn 0 1 0

# texcoords
vt 0.966797 0.5
vt 0.970703 0.5
vt 0.974609 0.5

# verts and faces
v -1 10 -4
v -1 10 -5
v -1 11 -4
v -1 11 -5
f -2/1/1 -3/1/1 -4/1/1
f -1/1/1 -3/1/1 -2/1/1
v 0 0 4
v 0 0 -5
v 0 2 5
v 0 2 4
v 0 2 3
v 0 3 5
v 0 3 4
v 0 3 3
v 0 10 -3
v 0 10 -4
v 0 10 -5
v 0 11 -3
v 0 11 -4
v 0 11 -5
v 0 17 5
v 0 17 4
v 0 17 3
v 0 18 5
v 0 18 4
v 0 18 3
v 0 20 4
v 0 20 -5
f -19/3/1 -21/3/1 -22/3/1
f -18/3/1 -21/3/1 -19/3/1
f -17/2/1 -19/2/1 -20/2/1
f -16/1/1 -18/1/1 -19/1/1
f -16/2/1 -19/2/1 -17/2/1
f -15/3/1 -21/3/1 -18/3/1
f -15/1/1 -18/1/1 -16/1/1
f -14/3/1 -21/3/1 -15/3/1
f -14/3/1 -15/3/1 -16/3/1
f -13/3/1 -21/3/1 -14/3/1
f -12/3/1 -21/3/1 -13/3/1
f -11/3/1 -14/3/1 -16/3/1
f -11/2/1 -13/2/1 -14/2/1
f -10/2/1 -13/2/1 -11/2/1
f -7/3/1 -11/3/1 -16/3/1
f -7/3/1 -9/3/1 -10/3/1
f -7/3/1 -10/3/1 -11/3/1
f -6/3/1 -9/3/1 -7/3/1
f -5/2/1 -7/2/1 -8/2/1
f -4/1/1 -6/1/1 -7/1/1
f -4/2/1 -7/2/1 -5/2/1
f -3/3/1 -9/3/1 -6/3/1
f -3/1/1 -6/1/1 -4/1/1
f -2/3/1 -3/3/1 -4/3/1
f -1/3/1 -9/3/1 -3/3/1
f -1/3/1 -3/3/1 -2/3/1
v 1 0 4
v 1 0 -5
v 1 2 5
v 1 2 4
v 1 2 3
v 1 3 5
v 1 3 4
v 1 3 3
v 1 10 -3
v 1 10 -4
v 1 10 -5
v 1 11 -3
v 1 11 -4
v 1 11 -5
v 1 17 5
v 1 17 4
v 1 17 3
v 1 18 5
v 1 18 4
v 1 18 3
v 1 20 4
v 1 20 -5
f -22/3/2 -21/3/2 -19/3/2
f -19/3/2 -21/3/2 -18/3/2
f -20/2/2 -19/2/2 -17/2/2
f -19/1/2 -18/1/2 -16/1/2
f -17/2/2 -19/2/2 -16/2/2
f -18/3/2 -21/3/2 -15/3/2
f -16/1/2 -18/1/2 -15/1/2
f -15/3/2 -21/3/2 -14/3/2
f -16/3/2 -15/3/2 -14/3/2
f -14/3/2 -21/3/2 -13/3/2
f -13/3/2 -21/3/2 -12/3/2
f -16/3/2 -14/3/2 -11/3/2
f -14/2/2 -13/2/2 -11/2/2
f -13/1/2 -12/1/2 -10/1/2
f -11/2/2 -13/2/2 -10/2/2
f -10/1/2 -12/1/2 -9/1/2
f -16/3/2 -11/3/2 -7/3/2
f -11/3/2 -10/3/2 -7/3/2
f -10/3/2 -9/3/2 -7/3/2
f -7/3/2 -9/3/2 -6/3/2
f -8/2/2 -7/2/2 -5/2/2
f -7/1/2 -6/1/2 -4/1/2
f -5/2/2 -7/2/2 -4/2/2
f -6/3/2 -9/3/2 -3/3/2
f -4/1/2 -6/1/2 -3/1/2
f -4/3/2 -3/3/2 -2/3/2
f -3/3/2 -9/3/2 -1/3/2
f -2/3/2 -3/3/2 -1/3/2
v 0 2 5
v 0 3 5
v 0 17 5
v 0 18 5
v 1 2 5
v 1 3 5
v 1 17 5
v 1 18 5
f -4/2/3 -7/2/3 -8/2/3
f -3/2/3 -7/2/3 -4/2/3
f -2/2/3 -5/2/3 -6/2/3
f -1/2/3 -5/2/3 -2/2/3
v 0 0 4
v 0 2 4
v 0 3 4
v 0 17 4
v 0 18 4
v 0 20 4
v 1 0 4
v 1 2 4
v 1 3 4
v 1 17 4
v 1 18 4
v 1 20 4
f -6/3/3 -11/3/3 -12/3/3
f -5/3/3 -11/3/3 -6/3/3
f -4/3/3 -9/3/3 -10/3/3
f -3/3/3 -9/3/3 -4/3/3
f -2/3/3 -7/3/3 -8/3/3
f -1/3/3 -7/3/3 -2/3/3
v -1 10 -4
v -1 11 -4
v 0 10 -4
v 0 11 -4
f -2/1/3 -3/1/3 -4/1/3
f -1/1/3 -3/1/3 -2/1/3
v -1 10 -5
v -1 11 -5
v 0 0 -5
v 0 10 -5
v 0 11 -5
v 0 20 -5
v 1 0 -5
v 1 10 -5
v 1 11 -5
v 1 20 -5
f -10/1/4 -9/1/4 -7/1/4
f -7/1/4 -9/1/4 -6/1/4
f -8/3/4 -7/3/4 -4/3/4
f -7/1/4 -6/1/4 -3/1/4
f -4/3/4 -7/3/4 -3/3/4
f -6/3/4 -5/3/4 -2/3/4
f -3/1/4 -6/1/4 -2/1/4
f -2/3/4 -5/3/4 -1/3/4
v 0 0 4
v 1 0 4
v 0 0 -5
v 1 0 -5
f -2/3/5 -3/3/5 -4/3/5
f -1/3/5 -3/3/5 -2/3/5
v 0 2 5
v 1 2 5
v 0 2 4
v 1 2 4
f -2/2/5 -3/2/5 -4/2/5
f -1/2/5 -3/2/5 -2/2/5
v -1 10 -4
v 0 10 -4
v -1 10 -5
v 0 10 -5
f -2/1/5 -3/1/5 -4/1/5
f -1/1/5 -3/1/5 -2/1/5
v 0 17 5
v 1 17 5
v 0 17 4
v 1 17 4
f -2/2/5 -3/2/5 -4/2/5
f -1/2/5 -3/2/5 -2/2/5
v 0 3 5
v 1 3 5
v 0 3 4
v 1 3 4
f -4/2/6 -3/2/6 -2/2/6
f -2/2/6 -3/2/6 -1/2/6
v -1 11 -4
v 0 11 -4
v -1 11 -5
v 0 11 -5
f -4/1/6 -3/1/6 -2/1/6
f -2/1/6 -3/1/6 -1/1/6
v 0 18 5
v 1 18 5
v 0 18 4
v 1 18 4
f -4/2/6 -3/2/6 -2/2/6
f -2/2/6 -3/2/6 -1/2/6
v 0 20 4
v 1 20 4
v 0 20 -5
v 1 20 -5
f -4/3/6 -3/3/6 -2/3/6
f -2/3/6 -3/3/6 -1/3/6
