# MagicaVoxel @ ephtracy

# material
mtllib Conference Room Wall 3.mtl
usemtl palette

# normals
vn -1 0 0
vn 1 0 0
vn 0 0 1
vn 0 0 -1
vn 0 -1 0
vn 0 1 0

# texcoords
vt 0.337891 0.5
vt 0.341797 0.5
vt 0.478516 0.5
vt 0.962891 0.5
vt 0.978516 0.5

# verts and faces
v -30 0 4
v -30 0 -4
v -30 1 5
v -30 1 4
v -30 1 -4
v -30 1 -5
v -30 33 5
v -30 33 4
v -30 33 -4
v -30 33 -5
v -30 34 5
v -30 34 4
v -30 34 -4
v -30 34 -5
v -30 35 5
v -30 35 4
v -30 35 -4
v -30 35 -5
v -30 36 5
v -30 36 4
v -30 36 -4
v -30 36 -5
v -30 40 5
v -30 40 -5
f -21/1/1 -23/1/1 -24/1/1
f -20/1/1 -23/1/1 -21/1/1
f -18/1/1 -21/1/1 -22/1/1
f -18/1/1 -19/1/1 -20/1/1
f -18/1/1 -20/1/1 -21/1/1
f -17/1/1 -19/1/1 -18/1/1
f -16/1/1 -19/1/1 -17/1/1
f -15/1/1 -19/1/1 -16/1/1
f -13/1/1 -16/1/1 -17/1/1
f -12/1/1 -16/1/1 -13/1/1
f -10/1/1 -13/1/1 -14/1/1
f -10/1/1 -11/1/1 -12/1/1
f -10/1/1 -12/1/1 -13/1/1
f -9/1/1 -11/1/1 -10/1/1
f -8/1/1 -11/1/1 -9/1/1
f -7/1/1 -11/1/1 -8/1/1
f -5/1/1 -8/1/1 -9/1/1
f -4/1/1 -8/1/1 -5/1/1
f -2/1/1 -5/1/1 -6/1/1
f -2/1/1 -3/1/1 -4/1/1
f -2/1/1 -4/1/1 -5/1/1
f -1/1/1 -3/1/1 -2/1/1
v 30 0 4
v 30 0 -4
v 30 1 5
v 30 1 4
v 30 1 -4
v 30 1 -5
v 30 33 5
v 30 33 4
v 30 33 -4
v 30 33 -5
v 30 34 5
v 30 34 4
v 30 34 -4
v 30 34 -5
v 30 35 5
v 30 35 4
v 30 35 -4
v 30 35 -5
v 30 36 5
v 30 36 4
v 30 36 -4
v 30 36 -5
v 30 39 5
v 30 39 4
v 30 39 -4
v 30 39 -5
v 30 40 5
v 30 40 -5
f -28/1/2 -27/1/2 -25/1/2
f -25/1/2 -27/1/2 -24/1/2
f -26/1/2 -25/1/2 -22/1/2
f -24/1/2 -23/1/2 -22/1/2
f -25/1/2 -24/1/2 -22/1/2
f -22/1/2 -23/1/2 -21/1/2
f -21/1/2 -23/1/2 -20/1/2
f -20/1/2 -23/1/2 -19/1/2
f -21/1/2 -20/1/2 -17/1/2
f -17/1/2 -20/1/2 -16/1/2
f -18/1/2 -17/1/2 -14/1/2
f -16/1/2 -15/1/2 -14/1/2
f -17/1/2 -16/1/2 -14/1/2
f -14/1/2 -15/1/2 -13/1/2
f -13/1/2 -15/1/2 -12/1/2
f -12/1/2 -15/1/2 -11/1/2
f -13/1/2 -12/1/2 -9/1/2
f -9/1/2 -12/1/2 -8/1/2
f -10/5/2 -9/5/2 -6/5/2
f -9/1/2 -8/1/2 -5/1/2
f -6/5/2 -9/5/2 -5/5/2
f -8/5/2 -7/5/2 -4/5/2
f -5/1/2 -8/1/2 -4/1/2
f -4/5/2 -7/5/2 -3/5/2
f -6/1/2 -5/1/2 -2/1/2
f -5/1/2 -4/1/2 -2/1/2
f -4/1/2 -3/1/2 -2/1/2
f -2/1/2 -3/1/2 -1/1/2
v -30 1 5
v -30 33 5
v -30 34 5
v -30 35 5
v -30 36 5
v -30 40 5
v -28 3 5
v -28 4 5
v -26 4 5
v -26 33 5
v -26 34 5
v -26 35 5
v -26 36 5
v -26 39 5
v 23 3 5
v 23 4 5
v 25 4 5
v 25 33 5
v 25 34 5
v 25 35 5
v 26 1 5
v 26 4 5
v 26 33 5
v 26 34 5
v 26 35 5
v 29 1 5
v 29 33 5
v 29 34 5
v 29 35 5
v 30 1 5
v 30 33 5
v 30 34 5
v 30 35 5
v 30 36 5
v 30 39 5
v 30 40 5
f -30/1/3 -35/1/3 -36/1/3
f -29/1/3 -35/1/3 -30/1/3
f -28/5/3 -29/5/3 -30/5/3
f -28/1/3 -35/1/3 -29/1/3
f -27/1/3 -35/1/3 -28/1/3
f -26/1/3 -33/1/3 -34/1/3
f -25/1/3 -33/1/3 -26/1/3
f -24/1/3 -31/1/3 -32/1/3
f -23/1/3 -31/1/3 -24/1/3
f -22/1/3 -30/1/3 -36/1/3
f -22/5/3 -28/5/3 -30/5/3
f -21/2/3 -27/2/3 -28/2/3
f -21/5/3 -28/5/3 -22/5/3
f -20/1/3 -21/1/3 -22/1/3
f -20/2/3 -27/2/3 -21/2/3
f -19/2/3 -27/2/3 -20/2/3
f -18/2/3 -25/2/3 -26/2/3
f -17/2/3 -25/2/3 -18/2/3
f -16/1/3 -22/1/3 -36/1/3
f -16/1/3 -20/1/3 -22/1/3
f -15/3/3 -19/3/3 -20/3/3
f -15/1/3 -20/1/3 -16/1/3
f -14/3/3 -19/3/3 -15/3/3
f -13/3/3 -17/3/3 -18/3/3
f -12/3/3 -17/3/3 -13/3/3
f -11/4/3 -14/4/3 -15/4/3
f -11/4/3 -15/4/3 -16/4/3
f -10/4/3 -14/4/3 -11/4/3
f -9/4/3 -12/4/3 -13/4/3
f -8/4/3 -12/4/3 -9/4/3
f -7/1/3 -10/1/3 -11/1/3
f -6/1/3 -10/1/3 -7/1/3
f -5/1/3 -8/1/3 -9/1/3
f -4/1/3 -8/1/3 -5/1/3
f -3/5/3 -23/5/3 -24/5/3
f -2/1/3 -31/1/3 -23/1/3
f -2/5/3 -23/5/3 -3/5/3
f -1/1/3 -31/1/3 -2/1/3
v -30 0 4
v -30 1 4
v -30 33 4
v -30 34 4
v -30 35 4
v -30 36 4
v -26 33 4
v -26 34 4
v -26 35 4
v -26 36 4
v 25 33 4
v 25 34 4
v 25 35 4
v 26 1 4
v 26 33 4
v 26 34 4
v 26 35 4
v 29 1 4
v 29 33 4
v 29 34 4
v 29 35 4
v 30 0 4
v 30 1 4
v 30 33 4
v 30 34 4
v 30 35 4
v 30 36 4
f -21/1/3 -24/1/3 -25/1/3
f -20/1/3 -24/1/3 -21/1/3
f -19/1/3 -22/1/3 -23/1/3
f -18/1/3 -22/1/3 -19/1/3
f -17/1/3 -20/1/3 -21/1/3
f -16/1/3 -20/1/3 -17/1/3
f -15/1/3 -18/1/3 -19/1/3
f -14/1/3 -26/1/3 -27/1/3
f -13/1/3 -16/1/3 -17/1/3
f -12/1/3 -16/1/3 -13/1/3
f -11/1/3 -18/1/3 -15/1/3
f -10/1/3 -14/1/3 -27/1/3
f -9/1/3 -12/1/3 -13/1/3
f -8/1/3 -12/1/3 -9/1/3
f -7/1/3 -18/1/3 -11/1/3
f -6/1/3 -10/1/3 -27/1/3
f -5/1/3 -10/1/3 -6/1/3
f -4/1/3 -8/1/3 -9/1/3
f -3/1/3 -8/1/3 -4/1/3
f -2/1/3 -18/1/3 -7/1/3
f -1/1/3 -18/1/3 -2/1/3
v -30 0 -4
v -30 1 -4
v -30 33 -4
v -30 34 -4
v -30 35 -4
v -30 36 -4
v -26 33 -4
v -26 34 -4
v -26 35 -4
v -26 36 -4
v 25 33 -4
v 25 34 -4
v 25 35 -4
v 26 1 -4
v 26 33 -4
v 26 34 -4
v 26 35 -4
v 29 1 -4
v 29 33 -4
v 29 34 -4
v 29 35 -4
v 30 0 -4
v 30 1 -4
v 30 33 -4
v 30 34 -4
v 30 35 -4
v 30 36 -4
f -25/1/4 -24/1/4 -21/1/4
f -21/1/4 -24/1/4 -20/1/4
f -23/1/4 -22/1/4 -19/1/4
f -19/1/4 -22/1/4 -18/1/4
f -21/1/4 -20/1/4 -17/1/4
f -17/1/4 -20/1/4 -16/1/4
f -19/1/4 -18/1/4 -15/1/4
f -27/1/4 -26/1/4 -14/1/4
f -17/1/4 -16/1/4 -13/1/4
f -13/1/4 -16/1/4 -12/1/4
f -15/1/4 -18/1/4 -11/1/4
f -27/1/4 -14/1/4 -10/1/4
f -13/1/4 -12/1/4 -9/1/4
f -9/1/4 -12/1/4 -8/1/4
f -11/1/4 -18/1/4 -7/1/4
f -27/1/4 -10/1/4 -6/1/4
f -6/1/4 -10/1/4 -5/1/4
f -9/1/4 -8/1/4 -4/1/4
f -4/1/4 -8/1/4 -3/1/4
f -7/1/4 -18/1/4 -2/1/4
f -2/1/4 -18/1/4 -1/1/4
v -30 1 -5
v -30 33 -5
v -30 34 -5
v -30 35 -5
v -30 36 -5
v -30 40 -5
v -28 3 -5
v -28 4 -5
v -26 4 -5
v -26 33 -5
v -26 34 -5
v -26 35 -5
v -26 36 -5
v -26 39 -5
v 23 3 -5
v 23 4 -5
v 25 4 -5
v 25 33 -5
v 25 34 -5
v 25 35 -5
v 26 1 -5
v 26 4 -5
v 26 33 -5
v 26 34 -5
v 26 35 -5
v 29 1 -5
v 29 33 -5
v 29 34 -5
v 29 35 -5
v 30 1 -5
v 30 33 -5
v 30 34 -5
v 30 35 -5
v 30 36 -5
v 30 39 -5
v 30 40 -5
f -36/1/4 -35/1/4 -30/1/4
f -30/1/4 -35/1/4 -29/1/4
f -30/5/4 -29/5/4 -28/5/4
f -29/1/4 -35/1/4 -28/1/4
f -28/1/4 -35/1/4 -27/1/4
f -34/1/4 -33/1/4 -26/1/4
f -26/1/4 -33/1/4 -25/1/4
f -32/1/4 -31/1/4 -24/1/4
f -24/1/4 -31/1/4 -23/1/4
f -36/1/4 -30/1/4 -22/1/4
f -30/5/4 -28/5/4 -22/5/4
f -28/2/4 -27/2/4 -21/2/4
f -22/5/4 -28/5/4 -21/5/4
f -22/1/4 -21/1/4 -20/1/4
f -21/2/4 -27/2/4 -20/2/4
f -20/2/4 -27/2/4 -19/2/4
f -26/2/4 -25/2/4 -18/2/4
f -18/2/4 -25/2/4 -17/2/4
f -36/1/4 -22/1/4 -16/1/4
f -22/1/4 -20/1/4 -16/1/4
f -20/3/4 -19/3/4 -15/3/4
f -16/1/4 -20/1/4 -15/1/4
f -15/3/4 -19/3/4 -14/3/4
f -18/3/4 -17/3/4 -13/3/4
f -13/3/4 -17/3/4 -12/3/4
f -15/4/4 -14/4/4 -11/4/4
f -16/4/4 -15/4/4 -11/4/4
f -11/4/4 -14/4/4 -10/4/4
f -13/4/4 -12/4/4 -9/4/4
f -9/4/4 -12/4/4 -8/4/4
f -11/1/4 -10/1/4 -7/1/4
f -7/1/4 -10/1/4 -6/1/4
f -9/1/4 -8/1/4 -5/1/4
f -5/1/4 -8/1/4 -4/1/4
f -24/5/4 -23/5/4 -3/5/4
f -23/1/4 -31/1/4 -2/1/4
f -3/5/4 -23/5/4 -2/5/4
f -2/1/4 -31/1/4 -1/1/4
v -30 0 4
v 30 0 4
v -30 0 -4
v 30 0 -4
f -2/1/5 -3/1/5 -4/1/5
f -1/1/5 -3/1/5 -2/1/5
v -30 1 5
v 26 1 5
v 29 1 5
v 30 1 5
v -30 1 4
v 26 1 4
v 29 1 4
v 30 1 4
v -30 1 -4
v 26 1 -4
v 29 1 -4
v 30 1 -4
v -30 1 -5
v 26 1 -5
v 29 1 -5
v 30 1 -5
f -12/1/5 -15/1/5 -16/1/5
f -11/4/5 -14/4/5 -15/4/5
f -11/1/5 -15/1/5 -12/1/5
f -10/1/5 -13/1/5 -14/1/5
f -10/4/5 -14/4/5 -11/4/5
f -9/1/5 -13/1/5 -10/1/5
f -4/1/5 -7/1/5 -8/1/5
f -3/4/5 -6/4/5 -7/4/5
f -3/1/5 -7/1/5 -4/1/5
f -2/1/5 -5/1/5 -6/1/5
f -2/4/5 -6/4/5 -3/4/5
f -1/1/5 -5/1/5 -2/1/5
v -30 34 5
v -26 34 5
v 25 34 5
v 26 34 5
v 29 34 5
v 30 34 5
v -30 34 4
v -26 34 4
v 25 34 4
v 26 34 4
v 29 34 4
v 30 34 4
v -30 34 -4
v -26 34 -4
v 25 34 -4
v 26 34 -4
v 29 34 -4
v 30 34 -4
v -30 34 -5
v -26 34 -5
v 25 34 -5
v 26 34 -5
v 29 34 -5
v 30 34 -5
f -18/1/5 -23/1/5 -24/1/5
f -17/2/5 -22/2/5 -23/2/5
f -17/1/5 -23/1/5 -18/1/5
f -16/3/5 -21/3/5 -22/3/5
f -16/2/5 -22/2/5 -17/2/5
f -15/4/5 -20/4/5 -21/4/5
f -15/3/5 -21/3/5 -16/3/5
f -14/1/5 -19/1/5 -20/1/5
f -14/4/5 -20/4/5 -15/4/5
f -13/1/5 -19/1/5 -14/1/5
f -6/1/5 -11/1/5 -12/1/5
f -5/2/5 -10/2/5 -11/2/5
f -5/1/5 -11/1/5 -6/1/5
f -4/3/5 -9/3/5 -10/3/5
f -4/2/5 -10/2/5 -5/2/5
f -3/4/5 -8/4/5 -9/4/5
f -3/3/5 -9/3/5 -4/3/5
f -2/1/5 -7/1/5 -8/1/5
f -2/4/5 -8/4/5 -3/4/5
f -1/1/5 -7/1/5 -2/1/5
v -30 36 5
v -26 36 5
v 30 36 5
v -30 36 4
v -26 36 4
v 30 36 4
v -30 36 -4
v -26 36 -4
v 30 36 -4
v -30 36 -5
v -26 36 -5
v 30 36 -5
f -9/1/5 -11/1/5 -12/1/5
f -8/5/5 -10/5/5 -11/5/5
f -8/1/5 -11/1/5 -9/1/5
f -7/5/5 -10/5/5 -8/5/5
f -3/1/5 -5/1/5 -6/1/5
f -2/5/5 -4/5/5 -5/5/5
f -2/1/5 -5/1/5 -3/1/5
f -1/5/5 -4/5/5 -2/5/5
v -30 33 5
v -26 33 5
v 25 33 5
v 26 33 5
v 29 33 5
v 30 33 5
v -30 33 4
v -26 33 4
v 25 33 4
v 26 33 4
v 29 33 4
v 30 33 4
v -30 33 -4
v -26 33 -4
v 25 33 -4
v 26 33 -4
v 29 33 -4
v 30 33 -4
v -30 33 -5
v -26 33 -5
v 25 33 -5
v 26 33 -5
v 29 33 -5
v 30 33 -5
f -24/1/6 -23/1/6 -18/1/6
f -23/2/6 -22/2/6 -17/2/6
f -18/1/6 -23/1/6 -17/1/6
f -22/3/6 -21/3/6 -16/3/6
f -17/2/6 -22/2/6 -16/2/6
f -21/4/6 -20/4/6 -15/4/6
f -16/3/6 -21/3/6 -15/3/6
f -20/1/6 -19/1/6 -14/1/6
f -15/4/6 -20/4/6 -14/4/6
f -14/1/6 -19/1/6 -13/1/6
f -12/1/6 -11/1/6 -6/1/6
f -11/2/6 -10/2/6 -5/2/6
f -6/1/6 -11/1/6 -5/1/6
f -10/3/6 -9/3/6 -4/3/6
f -5/2/6 -10/2/6 -4/2/6
f -9/4/6 -8/4/6 -3/4/6
f -4/3/6 -9/3/6 -3/3/6
f -8/1/6 -7/1/6 -2/1/6
f -3/4/6 -8/4/6 -2/4/6
f -2/1/6 -7/1/6 -1/1/6
v -30 35 5
v -26 35 5
v 25 35 5
v 26 35 5
v 29 35 5
v 30 35 5
v -30 35 4
v -26 35 4
v 25 35 4
v 26 35 4
v 29 35 4
v 30 35 4
v -30 35 -4
v -26 35 -4
v 25 35 -4
v 26 35 -4
v 29 35 -4
v 30 35 -4
v -30 35 -5
v -26 35 -5
v 25 35 -5
v 26 35 -5
v 29 35 -5
v 30 35 -5
f -24/1/6 -23/1/6 -18/1/6
f -23/2/6 -22/2/6 -17/2/6
f -18/1/6 -23/1/6 -17/1/6
f -22/3/6 -21/3/6 -16/3/6
f -17/2/6 -22/2/6 -16/2/6
f -21/4/6 -20/4/6 -15/4/6
f -16/3/6 -21/3/6 -15/3/6
f -20/1/6 -19/1/6 -14/1/6
f -15/4/6 -20/4/6 -14/4/6
f -14/1/6 -19/1/6 -13/1/6
f -12/1/6 -11/1/6 -6/1/6
f -11/2/6 -10/2/6 -5/2/6
f -6/1/6 -11/1/6 -5/1/6
f -10/3/6 -9/3/6 -4/3/6
f -5/2/6 -10/2/6 -4/2/6
f -9/4/6 -8/4/6 -3/4/6
f -4/3/6 -9/3/6 -3/3/6
f -8/1/6 -7/1/6 -2/1/6
f -3/4/6 -8/4/6 -2/4/6
f -2/1/6 -7/1/6 -1/1/6
v -30 40 5
v 30 40 5
v -30 40 -5
v 30 40 -5
f -4/1/6 -3/1/6 -2/1/6
f -2/1/6 -3/1/6 -1/1/6
