# MagicaVoxel @ ephtracy

# material
mtllib Cubist 2.mtl
usemtl palette

# normals
vn -1 0 0
vn 1 0 0
vn 0 0 1
vn 0 0 -1
vn 0 -1 0
vn 0 1 0

# texcoords
vt 0.958984 0.5
vt 0.990234 0.5
vt 0.994141 0.5

# verts and faces
v -8 0 0.5
v -8 0 -0.5
v -8 15 0.5
v -8 15 -0.5
f -2/3/1 -3/3/1 -4/3/1
f -1/3/1 -3/3/1 -2/3/1
v 8 0 0.5
v 8 0 -0.5
v 8 15 0.5
v 8 15 -0.5
f -4/3/2 -3/3/2 -2/3/2
f -2/3/2 -3/3/2 -1/3/2
v -8 0 0.5
v -8 15 0.5
v -7 2 0.5
v -7 3 0.5
v -7 13 0.5
v -7 14 0.5
v -3 2 0.5
v -3 3 0.5
v -3 13 0.5
v -3 14 0.5
v -2 1 0.5
v -2 3 0.5
v -2 13 0.5
v -2 14 0.5
v 7 1 0.5
v 7 14 0.5
v 8 0 0.5
v 8 15 0.5
f -16/3/3 -17/3/3 -18/3/3
f -15/3/3 -17/3/3 -16/3/3
f -14/3/3 -17/3/3 -15/3/3
f -13/3/3 -17/3/3 -14/3/3
f -12/3/3 -16/3/3 -18/3/3
f -12/2/3 -15/2/3 -16/2/3
f -11/1/3 -14/1/3 -15/1/3
f -11/2/3 -15/2/3 -12/2/3
f -10/2/3 -13/2/3 -14/2/3
f -10/1/3 -14/1/3 -11/1/3
f -9/3/3 -17/3/3 -13/3/3
f -9/2/3 -13/2/3 -10/2/3
f -8/3/3 -11/3/3 -12/3/3
f -8/3/3 -12/3/3 -18/3/3
f -7/1/3 -10/1/3 -11/1/3
f -7/3/3 -11/3/3 -8/3/3
f -6/3/3 -9/3/3 -10/3/3
f -6/1/3 -10/1/3 -7/1/3
f -5/3/3 -17/3/3 -9/3/3
f -5/3/3 -9/3/3 -6/3/3
f -4/3/3 -8/3/3 -18/3/3
f -4/1/3 -6/1/3 -7/1/3
f -4/1/3 -5/1/3 -6/1/3
f -4/1/3 -7/1/3 -8/1/3
f -3/3/3 -17/3/3 -5/3/3
f -3/1/3 -5/1/3 -4/1/3
f -2/3/3 -4/3/3 -18/3/3
f -2/3/3 -3/3/3 -4/3/3
f -1/3/3 -17/3/3 -3/3/3
f -1/3/3 -3/3/3 -2/3/3
v -8 0 -0.5
v -8 15 -0.5
v -7 2 -0.5
v -7 3 -0.5
v -7 13 -0.5
v -7 14 -0.5
v -3 2 -0.5
v -3 3 -0.5
v -3 13 -0.5
v -3 14 -0.5
v -2 1 -0.5
v -2 3 -0.5
v -2 13 -0.5
v -2 14 -0.5
v 7 1 -0.5
v 7 14 -0.5
v 8 0 -0.5
v 8 15 -0.5
f -18/3/4 -17/3/4 -16/3/4
f -16/3/4 -17/3/4 -15/3/4
f -15/3/4 -17/3/4 -14/3/4
f -14/3/4 -17/3/4 -13/3/4
f -18/3/4 -16/3/4 -12/3/4
f -16/2/4 -15/2/4 -12/2/4
f -15/1/4 -14/1/4 -11/1/4
f -12/2/4 -15/2/4 -11/2/4
f -14/2/4 -13/2/4 -10/2/4
f -11/1/4 -14/1/4 -10/1/4
f -13/3/4 -17/3/4 -9/3/4
f -10/2/4 -13/2/4 -9/2/4
f -12/3/4 -11/3/4 -8/3/4
f -18/3/4 -12/3/4 -8/3/4
f -11/1/4 -10/1/4 -7/1/4
f -8/3/4 -11/3/4 -7/3/4
f -10/3/4 -9/3/4 -6/3/4
f -7/1/4 -10/1/4 -6/1/4
f -9/3/4 -17/3/4 -5/3/4
f -6/3/4 -9/3/4 -5/3/4
f -18/3/4 -8/3/4 -4/3/4
f -7/1/4 -6/1/4 -4/1/4
f -6/1/4 -5/1/4 -4/1/4
f -8/1/4 -7/1/4 -4/1/4
f -5/3/4 -17/3/4 -3/3/4
f -4/1/4 -5/1/4 -3/1/4
f -18/3/4 -4/3/4 -2/3/4
f -4/3/4 -3/3/4 -2/3/4
f -3/3/4 -17/3/4 -1/3/4
f -2/3/4 -3/3/4 -1/3/4
v -8 0 0.5
v 8 0 0.5
v -8 0 -0.5
v 8 0 -0.5
f -2/3/5 -3/3/5 -4/3/5
f -1/3/5 -3/3/5 -2/3/5
v -8 15 0.5
v 8 15 0.5
v -8 15 -0.5
v 8 15 -0.5
f -4/3/6 -3/3/6 -2/3/6
f -2/3/6 -3/3/6 -1/3/6
