# MagicaVoxel @ ephtracy

# material
mtllib Office Hanging 2.mtl
usemtl palette

# normals
vn -1 0 0
vn 1 0 0
vn 0 0 1
vn 0 0 -1
vn 0 -1 0
vn 0 1 0

# texcoords
vt 0.0917969 0.5
vt 0.115234 0.5
vt 0.173828 0.5
vt 0.208984 0.5
vt 0.271484 0.5
vt 0.345703 0.5
vt 0.369141 0.5
vt 0.505859 0.5
vt 0.509766 0.5
vt 0.513672 0.5
vt 0.537109 0.5
vt 0.619141 0.5
vt 0.958984 0.5
vt 0.986328 0.5
vt 0.990234 0.5

# verts and faces
v -6 0 1.5
v -6 0 -0.5
v -6 1 0.5
v -6 1 -0.5
v -6 11 1.5
v -6 11 0.5
f -4/15/1 -5/15/1 -6/15/1
f -3/15/1 -5/15/1 -4/15/1
f -2/15/1 -4/15/1 -6/15/1
f -1/15/1 -4/15/1 -2/15/1
v -4 1 0.5
v -4 1 -0.5
v -4 2 0.5
v -4 2 -0.5
v -4 3 1.5
v -4 3 0.5
v -4 8 1.5
v -4 8 0.5
f -6/14/1 -7/14/1 -8/14/1
f -5/14/1 -7/14/1 -6/14/1
f -2/13/1 -3/13/1 -4/13/1
f -1/13/1 -3/13/1 -2/13/1
v 0 12 -0.5
v 0 12 -1.5
v 0 13 -0.5
v 0 13 -1.5
f -2/6/1 -3/6/1 -4/6/1
f -1/6/1 -3/6/1 -2/6/1
v 1 1 1.5
v 1 1 0.5
v 1 4 1.5
v 1 4 0.5
v 1 8 1.5
v 1 8 -0.5
v 1 10 1.5
v 1 10 0.5
v 1 10 -0.5
v 1 11 0.5
v 1 11 -0.5
v 1 12 0.5
v 1 12 -0.5
v 1 13 0.5
v 1 13 -0.5
v 1 13 -1.5
v 1 14 -0.5
v 1 14 -1.5
f -16/8/1 -17/8/1 -18/8/1
f -15/8/1 -17/8/1 -16/8/1
f -12/7/1 -13/7/1 -14/7/1
f -11/7/1 -13/7/1 -12/7/1
f -10/7/1 -13/7/1 -11/7/1
f -9/11/1 -10/11/1 -11/11/1
f -8/11/1 -10/11/1 -9/11/1
f -5/10/1 -6/10/1 -7/10/1
f -4/10/1 -6/10/1 -5/10/1
f -2/10/1 -3/10/1 -4/10/1
f -1/10/1 -3/10/1 -2/10/1
v 2 4 1.5
v 2 4 0.5
v 2 6 1.5
v 2 6 0.5
v 2 11 1.5
v 2 11 -0.5
v 2 12 1.5
v 2 12 0.5
v 2 12 -0.5
v 2 13 1.5
v 2 13 0.5
v 2 14 1.5
v 2 14 0.5
f -11/8/1 -12/8/1 -13/8/1
f -10/8/1 -12/8/1 -11/8/1
f -7/9/1 -8/9/1 -9/9/1
f -6/9/1 -8/9/1 -7/9/1
f -5/9/1 -8/9/1 -6/9/1
f -2/6/1 -3/6/1 -4/6/1
f -1/6/1 -3/6/1 -2/6/1
v 3 1 0.5
v 3 1 -0.5
v 3 2 0.5
v 3 2 -0.5
v 3 3 0.5
v 3 3 -0.5
v 3 12 1.5
v 3 12 0.5
v 3 12 -0.5
v 3 12 -1.5
v 3 13 1.5
v 3 13 0.5
v 3 13 -0.5
v 3 13 -1.5
f -12/3/1 -13/3/1 -14/3/1
f -11/3/1 -13/3/1 -12/3/1
f -10/2/1 -11/2/1 -12/2/1
f -9/2/1 -11/2/1 -10/2/1
f -4/10/1 -7/10/1 -8/10/1
f -3/10/1 -7/10/1 -4/10/1
f -2/10/1 -5/10/1 -6/10/1
f -1/10/1 -5/10/1 -2/10/1
v 4 13 1.5
v 4 13 0.5
v 4 13 -0.5
v 4 13 -1.5
v 4 14 1.5
v 4 14 0.5
v 4 14 -0.5
v 4 14 -1.5
f -4/10/1 -7/10/1 -8/10/1
f -3/10/1 -7/10/1 -4/10/1
f -2/6/1 -5/6/1 -6/6/1
f -1/6/1 -5/6/1 -2/6/1
v 5 1 1.5
v 5 1 0.5
v 5 10 1.5
v 5 10 0.5
f -2/15/1 -3/15/1 -4/15/1
f -1/15/1 -3/15/1 -2/15/1
v -5 1 1.5
v -5 1 0.5
v -5 10 1.5
v -5 10 0.5
f -4/15/2 -3/15/2 -2/15/2
f -2/15/2 -3/15/2 -1/15/2
v 0 1 0.5
v 0 1 -0.5
v 0 2 0.5
v 0 2 -0.5
v 0 3 1.5
v 0 3 0.5
v 0 8 1.5
v 0 8 0.5
f -8/1/2 -7/1/2 -6/1/2
f -6/1/2 -7/1/2 -5/1/2
f -4/13/2 -3/13/2 -2/13/2
f -2/13/2 -3/13/2 -1/13/2
v 1 12 -0.5
v 1 12 -1.5
v 1 13 -0.5
v 1 13 -1.5
f -4/6/2 -3/6/2 -2/6/2
f -2/6/2 -3/6/2 -1/6/2
v 2 12 0.5
v 2 12 -0.5
v 2 13 0.5
v 2 13 -0.5
v 2 13 -1.5
v 2 14 -0.5
v 2 14 -1.5
f -7/10/2 -6/10/2 -5/10/2
f -5/10/2 -6/10/2 -4/10/2
f -4/10/2 -3/10/2 -2/10/2
f -2/10/2 -3/10/2 -1/10/2
v 3 4 1.5
v 3 4 0.5
v 3 6 1.5
v 3 6 0.5
v 3 11 1.5
v 3 11 -0.5
v 3 12 1.5
v 3 12 0.5
v 3 12 -0.5
v 3 13 1.5
v 3 13 0.5
v 3 14 1.5
v 3 14 0.5
f -13/8/2 -12/8/2 -11/8/2
f -11/8/2 -12/8/2 -10/8/2
f -9/9/2 -8/9/2 -7/9/2
f -7/9/2 -8/9/2 -6/9/2
f -6/9/2 -8/9/2 -5/9/2
f -4/6/2 -3/6/2 -2/6/2
f -2/6/2 -3/6/2 -1/6/2
v 4 1 1.5
v 4 1 0.5
v 4 1 -0.5
v 4 2 0.5
v 4 2 -0.5
v 4 3 0.5
v 4 3 -0.5
v 4 4 1.5
v 4 4 0.5
v 4 8 1.5
v 4 8 -0.5
v 4 10 1.5
v 4 10 0.5
v 4 10 -0.5
v 4 11 0.5
v 4 11 -0.5
v 4 12 1.5
v 4 12 0.5
v 4 12 -0.5
v 4 12 -1.5
v 4 13 1.5
v 4 13 0.5
v 4 13 -0.5
v 4 13 -1.5
f -24/8/2 -23/8/2 -21/8/2
f -23/3/2 -22/3/2 -21/3/2
f -21/3/2 -22/3/2 -20/3/2
f -24/8/2 -21/8/2 -19/8/2
f -21/2/2 -20/2/2 -19/2/2
f -19/2/2 -20/2/2 -18/2/2
f -24/8/2 -19/8/2 -17/8/2
f -17/8/2 -19/8/2 -16/8/2
f -15/7/2 -14/7/2 -13/7/2
f -13/7/2 -14/7/2 -12/7/2
f -12/7/2 -14/7/2 -11/7/2
f -12/11/2 -11/11/2 -10/11/2
f -10/11/2 -11/11/2 -9/11/2
f -8/10/2 -7/10/2 -4/10/2
f -4/10/2 -7/10/2 -3/10/2
f -6/10/2 -5/10/2 -2/10/2
f -2/10/2 -5/10/2 -1/10/2
v 5 13 1.5
v 5 13 0.5
v 5 13 -0.5
v 5 13 -1.5
v 5 14 1.5
v 5 14 0.5
v 5 14 -0.5
v 5 14 -1.5
f -8/10/2 -7/10/2 -4/10/2
f -4/10/2 -7/10/2 -3/10/2
f -6/6/2 -5/6/2 -2/6/2
f -2/6/2 -5/6/2 -1/6/2
v 6 0 1.5
v 6 0 -0.5
v 6 1 0.5
v 6 1 -0.5
v 6 11 1.5
v 6 11 0.5
f -6/15/2 -5/15/2 -4/15/2
f -4/15/2 -5/15/2 -3/15/2
f -6/15/2 -4/15/2 -2/15/2
f -2/15/2 -4/15/2 -1/15/2
v -6 0 1.5
v -6 11 1.5
v -5 1 1.5
v -5 10 1.5
v -4 3 1.5
v -4 8 1.5
v -3 4 1.5
v -3 5 1.5
v -3 6 1.5
v -3 7 1.5
v -2 6 1.5
v -2 7 1.5
v -1 4 1.5
v -1 5 1.5
v -1 6 1.5
v -1 7 1.5
v 0 3 1.5
v 0 8 1.5
v 1 1 1.5
v 1 4 1.5
v 1 8 1.5
v 1 10 1.5
v 1 11 1.5
v 2 4 1.5
v 2 6 1.5
v 2 11 1.5
v 2 12 1.5
v 2 13 1.5
v 2 14 1.5
v 3 4 1.5
v 3 6 1.5
v 3 11 1.5
v 3 12 1.5
v 3 13 1.5
v 3 14 1.5
v 4 1 1.5
v 4 4 1.5
v 4 8 1.5
v 4 10 1.5
v 4 11 1.5
v 4 12 1.5
v 4 13 1.5
v 4 14 1.5
v 5 1 1.5
v 5 10 1.5
v 5 13 1.5
v 5 14 1.5
v 6 0 1.5
v 6 11 1.5
f -47/15/3 -48/15/3 -49/15/3
f -46/15/3 -48/15/3 -47/15/3
f -43/13/3 -44/13/3 -45/13/3
f -42/13/3 -44/13/3 -43/13/3
f -41/13/3 -44/13/3 -42/13/3
f -40/13/3 -44/13/3 -41/13/3
f -39/5/3 -41/5/3 -42/5/3
f -39/12/3 -40/12/3 -41/12/3
f -38/13/3 -44/13/3 -40/13/3
f -38/12/3 -40/12/3 -39/12/3
f -37/13/3 -43/13/3 -45/13/3
f -37/11/3 -42/11/3 -43/11/3
f -36/5/3 -39/5/3 -42/5/3
f -36/11/3 -42/11/3 -37/11/3
f -35/4/3 -38/4/3 -39/4/3
f -35/5/3 -39/5/3 -36/5/3
f -34/13/3 -44/13/3 -38/13/3
f -34/4/3 -38/4/3 -35/4/3
f -33/13/3 -35/13/3 -36/13/3
f -33/13/3 -36/13/3 -37/13/3
f -33/13/3 -34/13/3 -35/13/3
f -33/13/3 -37/13/3 -45/13/3
f -32/13/3 -44/13/3 -34/13/3
f -32/13/3 -34/13/3 -33/13/3
f -31/15/3 -47/15/3 -49/15/3
f -28/15/3 -48/15/3 -46/15/3
f -27/15/3 -48/15/3 -28/15/3
f -26/8/3 -30/8/3 -31/8/3
f -24/11/3 -27/11/3 -28/11/3
f -20/8/3 -25/8/3 -26/8/3
f -20/8/3 -26/8/3 -31/8/3
f -19/8/3 -25/8/3 -20/8/3
f -18/11/3 -24/11/3 -28/11/3
f -18/9/3 -23/9/3 -24/9/3
f -17/9/3 -23/9/3 -18/9/3
f -16/6/3 -21/6/3 -22/6/3
f -15/6/3 -21/6/3 -16/6/3
f -14/15/3 -31/15/3 -49/15/3
f -14/8/3 -20/8/3 -31/8/3
f -13/8/3 -20/8/3 -14/8/3
f -12/7/3 -28/7/3 -29/7/3
f -11/11/3 -18/11/3 -28/11/3
f -11/7/3 -28/7/3 -12/7/3
f -10/11/3 -18/11/3 -11/11/3
f -9/10/3 -16/10/3 -17/10/3
f -8/10/3 -16/10/3 -9/10/3
f -6/15/3 -14/15/3 -49/15/3
f -5/15/3 -10/15/3 -11/15/3
f -4/10/3 -7/10/3 -8/10/3
f -3/10/3 -7/10/3 -4/10/3
f -2/15/3 -6/15/3 -49/15/3
f -2/15/3 -5/15/3 -6/15/3
f -1/15/3 -10/15/3 -5/15/3
f -1/15/3 -5/15/3 -2/15/3
v -4 1 0.5
v -4 2 0.5
v -1 1 0.5
v -1 2 0.5
v 0 1 0.5
v 0 2 0.5
v 1 12 0.5
v 1 13 0.5
v 2 12 0.5
v 2 13 0.5
f -8/14/3 -9/14/3 -10/14/3
f -7/14/3 -9/14/3 -8/14/3
f -6/1/3 -7/1/3 -8/1/3
f -5/1/3 -7/1/3 -6/1/3
f -2/10/3 -3/10/3 -4/10/3
f -1/10/3 -3/10/3 -2/10/3
v 0 12 -0.5
v 0 13 -0.5
v 1 12 -0.5
v 1 13 -0.5
v 1 14 -0.5
v 2 13 -0.5
v 2 14 -0.5
v 3 12 -0.5
v 3 13 -0.5
v 4 12 -0.5
v 4 13 -0.5
v 4 14 -0.5
v 5 13 -0.5
v 5 14 -0.5
f -12/6/3 -13/6/3 -14/6/3
f -11/6/3 -13/6/3 -12/6/3
f -9/10/3 -10/10/3 -11/10/3
f -8/10/3 -10/10/3 -9/10/3
f -5/10/3 -6/10/3 -7/10/3
f -4/10/3 -6/10/3 -5/10/3
f -2/6/3 -3/6/3 -4/6/3
f -1/6/3 -3/6/3 -2/6/3
v -6 1 0.5
v -6 11 0.5
v -5 1 0.5
v -5 10 0.5
v -4 3 0.5
v -4 8 0.5
v -3 4 0.5
v -3 5 0.5
v -3 6 0.5
v -3 7 0.5
v -2 6 0.5
v -2 7 0.5
v -1 4 0.5
v -1 5 0.5
v -1 6 0.5
v -1 7 0.5
v 0 3 0.5
v 0 8 0.5
v 1 1 0.5
v 1 4 0.5
v 1 10 0.5
v 1 11 0.5
v 2 4 0.5
v 2 6 0.5
v 2 13 0.5
v 2 14 0.5
v 3 1 0.5
v 3 2 0.5
v 3 3 0.5
v 3 4 0.5
v 3 6 0.5
v 3 12 0.5
v 3 13 0.5
v 3 14 0.5
v 4 3 0.5
v 4 4 0.5
v 4 10 0.5
v 4 11 0.5
v 4 12 0.5
v 4 13 0.5
v 4 14 0.5
v 5 1 0.5
v 5 10 0.5
v 5 13 0.5
v 5 14 0.5
v 6 1 0.5
v 6 11 0.5
f -47/15/4 -46/15/4 -45/15/4
f -45/15/4 -46/15/4 -44/15/4
f -43/13/4 -42/13/4 -41/13/4
f -41/13/4 -42/13/4 -40/13/4
f -40/13/4 -42/13/4 -39/13/4
f -39/13/4 -42/13/4 -38/13/4
f -40/5/4 -39/5/4 -37/5/4
f -39/12/4 -38/12/4 -37/12/4
f -38/13/4 -42/13/4 -36/13/4
f -37/12/4 -38/12/4 -36/12/4
f -43/13/4 -41/13/4 -35/13/4
f -41/11/4 -40/11/4 -35/11/4
f -40/5/4 -37/5/4 -34/5/4
f -35/11/4 -40/11/4 -34/11/4
f -37/4/4 -36/4/4 -33/4/4
f -34/5/4 -37/5/4 -33/5/4
f -36/13/4 -42/13/4 -32/13/4
f -33/4/4 -36/4/4 -32/4/4
f -34/13/4 -33/13/4 -31/13/4
f -35/13/4 -34/13/4 -31/13/4
f -33/13/4 -32/13/4 -31/13/4
f -43/13/4 -35/13/4 -31/13/4
f -32/13/4 -42/13/4 -30/13/4
f -31/13/4 -32/13/4 -30/13/4
f -44/15/4 -46/15/4 -27/15/4
f -27/15/4 -46/15/4 -26/15/4
f -29/8/4 -28/8/4 -25/8/4
f -25/8/4 -24/8/4 -21/8/4
f -29/8/4 -25/8/4 -21/8/4
f -21/8/4 -24/8/4 -20/8/4
f -20/8/4 -24/8/4 -19/8/4
f -19/8/4 -24/8/4 -18/8/4
f -18/8/4 -24/8/4 -17/8/4
f -23/6/4 -22/6/4 -15/6/4
f -15/6/4 -22/6/4 -14/6/4
f -19/8/4 -18/8/4 -13/8/4
f -13/8/4 -18/8/4 -12/8/4
f -16/10/4 -15/10/4 -9/10/4
f -9/10/4 -15/10/4 -8/10/4
f -11/15/4 -10/15/4 -5/15/4
f -8/10/4 -7/10/4 -4/10/4
f -4/10/4 -7/10/4 -3/10/4
f -6/15/4 -5/15/4 -2/15/4
f -5/15/4 -10/15/4 -1/15/4
f -2/15/4 -5/15/4 -1/15/4
v -6 0 -0.5
v -6 1 -0.5
v -4 1 -0.5
v -4 2 -0.5
v -1 1 -0.5
v -1 2 -0.5
v 0 1 -0.5
v 0 2 -0.5
v 1 8 -0.5
v 1 10 -0.5
v 1 11 -0.5
v 1 12 -0.5
v 1 13 -0.5
v 2 11 -0.5
v 2 12 -0.5
v 2 13 -0.5
v 3 1 -0.5
v 3 2 -0.5
v 3 3 -0.5
v 3 11 -0.5
v 3 12 -0.5
v 4 1 -0.5
v 4 2 -0.5
v 4 3 -0.5
v 4 8 -0.5
v 4 10 -0.5
v 4 11 -0.5
v 6 0 -0.5
v 6 1 -0.5
f -29/15/4 -28/15/4 -27/15/4
f -29/15/4 -27/15/4 -25/15/4
f -27/14/4 -26/14/4 -25/14/4
f -25/14/4 -26/14/4 -24/14/4
f -29/15/4 -25/15/4 -23/15/4
f -25/1/4 -24/1/4 -23/1/4
f -23/1/4 -24/1/4 -22/1/4
f -20/11/4 -19/11/4 -16/11/4
f -18/10/4 -17/10/4 -15/10/4
f -15/10/4 -17/10/4 -14/10/4
f -29/15/4 -23/15/4 -13/15/4
f -20/11/4 -16/11/4 -10/11/4
f -16/9/4 -15/9/4 -10/9/4
f -10/9/4 -15/9/4 -9/9/4
f -13/3/4 -12/3/4 -8/3/4
f -29/15/4 -13/15/4 -8/15/4
f -12/2/4 -11/2/4 -7/2/4
f -8/3/4 -12/3/4 -7/3/4
f -7/2/4 -11/2/4 -6/2/4
f -21/7/4 -20/7/4 -5/7/4
f -20/11/4 -10/11/4 -4/11/4
f -5/7/4 -20/7/4 -4/7/4
f -4/11/4 -10/11/4 -3/11/4
f -29/15/4 -8/15/4 -2/15/4
f -2/15/4 -8/15/4 -1/15/4
v 0 12 -1.5
v 0 13 -1.5
v 1 12 -1.5
v 1 13 -1.5
v 1 14 -1.5
v 2 13 -1.5
v 2 14 -1.5
v 3 12 -1.5
v 3 13 -1.5
v 4 12 -1.5
v 4 13 -1.5
v 4 14 -1.5
v 5 13 -1.5
v 5 14 -1.5
f -14/6/4 -13/6/4 -12/6/4
f -12/6/4 -13/6/4 -11/6/4
f -11/10/4 -10/10/4 -9/10/4
f -9/10/4 -10/10/4 -8/10/4
f -7/10/4 -6/10/4 -5/10/4
f -5/10/4 -6/10/4 -4/10/4
f -4/6/4 -3/6/4 -2/6/4
f -2/6/4 -3/6/4 -1/6/4
v -6 0 1.5
v 6 0 1.5
v -6 0 -0.5
v 6 0 -0.5
f -2/15/5 -3/15/5 -4/15/5
f -1/15/5 -3/15/5 -2/15/5
v -4 3 1.5
v 0 3 1.5
v -4 3 0.5
v 0 3 0.5
f -2/13/5 -3/13/5 -4/13/5
f -1/13/5 -3/13/5 -2/13/5
v 1 8 1.5
v 4 8 1.5
v 1 8 -0.5
v 4 8 -0.5
f -2/7/5 -3/7/5 -4/7/5
f -1/7/5 -3/7/5 -2/7/5
v -5 10 1.5
v 1 10 1.5
v 4 10 1.5
v 5 10 1.5
v -5 10 0.5
v 1 10 0.5
v 4 10 0.5
v 5 10 0.5
f -4/15/5 -7/15/5 -8/15/5
f -3/15/5 -7/15/5 -4/15/5
f -2/15/5 -5/15/5 -6/15/5
f -1/15/5 -5/15/5 -2/15/5
v 3 12 1.5
v 4 12 1.5
v 1 12 0.5
v 2 12 0.5
v 3 12 0.5
v 4 12 0.5
v 0 12 -0.5
v 1 12 -0.5
v 2 12 -0.5
v 3 12 -0.5
v 4 12 -0.5
v 0 12 -1.5
v 1 12 -1.5
v 3 12 -1.5
v 4 12 -1.5
f -11/10/5 -14/10/5 -15/10/5
f -10/10/5 -14/10/5 -11/10/5
f -8/10/5 -12/10/5 -13/10/5
f -7/10/5 -12/10/5 -8/10/5
f -4/6/5 -8/6/5 -9/6/5
f -3/6/5 -8/6/5 -4/6/5
f -2/10/5 -5/10/5 -6/10/5
f -1/10/5 -5/10/5 -2/10/5
v 2 13 1.5
v 3 13 1.5
v 4 13 1.5
v 5 13 1.5
v 2 13 0.5
v 3 13 0.5
v 4 13 0.5
v 5 13 0.5
v 1 13 -0.5
v 2 13 -0.5
v 4 13 -0.5
v 5 13 -0.5
v 1 13 -1.5
v 2 13 -1.5
v 4 13 -1.5
v 5 13 -1.5
f -12/6/5 -15/6/5 -16/6/5
f -11/6/5 -15/6/5 -12/6/5
f -10/10/5 -13/10/5 -14/10/5
f -9/10/5 -13/10/5 -10/10/5
f -4/10/5 -7/10/5 -8/10/5
f -3/10/5 -7/10/5 -4/10/5
f -2/6/5 -5/6/5 -6/6/5
f -1/6/5 -5/6/5 -2/6/5
v -5 1 1.5
v 1 1 1.5
v 4 1 1.5
v 5 1 1.5
v -6 1 0.5
v -5 1 0.5
v -4 1 0.5
v -1 1 0.5
v 0 1 0.5
v 1 1 0.5
v 3 1 0.5
v 4 1 0.5
v 5 1 0.5
v 6 1 0.5
v -6 1 -0.5
v -4 1 -0.5
v 0 1 -0.5
v 3 1 -0.5
v 4 1 -0.5
v 6 1 -0.5
f -20/15/6 -19/15/6 -15/15/6
f -15/15/6 -19/15/6 -14/15/6
f -14/15/6 -19/15/6 -13/15/6
f -13/15/6 -19/15/6 -12/15/6
f -12/15/6 -19/15/6 -11/15/6
f -18/15/6 -17/15/6 -9/15/6
f -9/15/6 -17/15/6 -8/15/6
f -16/15/6 -15/15/6 -6/15/6
f -15/15/6 -14/15/6 -6/15/6
f -6/15/6 -14/15/6 -5/15/6
f -11/15/6 -10/15/6 -4/15/6
f -12/15/6 -11/15/6 -4/15/6
f -4/15/6 -10/15/6 -3/15/6
f -8/15/6 -7/15/6 -2/15/6
f -9/15/6 -8/15/6 -2/15/6
f -2/15/6 -7/15/6 -1/15/6
v -4 2 0.5
v -1 2 0.5
v 0 2 0.5
v -4 2 -0.5
v -1 2 -0.5
v 0 2 -0.5
f -6/14/6 -5/14/6 -3/14/6
f -5/1/6 -4/1/6 -2/1/6
f -3/14/6 -5/14/6 -2/14/6
f -2/1/6 -4/1/6 -1/1/6
v 3 3 0.5
v 4 3 0.5
v 3 3 -0.5
v 4 3 -0.5
f -4/2/6 -3/2/6 -2/2/6
f -2/2/6 -3/2/6 -1/2/6
v 1 4 1.5
v 2 4 1.5
v 3 4 1.5
v 4 4 1.5
v 1 4 0.5
v 2 4 0.5
v 3 4 0.5
v 4 4 0.5
f -8/8/6 -7/8/6 -4/8/6
f -4/8/6 -7/8/6 -3/8/6
f -6/8/6 -5/8/6 -2/8/6
f -2/8/6 -5/8/6 -1/8/6
v 2 6 1.5
v 3 6 1.5
v 2 6 0.5
v 3 6 0.5
f -4/8/6 -3/8/6 -2/8/6
f -2/8/6 -3/8/6 -1/8/6
v -4 8 1.5
v 0 8 1.5
v -4 8 0.5
v 0 8 0.5
f -4/13/6 -3/13/6 -2/13/6
f -2/13/6 -3/13/6 -1/13/6
v -6 11 1.5
v 1 11 1.5
v 2 11 1.5
v 3 11 1.5
v 4 11 1.5
v 6 11 1.5
v -6 11 0.5
v 1 11 0.5
v 4 11 0.5
v 6 11 0.5
v 1 11 -0.5
v 2 11 -0.5
v 3 11 -0.5
v 4 11 -0.5
f -14/15/6 -13/15/6 -8/15/6
f -13/11/6 -12/11/6 -7/11/6
f -8/15/6 -13/15/6 -7/15/6
f -10/15/6 -9/15/6 -6/15/6
f -11/11/6 -10/11/6 -6/11/6
f -6/15/6 -9/15/6 -5/15/6
f -7/11/6 -12/11/6 -4/11/6
f -4/11/6 -12/11/6 -3/11/6
f -11/11/6 -6/11/6 -2/11/6
f -2/11/6 -6/11/6 -1/11/6
v 2 12 1.5
v 3 12 1.5
v 2 12 0.5
v 3 12 0.5
v 2 12 -0.5
v 3 12 -0.5
f -6/9/6 -5/9/6 -4/9/6
f -4/9/6 -5/9/6 -3/9/6
f -4/9/6 -3/9/6 -2/9/6
f -2/9/6 -3/9/6 -1/9/6
v 3 13 1.5
v 4 13 1.5
v 1 13 0.5
v 2 13 0.5
v 3 13 0.5
v 4 13 0.5
v 0 13 -0.5
v 1 13 -0.5
v 2 13 -0.5
v 3 13 -0.5
v 4 13 -0.5
v 0 13 -1.5
v 1 13 -1.5
v 3 13 -1.5
v 4 13 -1.5
f -15/10/6 -14/10/6 -11/10/6
f -11/10/6 -14/10/6 -10/10/6
f -13/10/6 -12/10/6 -8/10/6
f -8/10/6 -12/10/6 -7/10/6
f -9/6/6 -8/6/6 -4/6/6
f -4/6/6 -8/6/6 -3/6/6
f -6/10/6 -5/10/6 -2/10/6
f -2/10/6 -5/10/6 -1/10/6
v 2 14 1.5
v 3 14 1.5
v 4 14 1.5
v 5 14 1.5
v 2 14 0.5
v 3 14 0.5
v 4 14 0.5
v 5 14 0.5
v 1 14 -0.5
v 2 14 -0.5
v 4 14 -0.5
v 5 14 -0.5
v 1 14 -1.5
v 2 14 -1.5
v 4 14 -1.5
v 5 14 -1.5
f -16/6/6 -15/6/6 -12/6/6
f -12/6/6 -15/6/6 -11/6/6
f -14/10/6 -13/10/6 -10/10/6
f -10/10/6 -13/10/6 -9/10/6
f -8/10/6 -7/10/6 -4/10/6
f -4/10/6 -7/10/6 -3/10/6
f -6/6/6 -5/6/6 -2/6/6
f -2/6/6 -5/6/6 -1/6/6
