# MagicaVoxel @ ephtracy

# material
mtllib Security Locker.mtl
usemtl palette

# normals
vn -1 0 0
vn 1 0 0
vn 0 0 1
vn 0 0 -1
vn 0 -1 0
vn 0 1 0

# texcoords
vt 0.00585938 0.5
vt 0.310547 0.5
vt 0.478516 0.5
vt 0.505859 0.5
vt 0.556641 0.5
vt 0.673828 0.5
vt 0.677734 0.5
vt 0.740234 0.5
vt 0.962891 0.5
vt 0.970703 0.5
vt 0.974609 0.5
vt 0.978516 0.5
vt 0.986328 0.5
vt 0.990234 0.5

# verts and faces
v -6 0 3
v -6 0 -5
v -6 33 3
v -6 33 -5
f -2/4/1 -3/4/1 -4/4/1
f -1/4/1 -3/4/1 -2/4/1
v -3 10 -1
v -3 10 -2
v -3 11 2
v -3 11 1
v -3 11 -1
v -3 11 -2
v -3 12 2
v -3 12 1
v -3 16 -1
v -3 16 -2
v -3 17 -1
v -3 17 -2
v -3 23 -1
v -3 23 -2
v -3 24 -1
v -3 24 -2
v -3 25 -1
v -3 25 -2
v -3 26 -1
v -3 26 -2
v -3 29 2
v -3 29 1
v -3 30 2
v -3 30 1
f -20/1/1 -23/1/1 -24/1/1
f -19/1/1 -23/1/1 -20/1/1
f -18/1/1 -21/1/1 -22/1/1
f -17/1/1 -21/1/1 -18/1/1
f -14/11/1 -15/11/1 -16/11/1
f -13/11/1 -15/11/1 -14/11/1
f -10/12/1 -11/12/1 -12/12/1
f -9/12/1 -11/12/1 -10/12/1
f -8/11/1 -9/11/1 -10/11/1
f -7/11/1 -9/11/1 -8/11/1
f -6/13/1 -7/13/1 -8/13/1
f -5/13/1 -7/13/1 -6/13/1
f -2/11/1 -3/11/1 -4/11/1
f -1/11/1 -3/11/1 -2/11/1
v -1 17 -0
v -1 17 -1
v -1 18 -0
v -1 18 -1
f -2/3/1 -3/3/1 -4/3/1
f -1/3/1 -3/3/1 -2/3/1
v 0 18 2
v 0 18 -0
v 0 18 -1
v 0 19 -0
v 0 19 -1
v 0 22 1
v 0 22 -0
v 0 23 1
v 0 24 1
v 0 24 -0
v 0 25 1
v 0 25 -0
v 0 26 1
v 0 29 2
v 0 29 1
f -12/4/1 -14/4/1 -15/4/1
f -12/8/1 -13/8/1 -14/8/1
f -11/8/1 -13/8/1 -12/8/1
f -10/4/1 -12/4/1 -15/4/1
f -9/4/1 -12/4/1 -10/4/1
f -8/4/1 -10/4/1 -15/4/1
f -7/4/1 -8/4/1 -15/4/1
f -5/4/1 -7/4/1 -15/4/1
f -5/4/1 -6/4/1 -7/4/1
f -4/4/1 -6/4/1 -5/4/1
f -3/4/1 -5/4/1 -15/4/1
f -2/4/1 -3/4/1 -15/4/1
f -1/4/1 -3/4/1 -2/4/1
v 3 16 4
v 3 16 3
v 3 17 5
v 3 17 4
v 3 17 3
v 3 17 -0
v 3 17 -1
v 3 18 5
v 3 18 4
v 3 18 3
v 3 18 -0
v 3 19 4
v 3 19 3
v 3 19 -0
v 3 19 -1
v 3 20 -0
v 3 20 -1
v 3 21 -0
v 3 21 -1
f -16/11/1 -18/11/1 -19/11/1
f -15/11/1 -18/11/1 -16/11/1
f -12/11/1 -16/11/1 -17/11/1
f -11/14/1 -15/14/1 -16/14/1
f -11/11/1 -16/11/1 -12/11/1
f -10/14/1 -15/14/1 -11/14/1
f -9/6/1 -13/6/1 -14/6/1
f -8/11/1 -10/11/1 -11/11/1
f -7/11/1 -10/11/1 -8/11/1
f -6/6/1 -13/6/1 -9/6/1
f -5/6/1 -13/6/1 -6/6/1
f -4/4/1 -5/4/1 -6/4/1
f -3/4/1 -5/4/1 -4/4/1
f -2/6/1 -3/6/1 -4/6/1
f -1/6/1 -3/6/1 -2/6/1
v 4 10 1
v 4 10 -0
v 4 11 1
v 4 11 -0
v 4 13 2
v 4 13 1
v 4 13 -0
v 4 15 2
v 4 15 1
v 4 15 -0
v 4 16 2
v 4 16 1
v 4 16 -0
v 4 17 2
v 4 17 1
v 4 17 -0
v 4 18 1
v 4 18 -0
v 4 26 1
v 4 26 -0
v 4 26 -1
v 4 26 -2
v 4 27 -1
v 4 27 -2
v 4 28 1
v 4 28 -0
v 4 29 1
v 4 29 -0
f -26/11/1 -27/11/1 -28/11/1
f -25/11/1 -27/11/1 -26/11/1
f -23/10/1 -25/10/1 -26/10/1
f -22/10/1 -25/10/1 -23/10/1
f -21/4/1 -23/4/1 -24/4/1
f -21/4/1 -22/4/1 -23/4/1
f -20/4/1 -22/4/1 -21/4/1
f -19/4/1 -22/4/1 -20/4/1
f -17/10/1 -19/10/1 -20/10/1
f -16/10/1 -19/10/1 -17/10/1
f -15/4/1 -17/4/1 -18/4/1
f -14/4/1 -17/4/1 -15/4/1
f -12/10/1 -13/10/1 -14/10/1
f -11/10/1 -13/10/1 -12/10/1
f -6/11/1 -7/11/1 -8/11/1
f -5/11/1 -7/11/1 -6/11/1
f -4/10/1 -9/10/1 -10/10/1
f -3/10/1 -9/10/1 -4/10/1
f -2/11/1 -3/11/1 -4/11/1
f -1/11/1 -3/11/1 -2/11/1
v 5 10 2
v 5 10 1
v 5 10 -0
v 5 10 -2
v 5 11 1
v 5 11 -0
v 5 13 2
v 5 13 1
v 5 13 -0
v 5 15 2
v 5 15 1
v 5 15 -0
v 5 16 2
v 5 16 1
v 5 16 -0
v 5 17 2
v 5 17 1
v 5 17 -0
v 5 18 2
v 5 18 1
v 5 18 -0
v 5 26 -0
v 5 26 -1
v 5 26 -2
v 5 27 -1
v 5 27 -2
v 5 28 -0
v 5 29 -0
v 5 29 -1
v 5 30 -1
v 5 30 -2
f -27/4/1 -30/4/1 -31/4/1
f -26/4/1 -28/4/1 -29/4/1
f -25/4/1 -27/4/1 -31/4/1
f -24/4/1 -27/4/1 -25/4/1
f -23/4/1 -28/4/1 -26/4/1
f -20/4/1 -28/4/1 -23/4/1
f -19/4/1 -21/4/1 -22/4/1
f -18/4/1 -21/4/1 -19/4/1
f -17/4/1 -28/4/1 -20/4/1
f -14/4/1 -28/4/1 -17/4/1
f -13/4/1 -15/4/1 -16/4/1
f -12/4/1 -15/4/1 -13/4/1
f -11/4/1 -28/4/1 -14/4/1
f -10/4/1 -28/4/1 -11/4/1
f -9/4/1 -28/4/1 -10/4/1
f -8/4/1 -28/4/1 -9/4/1
f -7/4/1 -9/4/1 -10/4/1
f -5/4/1 -7/4/1 -10/4/1
f -5/4/1 -6/4/1 -7/4/1
f -4/4/1 -6/4/1 -5/4/1
f -3/4/1 -6/4/1 -4/4/1
f -2/4/1 -6/4/1 -3/4/1
f -1/4/1 -6/4/1 -2/4/1
v -4 10 2
v -4 10 1
v -4 10 -1
v -4 10 -2
v -4 16 1
v -4 16 -1
v -4 17 1
v -4 17 -1
v -4 22 1
v -4 22 -1
v -4 22 -2
v -4 23 1
v -4 23 -1
v -4 23 -2
v -4 27 -1
v -4 27 -2
v -4 28 -1
v -4 28 -2
v -4 29 1
v -4 29 -1
v -4 30 2
v -4 30 1
v -4 30 -1
v -4 30 -2
f -24/4/2 -23/4/2 -20/4/2
f -22/7/2 -21/7/2 -19/7/2
f -24/4/2 -20/4/2 -18/4/2
f -19/7/2 -21/7/2 -17/7/2
f -24/4/2 -18/4/2 -16/4/2
f -17/7/2 -21/7/2 -15/7/2
f -15/7/2 -21/7/2 -14/7/2
f -24/4/2 -16/4/2 -13/4/2
f -12/7/2 -11/7/2 -10/7/2
f -10/7/2 -11/7/2 -9/7/2
f -24/4/2 -13/4/2 -6/4/2
f -8/4/2 -7/4/2 -5/4/2
f -24/4/2 -6/4/2 -4/4/2
f -4/4/2 -6/4/2 -3/4/2
f -5/4/2 -7/4/2 -2/4/2
f -2/4/2 -7/4/2 -1/4/2
v -3 12 1
v -3 12 -1
v -3 16 1
v -3 16 -1
v -3 17 1
v -3 17 -0
v -3 19 -0
v -3 20 -0
v -3 20 -1
v -3 22 1
v -3 22 -1
v -3 24 1
v -3 24 -0
v -3 25 1
v -3 25 -0
v -3 26 1
v -3 26 -1
v -3 27 -0
v -3 27 -1
v -3 28 -0
v -3 28 -1
v -3 29 1
v -3 29 -1
f -23/7/2 -22/7/2 -21/7/2
f -21/7/2 -22/7/2 -20/7/2
f -19/7/2 -18/7/2 -17/7/2
f -19/7/2 -17/7/2 -16/7/2
f -19/7/2 -16/7/2 -14/7/2
f -16/7/2 -15/7/2 -14/7/2
f -14/7/2 -15/7/2 -13/7/2
f -12/7/2 -11/7/2 -10/7/2
f -10/7/2 -11/7/2 -9/7/2
f -8/7/2 -7/7/2 -6/7/2
f -6/7/2 -7/7/2 -5/7/2
f -8/7/2 -6/7/2 -4/7/2
f -6/12/2 -5/12/2 -4/12/2
f -4/12/2 -5/12/2 -3/12/2
f -8/7/2 -4/7/2 -2/7/2
f -4/7/2 -3/7/2 -2/7/2
f -2/7/2 -3/7/2 -1/7/2
v -2 17 -0
v -2 17 -1
v -2 19 -0
v -2 19 -1
v -2 20 -0
v -2 20 -1
f -6/2/2 -5/2/2 -4/2/2
f -4/2/2 -5/2/2 -3/2/2
f -4/5/2 -3/5/2 -2/5/2
f -2/5/2 -3/5/2 -1/5/2
v -1 27 -1
v -1 27 -2
v -1 28 -1
v -1 28 -2
f -4/12/2 -3/12/2 -2/12/2
f -2/12/2 -3/12/2 -1/12/2
v 1 18 -0
v 1 18 -1
v 1 19 -0
v 1 19 -1
f -4/8/2 -3/8/2 -2/8/2
f -2/8/2 -3/8/2 -1/8/2
v 2 11 2
v 2 11 1
v 2 11 -1
v 2 12 2
v 2 12 -1
v 2 17 -0
v 2 17 -1
v 2 18 -0
v 2 18 -1
v 2 23 -0
v 2 23 -2
v 2 24 -0
v 2 24 -2
v 2 25 -0
v 2 25 -2
v 2 26 -0
v 2 26 -2
f -17/1/2 -16/1/2 -14/1/2
f -16/1/2 -15/1/2 -14/1/2
f -14/1/2 -15/1/2 -13/1/2
f -12/3/2 -11/3/2 -10/3/2
f -10/3/2 -11/3/2 -9/3/2
f -8/12/2 -7/12/2 -6/12/2
f -6/12/2 -7/12/2 -5/12/2
f -4/13/2 -3/13/2 -2/13/2
f -2/13/2 -3/13/2 -1/13/2
v 3 10 1
v 3 10 -2
v 3 11 1
v 3 11 -2
v 3 24 -0
v 3 24 -2
v 3 25 -0
v 3 25 -2
f -8/1/2 -7/1/2 -6/1/2
f -6/1/2 -7/1/2 -5/1/2
f -4/11/2 -3/11/2 -2/11/2
f -2/11/2 -3/11/2 -1/11/2
v 4 16 4
v 4 16 3
v 4 16 -0
v 4 16 -2
v 4 17 5
v 4 17 4
v 4 17 3
v 4 17 -0
v 4 17 -1
v 4 17 -2
v 4 18 5
v 4 18 4
v 4 18 3
v 4 18 -0
v 4 19 4
v 4 19 3
v 4 19 -0
v 4 19 -1
v 4 20 -0
v 4 20 -1
v 4 21 -0
v 4 21 -1
v 4 22 -0
v 4 22 -2
v 4 23 -0
v 4 23 -2
f -26/11/2 -25/11/2 -21/11/2
f -21/11/2 -25/11/2 -20/11/2
f -24/11/2 -23/11/2 -19/11/2
f -19/11/2 -23/11/2 -18/11/2
f -18/11/2 -23/11/2 -17/11/2
f -22/11/2 -21/11/2 -16/11/2
f -21/14/2 -20/14/2 -15/14/2
f -16/11/2 -21/11/2 -15/11/2
f -15/14/2 -20/14/2 -14/14/2
f -19/6/2 -18/6/2 -13/6/2
f -15/11/2 -14/11/2 -12/11/2
f -12/11/2 -14/11/2 -11/11/2
f -13/6/2 -18/6/2 -10/6/2
f -10/6/2 -18/6/2 -9/6/2
f -10/4/2 -9/4/2 -8/4/2
f -8/4/2 -9/4/2 -7/4/2
f -8/6/2 -7/6/2 -6/6/2
f -6/6/2 -7/6/2 -5/6/2
f -4/11/2 -3/11/2 -2/11/2
f -2/11/2 -3/11/2 -1/11/2
v 6 0 3
v 6 0 -5
v 6 33 3
v 6 33 -5
f -4/4/2 -3/4/2 -2/4/2
f -2/4/2 -3/4/2 -1/4/2
v 3 17 5
v 3 18 5
v 4 17 5
v 4 18 5
f -2/11/3 -3/11/3 -4/11/3
f -1/11/3 -3/11/3 -2/11/3
v 3 16 4
v 3 17 4
v 3 18 4
v 3 19 4
v 4 16 4
v 4 17 4
v 4 18 4
v 4 19 4
f -4/11/3 -7/11/3 -8/11/3
f -3/11/3 -7/11/3 -4/11/3
f -2/11/3 -5/11/3 -6/11/3
f -1/11/3 -5/11/3 -2/11/3
v -6 0 3
v -6 33 3
v -5 2 3
v -5 32 3
v -4 3 3
v -4 31 3
v 3 16 3
v 3 17 3
v 3 18 3
v 3 19 3
v 4 3 3
v 4 16 3
v 4 17 3
v 4 18 3
v 4 19 3
v 4 31 3
v 5 2 3
v 5 32 3
v 6 0 3
v 6 33 3
f -18/4/3 -19/4/3 -20/4/3
f -17/4/3 -19/4/3 -18/4/3
f -16/13/3 -17/13/3 -18/13/3
f -15/13/3 -17/13/3 -16/13/3
f -14/4/3 -15/4/3 -16/4/3
f -13/4/3 -15/4/3 -14/4/3
f -12/4/3 -15/4/3 -13/4/3
f -11/4/3 -15/4/3 -12/4/3
f -10/13/3 -16/13/3 -18/13/3
f -10/4/3 -14/4/3 -16/4/3
f -9/4/3 -14/4/3 -10/4/3
f -6/4/3 -15/4/3 -11/4/3
f -5/13/3 -17/13/3 -15/13/3
f -5/4/3 -15/4/3 -6/4/3
f -4/4/3 -18/4/3 -20/4/3
f -4/13/3 -7/13/3 -8/13/3
f -4/13/3 -5/13/3 -6/13/3
f -4/13/3 -6/13/3 -7/13/3
f -4/13/3 -8/13/3 -9/13/3
f -4/13/3 -9/13/3 -10/13/3
f -4/13/3 -10/13/3 -18/13/3
f -3/13/3 -17/13/3 -5/13/3
f -3/13/3 -5/13/3 -4/13/3
f -3/4/3 -19/4/3 -17/4/3
f -2/4/3 -4/4/3 -20/4/3
f -2/4/3 -3/4/3 -4/4/3
f -1/4/3 -19/4/3 -3/4/3
f -1/4/3 -3/4/3 -2/4/3
v -4 10 1
v -4 16 1
v -4 17 1
v -4 22 1
v -4 23 1
v -4 29 1
v -4 30 1
v -3 10 1
v -3 11 1
v -3 12 1
v -3 16 1
v -3 17 1
v -3 22 1
v -3 23 1
v -3 24 1
v -3 25 1
v -3 26 1
v -3 29 1
v -3 30 1
v -1 16 1
v -1 17 1
v -1 22 1
v -1 23 1
v 0 22 1
v 0 23 1
v 0 24 1
v 0 25 1
v 0 26 1
v 1 16 1
v 1 17 1
v 2 11 1
v 2 16 1
v 2 17 1
v 3 10 1
v 3 11 1
v 3 16 1
v 3 17 1
v 4 10 1
v 4 11 1
v 4 13 1
v 4 15 1
v 4 16 1
v 4 17 1
v 4 18 1
v 5 10 1
v 5 11 1
v 5 13 1
v 5 15 1
v 5 16 1
v 5 17 1
v 5 18 1
f -44/7/3 -50/7/3 -51/7/3
f -43/7/3 -50/7/3 -44/7/3
f -42/7/3 -50/7/3 -43/7/3
f -41/12/3 -49/12/3 -50/12/3
f -41/7/3 -50/7/3 -42/7/3
f -40/7/3 -48/7/3 -49/7/3
f -40/12/3 -49/12/3 -41/12/3
f -39/11/3 -47/11/3 -48/11/3
f -39/7/3 -48/7/3 -40/7/3
f -38/7/3 -46/7/3 -47/7/3
f -38/11/3 -47/11/3 -39/11/3
f -37/7/3 -46/7/3 -38/7/3
f -36/7/3 -46/7/3 -37/7/3
f -35/7/3 -46/7/3 -36/7/3
f -34/11/3 -45/11/3 -46/11/3
f -34/7/3 -46/7/3 -35/7/3
f -33/11/3 -45/11/3 -34/11/3
f -32/11/3 -40/11/3 -41/11/3
f -31/11/3 -40/11/3 -32/11/3
f -30/11/3 -38/11/3 -39/11/3
f -29/12/3 -37/12/3 -38/12/3
f -29/11/3 -38/11/3 -30/11/3
f -28/10/3 -29/10/3 -30/10/3
f -27/12/3 -37/12/3 -29/12/3
f -27/10/3 -29/10/3 -28/10/3
f -26/12/3 -37/12/3 -27/12/3
f -25/13/3 -35/13/3 -36/13/3
f -24/13/3 -35/13/3 -25/13/3
f -23/10/3 -31/10/3 -32/10/3
f -22/10/3 -31/10/3 -23/10/3
f -21/1/3 -43/1/3 -44/1/3
f -20/9/3 -22/9/3 -23/9/3
f -19/9/3 -22/9/3 -20/9/3
f -18/1/3 -21/1/3 -44/1/3
f -17/1/3 -21/1/3 -18/1/3
f -16/4/3 -19/4/3 -20/4/3
f -15/4/3 -19/4/3 -16/4/3
f -10/10/3 -15/10/3 -16/10/3
f -9/10/3 -15/10/3 -10/10/3
f -7/11/3 -13/11/3 -14/11/3
f -6/10/3 -12/10/3 -13/10/3
f -6/11/3 -13/11/3 -7/11/3
f -5/10/3 -12/10/3 -6/10/3
f -4/10/3 -10/10/3 -11/10/3
f -3/10/3 -10/10/3 -4/10/3
f -2/10/3 -8/10/3 -9/10/3
f -1/10/3 -8/10/3 -2/10/3
v -3 17 -0
v -3 19 -0
v -3 20 -0
v -3 24 -0
v -3 25 -0
v -2 17 -0
v -2 19 -0
v -2 20 -0
v -1 17 -0
v -1 18 -0
v 0 17 -0
v 0 18 -0
v 0 24 -0
v 0 25 -0
v 1 17 -0
v 1 18 -0
v 2 17 -0
v 2 18 -0
v 3 17 -0
v 3 18 -0
v 4 17 -0
v 4 18 -0
f -17/2/3 -21/2/3 -22/2/3
f -16/5/3 -20/5/3 -21/5/3
f -16/2/3 -21/2/3 -17/2/3
f -15/5/3 -20/5/3 -16/5/3
f -12/3/3 -13/3/3 -14/3/3
f -11/3/3 -13/3/3 -12/3/3
f -10/11/3 -18/11/3 -19/11/3
f -9/11/3 -18/11/3 -10/11/3
f -8/9/3 -11/9/3 -12/9/3
f -7/9/3 -11/9/3 -8/9/3
f -6/3/3 -7/3/3 -8/3/3
f -5/3/3 -7/3/3 -6/3/3
f -2/6/3 -3/6/3 -4/6/3
f -1/6/3 -3/6/3 -2/6/3
v -3 27 -1
v -3 28 -1
v -1 27 -1
v -1 28 -1
v 4 26 -1
v 4 27 -1
v 5 26 -1
v 5 27 -1
f -6/12/3 -7/12/3 -8/12/3
f -5/12/3 -7/12/3 -6/12/3
f -2/11/3 -3/11/3 -4/11/3
f -1/11/3 -3/11/3 -2/11/3
v -4 10 -2
v -4 22 -2
v -4 23 -2
v -4 27 -2
v -4 28 -2
v -4 30 -2
v -3 10 -2
v -3 11 -2
v -3 16 -2
v -3 17 -2
v -3 23 -2
v -3 24 -2
v -3 25 -2
v -3 26 -2
v -3 27 -2
v -3 28 -2
v -1 27 -2
v -1 28 -2
v 2 23 -2
v 2 24 -2
v 2 25 -2
v 2 26 -2
v 3 10 -2
v 3 11 -2
v 3 24 -2
v 3 25 -2
v 4 16 -2
v 4 17 -2
v 4 22 -2
v 4 23 -2
v 4 26 -2
v 4 27 -2
v 5 10 -2
v 5 26 -2
v 5 27 -2
v 5 30 -2
f -30/7/3 -35/7/3 -36/7/3
f -29/7/3 -35/7/3 -30/7/3
f -28/7/3 -35/7/3 -29/7/3
f -27/7/3 -35/7/3 -28/7/3
f -26/7/3 -33/7/3 -34/7/3
f -25/7/3 -33/7/3 -26/7/3
f -24/7/3 -33/7/3 -25/7/3
f -23/7/3 -33/7/3 -24/7/3
f -22/7/3 -33/7/3 -23/7/3
f -21/7/3 -31/7/3 -32/7/3
f -20/7/3 -22/7/3 -23/7/3
f -19/7/3 -31/7/3 -21/7/3
f -15/7/3 -20/7/3 -23/7/3
f -15/7/3 -19/7/3 -20/7/3
f -13/7/3 -28/7/3 -29/7/3
f -12/7/3 -17/7/3 -18/7/3
f -11/7/3 -15/7/3 -16/7/3
f -10/7/3 -13/7/3 -14/7/3
f -10/7/3 -28/7/3 -13/7/3
f -9/7/3 -35/7/3 -27/7/3
f -8/7/3 -35/7/3 -9/7/3
f -7/7/3 -11/7/3 -12/7/3
f -7/7/3 -12/7/3 -18/7/3
f -6/7/3 -19/7/3 -15/7/3
f -6/7/3 -15/7/3 -11/7/3
f -6/7/3 -11/7/3 -7/7/3
f -5/7/3 -19/7/3 -6/7/3
f -4/7/3 -8/7/3 -9/7/3
f -4/7/3 -10/7/3 -14/7/3
f -4/7/3 -6/7/3 -7/7/3
f -4/7/3 -9/7/3 -10/7/3
f -4/7/3 -7/7/3 -8/7/3
f -3/7/3 -6/7/3 -4/7/3
f -2/7/3 -19/7/3 -5/7/3
f -1/7/3 -31/7/3 -19/7/3
f -1/7/3 -19/7/3 -2/7/3
v -4 10 2
v -4 30 2
v -3 11 2
v -3 12 2
v -3 29 2
v -3 30 2
v 0 18 2
v 0 29 2
v 2 11 2
v 2 12 2
v 4 10 2
v 4 13 2
v 4 15 2
v 4 16 2
v 4 17 2
v 4 18 2
v 5 10 2
v 5 13 2
v 5 15 2
v 5 16 2
v 5 17 2
v 5 18 2
f -22/4/4 -21/4/4 -20/4/4
f -20/4/4 -21/4/4 -19/4/4
f -19/4/4 -21/4/4 -18/4/4
f -18/4/4 -21/4/4 -17/4/4
f -19/4/4 -18/4/4 -16/4/4
f -16/4/4 -18/4/4 -15/4/4
f -22/4/4 -20/4/4 -14/4/4
f -19/4/4 -16/4/4 -13/4/4
f -22/4/4 -14/4/4 -12/4/4
f -14/4/4 -13/4/4 -12/4/4
f -13/4/4 -16/4/4 -11/4/4
f -12/4/4 -13/4/4 -11/4/4
f -11/4/4 -16/4/4 -10/4/4
f -10/4/4 -16/4/4 -9/4/4
f -9/4/4 -16/4/4 -8/4/4
f -8/4/4 -16/4/4 -7/4/4
f -12/13/4 -11/13/4 -6/13/4
f -6/13/4 -11/13/4 -5/13/4
f -10/13/4 -9/13/4 -4/13/4
f -4/13/4 -9/13/4 -3/13/4
f -8/13/4 -7/13/4 -2/13/4
f -2/13/4 -7/13/4 -1/13/4
v 0 26 1
v 0 29 1
v 2 26 1
v 4 26 1
v 4 28 1
v 4 29 1
f -6/4/4 -5/4/4 -4/4/4
f -4/4/4 -5/4/4 -3/4/4
f -3/4/4 -5/4/4 -2/4/4
f -2/4/4 -5/4/4 -1/4/4
v 0 19 -0
v 0 22 -0
v 1 18 -0
v 1 19 -0
v 2 18 -0
v 2 23 -0
v 2 24 -0
v 2 25 -0
v 2 26 -0
v 3 18 -0
v 3 19 -0
v 3 20 -0
v 3 21 -0
v 3 24 -0
v 3 25 -0
v 4 10 -0
v 4 11 -0
v 4 13 -0
v 4 15 -0
v 4 16 -0
v 4 17 -0
v 4 18 -0
v 4 19 -0
v 4 20 -0
v 4 21 -0
v 4 22 -0
v 4 23 -0
v 4 26 -0
v 4 28 -0
v 4 29 -0
v 5 10 -0
v 5 11 -0
v 5 13 -0
v 5 15 -0
v 5 16 -0
v 5 17 -0
v 5 18 -0
v 5 26 -0
v 5 28 -0
v 5 29 -0
f -40/4/4 -39/4/4 -37/4/4
f -38/4/4 -37/4/4 -36/4/4
f -36/4/4 -37/4/4 -31/4/4
f -37/4/4 -39/4/4 -30/4/4
f -31/4/4 -37/4/4 -30/4/4
f -30/4/4 -39/4/4 -29/4/4
f -29/4/4 -39/4/4 -28/4/4
f -35/4/4 -34/4/4 -27/4/4
f -33/4/4 -32/4/4 -26/4/4
f -28/4/4 -39/4/4 -16/4/4
f -16/4/4 -39/4/4 -15/4/4
f -35/4/4 -27/4/4 -14/4/4
f -27/4/4 -26/4/4 -14/4/4
f -26/4/4 -32/4/4 -13/4/4
f -14/4/4 -26/4/4 -13/4/4
f -25/11/4 -24/11/4 -10/11/4
f -24/10/4 -23/10/4 -9/10/4
f -10/11/4 -24/11/4 -9/11/4
f -23/4/4 -22/4/4 -8/4/4
f -9/10/4 -23/10/4 -8/10/4
f -22/10/4 -21/10/4 -7/10/4
f -8/4/4 -22/4/4 -7/4/4
f -21/4/4 -20/4/4 -6/4/4
f -7/10/4 -21/10/4 -6/10/4
f -20/10/4 -19/10/4 -5/10/4
f -6/4/4 -20/4/4 -5/4/4
f -16/4/4 -15/4/4 -4/4/4
f -5/10/4 -19/10/4 -4/10/4
f -18/4/4 -17/4/4 -4/4/4
f -17/4/4 -16/4/4 -4/4/4
f -14/4/4 -13/4/4 -4/4/4
f -15/4/4 -14/4/4 -4/4/4
f -19/4/4 -18/4/4 -4/4/4
f -13/10/4 -12/10/4 -3/10/4
f -4/4/4 -13/4/4 -3/4/4
f -12/11/4 -11/11/4 -2/11/4
f -3/10/4 -12/10/4 -2/10/4
f -2/11/4 -11/11/4 -1/11/4
v -4 10 -1
v -4 16 -1
v -4 17 -1
v -4 22 -1
v -4 23 -1
v -4 27 -1
v -4 28 -1
v -4 29 -1
v -4 30 -1
v -3 10 -1
v -3 11 -1
v -3 12 -1
v -3 16 -1
v -3 17 -1
v -3 19 -1
v -3 20 -1
v -3 22 -1
v -3 23 -1
v -3 24 -1
v -3 25 -1
v -3 26 -1
v -3 27 -1
v -3 28 -1
v -3 29 -1
v -2 17 -1
v -2 19 -1
v -2 20 -1
v -1 17 -1
v -1 18 -1
v 0 17 -1
v 0 18 -1
v 0 19 -1
v 1 17 -1
v 1 18 -1
v 1 19 -1
v 2 11 -1
v 2 12 -1
v 2 17 -1
v 2 18 -1
v 3 17 -1
v 3 19 -1
v 3 20 -1
v 3 21 -1
v 4 17 -1
v 4 19 -1
v 4 20 -1
v 4 21 -1
v 5 29 -1
v 5 30 -1
f -49/7/4 -48/7/4 -40/7/4
f -40/7/4 -48/7/4 -39/7/4
f -39/7/4 -48/7/4 -38/7/4
f -48/11/4 -47/11/4 -37/11/4
f -38/7/4 -48/7/4 -37/7/4
f -47/7/4 -46/7/4 -36/7/4
f -37/11/4 -47/11/4 -36/11/4
f -36/7/4 -46/7/4 -35/7/4
f -35/7/4 -46/7/4 -34/7/4
f -34/7/4 -46/7/4 -33/7/4
f -45/7/4 -44/7/4 -32/7/4
f -32/7/4 -44/7/4 -31/7/4
f -31/7/4 -44/7/4 -30/7/4
f -30/7/4 -44/7/4 -29/7/4
f -29/7/4 -44/7/4 -28/7/4
f -43/7/4 -42/7/4 -27/7/4
f -42/11/4 -41/11/4 -26/11/4
f -27/7/4 -42/7/4 -26/7/4
f -36/2/4 -35/2/4 -25/2/4
f -35/5/4 -34/5/4 -24/5/4
f -25/2/4 -35/2/4 -24/2/4
f -24/5/4 -34/5/4 -23/5/4
f -22/3/4 -21/3/4 -20/3/4
f -20/3/4 -21/3/4 -19/3/4
f -20/9/4 -19/9/4 -17/9/4
f -19/8/4 -18/8/4 -16/8/4
f -17/9/4 -19/9/4 -16/9/4
f -16/8/4 -18/8/4 -15/8/4
f -39/1/4 -38/1/4 -14/1/4
f -14/1/4 -38/1/4 -13/1/4
f -17/3/4 -16/3/4 -12/3/4
f -12/3/4 -16/3/4 -11/3/4
f -10/6/4 -9/6/4 -6/6/4
f -9/4/4 -8/4/4 -5/4/4
f -6/6/4 -9/6/4 -5/6/4
f -8/6/4 -7/6/4 -4/6/4
f -5/4/4 -8/4/4 -4/4/4
f -4/6/4 -7/6/4 -3/6/4
f -26/11/4 -41/11/4 -2/11/4
f -2/11/4 -41/11/4 -1/11/4
v -6 0 -5
v -6 33 -5
v 6 0 -5
v 6 33 -5
f -4/4/4 -3/4/4 -2/4/4
f -2/4/4 -3/4/4 -1/4/4
v -6 0 3
v 6 0 3
v -6 0 -5
v 6 0 -5
f -2/4/5 -3/4/5 -4/4/5
f -1/4/5 -3/4/5 -2/4/5
v -3 11 2
v 2 11 2
v -3 11 1
v 2 11 1
f -2/1/5 -3/1/5 -4/1/5
f -1/1/5 -3/1/5 -2/1/5
v 4 13 2
v 5 13 2
v 4 13 1
v 5 13 1
f -2/4/5 -3/4/5 -4/4/5
f -1/4/5 -3/4/5 -2/4/5
v 3 16 4
v 4 16 4
v 3 16 3
v 4 16 3
v 4 16 2
v 5 16 2
v -3 16 1
v -1 16 1
v 1 16 1
v 2 16 1
v 3 16 1
v 4 16 1
v 5 16 1
v -1 16 -0
v 1 16 -0
v 2 16 -0
v 3 16 -0
v 4 16 -0
v -3 16 -1
v -3 16 -2
v 4 16 -2
f -19/11/5 -20/11/5 -21/11/5
f -18/11/5 -20/11/5 -19/11/5
f -10/4/5 -16/4/5 -17/4/5
f -9/4/5 -16/4/5 -10/4/5
f -8/11/5 -14/11/5 -15/11/5
f -8/10/5 -13/10/5 -14/10/5
f -7/9/5 -12/9/5 -13/9/5
f -7/10/5 -13/10/5 -8/10/5
f -6/4/5 -11/4/5 -12/4/5
f -6/9/5 -12/9/5 -7/9/5
f -5/10/5 -10/10/5 -11/10/5
f -5/4/5 -11/4/5 -6/4/5
f -4/10/5 -10/10/5 -5/10/5
f -3/11/5 -7/11/5 -8/11/5
f -3/11/5 -6/11/5 -7/11/5
f -3/11/5 -4/11/5 -5/11/5
f -3/11/5 -5/11/5 -6/11/5
f -3/11/5 -8/11/5 -15/11/5
f -2/11/5 -4/11/5 -3/11/5
f -1/11/5 -4/11/5 -2/11/5
v 3 17 5
v 4 17 5
v 3 17 4
v 4 17 4
f -2/11/5 -3/11/5 -4/11/5
f -1/11/5 -3/11/5 -2/11/5
v 0 18 2
v 4 18 2
v 5 18 2
v 4 18 1
v 5 18 1
v 0 18 -0
v 1 18 -0
v 2 18 -0
v 3 18 -0
v 4 18 -0
f -7/4/5 -9/4/5 -10/4/5
f -7/4/5 -8/4/5 -9/4/5
f -6/4/5 -8/4/5 -7/4/5
f -5/4/5 -7/4/5 -10/4/5
f -4/4/5 -7/4/5 -5/4/5
f -3/4/5 -7/4/5 -4/4/5
f -2/4/5 -7/4/5 -3/4/5
f -1/4/5 -7/4/5 -2/4/5
v -3 22 1
v -1 22 1
v 0 22 1
v -1 22 -0
v 0 22 -0
v 4 22 -0
v -4 22 -1
v -3 22 -1
v -4 22 -2
v 4 22 -2
f -7/11/5 -9/11/5 -10/11/5
f -7/10/5 -8/10/5 -9/10/5
f -6/10/5 -8/10/5 -7/10/5
f -3/11/5 -7/11/5 -10/11/5
f -3/11/5 -5/11/5 -6/11/5
f -3/11/5 -6/11/5 -7/11/5
f -2/11/5 -3/11/5 -4/11/5
f -1/11/5 -5/11/5 -3/11/5
f -1/11/5 -3/11/5 -2/11/5
v 2 24 -0
v 3 24 -0
v 2 24 -2
v 3 24 -2
f -2/11/5 -3/11/5 -4/11/5
f -1/11/5 -3/11/5 -2/11/5
v -3 25 1
v 0 25 1
v -3 25 -0
v 0 25 -0
f -2/13/5 -3/13/5 -4/13/5
f -1/13/5 -3/13/5 -2/13/5
v 4 26 -1
v 5 26 -1
v 4 26 -2
v 5 26 -2
f -2/11/5 -3/11/5 -4/11/5
f -1/11/5 -3/11/5 -2/11/5
v -4 27 -1
v -3 27 -1
v -1 27 -1
v -4 27 -2
v -3 27 -2
v -1 27 -2
f -3/11/5 -5/11/5 -6/11/5
f -2/12/5 -4/12/5 -5/12/5
f -2/11/5 -5/11/5 -3/11/5
f -1/12/5 -4/12/5 -2/12/5
v -3 29 2
v 0 29 2
v -3 29 1
v 0 29 1
v 4 29 1
v 4 29 -0
v 5 29 -0
v -3 29 -1
v 5 29 -1
f -7/11/5 -8/11/5 -9/11/5
f -6/11/5 -8/11/5 -7/11/5
f -4/11/5 -6/11/5 -7/11/5
f -4/11/5 -5/11/5 -6/11/5
f -2/11/5 -4/11/5 -7/11/5
f -2/11/5 -3/11/5 -4/11/5
f -1/11/5 -3/11/5 -2/11/5
v -4 30 2
v -3 30 2
v -4 30 1
v -3 30 1
v -4 30 -1
v 5 30 -1
v -4 30 -2
v 5 30 -2
f -6/4/5 -7/4/5 -8/4/5
f -5/4/5 -7/4/5 -6/4/5
f -2/4/5 -3/4/5 -4/4/5
f -1/4/5 -3/4/5 -2/4/5
v -4 10 2
v 4 10 2
v 5 10 2
v -4 10 1
v -3 10 1
v 3 10 1
v 4 10 1
v 5 10 1
v 4 10 -0
v 5 10 -0
v -4 10 -1
v -3 10 -1
v -4 10 -2
v -3 10 -2
v 3 10 -2
v 5 10 -2
f -16/4/6 -15/4/6 -13/4/6
f -15/4/6 -14/4/6 -13/4/6
f -13/4/6 -14/4/6 -12/4/6
f -12/4/6 -14/4/6 -11/4/6
f -11/4/6 -14/4/6 -10/4/6
f -10/4/6 -14/4/6 -9/4/6
f -11/4/6 -10/4/6 -8/4/6
f -6/4/6 -5/4/6 -4/4/6
f -4/4/6 -5/4/6 -3/4/6
f -11/4/6 -8/4/6 -2/4/6
f -8/4/6 -7/4/6 -2/4/6
f -2/4/6 -7/4/6 -1/4/6
v 2 11 1
v 3 11 1
v -3 11 -1
v 2 11 -1
v -3 11 -2
v 3 11 -2
f -6/1/6 -5/1/6 -3/1/6
f -4/1/6 -3/1/6 -2/1/6
f -3/1/6 -5/1/6 -1/1/6
f -2/1/6 -3/1/6 -1/1/6
v -3 12 2
v 2 12 2
v -3 12 1
v -3 12 -1
v 2 12 -1
f -5/1/6 -4/1/6 -3/1/6
f -3/1/6 -4/1/6 -2/1/6
f -2/1/6 -4/1/6 -1/1/6
v 4 15 2
v 5 15 2
v 4 15 1
v 5 15 1
f -4/4/6 -3/4/6 -2/4/6
f -2/4/6 -3/4/6 -1/4/6
v 4 17 2
v 5 17 2
v -3 17 1
v -1 17 1
v 1 17 1
v 2 17 1
v 3 17 1
v 4 17 1
v 5 17 1
v -3 17 -0
v -2 17 -0
v -1 17 -0
v 0 17 -0
v 1 17 -0
v 2 17 -0
v 3 17 -0
v 4 17 -0
v -3 17 -1
v -2 17 -1
v -1 17 -1
v 0 17 -1
v 1 17 -1
v 2 17 -1
v 3 17 -1
v 4 17 -1
v -3 17 -2
v 4 17 -2
f -27/4/6 -26/4/6 -20/4/6
f -20/4/6 -26/4/6 -19/4/6
f -25/11/6 -24/11/6 -18/11/6
f -18/11/6 -24/11/6 -17/11/6
f -24/10/6 -23/10/6 -16/10/6
f -17/11/6 -24/11/6 -16/11/6
f -16/10/6 -23/10/6 -15/10/6
f -23/9/6 -22/9/6 -14/9/6
f -15/10/6 -23/10/6 -14/10/6
f -22/4/6 -21/4/6 -13/4/6
f -14/9/6 -22/9/6 -13/9/6
f -21/10/6 -20/10/6 -12/10/6
f -13/4/6 -21/4/6 -12/4/6
f -12/10/6 -20/10/6 -11/10/6
f -17/11/6 -16/11/6 -9/11/6
f -9/11/6 -16/11/6 -8/11/6
f -13/11/6 -12/11/6 -5/11/6
f -5/11/6 -12/11/6 -4/11/6
f -7/11/6 -6/11/6 -2/11/6
f -4/11/6 -3/11/6 -2/11/6
f -5/11/6 -4/11/6 -2/11/6
f -6/11/6 -5/11/6 -2/11/6
f -10/11/6 -9/11/6 -2/11/6
f -8/11/6 -7/11/6 -2/11/6
f -9/11/6 -8/11/6 -2/11/6
f -2/11/6 -3/11/6 -1/11/6
v 3 18 5
v 4 18 5
v 3 18 4
v 4 18 4
v -1 18 -0
v 0 18 -0
v 1 18 -0
v 2 18 -0
v -1 18 -1
v 0 18 -1
v 1 18 -1
v 2 18 -1
f -12/11/6 -11/11/6 -10/11/6
f -10/11/6 -11/11/6 -9/11/6
f -8/3/6 -7/3/6 -4/3/6
f -4/3/6 -7/3/6 -3/3/6
f -6/3/6 -5/3/6 -2/3/6
f -2/3/6 -5/3/6 -1/3/6
v 3 19 4
v 4 19 4
v 3 19 3
v 4 19 3
v 0 19 -0
v 1 19 -0
v 0 19 -1
v 1 19 -1
f -8/11/6 -7/11/6 -6/11/6
f -6/11/6 -7/11/6 -5/11/6
f -4/8/6 -3/8/6 -2/8/6
f -2/8/6 -3/8/6 -1/8/6
v -3 20 -0
v -2 20 -0
v -3 20 -1
v -2 20 -1
f -4/5/6 -3/5/6 -2/5/6
f -2/5/6 -3/5/6 -1/5/6
v 3 21 -0
v 4 21 -0
v 3 21 -1
v 4 21 -1
f -4/6/6 -3/6/6 -2/6/6
f -2/6/6 -3/6/6 -1/6/6
v 2 23 -0
v 4 23 -0
v -4 23 -1
v -3 23 -1
v -4 23 -2
v -3 23 -2
v 2 23 -2
v 4 23 -2
f -6/11/6 -5/11/6 -4/11/6
f -4/11/6 -5/11/6 -3/11/6
f -8/11/6 -7/11/6 -2/11/6
f -2/11/6 -7/11/6 -1/11/6
v -3 24 1
v 0 24 1
v -3 24 -0
v 0 24 -0
f -4/12/6 -3/12/6 -2/12/6
f -2/12/6 -3/12/6 -1/12/6
v 2 25 -0
v 3 25 -0
v 2 25 -2
v 3 25 -2
f -4/11/6 -3/11/6 -2/11/6
f -2/11/6 -3/11/6 -1/11/6
v -3 26 1
v 0 26 1
v 2 26 1
v 4 26 1
v 2 26 -0
v 4 26 -0
v -3 26 -1
v -3 26 -2
v 2 26 -2
f -9/13/6 -8/13/6 -5/13/6
f -7/4/6 -6/4/6 -5/4/6
f -8/13/6 -7/13/6 -5/13/6
f -5/4/6 -6/4/6 -4/4/6
f -9/13/6 -5/13/6 -3/13/6
f -3/13/6 -5/13/6 -2/13/6
f -2/13/6 -5/13/6 -1/13/6
v 4 27 -1
v 5 27 -1
v 4 27 -2
v 5 27 -2
f -4/11/6 -3/11/6 -2/11/6
f -2/11/6 -3/11/6 -1/11/6
v -4 28 -1
v -3 28 -1
v -1 28 -1
v -4 28 -2
v -3 28 -2
v -1 28 -2
f -6/11/6 -5/11/6 -3/11/6
f -5/12/6 -4/12/6 -2/12/6
f -3/11/6 -5/11/6 -2/11/6
f -2/12/6 -4/12/6 -1/12/6
v -6 33 3
v 6 33 3
v -6 33 -5
v 6 33 -5
f -4/4/6 -3/4/6 -2/4/6
f -2/4/6 -3/4/6 -1/4/6
