# MagicaVoxel @ ephtracy

# material
mtllib Commisary Doorway.mtl
usemtl palette

# normals
vn -1 0 0
vn 1 0 0
vn 0 0 1
vn 0 0 -1
vn 0 -1 0
vn 0 1 0

# texcoords
vt 0.0878906 0.5
vt 0.958984 0.5
vt 0.974609 0.5

# verts and faces
v -30 0 5
v -30 0 -5
v -30 20 5
v -30 20 4
v -30 20 -4
v -30 20 -5
v -30 28 5
v -30 28 4
v -30 28 -4
v -30 28 -5
v -30 40 5
v -30 40 -5
f -10/2/1 -11/2/1 -12/2/1
f -9/2/1 -11/2/1 -10/2/1
f -8/2/1 -11/2/1 -9/2/1
f -7/2/1 -11/2/1 -8/2/1
f -5/1/1 -8/1/1 -9/1/1
f -4/1/1 -8/1/1 -5/1/1
f -2/2/1 -5/2/1 -6/2/1
f -2/2/1 -3/2/1 -4/2/1
f -2/2/1 -4/2/1 -5/2/1
f -1/2/1 -3/2/1 -2/2/1
v 12 0 5
v 12 0 1
v 12 0 -1
v 12 0 -5
v 12 1 4
v 12 1 1
v 12 1 -1
v 12 1 -4
v 12 20 5
v 12 20 4
v 12 20 -4
v 12 20 -5
v 12 28 5
v 12 28 4
v 12 28 -4
v 12 28 -5
v 12 30 4
v 12 30 1
v 12 30 -1
v 12 30 -4
v 12 31 4
v 12 31 -4
v 12 32 5
v 12 32 4
v 12 32 -4
v 12 32 -5
f -22/2/1 -25/2/1 -26/2/1
f -21/2/1 -25/2/1 -22/2/1
f -20/2/1 -23/2/1 -24/2/1
f -19/2/1 -23/2/1 -20/2/1
f -18/2/1 -22/2/1 -26/2/1
f -17/1/1 -21/1/1 -22/1/1
f -17/2/1 -22/2/1 -18/2/1
f -16/2/1 -23/2/1 -19/2/1
f -16/1/1 -19/1/1 -20/1/1
f -15/2/1 -23/2/1 -16/2/1
f -13/1/1 -21/1/1 -17/1/1
f -12/1/1 -16/1/1 -20/1/1
f -10/2/1 -13/2/1 -14/2/1
f -10/1/1 -21/1/1 -13/1/1
f -9/1/1 -21/1/1 -10/1/1
f -8/1/1 -12/1/1 -20/1/1
f -7/2/1 -11/2/1 -12/2/1
f -7/1/1 -12/1/1 -8/1/1
f -6/2/1 -10/2/1 -14/2/1
f -5/2/1 -11/2/1 -7/2/1
f -4/2/1 -6/2/1 -14/2/1
f -3/2/1 -6/2/1 -4/2/1
f -2/2/1 -11/2/1 -5/2/1
f -1/2/1 -11/2/1 -2/2/1
v 15 0 1
v 15 0 -1
v 15 34 1
v 15 34 -1
f -2/3/1 -3/3/1 -4/3/1
f -1/3/1 -3/3/1 -2/3/1
v -15 0 1
v -15 0 -1
v -15 34 1
v -15 34 -1
f -4/3/2 -3/3/2 -2/3/2
f -2/3/2 -3/3/2 -1/3/2
v -12 0 5
v -12 0 1
v -12 0 -1
v -12 0 -5
v -12 1 4
v -12 1 1
v -12 1 -1
v -12 1 -4
v -12 20 5
v -12 20 4
v -12 20 -4
v -12 20 -5
v -12 28 5
v -12 28 4
v -12 28 -4
v -12 28 -5
v -12 30 4
v -12 30 1
v -12 30 -1
v -12 30 -4
v -12 31 4
v -12 31 -4
v -12 32 5
v -12 32 4
v -12 32 -4
v -12 32 -5
f -26/2/2 -25/2/2 -22/2/2
f -22/2/2 -25/2/2 -21/2/2
f -24/2/2 -23/2/2 -20/2/2
f -20/2/2 -23/2/2 -19/2/2
f -26/2/2 -22/2/2 -18/2/2
f -22/1/2 -21/1/2 -17/1/2
f -18/2/2 -22/2/2 -17/2/2
f -19/2/2 -23/2/2 -16/2/2
f -20/1/2 -19/1/2 -16/1/2
f -16/2/2 -23/2/2 -15/2/2
f -17/1/2 -21/1/2 -13/1/2
f -20/1/2 -16/1/2 -12/1/2
f -14/2/2 -13/2/2 -10/2/2
f -13/1/2 -21/1/2 -10/1/2
f -10/1/2 -21/1/2 -9/1/2
f -20/1/2 -12/1/2 -8/1/2
f -12/2/2 -11/2/2 -7/2/2
f -8/1/2 -12/1/2 -7/1/2
f -14/2/2 -10/2/2 -6/2/2
f -7/2/2 -11/2/2 -5/2/2
f -14/2/2 -6/2/2 -4/2/2
f -4/2/2 -6/2/2 -3/2/2
f -5/2/2 -11/2/2 -2/2/2
f -2/2/2 -11/2/2 -1/2/2
v 30 0 5
v 30 0 -5
v 30 20 5
v 30 20 4
v 30 20 -4
v 30 20 -5
v 30 28 5
v 30 28 4
v 30 28 -4
v 30 28 -5
v 30 40 5
v 30 40 -5
f -12/2/2 -11/2/2 -10/2/2
f -10/2/2 -11/2/2 -9/2/2
f -9/2/2 -11/2/2 -8/2/2
f -8/2/2 -11/2/2 -7/2/2
f -9/1/2 -8/1/2 -5/1/2
f -5/1/2 -8/1/2 -4/1/2
f -6/2/2 -5/2/2 -2/2/2
f -4/2/2 -3/2/2 -2/2/2
f -5/2/2 -4/2/2 -2/2/2
f -2/2/2 -3/2/2 -1/2/2
v -30 0 5
v -30 20 5
v -30 28 5
v -30 40 5
v -12 0 5
v -12 20 5
v -12 28 5
v -12 32 5
v 12 0 5
v 12 20 5
v 12 28 5
v 12 32 5
v 30 0 5
v 30 20 5
v 30 28 5
v 30 40 5
f -12/2/3 -15/2/3 -16/2/3
f -11/2/3 -15/2/3 -12/2/3
f -10/2/3 -13/2/3 -14/2/3
f -9/2/3 -13/2/3 -10/2/3
f -5/2/3 -13/2/3 -9/2/3
f -4/2/3 -7/2/3 -8/2/3
f -3/2/3 -7/2/3 -4/2/3
f -2/2/3 -5/2/3 -6/2/3
f -1/2/3 -13/2/3 -5/2/3
f -1/2/3 -5/2/3 -2/2/3
v -30 20 4
v -30 28 4
v -12 20 4
v -12 28 4
v -12 30 4
v -12 31 4
v -12 32 4
v 12 20 4
v 12 28 4
v 12 30 4
v 12 31 4
v 12 32 4
v 30 20 4
v 30 28 4
f -12/1/3 -13/1/3 -14/1/3
f -11/1/3 -13/1/3 -12/1/3
f -5/1/3 -9/1/3 -10/1/3
f -4/2/3 -8/2/3 -9/2/3
f -4/1/3 -9/1/3 -5/1/3
f -3/2/3 -8/2/3 -4/2/3
f -2/1/3 -6/1/3 -7/1/3
f -1/1/3 -6/1/3 -2/1/3
v -15 0 -1
v -15 34 -1
v -13 1 -1
v -13 31 -1
v -12 0 -1
v -12 1 -1
v -12 30 -1
v 12 0 -1
v 12 1 -1
v 12 30 -1
v 13 1 -1
v 13 31 -1
v 15 0 -1
v 15 34 -1
f -12/2/3 -13/2/3 -14/2/3
f -11/2/3 -13/2/3 -12/2/3
f -10/2/3 -12/2/3 -14/2/3
f -9/1/3 -11/1/3 -12/1/3
f -9/2/3 -12/2/3 -10/2/3
f -8/1/3 -11/1/3 -9/1/3
f -5/1/3 -11/1/3 -8/1/3
f -4/2/3 -6/2/3 -7/2/3
f -4/1/3 -5/1/3 -6/1/3
f -3/2/3 -13/2/3 -11/2/3
f -3/1/3 -5/1/3 -4/1/3
f -3/1/3 -11/1/3 -5/1/3
f -2/2/3 -4/2/3 -7/2/3
f -2/2/3 -3/2/3 -4/2/3
f -1/2/3 -13/2/3 -3/2/3
f -1/2/3 -3/2/3 -2/2/3
v -15 0 1
v -15 34 1
v -13 1 1
v -13 31 1
v -12 0 1
v -12 1 1
v -12 30 1
v 12 0 1
v 12 1 1
v 12 30 1
v 13 1 1
v 13 31 1
v 15 0 1
v 15 34 1
f -14/2/4 -13/2/4 -12/2/4
f -12/2/4 -13/2/4 -11/2/4
f -14/2/4 -12/2/4 -10/2/4
f -12/1/4 -11/1/4 -9/1/4
f -10/2/4 -12/2/4 -9/2/4
f -9/1/4 -11/1/4 -8/1/4
f -8/1/4 -11/1/4 -5/1/4
f -7/2/4 -6/2/4 -4/2/4
f -6/1/4 -5/1/4 -4/1/4
f -11/2/4 -13/2/4 -3/2/4
f -4/1/4 -5/1/4 -3/1/4
f -5/1/4 -11/1/4 -3/1/4
f -7/2/4 -4/2/4 -2/2/4
f -4/2/4 -3/2/4 -2/2/4
f -3/2/4 -13/2/4 -1/2/4
f -2/2/4 -3/2/4 -1/2/4
v -30 20 -4
v -30 28 -4
v -12 20 -4
v -12 28 -4
v -12 30 -4
v -12 31 -4
v -12 32 -4
v 12 20 -4
v 12 28 -4
v 12 30 -4
v 12 31 -4
v 12 32 -4
v 30 20 -4
v 30 28 -4
f -14/1/4 -13/1/4 -12/1/4
f -12/1/4 -13/1/4 -11/1/4
f -10/1/4 -9/1/4 -5/1/4
f -9/2/4 -8/2/4 -4/2/4
f -5/1/4 -9/1/4 -4/1/4
f -4/2/4 -8/2/4 -3/2/4
f -7/1/4 -6/1/4 -2/1/4
f -2/1/4 -6/1/4 -1/1/4
v -30 0 -5
v -30 20 -5
v -30 28 -5
v -30 40 -5
v -12 0 -5
v -12 20 -5
v -12 28 -5
v -12 32 -5
v 12 0 -5
v 12 20 -5
v 12 28 -5
v 12 32 -5
v 30 0 -5
v 30 20 -5
v 30 28 -5
v 30 40 -5
f -16/2/4 -15/2/4 -12/2/4
f -12/2/4 -15/2/4 -11/2/4
f -14/2/4 -13/2/4 -10/2/4
f -10/2/4 -13/2/4 -9/2/4
f -9/2/4 -13/2/4 -5/2/4
f -8/2/4 -7/2/4 -4/2/4
f -4/2/4 -7/2/4 -3/2/4
f -6/2/4 -5/2/4 -2/2/4
f -5/2/4 -13/2/4 -1/2/4
f -2/2/4 -5/2/4 -1/2/4
v -30 0 5
v -12 0 5
v 12 0 5
v 30 0 5
v -16 0 1
v -15 0 1
v -12 0 1
v 12 0 1
v 15 0 1
v 16 0 1
v -16 0 -1
v -15 0 -1
v -12 0 -1
v 12 0 -1
v 15 0 -1
v 16 0 -1
v -30 0 -5
v -12 0 -5
v 12 0 -5
v 30 0 -5
f -16/2/5 -19/2/5 -20/2/5
f -15/2/5 -19/2/5 -16/2/5
f -14/2/5 -19/2/5 -15/2/5
f -13/2/5 -17/2/5 -18/2/5
f -12/2/5 -17/2/5 -13/2/5
f -11/2/5 -17/2/5 -12/2/5
f -10/2/5 -16/2/5 -20/2/5
f -10/3/5 -15/3/5 -16/3/5
f -9/3/5 -15/3/5 -10/3/5
f -6/3/5 -11/3/5 -12/3/5
f -5/2/5 -17/2/5 -11/2/5
f -5/3/5 -11/3/5 -6/3/5
f -4/2/5 -8/2/5 -9/2/5
f -4/2/5 -10/2/5 -20/2/5
f -4/2/5 -9/2/5 -10/2/5
f -3/2/5 -8/2/5 -4/2/5
f -2/2/5 -6/2/5 -7/2/5
f -2/2/5 -5/2/5 -6/2/5
f -1/2/5 -17/2/5 -5/2/5
f -1/2/5 -5/2/5 -2/2/5
v -30 28 5
v -12 28 5
v 12 28 5
v 30 28 5
v -30 28 4
v -12 28 4
v 12 28 4
v 30 28 4
v -30 28 -4
v -12 28 -4
v 12 28 -4
v 30 28 -4
v -30 28 -5
v -12 28 -5
v 12 28 -5
v 30 28 -5
f -12/2/5 -15/2/5 -16/2/5
f -11/2/5 -15/2/5 -12/2/5
f -10/2/5 -13/2/5 -14/2/5
f -9/2/5 -13/2/5 -10/2/5
f -4/2/5 -7/2/5 -8/2/5
f -3/2/5 -7/2/5 -4/2/5
f -2/2/5 -5/2/5 -6/2/5
f -1/2/5 -5/2/5 -2/2/5
v -12 30 4
v 12 30 4
v -12 30 1
v 12 30 1
v -12 30 -1
v 12 30 -1
v -12 30 -4
v 12 30 -4
f -6/1/5 -7/1/5 -8/1/5
f -5/1/5 -7/1/5 -6/1/5
f -2/1/5 -3/1/5 -4/1/5
f -1/1/5 -3/1/5 -2/1/5
v -12 32 5
v 12 32 5
v -12 32 4
v 12 32 4
v -12 32 -4
v 12 32 -4
v -12 32 -5
v 12 32 -5
f -6/2/5 -7/2/5 -8/2/5
f -5/2/5 -7/2/5 -6/2/5
f -2/2/5 -3/2/5 -4/2/5
f -1/2/5 -3/2/5 -2/2/5
v -15 34 1
v 15 34 1
v -15 34 -1
v 15 34 -1
f -2/3/5 -3/3/5 -4/3/5
f -1/3/5 -3/3/5 -2/3/5
v -30 20 5
v -12 20 5
v 12 20 5
v 30 20 5
v -30 20 4
v -12 20 4
v 12 20 4
v 30 20 4
v -30 20 -4
v -12 20 -4
v 12 20 -4
v 30 20 -4
v -30 20 -5
v -12 20 -5
v 12 20 -5
v 30 20 -5
f -16/2/6 -15/2/6 -12/2/6
f -12/2/6 -15/2/6 -11/2/6
f -14/2/6 -13/2/6 -10/2/6
f -10/2/6 -13/2/6 -9/2/6
f -8/2/6 -7/2/6 -4/2/6
f -4/2/6 -7/2/6 -3/2/6
f -6/2/6 -5/2/6 -2/2/6
f -2/2/6 -5/2/6 -1/2/6
v -30 40 5
v 30 40 5
v -30 40 -5
v 30 40 -5
f -4/2/6 -3/2/6 -2/2/6
f -2/2/6 -3/2/6 -1/2/6
