# MagicaVoxel @ ephtracy

# material
mtllib Commisary Spacer.mtl
usemtl palette

# normals
vn -1 0 0
vn 1 0 0
vn 0 0 1
vn 0 0 -1
vn 0 -1 0
vn 0 1 0

# texcoords
vt 0.0878906 0.5
vt 0.958984 0.5

# verts and faces
v -5.5 0 5
v -5.5 0 -5
v -5.5 20 5
v -5.5 20 4
v -5.5 20 -4
v -5.5 20 -5
v -5.5 28 5
v -5.5 28 4
v -5.5 28 -4
v -5.5 28 -5
v -5.5 40 5
v -5.5 40 -5
f -10/2/1 -11/2/1 -12/2/1
f -9/2/1 -11/2/1 -10/2/1
f -8/2/1 -11/2/1 -9/2/1
f -7/2/1 -11/2/1 -8/2/1
f -5/1/1 -8/1/1 -9/1/1
f -4/1/1 -8/1/1 -5/1/1
f -2/2/1 -5/2/1 -6/2/1
f -2/2/1 -3/2/1 -4/2/1
f -2/2/1 -4/2/1 -5/2/1
f -1/2/1 -3/2/1 -2/2/1
v 5.5 0 5
v 5.5 0 -5
v 5.5 20 5
v 5.5 20 4
v 5.5 20 -4
v 5.5 20 -5
v 5.5 28 5
v 5.5 28 4
v 5.5 28 -4
v 5.5 28 -5
v 5.5 40 5
v 5.5 40 -5
f -12/2/2 -11/2/2 -10/2/2
f -10/2/2 -11/2/2 -9/2/2
f -9/2/2 -11/2/2 -8/2/2
f -8/2/2 -11/2/2 -7/2/2
f -9/1/2 -8/1/2 -5/1/2
f -5/1/2 -8/1/2 -4/1/2
f -6/2/2 -5/2/2 -2/2/2
f -4/2/2 -3/2/2 -2/2/2
f -5/2/2 -4/2/2 -2/2/2
f -2/2/2 -3/2/2 -1/2/2
v -5.5 0 5
v -5.5 20 5
v -5.5 28 5
v -5.5 40 5
v 5.5 0 5
v 5.5 20 5
v 5.5 28 5
v 5.5 40 5
f -4/2/3 -7/2/3 -8/2/3
f -3/2/3 -7/2/3 -4/2/3
f -2/2/3 -5/2/3 -6/2/3
f -1/2/3 -5/2/3 -2/2/3
v -5.5 20 4
v -5.5 28 4
v 5.5 20 4
v 5.5 28 4
f -2/1/3 -3/1/3 -4/1/3
f -1/1/3 -3/1/3 -2/1/3
v -5.5 20 -4
v -5.5 28 -4
v 5.5 20 -4
v 5.5 28 -4
f -4/1/4 -3/1/4 -2/1/4
f -2/1/4 -3/1/4 -1/1/4
v -5.5 0 -5
v -5.5 20 -5
v -5.5 28 -5
v -5.5 40 -5
v 5.5 0 -5
v 5.5 20 -5
v 5.5 28 -5
v 5.5 40 -5
f -8/2/4 -7/2/4 -4/2/4
f -4/2/4 -7/2/4 -3/2/4
f -6/2/4 -5/2/4 -2/2/4
f -2/2/4 -5/2/4 -1/2/4
v -5.5 0 5
v 5.5 0 5
v -5.5 0 -5
v 5.5 0 -5
f -2/2/5 -3/2/5 -4/2/5
f -1/2/5 -3/2/5 -2/2/5
v -5.5 28 5
v 5.5 28 5
v -5.5 28 4
v 5.5 28 4
v -5.5 28 -4
v 5.5 28 -4
v -5.5 28 -5
v 5.5 28 -5
f -6/2/5 -7/2/5 -8/2/5
f -5/2/5 -7/2/5 -6/2/5
f -2/2/5 -3/2/5 -4/2/5
f -1/2/5 -3/2/5 -2/2/5
v -5.5 20 5
v 5.5 20 5
v -5.5 20 4
v 5.5 20 4
v -5.5 20 -4
v 5.5 20 -4
v -5.5 20 -5
v 5.5 20 -5
f -8/2/6 -7/2/6 -6/2/6
f -6/2/6 -7/2/6 -5/2/6
f -4/2/6 -3/2/6 -2/2/6
f -2/2/6 -3/2/6 -1/2/6
v -5.5 40 5
v 5.5 40 5
v -5.5 40 -5
v 5.5 40 -5
f -4/2/6 -3/2/6 -2/2/6
f -2/2/6 -3/2/6 -1/2/6
