# MagicaVoxel @ ephtracy

# material
mtllib Conference End Table 2.mtl
usemtl palette

# normals
vn -1 0 0
vn 1 0 0
vn 0 0 1
vn 0 0 -1
vn 0 -1 0
vn 0 1 0

# texcoords
vt 0.154297 0.5
vt 0.337891 0.5
vt 0.513672 0.5
vt 0.966797 0.5

# verts and faces
v -7.5 11 7.5
v -7.5 11 -7.5
v -7.5 12 7.5
v -7.5 12 -7.5
v -7.5 13 7.5
v -7.5 13 -7.5
f -4/2/1 -5/2/1 -6/2/1
f -3/2/1 -5/2/1 -4/2/1
f -2/3/1 -3/3/1 -4/3/1
f -1/3/1 -3/3/1 -2/3/1
v -6.5 0 4.5
v -6.5 0 3.5
v -6.5 0 -3.5
v -6.5 0 -4.5
v -6.5 8 3.5
v -6.5 8 -3.5
v -6.5 9 4.5
v -6.5 9 3.5
v -6.5 9 -3.5
v -6.5 9 -4.5
v -6.5 11 4.5
v -6.5 11 -4.5
f -8/4/1 -11/4/1 -12/4/1
f -7/4/1 -9/4/1 -10/4/1
f -6/4/1 -8/4/1 -12/4/1
f -5/2/1 -7/2/1 -8/2/1
f -5/4/1 -8/4/1 -6/4/1
f -4/4/1 -9/4/1 -7/4/1
f -4/2/1 -7/2/1 -5/2/1
f -3/4/1 -9/4/1 -4/4/1
f -2/1/1 -5/1/1 -6/1/1
f -2/1/1 -4/1/1 -5/1/1
f -2/1/1 -3/1/1 -4/1/1
f -1/1/1 -3/1/1 -2/1/1
v 5.5 1 4.5
v 5.5 1 3.5
v 5.5 1 -3.5
v 5.5 1 -4.5
v 5.5 8 4.5
v 5.5 8 3.5
v 5.5 8 -3.5
v 5.5 8 -4.5
v 5.5 9 4.5
v 5.5 9 -4.5
v 5.5 11 4.5
v 5.5 11 -4.5
f -8/4/1 -11/4/1 -12/4/1
f -7/4/1 -11/4/1 -8/4/1
f -6/4/1 -9/4/1 -10/4/1
f -5/4/1 -9/4/1 -6/4/1
f -4/2/1 -7/2/1 -8/2/1
f -4/2/1 -6/2/1 -7/2/1
f -4/2/1 -5/2/1 -6/2/1
f -3/2/1 -5/2/1 -4/2/1
f -2/1/1 -3/1/1 -4/1/1
f -1/1/1 -3/1/1 -2/1/1
v -5.5 1 4.5
v -5.5 1 3.5
v -5.5 1 -3.5
v -5.5 1 -4.5
v -5.5 8 3.5
v -5.5 8 -3.5
v -5.5 9 4.5
v -5.5 9 3.5
v -5.5 9 -3.5
v -5.5 9 -4.5
v -5.5 11 4.5
v -5.5 11 -4.5
f -12/4/2 -11/4/2 -8/4/2
f -10/4/2 -9/4/2 -7/4/2
f -12/4/2 -8/4/2 -6/4/2
f -8/2/2 -7/2/2 -5/2/2
f -6/4/2 -8/4/2 -5/4/2
f -7/4/2 -9/4/2 -4/4/2
f -5/2/2 -7/2/2 -4/2/2
f -4/4/2 -9/4/2 -3/4/2
f -6/1/2 -5/1/2 -2/1/2
f -5/1/2 -4/1/2 -2/1/2
f -4/1/2 -3/1/2 -2/1/2
f -2/1/2 -3/1/2 -1/1/2
v 6.5 0 4.5
v 6.5 0 3.5
v 6.5 0 -3.5
v 6.5 0 -4.5
v 6.5 8 4.5
v 6.5 8 3.5
v 6.5 8 -3.5
v 6.5 8 -4.5
v 6.5 9 4.5
v 6.5 9 -4.5
v 6.5 11 4.5
v 6.5 11 -4.5
f -12/4/2 -11/4/2 -8/4/2
f -8/4/2 -11/4/2 -7/4/2
f -10/4/2 -9/4/2 -6/4/2
f -6/4/2 -9/4/2 -5/4/2
f -8/2/2 -7/2/2 -4/2/2
f -7/2/2 -6/2/2 -4/2/2
f -6/2/2 -5/2/2 -4/2/2
f -4/2/2 -5/2/2 -3/2/2
f -4/1/2 -3/1/2 -2/1/2
f -2/1/2 -3/1/2 -1/1/2
v 7.5 11 7.5
v 7.5 11 -7.5
v 7.5 12 7.5
v 7.5 12 -7.5
v 7.5 13 7.5
v 7.5 13 -7.5
f -6/2/2 -5/2/2 -4/2/2
f -4/2/2 -5/2/2 -3/2/2
f -4/3/2 -3/3/2 -2/3/2
f -2/3/2 -3/3/2 -1/3/2
v -7.5 11 7.5
v -7.5 12 7.5
v -7.5 13 7.5
v 7.5 11 7.5
v 7.5 12 7.5
v 7.5 13 7.5
f -3/2/3 -5/2/3 -6/2/3
f -2/3/3 -4/3/3 -5/3/3
f -2/2/3 -5/2/3 -3/2/3
f -1/3/3 -4/3/3 -2/3/3
v -6.5 0 4.5
v -6.5 9 4.5
v -6.5 11 4.5
v -5.5 1 4.5
v -5.5 9 4.5
v -5.5 11 4.5
v 5.5 1 4.5
v 5.5 8 4.5
v 5.5 9 4.5
v 5.5 11 4.5
v 6.5 0 4.5
v 6.5 8 4.5
v 6.5 9 4.5
v 6.5 11 4.5
f -11/4/3 -13/4/3 -14/4/3
f -10/1/3 -12/1/3 -13/1/3
f -10/4/3 -13/4/3 -11/4/3
f -9/1/3 -12/1/3 -10/1/3
f -8/4/3 -11/4/3 -14/4/3
f -4/4/3 -8/4/3 -14/4/3
f -4/4/3 -7/4/3 -8/4/3
f -3/2/3 -6/2/3 -7/2/3
f -3/4/3 -7/4/3 -4/4/3
f -2/1/3 -5/1/3 -6/1/3
f -2/2/3 -6/2/3 -3/2/3
f -1/1/3 -5/1/3 -2/1/3
v -6.5 0 -3.5
v -6.5 8 -3.5
v -5.5 1 -3.5
v -5.5 8 -3.5
v 5.5 1 -3.5
v 5.5 8 -3.5
v 6.5 0 -3.5
v 6.5 8 -3.5
f -6/4/3 -7/4/3 -8/4/3
f -5/4/3 -7/4/3 -6/4/3
f -4/4/3 -6/4/3 -8/4/3
f -2/4/3 -4/4/3 -8/4/3
f -2/4/3 -3/4/3 -4/4/3
f -1/4/3 -3/4/3 -2/4/3
v -6.5 0 3.5
v -6.5 8 3.5
v -5.5 1 3.5
v -5.5 8 3.5
v 5.5 1 3.5
v 5.5 8 3.5
v 6.5 0 3.5
v 6.5 8 3.5
f -8/4/4 -7/4/4 -6/4/4
f -6/4/4 -7/4/4 -5/4/4
f -8/4/4 -6/4/4 -4/4/4
f -8/4/4 -4/4/4 -2/4/4
f -4/4/4 -3/4/4 -2/4/4
f -2/4/4 -3/4/4 -1/4/4
v -6.5 0 -4.5
v -6.5 9 -4.5
v -6.5 11 -4.5
v -5.5 1 -4.5
v -5.5 9 -4.5
v -5.5 11 -4.5
v 5.5 1 -4.5
v 5.5 8 -4.5
v 5.5 9 -4.5
v 5.5 11 -4.5
v 6.5 0 -4.5
v 6.5 8 -4.5
v 6.5 9 -4.5
v 6.5 11 -4.5
f -14/4/4 -13/4/4 -11/4/4
f -13/1/4 -12/1/4 -10/1/4
f -11/4/4 -13/4/4 -10/4/4
f -10/1/4 -12/1/4 -9/1/4
f -14/4/4 -11/4/4 -8/4/4
f -14/4/4 -8/4/4 -4/4/4
f -8/4/4 -7/4/4 -4/4/4
f -7/2/4 -6/2/4 -3/2/4
f -4/4/4 -7/4/4 -3/4/4
f -6/1/4 -5/1/4 -2/1/4
f -3/2/4 -6/2/4 -2/2/4
f -2/1/4 -5/1/4 -1/1/4
v -7.5 11 -7.5
v -7.5 12 -7.5
v -7.5 13 -7.5
v 7.5 11 -7.5
v 7.5 12 -7.5
v 7.5 13 -7.5
f -6/2/4 -5/2/4 -3/2/4
f -5/3/4 -4/3/4 -2/3/4
f -3/2/4 -5/2/4 -2/2/4
f -2/3/4 -4/3/4 -1/3/4
v -6.5 0 4.5
v 6.5 0 4.5
v -6.5 0 3.5
v 6.5 0 3.5
v -6.5 0 -3.5
v 6.5 0 -3.5
v -6.5 0 -4.5
v 6.5 0 -4.5
f -6/4/5 -7/4/5 -8/4/5
f -5/4/5 -7/4/5 -6/4/5
f -2/4/5 -3/4/5 -4/4/5
f -1/4/5 -3/4/5 -2/4/5
v -6.5 8 3.5
v -5.5 8 3.5
v 5.5 8 3.5
v 6.5 8 3.5
v -6.5 8 -3.5
v -5.5 8 -3.5
v 5.5 8 -3.5
v 6.5 8 -3.5
f -4/2/5 -7/2/5 -8/2/5
f -3/2/5 -7/2/5 -4/2/5
f -2/2/5 -5/2/5 -6/2/5
f -1/2/5 -5/2/5 -2/2/5
v -7.5 11 7.5
v 7.5 11 7.5
v -6.5 11 4.5
v -5.5 11 4.5
v 5.5 11 4.5
v 6.5 11 4.5
v -6.5 11 -4.5
v -5.5 11 -4.5
v 5.5 11 -4.5
v 6.5 11 -4.5
v -7.5 11 -7.5
v 7.5 11 -7.5
f -10/2/5 -11/2/5 -12/2/5
f -9/2/5 -11/2/5 -10/2/5
f -8/2/5 -11/2/5 -9/2/5
f -7/2/5 -11/2/5 -8/2/5
f -6/2/5 -10/2/5 -12/2/5
f -5/2/5 -8/2/5 -9/2/5
f -4/2/5 -8/2/5 -5/2/5
f -3/2/5 -11/2/5 -7/2/5
f -2/2/5 -4/2/5 -5/2/5
f -2/2/5 -3/2/5 -4/2/5
f -2/2/5 -6/2/5 -12/2/5
f -2/2/5 -5/2/5 -6/2/5
f -1/2/5 -11/2/5 -3/2/5
f -1/2/5 -3/2/5 -2/2/5
v -5.5 1 4.5
v 5.5 1 4.5
v -5.5 1 3.5
v 5.5 1 3.5
v -5.5 1 -3.5
v 5.5 1 -3.5
v -5.5 1 -4.5
v 5.5 1 -4.5
f -8/4/6 -7/4/6 -6/4/6
f -6/4/6 -7/4/6 -5/4/6
f -4/4/6 -3/4/6 -2/4/6
f -2/4/6 -3/4/6 -1/4/6
v -7.5 13 7.5
v 7.5 13 7.5
v -7.5 13 -7.5
v 7.5 13 -7.5
f -4/3/6 -3/3/6 -2/3/6
f -2/3/6 -3/3/6 -1/3/6
