# MagicaVoxel @ ephtracy

# material
mtllib Vending Machine.mtl
usemtl palette

# normals
vn -1 0 0
vn 1 0 0
vn 0 0 1
vn 0 0 -1
vn 0 -1 0
vn 0 1 0

# texcoords
vt 0.00585938 0.5
vt 0.0214844 0.5
vt 0.0410156 0.5
vt 0.142578 0.5
vt 0.150391 0.5
vt 0.154297 0.5
vt 0.169922 0.5
vt 0.205078 0.5
vt 0.255859 0.5
vt 0.279297 0.5
vt 0.314453 0.5
vt 0.341797 0.5
vt 0.474609 0.5
vt 0.509766 0.5
vt 0.708984 0.5
vt 0.712891 0.5
vt 0.962891 0.5
vt 0.974609 0.5
vt 0.978516 0.5
vt 0.982422 0.5
vt 0.990234 0.5
vt 0.994141 0.5

# verts and faces
v -9 0 3
v -9 0 -6
v -9 3 3
v -9 3 2
v -9 3 1
v -9 3 -4
v -9 3 -5
v -9 3 -6
v -9 30 3
v -9 30 2
v -9 30 1
v -9 30 -4
v -9 30 -5
v -9 30 -6
v -9 31 3
v -9 31 -6
v -9 34 3
v -9 34 -6
f -16/18/1 -17/18/1 -18/18/1
f -15/18/1 -17/18/1 -16/18/1
f -14/18/1 -17/18/1 -15/18/1
f -13/18/1 -17/18/1 -14/18/1
f -12/18/1 -17/18/1 -13/18/1
f -11/18/1 -17/18/1 -12/18/1
f -10/19/1 -15/19/1 -16/19/1
f -9/18/1 -14/18/1 -15/18/1
f -9/19/1 -15/19/1 -10/19/1
f -8/2/1 -13/2/1 -14/2/1
f -8/18/1 -14/18/1 -9/18/1
f -7/18/1 -12/18/1 -13/18/1
f -7/2/1 -13/2/1 -8/2/1
f -6/19/1 -11/19/1 -12/19/1
f -6/18/1 -12/18/1 -7/18/1
f -5/19/1 -11/19/1 -6/19/1
f -4/18/1 -9/18/1 -10/18/1
f -4/18/1 -8/18/1 -9/18/1
f -4/18/1 -5/18/1 -6/18/1
f -4/18/1 -6/18/1 -7/18/1
f -4/18/1 -7/18/1 -8/18/1
f -3/18/1 -5/18/1 -4/18/1
f -2/2/1 -3/2/1 -4/2/1
f -1/2/1 -3/2/1 -2/2/1
v -6 2 4
v -6 2 3
v -6 3 6
v -6 3 4
v -6 3 3
v -6 13 6
v -6 13 4
v -6 14 4
v -6 14 3
f -6/19/1 -8/19/1 -9/19/1
f -5/19/1 -8/19/1 -6/19/1
f -4/18/1 -6/18/1 -7/18/1
f -4/18/1 -5/18/1 -6/18/1
f -3/18/1 -5/18/1 -4/18/1
f -2/18/1 -5/18/1 -3/18/1
f -1/18/1 -5/18/1 -2/18/1
v 2 7 6
v 2 7 5
v 2 10 6
v 2 10 5
f -2/17/1 -3/17/1 -4/17/1
f -1/17/1 -3/17/1 -2/17/1
v 8 1 -0
v 8 1 -5
v 8 3 -0
v 8 3 -4
v 8 30 -0
v 8 30 -4
v 8 31 -0
v 8 31 -5
v 8 33 -0
v 8 33 -5
f -8/18/1 -9/18/1 -10/18/1
f -7/18/1 -9/18/1 -8/18/1
f -6/2/1 -7/2/1 -8/2/1
f -5/18/1 -9/18/1 -7/18/1
f -5/2/1 -7/2/1 -6/2/1
f -4/18/1 -5/18/1 -6/18/1
f -3/18/1 -9/18/1 -5/18/1
f -3/18/1 -5/18/1 -4/18/1
f -2/2/1 -3/2/1 -4/2/1
f -1/2/1 -3/2/1 -2/2/1
v -8 1 -0
v -8 1 -5
v -8 3 -0
v -8 3 -4
v -8 30 -0
v -8 30 -4
v -8 31 -0
v -8 31 -5
v -8 33 -0
v -8 33 -5
f -10/18/2 -9/18/2 -8/18/2
f -8/18/2 -9/18/2 -7/18/2
f -8/2/2 -7/2/2 -6/2/2
f -7/18/2 -9/18/2 -5/18/2
f -6/2/2 -7/2/2 -5/2/2
f -6/18/2 -5/18/2 -4/18/2
f -5/18/2 -9/18/2 -3/18/2
f -4/18/2 -5/18/2 -3/18/2
f -4/2/2 -3/2/2 -2/2/2
f -2/2/2 -3/2/2 -1/2/2
v -2 7 6
v -2 7 5
v -2 10 6
v -2 10 5
f -4/17/2 -3/17/2 -2/17/2
f -2/17/2 -3/17/2 -1/17/2
v 6 2 4
v 6 2 3
v 6 3 6
v 6 3 4
v 6 3 3
v 6 13 6
v 6 13 4
v 6 14 4
v 6 14 3
f -9/19/2 -8/19/2 -6/19/2
f -6/19/2 -8/19/2 -5/19/2
f -7/18/2 -6/18/2 -4/18/2
f -6/18/2 -5/18/2 -4/18/2
f -4/18/2 -5/18/2 -3/18/2
f -3/18/2 -5/18/2 -2/18/2
f -2/18/2 -5/18/2 -1/18/2
v 9 0 3
v 9 0 -6
v 9 3 3
v 9 3 2
v 9 3 1
v 9 3 -4
v 9 3 -5
v 9 3 -6
v 9 30 3
v 9 30 2
v 9 30 1
v 9 30 -4
v 9 30 -5
v 9 30 -6
v 9 31 3
v 9 31 -6
v 9 34 3
v 9 34 -6
f -18/18/2 -17/18/2 -16/18/2
f -16/18/2 -17/18/2 -15/18/2
f -15/18/2 -17/18/2 -14/18/2
f -14/18/2 -17/18/2 -13/18/2
f -13/18/2 -17/18/2 -12/18/2
f -12/18/2 -17/18/2 -11/18/2
f -16/19/2 -15/19/2 -10/19/2
f -15/18/2 -14/18/2 -9/18/2
f -10/19/2 -15/19/2 -9/19/2
f -14/2/2 -13/2/2 -8/2/2
f -9/18/2 -14/18/2 -8/18/2
f -13/18/2 -12/18/2 -7/18/2
f -8/2/2 -13/2/2 -7/2/2
f -12/19/2 -11/19/2 -6/19/2
f -7/18/2 -12/18/2 -6/18/2
f -6/19/2 -11/19/2 -5/19/2
f -10/18/2 -9/18/2 -4/18/2
f -9/18/2 -8/18/2 -4/18/2
f -6/18/2 -5/18/2 -4/18/2
f -7/18/2 -6/18/2 -4/18/2
f -8/18/2 -7/18/2 -4/18/2
f -4/18/2 -5/18/2 -3/18/2
f -4/2/2 -3/2/2 -2/2/2
f -2/2/2 -3/2/2 -1/2/2
v -6 3 6
v -6 13 6
v -3 6 6
v -3 10 6
v -2 7 6
v -2 10 6
v 2 7 6
v 2 10 6
v 3 6 6
v 3 10 6
v 6 3 6
v 6 13 6
f -10/18/3 -11/18/3 -12/18/3
f -9/18/3 -11/18/3 -10/18/3
f -8/17/3 -9/17/3 -10/17/3
f -7/18/3 -11/18/3 -9/18/3
f -7/17/3 -9/17/3 -8/17/3
f -6/17/3 -8/17/3 -10/17/3
f -5/18/3 -11/18/3 -7/18/3
f -4/18/3 -10/18/3 -12/18/3
f -4/17/3 -5/17/3 -6/17/3
f -4/17/3 -6/17/3 -10/17/3
f -3/18/3 -11/18/3 -5/18/3
f -3/17/3 -5/17/3 -4/17/3
f -2/18/3 -4/18/3 -12/18/3
f -2/18/3 -3/18/3 -4/18/3
f -1/18/3 -11/18/3 -3/18/3
f -1/18/3 -3/18/3 -2/18/3
v -2 7 5
v -2 10 5
v 2 7 5
v 2 10 5
f -2/21/3 -3/21/3 -4/21/3
f -1/21/3 -3/21/3 -2/21/3
v -6 2 4
v -6 3 4
v -6 13 4
v -6 14 4
v -5 13 4
v -4 13 4
v -3 13 4
v -2 13 4
v 0 13 4
v 2 13 4
v 5 13 4
v 6 2 4
v 6 3 4
v 6 13 4
v 6 14 4
f -11/18/3 -12/18/3 -13/18/3
f -10/18/3 -12/18/3 -11/18/3
f -9/18/3 -12/18/3 -10/18/3
f -8/18/3 -12/18/3 -9/18/3
f -7/18/3 -12/18/3 -8/18/3
f -6/18/3 -12/18/3 -7/18/3
f -5/18/3 -12/18/3 -6/18/3
f -4/19/3 -14/19/3 -15/19/3
f -3/19/3 -14/19/3 -4/19/3
f -2/18/3 -12/18/3 -5/18/3
f -1/18/3 -12/18/3 -2/18/3
v -9 0 3
v -9 3 3
v -9 30 3
v -9 31 3
v -9 34 3
v -8 3 3
v -8 30 3
v -7 3 3
v -7 14 3
v -7 30 3
v -6 2 3
v -6 3 3
v -6 14 3
v -6 15 3
v -6 16 3
v -6 29 3
v -5 17 3
v -5 18 3
v -5 19 3
v -5 20 3
v -5 21 3
v -5 22 3
v -5 27 3
v -5 28 3
v -4 21 3
v -4 22 3
v -4 23 3
v -4 25 3
v -4 26 3
v -4 27 3
v -4 28 3
v -3 17 3
v -3 18 3
v -3 19 3
v -3 20 3
v -3 21 3
v -3 22 3
v -3 23 3
v -3 25 3
v -3 26 3
v -3 27 3
v -3 28 3
v -1 17 3
v -1 18 3
v -1 19 3
v -1 20 3
v -1 21 3
v -1 22 3
v -1 27 3
v -1 28 3
v 0 21 3
v 0 22 3
v 0 23 3
v 0 24 3
v 0 25 3
v 0 26 3
v 0 27 3
v 0 28 3
v 1 17 3
v 1 18 3
v 1 19 3
v 1 20 3
v 1 21 3
v 1 22 3
v 1 23 3
v 1 24 3
v 1 25 3
v 1 26 3
v 1 27 3
v 1 28 3
v 3 17 3
v 3 18 3
v 3 19 3
v 3 20 3
v 3 21 3
v 3 22 3
v 3 27 3
v 3 28 3
v 4 21 3
v 4 22 3
v 4 23 3
v 4 25 3
v 4 26 3
v 4 27 3
v 4 28 3
v 5 17 3
v 5 18 3
v 5 19 3
v 5 20 3
v 5 21 3
v 5 22 3
v 5 23 3
v 5 25 3
v 5 26 3
v 5 27 3
v 5 28 3
v 6 2 3
v 6 3 3
v 6 14 3
v 6 15 3
v 6 16 3
v 6 29 3
v 7 3 3
v 7 14 3
v 7 30 3
v 8 3 3
v 8 30 3
v 9 0 3
v 9 3 3
v 9 30 3
v 9 31 3
v 9 34 3
f -107/18/3 -111/18/3 -112/18/3
f -107/19/3 -110/19/3 -111/19/3
f -106/18/3 -109/18/3 -110/18/3
f -106/19/3 -110/19/3 -107/19/3
f -105/18/3 -107/18/3 -112/18/3
f -105/20/3 -106/20/3 -107/20/3
f -104/20/3 -106/20/3 -105/20/3
f -103/18/3 -109/18/3 -106/18/3
f -103/20/3 -106/20/3 -104/20/3
f -102/18/3 -105/18/3 -112/18/3
f -101/19/3 -104/19/3 -105/19/3
f -101/18/3 -105/18/3 -102/18/3
f -100/6/3 -103/6/3 -104/6/3
f -100/19/3 -104/19/3 -101/19/3
f -99/6/3 -103/6/3 -100/6/3
f -98/6/3 -103/6/3 -99/6/3
f -97/6/3 -103/6/3 -98/6/3
f -96/22/3 -97/22/3 -98/22/3
f -95/22/3 -97/22/3 -96/22/3
f -94/22/3 -97/22/3 -95/22/3
f -93/22/3 -97/22/3 -94/22/3
f -92/22/3 -97/22/3 -93/22/3
f -91/22/3 -97/22/3 -92/22/3
f -90/22/3 -97/22/3 -91/22/3
f -89/22/3 -97/22/3 -90/22/3
f -88/22/3 -92/22/3 -93/22/3
f -88/19/3 -91/19/3 -92/19/3
f -87/22/3 -90/22/3 -91/22/3
f -87/19/3 -91/19/3 -88/19/3
f -86/22/3 -90/22/3 -87/22/3
f -85/22/3 -90/22/3 -86/22/3
f -84/22/3 -90/22/3 -85/22/3
f -83/19/3 -89/19/3 -90/19/3
f -83/22/3 -90/22/3 -84/22/3
f -82/22/3 -97/22/3 -89/22/3
f -82/19/3 -89/19/3 -83/19/3
f -81/22/3 -96/22/3 -98/22/3
f -81/7/3 -95/7/3 -96/7/3
f -80/4/3 -94/4/3 -95/4/3
f -80/7/3 -95/7/3 -81/7/3
f -79/3/3 -93/3/3 -94/3/3
f -79/4/3 -94/4/3 -80/4/3
f -78/22/3 -88/22/3 -93/22/3
f -78/3/3 -93/3/3 -79/3/3
f -77/15/3 -87/15/3 -88/15/3
f -77/22/3 -88/22/3 -78/22/3
f -76/22/3 -86/22/3 -87/22/3
f -76/15/3 -87/15/3 -77/15/3
f -75/13/3 -85/13/3 -86/13/3
f -75/22/3 -86/22/3 -76/22/3
f -74/1/3 -84/1/3 -85/1/3
f -74/13/3 -85/13/3 -75/13/3
f -73/22/3 -83/22/3 -84/22/3
f -73/1/3 -84/1/3 -74/1/3
f -72/15/3 -82/15/3 -83/15/3
f -72/22/3 -83/22/3 -73/22/3
f -71/22/3 -97/22/3 -82/22/3
f -71/15/3 -82/15/3 -72/15/3
f -70/22/3 -72/22/3 -73/22/3
f -70/22/3 -73/22/3 -74/22/3
f -70/22/3 -71/22/3 -72/22/3
f -70/22/3 -76/22/3 -77/22/3
f -70/22/3 -77/22/3 -78/22/3
f -70/22/3 -78/22/3 -79/22/3
f -70/22/3 -79/22/3 -80/22/3
f -70/22/3 -75/22/3 -76/22/3
f -70/22/3 -74/22/3 -75/22/3
f -70/22/3 -80/22/3 -81/22/3
f -70/22/3 -81/22/3 -98/22/3
f -69/22/3 -71/22/3 -70/22/3
f -68/22/3 -71/22/3 -69/22/3
f -67/22/3 -71/22/3 -68/22/3
f -66/22/3 -71/22/3 -67/22/3
f -65/22/3 -71/22/3 -66/22/3
f -64/22/3 -71/22/3 -65/22/3
f -63/22/3 -97/22/3 -71/22/3
f -63/22/3 -71/22/3 -64/22/3
f -62/22/3 -66/22/3 -67/22/3
f -62/19/3 -65/19/3 -66/19/3
f -61/22/3 -64/22/3 -65/22/3
f -61/19/3 -65/19/3 -62/19/3
f -60/22/3 -64/22/3 -61/22/3
f -59/22/3 -64/22/3 -60/22/3
f -58/22/3 -64/22/3 -59/22/3
f -57/22/3 -64/22/3 -58/22/3
f -56/19/3 -63/19/3 -64/19/3
f -56/22/3 -64/22/3 -57/22/3
f -55/22/3 -97/22/3 -63/22/3
f -55/19/3 -63/19/3 -56/19/3
f -54/22/3 -70/22/3 -98/22/3
f -54/5/3 -69/5/3 -70/5/3
f -53/4/3 -68/4/3 -69/4/3
f -53/5/3 -69/5/3 -54/5/3
f -52/14/3 -67/14/3 -68/14/3
f -52/4/3 -68/4/3 -53/4/3
f -51/22/3 -62/22/3 -67/22/3
f -51/14/3 -67/14/3 -52/14/3
f -50/15/3 -61/15/3 -62/15/3
f -50/22/3 -62/22/3 -51/22/3
f -49/22/3 -60/22/3 -61/22/3
f -49/15/3 -61/15/3 -50/15/3
f -48/11/3 -59/11/3 -60/11/3
f -48/22/3 -60/22/3 -49/22/3
f -47/16/3 -58/16/3 -59/16/3
f -47/11/3 -59/11/3 -48/11/3
f -46/11/3 -57/11/3 -58/11/3
f -46/16/3 -58/16/3 -47/16/3
f -45/22/3 -56/22/3 -57/22/3
f -45/11/3 -57/11/3 -46/11/3
f -44/15/3 -55/15/3 -56/15/3
f -44/22/3 -56/22/3 -45/22/3
f -43/22/3 -97/22/3 -55/22/3
f -43/15/3 -55/15/3 -44/15/3
f -42/22/3 -52/22/3 -53/22/3
f -42/22/3 -44/22/3 -45/22/3
f -42/22/3 -43/22/3 -44/22/3
f -42/22/3 -48/22/3 -49/22/3
f -42/22/3 -49/22/3 -50/22/3
f -42/22/3 -50/22/3 -51/22/3
f -42/22/3 -51/22/3 -52/22/3
f -42/22/3 -47/22/3 -48/22/3
f -42/22/3 -46/22/3 -47/22/3
f -42/22/3 -53/22/3 -54/22/3
f -42/22/3 -54/22/3 -98/22/3
f -42/22/3 -45/22/3 -46/22/3
f -41/22/3 -43/22/3 -42/22/3
f -40/22/3 -43/22/3 -41/22/3
f -39/22/3 -43/22/3 -40/22/3
f -38/22/3 -43/22/3 -39/22/3
f -37/22/3 -43/22/3 -38/22/3
f -36/22/3 -43/22/3 -37/22/3
f -35/22/3 -97/22/3 -43/22/3
f -35/22/3 -43/22/3 -36/22/3
f -34/22/3 -38/22/3 -39/22/3
f -34/19/3 -37/19/3 -38/19/3
f -33/22/3 -36/22/3 -37/22/3
f -33/19/3 -37/19/3 -34/19/3
f -32/22/3 -36/22/3 -33/22/3
f -31/22/3 -36/22/3 -32/22/3
f -30/22/3 -36/22/3 -31/22/3
f -29/19/3 -35/19/3 -36/19/3
f -29/22/3 -36/22/3 -30/22/3
f -28/22/3 -97/22/3 -35/22/3
f -28/19/3 -35/19/3 -29/19/3
f -27/22/3 -42/22/3 -98/22/3
f -27/12/3 -41/12/3 -42/12/3
f -26/4/3 -40/4/3 -41/4/3
f -26/12/3 -41/12/3 -27/12/3
f -25/9/3 -39/9/3 -40/9/3
f -25/4/3 -40/4/3 -26/4/3
f -24/22/3 -34/22/3 -39/22/3
f -24/9/3 -39/9/3 -25/9/3
f -23/15/3 -33/15/3 -34/15/3
f -23/22/3 -34/22/3 -24/22/3
f -22/22/3 -32/22/3 -33/22/3
f -22/15/3 -33/15/3 -23/15/3
f -21/10/3 -31/10/3 -32/10/3
f -21/22/3 -32/22/3 -22/22/3
f -20/8/3 -30/8/3 -31/8/3
f -20/10/3 -31/10/3 -21/10/3
f -19/22/3 -29/22/3 -30/22/3
f -19/8/3 -30/8/3 -20/8/3
f -18/15/3 -28/15/3 -29/15/3
f -18/22/3 -29/22/3 -19/22/3
f -17/22/3 -97/22/3 -28/22/3
f -17/15/3 -28/15/3 -18/15/3
f -16/18/3 -102/18/3 -112/18/3
f -14/6/3 -99/6/3 -100/6/3
f -13/21/3 -98/21/3 -99/21/3
f -13/6/3 -99/6/3 -14/6/3
f -12/22/3 -25/22/3 -26/22/3
f -12/21/3 -98/21/3 -13/21/3
f -12/22/3 -18/22/3 -19/22/3
f -12/22/3 -19/22/3 -20/22/3
f -12/22/3 -27/22/3 -98/22/3
f -12/22/3 -17/22/3 -18/22/3
f -12/22/3 -22/22/3 -23/22/3
f -12/22/3 -23/22/3 -24/22/3
f -12/22/3 -24/22/3 -25/22/3
f -12/22/3 -21/22/3 -22/22/3
f -12/22/3 -20/22/3 -21/22/3
f -12/22/3 -26/22/3 -27/22/3
f -11/22/3 -97/22/3 -17/22/3
f -11/22/3 -17/22/3 -12/22/3
f -11/6/3 -103/6/3 -97/6/3
f -10/19/3 -14/19/3 -15/19/3
f -10/18/3 -15/18/3 -16/18/3
f -9/6/3 -12/6/3 -13/6/3
f -9/19/3 -14/19/3 -10/19/3
f -9/6/3 -11/6/3 -12/6/3
f -9/6/3 -13/6/3 -14/6/3
f -8/18/3 -109/18/3 -103/18/3
f -8/6/3 -11/6/3 -9/6/3
f -8/6/3 -103/6/3 -11/6/3
f -7/18/3 -10/18/3 -16/18/3
f -7/20/3 -9/20/3 -10/20/3
f -7/20/3 -8/20/3 -9/20/3
f -6/18/3 -109/18/3 -8/18/3
f -6/20/3 -8/20/3 -7/20/3
f -5/18/3 -7/18/3 -16/18/3
f -5/18/3 -16/18/3 -112/18/3
f -4/19/3 -6/19/3 -7/19/3
f -4/18/3 -7/18/3 -5/18/3
f -3/18/3 -109/18/3 -6/18/3
f -3/19/3 -6/19/3 -4/19/3
f -2/2/3 -108/2/3 -109/2/3
f -2/18/3 -109/18/3 -3/18/3
f -1/2/3 -108/2/3 -2/2/3
v -8 1 -5
v -8 31 -5
v -8 33 -5
v 8 1 -5
v 8 31 -5
v 8 33 -5
f -3/18/3 -5/18/3 -6/18/3
f -2/2/3 -4/2/3 -5/2/3
f -2/18/3 -5/18/3 -3/18/3
f -1/2/3 -4/2/3 -2/2/3
v -8 1 -0
v -8 3 -0
v -8 30 -0
v -8 31 -0
v -8 33 -0
v 8 1 -0
v 8 3 -0
v 8 30 -0
v 8 31 -0
v 8 33 -0
f -10/18/4 -9/18/4 -5/18/4
f -7/18/4 -6/18/4 -5/18/4
f -8/18/4 -7/18/4 -5/18/4
f -9/18/4 -8/18/4 -5/18/4
f -5/18/4 -6/18/4 -4/18/4
f -4/18/4 -6/18/4 -3/18/4
f -3/18/4 -6/18/4 -2/18/4
f -2/18/4 -6/18/4 -1/18/4
v -9 0 -6
v -9 3 -6
v -9 30 -6
v -9 31 -6
v -9 34 -6
v -8 3 -6
v -8 30 -6
v 8 3 -6
v 8 30 -6
v 9 0 -6
v 9 3 -6
v 9 30 -6
v 9 31 -6
v 9 34 -6
f -14/18/4 -13/18/4 -9/18/4
f -13/19/4 -12/19/4 -9/19/4
f -12/18/4 -11/18/4 -8/18/4
f -9/19/4 -12/19/4 -8/19/4
f -14/18/4 -9/18/4 -7/18/4
f -9/18/4 -8/18/4 -7/18/4
f -8/18/4 -11/18/4 -6/18/4
f -7/18/4 -8/18/4 -6/18/4
f -14/18/4 -7/18/4 -5/18/4
f -7/19/4 -6/19/4 -4/19/4
f -5/18/4 -7/18/4 -4/18/4
f -6/18/4 -11/18/4 -3/18/4
f -4/19/4 -6/19/4 -3/19/4
f -11/2/4 -10/2/4 -2/2/4
f -3/18/4 -11/18/4 -2/18/4
f -2/2/4 -10/2/4 -1/2/4
v -9 0 3
v 9 0 3
v -9 0 -6
v 9 0 -6
f -2/18/5 -3/18/5 -4/18/5
f -1/18/5 -3/18/5 -2/18/5
v -6 2 4
v 6 2 4
v -6 2 3
v 6 2 3
f -2/19/5 -3/19/5 -4/19/5
f -1/19/5 -3/19/5 -2/19/5
v -6 3 6
v 6 3 6
v -6 3 4
v 6 3 4
f -2/18/5 -3/18/5 -4/18/5
f -1/18/5 -3/18/5 -2/18/5
v -2 10 6
v 2 10 6
v -2 10 5
v 2 10 5
f -2/18/5 -3/18/5 -4/18/5
f -1/18/5 -3/18/5 -2/18/5
v -8 33 -0
v 8 33 -0
v -8 33 -5
v 8 33 -5
f -2/2/5 -3/2/5 -4/2/5
f -1/2/5 -3/2/5 -2/2/5
v -8 1 -0
v 8 1 -0
v -8 1 -5
v 8 1 -5
f -4/18/6 -3/18/6 -2/18/6
f -2/18/6 -3/18/6 -1/18/6
v -2 7 6
v 2 7 6
v -2 7 5
v 2 7 5
f -4/17/6 -3/17/6 -2/17/6
f -2/17/6 -3/17/6 -1/17/6
v -6 13 6
v 6 13 6
v -5 13 5
v -4 13 5
v -3 13 5
v -2 13 5
v 0 13 5
v 2 13 5
v 5 13 5
v -6 13 4
v -5 13 4
v -4 13 4
v -3 13 4
v -2 13 4
v 0 13 4
v 2 13 4
v 5 13 4
v 6 13 4
f -18/18/6 -17/18/6 -16/18/6
f -16/18/6 -17/18/6 -15/18/6
f -15/18/6 -17/18/6 -14/18/6
f -14/18/6 -17/18/6 -13/18/6
f -13/18/6 -17/18/6 -12/18/6
f -12/18/6 -17/18/6 -11/18/6
f -11/18/6 -17/18/6 -10/18/6
f -18/18/6 -16/18/6 -9/18/6
f -16/21/6 -15/21/6 -8/21/6
f -9/18/6 -16/18/6 -8/18/6
f -15/18/6 -14/18/6 -7/18/6
f -8/21/6 -15/21/6 -7/21/6
f -14/21/6 -13/21/6 -6/21/6
f -7/18/6 -14/18/6 -6/18/6
f -13/18/6 -12/18/6 -5/18/6
f -6/21/6 -13/21/6 -5/21/6
f -12/17/6 -11/17/6 -4/17/6
f -5/18/6 -12/18/6 -4/18/6
f -11/20/6 -10/20/6 -3/20/6
f -4/17/6 -11/17/6 -3/17/6
f -10/18/6 -17/18/6 -2/18/6
f -3/20/6 -10/20/6 -2/20/6
f -2/18/6 -17/18/6 -1/18/6
v -6 14 4
v 6 14 4
v -6 14 3
v 6 14 3
f -4/18/6 -3/18/6 -2/18/6
f -2/18/6 -3/18/6 -1/18/6
v -9 34 3
v 9 34 3
v -9 34 -6
v 9 34 -6
f -4/2/6 -3/2/6 -2/2/6
f -2/2/6 -3/2/6 -1/2/6
