# MagicaVoxel @ ephtracy

# material
mtllib Server Wall 3.mtl
usemtl palette

# normals
vn -1 0 0
vn 1 0 0
vn 0 0 1
vn 0 0 -1
vn 0 -1 0
vn 0 1 0

# texcoords
vt 0.337891 0.5
vt 0.341797 0.5
vt 0.962891 0.5
vt 0.978516 0.5
vt 0.986328 0.5

# verts and faces
v -30 0 4
v -30 0 -4
v -30 1 5
v -30 1 4
v -30 1 -4
v -30 1 -5
v -30 33 5
v -30 33 4
v -30 33 -4
v -30 33 -5
v -30 34 5
v -30 34 4
v -30 34 -4
v -30 34 -5
v -30 40 5
v -30 40 4
v -30 40 -4
v -30 40 -5
f -15/1/1 -17/1/1 -18/1/1
f -14/1/1 -17/1/1 -15/1/1
f -12/1/1 -15/1/1 -16/1/1
f -12/1/1 -13/1/1 -14/1/1
f -12/1/1 -14/1/1 -15/1/1
f -11/1/1 -13/1/1 -12/1/1
f -10/1/1 -13/1/1 -11/1/1
f -9/1/1 -13/1/1 -10/1/1
f -7/1/1 -10/1/1 -11/1/1
f -6/1/1 -10/1/1 -7/1/1
f -4/5/1 -7/5/1 -8/5/1
f -3/1/1 -6/1/1 -7/1/1
f -3/5/1 -7/5/1 -4/5/1
f -2/5/1 -5/5/1 -6/5/1
f -2/1/1 -6/1/1 -3/1/1
f -1/5/1 -5/5/1 -2/5/1
v 30 0 4
v 30 0 -4
v 30 1 5
v 30 1 4
v 30 1 -4
v 30 1 -5
v 30 2 4
v 30 2 -4
v 30 33 5
v 30 33 4
v 30 33 -4
v 30 33 -5
v 30 34 5
v 30 34 4
v 30 34 -4
v 30 34 -5
v 30 35 5
v 30 35 4
v 30 35 -4
v 30 35 -5
v 30 36 5
v 30 36 4
v 30 36 -4
v 30 36 -5
v 30 38 5
v 30 38 4
v 30 38 -4
v 30 38 -5
v 30 39 5
v 30 39 4
v 30 39 -4
v 30 39 -5
v 30 40 5
v 30 40 -5
f -34/1/2 -33/1/2 -31/1/2
f -31/1/2 -33/1/2 -30/1/2
f -32/1/2 -31/1/2 -28/1/2
f -30/1/2 -29/1/2 -28/1/2
f -31/1/2 -30/1/2 -28/1/2
f -28/1/2 -29/1/2 -27/1/2
f -32/1/2 -28/1/2 -26/1/2
f -28/5/2 -27/5/2 -25/5/2
f -26/1/2 -28/1/2 -25/1/2
f -27/1/2 -29/1/2 -24/1/2
f -25/5/2 -27/5/2 -24/5/2
f -24/1/2 -29/1/2 -23/1/2
f -25/5/2 -24/5/2 -21/5/2
f -21/5/2 -24/5/2 -20/5/2
f -22/5/2 -21/5/2 -18/5/2
f -20/5/2 -19/5/2 -18/5/2
f -21/5/2 -20/5/2 -18/5/2
f -18/5/2 -19/5/2 -17/5/2
f -17/5/2 -19/5/2 -16/5/2
f -16/5/2 -19/5/2 -15/5/2
f -18/3/2 -17/3/2 -14/3/2
f -17/5/2 -16/5/2 -13/5/2
f -14/3/2 -17/3/2 -13/3/2
f -16/3/2 -15/3/2 -12/3/2
f -13/5/2 -16/5/2 -12/5/2
f -12/3/2 -15/3/2 -11/3/2
f -14/4/2 -13/4/2 -10/4/2
f -13/5/2 -12/5/2 -9/5/2
f -10/4/2 -13/4/2 -9/4/2
f -12/4/2 -11/4/2 -8/4/2
f -9/5/2 -12/5/2 -8/5/2
f -8/4/2 -11/4/2 -7/4/2
f -10/3/2 -9/3/2 -6/3/2
f -9/5/2 -8/5/2 -5/5/2
f -6/3/2 -9/3/2 -5/3/2
f -8/3/2 -7/3/2 -4/3/2
f -5/5/2 -8/5/2 -4/5/2
f -4/3/2 -7/3/2 -3/3/2
f -6/1/2 -5/1/2 -2/1/2
f -5/1/2 -4/1/2 -2/1/2
f -4/1/2 -3/1/2 -2/1/2
f -2/1/2 -3/1/2 -1/1/2
v -30 1 5
v -30 33 5
v -30 34 5
v -30 40 5
v -29 2 5
v -29 32 5
v -29 35 5
v -29 39 5
v -29 40 5
v -26 36 5
v -26 38 5
v 29 2 5
v 29 32 5
v 30 1 5
v 30 33 5
v 30 34 5
v 30 35 5
v 30 36 5
v 30 38 5
v 30 39 5
v 30 40 5
f -17/1/3 -20/1/3 -21/1/3
f -16/1/3 -20/1/3 -17/1/3
f -15/5/3 -18/5/3 -19/5/3
f -14/5/3 -18/5/3 -15/5/3
f -13/5/3 -18/5/3 -14/5/3
f -12/3/3 -14/3/3 -15/3/3
f -11/3/3 -14/3/3 -12/3/3
f -10/1/3 -17/1/3 -21/1/3
f -10/5/3 -16/5/3 -17/5/3
f -9/1/3 -20/1/3 -16/1/3
f -9/5/3 -16/5/3 -10/5/3
f -8/1/3 -10/1/3 -21/1/3
f -8/1/3 -9/1/3 -10/1/3
f -7/1/3 -20/1/3 -9/1/3
f -7/1/3 -9/1/3 -8/1/3
f -6/5/3 -15/5/3 -19/5/3
f -5/3/3 -12/3/3 -15/3/3
f -5/5/3 -15/5/3 -6/5/3
f -4/4/3 -11/4/3 -12/4/3
f -4/3/3 -12/3/3 -5/3/3
f -3/3/3 -14/3/3 -11/3/3
f -3/4/3 -11/4/3 -4/4/3
f -2/1/3 -13/1/3 -14/1/3
f -2/3/3 -14/3/3 -3/3/3
f -1/1/3 -13/1/3 -2/1/3
v -30 0 4
v -30 1 4
v -30 33 4
v -30 34 4
v 29 33 4
v 29 34 4
v 30 0 4
v 30 1 4
v 30 33 4
v 30 34 4
f -6/1/3 -7/1/3 -8/1/3
f -5/1/3 -7/1/3 -6/1/3
f -4/1/3 -9/1/3 -10/1/3
f -3/1/3 -9/1/3 -4/1/3
f -2/5/3 -5/5/3 -6/5/3
f -1/5/3 -5/5/3 -2/5/3
v -30 0 -4
v -30 1 -4
v -30 33 -4
v -30 34 -4
v 29 33 -4
v 29 34 -4
v 30 0 -4
v 30 1 -4
v 30 33 -4
v 30 34 -4
f -8/1/4 -7/1/4 -6/1/4
f -6/1/4 -7/1/4 -5/1/4
f -10/1/4 -9/1/4 -4/1/4
f -4/1/4 -9/1/4 -3/1/4
f -6/5/4 -5/5/4 -2/5/4
f -2/5/4 -5/5/4 -1/5/4
v -30 1 -5
v -30 33 -5
v -30 34 -5
v -30 40 -5
v -29 2 -5
v -29 32 -5
v -29 35 -5
v -29 39 -5
v -29 40 -5
v -26 36 -5
v -26 38 -5
v 29 2 -5
v 29 32 -5
v 30 1 -5
v 30 33 -5
v 30 34 -5
v 30 35 -5
v 30 36 -5
v 30 38 -5
v 30 39 -5
v 30 40 -5
f -21/1/4 -20/1/4 -17/1/4
f -17/1/4 -20/1/4 -16/1/4
f -19/5/4 -18/5/4 -15/5/4
f -15/5/4 -18/5/4 -14/5/4
f -14/5/4 -18/5/4 -13/5/4
f -15/3/4 -14/3/4 -12/3/4
f -12/3/4 -14/3/4 -11/3/4
f -21/1/4 -17/1/4 -10/1/4
f -17/5/4 -16/5/4 -10/5/4
f -16/1/4 -20/1/4 -9/1/4
f -10/5/4 -16/5/4 -9/5/4
f -21/1/4 -10/1/4 -8/1/4
f -10/1/4 -9/1/4 -8/1/4
f -9/1/4 -20/1/4 -7/1/4
f -8/1/4 -9/1/4 -7/1/4
f -19/5/4 -15/5/4 -6/5/4
f -15/3/4 -12/3/4 -5/3/4
f -6/5/4 -15/5/4 -5/5/4
f -12/4/4 -11/4/4 -4/4/4
f -5/3/4 -12/3/4 -4/3/4
f -11/3/4 -14/3/4 -3/3/4
f -4/4/4 -11/4/4 -3/4/4
f -14/1/4 -13/1/4 -2/1/4
f -3/3/4 -14/3/4 -2/3/4
f -2/1/4 -13/1/4 -1/1/4
v -30 0 4
v 30 0 4
v -30 0 -4
v 30 0 -4
f -2/1/5 -3/1/5 -4/1/5
f -1/1/5 -3/1/5 -2/1/5
v -30 1 5
v 30 1 5
v -30 1 4
v 30 1 4
v -30 1 -4
v 30 1 -4
v -30 1 -5
v 30 1 -5
f -6/1/5 -7/1/5 -8/1/5
f -5/1/5 -7/1/5 -6/1/5
f -2/1/5 -3/1/5 -4/1/5
f -1/1/5 -3/1/5 -2/1/5
v -30 34 5
v 30 34 5
v -30 34 4
v 29 34 4
v 30 34 4
v -30 34 -4
v 29 34 -4
v 30 34 -4
v -30 34 -5
v 30 34 -5
f -8/5/5 -9/5/5 -10/5/5
f -7/5/5 -9/5/5 -8/5/5
f -6/5/5 -9/5/5 -7/5/5
f -2/5/5 -4/5/5 -5/5/5
f -2/5/5 -3/5/5 -4/5/5
f -1/5/5 -3/5/5 -2/5/5
v -30 33 5
v 30 33 5
v -30 33 4
v 29 33 4
v 30 33 4
v -30 33 -4
v 29 33 -4
v 30 33 -4
v -30 33 -5
v 30 33 -5
f -10/1/6 -9/1/6 -8/1/6
f -8/1/6 -9/1/6 -7/1/6
f -7/1/6 -9/1/6 -6/1/6
f -5/1/6 -4/1/6 -2/1/6
f -4/1/6 -3/1/6 -2/1/6
f -2/1/6 -3/1/6 -1/1/6
v -30 40 5
v -29 40 5
v 30 40 5
v -30 40 4
v -29 40 4
v -30 40 -4
v -29 40 -4
v -30 40 -5
v -29 40 -5
v 30 40 -5
f -10/5/6 -9/5/6 -7/5/6
f -9/1/6 -8/1/6 -6/1/6
f -7/5/6 -9/5/6 -6/5/6
f -7/1/6 -6/1/6 -5/1/6
f -6/1/6 -8/1/6 -4/1/6
f -5/1/6 -6/1/6 -4/1/6
f -5/5/6 -4/5/6 -3/5/6
f -4/1/6 -8/1/6 -2/1/6
f -3/5/6 -4/5/6 -2/5/6
f -2/1/6 -8/1/6 -1/1/6
