# MagicaVoxel @ ephtracy

# material
mtllib Sleep Pod Victim 4 Blood.mtl
usemtl palette

# normals
vn -1 0 0
vn 1 0 0
vn 0 0 1
vn 0 0 -1
vn 0 -1 0
vn 0 1 0

# texcoords
vt 0.853516 0.5
vt 0.857422 0.5
vt 0.865234 0.5

# verts and faces
v -6 5 0.5
v -6 5 -0.5
v -6 6 0.5
v -6 6 -0.5
f -2/2/1 -3/2/1 -4/2/1
f -1/2/1 -3/2/1 -2/2/1
v -5 4 0.5
v -5 4 -0.5
v -5 5 0.5
v -5 5 -0.5
f -2/3/1 -3/3/1 -4/3/1
f -1/3/1 -3/3/1 -2/3/1
v -4 3 0.5
v -4 3 -0.5
v -4 4 0.5
v -4 4 -0.5
v -4 5 0.5
v -4 5 -0.5
v -4 6 0.5
v -4 6 -0.5
f -6/2/1 -7/2/1 -8/2/1
f -5/2/1 -7/2/1 -6/2/1
f -2/3/1 -3/3/1 -4/3/1
f -1/3/1 -3/3/1 -2/3/1
v -3 2 0.5
v -3 2 -0.5
v -3 3 0.5
v -3 3 -0.5
f -2/3/1 -3/3/1 -4/3/1
f -1/3/1 -3/3/1 -2/3/1
v 1 6 0.5
v 1 6 -0.5
v 1 7 0.5
v 1 7 -0.5
f -2/3/1 -3/3/1 -4/3/1
f -1/3/1 -3/3/1 -2/3/1
v 2 3 0.5
v 2 3 -0.5
v 2 4 0.5
v 2 4 -0.5
f -2/3/1 -3/3/1 -4/3/1
f -1/3/1 -3/3/1 -2/3/1
v 3 2 0.5
v 3 2 -0.5
v 3 3 0.5
v 3 3 -0.5
v 3 5 0.5
v 3 5 -0.5
v 3 6 0.5
v 3 6 -0.5
v 3 7 0.5
v 3 7 -0.5
v 3 8 0.5
v 3 8 -0.5
f -10/3/1 -11/3/1 -12/3/1
f -9/3/1 -11/3/1 -10/3/1
f -6/3/1 -7/3/1 -8/3/1
f -5/3/1 -7/3/1 -6/3/1
f -2/3/1 -3/3/1 -4/3/1
f -1/3/1 -3/3/1 -2/3/1
v 4 0 0.5
v 4 0 -0.5
v 4 1 0.5
v 4 1 -0.5
v 4 2 0.5
v 4 2 -0.5
v 4 3 0.5
v 4 3 -0.5
v 4 4 0.5
v 4 4 -0.5
v 4 6 0.5
v 4 6 -0.5
v 4 7 0.5
v 4 7 -0.5
f -12/2/1 -13/2/1 -14/2/1
f -11/2/1 -13/2/1 -12/2/1
f -10/3/1 -11/3/1 -12/3/1
f -9/3/1 -11/3/1 -10/3/1
f -6/2/1 -7/2/1 -8/2/1
f -5/2/1 -7/2/1 -6/2/1
f -2/2/1 -3/2/1 -4/2/1
f -1/2/1 -3/2/1 -2/2/1
v 5 5 0.5
v 5 5 -0.5
v 5 6 0.5
v 5 6 -0.5
f -2/1/1 -3/1/1 -4/1/1
f -1/1/1 -3/1/1 -2/1/1
v -5 5 0.5
v -5 5 -0.5
v -5 6 0.5
v -5 6 -0.5
f -4/2/2 -3/2/2 -2/2/2
f -2/2/2 -3/2/2 -1/2/2
v -4 4 0.5
v -4 4 -0.5
v -4 5 0.5
v -4 5 -0.5
f -4/3/2 -3/3/2 -2/3/2
f -2/3/2 -3/3/2 -1/3/2
v -3 5 0.5
v -3 5 -0.5
v -3 6 0.5
v -3 6 -0.5
f -4/3/2 -3/3/2 -2/3/2
f -2/3/2 -3/3/2 -1/3/2
v -2 2 0.5
v -2 2 -0.5
v -2 4 0.5
v -2 4 -0.5
f -4/3/2 -3/3/2 -2/3/2
f -2/3/2 -3/3/2 -1/3/2
v 3 3 0.5
v 3 3 -0.5
v 3 4 0.5
v 3 4 -0.5
v 3 6 0.5
v 3 6 -0.5
v 3 7 0.5
v 3 7 -0.5
f -8/3/2 -7/3/2 -6/3/2
f -6/3/2 -7/3/2 -5/3/2
f -4/3/2 -3/3/2 -2/3/2
f -2/3/2 -3/3/2 -1/3/2
v 4 5 0.5
v 4 5 -0.5
v 4 6 0.5
v 4 6 -0.5
v 4 7 0.5
v 4 7 -0.5
v 4 8 0.5
v 4 8 -0.5
f -8/3/2 -7/3/2 -6/3/2
f -6/3/2 -7/3/2 -5/3/2
f -4/3/2 -3/3/2 -2/3/2
f -2/3/2 -3/3/2 -1/3/2
v 5 0 0.5
v 5 0 -0.5
v 5 1 0.5
v 5 1 -0.5
v 5 2 0.5
v 5 2 -0.5
v 5 3 0.5
v 5 3 -0.5
v 5 4 0.5
v 5 4 -0.5
v 5 6 0.5
v 5 6 -0.5
v 5 7 0.5
v 5 7 -0.5
f -14/2/2 -13/2/2 -12/2/2
f -12/2/2 -13/2/2 -11/2/2
f -12/3/2 -11/3/2 -10/3/2
f -10/3/2 -11/3/2 -9/3/2
f -8/2/2 -7/2/2 -6/2/2
f -6/2/2 -7/2/2 -5/2/2
f -4/2/2 -3/2/2 -2/2/2
f -2/2/2 -3/2/2 -1/2/2
v 6 2 0.5
v 6 2 -0.5
v 6 3 0.5
v 6 3 -0.5
v 6 5 0.5
v 6 5 -0.5
v 6 6 0.5
v 6 6 -0.5
f -8/1/2 -7/1/2 -6/1/2
f -6/1/2 -7/1/2 -5/1/2
f -4/1/2 -3/1/2 -2/1/2
f -2/1/2 -3/1/2 -1/1/2
v -6 5 0.5
v -6 6 0.5
v -5 4 0.5
v -5 5 0.5
v -5 6 0.5
v -4 3 0.5
v -4 4 0.5
v -4 5 0.5
v -4 6 0.5
v -3 2 0.5
v -3 3 0.5
v -3 4 0.5
v -3 5 0.5
v -3 6 0.5
v -2 2 0.5
v -2 4 0.5
v 1 6 0.5
v 1 7 0.5
v 2 3 0.5
v 2 4 0.5
v 3 2 0.5
v 3 3 0.5
v 3 4 0.5
v 3 5 0.5
v 3 6 0.5
v 3 7 0.5
v 3 8 0.5
v 4 0 0.5
v 4 1 0.5
v 4 2 0.5
v 4 3 0.5
v 4 4 0.5
v 4 5 0.5
v 4 6 0.5
v 4 7 0.5
v 4 8 0.5
v 5 0 0.5
v 5 1 0.5
v 5 2 0.5
v 5 3 0.5
v 5 4 0.5
v 5 5 0.5
v 5 6 0.5
v 5 7 0.5
v 6 2 0.5
v 6 3 0.5
v 6 5 0.5
v 6 6 0.5
f -45/2/3 -47/2/3 -48/2/3
f -44/2/3 -47/2/3 -45/2/3
f -42/3/3 -45/3/3 -46/3/3
f -41/3/3 -45/3/3 -42/3/3
f -38/2/3 -42/2/3 -43/2/3
f -37/2/3 -42/2/3 -38/2/3
f -36/3/3 -40/3/3 -41/3/3
f -35/3/3 -40/3/3 -36/3/3
f -34/3/3 -37/3/3 -38/3/3
f -34/3/3 -38/3/3 -39/3/3
f -33/3/3 -37/3/3 -34/3/3
f -27/3/3 -29/3/3 -30/3/3
f -26/3/3 -29/3/3 -27/3/3
f -24/3/3 -31/3/3 -32/3/3
f -23/3/3 -31/3/3 -24/3/3
f -19/3/3 -27/3/3 -28/3/3
f -18/3/3 -27/3/3 -19/3/3
f -16/3/3 -24/3/3 -25/3/3
f -15/3/3 -24/3/3 -16/3/3
f -14/3/3 -22/3/3 -23/3/3
f -13/3/3 -22/3/3 -14/3/3
f -12/2/3 -20/2/3 -21/2/3
f -11/3/3 -19/3/3 -20/3/3
f -11/2/3 -20/2/3 -12/2/3
f -11/3/3 -18/3/3 -19/3/3
f -10/3/3 -18/3/3 -11/3/3
f -9/2/3 -17/2/3 -18/2/3
f -9/3/3 -18/3/3 -10/3/3
f -8/2/3 -17/2/3 -9/2/3
f -6/2/3 -14/2/3 -15/2/3
f -5/2/3 -14/2/3 -6/2/3
f -4/1/3 -9/1/3 -10/1/3
f -3/1/3 -9/1/3 -4/1/3
f -2/1/3 -6/1/3 -7/1/3
f -1/1/3 -6/1/3 -2/1/3
v -6 5 -0.5
v -6 6 -0.5
v -5 4 -0.5
v -5 5 -0.5
v -5 6 -0.5
v -4 3 -0.5
v -4 4 -0.5
v -4 5 -0.5
v -4 6 -0.5
v -3 2 -0.5
v -3 3 -0.5
v -3 4 -0.5
v -3 5 -0.5
v -3 6 -0.5
v -2 2 -0.5
v -2 4 -0.5
v 1 6 -0.5
v 1 7 -0.5
v 2 3 -0.5
v 2 4 -0.5
v 3 2 -0.5
v 3 3 -0.5
v 3 4 -0.5
v 3 5 -0.5
v 3 6 -0.5
v 3 7 -0.5
v 3 8 -0.5
v 4 0 -0.5
v 4 1 -0.5
v 4 2 -0.5
v 4 3 -0.5
v 4 4 -0.5
v 4 5 -0.5
v 4 6 -0.5
v 4 7 -0.5
v 4 8 -0.5
v 5 0 -0.5
v 5 1 -0.5
v 5 2 -0.5
v 5 3 -0.5
v 5 4 -0.5
v 5 5 -0.5
v 5 6 -0.5
v 5 7 -0.5
v 6 2 -0.5
v 6 3 -0.5
v 6 5 -0.5
v 6 6 -0.5
f -48/2/4 -47/2/4 -45/2/4
f -45/2/4 -47/2/4 -44/2/4
f -46/3/4 -45/3/4 -42/3/4
f -42/3/4 -45/3/4 -41/3/4
f -43/2/4 -42/2/4 -38/2/4
f -38/2/4 -42/2/4 -37/2/4
f -41/3/4 -40/3/4 -36/3/4
f -36/3/4 -40/3/4 -35/3/4
f -38/3/4 -37/3/4 -34/3/4
f -39/3/4 -38/3/4 -34/3/4
f -34/3/4 -37/3/4 -33/3/4
f -30/3/4 -29/3/4 -27/3/4
f -27/3/4 -29/3/4 -26/3/4
f -32/3/4 -31/3/4 -24/3/4
f -24/3/4 -31/3/4 -23/3/4
f -28/3/4 -27/3/4 -19/3/4
f -19/3/4 -27/3/4 -18/3/4
f -25/3/4 -24/3/4 -16/3/4
f -16/3/4 -24/3/4 -15/3/4
f -23/3/4 -22/3/4 -14/3/4
f -14/3/4 -22/3/4 -13/3/4
f -21/2/4 -20/2/4 -12/2/4
f -20/3/4 -19/3/4 -11/3/4
f -12/2/4 -20/2/4 -11/2/4
f -19/3/4 -18/3/4 -11/3/4
f -11/3/4 -18/3/4 -10/3/4
f -18/2/4 -17/2/4 -9/2/4
f -10/3/4 -18/3/4 -9/3/4
f -9/2/4 -17/2/4 -8/2/4
f -15/2/4 -14/2/4 -6/2/4
f -6/2/4 -14/2/4 -5/2/4
f -10/1/4 -9/1/4 -4/1/4
f -4/1/4 -9/1/4 -3/1/4
f -7/1/4 -6/1/4 -2/1/4
f -2/1/4 -6/1/4 -1/1/4
v 4 0 0.5
v 5 0 0.5
v 4 0 -0.5
v 5 0 -0.5
f -2/2/5 -3/2/5 -4/2/5
f -1/2/5 -3/2/5 -2/2/5
v -3 2 0.5
v -2 2 0.5
v 3 2 0.5
v 4 2 0.5
v 5 2 0.5
v 6 2 0.5
v -3 2 -0.5
v -2 2 -0.5
v 3 2 -0.5
v 4 2 -0.5
v 5 2 -0.5
v 6 2 -0.5
f -6/3/5 -11/3/5 -12/3/5
f -5/3/5 -11/3/5 -6/3/5
f -4/3/5 -9/3/5 -10/3/5
f -3/3/5 -9/3/5 -4/3/5
f -2/1/5 -7/1/5 -8/1/5
f -1/1/5 -7/1/5 -2/1/5
v -4 3 0.5
v -3 3 0.5
v 2 3 0.5
v 3 3 0.5
v -4 3 -0.5
v -3 3 -0.5
v 2 3 -0.5
v 3 3 -0.5
f -4/2/5 -7/2/5 -8/2/5
f -3/2/5 -7/2/5 -4/2/5
f -2/3/5 -5/3/5 -6/3/5
f -1/3/5 -5/3/5 -2/3/5
v -5 4 0.5
v -4 4 0.5
v -5 4 -0.5
v -4 4 -0.5
f -2/3/5 -3/3/5 -4/3/5
f -1/3/5 -3/3/5 -2/3/5
v -6 5 0.5
v -5 5 0.5
v -4 5 0.5
v -3 5 0.5
v 3 5 0.5
v 4 5 0.5
v 5 5 0.5
v 6 5 0.5
v -6 5 -0.5
v -5 5 -0.5
v -4 5 -0.5
v -3 5 -0.5
v 3 5 -0.5
v 4 5 -0.5
v 5 5 -0.5
v 6 5 -0.5
f -8/2/5 -15/2/5 -16/2/5
f -7/2/5 -15/2/5 -8/2/5
f -6/3/5 -13/3/5 -14/3/5
f -5/3/5 -13/3/5 -6/3/5
f -4/3/5 -11/3/5 -12/3/5
f -3/3/5 -11/3/5 -4/3/5
f -2/1/5 -9/1/5 -10/1/5
f -1/1/5 -9/1/5 -2/1/5
v 1 6 0.5
v 3 6 0.5
v 4 6 0.5
v 5 6 0.5
v 1 6 -0.5
v 3 6 -0.5
v 4 6 -0.5
v 5 6 -0.5
f -4/3/5 -7/3/5 -8/3/5
f -3/3/5 -7/3/5 -4/3/5
f -2/2/5 -5/2/5 -6/2/5
f -1/2/5 -5/2/5 -2/2/5
v 3 7 0.5
v 4 7 0.5
v 3 7 -0.5
v 4 7 -0.5
f -2/3/5 -3/3/5 -4/3/5
f -1/3/5 -3/3/5 -2/3/5
v 3 3 0.5
v 4 3 0.5
v 5 3 0.5
v 6 3 0.5
v 3 3 -0.5
v 4 3 -0.5
v 5 3 -0.5
v 6 3 -0.5
f -8/3/6 -7/3/6 -4/3/6
f -4/3/6 -7/3/6 -3/3/6
f -6/1/6 -5/1/6 -2/1/6
f -2/1/6 -5/1/6 -1/1/6
v -4 4 0.5
v -3 4 0.5
v -2 4 0.5
v 2 4 0.5
v 3 4 0.5
v 4 4 0.5
v 5 4 0.5
v -4 4 -0.5
v -3 4 -0.5
v -2 4 -0.5
v 2 4 -0.5
v 3 4 -0.5
v 4 4 -0.5
v 5 4 -0.5
f -14/2/6 -13/2/6 -7/2/6
f -13/3/6 -12/3/6 -6/3/6
f -7/2/6 -13/2/6 -6/2/6
f -6/3/6 -12/3/6 -5/3/6
f -11/3/6 -10/3/6 -4/3/6
f -4/3/6 -10/3/6 -3/3/6
f -9/2/6 -8/2/6 -2/2/6
f -2/2/6 -8/2/6 -1/2/6
v -5 5 0.5
v -4 5 0.5
v -5 5 -0.5
v -4 5 -0.5
f -4/3/6 -3/3/6 -2/3/6
f -2/3/6 -3/3/6 -1/3/6
v -6 6 0.5
v -5 6 0.5
v -4 6 0.5
v -3 6 0.5
v 3 6 0.5
v 4 6 0.5
v 5 6 0.5
v 6 6 0.5
v -6 6 -0.5
v -5 6 -0.5
v -4 6 -0.5
v -3 6 -0.5
v 3 6 -0.5
v 4 6 -0.5
v 5 6 -0.5
v 6 6 -0.5
f -16/2/6 -15/2/6 -8/2/6
f -8/2/6 -15/2/6 -7/2/6
f -14/3/6 -13/3/6 -6/3/6
f -6/3/6 -13/3/6 -5/3/6
f -12/3/6 -11/3/6 -4/3/6
f -4/3/6 -11/3/6 -3/3/6
f -10/1/6 -9/1/6 -2/1/6
f -2/1/6 -9/1/6 -1/1/6
v 1 7 0.5
v 3 7 0.5
v 4 7 0.5
v 5 7 0.5
v 1 7 -0.5
v 3 7 -0.5
v 4 7 -0.5
v 5 7 -0.5
f -8/3/6 -7/3/6 -4/3/6
f -4/3/6 -7/3/6 -3/3/6
f -6/2/6 -5/2/6 -2/2/6
f -2/2/6 -5/2/6 -1/2/6
v 3 8 0.5
v 4 8 0.5
v 3 8 -0.5
v 4 8 -0.5
f -4/3/6 -3/3/6 -2/3/6
f -2/3/6 -3/3/6 -1/3/6
