# MagicaVoxel @ ephtracy

# material
mtllib Three Squares.mtl
usemtl palette

# normals
vn -1 0 0
vn 1 0 0
vn 0 0 1
vn 0 0 -1
vn 0 -1 0
vn 0 1 0

# texcoords
vt 0.00976563 0.5
vt 0.0332031 0.5
vt 0.197266 0.5
vt 0.365234 0.5
vt 0.958984 0.5
vt 0.982422 0.5
vt 0.990234 0.5
vt 0.994141 0.5

# verts and faces
v -5 0 0.5
v -5 0 -0.5
v -5 10 0.5
v -5 10 -0.5
f -2/8/1 -3/8/1 -4/8/1
f -1/8/1 -3/8/1 -2/8/1
v 5 0 0.5
v 5 0 -0.5
v 5 10 0.5
v 5 10 -0.5
f -4/8/2 -3/8/2 -2/8/2
f -2/8/2 -3/8/2 -1/8/2
v -5 0 0.5
v -5 10 0.5
v -4 1 0.5
v -4 9 0.5
v -2 4 0.5
v -2 5 0.5
v -2 6 0.5
v -1 2 0.5
v -1 3 0.5
v -1 4 0.5
v -1 5 0.5
v -1 6 0.5
v 0 3 0.5
v 0 4 0.5
v 0 5 0.5
v 0 6 0.5
v 0 7 0.5
v 1 2 0.5
v 1 4 0.5
v 1 5 0.5
v 2 4 0.5
v 2 5 0.5
v 2 7 0.5
v 4 1 0.5
v 4 9 0.5
v 5 0 0.5
v 5 10 0.5
f -25/8/3 -26/8/3 -27/8/3
f -24/8/3 -26/8/3 -25/8/3
f -23/5/3 -24/5/3 -25/5/3
f -22/5/3 -24/5/3 -23/5/3
f -21/5/3 -24/5/3 -22/5/3
f -20/5/3 -23/5/3 -25/5/3
f -19/5/3 -23/5/3 -20/5/3
f -18/2/3 -22/2/3 -23/2/3
f -18/5/3 -23/5/3 -19/5/3
f -17/1/3 -21/1/3 -22/1/3
f -17/2/3 -22/2/3 -18/2/3
f -16/5/3 -24/5/3 -21/5/3
f -16/1/3 -21/1/3 -17/1/3
f -15/3/3 -19/3/3 -20/3/3
f -15/4/3 -18/4/3 -19/4/3
f -14/2/3 -17/2/3 -18/2/3
f -14/4/3 -18/4/3 -15/4/3
f -14/2/3 -16/2/3 -17/2/3
f -13/2/3 -16/2/3 -14/2/3
f -12/5/3 -24/5/3 -16/5/3
f -12/2/3 -16/2/3 -13/2/3
f -11/5/3 -24/5/3 -12/5/3
f -10/3/3 -15/3/3 -20/3/3
f -10/5/3 -20/5/3 -25/5/3
f -10/3/3 -14/3/3 -15/3/3
f -9/5/3 -13/5/3 -14/5/3
f -9/3/3 -14/3/3 -10/3/3
f -8/7/3 -11/7/3 -12/7/3
f -8/5/3 -13/5/3 -9/5/3
f -8/7/3 -12/7/3 -13/7/3
f -7/5/3 -9/5/3 -10/5/3
f -7/6/3 -8/6/3 -9/6/3
f -6/7/3 -11/7/3 -8/7/3
f -6/6/3 -8/6/3 -7/6/3
f -5/5/3 -24/5/3 -11/5/3
f -5/7/3 -11/7/3 -6/7/3
f -4/8/3 -25/8/3 -27/8/3
f -4/5/3 -6/5/3 -7/5/3
f -4/5/3 -5/5/3 -6/5/3
f -4/5/3 -7/5/3 -10/5/3
f -4/5/3 -10/5/3 -25/5/3
f -3/5/3 -24/5/3 -5/5/3
f -3/5/3 -5/5/3 -4/5/3
f -3/8/3 -26/8/3 -24/8/3
f -2/8/3 -4/8/3 -27/8/3
f -2/8/3 -3/8/3 -4/8/3
f -1/8/3 -26/8/3 -3/8/3
f -1/8/3 -3/8/3 -2/8/3
v -5 0 -0.5
v -5 10 -0.5
v -4 1 -0.5
v -4 9 -0.5
v -2 4 -0.5
v -2 5 -0.5
v -2 6 -0.5
v -1 2 -0.5
v -1 3 -0.5
v -1 4 -0.5
v -1 5 -0.5
v -1 6 -0.5
v 0 3 -0.5
v 0 4 -0.5
v 0 5 -0.5
v 0 6 -0.5
v 0 7 -0.5
v 1 2 -0.5
v 1 4 -0.5
v 1 5 -0.5
v 2 4 -0.5
v 2 5 -0.5
v 2 7 -0.5
v 4 1 -0.5
v 4 9 -0.5
v 5 0 -0.5
v 5 10 -0.5
f -27/8/4 -26/8/4 -25/8/4
f -25/8/4 -26/8/4 -24/8/4
f -25/5/4 -24/5/4 -23/5/4
f -23/5/4 -24/5/4 -22/5/4
f -22/5/4 -24/5/4 -21/5/4
f -25/5/4 -23/5/4 -20/5/4
f -20/5/4 -23/5/4 -19/5/4
f -23/2/4 -22/2/4 -18/2/4
f -19/5/4 -23/5/4 -18/5/4
f -22/1/4 -21/1/4 -17/1/4
f -18/2/4 -22/2/4 -17/2/4
f -21/5/4 -24/5/4 -16/5/4
f -17/1/4 -21/1/4 -16/1/4
f -20/3/4 -19/3/4 -15/3/4
f -19/4/4 -18/4/4 -15/4/4
f -18/2/4 -17/2/4 -14/2/4
f -15/4/4 -18/4/4 -14/4/4
f -17/2/4 -16/2/4 -14/2/4
f -14/2/4 -16/2/4 -13/2/4
f -16/5/4 -24/5/4 -12/5/4
f -13/2/4 -16/2/4 -12/2/4
f -12/5/4 -24/5/4 -11/5/4
f -20/3/4 -15/3/4 -10/3/4
f -25/5/4 -20/5/4 -10/5/4
f -15/3/4 -14/3/4 -10/3/4
f -14/5/4 -13/5/4 -9/5/4
f -10/3/4 -14/3/4 -9/3/4
f -12/7/4 -11/7/4 -8/7/4
f -9/5/4 -13/5/4 -8/5/4
f -13/7/4 -12/7/4 -8/7/4
f -10/5/4 -9/5/4 -7/5/4
f -9/6/4 -8/6/4 -7/6/4
f -8/7/4 -11/7/4 -6/7/4
f -7/6/4 -8/6/4 -6/6/4
f -11/5/4 -24/5/4 -5/5/4
f -6/7/4 -11/7/4 -5/7/4
f -27/8/4 -25/8/4 -4/8/4
f -7/5/4 -6/5/4 -4/5/4
f -6/5/4 -5/5/4 -4/5/4
f -10/5/4 -7/5/4 -4/5/4
f -25/5/4 -10/5/4 -4/5/4
f -5/5/4 -24/5/4 -3/5/4
f -4/5/4 -5/5/4 -3/5/4
f -24/8/4 -26/8/4 -3/8/4
f -27/8/4 -4/8/4 -2/8/4
f -4/8/4 -3/8/4 -2/8/4
f -3/8/4 -26/8/4 -1/8/4
f -2/8/4 -3/8/4 -1/8/4
v -5 0 0.5
v 5 0 0.5
v -5 0 -0.5
v 5 0 -0.5
f -2/8/5 -3/8/5 -4/8/5
f -1/8/5 -3/8/5 -2/8/5
v -5 10 0.5
v 5 10 0.5
v -5 10 -0.5
v 5 10 -0.5
f -4/8/6 -3/8/6 -2/8/6
f -2/8/6 -3/8/6 -1/8/6
