# MagicaVoxel @ ephtracy

# material
mtllib Conference Room Wall 8.mtl
usemtl palette

# normals
vn -1 0 0
vn 1 0 0
vn 0 0 1
vn 0 0 -1
vn 0 -1 0
vn 0 1 0

# texcoords
vt 0.337891 0.5
vt 0.341797 0.5
vt 0.478516 0.5
vt 0.962891 0.5
vt 0.978516 0.5

# verts and faces
v -30 0 4
v -30 0 -4
v -30 1 5
v -30 1 4
v -30 1 -4
v -30 1 -5
v -30 34 5
v -30 34 4
v -30 34 -4
v -30 34 -5
v -30 39 5
v -30 39 4
v -30 39 -4
v -30 39 -5
v -30 40 5
v -30 40 -5
f -13/1/1 -15/1/1 -16/1/1
f -12/1/1 -15/1/1 -13/1/1
f -10/1/1 -13/1/1 -14/1/1
f -10/1/1 -11/1/1 -12/1/1
f -10/1/1 -12/1/1 -13/1/1
f -9/1/1 -11/1/1 -10/1/1
f -8/1/1 -11/1/1 -9/1/1
f -7/1/1 -11/1/1 -8/1/1
f -6/5/1 -9/5/1 -10/5/1
f -5/1/1 -8/1/1 -9/1/1
f -5/5/1 -9/5/1 -6/5/1
f -4/5/1 -7/5/1 -8/5/1
f -4/1/1 -8/1/1 -5/1/1
f -3/5/1 -7/5/1 -4/5/1
f -2/1/1 -5/1/1 -6/1/1
f -2/1/1 -4/1/1 -5/1/1
f -2/1/1 -3/1/1 -4/1/1
f -1/1/1 -3/1/1 -2/1/1
v 30 0 4
v 30 0 -4
v 30 1 5
v 30 1 4
v 30 1 -4
v 30 1 -5
v 30 35 5
v 30 35 4
v 30 35 -4
v 30 35 -5
v 30 36 5
v 30 36 4
v 30 36 -4
v 30 36 -5
v 30 39 5
v 30 39 4
v 30 39 -4
v 30 39 -5
v 30 40 5
v 30 40 -5
f -20/1/2 -19/1/2 -17/1/2
f -17/1/2 -19/1/2 -16/1/2
f -18/1/2 -17/1/2 -14/1/2
f -16/1/2 -15/1/2 -14/1/2
f -17/1/2 -16/1/2 -14/1/2
f -14/1/2 -15/1/2 -13/1/2
f -13/1/2 -15/1/2 -12/1/2
f -12/1/2 -15/1/2 -11/1/2
f -14/3/2 -13/3/2 -10/3/2
f -13/1/2 -12/1/2 -9/1/2
f -10/3/2 -13/3/2 -9/3/2
f -12/3/2 -11/3/2 -8/3/2
f -9/1/2 -12/1/2 -8/1/2
f -8/3/2 -11/3/2 -7/3/2
f -10/5/2 -9/5/2 -6/5/2
f -9/1/2 -8/1/2 -5/1/2
f -6/5/2 -9/5/2 -5/5/2
f -8/5/2 -7/5/2 -4/5/2
f -5/1/2 -8/1/2 -4/1/2
f -4/5/2 -7/5/2 -3/5/2
f -6/1/2 -5/1/2 -2/1/2
f -5/1/2 -4/1/2 -2/1/2
f -4/1/2 -3/1/2 -2/1/2
f -2/1/2 -3/1/2 -1/1/2
v -30 1 5
v -30 34 5
v -30 39 5
v -30 40 5
v -28 3 5
v -28 4 5
v -26 4 5
v -26 34 5
v -26 35 5
v -26 36 5
v 23 3 5
v 23 4 5
v 25 4 5
v 25 35 5
v 26 1 5
v 26 4 5
v 26 35 5
v 29 1 5
v 29 35 5
v 30 1 5
v 30 35 5
v 30 36 5
v 30 39 5
v 30 40 5
f -20/1/3 -23/1/3 -24/1/3
f -19/1/3 -23/1/3 -20/1/3
f -18/5/3 -19/5/3 -20/5/3
f -18/1/3 -23/1/3 -19/1/3
f -17/5/3 -22/5/3 -23/5/3
f -17/1/3 -23/1/3 -18/1/3
f -16/5/3 -22/5/3 -17/5/3
f -15/5/3 -22/5/3 -16/5/3
f -14/5/3 -18/5/3 -20/5/3
f -14/1/3 -20/1/3 -24/1/3
f -13/2/3 -17/2/3 -18/2/3
f -13/5/3 -18/5/3 -14/5/3
f -13/2/3 -16/2/3 -17/2/3
f -12/1/3 -13/1/3 -14/1/3
f -12/2/3 -16/2/3 -13/2/3
f -11/3/3 -15/3/3 -16/3/3
f -11/2/3 -16/2/3 -12/2/3
f -10/1/3 -12/1/3 -14/1/3
f -10/1/3 -14/1/3 -24/1/3
f -9/3/3 -11/3/3 -12/3/3
f -9/1/3 -12/1/3 -10/1/3
f -8/3/3 -15/3/3 -11/3/3
f -8/3/3 -11/3/3 -9/3/3
f -7/4/3 -9/4/3 -10/4/3
f -7/4/3 -8/4/3 -9/4/3
f -6/3/3 -15/3/3 -8/3/3
f -6/4/3 -8/4/3 -7/4/3
f -5/1/3 -6/1/3 -7/1/3
f -4/3/3 -15/3/3 -6/3/3
f -4/1/3 -6/1/3 -5/1/3
f -3/5/3 -22/5/3 -15/5/3
f -3/3/3 -15/3/3 -4/3/3
f -2/1/3 -21/1/3 -22/1/3
f -2/5/3 -22/5/3 -3/5/3
f -1/1/3 -21/1/3 -2/1/3
v -30 0 4
v -30 1 4
v 26 1 4
v 29 1 4
v 30 0 4
v 30 1 4
f -4/1/3 -5/1/3 -6/1/3
f -3/1/3 -4/1/3 -6/1/3
f -2/1/3 -3/1/3 -6/1/3
f -1/1/3 -3/1/3 -2/1/3
v -30 0 -4
v -30 1 -4
v 26 1 -4
v 29 1 -4
v 30 0 -4
v 30 1 -4
f -6/1/4 -5/1/4 -4/1/4
f -6/1/4 -4/1/4 -3/1/4
f -6/1/4 -3/1/4 -2/1/4
f -2/1/4 -3/1/4 -1/1/4
v -30 1 -5
v -30 34 -5
v -30 39 -5
v -30 40 -5
v -28 3 -5
v -28 4 -5
v -26 4 -5
v -26 34 -5
v -26 35 -5
v -26 36 -5
v 23 3 -5
v 23 4 -5
v 25 4 -5
v 25 35 -5
v 26 1 -5
v 26 4 -5
v 26 35 -5
v 29 1 -5
v 29 35 -5
v 30 1 -5
v 30 35 -5
v 30 36 -5
v 30 39 -5
v 30 40 -5
f -24/1/4 -23/1/4 -20/1/4
f -20/1/4 -23/1/4 -19/1/4
f -20/5/4 -19/5/4 -18/5/4
f -19/1/4 -23/1/4 -18/1/4
f -23/5/4 -22/5/4 -17/5/4
f -18/1/4 -23/1/4 -17/1/4
f -17/5/4 -22/5/4 -16/5/4
f -16/5/4 -22/5/4 -15/5/4
f -20/5/4 -18/5/4 -14/5/4
f -24/1/4 -20/1/4 -14/1/4
f -18/2/4 -17/2/4 -13/2/4
f -14/5/4 -18/5/4 -13/5/4
f -17/2/4 -16/2/4 -13/2/4
f -14/1/4 -13/1/4 -12/1/4
f -13/2/4 -16/2/4 -12/2/4
f -16/3/4 -15/3/4 -11/3/4
f -12/2/4 -16/2/4 -11/2/4
f -14/1/4 -12/1/4 -10/1/4
f -24/1/4 -14/1/4 -10/1/4
f -12/3/4 -11/3/4 -9/3/4
f -10/1/4 -12/1/4 -9/1/4
f -11/3/4 -15/3/4 -8/3/4
f -9/3/4 -11/3/4 -8/3/4
f -10/4/4 -9/4/4 -7/4/4
f -9/4/4 -8/4/4 -7/4/4
f -8/3/4 -15/3/4 -6/3/4
f -7/4/4 -8/4/4 -6/4/4
f -7/1/4 -6/1/4 -5/1/4
f -6/3/4 -15/3/4 -4/3/4
f -5/1/4 -6/1/4 -4/1/4
f -15/5/4 -22/5/4 -3/5/4
f -4/3/4 -15/3/4 -3/3/4
f -22/1/4 -21/1/4 -2/1/4
f -3/5/4 -22/5/4 -2/5/4
f -2/1/4 -21/1/4 -1/1/4
v -30 0 4
v 30 0 4
v -30 0 -4
v 30 0 -4
f -2/1/5 -3/1/5 -4/1/5
f -1/1/5 -3/1/5 -2/1/5
v -30 1 5
v 26 1 5
v 29 1 5
v 30 1 5
v -30 1 4
v 26 1 4
v 29 1 4
v 30 1 4
v -30 1 -4
v 26 1 -4
v 29 1 -4
v 30 1 -4
v -30 1 -5
v 26 1 -5
v 29 1 -5
v 30 1 -5
f -12/1/5 -15/1/5 -16/1/5
f -11/4/5 -14/4/5 -15/4/5
f -11/1/5 -15/1/5 -12/1/5
f -10/1/5 -13/1/5 -14/1/5
f -10/4/5 -14/4/5 -11/4/5
f -9/1/5 -13/1/5 -10/1/5
f -4/1/5 -7/1/5 -8/1/5
f -3/4/5 -6/4/5 -7/4/5
f -3/1/5 -7/1/5 -4/1/5
f -2/1/5 -5/1/5 -6/1/5
f -2/4/5 -6/4/5 -3/4/5
f -1/1/5 -5/1/5 -2/1/5
v -30 40 5
v 30 40 5
v -30 40 -5
v 30 40 -5
f -4/1/6 -3/1/6 -2/1/6
f -2/1/6 -3/1/6 -1/1/6
