# MagicaVoxel @ ephtracy

# material
mtllib Door Left.mtl
usemtl palette

# normals
vn -1 0 0
vn 1 0 0
vn 0 0 1
vn 0 0 -1
vn 0 -1 0
vn 0 1 0

# texcoords
vt 0.974609 0.5
vt 0.978516 0.5
vt 0.982422 0.5

# verts and faces
v -10 0 1.5
v -10 0 -1.5
v -10 27 1.5
v -10 27 -1.5
v -10 29 1.5
v -10 29 -1.5
v -10 31 1.5
v -10 31 -1.5
v -10 33 1.5
v -10 33 0.5
v -10 33 -0.5
v -10 33 -1.5
v -10 35 1.5
v -10 35 0.5
v -10 35 -0.5
v -10 35 -1.5
f -14/1/1 -15/1/1 -16/1/1
f -13/1/1 -15/1/1 -14/1/1
f -12/2/1 -13/2/1 -14/2/1
f -11/2/1 -13/2/1 -12/2/1
f -10/1/1 -11/1/1 -12/1/1
f -9/1/1 -11/1/1 -10/1/1
f -8/2/1 -9/2/1 -10/2/1
f -7/2/1 -9/2/1 -8/2/1
f -6/2/1 -9/2/1 -7/2/1
f -5/2/1 -9/2/1 -6/2/1
f -4/3/1 -7/3/1 -8/3/1
f -3/1/1 -6/1/1 -7/1/1
f -3/3/1 -7/3/1 -4/3/1
f -2/3/1 -5/3/1 -6/3/1
f -2/1/1 -6/1/1 -3/1/1
f -1/3/1 -5/3/1 -2/3/1
v 8 0 1.5
v 8 0 0.5
v 8 0 -0.5
v 8 0 -1.5
v 8 27 1.5
v 8 27 0.5
v 8 27 -0.5
v 8 27 -1.5
v 8 35 1.5
v 8 35 0.5
v 8 35 -0.5
v 8 35 -1.5
f -12/1/2 -11/1/2 -8/1/2
f -8/1/2 -11/1/2 -7/1/2
f -10/1/2 -9/1/2 -6/1/2
f -6/1/2 -9/1/2 -5/1/2
f -8/2/2 -7/2/2 -4/2/2
f -4/2/2 -7/2/2 -3/2/2
f -6/2/2 -5/2/2 -2/2/2
f -2/2/2 -5/2/2 -1/2/2
v 9 15 0.5
v 9 15 -0.5
v 9 16 0.5
v 9 16 -0.5
v 9 17 0.5
v 9 17 -0.5
v 9 18 0.5
v 9 18 -0.5
v 9 19 0.5
v 9 19 -0.5
v 9 35 0.5
v 9 35 -0.5
f -12/2/2 -11/2/2 -10/2/2
f -10/2/2 -11/2/2 -9/2/2
f -8/2/2 -7/2/2 -6/2/2
f -6/2/2 -7/2/2 -5/2/2
f -4/2/2 -3/2/2 -2/2/2
f -2/2/2 -3/2/2 -1/2/2
v 10 0 0.5
v 10 0 -0.5
v 10 15 0.5
v 10 15 -0.5
v 10 16 0.5
v 10 16 -0.5
v 10 17 0.5
v 10 17 -0.5
v 10 18 0.5
v 10 18 -0.5
v 10 19 0.5
v 10 19 -0.5
f -12/2/2 -11/2/2 -10/2/2
f -10/2/2 -11/2/2 -9/2/2
f -8/2/2 -7/2/2 -6/2/2
f -6/2/2 -7/2/2 -5/2/2
f -4/2/2 -3/2/2 -2/2/2
f -2/2/2 -3/2/2 -1/2/2
v -10 0 1.5
v -10 27 1.5
v -10 29 1.5
v -10 31 1.5
v -10 33 1.5
v -10 35 1.5
v 5 29 1.5
v 5 31 1.5
v 5 33 1.5
v 5 35 1.5
v 8 0 1.5
v 8 27 1.5
v 8 35 1.5
f -7/2/3 -11/2/3 -12/2/3
f -7/1/3 -10/1/3 -11/1/3
f -6/2/3 -9/2/3 -10/2/3
f -6/1/3 -10/1/3 -7/1/3
f -5/3/3 -8/3/3 -9/3/3
f -5/2/3 -9/2/3 -6/2/3
f -4/3/3 -8/3/3 -5/3/3
f -3/1/3 -12/1/3 -13/1/3
f -2/2/3 -6/2/3 -7/2/3
f -2/1/3 -12/1/3 -3/1/3
f -2/2/3 -7/2/3 -12/2/3
f -2/2/3 -4/2/3 -5/2/3
f -2/2/3 -5/2/3 -6/2/3
f -1/2/3 -4/2/3 -2/2/3
v 8 0 0.5
v 8 27 0.5
v 8 35 0.5
v 9 15 0.5
v 9 16 0.5
v 9 17 0.5
v 9 18 0.5
v 9 19 0.5
v 9 35 0.5
v 10 0 0.5
v 10 15 0.5
v 10 16 0.5
v 10 17 0.5
v 10 18 0.5
v 10 19 0.5
f -12/2/3 -14/2/3 -15/2/3
f -12/2/3 -13/2/3 -14/2/3
f -11/2/3 -13/2/3 -12/2/3
f -10/2/3 -13/2/3 -11/2/3
f -9/2/3 -13/2/3 -10/2/3
f -8/2/3 -13/2/3 -9/2/3
f -7/2/3 -13/2/3 -8/2/3
f -6/2/3 -12/2/3 -15/2/3
f -5/2/3 -12/2/3 -6/2/3
f -4/2/3 -10/2/3 -11/2/3
f -3/2/3 -10/2/3 -4/2/3
f -2/2/3 -8/2/3 -9/2/3
f -1/2/3 -8/2/3 -2/2/3
v 8 0 -0.5
v 8 27 -0.5
v 8 35 -0.5
v 9 15 -0.5
v 9 16 -0.5
v 9 17 -0.5
v 9 18 -0.5
v 9 19 -0.5
v 9 35 -0.5
v 10 0 -0.5
v 10 15 -0.5
v 10 16 -0.5
v 10 17 -0.5
v 10 18 -0.5
v 10 19 -0.5
f -15/2/4 -14/2/4 -12/2/4
f -14/2/4 -13/2/4 -12/2/4
f -12/2/4 -13/2/4 -11/2/4
f -11/2/4 -13/2/4 -10/2/4
f -10/2/4 -13/2/4 -9/2/4
f -9/2/4 -13/2/4 -8/2/4
f -8/2/4 -13/2/4 -7/2/4
f -15/2/4 -12/2/4 -6/2/4
f -6/2/4 -12/2/4 -5/2/4
f -11/2/4 -10/2/4 -4/2/4
f -4/2/4 -10/2/4 -3/2/4
f -9/2/4 -8/2/4 -2/2/4
f -2/2/4 -8/2/4 -1/2/4
v -10 0 -1.5
v -10 27 -1.5
v -10 29 -1.5
v -10 31 -1.5
v -10 33 -1.5
v -10 35 -1.5
v 5 29 -1.5
v 5 31 -1.5
v 5 33 -1.5
v 5 35 -1.5
v 8 0 -1.5
v 8 27 -1.5
v 8 35 -1.5
f -12/2/4 -11/2/4 -7/2/4
f -11/1/4 -10/1/4 -7/1/4
f -10/2/4 -9/2/4 -6/2/4
f -7/1/4 -10/1/4 -6/1/4
f -9/3/4 -8/3/4 -5/3/4
f -6/2/4 -9/2/4 -5/2/4
f -5/3/4 -8/3/4 -4/3/4
f -13/1/4 -12/1/4 -3/1/4
f -7/2/4 -6/2/4 -2/2/4
f -3/1/4 -12/1/4 -2/1/4
f -12/2/4 -7/2/4 -2/2/4
f -5/2/4 -4/2/4 -2/2/4
f -6/2/4 -5/2/4 -2/2/4
f -2/2/4 -4/2/4 -1/2/4
v -10 0 1.5
v 8 0 1.5
v 8 0 0.5
v 10 0 0.5
v 8 0 -0.5
v 10 0 -0.5
v -10 0 -1.5
v 8 0 -1.5
f -6/1/5 -7/1/5 -8/1/5
f -4/1/5 -6/1/5 -8/1/5
f -4/2/5 -5/2/5 -6/2/5
f -3/2/5 -5/2/5 -4/2/5
f -2/1/5 -4/1/5 -8/1/5
f -1/1/5 -4/1/5 -2/1/5
v 9 16 0.5
v 10 16 0.5
v 9 16 -0.5
v 10 16 -0.5
f -2/2/5 -3/2/5 -4/2/5
f -1/2/5 -3/2/5 -2/2/5
v 9 18 0.5
v 10 18 0.5
v 9 18 -0.5
v 10 18 -0.5
f -2/2/5 -3/2/5 -4/2/5
f -1/2/5 -3/2/5 -2/2/5
v 9 15 0.5
v 10 15 0.5
v 9 15 -0.5
v 10 15 -0.5
f -4/2/6 -3/2/6 -2/2/6
f -2/2/6 -3/2/6 -1/2/6
v 9 17 0.5
v 10 17 0.5
v 9 17 -0.5
v 10 17 -0.5
f -4/2/6 -3/2/6 -2/2/6
f -2/2/6 -3/2/6 -1/2/6
v 9 19 0.5
v 10 19 0.5
v 9 19 -0.5
v 10 19 -0.5
f -4/2/6 -3/2/6 -2/2/6
f -2/2/6 -3/2/6 -1/2/6
v -10 35 1.5
v 5 35 1.5
v 8 35 1.5
v -10 35 0.5
v 5 35 0.5
v 8 35 0.5
v 9 35 0.5
v -10 35 -0.5
v 5 35 -0.5
v 8 35 -0.5
v 9 35 -0.5
v -10 35 -1.5
v 5 35 -1.5
v 8 35 -1.5
f -14/3/6 -13/3/6 -11/3/6
f -13/2/6 -12/2/6 -10/2/6
f -11/3/6 -13/3/6 -10/3/6
f -10/2/6 -12/2/6 -9/2/6
f -11/1/6 -10/1/6 -7/1/6
f -10/1/6 -9/1/6 -7/1/6
f -7/1/6 -9/1/6 -6/1/6
f -9/2/6 -8/2/6 -5/2/6
f -6/1/6 -9/1/6 -5/1/6
f -5/2/6 -8/2/6 -4/2/6
f -7/3/6 -6/3/6 -3/3/6
f -6/2/6 -5/2/6 -2/2/6
f -3/3/6 -6/3/6 -2/3/6
f -2/2/6 -5/2/6 -1/2/6
