# MagicaVoxel @ ephtracy

# material
mtllib Wall Pendant 1.mtl
usemtl palette

# normals
vn -1 0 0
vn 1 0 0
vn 0 0 1
vn 0 0 -1
vn 0 -1 0
vn 0 1 0

# texcoords
vt 0.958984 0.5
vt 0.962891 0.5
vt 0.966797 0.5
vt 0.970703 0.5
vt 0.982422 0.5
vt 0.986328 0.5
vt 0.990234 0.5

# verts and faces
v -5.5 5 1.5
v -5.5 5 -1.5
v -5.5 6 1.5
v -5.5 6 -1.5
f -2/7/1 -3/7/1 -4/7/1
f -1/7/1 -3/7/1 -2/7/1
v -4.5 4 1.5
v -4.5 4 -1.5
v -4.5 5 1.5
v -4.5 5 -1.5
v -4.5 6 1.5
v -4.5 6 -1.5
v -4.5 7 1.5
v -4.5 7 -1.5
f -6/7/1 -7/7/1 -8/7/1
f -5/7/1 -7/7/1 -6/7/1
f -2/7/1 -3/7/1 -4/7/1
f -1/7/1 -3/7/1 -2/7/1
v -3.5 3 1.5
v -3.5 3 -1.5
v -3.5 4 1.5
v -3.5 4 -1.5
v -3.5 7 1.5
v -3.5 7 -1.5
v -3.5 8 1.5
v -3.5 8 -1.5
f -6/7/1 -7/7/1 -8/7/1
f -5/7/1 -7/7/1 -6/7/1
f -2/7/1 -3/7/1 -4/7/1
f -1/7/1 -3/7/1 -2/7/1
v -2.5 2 1.5
v -2.5 2 -1.5
v -2.5 3 1.5
v -2.5 3 -1.5
v -2.5 8 1.5
v -2.5 8 -1.5
v -2.5 9 1.5
v -2.5 9 -1.5
f -6/7/1 -7/7/1 -8/7/1
f -5/7/1 -7/7/1 -6/7/1
f -2/7/1 -3/7/1 -4/7/1
f -1/7/1 -3/7/1 -2/7/1
v -1.5 1 1.5
v -1.5 1 -0.5
v -1.5 2 1.5
v -1.5 2 -0.5
v -1.5 9 1.5
v -1.5 9 -1.5
v -1.5 10 1.5
v -1.5 10 -1.5
v -1.5 29 0.5
v -1.5 29 -0.5
v -1.5 29 -1.5
v -1.5 30 0.5
v -1.5 30 -0.5
v -1.5 30 -1.5
f -12/7/1 -13/7/1 -14/7/1
f -11/7/1 -13/7/1 -12/7/1
f -8/7/1 -9/7/1 -10/7/1
f -7/7/1 -9/7/1 -8/7/1
f -3/6/1 -5/6/1 -6/6/1
f -2/7/1 -4/7/1 -5/7/1
f -2/6/1 -5/6/1 -3/6/1
f -1/7/1 -4/7/1 -2/7/1
v -0.5 0 1.5
v -0.5 0 -0.5
v -0.5 1 1.5
v -0.5 1 -0.5
v -0.5 1 -1.5
v -0.5 2 -0.5
v -0.5 2 -1.5
v -0.5 10 1.5
v -0.5 10 -1.5
v -0.5 11 1.5
v -0.5 11 0.5
v -0.5 11 -0.5
v -0.5 11 -1.5
v -0.5 12 0.5
v -0.5 12 -0.5
v -0.5 13 0.5
v -0.5 13 -0.5
v -0.5 14 0.5
v -0.5 14 -0.5
v -0.5 15 0.5
v -0.5 15 -0.5
v -0.5 16 0.5
v -0.5 16 -0.5
v -0.5 17 0.5
v -0.5 17 -0.5
v -0.5 18 0.5
v -0.5 18 -0.5
v -0.5 19 0.5
v -0.5 19 -0.5
v -0.5 20 0.5
v -0.5 20 -0.5
v -0.5 21 0.5
v -0.5 21 -0.5
v -0.5 22 0.5
v -0.5 22 -0.5
v -0.5 23 0.5
v -0.5 23 -0.5
v -0.5 24 0.5
v -0.5 24 -0.5
v -0.5 25 0.5
v -0.5 25 -0.5
v -0.5 26 0.5
v -0.5 26 -0.5
v -0.5 27 0.5
v -0.5 27 -0.5
v -0.5 28 0.5
v -0.5 28 -0.5
v -0.5 29 1.5
v -0.5 29 0.5
v -0.5 29 -0.5
v -0.5 30 1.5
v -0.5 30 0.5
f -50/7/1 -51/7/1 -52/7/1
f -49/7/1 -51/7/1 -50/7/1
f -47/7/1 -48/7/1 -49/7/1
f -46/7/1 -48/7/1 -47/7/1
f -43/7/1 -44/7/1 -45/7/1
f -42/7/1 -44/7/1 -43/7/1
f -41/7/1 -44/7/1 -42/7/1
f -40/7/1 -44/7/1 -41/7/1
f -39/5/1 -41/5/1 -42/5/1
f -38/5/1 -41/5/1 -39/5/1
f -37/6/1 -38/6/1 -39/6/1
f -36/6/1 -38/6/1 -37/6/1
f -35/5/1 -36/5/1 -37/5/1
f -34/5/1 -36/5/1 -35/5/1
f -33/6/1 -34/6/1 -35/6/1
f -32/6/1 -34/6/1 -33/6/1
f -31/5/1 -32/5/1 -33/5/1
f -30/5/1 -32/5/1 -31/5/1
f -29/6/1 -30/6/1 -31/6/1
f -28/6/1 -30/6/1 -29/6/1
f -27/5/1 -28/5/1 -29/5/1
f -26/5/1 -28/5/1 -27/5/1
f -25/6/1 -26/6/1 -27/6/1
f -24/6/1 -26/6/1 -25/6/1
f -23/5/1 -24/5/1 -25/5/1
f -22/5/1 -24/5/1 -23/5/1
f -21/6/1 -22/6/1 -23/6/1
f -20/6/1 -22/6/1 -21/6/1
f -19/5/1 -20/5/1 -21/5/1
f -18/5/1 -20/5/1 -19/5/1
f -17/6/1 -18/6/1 -19/6/1
f -16/6/1 -18/6/1 -17/6/1
f -15/5/1 -16/5/1 -17/5/1
f -14/5/1 -16/5/1 -15/5/1
f -13/6/1 -14/6/1 -15/6/1
f -12/6/1 -14/6/1 -13/6/1
f -11/5/1 -12/5/1 -13/5/1
f -10/5/1 -12/5/1 -11/5/1
f -9/6/1 -10/6/1 -11/6/1
f -8/6/1 -10/6/1 -9/6/1
f -7/5/1 -8/5/1 -9/5/1
f -6/5/1 -8/5/1 -7/5/1
f -4/6/1 -6/6/1 -7/6/1
f -3/6/1 -6/6/1 -4/6/1
f -2/5/1 -4/5/1 -5/5/1
f -1/5/1 -4/5/1 -2/5/1
v 0.5 2 1.5
v 0.5 2 0.5
v 0.5 3 1.5
v 0.5 3 0.5
v 0.5 8 1.5
v 0.5 8 0.5
v 0.5 9 1.5
v 0.5 9 0.5
f -6/7/1 -7/7/1 -8/7/1
f -5/7/1 -7/7/1 -6/7/1
f -2/7/1 -3/7/1 -4/7/1
f -1/7/1 -3/7/1 -2/7/1
v 1.5 3 1.5
v 1.5 3 0.5
v 1.5 4 1.5
v 1.5 4 0.5
v 1.5 7 1.5
v 1.5 7 0.5
v 1.5 8 1.5
v 1.5 8 0.5
f -6/7/1 -7/7/1 -8/7/1
f -5/7/1 -7/7/1 -6/7/1
f -2/7/1 -3/7/1 -4/7/1
f -1/7/1 -3/7/1 -2/7/1
v 2.5 4 1.5
v 2.5 4 0.5
v 2.5 5 1.5
v 2.5 5 0.5
v 2.5 6 1.5
v 2.5 6 0.5
v 2.5 7 1.5
v 2.5 7 0.5
f -6/7/1 -7/7/1 -8/7/1
f -5/7/1 -7/7/1 -6/7/1
f -2/7/1 -3/7/1 -4/7/1
f -1/7/1 -3/7/1 -2/7/1
v 3.5 5 1.5
v 3.5 5 0.5
v 3.5 6 1.5
v 3.5 6 0.5
f -2/7/1 -3/7/1 -4/7/1
f -1/7/1 -3/7/1 -2/7/1
v -3.5 5 1.5
v -3.5 5 0.5
v -3.5 6 1.5
v -3.5 6 0.5
f -4/7/2 -3/7/2 -2/7/2
f -2/7/2 -3/7/2 -1/7/2
v -2.5 4 1.5
v -2.5 4 0.5
v -2.5 5 1.5
v -2.5 5 0.5
v -2.5 6 1.5
v -2.5 6 0.5
v -2.5 7 1.5
v -2.5 7 0.5
f -8/7/2 -7/7/2 -6/7/2
f -6/7/2 -7/7/2 -5/7/2
f -4/7/2 -3/7/2 -2/7/2
f -2/7/2 -3/7/2 -1/7/2
v -1.5 3 1.5
v -1.5 3 0.5
v -1.5 4 1.5
v -1.5 4 0.5
v -1.5 7 1.5
v -1.5 7 0.5
v -1.5 8 1.5
v -1.5 8 0.5
f -8/7/2 -7/7/2 -6/7/2
f -6/7/2 -7/7/2 -5/7/2
f -4/7/2 -3/7/2 -2/7/2
f -2/7/2 -3/7/2 -1/7/2
v -0.5 2 1.5
v -0.5 2 0.5
v -0.5 3 1.5
v -0.5 3 0.5
v -0.5 8 1.5
v -0.5 8 0.5
v -0.5 9 1.5
v -0.5 9 0.5
f -8/7/2 -7/7/2 -6/7/2
f -6/7/2 -7/7/2 -5/7/2
f -4/7/2 -3/7/2 -2/7/2
f -2/7/2 -3/7/2 -1/7/2
v 0.5 0 1.5
v 0.5 0 -0.5
v 0.5 1 1.5
v 0.5 1 -0.5
v 0.5 1 -1.5
v 0.5 2 -0.5
v 0.5 2 -1.5
v 0.5 10 1.5
v 0.5 10 -1.5
v 0.5 11 1.5
v 0.5 11 0.5
v 0.5 11 -0.5
v 0.5 11 -1.5
v 0.5 12 0.5
v 0.5 12 -0.5
v 0.5 13 0.5
v 0.5 13 -0.5
v 0.5 14 0.5
v 0.5 14 -0.5
v 0.5 15 0.5
v 0.5 15 -0.5
v 0.5 16 0.5
v 0.5 16 -0.5
v 0.5 17 0.5
v 0.5 17 -0.5
v 0.5 18 0.5
v 0.5 18 -0.5
v 0.5 19 0.5
v 0.5 19 -0.5
v 0.5 20 0.5
v 0.5 20 -0.5
v 0.5 21 0.5
v 0.5 21 -0.5
v 0.5 22 0.5
v 0.5 22 -0.5
v 0.5 23 0.5
v 0.5 23 -0.5
v 0.5 24 0.5
v 0.5 24 -0.5
v 0.5 25 0.5
v 0.5 25 -0.5
v 0.5 26 0.5
v 0.5 26 -0.5
v 0.5 27 0.5
v 0.5 27 -0.5
v 0.5 28 0.5
v 0.5 28 -0.5
v 0.5 29 1.5
v 0.5 29 0.5
v 0.5 29 -0.5
v 0.5 30 1.5
v 0.5 30 0.5
f -52/7/2 -51/7/2 -50/7/2
f -50/7/2 -51/7/2 -49/7/2
f -49/7/2 -48/7/2 -47/7/2
f -47/7/2 -48/7/2 -46/7/2
f -45/7/2 -44/7/2 -43/7/2
f -43/7/2 -44/7/2 -42/7/2
f -42/7/2 -44/7/2 -41/7/2
f -41/7/2 -44/7/2 -40/7/2
f -42/5/2 -41/5/2 -39/5/2
f -39/5/2 -41/5/2 -38/5/2
f -39/6/2 -38/6/2 -37/6/2
f -37/6/2 -38/6/2 -36/6/2
f -37/5/2 -36/5/2 -35/5/2
f -35/5/2 -36/5/2 -34/5/2
f -35/6/2 -34/6/2 -33/6/2
f -33/6/2 -34/6/2 -32/6/2
f -33/5/2 -32/5/2 -31/5/2
f -31/5/2 -32/5/2 -30/5/2
f -31/6/2 -30/6/2 -29/6/2
f -29/6/2 -30/6/2 -28/6/2
f -29/5/2 -28/5/2 -27/5/2
f -27/5/2 -28/5/2 -26/5/2
f -27/6/2 -26/6/2 -25/6/2
f -25/6/2 -26/6/2 -24/6/2
f -25/5/2 -24/5/2 -23/5/2
f -23/5/2 -24/5/2 -22/5/2
f -23/6/2 -22/6/2 -21/6/2
f -21/6/2 -22/6/2 -20/6/2
f -21/5/2 -20/5/2 -19/5/2
f -19/5/2 -20/5/2 -18/5/2
f -19/6/2 -18/6/2 -17/6/2
f -17/6/2 -18/6/2 -16/6/2
f -17/5/2 -16/5/2 -15/5/2
f -15/5/2 -16/5/2 -14/5/2
f -15/6/2 -14/6/2 -13/6/2
f -13/6/2 -14/6/2 -12/6/2
f -13/5/2 -12/5/2 -11/5/2
f -11/5/2 -12/5/2 -10/5/2
f -11/6/2 -10/6/2 -9/6/2
f -9/6/2 -10/6/2 -8/6/2
f -9/5/2 -8/5/2 -7/5/2
f -7/5/2 -8/5/2 -6/5/2
f -7/6/2 -6/6/2 -4/6/2
f -4/6/2 -6/6/2 -3/6/2
f -5/5/2 -4/5/2 -2/5/2
f -2/5/2 -4/5/2 -1/5/2
v 1.5 1 1.5
v 1.5 1 -0.5
v 1.5 2 1.5
v 1.5 2 -0.5
v 1.5 9 1.5
v 1.5 9 -1.5
v 1.5 10 1.5
v 1.5 10 -1.5
v 1.5 29 0.5
v 1.5 29 -0.5
v 1.5 29 -1.5
v 1.5 30 0.5
v 1.5 30 -0.5
v 1.5 30 -1.5
f -14/7/2 -13/7/2 -12/7/2
f -12/7/2 -13/7/2 -11/7/2
f -10/7/2 -9/7/2 -8/7/2
f -8/7/2 -9/7/2 -7/7/2
f -6/6/2 -5/6/2 -3/6/2
f -5/7/2 -4/7/2 -2/7/2
f -3/6/2 -5/6/2 -2/6/2
f -2/7/2 -4/7/2 -1/7/2
v 2.5 2 1.5
v 2.5 2 -1.5
v 2.5 3 1.5
v 2.5 3 -1.5
v 2.5 8 1.5
v 2.5 8 -1.5
v 2.5 9 1.5
v 2.5 9 -1.5
f -8/7/2 -7/7/2 -6/7/2
f -6/7/2 -7/7/2 -5/7/2
f -4/7/2 -3/7/2 -2/7/2
f -2/7/2 -3/7/2 -1/7/2
v 3.5 3 1.5
v 3.5 3 -1.5
v 3.5 4 1.5
v 3.5 4 -1.5
v 3.5 7 1.5
v 3.5 7 -1.5
v 3.5 8 1.5
v 3.5 8 -1.5
f -8/7/2 -7/7/2 -6/7/2
f -6/7/2 -7/7/2 -5/7/2
f -4/7/2 -3/7/2 -2/7/2
f -2/7/2 -3/7/2 -1/7/2
v 4.5 4 1.5
v 4.5 4 -1.5
v 4.5 5 1.5
v 4.5 5 -1.5
v 4.5 6 1.5
v 4.5 6 -1.5
v 4.5 7 1.5
v 4.5 7 -1.5
f -8/7/2 -7/7/2 -6/7/2
f -6/7/2 -7/7/2 -5/7/2
f -4/7/2 -3/7/2 -2/7/2
f -2/7/2 -3/7/2 -1/7/2
v 5.5 5 1.5
v 5.5 5 -1.5
v 5.5 6 1.5
v 5.5 6 -1.5
f -4/7/2 -3/7/2 -2/7/2
f -2/7/2 -3/7/2 -1/7/2
v -5.5 5 1.5
v -5.5 6 1.5
v -4.5 4 1.5
v -4.5 5 1.5
v -4.5 6 1.5
v -4.5 7 1.5
v -3.5 3 1.5
v -3.5 4 1.5
v -3.5 5 1.5
v -3.5 6 1.5
v -3.5 7 1.5
v -3.5 8 1.5
v -2.5 2 1.5
v -2.5 3 1.5
v -2.5 4 1.5
v -2.5 5 1.5
v -2.5 6 1.5
v -2.5 7 1.5
v -2.5 8 1.5
v -2.5 9 1.5
v -1.5 1 1.5
v -1.5 2 1.5
v -1.5 3 1.5
v -1.5 4 1.5
v -1.5 7 1.5
v -1.5 8 1.5
v -1.5 9 1.5
v -1.5 10 1.5
v -0.5 0 1.5
v -0.5 1 1.5
v -0.5 2 1.5
v -0.5 3 1.5
v -0.5 8 1.5
v -0.5 9 1.5
v -0.5 10 1.5
v -0.5 11 1.5
v -0.5 29 1.5
v -0.5 30 1.5
v 0.5 0 1.5
v 0.5 1 1.5
v 0.5 2 1.5
v 0.5 3 1.5
v 0.5 8 1.5
v 0.5 9 1.5
v 0.5 10 1.5
v 0.5 11 1.5
v 0.5 29 1.5
v 0.5 30 1.5
v 1.5 1 1.5
v 1.5 2 1.5
v 1.5 3 1.5
v 1.5 4 1.5
v 1.5 7 1.5
v 1.5 8 1.5
v 1.5 9 1.5
v 1.5 10 1.5
v 2.5 2 1.5
v 2.5 3 1.5
v 2.5 4 1.5
v 2.5 5 1.5
v 2.5 6 1.5
v 2.5 7 1.5
v 2.5 8 1.5
v 2.5 9 1.5
v 3.5 3 1.5
v 3.5 4 1.5
v 3.5 5 1.5
v 3.5 6 1.5
v 3.5 7 1.5
v 3.5 8 1.5
v 4.5 4 1.5
v 4.5 5 1.5
v 4.5 6 1.5
v 4.5 7 1.5
v 5.5 5 1.5
v 5.5 6 1.5
f -73/7/3 -75/7/3 -76/7/3
f -72/7/3 -75/7/3 -73/7/3
f -69/7/3 -73/7/3 -74/7/3
f -69/7/3 -71/7/3 -72/7/3
f -69/7/3 -72/7/3 -73/7/3
f -68/7/3 -71/7/3 -69/7/3
f -67/7/3 -71/7/3 -68/7/3
f -66/7/3 -71/7/3 -67/7/3
f -63/7/3 -69/7/3 -70/7/3
f -63/7/3 -68/7/3 -69/7/3
f -62/7/3 -68/7/3 -63/7/3
f -61/7/3 -68/7/3 -62/7/3
f -60/7/3 -66/7/3 -67/7/3
f -60/7/3 -65/7/3 -66/7/3
f -59/7/3 -65/7/3 -60/7/3
f -58/7/3 -65/7/3 -59/7/3
f -55/7/3 -62/7/3 -63/7/3
f -55/7/3 -63/7/3 -64/7/3
f -54/7/3 -62/7/3 -55/7/3
f -53/7/3 -62/7/3 -54/7/3
f -52/7/3 -57/7/3 -58/7/3
f -52/7/3 -58/7/3 -59/7/3
f -51/7/3 -57/7/3 -52/7/3
f -50/7/3 -57/7/3 -51/7/3
f -47/7/3 -54/7/3 -55/7/3
f -47/7/3 -55/7/3 -56/7/3
f -46/7/3 -54/7/3 -47/7/3
f -45/7/3 -54/7/3 -46/7/3
f -44/7/3 -49/7/3 -50/7/3
f -44/7/3 -50/7/3 -51/7/3
f -43/7/3 -49/7/3 -44/7/3
f -42/7/3 -49/7/3 -43/7/3
f -38/7/3 -46/7/3 -47/7/3
f -38/7/3 -47/7/3 -48/7/3
f -37/7/3 -46/7/3 -38/7/3
f -36/7/3 -46/7/3 -37/7/3
f -33/7/3 -41/7/3 -42/7/3
f -33/7/3 -42/7/3 -43/7/3
f -32/7/3 -41/7/3 -33/7/3
f -31/7/3 -41/7/3 -32/7/3
f -30/5/3 -39/5/3 -40/5/3
f -29/5/3 -39/5/3 -30/5/3
f -28/7/3 -35/7/3 -36/7/3
f -28/7/3 -36/7/3 -37/7/3
f -27/7/3 -35/7/3 -28/7/3
f -26/7/3 -35/7/3 -27/7/3
f -23/7/3 -32/7/3 -33/7/3
f -23/7/3 -33/7/3 -34/7/3
f -22/7/3 -32/7/3 -23/7/3
f -21/7/3 -32/7/3 -22/7/3
f -20/7/3 -25/7/3 -26/7/3
f -20/7/3 -26/7/3 -27/7/3
f -19/7/3 -25/7/3 -20/7/3
f -18/7/3 -25/7/3 -19/7/3
f -15/7/3 -22/7/3 -23/7/3
f -15/7/3 -23/7/3 -24/7/3
f -14/7/3 -22/7/3 -15/7/3
f -13/7/3 -22/7/3 -14/7/3
f -12/7/3 -17/7/3 -18/7/3
f -12/7/3 -18/7/3 -19/7/3
f -11/7/3 -17/7/3 -12/7/3
f -10/7/3 -17/7/3 -11/7/3
f -9/7/3 -14/7/3 -15/7/3
f -9/7/3 -15/7/3 -16/7/3
f -8/7/3 -14/7/3 -9/7/3
f -7/7/3 -14/7/3 -8/7/3
f -6/7/3 -10/7/3 -11/7/3
f -6/7/3 -8/7/3 -9/7/3
f -6/7/3 -9/7/3 -10/7/3
f -5/7/3 -8/7/3 -6/7/3
f -4/7/3 -8/7/3 -5/7/3
f -3/7/3 -8/7/3 -4/7/3
f -2/7/3 -4/7/3 -5/7/3
f -1/7/3 -4/7/3 -2/7/3
v -3.5 5 0.5
v -3.5 6 0.5
v -2.5 4 0.5
v -2.5 5 0.5
v -2.5 6 0.5
v -2.5 7 0.5
v -1.5 3 0.5
v -1.5 4 0.5
v -1.5 5 0.5
v -1.5 6 0.5
v -1.5 7 0.5
v -1.5 8 0.5
v -1.5 29 0.5
v -1.5 30 0.5
v -0.5 2 0.5
v -0.5 3 0.5
v -0.5 4 0.5
v -0.5 5 0.5
v -0.5 6 0.5
v -0.5 7 0.5
v -0.5 8 0.5
v -0.5 9 0.5
v -0.5 11 0.5
v -0.5 12 0.5
v -0.5 13 0.5
v -0.5 14 0.5
v -0.5 15 0.5
v -0.5 16 0.5
v -0.5 17 0.5
v -0.5 18 0.5
v -0.5 19 0.5
v -0.5 20 0.5
v -0.5 21 0.5
v -0.5 22 0.5
v -0.5 23 0.5
v -0.5 24 0.5
v -0.5 25 0.5
v -0.5 26 0.5
v -0.5 27 0.5
v -0.5 28 0.5
v -0.5 29 0.5
v -0.5 30 0.5
v 0.5 2 0.5
v 0.5 3 0.5
v 0.5 4 0.5
v 0.5 6 0.5
v 0.5 7 0.5
v 0.5 8 0.5
v 0.5 9 0.5
v 0.5 11 0.5
v 0.5 12 0.5
v 0.5 13 0.5
v 0.5 14 0.5
v 0.5 15 0.5
v 0.5 16 0.5
v 0.5 17 0.5
v 0.5 18 0.5
v 0.5 19 0.5
v 0.5 20 0.5
v 0.5 21 0.5
v 0.5 22 0.5
v 0.5 23 0.5
v 0.5 24 0.5
v 0.5 25 0.5
v 0.5 26 0.5
v 0.5 27 0.5
v 0.5 28 0.5
v 0.5 29 0.5
v 0.5 30 0.5
v 1.5 3 0.5
v 1.5 4 0.5
v 1.5 5 0.5
v 1.5 6 0.5
v 1.5 7 0.5
v 1.5 8 0.5
v 1.5 29 0.5
v 1.5 30 0.5
v 2.5 4 0.5
v 2.5 5 0.5
v 2.5 6 0.5
v 2.5 7 0.5
v 3.5 5 0.5
v 3.5 6 0.5
f -80/4/3 -82/4/3 -83/4/3
f -79/4/3 -82/4/3 -80/4/3
f -76/4/3 -80/4/3 -81/4/3
f -75/3/3 -79/3/3 -80/3/3
f -75/4/3 -80/4/3 -76/4/3
f -74/4/3 -78/4/3 -79/4/3
f -74/3/3 -79/3/3 -75/3/3
f -73/4/3 -78/4/3 -74/4/3
f -68/4/3 -76/4/3 -77/4/3
f -67/1/3 -75/1/3 -76/1/3
f -67/4/3 -76/4/3 -68/4/3
f -66/2/3 -74/2/3 -75/2/3
f -66/1/3 -75/1/3 -67/1/3
f -65/3/3 -73/3/3 -74/3/3
f -65/2/3 -74/2/3 -66/2/3
f -64/4/3 -72/4/3 -73/4/3
f -64/3/3 -73/3/3 -65/3/3
f -63/4/3 -72/4/3 -64/4/3
f -43/6/3 -70/6/3 -71/6/3
f -42/6/3 -70/6/3 -43/6/3
f -41/4/3 -68/4/3 -69/4/3
f -40/3/3 -67/3/3 -68/3/3
f -40/4/3 -68/4/3 -41/4/3
f -39/2/3 -66/2/3 -67/2/3
f -39/3/3 -67/3/3 -40/3/3
f -39/2/3 -65/2/3 -66/2/3
f -38/1/3 -64/1/3 -65/1/3
f -38/2/3 -65/2/3 -39/2/3
f -37/3/3 -63/3/3 -64/3/3
f -37/1/3 -64/1/3 -38/1/3
f -36/4/3 -62/4/3 -63/4/3
f -36/3/3 -63/3/3 -37/3/3
f -35/4/3 -62/4/3 -36/4/3
f -34/5/3 -60/5/3 -61/5/3
f -33/6/3 -59/6/3 -60/6/3
f -33/5/3 -60/5/3 -34/5/3
f -32/5/3 -58/5/3 -59/5/3
f -32/6/3 -59/6/3 -33/6/3
f -31/6/3 -57/6/3 -58/6/3
f -31/5/3 -58/5/3 -32/5/3
f -30/5/3 -56/5/3 -57/5/3
f -30/6/3 -57/6/3 -31/6/3
f -29/6/3 -55/6/3 -56/6/3
f -29/5/3 -56/5/3 -30/5/3
f -28/5/3 -54/5/3 -55/5/3
f -28/6/3 -55/6/3 -29/6/3
f -27/6/3 -53/6/3 -54/6/3
f -27/5/3 -54/5/3 -28/5/3
f -26/5/3 -52/5/3 -53/5/3
f -26/6/3 -53/6/3 -27/6/3
f -25/6/3 -51/6/3 -52/6/3
f -25/5/3 -52/5/3 -26/5/3
f -24/5/3 -50/5/3 -51/5/3
f -24/6/3 -51/6/3 -25/6/3
f -23/6/3 -49/6/3 -50/6/3
f -23/5/3 -50/5/3 -24/5/3
f -22/5/3 -48/5/3 -49/5/3
f -22/6/3 -49/6/3 -23/6/3
f -21/6/3 -47/6/3 -48/6/3
f -21/5/3 -48/5/3 -22/5/3
f -20/5/3 -46/5/3 -47/5/3
f -20/6/3 -47/6/3 -21/6/3
f -19/6/3 -45/6/3 -46/6/3
f -19/5/3 -46/5/3 -20/5/3
f -18/5/3 -44/5/3 -45/5/3
f -18/6/3 -45/6/3 -19/6/3
f -17/6/3 -43/6/3 -44/6/3
f -17/5/3 -44/5/3 -18/5/3
f -16/6/3 -43/6/3 -17/6/3
f -14/4/3 -39/4/3 -40/4/3
f -13/3/3 -38/3/3 -39/3/3
f -13/4/3 -39/4/3 -14/4/3
f -12/3/3 -38/3/3 -13/3/3
f -11/2/3 -37/2/3 -38/2/3
f -11/3/3 -38/3/3 -12/3/3
f -10/4/3 -36/4/3 -37/4/3
f -10/2/3 -37/2/3 -11/2/3
f -9/4/3 -36/4/3 -10/4/3
f -8/6/3 -15/6/3 -16/6/3
f -7/6/3 -15/6/3 -8/6/3
f -6/4/3 -12/4/3 -13/4/3
f -5/3/3 -11/3/3 -12/3/3
f -5/4/3 -12/4/3 -6/4/3
f -4/4/3 -10/4/3 -11/4/3
f -4/3/3 -11/3/3 -5/3/3
f -3/4/3 -10/4/3 -4/4/3
f -2/4/3 -4/4/3 -5/4/3
f -1/4/3 -4/4/3 -2/4/3
v -1.5 1 -0.5
v -1.5 2 -0.5
v -0.5 0 -0.5
v -0.5 1 -0.5
v -0.5 2 -0.5
v -0.5 11 -0.5
v -0.5 12 -0.5
v -0.5 13 -0.5
v -0.5 14 -0.5
v -0.5 15 -0.5
v -0.5 16 -0.5
v -0.5 17 -0.5
v -0.5 18 -0.5
v -0.5 19 -0.5
v -0.5 20 -0.5
v -0.5 21 -0.5
v -0.5 22 -0.5
v -0.5 23 -0.5
v -0.5 24 -0.5
v -0.5 25 -0.5
v -0.5 26 -0.5
v -0.5 27 -0.5
v -0.5 28 -0.5
v -0.5 29 -0.5
v 0.5 0 -0.5
v 0.5 1 -0.5
v 0.5 2 -0.5
v 0.5 11 -0.5
v 0.5 12 -0.5
v 0.5 13 -0.5
v 0.5 14 -0.5
v 0.5 15 -0.5
v 0.5 16 -0.5
v 0.5 17 -0.5
v 0.5 18 -0.5
v 0.5 19 -0.5
v 0.5 20 -0.5
v 0.5 21 -0.5
v 0.5 22 -0.5
v 0.5 23 -0.5
v 0.5 24 -0.5
v 0.5 25 -0.5
v 0.5 26 -0.5
v 0.5 27 -0.5
v 0.5 28 -0.5
v 0.5 29 -0.5
v 1.5 1 -0.5
v 1.5 2 -0.5
f -48/7/4 -47/7/4 -45/7/4
f -45/7/4 -47/7/4 -44/7/4
f -46/7/4 -45/7/4 -24/7/4
f -24/7/4 -45/7/4 -23/7/4
f -43/5/4 -42/5/4 -21/5/4
f -42/6/4 -41/6/4 -20/6/4
f -21/5/4 -42/5/4 -20/5/4
f -41/5/4 -40/5/4 -19/5/4
f -20/6/4 -41/6/4 -19/6/4
f -40/6/4 -39/6/4 -18/6/4
f -19/5/4 -40/5/4 -18/5/4
f -39/5/4 -38/5/4 -17/5/4
f -18/6/4 -39/6/4 -17/6/4
f -38/6/4 -37/6/4 -16/6/4
f -17/5/4 -38/5/4 -16/5/4
f -37/5/4 -36/5/4 -15/5/4
f -16/6/4 -37/6/4 -15/6/4
f -36/6/4 -35/6/4 -14/6/4
f -15/5/4 -36/5/4 -14/5/4
f -35/5/4 -34/5/4 -13/5/4
f -14/6/4 -35/6/4 -13/6/4
f -34/6/4 -33/6/4 -12/6/4
f -13/5/4 -34/5/4 -12/5/4
f -33/5/4 -32/5/4 -11/5/4
f -12/6/4 -33/6/4 -11/6/4
f -32/6/4 -31/6/4 -10/6/4
f -11/5/4 -32/5/4 -10/5/4
f -31/5/4 -30/5/4 -9/5/4
f -10/6/4 -31/6/4 -9/6/4
f -30/6/4 -29/6/4 -8/6/4
f -9/5/4 -30/5/4 -8/5/4
f -29/5/4 -28/5/4 -7/5/4
f -8/6/4 -29/6/4 -7/6/4
f -28/6/4 -27/6/4 -6/6/4
f -7/5/4 -28/5/4 -6/5/4
f -27/5/4 -26/5/4 -5/5/4
f -6/6/4 -27/6/4 -5/6/4
f -26/6/4 -25/6/4 -4/6/4
f -5/5/4 -26/5/4 -4/5/4
f -4/6/4 -25/6/4 -3/6/4
f -23/7/4 -22/7/4 -2/7/4
f -2/7/4 -22/7/4 -1/7/4
v -5.5 5 -1.5
v -5.5 6 -1.5
v -4.5 4 -1.5
v -4.5 5 -1.5
v -4.5 6 -1.5
v -4.5 7 -1.5
v -3.5 3 -1.5
v -3.5 4 -1.5
v -3.5 7 -1.5
v -3.5 8 -1.5
v -2.5 2 -1.5
v -2.5 3 -1.5
v -2.5 8 -1.5
v -2.5 9 -1.5
v -1.5 9 -1.5
v -1.5 10 -1.5
v -1.5 29 -1.5
v -1.5 30 -1.5
v -0.5 1 -1.5
v -0.5 2 -1.5
v -0.5 10 -1.5
v -0.5 11 -1.5
v 0.5 1 -1.5
v 0.5 2 -1.5
v 0.5 10 -1.5
v 0.5 11 -1.5
v 1.5 9 -1.5
v 1.5 10 -1.5
v 1.5 29 -1.5
v 1.5 30 -1.5
v 2.5 2 -1.5
v 2.5 3 -1.5
v 2.5 8 -1.5
v 2.5 9 -1.5
v 3.5 3 -1.5
v 3.5 4 -1.5
v 3.5 7 -1.5
v 3.5 8 -1.5
v 4.5 4 -1.5
v 4.5 5 -1.5
v 4.5 6 -1.5
v 4.5 7 -1.5
v 5.5 5 -1.5
v 5.5 6 -1.5
f -44/7/4 -43/7/4 -41/7/4
f -41/7/4 -43/7/4 -40/7/4
f -42/7/4 -41/7/4 -37/7/4
f -40/7/4 -39/7/4 -37/7/4
f -41/7/4 -40/7/4 -37/7/4
f -37/7/4 -39/7/4 -36/7/4
f -38/7/4 -37/7/4 -33/7/4
f -36/7/4 -35/7/4 -33/7/4
f -37/7/4 -36/7/4 -33/7/4
f -33/7/4 -35/7/4 -32/7/4
f -34/7/4 -33/7/4 -30/7/4
f -32/7/4 -31/7/4 -30/7/4
f -33/7/4 -32/7/4 -30/7/4
f -34/7/4 -30/7/4 -25/7/4
f -30/7/4 -29/7/4 -25/7/4
f -25/7/4 -29/7/4 -24/7/4
f -26/7/4 -25/7/4 -22/7/4
f -24/7/4 -23/7/4 -22/7/4
f -25/7/4 -24/7/4 -22/7/4
f -22/7/4 -23/7/4 -21/7/4
f -21/7/4 -23/7/4 -20/7/4
f -20/7/4 -23/7/4 -19/7/4
f -21/7/4 -20/7/4 -18/7/4
f -18/7/4 -20/7/4 -17/7/4
f -28/7/4 -27/7/4 -16/7/4
f -16/7/4 -27/7/4 -15/7/4
f -21/7/4 -18/7/4 -14/7/4
f -14/7/4 -18/7/4 -13/7/4
f -13/7/4 -18/7/4 -12/7/4
f -12/7/4 -18/7/4 -11/7/4
f -13/7/4 -12/7/4 -10/7/4
f -10/7/4 -12/7/4 -9/7/4
f -9/7/4 -12/7/4 -8/7/4
f -8/7/4 -12/7/4 -7/7/4
f -9/7/4 -8/7/4 -6/7/4
f -6/7/4 -8/7/4 -5/7/4
f -5/7/4 -8/7/4 -4/7/4
f -4/7/4 -8/7/4 -3/7/4
f -5/7/4 -4/7/4 -2/7/4
f -2/7/4 -4/7/4 -1/7/4
v -0.5 0 1.5
v 0.5 0 1.5
v -0.5 0 -0.5
v 0.5 0 -0.5
f -2/7/5 -3/7/5 -4/7/5
f -1/7/5 -3/7/5 -2/7/5
v -1.5 1 1.5
v -0.5 1 1.5
v 0.5 1 1.5
v 1.5 1 1.5
v -1.5 1 -0.5
v -0.5 1 -0.5
v 0.5 1 -0.5
v 1.5 1 -0.5
v -0.5 1 -1.5
v 0.5 1 -1.5
f -6/7/5 -9/7/5 -10/7/5
f -5/7/5 -9/7/5 -6/7/5
f -4/7/5 -7/7/5 -8/7/5
f -3/7/5 -7/7/5 -4/7/5
f -2/7/5 -4/7/5 -5/7/5
f -1/7/5 -4/7/5 -2/7/5
v -2.5 2 1.5
v -1.5 2 1.5
v 1.5 2 1.5
v 2.5 2 1.5
v -1.5 2 -0.5
v -0.5 2 -0.5
v 0.5 2 -0.5
v 1.5 2 -0.5
v -2.5 2 -1.5
v -0.5 2 -1.5
v 0.5 2 -1.5
v 2.5 2 -1.5
f -8/7/5 -11/7/5 -12/7/5
f -5/7/5 -9/7/5 -10/7/5
f -4/7/5 -7/7/5 -8/7/5
f -4/7/5 -8/7/5 -12/7/5
f -3/7/5 -7/7/5 -4/7/5
f -2/7/5 -5/7/5 -6/7/5
f -1/7/5 -9/7/5 -5/7/5
f -1/7/5 -5/7/5 -2/7/5
v -3.5 3 1.5
v -2.5 3 1.5
v 2.5 3 1.5
v 3.5 3 1.5
v -3.5 3 -1.5
v -2.5 3 -1.5
v 2.5 3 -1.5
v 3.5 3 -1.5
f -4/7/5 -7/7/5 -8/7/5
f -3/7/5 -7/7/5 -4/7/5
f -2/7/5 -5/7/5 -6/7/5
f -1/7/5 -5/7/5 -2/7/5
v -4.5 4 1.5
v -3.5 4 1.5
v 3.5 4 1.5
v 4.5 4 1.5
v -4.5 4 -1.5
v -3.5 4 -1.5
v 3.5 4 -1.5
v 4.5 4 -1.5
f -4/7/5 -7/7/5 -8/7/5
f -3/7/5 -7/7/5 -4/7/5
f -2/7/5 -5/7/5 -6/7/5
f -1/7/5 -5/7/5 -2/7/5
v -5.5 5 1.5
v -4.5 5 1.5
v 4.5 5 1.5
v 5.5 5 1.5
v -5.5 5 -1.5
v -4.5 5 -1.5
v 4.5 5 -1.5
v 5.5 5 -1.5
f -4/7/5 -7/7/5 -8/7/5
f -3/7/5 -7/7/5 -4/7/5
f -2/7/5 -5/7/5 -6/7/5
f -1/7/5 -5/7/5 -2/7/5
v -3.5 6 1.5
v -2.5 6 1.5
v 2.5 6 1.5
v 3.5 6 1.5
v -3.5 6 0.5
v -2.5 6 0.5
v 2.5 6 0.5
v 3.5 6 0.5
f -4/7/5 -7/7/5 -8/7/5
f -3/7/5 -7/7/5 -4/7/5
f -2/7/5 -5/7/5 -6/7/5
f -1/7/5 -5/7/5 -2/7/5
v -2.5 7 1.5
v -1.5 7 1.5
v 1.5 7 1.5
v 2.5 7 1.5
v -2.5 7 0.5
v -1.5 7 0.5
v 1.5 7 0.5
v 2.5 7 0.5
f -4/7/5 -7/7/5 -8/7/5
f -3/7/5 -7/7/5 -4/7/5
f -2/7/5 -5/7/5 -6/7/5
f -1/7/5 -5/7/5 -2/7/5
v -1.5 8 1.5
v -0.5 8 1.5
v 0.5 8 1.5
v 1.5 8 1.5
v -1.5 8 0.5
v -0.5 8 0.5
v 0.5 8 0.5
v 1.5 8 0.5
f -4/7/5 -7/7/5 -8/7/5
f -3/7/5 -7/7/5 -4/7/5
f -2/7/5 -5/7/5 -6/7/5
f -1/7/5 -5/7/5 -2/7/5
v -0.5 9 1.5
v 0.5 9 1.5
v -0.5 9 0.5
v 0.5 9 0.5
f -2/7/5 -3/7/5 -4/7/5
f -1/7/5 -3/7/5 -2/7/5
v -0.5 29 1.5
v 0.5 29 1.5
v -1.5 29 0.5
v -0.5 29 0.5
v 0.5 29 0.5
v 1.5 29 0.5
v -1.5 29 -0.5
v -0.5 29 -0.5
v 0.5 29 -0.5
v 1.5 29 -0.5
v -1.5 29 -1.5
v 1.5 29 -1.5
f -9/5/5 -11/5/5 -12/5/5
f -8/5/5 -11/5/5 -9/5/5
f -6/6/5 -9/6/5 -10/6/5
f -5/6/5 -9/6/5 -6/6/5
f -4/6/5 -7/6/5 -8/6/5
f -3/6/5 -7/6/5 -4/6/5
f -2/7/5 -5/7/5 -6/7/5
f -2/7/5 -4/7/5 -5/7/5
f -2/7/5 -3/7/5 -4/7/5
f -1/7/5 -3/7/5 -2/7/5
v -0.5 2 1.5
v 0.5 2 1.5
v -0.5 2 0.5
v 0.5 2 0.5
f -4/7/6 -3/7/6 -2/7/6
f -2/7/6 -3/7/6 -1/7/6
v -1.5 3 1.5
v -0.5 3 1.5
v 0.5 3 1.5
v 1.5 3 1.5
v -1.5 3 0.5
v -0.5 3 0.5
v 0.5 3 0.5
v 1.5 3 0.5
f -8/7/6 -7/7/6 -4/7/6
f -4/7/6 -7/7/6 -3/7/6
f -6/7/6 -5/7/6 -2/7/6
f -2/7/6 -5/7/6 -1/7/6
v -2.5 4 1.5
v -1.5 4 1.5
v 1.5 4 1.5
v 2.5 4 1.5
v -2.5 4 0.5
v -1.5 4 0.5
v 1.5 4 0.5
v 2.5 4 0.5
f -8/7/6 -7/7/6 -4/7/6
f -4/7/6 -7/7/6 -3/7/6
f -6/7/6 -5/7/6 -2/7/6
f -2/7/6 -5/7/6 -1/7/6
v -3.5 5 1.5
v -2.5 5 1.5
v 2.5 5 1.5
v 3.5 5 1.5
v -3.5 5 0.5
v -2.5 5 0.5
v 2.5 5 0.5
v 3.5 5 0.5
f -8/7/6 -7/7/6 -4/7/6
f -4/7/6 -7/7/6 -3/7/6
f -6/7/6 -5/7/6 -2/7/6
f -2/7/6 -5/7/6 -1/7/6
v -5.5 6 1.5
v -4.5 6 1.5
v 4.5 6 1.5
v 5.5 6 1.5
v -5.5 6 -1.5
v -4.5 6 -1.5
v 4.5 6 -1.5
v 5.5 6 -1.5
f -8/7/6 -7/7/6 -4/7/6
f -4/7/6 -7/7/6 -3/7/6
f -6/7/6 -5/7/6 -2/7/6
f -2/7/6 -5/7/6 -1/7/6
v -4.5 7 1.5
v -3.5 7 1.5
v 3.5 7 1.5
v 4.5 7 1.5
v -4.5 7 -1.5
v -3.5 7 -1.5
v 3.5 7 -1.5
v 4.5 7 -1.5
f -8/7/6 -7/7/6 -4/7/6
f -4/7/6 -7/7/6 -3/7/6
f -6/7/6 -5/7/6 -2/7/6
f -2/7/6 -5/7/6 -1/7/6
v -3.5 8 1.5
v -2.5 8 1.5
v 2.5 8 1.5
v 3.5 8 1.5
v -3.5 8 -1.5
v -2.5 8 -1.5
v 2.5 8 -1.5
v 3.5 8 -1.5
f -8/7/6 -7/7/6 -4/7/6
f -4/7/6 -7/7/6 -3/7/6
f -6/7/6 -5/7/6 -2/7/6
f -2/7/6 -5/7/6 -1/7/6
v -2.5 9 1.5
v -1.5 9 1.5
v 1.5 9 1.5
v 2.5 9 1.5
v -2.5 9 -1.5
v -1.5 9 -1.5
v 1.5 9 -1.5
v 2.5 9 -1.5
f -8/7/6 -7/7/6 -4/7/6
f -4/7/6 -7/7/6 -3/7/6
f -6/7/6 -5/7/6 -2/7/6
f -2/7/6 -5/7/6 -1/7/6
v -1.5 10 1.5
v -0.5 10 1.5
v 0.5 10 1.5
v 1.5 10 1.5
v -1.5 10 -1.5
v -0.5 10 -1.5
v 0.5 10 -1.5
v 1.5 10 -1.5
f -8/7/6 -7/7/6 -4/7/6
f -4/7/6 -7/7/6 -3/7/6
f -6/7/6 -5/7/6 -2/7/6
f -2/7/6 -5/7/6 -1/7/6
v -0.5 11 1.5
v 0.5 11 1.5
v -0.5 11 0.5
v 0.5 11 0.5
v -0.5 11 -0.5
v 0.5 11 -0.5
v -0.5 11 -1.5
v 0.5 11 -1.5
f -8/7/6 -7/7/6 -6/7/6
f -6/7/6 -7/7/6 -5/7/6
f -4/7/6 -3/7/6 -2/7/6
f -2/7/6 -3/7/6 -1/7/6
v -0.5 30 1.5
v 0.5 30 1.5
v -1.5 30 0.5
v -0.5 30 0.5
v 0.5 30 0.5
v 1.5 30 0.5
v -1.5 30 -0.5
v -0.5 30 -0.5
v 0.5 30 -0.5
v 1.5 30 -0.5
v -1.5 30 -1.5
v 1.5 30 -1.5
f -12/5/6 -11/5/6 -9/5/6
f -9/5/6 -11/5/6 -8/5/6
f -10/6/6 -9/6/6 -6/6/6
f -9/5/6 -8/5/6 -5/5/6
f -6/6/6 -9/6/6 -5/6/6
f -8/6/6 -7/6/6 -4/6/6
f -5/5/6 -8/5/6 -4/5/6
f -4/6/6 -7/6/6 -3/6/6
f -6/7/6 -5/7/6 -2/7/6
f -5/7/6 -4/7/6 -2/7/6
f -4/7/6 -3/7/6 -2/7/6
f -2/7/6 -3/7/6 -1/7/6
