# MagicaVoxel @ ephtracy

# material
mtllib Future Sink.mtl
usemtl palette

# normals
vn -1 0 0
vn 1 0 0
vn 0 0 1
vn 0 0 -1
vn 0 -1 0
vn 0 1 0

# texcoords
vt 0.283203 0.5
vt 0.337891 0.5
vt 0.478516 0.5
vt 0.958984 0.5
vt 0.966797 0.5
vt 0.990234 0.5

# verts and faces
v -4 1 1
v -4 1 -1
v -4 2 1
v -4 2 -1
f -2/2/1 -3/2/1 -4/2/1
f -1/2/1 -3/2/1 -2/2/1
v -3 0 1
v -3 0 -1
v -3 1 2
v -3 1 1
v -3 1 -1
v -3 1 -2
v -3 2 2
v -3 2 1
v -3 2 -1
v -3 2 -2
v -3 3 4
v -3 3 1
v -3 3 -1
v -3 3 -4
v -3 4 4
v -3 4 -4
f -13/2/1 -15/2/1 -16/2/1
f -12/2/1 -15/2/1 -13/2/1
f -10/2/1 -13/2/1 -14/2/1
f -9/2/1 -13/2/1 -10/2/1
f -8/2/1 -11/2/1 -12/2/1
f -7/2/1 -11/2/1 -8/2/1
f -5/2/1 -8/2/1 -9/2/1
f -4/2/1 -8/2/1 -5/2/1
f -2/4/1 -4/4/1 -5/4/1
f -2/4/1 -3/4/1 -4/4/1
f -2/4/1 -5/4/1 -6/4/1
f -1/4/1 -3/4/1 -2/4/1
v -2 2 3
v -2 2 2
v -2 2 1
v -2 2 -1
v -2 2 -2
v -2 2 -3
v -2 3 3
v -2 3 1
v -2 3 -1
v -2 3 -3
v -2 4 1
v -2 4 -1
v -2 6 1
v -2 6 -1
f -8/4/1 -13/4/1 -14/4/1
f -8/4/1 -12/4/1 -13/4/1
f -7/4/1 -12/4/1 -8/4/1
f -6/4/1 -9/4/1 -10/4/1
f -6/4/1 -10/4/1 -11/4/1
f -5/4/1 -9/4/1 -6/4/1
f -2/5/1 -3/5/1 -4/5/1
f -1/5/1 -3/5/1 -2/5/1
v 0 2 1
v 0 2 -0
v 0 2 -1
v 0 3 1
v 0 3 -0
v 0 3 -1
f -3/3/1 -5/3/1 -6/3/1
f -2/1/1 -4/1/1 -5/1/1
f -2/3/1 -5/3/1 -3/3/1
f -1/1/1 -4/1/1 -2/1/1
v 3 3 3
v 3 3 -3
v 3 4 3
v 3 4 -3
f -2/4/1 -3/4/1 -4/4/1
f -1/4/1 -3/4/1 -2/4/1
v -1 2 1
v -1 2 -1
v -1 3 3
v -1 3 1
v -1 3 -1
v -1 3 -3
v -1 4 3
v -1 4 1
v -1 4 -1
v -1 4 -3
v -1 5 1
v -1 5 -1
f -12/5/2 -11/5/2 -9/5/2
f -9/5/2 -11/5/2 -8/5/2
f -10/4/2 -9/4/2 -6/4/2
f -8/4/2 -7/4/2 -6/4/2
f -9/4/2 -8/4/2 -6/4/2
f -6/4/2 -7/4/2 -5/4/2
f -5/4/2 -7/4/2 -4/4/2
f -4/4/2 -7/4/2 -3/4/2
f -5/5/2 -4/5/2 -2/5/2
f -2/5/2 -4/5/2 -1/5/2
v 0 5 1
v 0 5 -1
v 0 6 1
v 0 6 -1
f -4/5/2 -3/5/2 -2/5/2
f -2/5/2 -3/5/2 -1/5/2
v 1 0 1
v 1 0 -1
v 1 1 1
v 1 1 -1
f -4/2/2 -3/2/2 -2/2/2
f -2/2/2 -3/2/2 -1/2/2
v 3 1 2
v 3 1 -2
v 3 2 3
v 3 2 2
v 3 2 -2
v 3 2 -3
v 3 3 3
v 3 3 -3
f -8/2/2 -7/2/2 -5/2/2
f -5/2/2 -7/2/2 -4/2/2
f -6/4/2 -5/4/2 -2/4/2
f -4/4/2 -3/4/2 -2/4/2
f -5/4/2 -4/4/2 -2/4/2
f -2/4/2 -3/4/2 -1/4/2
v 4 3 4
v 4 3 -4
v 4 4 4
v 4 4 -4
f -4/4/2 -3/4/2 -2/4/2
f -2/4/2 -3/4/2 -1/4/2
v -3 3 4
v -3 4 4
v 4 3 4
v 4 4 4
f -2/4/3 -3/4/3 -4/4/3
f -1/4/3 -3/4/3 -2/4/3
v -2 2 3
v -2 3 3
v 3 2 3
v 3 3 3
f -2/4/3 -3/4/3 -4/4/3
f -1/4/3 -3/4/3 -2/4/3
v -3 1 2
v -3 2 2
v -2 2 2
v 3 1 2
v 3 2 2
f -3/2/3 -4/2/3 -5/2/3
f -2/2/3 -3/2/3 -5/2/3
f -1/2/3 -3/2/3 -2/2/3
v -4 1 1
v -4 2 1
v -3 0 1
v -3 1 1
v -3 2 1
v -3 3 1
v -2 2 1
v -2 3 1
v -2 4 1
v -2 6 1
v -1 4 1
v -1 5 1
v 0 5 1
v 0 6 1
v 1 0 1
v 1 1 1
f -13/2/3 -15/2/3 -16/2/3
f -12/2/3 -15/2/3 -13/2/3
f -10/2/3 -11/2/3 -12/2/3
f -9/2/3 -11/2/3 -10/2/3
f -6/5/3 -7/5/3 -8/5/3
f -5/5/3 -7/5/3 -6/5/3
f -4/5/3 -7/5/3 -5/5/3
f -3/5/3 -7/5/3 -4/5/3
f -2/2/3 -13/2/3 -14/2/3
f -1/2/3 -13/2/3 -2/2/3
v -1 2 -1
v -1 3 -1
v 0 2 -1
v 0 3 -1
f -2/4/3 -3/4/3 -4/4/3
f -1/4/3 -3/4/3 -2/4/3
v -1 3 -3
v -1 4 -3
v 3 3 -3
v 3 4 -3
f -2/4/3 -3/4/3 -4/4/3
f -1/4/3 -3/4/3 -2/4/3
v -1 3 3
v -1 4 3
v 3 3 3
v 3 4 3
f -4/4/4 -3/4/4 -2/4/4
f -2/4/4 -3/4/4 -1/4/4
v -1 2 1
v -1 3 1
v 0 2 1
v 0 3 1
f -4/4/4 -3/4/4 -2/4/4
f -2/4/4 -3/4/4 -1/4/4
v -4 1 -1
v -4 2 -1
v -3 0 -1
v -3 1 -1
v -3 2 -1
v -3 3 -1
v -2 2 -1
v -2 3 -1
v -2 4 -1
v -2 6 -1
v -1 4 -1
v -1 5 -1
v 0 5 -1
v 0 6 -1
v 1 0 -1
v 1 1 -1
f -16/2/4 -15/2/4 -13/2/4
f -13/2/4 -15/2/4 -12/2/4
f -12/2/4 -11/2/4 -10/2/4
f -10/2/4 -11/2/4 -9/2/4
f -8/5/4 -7/5/4 -6/5/4
f -6/5/4 -7/5/4 -5/5/4
f -5/5/4 -7/5/4 -4/5/4
f -4/5/4 -7/5/4 -3/5/4
f -14/2/4 -13/2/4 -2/2/4
f -2/2/4 -13/2/4 -1/2/4
v -3 1 -2
v -3 2 -2
v -2 2 -2
v 3 1 -2
v 3 2 -2
f -5/2/4 -4/2/4 -3/2/4
f -5/2/4 -3/2/4 -2/2/4
f -2/2/4 -3/2/4 -1/2/4
v -2 2 -3
v -2 3 -3
v 3 2 -3
v 3 3 -3
f -4/4/4 -3/4/4 -2/4/4
f -2/4/4 -3/4/4 -1/4/4
v -3 3 -4
v -3 4 -4
v 4 3 -4
v 4 4 -4
f -4/4/4 -3/4/4 -2/4/4
f -2/4/4 -3/4/4 -1/4/4
v -3 0 1
v 1 0 1
v -3 0 -1
v 1 0 -1
f -2/2/5 -3/2/5 -4/2/5
f -1/2/5 -3/2/5 -2/2/5
v -3 1 2
v 3 1 2
v -4 1 1
v -3 1 1
v 1 1 1
v 2 1 1
v -4 1 -1
v -3 1 -1
v 1 1 -1
v 2 1 -1
v -3 1 -2
v 3 1 -2
f -9/2/5 -11/2/5 -12/2/5
f -8/2/5 -11/2/5 -9/2/5
f -7/2/5 -11/2/5 -8/2/5
f -6/2/5 -9/2/5 -10/2/5
f -5/2/5 -9/2/5 -6/2/5
f -4/4/5 -7/4/5 -8/4/5
f -3/2/5 -11/2/5 -7/2/5
f -3/4/5 -7/4/5 -4/4/5
f -2/2/5 -4/2/5 -5/2/5
f -2/2/5 -3/2/5 -4/2/5
f -1/2/5 -11/2/5 -3/2/5
f -1/2/5 -3/2/5 -2/2/5
v -2 2 3
v 3 2 3
v -2 2 2
v 3 2 2
v -2 2 -2
v 3 2 -2
v -2 2 -3
v 3 2 -3
f -6/4/5 -7/4/5 -8/4/5
f -5/4/5 -7/4/5 -6/4/5
f -2/4/5 -3/4/5 -4/4/5
f -1/4/5 -3/4/5 -2/4/5
v -3 3 4
v 4 3 4
v -2 3 3
v 3 3 3
v -3 3 1
v -2 3 1
v -3 3 -1
v -2 3 -1
v -2 3 -3
v 3 3 -3
v -3 3 -4
v 4 3 -4
f -10/4/5 -11/4/5 -12/4/5
f -9/4/5 -11/4/5 -10/4/5
f -8/4/5 -10/4/5 -12/4/5
f -7/4/5 -10/4/5 -8/4/5
f -4/4/5 -5/4/5 -6/4/5
f -3/4/5 -11/4/5 -9/4/5
f -2/4/5 -4/4/5 -6/4/5
f -2/4/5 -3/4/5 -4/4/5
f -1/4/5 -11/4/5 -3/4/5
f -1/4/5 -3/4/5 -2/4/5
v -1 5 1
v 0 5 1
v -1 5 -1
v 0 5 -1
f -2/5/5 -3/5/5 -4/5/5
f -1/5/5 -3/5/5 -2/5/5
v -3 2 2
v -2 2 2
v -4 2 1
v -3 2 1
v -2 2 1
v -1 2 1
v 0 2 1
v 0 2 -0
v -4 2 -1
v -3 2 -1
v -2 2 -1
v -1 2 -1
v 0 2 -1
v -3 2 -2
v -2 2 -2
f -15/2/6 -14/2/6 -12/2/6
f -12/2/6 -14/2/6 -11/2/6
f -10/6/6 -9/6/6 -8/6/6
f -13/2/6 -12/2/6 -7/2/6
f -7/2/6 -12/2/6 -6/2/6
f -10/6/6 -8/6/6 -4/6/6
f -4/6/6 -8/6/6 -3/6/6
f -6/2/6 -5/2/6 -2/2/6
f -2/2/6 -5/2/6 -1/2/6
v -1 3 3
v 3 3 3
v -1 3 1
v 0 3 1
v 1 3 1
v 0 3 -0
v 1 3 -0
v 2 3 -0
v -1 3 -1
v 0 3 -1
v 1 3 -1
v 2 3 -1
v -1 3 -3
v 3 3 -3
f -14/4/6 -13/4/6 -12/4/6
f -12/4/6 -13/4/6 -11/4/6
f -11/4/6 -13/4/6 -10/4/6
f -11/3/6 -10/3/6 -9/3/6
f -10/4/6 -13/4/6 -8/4/6
f -9/3/6 -10/3/6 -8/3/6
f -8/4/6 -13/4/6 -7/4/6
f -9/1/6 -8/1/6 -5/1/6
f -8/3/6 -7/3/6 -4/3/6
f -5/1/6 -8/1/6 -4/1/6
f -7/4/6 -13/4/6 -3/4/6
f -4/3/6 -7/3/6 -3/3/6
f -5/4/6 -4/4/6 -2/4/6
f -6/4/6 -5/4/6 -2/4/6
f -4/4/6 -3/4/6 -2/4/6
f -3/4/6 -13/4/6 -1/4/6
f -2/4/6 -3/4/6 -1/4/6
v -3 4 4
v 4 4 4
v -1 4 3
v 3 4 3
v -2 4 1
v -1 4 1
v -2 4 -1
v -1 4 -1
v -1 4 -3
v 3 4 -3
v -3 4 -4
v 4 4 -4
f -12/4/6 -11/4/6 -10/4/6
f -10/4/6 -11/4/6 -9/4/6
f -12/4/6 -10/4/6 -8/4/6
f -8/4/6 -10/4/6 -7/4/6
f -12/4/6 -8/4/6 -6/4/6
f -6/4/6 -5/4/6 -4/4/6
f -9/4/6 -11/4/6 -3/4/6
f -6/4/6 -4/4/6 -2/4/6
f -4/4/6 -3/4/6 -2/4/6
f -12/4/6 -6/4/6 -2/4/6
f -3/4/6 -11/4/6 -1/4/6
f -2/4/6 -3/4/6 -1/4/6
v -2 6 1
v 0 6 1
v -2 6 -1
v 0 6 -1
f -4/5/6 -3/5/6 -2/5/6
f -2/5/6 -3/5/6 -1/5/6
