# MagicaVoxel @ ephtracy

# material
mtllib Sleep Pod 6.mtl
usemtl palette

# normals
vn -1 0 0
vn 1 0 0
vn 0 0 1
vn 0 0 -1
vn 0 -1 0
vn 0 1 0

# texcoords
vt 0.908203 0.5

# verts and faces
v -3.5 0 14
v -3.5 0 1
v -3.5 1 14
v -3.5 1 1
f -2/1/1 -3/1/1 -4/1/1
f -1/1/1 -3/1/1 -2/1/1
v -2.5 0 -0
v -2.5 0 -19
v -2.5 1 -0
v -2.5 1 -19
f -2/1/1 -3/1/1 -4/1/1
f -1/1/1 -3/1/1 -2/1/1
v -1.5 0 21
v -1.5 0 17
v -1.5 0 -20
v -1.5 0 -21
v -1.5 1 21
v -1.5 1 17
v -1.5 1 -20
v -1.5 1 -21
f -4/1/1 -7/1/1 -8/1/1
f -3/1/1 -7/1/1 -4/1/1
f -2/1/1 -5/1/1 -6/1/1
f -1/1/1 -5/1/1 -2/1/1
v 1.5 0 21
v 1.5 0 17
v 1.5 0 -20
v 1.5 0 -21
v 1.5 1 21
v 1.5 1 17
v 1.5 1 -20
v 1.5 1 -21
f -8/1/2 -7/1/2 -4/1/2
f -4/1/2 -7/1/2 -3/1/2
f -6/1/2 -5/1/2 -2/1/2
f -2/1/2 -5/1/2 -1/1/2
v 2.5 0 -0
v 2.5 0 -19
v 2.5 1 -0
v 2.5 1 -19
f -4/1/2 -3/1/2 -2/1/2
f -2/1/2 -3/1/2 -1/1/2
v 3.5 0 14
v 3.5 0 1
v 3.5 1 14
v 3.5 1 1
f -4/1/2 -3/1/2 -2/1/2
f -2/1/2 -3/1/2 -1/1/2
v -1.5 0 21
v -1.5 1 21
v 1.5 0 21
v 1.5 1 21
f -2/1/3 -3/1/3 -4/1/3
f -1/1/3 -3/1/3 -2/1/3
v -3.5 0 14
v -3.5 1 14
v 3.5 0 14
v 3.5 1 14
f -2/1/3 -3/1/3 -4/1/3
f -1/1/3 -3/1/3 -2/1/3
v -2.5 0 -0
v -2.5 1 -0
v 2.5 0 -0
v 2.5 1 -0
f -2/1/3 -3/1/3 -4/1/3
f -1/1/3 -3/1/3 -2/1/3
v -1.5 0 -20
v -1.5 1 -20
v 1.5 0 -20
v 1.5 1 -20
f -2/1/3 -3/1/3 -4/1/3
f -1/1/3 -3/1/3 -2/1/3
v -1.5 0 17
v -1.5 1 17
v 1.5 0 17
v 1.5 1 17
f -4/1/4 -3/1/4 -2/1/4
f -2/1/4 -3/1/4 -1/1/4
v -3.5 0 1
v -3.5 1 1
v 3.5 0 1
v 3.5 1 1
f -4/1/4 -3/1/4 -2/1/4
f -2/1/4 -3/1/4 -1/1/4
v -2.5 0 -19
v -2.5 1 -19
v 2.5 0 -19
v 2.5 1 -19
f -4/1/4 -3/1/4 -2/1/4
f -2/1/4 -3/1/4 -1/1/4
v -1.5 0 -21
v -1.5 1 -21
v 1.5 0 -21
v 1.5 1 -21
f -4/1/4 -3/1/4 -2/1/4
f -2/1/4 -3/1/4 -1/1/4
v -1.5 0 21
v 1.5 0 21
v -1.5 0 17
v 1.5 0 17
v -3.5 0 14
v 3.5 0 14
v -3.5 0 1
v 3.5 0 1
v -2.5 0 -0
v 2.5 0 -0
v -2.5 0 -19
v 2.5 0 -19
v -1.5 0 -20
v 1.5 0 -20
v -1.5 0 -21
v 1.5 0 -21
f -14/1/5 -15/1/5 -16/1/5
f -13/1/5 -15/1/5 -14/1/5
f -10/1/5 -11/1/5 -12/1/5
f -9/1/5 -11/1/5 -10/1/5
f -6/1/5 -7/1/5 -8/1/5
f -5/1/5 -7/1/5 -6/1/5
f -2/1/5 -3/1/5 -4/1/5
f -1/1/5 -3/1/5 -2/1/5
v -1.5 1 21
v 1.5 1 21
v -1.5 1 17
v 1.5 1 17
v -3.5 1 14
v 3.5 1 14
v -3.5 1 1
v 3.5 1 1
v -2.5 1 -0
v 2.5 1 -0
v -2.5 1 -19
v 2.5 1 -19
v -1.5 1 -20
v 1.5 1 -20
v -1.5 1 -21
v 1.5 1 -21
f -16/1/6 -15/1/6 -14/1/6
f -14/1/6 -15/1/6 -13/1/6
f -12/1/6 -11/1/6 -10/1/6
f -10/1/6 -11/1/6 -9/1/6
f -8/1/6 -7/1/6 -6/1/6
f -6/1/6 -7/1/6 -5/1/6
f -4/1/6 -3/1/6 -2/1/6
f -2/1/6 -3/1/6 -1/1/6
