# MagicaVoxel @ ephtracy

# material
mtllib Conference Table 4.mtl
usemtl palette

# normals
vn -1 0 0
vn 1 0 0
vn 0 0 1
vn 0 0 -1
vn 0 -1 0
vn 0 1 0

# texcoords
vt 0.154297 0.5
vt 0.337891 0.5
vt 0.505859 0.5

# verts and faces
v -22.5 1 22.5
v -22.5 1 20.5
v -22.5 2 22.5
v -22.5 2 20.5
v -22.5 4 22.5
v -22.5 4 20.5
v -22.5 12 20.5
v -22.5 12 -22.5
v -22.5 14 22.5
v -22.5 14 -22.5
f -8/2/1 -9/2/1 -10/2/1
f -7/2/1 -9/2/1 -8/2/1
f -4/2/1 -5/2/1 -6/2/1
f -2/2/1 -4/2/1 -6/2/1
f -2/2/1 -3/2/1 -4/2/1
f -1/2/1 -3/2/1 -2/2/1
v -21.5 0 21.5
v -21.5 0 20.5
v -21.5 1 21.5
v -21.5 1 20.5
v -21.5 2 21.5
v -21.5 2 20.5
v -21.5 4 21.5
v -21.5 4 20.5
f -6/2/1 -7/2/1 -8/2/1
f -5/2/1 -7/2/1 -6/2/1
f -2/1/1 -3/1/1 -4/1/1
f -1/1/1 -3/1/1 -2/1/1
v -16.5 0 -15.5
v -16.5 0 -16.5
v -16.5 12 -15.5
v -16.5 12 -16.5
f -2/2/1 -3/2/1 -4/2/1
f -1/2/1 -3/2/1 -2/2/1
v -9.5 2 22.5
v -9.5 2 21.5
v -9.5 4 22.5
v -9.5 4 21.5
v -9.5 5 22.5
v -9.5 5 20.5
v -9.5 7 22.5
v -9.5 7 20.5
f -6/2/1 -7/2/1 -8/2/1
f -5/2/1 -7/2/1 -6/2/1
f -2/2/1 -3/2/1 -4/2/1
f -1/2/1 -3/2/1 -2/2/1
v 20.5 0 -8.5
v 20.5 0 -21.5
v 20.5 1 -7.5
v 20.5 1 -8.5
v 20.5 1 -21.5
v 20.5 1 -22.5
v 20.5 2 -8.5
v 20.5 2 -21.5
v 20.5 2 -22.5
v 20.5 4 -8.5
v 20.5 4 -21.5
v 20.5 4 -22.5
v 20.5 5 -8.5
v 20.5 5 -21.5
v 20.5 7 -8.5
v 20.5 7 -21.5
v 20.5 12 -7.5
v 20.5 12 -22.5
f -15/2/1 -17/2/1 -18/2/1
f -14/2/1 -17/2/1 -15/2/1
f -12/2/1 -15/2/1 -16/2/1
f -12/2/1 -13/2/1 -14/2/1
f -12/2/1 -14/2/1 -15/2/1
f -11/2/1 -13/2/1 -12/2/1
f -10/2/1 -13/2/1 -11/2/1
f -9/2/1 -12/2/1 -16/2/1
f -9/1/1 -11/1/1 -12/1/1
f -8/1/1 -11/1/1 -9/1/1
f -6/2/1 -9/2/1 -16/2/1
f -6/2/1 -7/2/1 -8/2/1
f -6/2/1 -8/2/1 -9/2/1
f -5/2/1 -7/2/1 -6/2/1
f -4/2/1 -6/2/1 -16/2/1
f -3/2/1 -7/2/1 -5/2/1
f -2/2/1 -4/2/1 -16/2/1
f -2/2/1 -3/2/1 -4/2/1
f -1/2/1 -7/2/1 -3/2/1
f -1/2/1 -3/2/1 -2/2/1
v -21.5 5 22.5
v -21.5 5 20.5
v -21.5 7 22.5
v -21.5 7 20.5
f -4/2/2 -3/2/2 -2/2/2
f -2/2/2 -3/2/2 -1/2/2
v -15.5 0 -15.5
v -15.5 0 -16.5
v -15.5 12 -15.5
v -15.5 12 -16.5
f -4/2/2 -3/2/2 -2/2/2
f -2/2/2 -3/2/2 -1/2/2
v -9.5 0 21.5
v -9.5 0 20.5
v -9.5 1 21.5
v -9.5 1 20.5
f -4/2/2 -3/2/2 -2/2/2
f -2/2/2 -3/2/2 -1/2/2
v -8.5 1 22.5
v -8.5 1 20.5
v -8.5 12 20.5
v -8.5 12 -7.5
v -8.5 14 22.5
v -8.5 14 -7.5
f -6/2/2 -5/2/2 -4/2/2
f -6/2/2 -4/2/2 -2/2/2
f -4/2/2 -3/2/2 -2/2/2
f -2/2/2 -3/2/2 -1/2/2
v 21.5 0 -8.5
v 21.5 0 -21.5
v 21.5 1 -8.5
v 21.5 1 -21.5
v 21.5 2 -8.5
v 21.5 2 -21.5
v 21.5 4 -8.5
v 21.5 4 -21.5
f -8/2/2 -7/2/2 -6/2/2
f -6/2/2 -7/2/2 -5/2/2
f -4/1/2 -3/1/2 -2/1/2
f -2/1/2 -3/1/2 -1/1/2
v 22.5 1 -7.5
v 22.5 1 -22.5
v 22.5 2 -8.5
v 22.5 2 -22.5
v 22.5 4 -8.5
v 22.5 4 -22.5
v 22.5 5 -8.5
v 22.5 5 -21.5
v 22.5 7 -8.5
v 22.5 7 -21.5
v 22.5 14 -7.5
v 22.5 14 -22.5
f -12/2/2 -11/2/2 -10/2/2
f -10/2/2 -11/2/2 -9/2/2
f -12/2/2 -10/2/2 -8/2/2
f -12/2/2 -8/2/2 -6/2/2
f -8/2/2 -7/2/2 -6/2/2
f -6/2/2 -7/2/2 -5/2/2
f -12/2/2 -6/2/2 -4/2/2
f -5/2/2 -7/2/2 -3/2/2
f -12/2/2 -4/2/2 -2/2/2
f -4/2/2 -3/2/2 -2/2/2
f -3/2/2 -7/2/2 -1/2/2
f -2/2/2 -3/2/2 -1/2/2
v -22.5 1 22.5
v -22.5 2 22.5
v -22.5 4 22.5
v -22.5 14 22.5
v -21.5 5 22.5
v -21.5 7 22.5
v -9.5 2 22.5
v -9.5 4 22.5
v -9.5 5 22.5
v -9.5 7 22.5
v -8.5 1 22.5
v -8.5 14 22.5
f -8/2/3 -9/2/3 -10/2/3
f -7/2/3 -9/2/3 -8/2/3
f -6/2/3 -11/2/3 -12/2/3
f -5/2/3 -8/2/3 -10/2/3
f -4/2/3 -8/2/3 -5/2/3
f -3/2/3 -9/2/3 -7/2/3
f -2/2/3 -4/2/3 -5/2/3
f -2/2/3 -3/2/3 -4/2/3
f -2/2/3 -6/2/3 -12/2/3
f -2/2/3 -5/2/3 -6/2/3
f -1/2/3 -9/2/3 -3/2/3
f -1/2/3 -3/2/3 -2/2/3
v -21.5 0 21.5
v -21.5 1 21.5
v -21.5 2 21.5
v -21.5 4 21.5
v -9.5 0 21.5
v -9.5 1 21.5
v -9.5 2 21.5
v -9.5 4 21.5
f -4/2/3 -7/2/3 -8/2/3
f -3/2/3 -7/2/3 -4/2/3
f -2/1/3 -5/1/3 -6/1/3
f -1/1/3 -5/1/3 -2/1/3
v -8.5 12 -7.5
v -8.5 14 -7.5
v 20.5 1 -7.5
v 20.5 12 -7.5
v 22.5 1 -7.5
v 22.5 14 -7.5
f -3/2/3 -5/2/3 -6/2/3
f -2/2/3 -3/2/3 -4/2/3
f -1/2/3 -5/2/3 -3/2/3
f -1/2/3 -3/2/3 -2/2/3
v 20.5 0 -8.5
v 20.5 1 -8.5
v 21.5 0 -8.5
v 21.5 1 -8.5
f -2/2/3 -3/2/3 -4/2/3
f -1/2/3 -3/2/3 -2/2/3
v -16.5 0 -15.5
v -16.5 12 -15.5
v -15.5 0 -15.5
v -15.5 12 -15.5
f -2/2/3 -3/2/3 -4/2/3
f -1/2/3 -3/2/3 -2/2/3
v 20.5 5 -21.5
v 20.5 7 -21.5
v 22.5 5 -21.5
v 22.5 7 -21.5
f -2/2/3 -3/2/3 -4/2/3
f -1/2/3 -3/2/3 -2/2/3
v -22.5 1 20.5
v -22.5 2 20.5
v -22.5 4 20.5
v -22.5 12 20.5
v -21.5 0 20.5
v -21.5 1 20.5
v -21.5 2 20.5
v -21.5 4 20.5
v -21.5 5 20.5
v -21.5 7 20.5
v -9.5 0 20.5
v -9.5 1 20.5
v -9.5 2 20.5
v -9.5 4 20.5
v -9.5 5 20.5
v -9.5 7 20.5
v -8.5 1 20.5
v -8.5 12 20.5
f -18/2/4 -17/2/4 -13/2/4
f -13/2/4 -17/2/4 -12/2/4
f -16/2/4 -15/2/4 -11/2/4
f -11/2/4 -15/2/4 -10/2/4
f -10/2/4 -15/2/4 -9/2/4
f -13/2/4 -12/2/4 -8/2/4
f -14/2/4 -13/2/4 -8/2/4
f -8/2/4 -12/2/4 -7/2/4
f -12/1/4 -11/1/4 -6/1/4
f -7/2/4 -12/2/4 -6/2/4
f -11/2/4 -10/2/4 -5/2/4
f -6/1/4 -11/1/4 -5/1/4
f -5/2/4 -10/2/4 -4/2/4
f -9/2/4 -15/2/4 -3/2/4
f -5/2/4 -4/2/4 -2/2/4
f -4/2/4 -3/2/4 -2/2/4
f -7/2/4 -6/2/4 -2/2/4
f -6/2/4 -5/2/4 -2/2/4
f -3/2/4 -15/2/4 -1/2/4
f -2/2/4 -3/2/4 -1/2/4
v 20.5 5 -8.5
v 20.5 7 -8.5
v 21.5 2 -8.5
v 21.5 4 -8.5
v 22.5 2 -8.5
v 22.5 4 -8.5
v 22.5 5 -8.5
v 22.5 7 -8.5
f -6/2/4 -5/2/4 -4/2/4
f -4/2/4 -5/2/4 -3/2/4
f -8/2/4 -7/2/4 -2/2/4
f -2/2/4 -7/2/4 -1/2/4
v -16.5 0 -16.5
v -16.5 12 -16.5
v -15.5 0 -16.5
v -15.5 12 -16.5
f -4/2/4 -3/2/4 -2/2/4
f -2/2/4 -3/2/4 -1/2/4
v 20.5 0 -21.5
v 20.5 1 -21.5
v 20.5 2 -21.5
v 20.5 4 -21.5
v 21.5 0 -21.5
v 21.5 1 -21.5
v 21.5 2 -21.5
v 21.5 4 -21.5
f -8/2/4 -7/2/4 -4/2/4
f -4/2/4 -7/2/4 -3/2/4
f -6/1/4 -5/1/4 -2/1/4
f -2/1/4 -5/1/4 -1/1/4
v -22.5 12 -22.5
v -22.5 14 -22.5
v 20.5 1 -22.5
v 20.5 2 -22.5
v 20.5 4 -22.5
v 20.5 12 -22.5
v 22.5 1 -22.5
v 22.5 2 -22.5
v 22.5 4 -22.5
v 22.5 14 -22.5
f -10/2/4 -9/2/4 -5/2/4
f -8/2/4 -7/2/4 -4/2/4
f -4/2/4 -7/2/4 -3/2/4
f -6/2/4 -5/2/4 -2/2/4
f -5/2/4 -9/2/4 -1/2/4
f -2/2/4 -5/2/4 -1/2/4
v -21.5 0 21.5
v -9.5 0 21.5
v -21.5 0 20.5
v -9.5 0 20.5
v 20.5 0 -8.5
v 21.5 0 -8.5
v -16.5 0 -15.5
v -15.5 0 -15.5
v -16.5 0 -16.5
v -15.5 0 -16.5
v 20.5 0 -21.5
v 21.5 0 -21.5
f -10/2/5 -11/2/5 -12/2/5
f -9/2/5 -11/2/5 -10/2/5
f -4/2/5 -5/2/5 -6/2/5
f -3/2/5 -5/2/5 -4/2/5
f -2/2/5 -7/2/5 -8/2/5
f -1/2/5 -7/2/5 -2/2/5
v -22.5 1 22.5
v -8.5 1 22.5
v -21.5 1 21.5
v -9.5 1 21.5
v -22.5 1 20.5
v -21.5 1 20.5
v -9.5 1 20.5
v -8.5 1 20.5
v 20.5 1 -7.5
v 22.5 1 -7.5
v 20.5 1 -8.5
v 21.5 1 -8.5
v 20.5 1 -21.5
v 21.5 1 -21.5
v 20.5 1 -22.5
v 22.5 1 -22.5
f -14/2/5 -15/2/5 -16/2/5
f -13/2/5 -15/2/5 -14/2/5
f -12/2/5 -14/2/5 -16/2/5
f -11/2/5 -14/2/5 -12/2/5
f -10/2/5 -15/2/5 -13/2/5
f -9/2/5 -15/2/5 -10/2/5
f -6/2/5 -7/2/5 -8/2/5
f -5/2/5 -7/2/5 -6/2/5
f -3/2/5 -7/2/5 -5/2/5
f -2/2/5 -3/2/5 -4/2/5
f -1/2/5 -7/2/5 -3/2/5
f -1/2/5 -3/2/5 -2/2/5
v -22.5 4 22.5
v -9.5 4 22.5
v -21.5 4 21.5
v -9.5 4 21.5
v -22.5 4 20.5
v -21.5 4 20.5
v 21.5 4 -8.5
v 22.5 4 -8.5
v 20.5 4 -21.5
v 21.5 4 -21.5
v 20.5 4 -22.5
v 22.5 4 -22.5
f -10/2/5 -11/2/5 -12/2/5
f -9/2/5 -11/2/5 -10/2/5
f -8/2/5 -10/2/5 -12/2/5
f -7/2/5 -10/2/5 -8/2/5
f -3/2/5 -5/2/5 -6/2/5
f -2/2/5 -3/2/5 -4/2/5
f -1/2/5 -5/2/5 -3/2/5
f -1/2/5 -3/2/5 -2/2/5
v -21.5 7 22.5
v -9.5 7 22.5
v -21.5 7 20.5
v -9.5 7 20.5
v 20.5 7 -8.5
v 22.5 7 -8.5
v 20.5 7 -21.5
v 22.5 7 -21.5
f -6/2/5 -7/2/5 -8/2/5
f -5/2/5 -7/2/5 -6/2/5
f -2/2/5 -3/2/5 -4/2/5
f -1/2/5 -3/2/5 -2/2/5
v -22.5 12 20.5
v -8.5 12 20.5
v -8.5 12 -7.5
v 20.5 12 -7.5
v -16.5 12 -15.5
v -15.5 12 -15.5
v -16.5 12 -16.5
v -15.5 12 -16.5
v -22.5 12 -22.5
v 20.5 12 -22.5
f -8/2/5 -9/2/5 -10/2/5
f -6/2/5 -8/2/5 -10/2/5
f -6/2/5 -7/2/5 -8/2/5
f -5/2/5 -7/2/5 -6/2/5
f -4/2/5 -6/2/5 -10/2/5
f -3/2/5 -7/2/5 -5/2/5
f -2/2/5 -4/2/5 -10/2/5
f -2/2/5 -3/2/5 -4/2/5
f -1/2/5 -7/2/5 -3/2/5
f -1/2/5 -3/2/5 -2/2/5
v -22.5 2 22.5
v -9.5 2 22.5
v -21.5 2 21.5
v -9.5 2 21.5
v -22.5 2 20.5
v -21.5 2 20.5
v 21.5 2 -8.5
v 22.5 2 -8.5
v 20.5 2 -21.5
v 21.5 2 -21.5
v 20.5 2 -22.5
v 22.5 2 -22.5
f -12/2/6 -11/2/6 -10/2/6
f -10/2/6 -11/2/6 -9/2/6
f -12/2/6 -10/2/6 -8/2/6
f -8/2/6 -10/2/6 -7/2/6
f -6/2/6 -5/2/6 -3/2/6
f -4/2/6 -3/2/6 -2/2/6
f -3/2/6 -5/2/6 -1/2/6
f -2/2/6 -3/2/6 -1/2/6
v -21.5 5 22.5
v -9.5 5 22.5
v -21.5 5 20.5
v -9.5 5 20.5
v 20.5 5 -8.5
v 22.5 5 -8.5
v 20.5 5 -21.5
v 22.5 5 -21.5
f -8/2/6 -7/2/6 -6/2/6
f -6/2/6 -7/2/6 -5/2/6
f -4/2/6 -3/2/6 -2/2/6
f -2/2/6 -3/2/6 -1/2/6
v -22.5 14 22.5
v -8.5 14 22.5
v -20.5 14 20.5
v -10.5 14 20.5
v -8.5 14 -7.5
v 22.5 14 -7.5
v -10.5 14 -9.5
v 20.5 14 -9.5
v -20.5 14 -20.5
v 20.5 14 -20.5
v -22.5 14 -22.5
v 22.5 14 -22.5
f -12/2/6 -11/2/6 -10/2/6
f -10/2/6 -11/2/6 -9/2/6
f -9/2/6 -11/2/6 -8/2/6
f -10/3/6 -9/3/6 -6/3/6
f -8/2/6 -7/2/6 -6/2/6
f -9/2/6 -8/2/6 -6/2/6
f -6/2/6 -7/2/6 -5/2/6
f -12/2/6 -10/2/6 -4/2/6
f -10/3/6 -6/3/6 -4/3/6
f -6/3/6 -5/3/6 -4/3/6
f -5/2/6 -7/2/6 -3/2/6
f -4/3/6 -5/3/6 -3/3/6
f -12/2/6 -4/2/6 -2/2/6
f -4/2/6 -3/2/6 -2/2/6
f -3/2/6 -7/2/6 -1/2/6
f -2/2/6 -3/2/6 -1/2/6
