# MagicaVoxel @ ephtracy

# material
mtllib Shower Stall 2.mtl
usemtl palette

# normals
vn -1 0 0
vn 1 0 0
vn 0 0 1
vn 0 0 -1
vn 0 -1 0
vn 0 1 0

# texcoords
vt 0.966797 0.5
vt 0.970703 0.5
vt 0.974609 0.5

# verts and faces
v -1.5 11 -5
v -1.5 11 -6
v -1.5 12 -5
v -1.5 12 -6
f -2/2/1 -3/2/1 -4/2/1
f -1/2/1 -3/2/1 -2/2/1
v -0.5 11 -4
v -0.5 11 -5
v -0.5 11 -6
v -0.5 11 -7
v -0.5 12 -4
v -0.5 12 -5
v -0.5 12 -6
v -0.5 12 -7
f -4/1/1 -7/1/1 -8/1/1
f -3/1/1 -7/1/1 -4/1/1
f -2/1/1 -5/1/1 -6/1/1
f -1/1/1 -5/1/1 -2/1/1
v 0.5 0 7
v 0.5 0 -7
v 0.5 3 7
v 0.5 3 6
v 0.5 4 7
v 0.5 4 6
v 0.5 11 -4
v 0.5 11 -5
v 0.5 11 -6
v 0.5 11 -7
v 0.5 12 -4
v 0.5 12 -5
v 0.5 12 -6
v 0.5 12 -7
v 0.5 18 7
v 0.5 18 6
v 0.5 19 7
v 0.5 19 6
v 0.5 21 7
v 0.5 21 -7
f -18/3/1 -19/3/1 -20/3/1
f -17/3/1 -19/3/1 -18/3/1
f -16/1/1 -17/1/1 -18/1/1
f -15/3/1 -19/3/1 -17/3/1
f -15/1/1 -17/1/1 -16/1/1
f -14/3/1 -15/3/1 -16/3/1
f -14/3/1 -19/3/1 -15/3/1
f -13/3/1 -19/3/1 -14/3/1
f -12/3/1 -19/3/1 -13/3/1
f -11/3/1 -19/3/1 -12/3/1
f -10/3/1 -14/3/1 -16/3/1
f -6/3/1 -10/3/1 -16/3/1
f -6/3/1 -7/3/1 -8/3/1
f -6/3/1 -8/3/1 -9/3/1
f -6/3/1 -9/3/1 -10/3/1
f -5/3/1 -7/3/1 -6/3/1
f -4/1/1 -5/1/1 -6/1/1
f -3/3/1 -7/3/1 -5/3/1
f -3/1/1 -5/1/1 -4/1/1
f -2/3/1 -3/3/1 -4/3/1
f -1/3/1 -7/3/1 -3/3/1
f -1/3/1 -3/3/1 -2/3/1
v 1.5 0 7
v 1.5 0 -7
v 1.5 3 7
v 1.5 3 6
v 1.5 4 7
v 1.5 4 6
v 1.5 11 -5
v 1.5 11 -6
v 1.5 11 -7
v 1.5 12 -5
v 1.5 12 -6
v 1.5 12 -7
v 1.5 18 7
v 1.5 18 6
v 1.5 19 7
v 1.5 19 6
v 1.5 21 7
v 1.5 21 -7
f -18/3/2 -17/3/2 -16/3/2
f -16/3/2 -17/3/2 -15/3/2
f -16/1/2 -15/1/2 -14/1/2
f -15/3/2 -17/3/2 -13/3/2
f -14/1/2 -15/1/2 -13/1/2
f -14/3/2 -13/3/2 -12/3/2
f -13/3/2 -17/3/2 -12/3/2
f -12/3/2 -17/3/2 -11/3/2
f -11/3/2 -17/3/2 -10/3/2
f -14/3/2 -12/3/2 -9/3/2
f -12/2/2 -11/2/2 -9/2/2
f -11/1/2 -10/1/2 -8/1/2
f -9/2/2 -11/2/2 -8/2/2
f -8/1/2 -10/1/2 -7/1/2
f -14/3/2 -9/3/2 -6/3/2
f -9/3/2 -8/3/2 -6/3/2
f -8/3/2 -7/3/2 -6/3/2
f -6/3/2 -7/3/2 -5/3/2
f -6/1/2 -5/1/2 -4/1/2
f -5/3/2 -7/3/2 -3/3/2
f -4/1/2 -5/1/2 -3/1/2
f -4/3/2 -3/3/2 -2/3/2
f -3/3/2 -7/3/2 -1/3/2
f -2/3/2 -3/3/2 -1/3/2
v 0.5 0 7
v 0.5 3 7
v 0.5 4 7
v 0.5 18 7
v 0.5 19 7
v 0.5 21 7
v 1.5 0 7
v 1.5 3 7
v 1.5 4 7
v 1.5 18 7
v 1.5 19 7
v 1.5 21 7
f -6/3/3 -11/3/3 -12/3/3
f -5/1/3 -10/1/3 -11/1/3
f -5/3/3 -11/3/3 -6/3/3
f -4/3/3 -9/3/3 -10/3/3
f -4/1/3 -10/1/3 -5/1/3
f -3/1/3 -8/1/3 -9/1/3
f -3/3/3 -9/3/3 -4/3/3
f -2/3/3 -7/3/3 -8/3/3
f -2/1/3 -8/1/3 -3/1/3
f -1/3/3 -7/3/3 -2/3/3
v -0.5 11 -4
v -0.5 12 -4
v 0.5 11 -4
v 0.5 12 -4
f -2/1/3 -3/1/3 -4/1/3
f -1/1/3 -3/1/3 -2/1/3
v -1.5 11 -5
v -1.5 12 -5
v -0.5 11 -5
v -0.5 12 -5
f -2/2/3 -3/2/3 -4/2/3
f -1/2/3 -3/2/3 -2/2/3
v -1.5 11 -6
v -1.5 12 -6
v -0.5 11 -6
v -0.5 12 -6
f -4/2/4 -3/2/4 -2/2/4
f -2/2/4 -3/2/4 -1/2/4
v -0.5 11 -7
v -0.5 12 -7
v 0.5 0 -7
v 0.5 11 -7
v 0.5 12 -7
v 0.5 21 -7
v 1.5 0 -7
v 1.5 11 -7
v 1.5 12 -7
v 1.5 21 -7
f -10/1/4 -9/1/4 -7/1/4
f -7/1/4 -9/1/4 -6/1/4
f -8/3/4 -7/3/4 -4/3/4
f -7/1/4 -6/1/4 -3/1/4
f -4/3/4 -7/3/4 -3/3/4
f -6/3/4 -5/3/4 -2/3/4
f -3/1/4 -6/1/4 -2/1/4
f -2/3/4 -5/3/4 -1/3/4
v 0.5 0 7
v 1.5 0 7
v 0.5 0 -7
v 1.5 0 -7
f -2/3/5 -3/3/5 -4/3/5
f -1/3/5 -3/3/5 -2/3/5
v -0.5 11 -4
v 0.5 11 -4
v -1.5 11 -5
v -0.5 11 -5
v 0.5 11 -5
v -1.5 11 -6
v -0.5 11 -6
v 0.5 11 -6
v -0.5 11 -7
v 0.5 11 -7
f -7/1/5 -9/1/5 -10/1/5
f -6/1/5 -9/1/5 -7/1/5
f -5/2/5 -7/2/5 -8/2/5
f -5/2/5 -6/2/5 -7/2/5
f -4/2/5 -6/2/5 -5/2/5
f -3/2/5 -6/2/5 -4/2/5
f -2/1/5 -3/1/5 -4/1/5
f -1/1/5 -3/1/5 -2/1/5
v -0.5 12 -4
v 0.5 12 -4
v -1.5 12 -5
v -0.5 12 -5
v 0.5 12 -5
v -1.5 12 -6
v -0.5 12 -6
v 0.5 12 -6
v -0.5 12 -7
v 0.5 12 -7
f -10/1/6 -9/1/6 -7/1/6
f -7/1/6 -9/1/6 -6/1/6
f -8/2/6 -7/2/6 -5/2/6
f -7/2/6 -6/2/6 -5/2/6
f -5/2/6 -6/2/6 -4/2/6
f -4/2/6 -6/2/6 -3/2/6
f -4/1/6 -3/1/6 -2/1/6
f -2/1/6 -3/1/6 -1/1/6
v 0.5 21 7
v 1.5 21 7
v 0.5 21 -7
v 1.5 21 -7
f -4/3/6 -3/3/6 -2/3/6
f -2/3/6 -3/3/6 -1/3/6
