# MagicaVoxel @ ephtracy

# material
mtllib Shower Stall 1.mtl
usemtl palette

# normals
vn -1 0 0
vn 1 0 0
vn 0 0 1
vn 0 0 -1
vn 0 -1 0
vn 0 1 0

# texcoords
vt 0.966797 0.5
vt 0.970703 0.5
vt 0.974609 0.5
vt 0.978516 0.5

# verts and faces
v -7 0 8.5
v -7 0 7.5
v -7 0 -7.5
v -7 0 -8.5
v -7 23 8.5
v -7 23 7.5
v -7 23 -7.5
v -7 23 -8.5
f -4/4/1 -7/4/1 -8/4/1
f -3/4/1 -7/4/1 -4/4/1
f -2/4/1 -5/4/1 -6/4/1
f -1/4/1 -5/4/1 -2/4/1
v 4 12 -5.5
v 4 12 -6.5
v 4 13 -5.5
v 4 13 -6.5
f -2/2/1 -3/2/1 -4/2/1
f -1/2/1 -3/2/1 -2/2/1
v 5 12 -4.5
v 5 12 -5.5
v 5 12 -6.5
v 5 12 -7.5
v 5 13 -4.5
v 5 13 -5.5
v 5 13 -6.5
v 5 13 -7.5
f -4/1/1 -7/1/1 -8/1/1
f -3/1/1 -7/1/1 -4/1/1
f -2/1/1 -5/1/1 -6/1/1
f -1/1/1 -5/1/1 -2/1/1
v 6 1 6.5
v 6 1 -7.5
v 6 4 7.5
v 6 4 6.5
v 6 4 5.5
v 6 5 7.5
v 6 5 6.5
v 6 5 5.5
v 6 12 -4.5
v 6 12 -5.5
v 6 12 -6.5
v 6 12 -7.5
v 6 13 -4.5
v 6 13 -5.5
v 6 13 -6.5
v 6 13 -7.5
v 6 19 7.5
v 6 19 6.5
v 6 19 5.5
v 6 20 7.5
v 6 20 6.5
v 6 20 5.5
v 6 22 6.5
v 6 22 -7.5
f -21/3/1 -23/3/1 -24/3/1
f -20/3/1 -23/3/1 -21/3/1
f -19/2/1 -21/2/1 -22/2/1
f -18/1/1 -20/1/1 -21/1/1
f -18/2/1 -21/2/1 -19/2/1
f -17/3/1 -23/3/1 -20/3/1
f -17/1/1 -20/1/1 -18/1/1
f -16/3/1 -23/3/1 -17/3/1
f -16/3/1 -17/3/1 -18/3/1
f -15/3/1 -23/3/1 -16/3/1
f -14/3/1 -23/3/1 -15/3/1
f -13/3/1 -23/3/1 -14/3/1
f -12/3/1 -16/3/1 -18/3/1
f -7/3/1 -12/3/1 -18/3/1
f -7/3/1 -9/3/1 -10/3/1
f -7/3/1 -10/3/1 -11/3/1
f -7/3/1 -11/3/1 -12/3/1
f -6/3/1 -9/3/1 -7/3/1
f -5/2/1 -7/2/1 -8/2/1
f -4/1/1 -6/1/1 -7/1/1
f -4/2/1 -7/2/1 -5/2/1
f -3/3/1 -9/3/1 -6/3/1
f -3/1/1 -6/1/1 -4/1/1
f -2/3/1 -3/3/1 -4/3/1
f -1/3/1 -9/3/1 -3/3/1
f -1/3/1 -3/3/1 -2/3/1
v 7 0 8.5
v 7 0 7.5
v 7 0 -7.5
v 7 0 -8.5
v 7 1 6.5
v 7 1 -7.5
v 7 4 7.5
v 7 4 6.5
v 7 4 5.5
v 7 5 7.5
v 7 5 6.5
v 7 5 5.5
v 7 12 -5.5
v 7 12 -6.5
v 7 12 -7.5
v 7 13 -5.5
v 7 13 -6.5
v 7 13 -7.5
v 7 19 7.5
v 7 19 6.5
v 7 19 5.5
v 7 20 7.5
v 7 20 6.5
v 7 20 5.5
v 7 22 6.5
v 7 22 -7.5
v 7 23 8.5
v 7 23 7.5
v 7 23 -7.5
v 7 23 -8.5
f -28/4/2 -27/4/2 -25/4/2
f -30/4/2 -29/4/2 -24/4/2
f -26/3/2 -25/3/2 -23/3/2
f -23/3/2 -25/3/2 -22/3/2
f -30/4/2 -24/4/2 -21/4/2
f -24/2/2 -23/2/2 -21/2/2
f -23/1/2 -22/1/2 -20/1/2
f -21/2/2 -23/2/2 -20/2/2
f -22/3/2 -25/3/2 -19/3/2
f -20/1/2 -22/1/2 -19/1/2
f -19/3/2 -25/3/2 -18/3/2
f -20/3/2 -19/3/2 -18/3/2
f -18/3/2 -25/3/2 -17/3/2
f -25/4/2 -27/4/2 -16/4/2
f -17/3/2 -25/3/2 -16/3/2
f -18/2/2 -17/2/2 -15/2/2
f -20/3/2 -18/3/2 -15/3/2
f -17/1/2 -16/1/2 -14/1/2
f -15/2/2 -17/2/2 -14/2/2
f -16/4/2 -27/4/2 -13/4/2
f -14/1/2 -16/1/2 -13/1/2
f -30/4/2 -21/4/2 -12/4/2
f -15/3/2 -14/3/2 -11/3/2
f -20/3/2 -15/3/2 -11/3/2
f -14/3/2 -13/3/2 -11/3/2
f -11/3/2 -13/3/2 -10/3/2
f -30/4/2 -12/4/2 -9/4/2
f -12/2/2 -11/2/2 -9/2/2
f -11/1/2 -10/1/2 -8/1/2
f -9/2/2 -11/2/2 -8/2/2
f -10/3/2 -13/3/2 -7/3/2
f -8/1/2 -10/1/2 -7/1/2
f -8/3/2 -7/3/2 -6/3/2
f -13/4/2 -27/4/2 -5/4/2
f -6/3/2 -7/3/2 -5/3/2
f -7/3/2 -13/3/2 -5/3/2
f -30/4/2 -9/4/2 -4/4/2
f -4/4/2 -9/4/2 -3/4/2
f -5/4/2 -27/4/2 -2/4/2
f -2/4/2 -27/4/2 -1/4/2
v -7 0 8.5
v -7 23 8.5
v 7 0 8.5
v 7 23 8.5
f -2/4/3 -3/4/3 -4/4/3
f -1/4/3 -3/4/3 -2/4/3
v 6 1 6.5
v 6 4 6.5
v 6 5 6.5
v 6 19 6.5
v 6 20 6.5
v 6 22 6.5
v 7 1 6.5
v 7 4 6.5
v 7 5 6.5
v 7 19 6.5
v 7 20 6.5
v 7 22 6.5
f -6/3/3 -11/3/3 -12/3/3
f -5/3/3 -11/3/3 -6/3/3
f -4/3/3 -9/3/3 -10/3/3
f -3/3/3 -9/3/3 -4/3/3
f -2/3/3 -7/3/3 -8/3/3
f -1/3/3 -7/3/3 -2/3/3
v 5 12 -4.5
v 5 13 -4.5
v 6 12 -4.5
v 6 13 -4.5
f -2/1/3 -3/1/3 -4/1/3
f -1/1/3 -3/1/3 -2/1/3
v 4 12 -5.5
v 4 13 -5.5
v 5 12 -5.5
v 5 13 -5.5
f -2/2/3 -3/2/3 -4/2/3
f -1/2/3 -3/2/3 -2/2/3
v -7 0 -7.5
v -7 23 -7.5
v 5 12 -7.5
v 5 13 -7.5
v 6 1 -7.5
v 6 12 -7.5
v 6 13 -7.5
v 6 22 -7.5
v 7 0 -7.5
v 7 1 -7.5
v 7 22 -7.5
v 7 23 -7.5
f -10/4/3 -11/4/3 -12/4/3
f -9/4/3 -11/4/3 -10/4/3
f -8/4/3 -10/4/3 -12/4/3
f -7/4/3 -10/4/3 -8/4/3
f -6/4/3 -11/4/3 -9/4/3
f -5/4/3 -11/4/3 -6/4/3
f -4/4/3 -8/4/3 -12/4/3
f -3/4/3 -8/4/3 -4/4/3
f -2/4/3 -11/4/3 -5/4/3
f -1/4/3 -11/4/3 -2/4/3
v -7 0 7.5
v -7 23 7.5
v 6 4 7.5
v 6 5 7.5
v 6 19 7.5
v 6 20 7.5
v 7 0 7.5
v 7 4 7.5
v 7 5 7.5
v 7 19 7.5
v 7 20 7.5
v 7 23 7.5
f -12/4/4 -11/4/4 -10/4/4
f -10/4/4 -11/4/4 -9/4/4
f -9/4/4 -11/4/4 -8/4/4
f -8/4/4 -11/4/4 -7/4/4
f -12/4/4 -10/4/4 -6/4/4
f -6/4/4 -10/4/4 -5/4/4
f -9/4/4 -8/4/4 -4/4/4
f -4/4/4 -8/4/4 -3/4/4
f -7/4/4 -11/4/4 -2/4/4
f -2/4/4 -11/4/4 -1/4/4
v 4 12 -6.5
v 4 13 -6.5
v 5 12 -6.5
v 5 13 -6.5
f -4/2/4 -3/2/4 -2/2/4
f -2/2/4 -3/2/4 -1/2/4
v -7 0 -8.5
v -7 23 -8.5
v 7 0 -8.5
v 7 23 -8.5
f -4/4/4 -3/4/4 -2/4/4
f -2/4/4 -3/4/4 -1/4/4
v -7 0 8.5
v 7 0 8.5
v -7 0 7.5
v 7 0 7.5
v -7 0 -7.5
v 7 0 -7.5
v -7 0 -8.5
v 7 0 -8.5
f -6/4/5 -7/4/5 -8/4/5
f -5/4/5 -7/4/5 -6/4/5
f -2/4/5 -3/4/5 -4/4/5
f -1/4/5 -3/4/5 -2/4/5
v 6 1 6.5
v 7 1 6.5
v 6 1 -7.5
v 7 1 -7.5
f -2/3/5 -3/3/5 -4/3/5
f -1/3/5 -3/3/5 -2/3/5
v 6 4 7.5
v 7 4 7.5
v 6 4 6.5
v 7 4 6.5
f -2/2/5 -3/2/5 -4/2/5
f -1/2/5 -3/2/5 -2/2/5
v 5 12 -4.5
v 6 12 -4.5
v 4 12 -5.5
v 5 12 -5.5
v 6 12 -5.5
v 4 12 -6.5
v 5 12 -6.5
v 6 12 -6.5
v 5 12 -7.5
v 6 12 -7.5
f -7/1/5 -9/1/5 -10/1/5
f -6/1/5 -9/1/5 -7/1/5
f -5/2/5 -7/2/5 -8/2/5
f -5/2/5 -6/2/5 -7/2/5
f -4/2/5 -6/2/5 -5/2/5
f -3/2/5 -6/2/5 -4/2/5
f -2/1/5 -3/1/5 -4/1/5
f -1/1/5 -3/1/5 -2/1/5
v 6 19 7.5
v 7 19 7.5
v 6 19 6.5
v 7 19 6.5
f -2/2/5 -3/2/5 -4/2/5
f -1/2/5 -3/2/5 -2/2/5
v 6 5 7.5
v 7 5 7.5
v 6 5 6.5
v 7 5 6.5
f -4/2/6 -3/2/6 -2/2/6
f -2/2/6 -3/2/6 -1/2/6
v 5 13 -4.5
v 6 13 -4.5
v 4 13 -5.5
v 5 13 -5.5
v 6 13 -5.5
v 4 13 -6.5
v 5 13 -6.5
v 6 13 -6.5
v 5 13 -7.5
v 6 13 -7.5
f -10/1/6 -9/1/6 -7/1/6
f -7/1/6 -9/1/6 -6/1/6
f -8/2/6 -7/2/6 -5/2/6
f -7/2/6 -6/2/6 -5/2/6
f -5/2/6 -6/2/6 -4/2/6
f -4/2/6 -6/2/6 -3/2/6
f -4/1/6 -3/1/6 -2/1/6
f -2/1/6 -3/1/6 -1/1/6
v 6 20 7.5
v 7 20 7.5
v 6 20 6.5
v 7 20 6.5
f -4/2/6 -3/2/6 -2/2/6
f -2/2/6 -3/2/6 -1/2/6
v 6 22 6.5
v 7 22 6.5
v 6 22 -7.5
v 7 22 -7.5
f -4/3/6 -3/3/6 -2/3/6
f -2/3/6 -3/3/6 -1/3/6
v -7 23 8.5
v 7 23 8.5
v -7 23 7.5
v 7 23 7.5
v -7 23 -7.5
v 7 23 -7.5
v -7 23 -8.5
v 7 23 -8.5
f -8/4/6 -7/4/6 -6/4/6
f -6/4/6 -7/4/6 -5/4/6
f -4/4/6 -3/4/6 -2/4/6
f -2/4/6 -3/4/6 -1/4/6
