# MagicaVoxel @ ephtracy

# material
mtllib Computer Screen.mtl
usemtl palette

# normals
vn -1 0 0
vn 1 0 0
vn 0 0 1
vn 0 0 -1
vn 0 -1 0
vn 0 1 0

# texcoords
vt 0.205078 0.5
vt 0.287109 0.5
vt 0.326172 0.5
vt 0.505859 0.5
vt 0.580078 0.5
vt 0.673828 0.5
vt 0.728516 0.5
vt 0.759766 0.5
vt 0.958984 0.5
vt 0.978516 0.5
vt 0.990234 0.5

# verts and faces
v -0.5 0 6
v -0.5 0 -1
v -0.5 0 -2
v -0.5 0 -3
v -0.5 0 -4
v -0.5 0 -5
v -0.5 0 -6
v -0.5 1 6
v -0.5 1 5
v -0.5 1 4
v -0.5 1 -1
v -0.5 1 -2
v -0.5 1 -3
v -0.5 1 -4
v -0.5 1 -5
v -0.5 1 -6
v -0.5 2 3
v -0.5 2 2
v -0.5 2 1
v -0.5 2 -1
v -0.5 2 -2
v -0.5 2 -4
v -0.5 3 -0
v -0.5 3 -1
v -0.5 3 -2
v -0.5 3 -3
v -0.5 4 -0
v -0.5 4 -1
v -0.5 4 -2
v -0.5 4 -3
v -0.5 5 2
v -0.5 5 1
v -0.5 5 -1
v -0.5 5 -2
v -0.5 5 -4
v -0.5 6 6
v -0.5 6 5
v -0.5 6 3
v -0.5 6 2
v -0.5 6 1
v -0.5 6 -2
v -0.5 6 -4
v -0.5 7 6
v -0.5 7 5
v -0.5 7 4
v -0.5 7 -2
v -0.5 8 6
v -0.5 8 5
v -0.5 8 4
v -0.5 8 -2
v -0.5 9 6
v -0.5 9 -6
f -45/2/1 -51/2/1 -52/2/1
f -44/2/1 -51/2/1 -45/2/1
f -43/2/1 -51/2/1 -44/2/1
f -42/8/1 -50/8/1 -51/8/1
f -42/2/1 -51/2/1 -43/2/1
f -41/7/1 -49/7/1 -50/7/1
f -41/8/1 -50/8/1 -42/8/1
f -40/8/1 -48/8/1 -49/8/1
f -40/7/1 -49/7/1 -41/7/1
f -39/7/1 -47/7/1 -48/7/1
f -39/8/1 -48/8/1 -40/8/1
f -38/8/1 -46/8/1 -47/8/1
f -38/7/1 -47/7/1 -39/7/1
f -37/8/1 -46/8/1 -38/8/1
f -36/9/1 -42/9/1 -43/9/1
f -36/9/1 -41/9/1 -42/9/1
f -35/9/1 -41/9/1 -36/9/1
f -34/9/1 -41/9/1 -35/9/1
f -33/9/1 -41/9/1 -34/9/1
f -32/2/1 -39/2/1 -40/2/1
f -32/9/1 -41/9/1 -33/9/1
f -32/2/1 -37/2/1 -38/2/1
f -32/2/1 -40/2/1 -41/2/1
f -32/2/1 -38/2/1 -39/2/1
f -31/2/1 -37/2/1 -32/2/1
f -30/11/1 -33/11/1 -34/11/1
f -29/1/1 -32/1/1 -33/1/1
f -29/11/1 -33/11/1 -30/11/1
f -28/11/1 -31/11/1 -32/11/1
f -28/1/1 -32/1/1 -29/1/1
f -27/11/1 -31/11/1 -28/11/1
f -26/11/1 -30/11/1 -34/11/1
f -26/1/1 -29/1/1 -30/1/1
f -25/11/1 -28/11/1 -29/11/1
f -25/1/1 -29/1/1 -26/1/1
f -24/1/1 -27/1/1 -28/1/1
f -24/11/1 -28/11/1 -25/11/1
f -23/11/1 -31/11/1 -27/11/1
f -23/1/1 -27/1/1 -24/1/1
f -22/3/1 -34/3/1 -35/3/1
f -22/5/1 -35/5/1 -36/5/1
f -21/11/1 -25/11/1 -26/11/1
f -21/3/1 -34/3/1 -22/3/1
f -21/11/1 -26/11/1 -34/11/1
f -20/1/1 -24/1/1 -25/1/1
f -20/11/1 -25/11/1 -21/11/1
f -19/11/1 -23/11/1 -24/11/1
f -19/1/1 -24/1/1 -20/1/1
f -18/2/1 -37/2/1 -31/2/1
f -18/11/1 -23/11/1 -19/11/1
f -18/11/1 -31/11/1 -23/11/1
f -17/4/1 -44/4/1 -45/4/1
f -16/2/1 -43/2/1 -44/2/1
f -16/4/1 -44/4/1 -17/4/1
f -15/5/1 -22/5/1 -36/5/1
f -15/9/1 -36/9/1 -43/9/1
f -14/9/1 -21/9/1 -22/9/1
f -14/5/1 -22/5/1 -15/5/1
f -13/7/1 -19/7/1 -20/7/1
f -13/9/1 -21/9/1 -14/9/1
f -13/7/1 -20/7/1 -21/7/1
f -13/7/1 -18/7/1 -19/7/1
f -12/7/1 -18/7/1 -13/7/1
f -11/2/1 -37/2/1 -18/2/1
f -11/7/1 -18/7/1 -12/7/1
f -10/10/1 -16/10/1 -17/10/1
f -9/2/1 -43/2/1 -16/2/1
f -9/10/1 -16/10/1 -10/10/1
f -8/9/1 -14/9/1 -15/9/1
f -8/2/1 -43/2/1 -9/2/1
f -8/9/1 -15/9/1 -43/9/1
f -8/9/1 -12/9/1 -13/9/1
f -8/9/1 -13/9/1 -14/9/1
f -7/2/1 -11/2/1 -12/2/1
f -7/9/1 -12/9/1 -8/9/1
f -6/4/1 -9/4/1 -10/4/1
f -5/2/1 -8/2/1 -9/2/1
f -5/4/1 -9/4/1 -6/4/1
f -4/6/1 -7/6/1 -8/6/1
f -4/2/1 -8/2/1 -5/2/1
f -3/2/1 -11/2/1 -7/2/1
f -3/6/1 -7/6/1 -4/6/1
f -2/2/1 -4/2/1 -5/2/1
f -2/2/1 -5/2/1 -6/2/1
f -2/2/1 -3/2/1 -4/2/1
f -1/2/1 -11/2/1 -3/2/1
f -1/2/1 -3/2/1 -2/2/1
f -1/2/1 -37/2/1 -11/2/1
v 0.5 0 6
v 0.5 0 -1
v 0.5 0 -2
v 0.5 0 -3
v 0.5 0 -4
v 0.5 0 -5
v 0.5 0 -6
v 0.5 1 6
v 0.5 1 5
v 0.5 1 4
v 0.5 1 -1
v 0.5 1 -2
v 0.5 1 -3
v 0.5 1 -4
v 0.5 1 -5
v 0.5 1 -6
v 0.5 2 3
v 0.5 2 2
v 0.5 2 1
v 0.5 2 -1
v 0.5 2 -2
v 0.5 2 -4
v 0.5 3 -0
v 0.5 3 -1
v 0.5 3 -2
v 0.5 3 -3
v 0.5 4 -0
v 0.5 4 -1
v 0.5 4 -2
v 0.5 4 -3
v 0.5 5 2
v 0.5 5 1
v 0.5 5 -1
v 0.5 5 -2
v 0.5 5 -4
v 0.5 6 6
v 0.5 6 5
v 0.5 6 3
v 0.5 6 2
v 0.5 6 1
v 0.5 6 -2
v 0.5 6 -4
v 0.5 7 6
v 0.5 7 5
v 0.5 7 4
v 0.5 7 -2
v 0.5 8 6
v 0.5 8 5
v 0.5 8 4
v 0.5 8 -2
v 0.5 9 6
v 0.5 9 -6
f -52/2/2 -51/2/2 -45/2/2
f -45/2/2 -51/2/2 -44/2/2
f -44/2/2 -51/2/2 -43/2/2
f -51/8/2 -50/8/2 -42/8/2
f -43/2/2 -51/2/2 -42/2/2
f -50/7/2 -49/7/2 -41/7/2
f -42/8/2 -50/8/2 -41/8/2
f -49/8/2 -48/8/2 -40/8/2
f -41/7/2 -49/7/2 -40/7/2
f -48/7/2 -47/7/2 -39/7/2
f -40/8/2 -48/8/2 -39/8/2
f -47/8/2 -46/8/2 -38/8/2
f -39/7/2 -47/7/2 -38/7/2
f -38/8/2 -46/8/2 -37/8/2
f -43/9/2 -42/9/2 -36/9/2
f -42/9/2 -41/9/2 -36/9/2
f -36/9/2 -41/9/2 -35/9/2
f -35/9/2 -41/9/2 -34/9/2
f -34/9/2 -41/9/2 -33/9/2
f -40/2/2 -39/2/2 -32/2/2
f -33/9/2 -41/9/2 -32/9/2
f -38/2/2 -37/2/2 -32/2/2
f -41/2/2 -40/2/2 -32/2/2
f -39/2/2 -38/2/2 -32/2/2
f -32/2/2 -37/2/2 -31/2/2
f -34/11/2 -33/11/2 -30/11/2
f -33/1/2 -32/1/2 -29/1/2
f -30/11/2 -33/11/2 -29/11/2
f -32/11/2 -31/11/2 -28/11/2
f -29/1/2 -32/1/2 -28/1/2
f -28/11/2 -31/11/2 -27/11/2
f -34/11/2 -30/11/2 -26/11/2
f -30/1/2 -29/1/2 -26/1/2
f -29/11/2 -28/11/2 -25/11/2
f -26/1/2 -29/1/2 -25/1/2
f -28/1/2 -27/1/2 -24/1/2
f -25/11/2 -28/11/2 -24/11/2
f -27/11/2 -31/11/2 -23/11/2
f -24/1/2 -27/1/2 -23/1/2
f -35/3/2 -34/3/2 -22/3/2
f -36/5/2 -35/5/2 -22/5/2
f -26/11/2 -25/11/2 -21/11/2
f -22/3/2 -34/3/2 -21/3/2
f -34/11/2 -26/11/2 -21/11/2
f -25/1/2 -24/1/2 -20/1/2
f -21/11/2 -25/11/2 -20/11/2
f -24/11/2 -23/11/2 -19/11/2
f -20/1/2 -24/1/2 -19/1/2
f -31/2/2 -37/2/2 -18/2/2
f -19/11/2 -23/11/2 -18/11/2
f -23/11/2 -31/11/2 -18/11/2
f -45/4/2 -44/4/2 -17/4/2
f -44/2/2 -43/2/2 -16/2/2
f -17/4/2 -44/4/2 -16/4/2
f -36/5/2 -22/5/2 -15/5/2
f -43/9/2 -36/9/2 -15/9/2
f -22/9/2 -21/9/2 -14/9/2
f -15/5/2 -22/5/2 -14/5/2
f -20/7/2 -19/7/2 -13/7/2
f -14/9/2 -21/9/2 -13/9/2
f -21/7/2 -20/7/2 -13/7/2
f -19/7/2 -18/7/2 -13/7/2
f -13/7/2 -18/7/2 -12/7/2
f -18/2/2 -37/2/2 -11/2/2
f -12/7/2 -18/7/2 -11/7/2
f -17/10/2 -16/10/2 -10/10/2
f -16/2/2 -43/2/2 -9/2/2
f -10/10/2 -16/10/2 -9/10/2
f -15/9/2 -14/9/2 -8/9/2
f -9/2/2 -43/2/2 -8/2/2
f -43/9/2 -15/9/2 -8/9/2
f -13/9/2 -12/9/2 -8/9/2
f -14/9/2 -13/9/2 -8/9/2
f -12/2/2 -11/2/2 -7/2/2
f -8/9/2 -12/9/2 -7/9/2
f -10/4/2 -9/4/2 -6/4/2
f -9/2/2 -8/2/2 -5/2/2
f -6/4/2 -9/4/2 -5/4/2
f -8/6/2 -7/6/2 -4/6/2
f -5/2/2 -8/2/2 -4/2/2
f -7/2/2 -11/2/2 -3/2/2
f -4/6/2 -7/6/2 -3/6/2
f -5/2/2 -4/2/2 -2/2/2
f -6/2/2 -5/2/2 -2/2/2
f -4/2/2 -3/2/2 -2/2/2
f -3/2/2 -11/2/2 -1/2/2
f -2/2/2 -3/2/2 -1/2/2
f -11/2/2 -37/2/2 -1/2/2
v -0.5 0 6
v -0.5 1 6
v -0.5 6 6
v -0.5 7 6
v -0.5 8 6
v -0.5 9 6
v 0.5 0 6
v 0.5 1 6
v 0.5 6 6
v 0.5 7 6
v 0.5 8 6
v 0.5 9 6
f -6/2/3 -11/2/3 -12/2/3
f -5/4/3 -10/4/3 -11/4/3
f -5/2/3 -11/2/3 -6/2/3
f -4/10/3 -9/10/3 -10/10/3
f -4/4/3 -10/4/3 -5/4/3
f -3/4/3 -8/4/3 -9/4/3
f -3/10/3 -9/10/3 -4/10/3
f -2/2/3 -7/2/3 -8/2/3
f -2/4/3 -8/4/3 -3/4/3
f -1/2/3 -7/2/3 -2/2/3
v -0.5 0 -6
v -0.5 1 -6
v -0.5 9 -6
v 0.5 0 -6
v 0.5 1 -6
v 0.5 9 -6
f -6/8/4 -5/8/4 -3/8/4
f -5/2/4 -4/2/4 -2/2/4
f -3/8/4 -5/8/4 -2/8/4
f -2/2/4 -4/2/4 -1/2/4
v -0.5 0 6
v 0.5 0 6
v -0.5 0 -1
v 0.5 0 -1
v -0.5 0 -2
v 0.5 0 -2
v -0.5 0 -3
v 0.5 0 -3
v -0.5 0 -4
v 0.5 0 -4
v -0.5 0 -5
v 0.5 0 -5
v -0.5 0 -6
v 0.5 0 -6
f -12/2/5 -13/2/5 -14/2/5
f -11/2/5 -13/2/5 -12/2/5
f -10/8/5 -11/8/5 -12/8/5
f -9/8/5 -11/8/5 -10/8/5
f -8/7/5 -9/7/5 -10/7/5
f -7/7/5 -9/7/5 -8/7/5
f -6/8/5 -7/8/5 -8/8/5
f -5/8/5 -7/8/5 -6/8/5
f -4/7/5 -5/7/5 -6/7/5
f -3/7/5 -5/7/5 -4/7/5
f -2/8/5 -3/8/5 -4/8/5
f -1/8/5 -3/8/5 -2/8/5
v -0.5 9 6
v 0.5 9 6
v -0.5 9 -6
v 0.5 9 -6
f -4/2/6 -3/2/6 -2/2/6
f -2/2/6 -3/2/6 -1/2/6
