# MagicaVoxel @ ephtracy

# material
mtllib Security Office Chair.mtl
usemtl palette

# normals
vn -1 0 0
vn 1 0 0
vn 0 0 1
vn 0 0 -1
vn 0 -1 0
vn 0 1 0

# texcoords
vt 0.337891 0.5
vt 0.673828 0.5

# verts and faces
v -4.5 0 1
v -4.5 0 -1
v -4.5 1 1
v -4.5 1 -1
v -4.5 6 5
v -4.5 6 -5
v -4.5 7 4
v -4.5 7 2
v -4.5 7 1
v -4.5 7 -1
v -4.5 7 -2
v -4.5 7 -4
v -4.5 13 4
v -4.5 13 2
v -4.5 13 1
v -4.5 13 -1
v -4.5 13 -2
v -4.5 13 -4
v -4.5 14 5
v -4.5 14 -5
f -18/1/1 -19/1/1 -20/1/1
f -17/1/1 -19/1/1 -18/1/1
f -14/1/1 -15/1/1 -16/1/1
f -13/1/1 -15/1/1 -14/1/1
f -12/1/1 -15/1/1 -13/1/1
f -11/1/1 -15/1/1 -12/1/1
f -10/1/1 -15/1/1 -11/1/1
f -9/1/1 -15/1/1 -10/1/1
f -8/1/1 -14/1/1 -16/1/1
f -8/2/1 -13/2/1 -14/2/1
f -7/1/1 -12/1/1 -13/1/1
f -7/2/1 -13/2/1 -8/2/1
f -6/2/1 -11/2/1 -12/2/1
f -6/1/1 -12/1/1 -7/1/1
f -5/1/1 -10/1/1 -11/1/1
f -5/2/1 -11/2/1 -6/2/1
f -4/2/1 -9/2/1 -10/2/1
f -4/1/1 -10/1/1 -5/1/1
f -3/1/1 -15/1/1 -9/1/1
f -3/2/1 -9/2/1 -4/2/1
f -2/1/1 -4/1/1 -5/1/1
f -2/1/1 -5/1/1 -6/1/1
f -2/1/1 -3/1/1 -4/1/1
f -2/1/1 -6/1/1 -7/1/1
f -2/1/1 -7/1/1 -8/1/1
f -2/1/1 -8/1/1 -16/1/1
f -1/1/1 -15/1/1 -3/1/1
f -1/1/1 -3/1/1 -2/1/1
v -1.5 0 5
v -1.5 0 1
v -1.5 0 -1
v -1.5 0 -5
v -1.5 1 5
v -1.5 1 1
v -1.5 1 -1
v -1.5 1 -5
f -4/1/1 -7/1/1 -8/1/1
f -3/1/1 -7/1/1 -4/1/1
f -2/1/1 -5/1/1 -6/1/1
f -1/1/1 -5/1/1 -2/1/1
v -0.5 1 1
v -0.5 1 -1
v -0.5 6 1
v -0.5 6 -1
f -2/1/1 -3/1/1 -4/1/1
f -1/1/1 -3/1/1 -2/1/1
v 2.5 7 5
v 2.5 7 4
v 2.5 7 -4
v 2.5 7 -5
v 2.5 9 5
v 2.5 9 4
v 2.5 9 -4
v 2.5 9 -5
f -4/1/1 -7/1/1 -8/1/1
f -3/1/1 -7/1/1 -4/1/1
f -2/1/1 -5/1/1 -6/1/1
f -1/1/1 -5/1/1 -2/1/1
v -3.5 7 5
v -3.5 7 4
v -3.5 7 -4
v -3.5 7 -5
v -3.5 9 5
v -3.5 9 4
v -3.5 9 -4
v -3.5 9 -5
v -3.5 10 5
v -3.5 10 4
v -3.5 10 -4
v -3.5 10 -5
v -3.5 14 5
v -3.5 14 4
v -3.5 14 -4
v -3.5 14 -5
f -16/1/2 -15/1/2 -12/1/2
f -12/1/2 -15/1/2 -11/1/2
f -14/1/2 -13/1/2 -10/1/2
f -10/1/2 -13/1/2 -9/1/2
f -8/1/2 -7/1/2 -4/1/2
f -4/1/2 -7/1/2 -3/1/2
f -6/1/2 -5/1/2 -2/1/2
f -2/1/2 -5/1/2 -1/1/2
v -2.5 9 4
v -2.5 9 -4
v -2.5 10 4
v -2.5 10 -4
v -2.5 14 4
v -2.5 14 -4
f -6/2/2 -5/2/2 -4/2/2
f -4/2/2 -5/2/2 -3/2/2
f -4/2/2 -3/2/2 -2/2/2
f -2/2/2 -3/2/2 -1/2/2
v 0.5 0 5
v 0.5 0 1
v 0.5 0 -1
v 0.5 0 -5
v 0.5 1 5
v 0.5 1 1
v 0.5 1 -1
v 0.5 1 -5
v 0.5 6 1
v 0.5 6 -1
f -10/1/2 -9/1/2 -6/1/2
f -6/1/2 -9/1/2 -5/1/2
f -8/1/2 -7/1/2 -4/1/2
f -4/1/2 -7/1/2 -3/1/2
f -5/1/2 -4/1/2 -2/1/2
f -2/1/2 -4/1/2 -1/1/2
v 3.5 6 5
v 3.5 6 4
v 3.5 6 -4
v 3.5 6 -5
v 3.5 7 4
v 3.5 7 -4
v 3.5 9 4
v 3.5 9 -4
v 3.5 10 5
v 3.5 10 4
v 3.5 10 -4
v 3.5 10 -5
f -12/1/2 -11/1/2 -8/1/2
f -10/1/2 -9/1/2 -7/1/2
f -12/1/2 -8/1/2 -6/1/2
f -7/1/2 -9/1/2 -5/1/2
f -12/1/2 -6/1/2 -4/1/2
f -4/1/2 -6/1/2 -3/1/2
f -5/1/2 -9/1/2 -2/1/2
f -2/1/2 -9/1/2 -1/1/2
v 4.5 0 1
v 4.5 0 -1
v 4.5 1 1
v 4.5 1 -1
v 4.5 6 4
v 4.5 6 -4
v 4.5 7 4
v 4.5 7 -4
v 4.5 9 4
v 4.5 9 -4
f -10/1/2 -9/1/2 -8/1/2
f -8/1/2 -9/1/2 -7/1/2
f -6/1/2 -5/1/2 -4/1/2
f -4/1/2 -5/1/2 -3/1/2
f -4/2/2 -3/2/2 -2/2/2
f -2/2/2 -3/2/2 -1/2/2
v -4.5 6 5
v -4.5 14 5
v -3.5 7 5
v -3.5 9 5
v -3.5 10 5
v -3.5 14 5
v -1.5 0 5
v -1.5 1 5
v 0.5 0 5
v 0.5 1 5
v 2.5 7 5
v 2.5 9 5
v 3.5 6 5
v 3.5 10 5
f -12/1/3 -13/1/3 -14/1/3
f -11/1/3 -13/1/3 -12/1/3
f -10/1/3 -13/1/3 -11/1/3
f -9/1/3 -13/1/3 -10/1/3
f -6/1/3 -7/1/3 -8/1/3
f -5/1/3 -7/1/3 -6/1/3
f -4/1/3 -12/1/3 -14/1/3
f -3/1/3 -10/1/3 -11/1/3
f -2/1/3 -4/1/3 -14/1/3
f -2/1/3 -3/1/3 -4/1/3
f -1/1/3 -10/1/3 -3/1/3
f -1/1/3 -3/1/3 -2/1/3
v -3.5 7 4
v -3.5 9 4
v -3.5 10 4
v -3.5 14 4
v -2.5 10 4
v -2.5 14 4
v 2.5 7 4
v 2.5 9 4
v 3.5 6 4
v 3.5 7 4
v 3.5 9 4
v 4.5 6 4
v 4.5 7 4
v 4.5 9 4
f -10/2/3 -11/2/3 -12/2/3
f -9/2/3 -11/2/3 -10/2/3
f -8/2/3 -13/2/3 -14/2/3
f -7/2/3 -13/2/3 -8/2/3
f -3/1/3 -5/1/3 -6/1/3
f -2/2/3 -4/2/3 -5/2/3
f -2/1/3 -5/1/3 -3/1/3
f -1/2/3 -4/2/3 -2/2/3
v -4.5 0 1
v -4.5 1 1
v -1.5 0 1
v -1.5 1 1
v -0.5 1 1
v -0.5 6 1
v 0.5 0 1
v 0.5 1 1
v 0.5 6 1
v 4.5 0 1
v 4.5 1 1
f -9/1/3 -10/1/3 -11/1/3
f -8/1/3 -10/1/3 -9/1/3
f -4/1/3 -6/1/3 -7/1/3
f -3/1/3 -6/1/3 -4/1/3
f -2/1/3 -4/1/3 -5/1/3
f -1/1/3 -4/1/3 -2/1/3
v -2.5 9 -4
v -2.5 10 -4
v 3.5 9 -4
v 3.5 10 -4
f -2/1/3 -3/1/3 -4/1/3
f -1/1/3 -3/1/3 -2/1/3
v -2.5 9 4
v -2.5 10 4
v 3.5 9 4
v 3.5 10 4
f -4/1/4 -3/1/4 -2/1/4
f -2/1/4 -3/1/4 -1/1/4
v -4.5 0 -1
v -4.5 1 -1
v -1.5 0 -1
v -1.5 1 -1
v -0.5 1 -1
v -0.5 6 -1
v 0.5 0 -1
v 0.5 1 -1
v 0.5 6 -1
v 4.5 0 -1
v 4.5 1 -1
f -11/1/4 -10/1/4 -9/1/4
f -9/1/4 -10/1/4 -8/1/4
f -7/1/4 -6/1/4 -4/1/4
f -4/1/4 -6/1/4 -3/1/4
f -5/1/4 -4/1/4 -2/1/4
f -2/1/4 -4/1/4 -1/1/4
v -3.5 7 -4
v -3.5 9 -4
v -3.5 10 -4
v -3.5 14 -4
v -2.5 10 -4
v -2.5 14 -4
v 2.5 7 -4
v 2.5 9 -4
v 3.5 6 -4
v 3.5 7 -4
v 3.5 9 -4
v 4.5 6 -4
v 4.5 7 -4
v 4.5 9 -4
f -12/2/4 -11/2/4 -10/2/4
f -10/2/4 -11/2/4 -9/2/4
f -14/2/4 -13/2/4 -8/2/4
f -8/2/4 -13/2/4 -7/2/4
f -6/1/4 -5/1/4 -3/1/4
f -5/2/4 -4/2/4 -2/2/4
f -3/1/4 -5/1/4 -2/1/4
f -2/2/4 -4/2/4 -1/2/4
v -4.5 6 -5
v -4.5 14 -5
v -3.5 7 -5
v -3.5 9 -5
v -3.5 10 -5
v -3.5 14 -5
v -1.5 0 -5
v -1.5 1 -5
v 0.5 0 -5
v 0.5 1 -5
v 2.5 7 -5
v 2.5 9 -5
v 3.5 6 -5
v 3.5 10 -5
f -14/1/4 -13/1/4 -12/1/4
f -12/1/4 -13/1/4 -11/1/4
f -11/1/4 -13/1/4 -10/1/4
f -10/1/4 -13/1/4 -9/1/4
f -8/1/4 -7/1/4 -6/1/4
f -6/1/4 -7/1/4 -5/1/4
f -14/1/4 -12/1/4 -4/1/4
f -11/1/4 -10/1/4 -3/1/4
f -14/1/4 -4/1/4 -2/1/4
f -4/1/4 -3/1/4 -2/1/4
f -3/1/4 -10/1/4 -1/1/4
f -2/1/4 -3/1/4 -1/1/4
v -1.5 0 5
v 0.5 0 5
v -4.5 0 1
v -1.5 0 1
v 0.5 0 1
v 4.5 0 1
v -4.5 0 -1
v -1.5 0 -1
v 0.5 0 -1
v 4.5 0 -1
v -1.5 0 -5
v 0.5 0 -5
f -9/1/5 -11/1/5 -12/1/5
f -8/1/5 -11/1/5 -9/1/5
f -6/1/5 -9/1/5 -10/1/5
f -6/1/5 -7/1/5 -8/1/5
f -6/1/5 -8/1/5 -9/1/5
f -5/1/5 -7/1/5 -6/1/5
f -4/1/5 -7/1/5 -5/1/5
f -3/1/5 -7/1/5 -4/1/5
f -2/1/5 -4/1/5 -5/1/5
f -1/1/5 -4/1/5 -2/1/5
v -4.5 6 5
v 3.5 6 5
v -2.5 6 4
v 3.5 6 4
v 4.5 6 4
v -2.5 6 2
v 3.5 6 2
v -2.5 6 1
v -0.5 6 1
v 0.5 6 1
v 3.5 6 1
v -2.5 6 -1
v -0.5 6 -1
v 0.5 6 -1
v 3.5 6 -1
v -2.5 6 -2
v 3.5 6 -2
v -2.5 6 -4
v 3.5 6 -4
v 4.5 6 -4
v -4.5 6 -5
v 3.5 6 -5
f -20/1/5 -21/1/5 -22/1/5
f -19/1/5 -21/1/5 -20/1/5
f -17/1/5 -20/1/5 -22/1/5
f -17/2/5 -19/2/5 -20/2/5
f -16/1/5 -18/1/5 -19/1/5
f -16/2/5 -19/2/5 -17/2/5
f -15/1/5 -17/1/5 -22/1/5
f -15/1/5 -16/1/5 -17/1/5
f -14/1/5 -16/1/5 -15/1/5
f -13/1/5 -16/1/5 -14/1/5
f -12/1/5 -18/1/5 -16/1/5
f -12/1/5 -16/1/5 -13/1/5
f -11/1/5 -15/1/5 -22/1/5
f -11/2/5 -14/2/5 -15/2/5
f -10/2/5 -14/2/5 -11/2/5
f -9/2/5 -12/2/5 -13/2/5
f -8/1/5 -18/1/5 -12/1/5
f -8/2/5 -12/2/5 -9/2/5
f -7/1/5 -9/1/5 -10/1/5
f -7/1/5 -10/1/5 -11/1/5
f -7/1/5 -8/1/5 -9/1/5
f -7/1/5 -11/1/5 -22/1/5
f -6/1/5 -18/1/5 -8/1/5
f -6/1/5 -8/1/5 -7/1/5
f -5/1/5 -7/1/5 -22/1/5
f -5/2/5 -6/2/5 -7/2/5
f -4/1/5 -18/1/5 -6/1/5
f -4/2/5 -6/2/5 -5/2/5
f -3/1/5 -18/1/5 -4/1/5
f -2/1/5 -5/1/5 -22/1/5
f -2/1/5 -4/1/5 -5/1/5
f -1/1/5 -4/1/5 -2/1/5
v -3.5 9 5
v 2.5 9 5
v -3.5 9 4
v 2.5 9 4
v -3.5 9 -4
v 2.5 9 -4
v -3.5 9 -5
v 2.5 9 -5
f -6/1/5 -7/1/5 -8/1/5
f -5/1/5 -7/1/5 -6/1/5
f -2/1/5 -3/1/5 -4/1/5
f -1/1/5 -3/1/5 -2/1/5
v -1.5 1 5
v 0.5 1 5
v -4.5 1 1
v -1.5 1 1
v -0.5 1 1
v 0.5 1 1
v 4.5 1 1
v -4.5 1 -1
v -1.5 1 -1
v -0.5 1 -1
v 0.5 1 -1
v 4.5 1 -1
v -1.5 1 -5
v 0.5 1 -5
f -14/1/6 -13/1/6 -11/1/6
f -11/1/6 -13/1/6 -10/1/6
f -10/1/6 -13/1/6 -9/1/6
f -12/1/6 -11/1/6 -7/1/6
f -11/1/6 -10/1/6 -7/1/6
f -7/1/6 -10/1/6 -6/1/6
f -6/1/6 -10/1/6 -5/1/6
f -9/1/6 -8/1/6 -4/1/6
f -4/1/6 -8/1/6 -3/1/6
f -6/1/6 -5/1/6 -2/1/6
f -5/1/6 -4/1/6 -2/1/6
f -2/1/6 -4/1/6 -1/1/6
v -3.5 7 5
v 2.5 7 5
v -3.5 7 4
v 2.5 7 4
v -3.5 7 -4
v 2.5 7 -4
v -3.5 7 -5
v 2.5 7 -5
f -8/1/6 -7/1/6 -6/1/6
f -6/1/6 -7/1/6 -5/1/6
f -4/1/6 -3/1/6 -2/1/6
f -2/1/6 -3/1/6 -1/1/6
v -2.5 9 4
v 3.5 9 4
v 4.5 9 4
v -2.5 9 -4
v 3.5 9 -4
v 4.5 9 -4
f -6/2/6 -5/2/6 -3/2/6
f -5/2/6 -4/2/6 -3/2/6
f -3/2/6 -4/2/6 -2/2/6
f -2/2/6 -4/2/6 -1/2/6
v -3.5 10 5
v 3.5 10 5
v -3.5 10 4
v -2.5 10 4
v 3.5 10 4
v -3.5 10 -4
v -2.5 10 -4
v 3.5 10 -4
v -3.5 10 -5
v 3.5 10 -5
f -10/1/6 -9/1/6 -8/1/6
f -8/1/6 -9/1/6 -7/1/6
f -7/1/6 -9/1/6 -6/1/6
f -5/1/6 -4/1/6 -2/1/6
f -4/1/6 -3/1/6 -2/1/6
f -2/1/6 -3/1/6 -1/1/6
v -4.5 14 5
v -3.5 14 5
v -3.5 14 4
v -2.5 14 4
v -3.5 14 -4
v -2.5 14 -4
v -4.5 14 -5
v -3.5 14 -5
f -8/1/6 -7/1/6 -6/1/6
f -8/1/6 -6/1/6 -4/1/6
f -6/2/6 -5/2/6 -4/2/6
f -4/2/6 -5/2/6 -3/2/6
f -8/1/6 -4/1/6 -2/1/6
f -2/1/6 -4/1/6 -1/1/6
