# MagicaVoxel @ ephtracy

# material
mtllib B&W Pic 4.mtl
usemtl palette

# normals
vn -1 0 0
vn 1 0 0
vn 0 0 1
vn 0 0 -1
vn 0 -1 0
vn 0 1 0

# texcoords
vt 0.958984 0.5
vt 0.962891 0.5
vt 0.966797 0.5
vt 0.970703 0.5
vt 0.974609 0.5
vt 0.978516 0.5
vt 0.982422 0.5
vt 0.994141 0.5

# verts and faces
v -5.5 0 0.5
v -5.5 0 -0.5
v -5.5 10 0.5
v -5.5 10 -0.5
f -2/8/1 -3/8/1 -4/8/1
f -1/8/1 -3/8/1 -2/8/1
v 5.5 0 0.5
v 5.5 0 -0.5
v 5.5 10 0.5
v 5.5 10 -0.5
f -4/8/2 -3/8/2 -2/8/2
f -2/8/2 -3/8/2 -1/8/2
v -5.5 0 0.5
v -5.5 10 0.5
v -4.5 1 0.5
v -4.5 9 0.5
v -3.5 3 0.5
v -3.5 4 0.5
v -3.5 5 0.5
v -3.5 6 0.5
v -3.5 7 0.5
v -2.5 3 0.5
v -2.5 4 0.5
v -2.5 5 0.5
v -2.5 6 0.5
v -2.5 7 0.5
v -1.5 3 0.5
v -1.5 4 0.5
v -1.5 5 0.5
v -1.5 6 0.5
v -1.5 7 0.5
v -0.5 3 0.5
v -0.5 4 0.5
v -0.5 5 0.5
v -0.5 6 0.5
v -0.5 7 0.5
v 0.5 3 0.5
v 0.5 5 0.5
v 0.5 6 0.5
v 0.5 7 0.5
v 1.5 4 0.5
v 1.5 5 0.5
v 1.5 6 0.5
v 1.5 7 0.5
v 2.5 3 0.5
v 2.5 4 0.5
v 2.5 5 0.5
v 2.5 6 0.5
v 2.5 7 0.5
v 3.5 3 0.5
v 3.5 4 0.5
v 3.5 5 0.5
v 3.5 6 0.5
v 3.5 7 0.5
v 4.5 1 0.5
v 4.5 9 0.5
v 5.5 0 0.5
v 5.5 10 0.5
f -44/8/3 -45/8/3 -46/8/3
f -43/8/3 -45/8/3 -44/8/3
f -42/1/3 -43/1/3 -44/1/3
f -41/1/3 -43/1/3 -42/1/3
f -40/1/3 -43/1/3 -41/1/3
f -39/1/3 -43/1/3 -40/1/3
f -38/1/3 -43/1/3 -39/1/3
f -37/1/3 -42/1/3 -44/1/3
f -37/5/3 -41/5/3 -42/5/3
f -36/7/3 -40/7/3 -41/7/3
f -36/5/3 -41/5/3 -37/5/3
f -35/5/3 -39/5/3 -40/5/3
f -35/7/3 -40/7/3 -36/7/3
f -34/2/3 -38/2/3 -39/2/3
f -34/5/3 -39/5/3 -35/5/3
f -33/1/3 -43/1/3 -38/1/3
f -33/2/3 -38/2/3 -34/2/3
f -32/1/3 -37/1/3 -44/1/3
f -32/4/3 -36/4/3 -37/4/3
f -31/5/3 -35/5/3 -36/5/3
f -31/4/3 -36/4/3 -32/4/3
f -30/2/3 -34/2/3 -35/2/3
f -30/5/3 -35/5/3 -31/5/3
f -29/5/3 -33/5/3 -34/5/3
f -29/2/3 -34/2/3 -30/2/3
f -28/1/3 -43/1/3 -33/1/3
f -28/5/3 -33/5/3 -29/5/3
f -27/5/3 -31/5/3 -32/5/3
f -27/1/3 -32/1/3 -44/1/3
f -26/2/3 -30/2/3 -31/2/3
f -26/5/3 -31/5/3 -27/5/3
f -25/5/3 -29/5/3 -30/5/3
f -25/2/3 -30/2/3 -26/2/3
f -24/7/3 -28/7/3 -29/7/3
f -24/5/3 -29/5/3 -25/5/3
f -23/1/3 -43/1/3 -28/1/3
f -23/7/3 -28/7/3 -24/7/3
f -22/1/3 -24/1/3 -25/1/3
f -22/1/3 -25/1/3 -26/1/3
f -22/1/3 -23/1/3 -24/1/3
f -22/1/3 -27/1/3 -44/1/3
f -22/1/3 -26/1/3 -27/1/3
f -21/1/3 -23/1/3 -22/1/3
f -20/1/3 -23/1/3 -21/1/3
f -19/1/3 -43/1/3 -23/1/3
f -19/1/3 -23/1/3 -20/1/3
f -18/6/3 -21/6/3 -22/6/3
f -17/2/3 -20/2/3 -21/2/3
f -17/6/3 -21/6/3 -18/6/3
f -16/3/3 -19/3/3 -20/3/3
f -16/2/3 -20/2/3 -17/2/3
f -15/1/3 -43/1/3 -19/1/3
f -15/3/3 -19/3/3 -16/3/3
f -14/6/3 -18/6/3 -22/6/3
f -14/1/3 -22/1/3 -44/1/3
f -13/2/3 -17/2/3 -18/2/3
f -13/6/3 -18/6/3 -14/6/3
f -12/3/3 -16/3/3 -17/3/3
f -12/2/3 -17/2/3 -13/2/3
f -11/4/3 -15/4/3 -16/4/3
f -11/3/3 -16/3/3 -12/3/3
f -10/1/3 -43/1/3 -15/1/3
f -10/4/3 -15/4/3 -11/4/3
f -9/2/3 -13/2/3 -14/2/3
f -9/1/3 -14/1/3 -44/1/3
f -8/3/3 -12/3/3 -13/3/3
f -8/2/3 -13/2/3 -9/2/3
f -7/2/3 -11/2/3 -12/2/3
f -7/3/3 -12/3/3 -8/3/3
f -6/6/3 -10/6/3 -11/6/3
f -6/2/3 -11/2/3 -7/2/3
f -5/1/3 -43/1/3 -10/1/3
f -5/6/3 -10/6/3 -6/6/3
f -4/8/3 -44/8/3 -46/8/3
f -4/1/3 -8/1/3 -9/1/3
f -4/1/3 -5/1/3 -6/1/3
f -4/1/3 -7/1/3 -8/1/3
f -4/1/3 -6/1/3 -7/1/3
f -4/1/3 -9/1/3 -44/1/3
f -3/1/3 -43/1/3 -5/1/3
f -3/1/3 -5/1/3 -4/1/3
f -3/8/3 -45/8/3 -43/8/3
f -2/8/3 -4/8/3 -46/8/3
f -2/8/3 -3/8/3 -4/8/3
f -1/8/3 -45/8/3 -3/8/3
f -1/8/3 -3/8/3 -2/8/3
v -5.5 0 -0.5
v -5.5 10 -0.5
v -4.5 1 -0.5
v -4.5 9 -0.5
v -3.5 3 -0.5
v -3.5 4 -0.5
v -3.5 5 -0.5
v -3.5 6 -0.5
v -3.5 7 -0.5
v -2.5 3 -0.5
v -2.5 4 -0.5
v -2.5 5 -0.5
v -2.5 6 -0.5
v -2.5 7 -0.5
v -1.5 3 -0.5
v -1.5 4 -0.5
v -1.5 5 -0.5
v -1.5 6 -0.5
v -1.5 7 -0.5
v -0.5 3 -0.5
v -0.5 4 -0.5
v -0.5 5 -0.5
v -0.5 6 -0.5
v -0.5 7 -0.5
v 0.5 3 -0.5
v 0.5 5 -0.5
v 0.5 6 -0.5
v 0.5 7 -0.5
v 1.5 4 -0.5
v 1.5 5 -0.5
v 1.5 6 -0.5
v 1.5 7 -0.5
v 2.5 3 -0.5
v 2.5 4 -0.5
v 2.5 5 -0.5
v 2.5 6 -0.5
v 2.5 7 -0.5
v 3.5 3 -0.5
v 3.5 4 -0.5
v 3.5 5 -0.5
v 3.5 6 -0.5
v 3.5 7 -0.5
v 4.5 1 -0.5
v 4.5 9 -0.5
v 5.5 0 -0.5
v 5.5 10 -0.5
f -46/8/4 -45/8/4 -44/8/4
f -44/8/4 -45/8/4 -43/8/4
f -44/1/4 -43/1/4 -42/1/4
f -42/1/4 -43/1/4 -41/1/4
f -41/1/4 -43/1/4 -40/1/4
f -40/1/4 -43/1/4 -39/1/4
f -39/1/4 -43/1/4 -38/1/4
f -44/1/4 -42/1/4 -37/1/4
f -42/5/4 -41/5/4 -37/5/4
f -41/7/4 -40/7/4 -36/7/4
f -37/5/4 -41/5/4 -36/5/4
f -40/5/4 -39/5/4 -35/5/4
f -36/7/4 -40/7/4 -35/7/4
f -39/2/4 -38/2/4 -34/2/4
f -35/5/4 -39/5/4 -34/5/4
f -38/1/4 -43/1/4 -33/1/4
f -34/2/4 -38/2/4 -33/2/4
f -44/1/4 -37/1/4 -32/1/4
f -37/4/4 -36/4/4 -32/4/4
f -36/5/4 -35/5/4 -31/5/4
f -32/4/4 -36/4/4 -31/4/4
f -35/2/4 -34/2/4 -30/2/4
f -31/5/4 -35/5/4 -30/5/4
f -34/5/4 -33/5/4 -29/5/4
f -30/2/4 -34/2/4 -29/2/4
f -33/1/4 -43/1/4 -28/1/4
f -29/5/4 -33/5/4 -28/5/4
f -32/5/4 -31/5/4 -27/5/4
f -44/1/4 -32/1/4 -27/1/4
f -31/2/4 -30/2/4 -26/2/4
f -27/5/4 -31/5/4 -26/5/4
f -30/5/4 -29/5/4 -25/5/4
f -26/2/4 -30/2/4 -25/2/4
f -29/7/4 -28/7/4 -24/7/4
f -25/5/4 -29/5/4 -24/5/4
f -28/1/4 -43/1/4 -23/1/4
f -24/7/4 -28/7/4 -23/7/4
f -25/1/4 -24/1/4 -22/1/4
f -26/1/4 -25/1/4 -22/1/4
f -24/1/4 -23/1/4 -22/1/4
f -44/1/4 -27/1/4 -22/1/4
f -27/1/4 -26/1/4 -22/1/4
f -22/1/4 -23/1/4 -21/1/4
f -21/1/4 -23/1/4 -20/1/4
f -23/1/4 -43/1/4 -19/1/4
f -20/1/4 -23/1/4 -19/1/4
f -22/6/4 -21/6/4 -18/6/4
f -21/2/4 -20/2/4 -17/2/4
f -18/6/4 -21/6/4 -17/6/4
f -20/3/4 -19/3/4 -16/3/4
f -17/2/4 -20/2/4 -16/2/4
f -19/1/4 -43/1/4 -15/1/4
f -16/3/4 -19/3/4 -15/3/4
f -22/6/4 -18/6/4 -14/6/4
f -44/1/4 -22/1/4 -14/1/4
f -18/2/4 -17/2/4 -13/2/4
f -14/6/4 -18/6/4 -13/6/4
f -17/3/4 -16/3/4 -12/3/4
f -13/2/4 -17/2/4 -12/2/4
f -16/4/4 -15/4/4 -11/4/4
f -12/3/4 -16/3/4 -11/3/4
f -15/1/4 -43/1/4 -10/1/4
f -11/4/4 -15/4/4 -10/4/4
f -14/2/4 -13/2/4 -9/2/4
f -44/1/4 -14/1/4 -9/1/4
f -13/3/4 -12/3/4 -8/3/4
f -9/2/4 -13/2/4 -8/2/4
f -12/2/4 -11/2/4 -7/2/4
f -8/3/4 -12/3/4 -7/3/4
f -11/6/4 -10/6/4 -6/6/4
f -7/2/4 -11/2/4 -6/2/4
f -10/1/4 -43/1/4 -5/1/4
f -6/6/4 -10/6/4 -5/6/4
f -46/8/4 -44/8/4 -4/8/4
f -9/1/4 -8/1/4 -4/1/4
f -6/1/4 -5/1/4 -4/1/4
f -8/1/4 -7/1/4 -4/1/4
f -7/1/4 -6/1/4 -4/1/4
f -44/1/4 -9/1/4 -4/1/4
f -5/1/4 -43/1/4 -3/1/4
f -4/1/4 -5/1/4 -3/1/4
f -43/8/4 -45/8/4 -3/8/4
f -46/8/4 -4/8/4 -2/8/4
f -4/8/4 -3/8/4 -2/8/4
f -3/8/4 -45/8/4 -1/8/4
f -2/8/4 -3/8/4 -1/8/4
v -5.5 0 0.5
v 5.5 0 0.5
v -5.5 0 -0.5
v 5.5 0 -0.5
f -2/8/5 -3/8/5 -4/8/5
f -1/8/5 -3/8/5 -2/8/5
v -5.5 10 0.5
v 5.5 10 0.5
v -5.5 10 -0.5
v 5.5 10 -0.5
f -4/8/6 -3/8/6 -2/8/6
f -2/8/6 -3/8/6 -1/8/6
