# MagicaVoxel @ ephtracy

# material
mtllib Med Bay Desk.mtl
usemtl palette

# normals
vn -1 0 0
vn 1 0 0
vn 0 0 1
vn 0 0 -1
vn 0 -1 0
vn 0 1 0

# texcoords
vt 0.00585938 0.5
vt 0.310547 0.5
vt 0.337891 0.5

# verts and faces
v -6.5 0 22.5
v -6.5 0 -22.5
v -6.5 1 22.5
v -6.5 1 1.5
v -6.5 1 -1.5
v -6.5 1 -22.5
v -6.5 12 22.5
v -6.5 12 1.5
v -6.5 12 -1.5
v -6.5 12 -22.5
v -6.5 14 22.5
v -6.5 14 -22.5
f -10/3/1 -11/3/1 -12/3/1
f -9/3/1 -11/3/1 -10/3/1
f -8/3/1 -11/3/1 -9/3/1
f -7/3/1 -11/3/1 -8/3/1
f -5/2/1 -8/2/1 -9/2/1
f -4/2/1 -8/2/1 -5/2/1
f -2/3/1 -5/3/1 -6/3/1
f -2/3/1 -3/3/1 -4/3/1
f -2/3/1 -4/3/1 -5/3/1
f -1/3/1 -3/3/1 -2/3/1
v 5.5 1 22.5
v 5.5 1 20.5
v 5.5 1 -20.5
v 5.5 1 -22.5
v 5.5 12 22.5
v 5.5 12 20.5
v 5.5 12 -20.5
v 5.5 12 -22.5
f -4/2/1 -7/2/1 -8/2/1
f -3/2/1 -7/2/1 -4/2/1
f -2/2/1 -5/2/1 -6/2/1
f -1/2/1 -5/2/1 -2/2/1
v -5.5 1 1.5
v -5.5 1 -1.5
v -5.5 12 1.5
v -5.5 12 -1.5
f -4/2/2 -3/2/2 -2/2/2
f -2/2/2 -3/2/2 -1/2/2
v -4.5 0 19.5
v -4.5 0 -19.5
v -4.5 1 19.5
v -4.5 1 -19.5
f -4/3/2 -3/3/2 -2/3/2
f -2/3/2 -3/3/2 -1/3/2
v 6.5 0 22.5
v 6.5 0 20.5
v 6.5 0 19.5
v 6.5 0 -19.5
v 6.5 0 -22.5
v 6.5 1 20.5
v 6.5 1 19.5
v 6.5 1 -19.5
v 6.5 1 -20.5
v 6.5 1 -22.5
v 6.5 12 20.5
v 6.5 12 -20.5
v 6.5 14 22.5
v 6.5 14 -22.5
f -14/2/2 -13/2/2 -9/2/2
f -13/3/2 -12/3/2 -9/3/2
f -9/3/2 -12/3/2 -8/3/2
f -11/3/2 -10/3/2 -7/3/2
f -7/3/2 -10/3/2 -6/3/2
f -6/3/2 -10/3/2 -5/3/2
f -14/2/2 -9/2/2 -4/2/2
f -6/2/2 -5/2/2 -3/2/2
f -14/2/2 -4/2/2 -2/2/2
f -4/2/2 -3/2/2 -2/2/2
f -3/2/2 -5/2/2 -1/2/2
f -2/2/2 -3/2/2 -1/2/2
v -6.5 0 22.5
v -6.5 1 22.5
v -6.5 12 22.5
v -6.5 14 22.5
v 5.5 0 22.5
v 5.5 1 22.5
v 5.5 12 22.5
v 5.5 14 22.5
v 6.5 0 22.5
v 6.5 14 22.5
f -6/3/3 -9/3/3 -10/3/3
f -5/3/3 -9/3/3 -6/3/3
f -4/3/3 -7/3/3 -8/3/3
f -3/3/3 -7/3/3 -4/3/3
f -2/2/3 -5/2/3 -6/2/3
f -2/2/3 -4/2/3 -5/2/3
f -2/2/3 -3/2/3 -4/2/3
f -1/2/3 -3/2/3 -2/2/3
v -6.5 1 1.5
v -6.5 12 1.5
v -5.5 1 1.5
v -5.5 12 1.5
f -2/2/3 -3/2/3 -4/2/3
f -1/2/3 -3/2/3 -2/2/3
v -4.5 0 -19.5
v -4.5 1 -19.5
v 6.5 0 -19.5
v 6.5 1 -19.5
f -2/3/3 -3/3/3 -4/3/3
f -1/3/3 -3/3/3 -2/3/3
v 5.5 1 -20.5
v 5.5 12 -20.5
v 6.5 1 -20.5
v 6.5 12 -20.5
f -2/2/3 -3/2/3 -4/2/3
f -1/2/3 -3/2/3 -2/2/3
v 5.5 1 20.5
v 5.5 12 20.5
v 6.5 1 20.5
v 6.5 12 20.5
f -4/2/4 -3/2/4 -2/2/4
f -2/2/4 -3/2/4 -1/2/4
v -4.5 0 19.5
v -4.5 1 19.5
v 6.5 0 19.5
v 6.5 1 19.5
f -4/3/4 -3/3/4 -2/3/4
f -2/3/4 -3/3/4 -1/3/4
v -6.5 1 -1.5
v -6.5 12 -1.5
v -5.5 1 -1.5
v -5.5 12 -1.5
f -4/2/4 -3/2/4 -2/2/4
f -2/2/4 -3/2/4 -1/2/4
v -6.5 0 -22.5
v -6.5 1 -22.5
v -6.5 12 -22.5
v -6.5 14 -22.5
v 5.5 1 -22.5
v 5.5 12 -22.5
v 5.5 14 -22.5
v 6.5 0 -22.5
v 6.5 1 -22.5
v 6.5 14 -22.5
f -10/3/4 -9/3/4 -6/3/4
f -8/3/4 -7/3/4 -5/3/4
f -5/3/4 -7/3/4 -4/3/4
f -10/3/4 -6/3/4 -3/3/4
f -6/2/4 -5/2/4 -2/2/4
f -3/3/4 -6/3/4 -2/3/4
f -5/2/4 -4/2/4 -2/2/4
f -2/2/4 -4/2/4 -1/2/4
v -6.5 0 22.5
v 5.5 0 22.5
v 6.5 0 22.5
v 5.5 0 20.5
v 6.5 0 20.5
v -4.5 0 19.5
v 6.5 0 19.5
v -4.5 0 -19.5
v 6.5 0 -19.5
v -6.5 0 -22.5
v 6.5 0 -22.5
f -8/3/5 -10/3/5 -11/3/5
f -8/2/5 -9/2/5 -10/2/5
f -7/2/5 -9/2/5 -8/2/5
f -6/3/5 -8/3/5 -11/3/5
f -6/3/5 -7/3/5 -8/3/5
f -5/3/5 -7/3/5 -6/3/5
f -4/3/5 -6/3/5 -11/3/5
f -2/3/5 -4/3/5 -11/3/5
f -2/3/5 -3/3/5 -4/3/5
f -1/3/5 -3/3/5 -2/3/5
v -6.5 12 22.5
v 5.5 12 22.5
v 5.5 12 20.5
v 6.5 12 20.5
v -6.5 12 1.5
v -5.5 12 1.5
v -6.5 12 -1.5
v -5.5 12 -1.5
v 5.5 12 -20.5
v 6.5 12 -20.5
v -6.5 12 -22.5
v 5.5 12 -22.5
f -10/3/5 -11/3/5 -12/3/5
f -8/3/5 -10/3/5 -12/3/5
f -7/3/5 -10/3/5 -8/3/5
f -5/3/5 -10/3/5 -7/3/5
f -4/2/5 -9/2/5 -10/2/5
f -4/3/5 -5/3/5 -6/3/5
f -4/3/5 -10/3/5 -5/3/5
f -3/2/5 -9/2/5 -4/2/5
f -2/3/5 -4/3/5 -6/3/5
f -1/3/5 -4/3/5 -2/3/5
v -6.5 1 22.5
v 5.5 1 22.5
v 5.5 1 20.5
v 6.5 1 20.5
v -4.5 1 19.5
v 6.5 1 19.5
v -6.5 1 1.5
v -5.5 1 1.5
v -6.5 1 -1.5
v -5.5 1 -1.5
v -4.5 1 -19.5
v 6.5 1 -19.5
v 5.5 1 -20.5
v 6.5 1 -20.5
v -6.5 1 -22.5
v 5.5 1 -22.5
f -16/3/6 -15/3/6 -14/3/6
f -16/3/6 -14/3/6 -12/3/6
f -14/3/6 -13/3/6 -12/3/6
f -12/3/6 -13/3/6 -11/3/6
f -16/3/6 -12/3/6 -10/3/6
f -10/3/6 -12/3/6 -9/3/6
f -9/3/6 -12/3/6 -7/3/6
f -7/3/6 -12/3/6 -6/3/6
f -8/3/6 -7/3/6 -6/3/6
f -6/3/6 -5/3/6 -4/3/6
f -4/3/6 -5/3/6 -3/3/6
f -8/3/6 -6/3/6 -2/3/6
f -6/3/6 -4/3/6 -2/3/6
f -2/3/6 -4/3/6 -1/3/6
v -6.5 14 22.5
v 5.5 14 22.5
v 6.5 14 22.5
v -5.5 14 20.5
v 4.5 14 20.5
v -5.5 14 -20.5
v 4.5 14 -20.5
v -6.5 14 -22.5
v 5.5 14 -22.5
v 6.5 14 -22.5
f -10/3/6 -9/3/6 -7/3/6
f -7/3/6 -9/3/6 -6/3/6
f -10/3/6 -7/3/6 -5/3/6
f -7/1/6 -6/1/6 -5/1/6
f -6/3/6 -9/3/6 -4/3/6
f -5/1/6 -6/1/6 -4/1/6
f -10/3/6 -5/3/6 -3/3/6
f -5/3/6 -4/3/6 -3/3/6
f -9/2/6 -8/2/6 -2/2/6
f -3/3/6 -4/3/6 -2/3/6
f -4/3/6 -9/3/6 -2/3/6
f -2/2/6 -8/2/6 -1/2/6
