# MagicaVoxel @ ephtracy

# material
mtllib Conference Room Wall.mtl
usemtl palette

# normals
vn -1 0 0
vn 1 0 0
vn 0 0 1
vn 0 0 -1
vn 0 -1 0
vn 0 1 0

# texcoords
vt 0.337891 0.5
vt 0.341797 0.5
vt 0.478516 0.5
vt 0.962891 0.5
vt 0.978516 0.5

# verts and faces
v -30 0 5
v -30 0 -5
v -30 40 5
v -30 40 -5
f -2/1/1 -3/1/1 -4/1/1
f -1/1/1 -3/1/1 -2/1/1
v 11 7 4
v 11 7 3
v 11 7 -3
v 11 7 -4
v 11 17 4
v 11 17 3
v 11 17 -3
v 11 17 -4
f -4/3/1 -7/3/1 -8/3/1
f -3/3/1 -7/3/1 -4/3/1
f -2/3/1 -5/3/1 -6/3/1
f -1/3/1 -5/3/1 -2/3/1
v 17 25 4
v 17 25 3
v 17 25 -3
v 17 25 -4
v 17 31 4
v 17 31 3
v 17 31 -3
v 17 31 -4
f -4/4/1 -7/4/1 -8/4/1
f -3/4/1 -7/4/1 -4/4/1
f -2/4/1 -5/4/1 -6/4/1
f -1/4/1 -5/4/1 -2/4/1
v 18 4 5
v 18 4 4
v 18 4 -4
v 18 4 -5
v 18 7 4
v 18 7 -4
v 18 17 5
v 18 17 4
v 18 17 -4
v 18 17 -5
v 18 22 5
v 18 22 4
v 18 22 -4
v 18 22 -5
v 18 25 4
v 18 25 -4
v 18 36 5
v 18 36 4
v 18 36 -4
v 18 36 -5
f -16/1/1 -19/1/1 -20/1/1
f -15/1/1 -17/1/1 -18/1/1
f -14/1/1 -16/1/1 -20/1/1
f -13/1/1 -16/1/1 -14/1/1
f -12/1/1 -17/1/1 -15/1/1
f -11/1/1 -17/1/1 -12/1/1
f -6/1/1 -9/1/1 -10/1/1
f -5/1/1 -7/1/1 -8/1/1
f -4/1/1 -6/1/1 -10/1/1
f -3/1/1 -6/1/1 -4/1/1
f -2/1/1 -7/1/1 -5/1/1
f -1/1/1 -7/1/1 -2/1/1
v -26 4 5
v -26 4 4
v -26 4 -4
v -26 4 -5
v -26 17 5
v -26 17 4
v -26 17 -4
v -26 17 -5
v -26 22 5
v -26 22 4
v -26 22 -4
v -26 22 -5
v -26 25 4
v -26 25 3
v -26 25 -3
v -26 25 -4
v -26 30 3
v -26 30 -3
v -26 31 4
v -26 31 3
v -26 31 -3
v -26 31 -4
v -26 32 4
v -26 32 -4
v -26 36 5
v -26 36 4
v -26 36 -4
v -26 36 -5
f -28/1/2 -27/1/2 -24/1/2
f -24/1/2 -27/1/2 -23/1/2
f -26/1/2 -25/1/2 -22/1/2
f -22/1/2 -25/1/2 -21/1/2
f -20/1/2 -19/1/2 -16/1/2
f -18/1/2 -17/1/2 -13/1/2
f -16/1/2 -15/1/2 -12/1/2
f -14/1/2 -13/1/2 -11/1/2
f -16/1/2 -12/1/2 -10/1/2
f -20/1/2 -16/1/2 -10/1/2
f -10/1/2 -12/1/2 -9/1/2
f -11/1/2 -13/1/2 -8/1/2
f -13/1/2 -17/1/2 -7/1/2
f -8/1/2 -13/1/2 -7/1/2
f -20/1/2 -10/1/2 -6/1/2
f -7/1/2 -17/1/2 -5/1/2
f -20/1/2 -6/1/2 -4/1/2
f -4/1/2 -6/1/2 -3/1/2
f -5/1/2 -17/1/2 -2/1/2
f -2/1/2 -17/1/2 -1/1/2
v -23 7 4
v -23 7 3
v -23 7 -3
v -23 7 -4
v -23 16 3
v -23 16 -3
v -23 17 4
v -23 17 3
v -23 17 -3
v -23 17 -4
f -10/2/2 -9/2/2 -6/2/2
f -8/2/2 -7/2/2 -5/2/2
f -10/2/2 -6/2/2 -4/2/2
f -4/2/2 -6/2/2 -3/2/2
f -5/2/2 -7/2/2 -2/2/2
f -2/2/2 -7/2/2 -1/2/2
v 30 0 5
v 30 0 -5
v 30 40 5
v 30 40 -5
f -4/1/2 -3/1/2 -2/1/2
f -2/1/2 -3/1/2 -1/1/2
v -30 0 5
v -30 40 5
v -26 4 5
v -26 17 5
v -26 22 5
v -26 36 5
v 18 4 5
v 18 17 5
v 18 22 5
v 18 36 5
v 30 0 5
v 30 40 5
f -10/1/3 -11/1/3 -12/1/3
f -9/1/3 -11/1/3 -10/1/3
f -8/1/3 -11/1/3 -9/1/3
f -7/1/3 -11/1/3 -8/1/3
f -6/1/3 -10/1/3 -12/1/3
f -5/1/3 -8/1/3 -9/1/3
f -4/1/3 -8/1/3 -5/1/3
f -3/1/3 -11/1/3 -7/1/3
f -2/1/3 -4/1/3 -5/1/3
f -2/1/3 -3/1/3 -4/1/3
f -2/1/3 -6/1/3 -12/1/3
f -2/1/3 -5/1/3 -6/1/3
f -1/1/3 -11/1/3 -3/1/3
f -1/1/3 -3/1/3 -2/1/3
v -26 4 4
v -26 17 4
v -26 22 4
v -26 25 4
v -26 31 4
v -26 32 4
v -26 36 4
v -23 7 4
v -23 17 4
v 8 32 4
v 8 36 4
v 9 31 4
v 9 36 4
v 10 31 4
v 10 36 4
v 11 7 4
v 11 17 4
v 15 7 4
v 15 17 4
v 15 31 4
v 15 36 4
v 17 7 4
v 17 17 4
v 17 25 4
v 17 31 4
v 18 4 4
v 18 7 4
v 18 17 4
v 18 22 4
v 18 25 4
v 18 36 4
f -24/2/3 -30/2/3 -31/2/3
f -23/2/3 -30/2/3 -24/2/3
f -22/5/3 -25/5/3 -26/5/3
f -22/1/3 -26/1/3 -27/1/3
f -21/5/3 -25/5/3 -22/5/3
f -20/1/3 -22/1/3 -27/1/3
f -20/1/3 -21/1/3 -22/1/3
f -19/1/3 -21/1/3 -20/1/3
f -18/4/3 -19/4/3 -20/4/3
f -17/4/3 -19/4/3 -18/4/3
f -16/2/3 -24/2/3 -31/2/3
f -14/2/3 -16/2/3 -31/2/3
f -14/3/3 -15/3/3 -16/3/3
f -13/3/3 -15/3/3 -14/3/3
f -12/3/3 -17/3/3 -18/3/3
f -11/3/3 -17/3/3 -12/3/3
f -10/2/3 -13/2/3 -14/2/3
f -10/2/3 -14/2/3 -31/2/3
f -9/2/3 -13/2/3 -10/2/3
f -8/2/3 -28/2/3 -29/2/3
f -7/4/3 -11/4/3 -12/4/3
f -6/2/3 -10/2/3 -31/2/3
f -5/1/3 -9/1/3 -10/1/3
f -5/2/3 -10/2/3 -6/2/3
f -4/1/3 -9/1/3 -5/1/3
f -3/2/3 -8/2/3 -29/2/3
f -2/4/3 -7/4/3 -8/4/3
f -2/2/3 -8/2/3 -3/2/3
f -1/4/3 -11/4/3 -7/4/3
f -1/4/3 -7/4/3 -2/4/3
v -26 25 3
v -26 30 3
v -26 31 3
v -23 7 3
v -23 16 3
v -23 17 3
v 9 31 3
v 10 7 3
v 10 16 3
v 10 31 3
v 11 7 3
v 11 17 3
v 15 31 3
v 16 25 3
v 16 30 3
v 17 25 3
v 17 31 3
f -11/5/3 -15/5/3 -16/5/3
f -10/1/3 -13/1/3 -14/1/3
f -9/5/3 -12/5/3 -13/5/3
f -9/1/3 -13/1/3 -10/1/3
f -8/5/3 -11/5/3 -16/5/3
f -7/5/3 -9/5/3 -10/5/3
f -6/5/3 -12/5/3 -9/5/3
f -6/5/3 -9/5/3 -7/5/3
f -5/5/3 -8/5/3 -16/5/3
f -4/1/3 -16/1/3 -17/1/3
f -3/5/3 -5/5/3 -16/5/3
f -3/1/3 -16/1/3 -4/1/3
f -2/5/3 -3/5/3 -4/5/3
f -1/5/3 -5/5/3 -3/5/3
f -1/5/3 -3/5/3 -2/5/3
v -26 25 -3
v -26 30 -3
v -26 31 -3
v -23 7 -3
v -23 16 -3
v -23 17 -3
v 9 31 -3
v 10 7 -3
v 10 16 -3
v 10 31 -3
v 11 7 -3
v 11 17 -3
v 15 31 -3
v 16 25 -3
v 16 30 -3
v 17 25 -3
v 17 31 -3
f -16/5/4 -15/5/4 -11/5/4
f -14/1/4 -13/1/4 -10/1/4
f -13/5/4 -12/5/4 -9/5/4
f -10/1/4 -13/1/4 -9/1/4
f -16/5/4 -11/5/4 -8/5/4
f -10/5/4 -9/5/4 -7/5/4
f -9/5/4 -12/5/4 -6/5/4
f -7/5/4 -9/5/4 -6/5/4
f -16/5/4 -8/5/4 -5/5/4
f -17/1/4 -16/1/4 -4/1/4
f -16/5/4 -5/5/4 -3/5/4
f -4/1/4 -16/1/4 -3/1/4
f -4/5/4 -3/5/4 -2/5/4
f -3/5/4 -5/5/4 -1/5/4
f -2/5/4 -3/5/4 -1/5/4
v -26 4 -4
v -26 17 -4
v -26 22 -4
v -26 25 -4
v -26 31 -4
v -26 32 -4
v -26 36 -4
v -23 7 -4
v -23 17 -4
v 8 32 -4
v 8 36 -4
v 9 31 -4
v 9 36 -4
v 10 31 -4
v 10 36 -4
v 11 7 -4
v 11 17 -4
v 15 7 -4
v 15 17 -4
v 15 31 -4
v 15 36 -4
v 17 7 -4
v 17 17 -4
v 17 25 -4
v 17 31 -4
v 18 4 -4
v 18 7 -4
v 18 17 -4
v 18 22 -4
v 18 25 -4
v 18 36 -4
f -31/2/4 -30/2/4 -24/2/4
f -24/2/4 -30/2/4 -23/2/4
f -26/5/4 -25/5/4 -22/5/4
f -27/1/4 -26/1/4 -22/1/4
f -22/5/4 -25/5/4 -21/5/4
f -27/1/4 -22/1/4 -20/1/4
f -22/1/4 -21/1/4 -20/1/4
f -20/1/4 -21/1/4 -19/1/4
f -20/4/4 -19/4/4 -18/4/4
f -18/4/4 -19/4/4 -17/4/4
f -31/2/4 -24/2/4 -16/2/4
f -31/2/4 -16/2/4 -14/2/4
f -16/3/4 -15/3/4 -14/3/4
f -14/3/4 -15/3/4 -13/3/4
f -18/3/4 -17/3/4 -12/3/4
f -12/3/4 -17/3/4 -11/3/4
f -14/2/4 -13/2/4 -10/2/4
f -31/2/4 -14/2/4 -10/2/4
f -10/2/4 -13/2/4 -9/2/4
f -29/2/4 -28/2/4 -8/2/4
f -12/4/4 -11/4/4 -7/4/4
f -31/2/4 -10/2/4 -6/2/4
f -10/1/4 -9/1/4 -5/1/4
f -6/2/4 -10/2/4 -5/2/4
f -5/1/4 -9/1/4 -4/1/4
f -29/2/4 -8/2/4 -3/2/4
f -8/4/4 -7/4/4 -2/4/4
f -3/2/4 -8/2/4 -2/2/4
f -7/4/4 -11/4/4 -1/4/4
f -2/4/4 -7/4/4 -1/4/4
v -30 0 -5
v -30 40 -5
v -26 4 -5
v -26 17 -5
v -26 22 -5
v -26 36 -5
v 18 4 -5
v 18 17 -5
v 18 22 -5
v 18 36 -5
v 30 0 -5
v 30 40 -5
f -12/1/4 -11/1/4 -10/1/4
f -10/1/4 -11/1/4 -9/1/4
f -9/1/4 -11/1/4 -8/1/4
f -8/1/4 -11/1/4 -7/1/4
f -12/1/4 -10/1/4 -6/1/4
f -9/1/4 -8/1/4 -5/1/4
f -5/1/4 -8/1/4 -4/1/4
f -7/1/4 -11/1/4 -3/1/4
f -5/1/4 -4/1/4 -2/1/4
f -4/1/4 -3/1/4 -2/1/4
f -12/1/4 -6/1/4 -2/1/4
f -6/1/4 -5/1/4 -2/1/4
f -3/1/4 -11/1/4 -1/1/4
f -2/1/4 -3/1/4 -1/1/4
v -30 0 5
v 30 0 5
v -30 0 -5
v 30 0 -5
f -2/1/5 -3/1/5 -4/1/5
f -1/1/5 -3/1/5 -2/1/5
v -26 17 5
v 18 17 5
v -26 17 4
v -23 17 4
v 11 17 4
v 15 17 4
v 17 17 4
v 18 17 4
v -23 17 3
v 11 17 3
v -23 17 -3
v 11 17 -3
v -26 17 -4
v -23 17 -4
v 11 17 -4
v 15 17 -4
v 17 17 -4
v 18 17 -4
v -26 17 -5
v 18 17 -5
f -18/1/5 -19/1/5 -20/1/5
f -17/1/5 -19/1/5 -18/1/5
f -16/1/5 -19/1/5 -17/1/5
f -15/1/5 -19/1/5 -16/1/5
f -14/1/5 -19/1/5 -15/1/5
f -13/1/5 -19/1/5 -14/1/5
f -12/1/5 -16/1/5 -17/1/5
f -11/1/5 -16/1/5 -12/1/5
f -7/1/5 -9/1/5 -10/1/5
f -6/1/5 -9/1/5 -7/1/5
f -2/1/5 -6/1/5 -7/1/5
f -2/1/5 -3/1/5 -4/1/5
f -2/1/5 -4/1/5 -5/1/5
f -2/1/5 -5/1/5 -6/1/5
f -2/1/5 -7/1/5 -8/1/5
f -1/1/5 -3/1/5 -2/1/5
v -26 31 4
v 9 31 4
v 10 31 4
v 15 31 4
v 17 31 4
v -26 31 3
v 9 31 3
v 10 31 3
v 15 31 3
v 17 31 3
v -26 31 -3
v 9 31 -3
v 10 31 -3
v 15 31 -3
v 17 31 -3
v -26 31 -4
v 9 31 -4
v 10 31 -4
v 15 31 -4
v 17 31 -4
f -15/1/5 -19/1/5 -20/1/5
f -14/4/5 -18/4/5 -19/4/5
f -14/1/5 -19/1/5 -15/1/5
f -13/3/5 -17/3/5 -18/3/5
f -13/4/5 -18/4/5 -14/4/5
f -12/4/5 -16/4/5 -17/4/5
f -12/3/5 -17/3/5 -13/3/5
f -11/4/5 -16/4/5 -12/4/5
f -5/1/5 -9/1/5 -10/1/5
f -4/4/5 -8/4/5 -9/4/5
f -4/1/5 -9/1/5 -5/1/5
f -3/3/5 -7/3/5 -8/3/5
f -3/4/5 -8/4/5 -4/4/5
f -2/4/5 -6/4/5 -7/4/5
f -2/3/5 -7/3/5 -3/3/5
f -1/4/5 -6/4/5 -2/4/5
v -26 36 5
v 18 36 5
v -26 36 4
v 8 36 4
v 9 36 4
v 10 36 4
v 15 36 4
v 18 36 4
v -26 36 -4
v 8 36 -4
v 9 36 -4
v 10 36 -4
v 15 36 -4
v 18 36 -4
v -26 36 -5
v 18 36 -5
f -14/1/5 -15/1/5 -16/1/5
f -13/1/5 -15/1/5 -14/1/5
f -12/1/5 -15/1/5 -13/1/5
f -11/1/5 -15/1/5 -12/1/5
f -10/1/5 -15/1/5 -11/1/5
f -9/1/5 -15/1/5 -10/1/5
f -2/1/5 -7/1/5 -8/1/5
f -2/1/5 -3/1/5 -4/1/5
f -2/1/5 -4/1/5 -5/1/5
f -2/1/5 -5/1/5 -6/1/5
f -2/1/5 -6/1/5 -7/1/5
f -1/1/5 -3/1/5 -2/1/5
v -26 4 5
v 18 4 5
v -26 4 4
v 18 4 4
v -26 4 -4
v 18 4 -4
v -26 4 -5
v 18 4 -5
f -8/1/6 -7/1/6 -6/1/6
f -6/1/6 -7/1/6 -5/1/6
f -4/1/6 -3/1/6 -2/1/6
f -2/1/6 -3/1/6 -1/1/6
v -23 7 4
v 11 7 4
v -23 7 3
v 10 7 3
v 11 7 3
v -23 7 -3
v 10 7 -3
v 11 7 -3
v -23 7 -4
v 11 7 -4
f -10/2/6 -9/2/6 -8/2/6
f -8/2/6 -9/2/6 -7/2/6
f -7/2/6 -9/2/6 -6/2/6
f -5/2/6 -4/2/6 -2/2/6
f -4/2/6 -3/2/6 -2/2/6
f -2/2/6 -3/2/6 -1/2/6
v -26 22 5
v 18 22 5
v -26 22 4
v 18 22 4
v -26 22 -4
v 18 22 -4
v -26 22 -5
v 18 22 -5
f -8/1/6 -7/1/6 -6/1/6
f -6/1/6 -7/1/6 -5/1/6
f -4/1/6 -3/1/6 -2/1/6
f -2/1/6 -3/1/6 -1/1/6
v -26 25 4
v 17 25 4
v -26 25 3
v 16 25 3
v 17 25 3
v -26 25 -3
v 16 25 -3
v 17 25 -3
v -26 25 -4
v 17 25 -4
f -10/2/6 -9/2/6 -8/2/6
f -8/2/6 -9/2/6 -7/2/6
f -7/2/6 -9/2/6 -6/2/6
f -5/2/6 -4/2/6 -2/2/6
f -4/2/6 -3/2/6 -2/2/6
f -2/2/6 -3/2/6 -1/2/6
v -30 40 5
v 30 40 5
v -30 40 -5
v 30 40 -5
f -4/1/6 -3/1/6 -2/1/6
f -2/1/6 -3/1/6 -1/1/6
