# MagicaVoxel @ ephtracy

# material
mtllib Wall Pendant Mirror.mtl
usemtl palette

# normals
vn -1 0 0
vn 1 0 0
vn 0 0 1
vn 0 0 -1
vn 0 -1 0
vn 0 1 0

# texcoords
vt 0.958984 0.5
vt 0.962891 0.5
vt 0.966797 0.5
vt 0.970703 0.5

# verts and faces
v -3.5 3 0.5
v -3.5 3 -0.5
v -3.5 4 0.5
v -3.5 4 -0.5
f -2/4/1 -3/4/1 -4/4/1
f -1/4/1 -3/4/1 -2/4/1
v -2.5 2 0.5
v -2.5 2 -0.5
v -2.5 3 0.5
v -2.5 3 -0.5
v -2.5 4 0.5
v -2.5 4 -0.5
v -2.5 5 0.5
v -2.5 5 -0.5
f -6/4/1 -7/4/1 -8/4/1
f -5/4/1 -7/4/1 -6/4/1
f -2/4/1 -3/4/1 -4/4/1
f -1/4/1 -3/4/1 -2/4/1
v -1.5 1 0.5
v -1.5 1 -0.5
v -1.5 2 0.5
v -1.5 2 -0.5
v -1.5 5 0.5
v -1.5 5 -0.5
v -1.5 6 0.5
v -1.5 6 -0.5
f -6/4/1 -7/4/1 -8/4/1
f -5/4/1 -7/4/1 -6/4/1
f -2/4/1 -3/4/1 -4/4/1
f -1/4/1 -3/4/1 -2/4/1
v -0.5 0 0.5
v -0.5 0 -0.5
v -0.5 1 0.5
v -0.5 1 -0.5
v -0.5 6 0.5
v -0.5 6 -0.5
v -0.5 7 0.5
v -0.5 7 -0.5
f -6/4/1 -7/4/1 -8/4/1
f -5/4/1 -7/4/1 -6/4/1
f -2/4/1 -3/4/1 -4/4/1
f -1/4/1 -3/4/1 -2/4/1
v 0.5 0 0.5
v 0.5 0 -0.5
v 0.5 1 0.5
v 0.5 1 -0.5
v 0.5 6 0.5
v 0.5 6 -0.5
v 0.5 7 0.5
v 0.5 7 -0.5
f -8/4/2 -7/4/2 -6/4/2
f -6/4/2 -7/4/2 -5/4/2
f -4/4/2 -3/4/2 -2/4/2
f -2/4/2 -3/4/2 -1/4/2
v 1.5 1 0.5
v 1.5 1 -0.5
v 1.5 2 0.5
v 1.5 2 -0.5
v 1.5 5 0.5
v 1.5 5 -0.5
v 1.5 6 0.5
v 1.5 6 -0.5
f -8/4/2 -7/4/2 -6/4/2
f -6/4/2 -7/4/2 -5/4/2
f -4/4/2 -3/4/2 -2/4/2
f -2/4/2 -3/4/2 -1/4/2
v 2.5 2 0.5
v 2.5 2 -0.5
v 2.5 3 0.5
v 2.5 3 -0.5
v 2.5 4 0.5
v 2.5 4 -0.5
v 2.5 5 0.5
v 2.5 5 -0.5
f -8/4/2 -7/4/2 -6/4/2
f -6/4/2 -7/4/2 -5/4/2
f -4/4/2 -3/4/2 -2/4/2
f -2/4/2 -3/4/2 -1/4/2
v 3.5 3 0.5
v 3.5 3 -0.5
v 3.5 4 0.5
v 3.5 4 -0.5
f -4/4/2 -3/4/2 -2/4/2
f -2/4/2 -3/4/2 -1/4/2
v -3.5 3 0.5
v -3.5 4 0.5
v -2.5 2 0.5
v -2.5 3 0.5
v -2.5 4 0.5
v -2.5 5 0.5
v -1.5 1 0.5
v -1.5 2 0.5
v -1.5 3 0.5
v -1.5 4 0.5
v -1.5 5 0.5
v -1.5 6 0.5
v -0.5 0 0.5
v -0.5 1 0.5
v -0.5 2 0.5
v -0.5 3 0.5
v -0.5 4 0.5
v -0.5 5 0.5
v -0.5 6 0.5
v -0.5 7 0.5
v 0.5 0 0.5
v 0.5 1 0.5
v 0.5 2 0.5
v 0.5 4 0.5
v 0.5 5 0.5
v 0.5 6 0.5
v 0.5 7 0.5
v 1.5 1 0.5
v 1.5 2 0.5
v 1.5 3 0.5
v 1.5 4 0.5
v 1.5 5 0.5
v 1.5 6 0.5
v 2.5 2 0.5
v 2.5 3 0.5
v 2.5 4 0.5
v 2.5 5 0.5
v 3.5 3 0.5
v 3.5 4 0.5
f -36/4/3 -38/4/3 -39/4/3
f -35/4/3 -38/4/3 -36/4/3
f -32/4/3 -36/4/3 -37/4/3
f -31/3/3 -35/3/3 -36/3/3
f -31/4/3 -36/4/3 -32/4/3
f -30/4/3 -34/4/3 -35/4/3
f -30/3/3 -35/3/3 -31/3/3
f -29/4/3 -34/4/3 -30/4/3
f -26/4/3 -32/4/3 -33/4/3
f -25/1/3 -31/1/3 -32/1/3
f -25/4/3 -32/4/3 -26/4/3
f -24/2/3 -30/2/3 -31/2/3
f -24/1/3 -31/1/3 -25/1/3
f -23/3/3 -29/3/3 -30/3/3
f -23/2/3 -30/2/3 -24/2/3
f -22/4/3 -28/4/3 -29/4/3
f -22/3/3 -29/3/3 -23/3/3
f -21/4/3 -28/4/3 -22/4/3
f -19/4/3 -26/4/3 -27/4/3
f -18/3/3 -25/3/3 -26/3/3
f -18/4/3 -26/4/3 -19/4/3
f -17/2/3 -23/2/3 -24/2/3
f -17/3/3 -25/3/3 -18/3/3
f -17/2/3 -24/2/3 -25/2/3
f -16/1/3 -22/1/3 -23/1/3
f -16/2/3 -23/2/3 -17/2/3
f -15/3/3 -21/3/3 -22/3/3
f -15/1/3 -22/1/3 -16/1/3
f -14/4/3 -20/4/3 -21/4/3
f -14/3/3 -21/3/3 -15/3/3
f -13/4/3 -20/4/3 -14/4/3
f -12/4/3 -17/4/3 -18/4/3
f -11/3/3 -16/3/3 -17/3/3
f -11/4/3 -17/4/3 -12/4/3
f -10/3/3 -16/3/3 -11/3/3
f -9/2/3 -15/2/3 -16/2/3
f -9/3/3 -16/3/3 -10/3/3
f -8/4/3 -14/4/3 -15/4/3
f -8/2/3 -15/2/3 -9/2/3
f -7/4/3 -14/4/3 -8/4/3
f -6/4/3 -10/4/3 -11/4/3
f -5/3/3 -9/3/3 -10/3/3
f -5/4/3 -10/4/3 -6/4/3
f -4/4/3 -8/4/3 -9/4/3
f -4/3/3 -9/3/3 -5/3/3
f -3/4/3 -8/4/3 -4/4/3
f -2/4/3 -4/4/3 -5/4/3
f -1/4/3 -4/4/3 -2/4/3
v -3.5 3 -0.5
v -3.5 4 -0.5
v -2.5 2 -0.5
v -2.5 3 -0.5
v -2.5 4 -0.5
v -2.5 5 -0.5
v -1.5 1 -0.5
v -1.5 2 -0.5
v -1.5 3 -0.5
v -1.5 4 -0.5
v -1.5 5 -0.5
v -1.5 6 -0.5
v -0.5 0 -0.5
v -0.5 1 -0.5
v -0.5 2 -0.5
v -0.5 3 -0.5
v -0.5 4 -0.5
v -0.5 5 -0.5
v -0.5 6 -0.5
v -0.5 7 -0.5
v 0.5 0 -0.5
v 0.5 1 -0.5
v 0.5 2 -0.5
v 0.5 4 -0.5
v 0.5 5 -0.5
v 0.5 6 -0.5
v 0.5 7 -0.5
v 1.5 1 -0.5
v 1.5 2 -0.5
v 1.5 3 -0.5
v 1.5 4 -0.5
v 1.5 5 -0.5
v 1.5 6 -0.5
v 2.5 2 -0.5
v 2.5 3 -0.5
v 2.5 4 -0.5
v 2.5 5 -0.5
v 3.5 3 -0.5
v 3.5 4 -0.5
f -39/4/4 -38/4/4 -36/4/4
f -36/4/4 -38/4/4 -35/4/4
f -37/4/4 -36/4/4 -32/4/4
f -36/3/4 -35/3/4 -31/3/4
f -32/4/4 -36/4/4 -31/4/4
f -35/4/4 -34/4/4 -30/4/4
f -31/3/4 -35/3/4 -30/3/4
f -30/4/4 -34/4/4 -29/4/4
f -33/4/4 -32/4/4 -26/4/4
f -32/1/4 -31/1/4 -25/1/4
f -26/4/4 -32/4/4 -25/4/4
f -31/2/4 -30/2/4 -24/2/4
f -25/1/4 -31/1/4 -24/1/4
f -30/3/4 -29/3/4 -23/3/4
f -24/2/4 -30/2/4 -23/2/4
f -29/4/4 -28/4/4 -22/4/4
f -23/3/4 -29/3/4 -22/3/4
f -22/4/4 -28/4/4 -21/4/4
f -27/4/4 -26/4/4 -19/4/4
f -26/3/4 -25/3/4 -18/3/4
f -19/4/4 -26/4/4 -18/4/4
f -24/2/4 -23/2/4 -17/2/4
f -18/3/4 -25/3/4 -17/3/4
f -25/2/4 -24/2/4 -17/2/4
f -23/1/4 -22/1/4 -16/1/4
f -17/2/4 -23/2/4 -16/2/4
f -22/3/4 -21/3/4 -15/3/4
f -16/1/4 -22/1/4 -15/1/4
f -21/4/4 -20/4/4 -14/4/4
f -15/3/4 -21/3/4 -14/3/4
f -14/4/4 -20/4/4 -13/4/4
f -18/4/4 -17/4/4 -12/4/4
f -17/3/4 -16/3/4 -11/3/4
f -12/4/4 -17/4/4 -11/4/4
f -11/3/4 -16/3/4 -10/3/4
f -16/2/4 -15/2/4 -9/2/4
f -10/3/4 -16/3/4 -9/3/4
f -15/4/4 -14/4/4 -8/4/4
f -9/2/4 -15/2/4 -8/2/4
f -8/4/4 -14/4/4 -7/4/4
f -11/4/4 -10/4/4 -6/4/4
f -10/3/4 -9/3/4 -5/3/4
f -6/4/4 -10/4/4 -5/4/4
f -9/4/4 -8/4/4 -4/4/4
f -5/3/4 -9/3/4 -4/3/4
f -4/4/4 -8/4/4 -3/4/4
f -5/4/4 -4/4/4 -2/4/4
f -2/4/4 -4/4/4 -1/4/4
v -0.5 0 0.5
v 0.5 0 0.5
v -0.5 0 -0.5
v 0.5 0 -0.5
f -2/4/5 -3/4/5 -4/4/5
f -1/4/5 -3/4/5 -2/4/5
v -1.5 1 0.5
v -0.5 1 0.5
v 0.5 1 0.5
v 1.5 1 0.5
v -1.5 1 -0.5
v -0.5 1 -0.5
v 0.5 1 -0.5
v 1.5 1 -0.5
f -4/4/5 -7/4/5 -8/4/5
f -3/4/5 -7/4/5 -4/4/5
f -2/4/5 -5/4/5 -6/4/5
f -1/4/5 -5/4/5 -2/4/5
v -2.5 2 0.5
v -1.5 2 0.5
v 1.5 2 0.5
v 2.5 2 0.5
v -2.5 2 -0.5
v -1.5 2 -0.5
v 1.5 2 -0.5
v 2.5 2 -0.5
f -4/4/5 -7/4/5 -8/4/5
f -3/4/5 -7/4/5 -4/4/5
f -2/4/5 -5/4/5 -6/4/5
f -1/4/5 -5/4/5 -2/4/5
v -3.5 3 0.5
v -2.5 3 0.5
v 2.5 3 0.5
v 3.5 3 0.5
v -3.5 3 -0.5
v -2.5 3 -0.5
v 2.5 3 -0.5
v 3.5 3 -0.5
f -4/4/5 -7/4/5 -8/4/5
f -3/4/5 -7/4/5 -4/4/5
f -2/4/5 -5/4/5 -6/4/5
f -1/4/5 -5/4/5 -2/4/5
v -3.5 4 0.5
v -2.5 4 0.5
v 2.5 4 0.5
v 3.5 4 0.5
v -3.5 4 -0.5
v -2.5 4 -0.5
v 2.5 4 -0.5
v 3.5 4 -0.5
f -8/4/6 -7/4/6 -4/4/6
f -4/4/6 -7/4/6 -3/4/6
f -6/4/6 -5/4/6 -2/4/6
f -2/4/6 -5/4/6 -1/4/6
v -2.5 5 0.5
v -1.5 5 0.5
v 1.5 5 0.5
v 2.5 5 0.5
v -2.5 5 -0.5
v -1.5 5 -0.5
v 1.5 5 -0.5
v 2.5 5 -0.5
f -8/4/6 -7/4/6 -4/4/6
f -4/4/6 -7/4/6 -3/4/6
f -6/4/6 -5/4/6 -2/4/6
f -2/4/6 -5/4/6 -1/4/6
v -1.5 6 0.5
v -0.5 6 0.5
v 0.5 6 0.5
v 1.5 6 0.5
v -1.5 6 -0.5
v -0.5 6 -0.5
v 0.5 6 -0.5
v 1.5 6 -0.5
f -8/4/6 -7/4/6 -4/4/6
f -4/4/6 -7/4/6 -3/4/6
f -6/4/6 -5/4/6 -2/4/6
f -2/4/6 -5/4/6 -1/4/6
v -0.5 7 0.5
v 0.5 7 0.5
v -0.5 7 -0.5
v 0.5 7 -0.5
f -4/4/6 -3/4/6 -2/4/6
f -2/4/6 -3/4/6 -1/4/6
