# MagicaVoxel @ ephtracy

# material
mtllib Reception Desk.mtl
usemtl palette

# normals
vn -1 0 0
vn 1 0 0
vn 0 0 1
vn 0 0 -1
vn 0 -1 0
vn 0 1 0

# texcoords
vt 0.181641 0.5
vt 0.958984 0.5
vt 0.966797 0.5
vt 0.970703 0.5

# verts and faces
v -7 0 34
v -7 0 -34
v -7 11 34
v -7 11 18
v -7 11 15
v -7 11 6
v -7 11 5
v -7 11 -5
v -7 11 -6
v -7 11 -15
v -7 11 -18
v -7 11 -34
v -7 12 34
v -7 12 18
v -7 12 15
v -7 12 6
v -7 12 5
v -7 12 -5
v -7 12 -6
v -7 12 -15
v -7 12 -18
v -7 12 -34
v -7 13 34
v -7 13 18
v -7 13 15
v -7 13 6
v -7 13 5
v -7 13 -5
v -7 13 -6
v -7 13 -15
v -7 13 -18
v -7 13 -34
v -7 20 35
v -7 20 18
v -7 20 15
v -7 20 6
v -7 20 5
v -7 20 -5
v -7 20 -6
v -7 20 -15
v -7 20 -18
v -7 20 -35
v -7 24 35
v -7 24 -35
v -7 25 35
v -7 25 -35
f -44/4/1 -45/4/1 -46/4/1
f -43/4/1 -45/4/1 -44/4/1
f -42/4/1 -45/4/1 -43/4/1
f -41/4/1 -45/4/1 -42/4/1
f -40/4/1 -45/4/1 -41/4/1
f -39/4/1 -45/4/1 -40/4/1
f -38/4/1 -45/4/1 -39/4/1
f -37/4/1 -45/4/1 -38/4/1
f -36/4/1 -45/4/1 -37/4/1
f -35/4/1 -45/4/1 -36/4/1
f -33/4/1 -42/4/1 -43/4/1
f -32/4/1 -42/4/1 -33/4/1
f -31/4/1 -40/4/1 -41/4/1
f -30/4/1 -40/4/1 -31/4/1
f -29/4/1 -38/4/1 -39/4/1
f -28/4/1 -38/4/1 -29/4/1
f -27/4/1 -36/4/1 -37/4/1
f -26/4/1 -36/4/1 -27/4/1
f -24/4/1 -30/4/1 -31/4/1
f -24/4/1 -25/4/1 -26/4/1
f -24/4/1 -26/4/1 -27/4/1
f -24/4/1 -27/4/1 -28/4/1
f -24/4/1 -28/4/1 -29/4/1
f -24/4/1 -29/4/1 -30/4/1
f -24/4/1 -32/4/1 -33/4/1
f -24/4/1 -31/4/1 -32/4/1
f -24/4/1 -33/4/1 -34/4/1
f -23/4/1 -25/4/1 -24/4/1
f -22/4/1 -25/4/1 -23/4/1
f -21/4/1 -25/4/1 -22/4/1
f -20/4/1 -25/4/1 -21/4/1
f -19/4/1 -25/4/1 -20/4/1
f -18/4/1 -25/4/1 -19/4/1
f -17/4/1 -25/4/1 -18/4/1
f -16/4/1 -25/4/1 -17/4/1
f -15/4/1 -25/4/1 -16/4/1
f -13/4/1 -22/4/1 -23/4/1
f -12/4/1 -22/4/1 -13/4/1
f -11/4/1 -20/4/1 -21/4/1
f -10/4/1 -20/4/1 -11/4/1
f -9/4/1 -18/4/1 -19/4/1
f -8/4/1 -18/4/1 -9/4/1
f -7/4/1 -16/4/1 -17/4/1
f -6/4/1 -16/4/1 -7/4/1
f -4/3/1 -6/3/1 -7/3/1
f -4/3/1 -5/3/1 -6/3/1
f -4/3/1 -7/3/1 -8/3/1
f -4/3/1 -9/3/1 -10/3/1
f -4/3/1 -10/3/1 -11/3/1
f -4/3/1 -11/3/1 -12/3/1
f -4/3/1 -8/3/1 -9/3/1
f -4/3/1 -13/3/1 -14/3/1
f -4/3/1 -12/3/1 -13/3/1
f -3/3/1 -5/3/1 -4/3/1
f -2/4/1 -3/4/1 -4/4/1
f -1/4/1 -3/4/1 -2/4/1
v -6 11 15
v -6 11 12
v -6 11 -12
v -6 11 -15
v -6 12 15
v -6 12 12
v -6 12 -12
v -6 12 -15
v -6 13 34
v -6 13 18
v -6 13 15
v -6 13 6
v -6 13 5
v -6 13 -5
v -6 13 -6
v -6 13 -15
v -6 13 -18
v -6 13 -34
v -6 17 34
v -6 17 18
v -6 17 15
v -6 17 12
v -6 17 6
v -6 17 5
v -6 17 -5
v -6 17 -6
v -6 17 -12
v -6 17 -15
v -6 17 -18
v -6 17 -34
v -6 18 34
v -6 18 18
v -6 18 12
v -6 18 6
v -6 18 5
v -6 18 -5
v -6 18 -6
v -6 18 -12
v -6 18 -18
v -6 18 -34
v -6 20 34
v -6 20 18
v -6 20 15
v -6 20 6
v -6 20 5
v -6 20 -5
v -6 20 -6
v -6 20 -15
v -6 20 -18
v -6 20 -34
f -46/4/1 -49/4/1 -50/4/1
f -45/4/1 -49/4/1 -46/4/1
f -44/4/1 -47/4/1 -48/4/1
f -43/4/1 -47/4/1 -44/4/1
f -32/1/1 -41/1/1 -42/1/1
f -31/1/1 -41/1/1 -32/1/1
f -30/1/1 -39/1/1 -40/1/1
f -29/1/1 -39/1/1 -30/1/1
f -28/1/1 -39/1/1 -29/1/1
f -27/1/1 -37/1/1 -38/1/1
f -26/1/1 -37/1/1 -27/1/1
f -25/1/1 -35/1/1 -36/1/1
f -24/1/1 -35/1/1 -25/1/1
f -23/1/1 -35/1/1 -24/1/1
f -22/1/1 -33/1/1 -34/1/1
f -21/1/1 -33/1/1 -22/1/1
f -18/4/1 -29/4/1 -30/4/1
f -13/4/1 -23/4/1 -24/4/1
f -10/4/1 -19/4/1 -20/4/1
f -9/4/1 -19/4/1 -10/4/1
f -8/4/1 -18/4/1 -30/4/1
f -8/4/1 -17/4/1 -18/4/1
f -7/4/1 -17/4/1 -8/4/1
f -6/4/1 -15/4/1 -16/4/1
f -5/4/1 -15/4/1 -6/4/1
f -4/4/1 -13/4/1 -14/4/1
f -3/4/1 -23/4/1 -13/4/1
f -3/4/1 -13/4/1 -4/4/1
f -2/4/1 -11/4/1 -12/4/1
f -1/4/1 -11/4/1 -2/4/1
v 5 11 34
v 5 11 33
v 5 12 34
v 5 12 33
f -2/4/1 -3/4/1 -4/4/1
f -1/4/1 -3/4/1 -2/4/1
v 6 0 35
v 6 0 33
v 6 0 -33
v 6 0 -35
v 6 1 34
v 6 1 33
v 6 1 -33
v 6 1 -34
v 6 11 -33
v 6 11 -34
v 6 12 -33
v 6 12 -34
v 6 13 34
v 6 13 -34
v 6 17 34
v 6 17 33
v 6 17 -33
v 6 17 -34
v 6 18 34
v 6 18 33
v 6 18 -33
v 6 18 -34
v 6 20 35
v 6 20 34
v 6 20 -34
v 6 20 -35
f -22/4/1 -25/4/1 -26/4/1
f -21/4/1 -25/4/1 -22/4/1
f -20/4/1 -23/4/1 -24/4/1
f -19/4/1 -23/4/1 -20/4/1
f -17/4/1 -23/4/1 -19/4/1
f -16/4/1 -17/4/1 -18/4/1
f -15/4/1 -23/4/1 -17/4/1
f -15/4/1 -17/4/1 -16/4/1
f -14/4/1 -22/4/1 -26/4/1
f -13/4/1 -23/4/1 -15/4/1
f -12/4/1 -14/4/1 -26/4/1
f -9/4/1 -23/4/1 -13/4/1
f -8/4/1 -11/4/1 -12/4/1
f -8/4/1 -12/4/1 -26/4/1
f -7/4/1 -11/4/1 -8/4/1
f -6/4/1 -9/4/1 -10/4/1
f -5/4/1 -23/4/1 -9/4/1
f -5/4/1 -9/4/1 -6/4/1
f -4/4/1 -8/4/1 -26/4/1
f -3/4/1 -8/4/1 -4/4/1
f -2/4/1 -23/4/1 -5/4/1
f -1/4/1 -23/4/1 -2/4/1
v -6 0 34
v -6 0 18
v -6 0 12
v -6 0 -12
v -6 0 -18
v -6 0 -34
v -6 1 34
v -6 1 33
v -6 1 -33
v -6 1 -34
v -6 11 33
v -6 11 18
v -6 11 12
v -6 11 6
v -6 11 5
v -6 11 -5
v -6 11 -6
v -6 11 -12
v -6 11 -18
v -6 11 -33
v -6 12 33
v -6 12 18
v -6 12 12
v -6 12 6
v -6 12 5
v -6 12 -5
v -6 12 -6
v -6 12 -12
v -6 12 -18
v -6 12 -33
v -6 13 33
v -6 13 18
v -6 13 12
v -6 13 -12
v -6 13 -18
v -6 13 -33
v -6 17 6
v -6 17 5
v -6 17 -5
v -6 17 -6
v -6 18 6
v -6 18 5
v -6 18 -5
v -6 18 -6
f -44/4/2 -43/4/2 -38/4/2
f -38/4/2 -43/4/2 -37/4/2
f -40/4/2 -39/4/2 -36/4/2
f -36/4/2 -39/4/2 -35/4/2
f -37/4/2 -43/4/2 -34/4/2
f -34/4/2 -43/4/2 -33/4/2
f -42/4/2 -41/4/2 -32/4/2
f -32/4/2 -41/4/2 -31/4/2
f -31/4/2 -41/4/2 -30/4/2
f -30/4/2 -41/4/2 -29/4/2
f -29/4/2 -41/4/2 -28/4/2
f -28/4/2 -41/4/2 -27/4/2
f -40/4/2 -36/4/2 -26/4/2
f -26/4/2 -36/4/2 -25/4/2
f -31/4/2 -30/4/2 -21/4/2
f -21/4/2 -30/4/2 -20/4/2
f -29/4/2 -28/4/2 -19/4/2
f -19/4/2 -28/4/2 -18/4/2
f -24/4/2 -23/4/2 -14/4/2
f -14/4/2 -23/4/2 -13/4/2
f -21/4/2 -20/4/2 -12/4/2
f -22/4/2 -21/4/2 -12/4/2
f -20/4/2 -19/4/2 -12/4/2
f -18/4/2 -17/4/2 -12/4/2
f -19/4/2 -18/4/2 -12/4/2
f -12/4/2 -17/4/2 -11/4/2
f -16/4/2 -15/4/2 -10/4/2
f -10/4/2 -15/4/2 -9/4/2
f -8/4/2 -7/4/2 -4/4/2
f -4/4/2 -7/4/2 -3/4/2
f -6/4/2 -5/4/2 -2/4/2
f -2/4/2 -5/4/2 -1/4/2
v -5 13 33
v -5 13 18
v -5 13 12
v -5 13 -12
v -5 13 -18
v -5 13 -33
v -5 17 33
v -5 17 18
v -5 17 12
v -5 17 -12
v -5 17 -18
v -5 17 -33
v -5 18 33
v -5 18 18
v -5 18 12
v -5 18 -12
v -5 18 -18
v -5 18 -33
v -5 19 33
v -5 19 18
v -5 19 12
v -5 19 -12
v -5 19 -18
v -5 19 -33
f -24/1/2 -23/1/2 -18/1/2
f -18/1/2 -23/1/2 -17/1/2
f -22/1/2 -21/1/2 -16/1/2
f -16/1/2 -21/1/2 -15/1/2
f -20/1/2 -19/1/2 -14/1/2
f -14/1/2 -19/1/2 -13/1/2
f -12/4/2 -11/4/2 -6/4/2
f -6/4/2 -11/4/2 -5/4/2
f -10/4/2 -9/4/2 -4/4/2
f -4/4/2 -9/4/2 -3/4/2
f -8/4/2 -7/4/2 -2/4/2
f -2/4/2 -7/4/2 -1/4/2
v -4 0 18
v -4 0 12
v -4 0 -12
v -4 0 -18
v -4 19 18
v -4 19 12
v -4 19 -12
v -4 19 -18
f -8/4/2 -7/4/2 -4/4/2
f -4/4/2 -7/4/2 -3/4/2
f -6/4/2 -5/4/2 -2/4/2
f -2/4/2 -5/4/2 -1/4/2
v 7 0 35
v 7 0 33
v 7 0 -33
v 7 0 -35
v 7 19 33
v 7 19 -33
v 7 25 35
v 7 25 -35
f -8/4/2 -7/4/2 -4/4/2
f -6/4/2 -5/4/2 -3/4/2
f -8/4/2 -4/4/2 -2/4/2
f -4/4/2 -3/4/2 -2/4/2
f -3/4/2 -5/4/2 -1/4/2
f -2/4/2 -3/4/2 -1/4/2
v -7 20 35
v -7 24 35
v -7 25 35
v 6 0 35
v 6 20 35
v 6 24 35
v 7 0 35
v 7 25 35
f -4/3/3 -7/3/3 -8/3/3
f -3/4/3 -6/4/3 -7/4/3
f -3/3/3 -7/3/3 -4/3/3
f -2/4/3 -4/4/3 -5/4/3
f -2/4/3 -3/4/3 -4/4/3
f -1/4/3 -6/4/3 -3/4/3
f -1/4/3 -3/4/3 -2/4/3
v -7 0 34
v -7 11 34
v -7 12 34
v -7 13 34
v -6 0 34
v -6 1 34
v -6 13 34
v -6 17 34
v -6 18 34
v -6 20 34
v 5 11 34
v 5 12 34
v 6 1 34
v 6 13 34
v 6 17 34
v 6 18 34
v 6 20 34
f -13/4/3 -16/4/3 -17/4/3
f -12/4/3 -16/4/3 -13/4/3
f -11/4/3 -14/4/3 -15/4/3
f -7/4/3 -16/4/3 -12/4/3
f -6/4/3 -11/4/3 -15/4/3
f -5/4/3 -7/4/3 -12/4/3
f -5/4/3 -6/4/3 -7/4/3
f -4/1/3 -10/1/3 -11/1/3
f -4/4/3 -6/4/3 -5/4/3
f -4/4/3 -11/4/3 -6/4/3
f -3/1/3 -10/1/3 -4/1/3
f -2/4/3 -8/4/3 -9/4/3
f -1/4/3 -8/4/3 -2/4/3
v -7 11 18
v -7 12 18
v -7 13 18
v -7 20 18
v -6 0 18
v -6 11 18
v -6 12 18
v -6 13 18
v -6 17 18
v -6 18 18
v -6 20 18
v -5 13 18
v -5 17 18
v -5 18 18
v -5 19 18
v -4 0 18
v -4 19 18
f -12/4/3 -16/4/3 -17/4/3
f -11/4/3 -16/4/3 -12/4/3
f -10/4/3 -14/4/3 -15/4/3
f -9/4/3 -14/4/3 -10/4/3
f -8/4/3 -14/4/3 -9/4/3
f -7/4/3 -14/4/3 -8/4/3
f -6/4/3 -11/4/3 -12/4/3
f -6/4/3 -12/4/3 -13/4/3
f -6/4/3 -10/4/3 -11/4/3
f -5/4/3 -8/4/3 -9/4/3
f -4/4/3 -8/4/3 -5/4/3
f -2/4/3 -6/4/3 -13/4/3
f -2/4/3 -3/4/3 -4/4/3
f -2/4/3 -4/4/3 -5/4/3
f -2/4/3 -5/4/3 -6/4/3
f -1/4/3 -3/4/3 -2/4/3
v -7 11 6
v -7 12 6
v -7 13 6
v -7 20 6
v -6 11 6
v -6 12 6
v -6 13 6
v -6 17 6
v -6 18 6
v -6 20 6
f -6/4/3 -9/4/3 -10/4/3
f -5/4/3 -9/4/3 -6/4/3
f -4/4/3 -7/4/3 -8/4/3
f -3/4/3 -7/4/3 -4/4/3
f -2/4/3 -7/4/3 -3/4/3
f -1/4/3 -7/4/3 -2/4/3
v -7 11 -5
v -7 12 -5
v -7 13 -5
v -7 20 -5
v -6 11 -5
v -6 12 -5
v -6 13 -5
v -6 17 -5
v -6 18 -5
v -6 20 -5
f -6/4/3 -9/4/3 -10/4/3
f -5/4/3 -9/4/3 -6/4/3
f -4/4/3 -7/4/3 -8/4/3
f -3/4/3 -7/4/3 -4/4/3
f -2/4/3 -7/4/3 -3/4/3
f -1/4/3 -7/4/3 -2/4/3
v -6 0 -12
v -6 11 -12
v -6 12 -12
v -6 13 -12
v -6 17 -12
v -6 18 -12
v -5 13 -12
v -5 17 -12
v -5 18 -12
v -5 19 -12
v -4 0 -12
v -4 19 -12
f -6/4/3 -11/4/3 -12/4/3
f -6/4/3 -10/4/3 -11/4/3
f -6/4/3 -9/4/3 -10/4/3
f -5/4/3 -7/4/3 -8/4/3
f -4/4/3 -7/4/3 -5/4/3
f -2/4/3 -6/4/3 -12/4/3
f -2/4/3 -3/4/3 -4/4/3
f -2/4/3 -4/4/3 -5/4/3
f -2/4/3 -5/4/3 -6/4/3
f -1/4/3 -3/4/3 -2/4/3
v -7 11 -15
v -7 12 -15
v -7 13 -15
v -7 20 -15
v -6 11 -15
v -6 12 -15
v -6 13 -15
v -6 17 -15
v -6 20 -15
f -5/4/3 -8/4/3 -9/4/3
f -4/4/3 -8/4/3 -5/4/3
f -3/4/3 -6/4/3 -7/4/3
f -2/4/3 -6/4/3 -3/4/3
f -1/4/3 -6/4/3 -2/4/3
v -6 1 -33
v -6 11 -33
v -6 12 -33
v -6 13 -33
v -5 13 -33
v -5 17 -33
v -5 18 -33
v -5 19 -33
v 6 0 -33
v 6 1 -33
v 6 11 -33
v 6 12 -33
v 6 13 -33
v 6 17 -33
v 6 18 -33
v 7 0 -33
v 7 19 -33
f -13/4/3 -14/4/3 -15/4/3
f -8/4/3 -16/4/3 -17/4/3
f -7/4/3 -16/4/3 -8/4/3
f -6/4/3 -13/4/3 -15/4/3
f -5/1/3 -12/1/3 -13/1/3
f -5/4/3 -13/4/3 -6/4/3
f -4/1/3 -12/1/3 -5/1/3
f -3/4/3 -10/4/3 -11/4/3
f -2/4/3 -4/4/3 -5/4/3
f -2/4/3 -3/4/3 -4/4/3
f -2/4/3 -7/4/3 -8/4/3
f -2/4/3 -6/4/3 -7/4/3
f -2/4/3 -5/4/3 -6/4/3
f -2/4/3 -8/4/3 -9/4/3
f -1/4/3 -10/4/3 -3/4/3
f -1/4/3 -3/4/3 -2/4/3
v -6 1 33
v -6 11 33
v -6 12 33
v -6 13 33
v -5 13 33
v -5 17 33
v -5 18 33
v -5 19 33
v 5 11 33
v 5 12 33
v 6 0 33
v 6 1 33
v 6 13 33
v 6 17 33
v 6 18 33
v 7 0 33
v 7 19 33
f -15/4/4 -14/4/4 -13/4/4
f -17/4/4 -16/4/4 -9/4/4
f -15/4/4 -13/4/4 -8/4/4
f -17/4/4 -9/4/4 -6/4/4
f -9/4/4 -8/4/4 -6/4/4
f -8/4/4 -13/4/4 -5/4/4
f -13/1/4 -12/1/4 -5/1/4
f -6/4/4 -8/4/4 -5/4/4
f -5/1/4 -12/1/4 -4/1/4
f -11/4/4 -10/4/4 -3/4/4
f -5/4/4 -4/4/4 -2/4/4
f -4/4/4 -3/4/4 -2/4/4
f -7/4/4 -6/4/4 -2/4/4
f -6/4/4 -5/4/4 -2/4/4
f -3/4/4 -10/4/4 -1/4/4
f -2/4/4 -3/4/4 -1/4/4
v -7 11 15
v -7 12 15
v -7 13 15
v -7 20 15
v -6 11 15
v -6 12 15
v -6 13 15
v -6 17 15
v -6 20 15
f -9/4/4 -8/4/4 -5/4/4
f -5/4/4 -8/4/4 -4/4/4
f -7/4/4 -6/4/4 -3/4/4
f -3/4/4 -6/4/4 -2/4/4
f -2/4/4 -6/4/4 -1/4/4
v -6 0 12
v -6 11 12
v -6 12 12
v -6 13 12
v -6 17 12
v -6 18 12
v -5 13 12
v -5 17 12
v -5 18 12
v -5 19 12
v -4 0 12
v -4 19 12
f -12/4/4 -11/4/4 -6/4/4
f -11/4/4 -10/4/4 -6/4/4
f -10/4/4 -9/4/4 -6/4/4
f -8/4/4 -7/4/4 -5/4/4
f -5/4/4 -7/4/4 -4/4/4
f -12/4/4 -6/4/4 -2/4/4
f -4/4/4 -3/4/4 -2/4/4
f -5/4/4 -4/4/4 -2/4/4
f -6/4/4 -5/4/4 -2/4/4
f -2/4/4 -3/4/4 -1/4/4
v -7 11 5
v -7 12 5
v -7 13 5
v -7 20 5
v -6 11 5
v -6 12 5
v -6 13 5
v -6 17 5
v -6 18 5
v -6 20 5
f -10/4/4 -9/4/4 -6/4/4
f -6/4/4 -9/4/4 -5/4/4
f -8/4/4 -7/4/4 -4/4/4
f -4/4/4 -7/4/4 -3/4/4
f -3/4/4 -7/4/4 -2/4/4
f -2/4/4 -7/4/4 -1/4/4
v -7 11 -6
v -7 12 -6
v -7 13 -6
v -7 20 -6
v -6 11 -6
v -6 12 -6
v -6 13 -6
v -6 17 -6
v -6 18 -6
v -6 20 -6
f -10/4/4 -9/4/4 -6/4/4
f -6/4/4 -9/4/4 -5/4/4
f -8/4/4 -7/4/4 -4/4/4
f -4/4/4 -7/4/4 -3/4/4
f -3/4/4 -7/4/4 -2/4/4
f -2/4/4 -7/4/4 -1/4/4
v -7 11 -18
v -7 12 -18
v -7 13 -18
v -7 20 -18
v -6 0 -18
v -6 11 -18
v -6 12 -18
v -6 13 -18
v -6 17 -18
v -6 18 -18
v -6 20 -18
v -5 13 -18
v -5 17 -18
v -5 18 -18
v -5 19 -18
v -4 0 -18
v -4 19 -18
f -17/4/4 -16/4/4 -12/4/4
f -12/4/4 -16/4/4 -11/4/4
f -15/4/4 -14/4/4 -10/4/4
f -10/4/4 -14/4/4 -9/4/4
f -9/4/4 -14/4/4 -8/4/4
f -8/4/4 -14/4/4 -7/4/4
f -12/4/4 -11/4/4 -6/4/4
f -13/4/4 -12/4/4 -6/4/4
f -11/4/4 -10/4/4 -6/4/4
f -9/4/4 -8/4/4 -5/4/4
f -5/4/4 -8/4/4 -4/4/4
f -13/4/4 -6/4/4 -2/4/4
f -4/4/4 -3/4/4 -2/4/4
f -5/4/4 -4/4/4 -2/4/4
f -6/4/4 -5/4/4 -2/4/4
f -2/4/4 -3/4/4 -1/4/4
v -7 0 -34
v -7 11 -34
v -7 12 -34
v -7 13 -34
v -6 0 -34
v -6 1 -34
v -6 13 -34
v -6 17 -34
v -6 18 -34
v -6 20 -34
v 6 1 -34
v 6 11 -34
v 6 12 -34
v 6 13 -34
v 6 17 -34
v 6 18 -34
v 6 20 -34
f -17/4/4 -16/4/4 -13/4/4
f -13/4/4 -16/4/4 -12/4/4
f -15/4/4 -14/4/4 -11/4/4
f -12/4/4 -16/4/4 -7/4/4
f -7/4/4 -16/4/4 -6/4/4
f -15/4/4 -11/4/4 -5/4/4
f -11/1/4 -10/1/4 -4/1/4
f -5/4/4 -11/4/4 -4/4/4
f -4/1/4 -10/1/4 -3/1/4
f -9/4/4 -8/4/4 -2/4/4
f -2/4/4 -8/4/4 -1/4/4
v -7 20 -35
v -7 24 -35
v -7 25 -35
v 6 0 -35
v 6 20 -35
v 6 24 -35
v 7 0 -35
v 7 25 -35
f -8/3/4 -7/3/4 -4/3/4
f -7/4/4 -6/4/4 -3/4/4
f -4/3/4 -7/3/4 -3/3/4
f -5/4/4 -4/4/4 -2/4/4
f -4/4/4 -3/4/4 -2/4/4
f -3/4/4 -6/4/4 -1/4/4
f -2/4/4 -3/4/4 -1/4/4
v 6 0 35
v 7 0 35
v -7 0 34
v -6 0 34
v 6 0 33
v 7 0 33
v -6 0 18
v -4 0 18
v -6 0 12
v -4 0 12
v -6 0 -12
v -4 0 -12
v -6 0 -18
v -4 0 -18
v 6 0 -33
v 7 0 -33
v -7 0 -34
v -6 0 -34
v 6 0 -35
v 7 0 -35
f -16/4/5 -19/4/5 -20/4/5
f -15/4/5 -19/4/5 -16/4/5
f -14/4/5 -17/4/5 -18/4/5
f -12/4/5 -14/4/5 -18/4/5
f -12/4/5 -13/4/5 -14/4/5
f -11/4/5 -13/4/5 -12/4/5
f -10/4/5 -12/4/5 -18/4/5
f -8/4/5 -10/4/5 -18/4/5
f -8/4/5 -9/4/5 -10/4/5
f -7/4/5 -9/4/5 -8/4/5
f -4/4/5 -8/4/5 -18/4/5
f -3/4/5 -8/4/5 -4/4/5
f -2/4/5 -5/4/5 -6/4/5
f -1/4/5 -5/4/5 -2/4/5
v -6 1 34
v 6 1 34
v -6 1 33
v 6 1 33
v -6 1 -33
v 6 1 -33
v -6 1 -34
v 6 1 -34
f -6/4/5 -7/4/5 -8/4/5
f -5/4/5 -7/4/5 -6/4/5
f -2/4/5 -3/4/5 -4/4/5
f -1/4/5 -3/4/5 -2/4/5
v -7 12 34
v 5 12 34
v -6 12 33
v 5 12 33
v -7 12 18
v -6 12 18
v -7 12 15
v -6 12 15
v -6 12 12
v -7 12 6
v -6 12 6
v -7 12 5
v -6 12 5
v -7 12 -5
v -6 12 -5
v -7 12 -6
v -6 12 -6
v -6 12 -12
v -7 12 -15
v -6 12 -15
v -7 12 -18
v -6 12 -18
v -6 12 -33
v 6 12 -33
v -7 12 -34
v 6 12 -34
f -24/4/5 -25/4/5 -26/4/5
f -23/4/5 -25/4/5 -24/4/5
f -22/4/5 -24/4/5 -26/4/5
f -21/4/5 -24/4/5 -22/4/5
f -18/4/5 -19/4/5 -20/4/5
f -17/4/5 -18/4/5 -20/4/5
f -16/4/5 -18/4/5 -17/4/5
f -13/4/5 -14/4/5 -15/4/5
f -12/4/5 -14/4/5 -13/4/5
f -9/4/5 -10/4/5 -11/4/5
f -8/4/5 -9/4/5 -11/4/5
f -7/4/5 -9/4/5 -8/4/5
f -4/4/5 -5/4/5 -6/4/5
f -2/4/5 -4/4/5 -6/4/5
f -2/4/5 -3/4/5 -4/4/5
f -1/4/5 -3/4/5 -2/4/5
v -6 13 33
v -5 13 33
v -6 13 18
v -5 13 18
v -6 13 12
v -5 13 12
v -6 13 -12
v -5 13 -12
v -6 13 -18
v -5 13 -18
v -6 13 -33
v -5 13 -33
f -10/1/5 -11/1/5 -12/1/5
f -9/1/5 -11/1/5 -10/1/5
f -6/1/5 -7/1/5 -8/1/5
f -5/1/5 -7/1/5 -6/1/5
f -2/1/5 -3/1/5 -4/1/5
f -1/1/5 -3/1/5 -2/1/5
v -6 18 34
v 6 18 34
v -5 18 33
v 6 18 33
v -6 18 18
v -5 18 18
v -6 18 12
v -5 18 12
v -6 18 6
v -6 18 5
v -6 18 -5
v -6 18 -6
v -6 18 -12
v -5 18 -12
v -6 18 -18
v -5 18 -18
v -5 18 -33
v 6 18 -33
v -6 18 -34
v 6 18 -34
f -18/4/5 -19/4/5 -20/4/5
f -17/4/5 -19/4/5 -18/4/5
f -16/4/5 -18/4/5 -20/4/5
f -15/4/5 -18/4/5 -16/4/5
f -12/4/5 -13/4/5 -14/4/5
f -11/4/5 -13/4/5 -12/4/5
f -10/4/5 -13/4/5 -11/4/5
f -9/4/5 -13/4/5 -10/4/5
f -8/4/5 -13/4/5 -9/4/5
f -7/4/5 -13/4/5 -8/4/5
f -4/4/5 -5/4/5 -6/4/5
f -2/4/5 -4/4/5 -6/4/5
f -2/4/5 -3/4/5 -4/4/5
f -1/4/5 -3/4/5 -2/4/5
v -5 19 33
v 7 19 33
v -5 19 18
v -4 19 18
v -5 19 12
v -4 19 12
v -5 19 -12
v -4 19 -12
v -5 19 -18
v -4 19 -18
v -5 19 -33
v 7 19 -33
f -10/4/5 -11/4/5 -12/4/5
f -9/4/5 -11/4/5 -10/4/5
f -7/4/5 -11/4/5 -9/4/5
f -6/4/5 -7/4/5 -8/4/5
f -5/4/5 -11/4/5 -7/4/5
f -5/4/5 -7/4/5 -6/4/5
f -3/4/5 -11/4/5 -5/4/5
f -2/4/5 -3/4/5 -4/4/5
f -1/4/5 -11/4/5 -3/4/5
f -1/4/5 -3/4/5 -2/4/5
v -7 20 35
v 6 20 35
v -6 20 34
v 6 20 34
v -7 20 18
v -6 20 18
v -7 20 15
v -6 20 15
v -7 20 6
v -6 20 6
v -7 20 5
v -6 20 5
v -7 20 -5
v -6 20 -5
v -7 20 -6
v -6 20 -6
v -7 20 -15
v -6 20 -15
v -7 20 -18
v -6 20 -18
v -6 20 -34
v 6 20 -34
v -7 20 -35
v 6 20 -35
f -22/3/5 -23/3/5 -24/3/5
f -21/3/5 -23/3/5 -22/3/5
f -20/3/5 -22/3/5 -24/3/5
f -19/3/5 -22/3/5 -20/3/5
f -16/3/5 -17/3/5 -18/3/5
f -15/3/5 -17/3/5 -16/3/5
f -12/3/5 -13/3/5 -14/3/5
f -11/3/5 -13/3/5 -12/3/5
f -8/3/5 -9/3/5 -10/3/5
f -7/3/5 -9/3/5 -8/3/5
f -4/3/5 -5/3/5 -6/3/5
f -2/3/5 -4/3/5 -6/3/5
f -2/3/5 -3/3/5 -4/3/5
f -1/3/5 -3/3/5 -2/3/5
v -7 11 34
v 5 11 34
v -6 11 33
v 5 11 33
v -7 11 18
v -6 11 18
v -7 11 15
v -6 11 15
v -6 11 12
v -7 11 6
v -6 11 6
v -7 11 5
v -6 11 5
v -7 11 -5
v -6 11 -5
v -7 11 -6
v -6 11 -6
v -6 11 -12
v -7 11 -15
v -6 11 -15
v -7 11 -18
v -6 11 -18
v -6 11 -33
v 6 11 -33
v -7 11 -34
v 6 11 -34
f -26/4/6 -25/4/6 -24/4/6
f -24/4/6 -25/4/6 -23/4/6
f -26/4/6 -24/4/6 -22/4/6
f -22/4/6 -24/4/6 -21/4/6
f -20/4/6 -19/4/6 -18/4/6
f -20/4/6 -18/4/6 -17/4/6
f -17/4/6 -18/4/6 -16/4/6
f -15/4/6 -14/4/6 -13/4/6
f -13/4/6 -14/4/6 -12/4/6
f -11/4/6 -10/4/6 -9/4/6
f -11/4/6 -9/4/6 -8/4/6
f -8/4/6 -9/4/6 -7/4/6
f -6/4/6 -5/4/6 -4/4/6
f -6/4/6 -4/4/6 -2/4/6
f -4/4/6 -3/4/6 -2/4/6
f -2/4/6 -3/4/6 -1/4/6
v -7 13 34
v -6 13 34
v -7 13 18
v -6 13 18
v -7 13 15
v -6 13 15
v -7 13 6
v -6 13 6
v -7 13 5
v -6 13 5
v -7 13 -5
v -6 13 -5
v -7 13 -6
v -6 13 -6
v -7 13 -15
v -6 13 -15
v -7 13 -18
v -6 13 -18
v -7 13 -34
v -6 13 -34
f -20/4/6 -19/4/6 -18/4/6
f -18/4/6 -19/4/6 -17/4/6
f -16/4/6 -15/4/6 -14/4/6
f -14/4/6 -15/4/6 -13/4/6
f -12/4/6 -11/4/6 -10/4/6
f -10/4/6 -11/4/6 -9/4/6
f -8/4/6 -7/4/6 -6/4/6
f -6/4/6 -7/4/6 -5/4/6
f -4/4/6 -3/4/6 -2/4/6
f -2/4/6 -3/4/6 -1/4/6
v -6 17 34
v 6 17 34
v -5 17 33
v 6 17 33
v -6 17 18
v -5 17 18
v -6 17 12
v -5 17 12
v -6 17 6
v -6 17 5
v -6 17 -5
v -6 17 -6
v -6 17 -12
v -5 17 -12
v -6 17 -18
v -5 17 -18
v -5 17 -33
v 6 17 -33
v -6 17 -34
v 6 17 -34
f -20/1/6 -19/1/6 -18/1/6
f -18/1/6 -19/1/6 -17/1/6
f -20/1/6 -18/1/6 -16/1/6
f -16/1/6 -18/1/6 -15/1/6
f -14/1/6 -13/1/6 -12/1/6
f -12/1/6 -13/1/6 -11/1/6
f -11/1/6 -13/1/6 -10/1/6
f -10/1/6 -13/1/6 -9/1/6
f -9/1/6 -13/1/6 -8/1/6
f -8/1/6 -13/1/6 -7/1/6
f -6/1/6 -5/1/6 -4/1/6
f -6/1/6 -4/1/6 -2/1/6
f -4/1/6 -3/1/6 -2/1/6
f -2/1/6 -3/1/6 -1/1/6
v -7 25 35
v 7 25 35
v -5 25 33
v 5 25 33
v -5 25 -33
v 5 25 -33
v -7 25 -35
v 7 25 -35
f -8/4/6 -7/4/6 -6/4/6
f -6/4/6 -7/4/6 -5/4/6
f -8/4/6 -6/4/6 -4/4/6
f -6/2/6 -5/2/6 -4/2/6
f -5/4/6 -7/4/6 -3/4/6
f -4/2/6 -5/2/6 -3/2/6
f -8/4/6 -4/4/6 -2/4/6
f -4/4/6 -3/4/6 -2/4/6
f -3/4/6 -7/4/6 -1/4/6
f -2/4/6 -3/4/6 -1/4/6
