# MagicaVoxel @ ephtracy

# material
mtllib Security Wall 3.mtl
usemtl palette

# normals
vn -1 0 0
vn 1 0 0
vn 0 0 1
vn 0 0 -1
vn 0 -1 0
vn 0 1 0

# texcoords
vt 0.337891 0.5
vt 0.783203 0.5
vt 0.966797 0.5
vt 0.970703 0.5

# verts and faces
v -30 0 5
v -30 0 -5
v -30 40 5
v -30 40 -5
f -2/3/1 -3/3/1 -4/3/1
f -1/3/1 -3/3/1 -2/3/1
v 20 17 4
v 20 17 3
v 20 32 4
v 20 32 3
f -2/4/1 -3/4/1 -4/4/1
f -1/4/1 -3/4/1 -2/4/1
v 28 16 3
v 28 16 -4
v 28 33 3
v 28 33 -4
f -2/1/1 -3/1/1 -4/1/1
f -1/1/1 -3/1/1 -2/1/1
v 29 1 5
v 29 1 4
v 29 1 -4
v 29 1 -5
v 29 39 5
v 29 39 4
v 29 39 -4
v 29 39 -5
f -4/3/1 -7/3/1 -8/3/1
f -3/3/1 -7/3/1 -4/3/1
f -2/3/1 -5/3/1 -6/3/1
f -1/3/1 -5/3/1 -2/3/1
v -29 1 5
v -29 1 4
v -29 1 -4
v -29 1 -5
v -29 39 5
v -29 39 4
v -29 39 -4
v -29 39 -5
f -8/3/2 -7/3/2 -4/3/2
f -4/3/2 -7/3/2 -3/3/2
f -6/3/2 -5/3/2 -2/3/2
f -2/3/2 -5/3/2 -1/3/2
v -28 16 3
v -28 16 -4
v -28 33 3
v -28 33 -4
f -4/1/2 -3/1/2 -2/1/2
f -2/1/2 -3/1/2 -1/1/2
v -20 17 4
v -20 17 3
v -20 32 4
v -20 32 3
f -4/4/2 -3/4/2 -2/4/2
f -2/4/2 -3/4/2 -1/4/2
v 30 0 5
v 30 0 -5
v 30 40 5
v 30 40 -5
f -4/3/2 -3/3/2 -2/3/2
f -2/3/2 -3/3/2 -1/3/2
v -30 0 5
v -30 40 5
v -29 1 5
v -29 39 5
v 29 1 5
v 29 39 5
v 30 0 5
v 30 40 5
f -6/3/3 -7/3/3 -8/3/3
f -5/3/3 -7/3/3 -6/3/3
f -4/3/3 -6/3/3 -8/3/3
f -3/3/3 -7/3/3 -5/3/3
f -2/3/3 -4/3/3 -8/3/3
f -2/3/3 -3/3/3 -4/3/3
f -1/3/3 -7/3/3 -3/3/3
f -1/3/3 -3/3/3 -2/3/3
v -29 1 4
v -29 39 4
v -21 16 4
v -21 33 4
v -20 17 4
v -20 32 4
v 20 17 4
v 20 32 4
v 21 16 4
v 21 33 4
v 29 1 4
v 29 39 4
f -10/1/3 -11/1/3 -12/1/3
f -9/1/3 -11/1/3 -10/1/3
f -8/4/3 -9/4/3 -10/4/3
f -7/4/3 -9/4/3 -8/4/3
f -6/4/3 -8/4/3 -10/4/3
f -5/4/3 -9/4/3 -7/4/3
f -4/1/3 -10/1/3 -12/1/3
f -4/4/3 -5/4/3 -6/4/3
f -4/4/3 -6/4/3 -10/4/3
f -3/4/3 -9/4/3 -5/4/3
f -3/4/3 -5/4/3 -4/4/3
f -3/1/3 -11/1/3 -9/1/3
f -2/1/3 -4/1/3 -12/1/3
f -2/1/3 -3/1/3 -4/1/3
f -1/1/3 -11/1/3 -3/1/3
f -1/1/3 -3/1/3 -2/1/3
v -28 16 3
v -28 33 3
v -21 16 3
v -21 33 3
v -20 17 3
v -20 32 3
v 20 17 3
v 20 32 3
v 21 16 3
v 21 33 3
v 28 16 3
v 28 33 3
f -12/1/4 -11/1/4 -10/1/4
f -10/1/4 -11/1/4 -9/1/4
f -10/4/4 -9/4/4 -8/4/4
f -8/4/4 -9/4/4 -7/4/4
f -10/4/4 -8/4/4 -6/4/4
f -7/4/4 -9/4/4 -5/4/4
f -10/4/4 -6/4/4 -4/4/4
f -6/4/4 -5/4/4 -4/4/4
f -5/4/4 -9/4/4 -3/4/4
f -4/4/4 -5/4/4 -3/4/4
f -4/1/4 -3/1/4 -2/1/4
f -2/1/4 -3/1/4 -1/1/4
v -29 1 -4
v -29 39 -4
v -28 16 -4
v -28 33 -4
v 28 16 -4
v 28 33 -4
v 29 1 -4
v 29 39 -4
f -8/1/4 -7/1/4 -6/1/4
f -6/1/4 -7/1/4 -5/1/4
f -8/1/4 -6/1/4 -4/1/4
f -5/1/4 -7/1/4 -3/1/4
f -8/1/4 -4/1/4 -2/1/4
f -4/1/4 -3/1/4 -2/1/4
f -3/1/4 -7/1/4 -1/1/4
f -2/1/4 -3/1/4 -1/1/4
v -30 0 -5
v -30 40 -5
v -29 1 -5
v -29 39 -5
v 29 1 -5
v 29 39 -5
v 30 0 -5
v 30 40 -5
f -8/3/4 -7/3/4 -6/3/4
f -6/3/4 -7/3/4 -5/3/4
f -8/3/4 -6/3/4 -4/3/4
f -5/3/4 -7/3/4 -3/3/4
f -8/3/4 -4/3/4 -2/3/4
f -4/3/4 -3/3/4 -2/3/4
f -3/3/4 -7/3/4 -1/3/4
f -2/3/4 -3/3/4 -1/3/4
v -30 0 5
v 30 0 5
v -30 0 -5
v 30 0 -5
f -2/3/5 -3/3/5 -4/3/5
f -1/3/5 -3/3/5 -2/3/5
v -20 32 4
v 20 32 4
v -20 32 3
v 20 32 3
f -2/4/5 -3/4/5 -4/4/5
f -1/4/5 -3/4/5 -2/4/5
v -28 33 3
v -21 33 3
v 21 33 3
v 28 33 3
v -28 33 -4
v 28 33 -4
f -2/1/5 -5/1/5 -6/1/5
f -2/1/5 -3/1/5 -4/1/5
f -2/1/5 -4/1/5 -5/1/5
f -1/1/5 -3/1/5 -2/1/5
v -29 39 5
v 29 39 5
v -29 39 4
v 29 39 4
v -29 39 -4
v 29 39 -4
v -29 39 -5
v 29 39 -5
f -6/3/5 -7/3/5 -8/3/5
f -5/3/5 -7/3/5 -6/3/5
f -2/3/5 -3/3/5 -4/3/5
f -1/3/5 -3/3/5 -2/3/5
v -29 1 5
v 29 1 5
v -29 1 4
v 29 1 4
v -29 1 -4
v 29 1 -4
v -29 1 -5
v 29 1 -5
f -8/3/6 -7/3/6 -6/3/6
f -6/3/6 -7/3/6 -5/3/6
f -4/3/6 -3/3/6 -2/3/6
f -2/3/6 -3/3/6 -1/3/6
v -28 16 3
v -21 16 3
v 21 16 3
v 28 16 3
v -28 16 -4
v 28 16 -4
f -6/1/6 -5/1/6 -2/1/6
f -4/1/6 -3/1/6 -2/1/6
f -5/1/6 -4/1/6 -2/1/6
f -2/1/6 -3/1/6 -1/1/6
v -20 17 4
v 20 17 4
v -20 17 3
v 20 17 3
f -4/4/6 -3/4/6 -2/4/6
f -2/4/6 -3/4/6 -1/4/6
v -30 40 5
v 30 40 5
v -21 40 4
v -20 40 4
v -11 40 4
v -10 40 4
v -1 40 4
v 1 40 4
v 10 40 4
v 11 40 4
v 20 40 4
v 21 40 4
v -21 40 3
v -20 40 3
v -11 40 3
v -10 40 3
v -1 40 3
v 1 40 3
v 10 40 3
v 11 40 3
v 20 40 3
v 21 40 3
v -30 40 -5
v 30 40 -5
f -24/3/6 -23/3/6 -22/3/6
f -22/3/6 -23/3/6 -21/3/6
f -21/3/6 -23/3/6 -20/3/6
f -20/3/6 -23/3/6 -19/3/6
f -19/3/6 -23/3/6 -18/3/6
f -18/3/6 -23/3/6 -17/3/6
f -17/3/6 -23/3/6 -16/3/6
f -16/3/6 -23/3/6 -15/3/6
f -15/3/6 -23/3/6 -14/3/6
f -14/3/6 -23/3/6 -13/3/6
f -24/3/6 -22/3/6 -12/3/6
f -22/2/6 -21/2/6 -12/2/6
f -21/3/6 -20/3/6 -11/3/6
f -12/2/6 -21/2/6 -11/2/6
f -20/2/6 -19/2/6 -10/2/6
f -11/3/6 -20/3/6 -10/3/6
f -19/3/6 -18/3/6 -9/3/6
f -10/2/6 -19/2/6 -9/2/6
f -18/2/6 -17/2/6 -8/2/6
f -9/3/6 -18/3/6 -8/3/6
f -17/3/6 -16/3/6 -7/3/6
f -8/2/6 -17/2/6 -7/2/6
f -16/2/6 -15/2/6 -6/2/6
f -7/3/6 -16/3/6 -6/3/6
f -15/3/6 -14/3/6 -5/3/6
f -6/2/6 -15/2/6 -5/2/6
f -14/2/6 -13/2/6 -4/2/6
f -5/3/6 -14/3/6 -4/3/6
f -13/3/6 -23/3/6 -3/3/6
f -4/2/6 -13/2/6 -3/2/6
f -5/3/6 -4/3/6 -2/3/6
f -6/3/6 -5/3/6 -2/3/6
f -4/3/6 -3/3/6 -2/3/6
f -7/3/6 -6/3/6 -2/3/6
f -8/3/6 -7/3/6 -2/3/6
f -9/3/6 -8/3/6 -2/3/6
f -10/3/6 -9/3/6 -2/3/6
f -11/3/6 -10/3/6 -2/3/6
f -12/3/6 -11/3/6 -2/3/6
f -24/3/6 -12/3/6 -2/3/6
f -3/3/6 -23/3/6 -1/3/6
f -2/3/6 -3/3/6 -1/3/6
