# MagicaVoxel @ ephtracy

# material
mtllib Conference Room 5.mtl
usemtl palette

# normals
vn -1 0 0
vn 1 0 0
vn 0 0 1
vn 0 0 -1
vn 0 -1 0
vn 0 1 0

# texcoords
vt 0.337891 0.5
vt 0.341797 0.5
vt 0.478516 0.5
vt 0.962891 0.5
vt 0.978516 0.5
vt 0.986328 0.5
vt 0.994141 0.5

# verts and faces
v -30 0 4
v -30 0 -4
v -30 1 5
v -30 1 4
v -30 1 -4
v -30 1 -5
v -30 33 5
v -30 33 4
v -30 33 -4
v -30 33 -5
v -30 34 5
v -30 34 4
v -30 34 -4
v -30 34 -5
v -30 40 5
v -30 40 -5
f -13/1/1 -15/1/1 -16/1/1
f -12/1/1 -15/1/1 -13/1/1
f -10/1/1 -13/1/1 -14/1/1
f -10/1/1 -11/1/1 -12/1/1
f -10/1/1 -12/1/1 -13/1/1
f -9/1/1 -11/1/1 -10/1/1
f -8/1/1 -11/1/1 -9/1/1
f -7/1/1 -11/1/1 -8/1/1
f -5/1/1 -8/1/1 -9/1/1
f -4/1/1 -8/1/1 -5/1/1
f -2/1/1 -5/1/1 -6/1/1
f -2/1/1 -3/1/1 -4/1/1
f -2/1/1 -4/1/1 -5/1/1
f -1/1/1 -3/1/1 -2/1/1
v 22 4 -4
v 22 4 -5
v 22 33 -4
v 22 33 -5
v 22 34 -4
v 22 34 -5
v 22 36 -4
v 22 36 -5
f -6/2/1 -7/2/1 -8/2/1
f -5/2/1 -7/2/1 -6/2/1
f -2/1/1 -3/1/1 -4/1/1
f -1/1/1 -3/1/1 -2/1/1
v 26 33 5
v 26 33 4
v 26 33 -4
v 26 33 -5
v 26 34 5
v 26 34 4
v 26 34 -4
v 26 34 -5
f -4/4/1 -7/4/1 -8/4/1
f -3/4/1 -7/4/1 -4/4/1
f -2/4/1 -5/4/1 -6/4/1
f -1/4/1 -5/4/1 -2/4/1
v -26 4 -4
v -26 4 -5
v -26 33 -4
v -26 33 -5
v -26 34 -4
v -26 34 -5
v -26 36 -4
v -26 36 -5
f -8/1/2 -7/1/2 -6/1/2
f -6/1/2 -7/1/2 -5/1/2
f -4/1/2 -3/1/2 -2/1/2
f -2/1/2 -3/1/2 -1/1/2
v 29 33 5
v 29 33 4
v 29 33 -4
v 29 33 -5
v 29 34 5
v 29 34 4
v 29 34 -4
v 29 34 -5
f -8/4/2 -7/4/2 -4/4/2
f -4/4/2 -7/4/2 -3/4/2
f -6/4/2 -5/4/2 -2/4/2
f -2/4/2 -5/4/2 -1/4/2
v 30 0 4
v 30 0 -4
v 30 1 5
v 30 1 4
v 30 1 -4
v 30 1 -5
v 30 33 5
v 30 33 4
v 30 33 -4
v 30 33 -5
v 30 34 5
v 30 34 4
v 30 34 -4
v 30 34 -5
v 30 36 5
v 30 36 4
v 30 36 -4
v 30 36 -5
v 30 39 5
v 30 39 4
v 30 39 -4
v 30 39 -5
v 30 40 5
v 30 40 -5
f -24/1/2 -23/1/2 -21/1/2
f -21/1/2 -23/1/2 -20/1/2
f -22/1/2 -21/1/2 -18/1/2
f -20/1/2 -19/1/2 -18/1/2
f -21/1/2 -20/1/2 -18/1/2
f -18/1/2 -19/1/2 -17/1/2
f -17/1/2 -19/1/2 -16/1/2
f -16/1/2 -19/1/2 -15/1/2
f -17/1/2 -16/1/2 -13/1/2
f -13/1/2 -16/1/2 -12/1/2
f -14/1/2 -13/1/2 -10/1/2
f -12/1/2 -11/1/2 -10/1/2
f -13/1/2 -12/1/2 -10/1/2
f -10/1/2 -11/1/2 -9/1/2
f -9/1/2 -11/1/2 -8/1/2
f -8/1/2 -11/1/2 -7/1/2
f -10/5/2 -9/5/2 -6/5/2
f -9/1/2 -8/1/2 -5/1/2
f -6/5/2 -9/5/2 -5/5/2
f -8/5/2 -7/5/2 -4/5/2
f -5/1/2 -8/1/2 -4/1/2
f -4/5/2 -7/5/2 -3/5/2
f -6/1/2 -5/1/2 -2/1/2
f -5/1/2 -4/1/2 -2/1/2
f -4/1/2 -3/1/2 -2/1/2
f -2/1/2 -3/1/2 -1/1/2
v -30 1 5
v -30 33 5
v -30 34 5
v -30 40 5
v -29 36 5
v -29 39 5
v -28 3 5
v -28 4 5
v 22 4 5
v 22 33 5
v 25 4 5
v 25 33 5
v 26 1 5
v 26 3 5
v 26 4 5
v 26 33 5
v 26 34 5
v 26 36 5
v 29 1 5
v 29 33 5
v 29 34 5
v 29 36 5
v 30 1 5
v 30 33 5
v 30 34 5
v 30 36 5
v 30 39 5
v 30 40 5
f -24/1/3 -25/1/3 -26/1/3
f -23/1/3 -25/1/3 -24/1/3
f -22/1/3 -27/1/3 -28/1/3
f -21/1/3 -27/1/3 -22/1/3
f -20/5/3 -21/5/3 -22/5/3
f -20/1/3 -27/1/3 -21/1/3
f -19/1/3 -27/1/3 -20/1/3
f -18/5/3 -20/5/3 -22/5/3
f -18/2/3 -19/2/3 -20/2/3
f -17/2/3 -19/2/3 -18/2/3
f -16/1/3 -22/1/3 -28/1/3
f -15/5/3 -18/5/3 -22/5/3
f -15/1/3 -22/1/3 -16/1/3
f -14/3/3 -17/3/3 -18/3/3
f -14/5/3 -18/5/3 -15/5/3
f -13/3/3 -17/3/3 -14/3/3
f -12/1/3 -24/1/3 -26/1/3
f -11/5/3 -23/5/3 -24/5/3
f -11/1/3 -24/1/3 -12/1/3
f -10/4/3 -13/4/3 -14/4/3
f -10/4/3 -12/4/3 -13/4/3
f -10/4/3 -11/4/3 -12/4/3
f -10/4/3 -14/4/3 -15/4/3
f -10/4/3 -15/4/3 -16/4/3
f -9/4/3 -11/4/3 -10/4/3
f -8/4/3 -11/4/3 -9/4/3
f -7/5/3 -23/5/3 -11/5/3
f -7/4/3 -11/4/3 -8/4/3
f -6/1/3 -9/1/3 -10/1/3
f -5/1/3 -9/1/3 -6/1/3
f -4/1/3 -7/1/3 -8/1/3
f -3/5/3 -23/5/3 -7/5/3
f -3/1/3 -7/1/3 -4/1/3
f -2/1/3 -25/1/3 -23/1/3
f -2/5/3 -23/5/3 -3/5/3
f -1/1/3 -25/1/3 -2/1/3
v -30 0 4
v -30 1 4
v -30 33 4
v -30 34 4
v 22 33 4
v 25 33 4
v 26 1 4
v 26 33 4
v 26 34 4
v 29 1 4
v 29 33 4
v 29 34 4
v 30 0 4
v 30 1 4
v 30 33 4
v 30 34 4
f -12/1/3 -13/1/3 -14/1/3
f -11/1/3 -13/1/3 -12/1/3
f -10/1/3 -15/1/3 -16/1/3
f -9/1/3 -13/1/3 -11/1/3
f -8/1/3 -13/1/3 -9/1/3
f -7/1/3 -10/1/3 -16/1/3
f -4/1/3 -7/1/3 -16/1/3
f -3/1/3 -7/1/3 -4/1/3
f -2/1/3 -5/1/3 -6/1/3
f -1/1/3 -5/1/3 -2/1/3
v -30 0 -4
v -30 1 -4
v -30 33 -4
v -30 34 -4
v -26 4 -4
v -26 33 -4
v -26 34 -4
v -26 36 -4
v -25 5 -4
v -25 35 -4
v 21 5 -4
v 21 35 -4
v 22 4 -4
v 22 33 -4
v 22 34 -4
v 22 36 -4
v 25 33 -4
v 26 1 -4
v 26 33 -4
v 26 34 -4
v 29 1 -4
v 29 33 -4
v 29 34 -4
v 30 0 -4
v 30 1 -4
v 30 33 -4
v 30 34 -4
f -25/1/4 -24/1/4 -22/1/4
f -22/1/4 -24/1/4 -21/1/4
f -23/6/4 -22/6/4 -19/6/4
f -21/6/4 -20/6/4 -19/6/4
f -22/6/4 -21/6/4 -19/6/4
f -19/6/4 -20/6/4 -18/6/4
f -23/6/4 -19/6/4 -17/6/4
f -19/7/4 -18/7/4 -17/7/4
f -18/6/4 -20/6/4 -16/6/4
f -17/7/4 -18/7/4 -16/7/4
f -23/6/4 -17/6/4 -15/6/4
f -17/6/4 -16/6/4 -15/6/4
f -15/6/4 -16/6/4 -14/6/4
f -14/6/4 -16/6/4 -13/6/4
f -16/6/4 -20/6/4 -12/6/4
f -13/6/4 -16/6/4 -12/6/4
f -14/1/4 -13/1/4 -11/1/4
f -27/1/4 -26/1/4 -10/1/4
f -11/1/4 -13/1/4 -9/1/4
f -9/1/4 -13/1/4 -8/1/4
f -27/1/4 -10/1/4 -7/1/4
f -27/1/4 -7/1/4 -4/1/4
f -4/1/4 -7/1/4 -3/1/4
f -6/1/4 -5/1/4 -2/1/4
f -2/1/4 -5/1/4 -1/1/4
v -30 1 -5
v -30 33 -5
v -30 34 -5
v -30 40 -5
v -28 3 -5
v -28 4 -5
v -26 4 -5
v -26 33 -5
v -26 34 -5
v -26 36 -5
v -26 39 -5
v 22 4 -5
v 22 33 -5
v 22 34 -5
v 22 36 -5
v 23 3 -5
v 23 4 -5
v 25 4 -5
v 25 33 -5
v 26 1 -5
v 26 4 -5
v 26 33 -5
v 26 34 -5
v 26 36 -5
v 29 1 -5
v 29 33 -5
v 29 34 -5
v 29 36 -5
v 30 1 -5
v 30 33 -5
v 30 34 -5
v 30 36 -5
v 30 39 -5
v 30 40 -5
f -34/1/4 -33/1/4 -30/1/4
f -30/1/4 -33/1/4 -29/1/4
f -30/5/4 -29/5/4 -28/5/4
f -29/1/4 -33/1/4 -28/1/4
f -28/1/4 -33/1/4 -27/1/4
f -32/1/4 -31/1/4 -26/1/4
f -26/1/4 -31/1/4 -25/1/4
f -25/1/4 -31/1/4 -24/1/4
f -30/5/4 -28/5/4 -23/5/4
f -25/5/4 -24/5/4 -20/5/4
f -34/1/4 -30/1/4 -19/1/4
f -30/5/4 -23/5/4 -19/5/4
f -23/2/4 -22/2/4 -18/2/4
f -19/5/4 -23/5/4 -18/5/4
f -19/1/4 -18/1/4 -17/1/4
f -18/2/4 -22/2/4 -17/2/4
f -17/2/4 -22/2/4 -16/2/4
f -34/1/4 -19/1/4 -15/1/4
f -19/1/4 -17/1/4 -15/1/4
f -17/3/4 -16/3/4 -14/3/4
f -15/1/4 -17/1/4 -14/1/4
f -14/3/4 -16/3/4 -13/3/4
f -21/1/4 -20/1/4 -12/1/4
f -20/5/4 -24/5/4 -11/5/4
f -12/1/4 -20/1/4 -11/1/4
f -14/4/4 -13/4/4 -10/4/4
f -15/4/4 -14/4/4 -10/4/4
f -12/4/4 -11/4/4 -10/4/4
f -13/4/4 -12/4/4 -10/4/4
f -10/4/4 -11/4/4 -9/4/4
f -9/4/4 -11/4/4 -8/4/4
f -11/5/4 -24/5/4 -7/5/4
f -8/4/4 -11/4/4 -7/4/4
f -10/1/4 -9/1/4 -6/1/4
f -6/1/4 -9/1/4 -5/1/4
f -8/1/4 -7/1/4 -4/1/4
f -7/5/4 -24/5/4 -3/5/4
f -4/1/4 -7/1/4 -3/1/4
f -24/1/4 -31/1/4 -2/1/4
f -3/5/4 -24/5/4 -2/5/4
f -2/1/4 -31/1/4 -1/1/4
v -30 0 4
v 30 0 4
v -30 0 -4
v 30 0 -4
f -2/1/5 -3/1/5 -4/1/5
f -1/1/5 -3/1/5 -2/1/5
v -30 1 5
v 26 1 5
v 29 1 5
v 30 1 5
v -30 1 4
v 26 1 4
v 29 1 4
v 30 1 4
v -30 1 -4
v 26 1 -4
v 29 1 -4
v 30 1 -4
v -30 1 -5
v 26 1 -5
v 29 1 -5
v 30 1 -5
f -12/1/5 -15/1/5 -16/1/5
f -11/4/5 -14/4/5 -15/4/5
f -11/1/5 -15/1/5 -12/1/5
f -10/1/5 -13/1/5 -14/1/5
f -10/4/5 -14/4/5 -11/4/5
f -9/1/5 -13/1/5 -10/1/5
f -4/1/5 -7/1/5 -8/1/5
f -3/4/5 -6/4/5 -7/4/5
f -3/1/5 -7/1/5 -4/1/5
f -2/1/5 -5/1/5 -6/1/5
f -2/4/5 -6/4/5 -3/4/5
f -1/1/5 -5/1/5 -2/1/5
v -30 34 5
v 26 34 5
v 29 34 5
v 30 34 5
v -30 34 4
v 26 34 4
v 29 34 4
v 30 34 4
v -30 34 -4
v -26 34 -4
v 22 34 -4
v 26 34 -4
v 29 34 -4
v 30 34 -4
v -30 34 -5
v -26 34 -5
v 22 34 -5
v 26 34 -5
v 29 34 -5
v 30 34 -5
f -16/1/5 -19/1/5 -20/1/5
f -15/1/5 -19/1/5 -16/1/5
f -14/1/5 -17/1/5 -18/1/5
f -13/1/5 -17/1/5 -14/1/5
f -6/1/5 -11/1/5 -12/1/5
f -5/1/5 -11/1/5 -6/1/5
f -4/1/5 -9/1/5 -10/1/5
f -3/1/5 -9/1/5 -4/1/5
f -2/1/5 -7/1/5 -8/1/5
f -1/1/5 -7/1/5 -2/1/5
v -26 36 -4
v 22 36 -4
v -26 36 -5
v 22 36 -5
f -2/5/5 -3/5/5 -4/5/5
f -1/5/5 -3/5/5 -2/5/5
v -26 4 -4
v 22 4 -4
v -26 4 -5
v 22 4 -5
f -4/5/6 -3/5/6 -2/5/6
f -2/5/6 -3/5/6 -1/5/6
v -30 33 5
v 22 33 5
v 25 33 5
v 26 33 5
v 29 33 5
v 30 33 5
v -30 33 4
v 22 33 4
v 25 33 4
v 26 33 4
v 29 33 4
v 30 33 4
v -30 33 -4
v -26 33 -4
v 22 33 -4
v 25 33 -4
v 26 33 -4
v 29 33 -4
v 30 33 -4
v -30 33 -5
v -26 33 -5
v 22 33 -5
v 25 33 -5
v 26 33 -5
v 29 33 -5
v 30 33 -5
f -26/1/6 -25/1/6 -20/1/6
f -25/2/6 -24/2/6 -19/2/6
f -20/1/6 -25/1/6 -19/1/6
f -24/3/6 -23/3/6 -18/3/6
f -19/2/6 -24/2/6 -18/2/6
f -18/3/6 -23/3/6 -17/3/6
f -22/1/6 -21/1/6 -16/1/6
f -16/1/6 -21/1/6 -15/1/6
f -14/1/6 -13/1/6 -7/1/6
f -7/1/6 -13/1/6 -6/1/6
f -12/2/6 -11/2/6 -5/2/6
f -11/3/6 -10/3/6 -4/3/6
f -5/2/6 -11/2/6 -4/2/6
f -4/3/6 -10/3/6 -3/3/6
f -9/1/6 -8/1/6 -2/1/6
f -2/1/6 -8/1/6 -1/1/6
v -30 40 5
v 30 40 5
v -30 40 -5
v 30 40 -5
f -4/1/6 -3/1/6 -2/1/6
f -2/1/6 -3/1/6 -1/1/6
