# MagicaVoxel @ ephtracy

# material
mtllib Engineering Wall 1.mtl
usemtl palette

# normals
vn -1 0 0
vn 1 0 0
vn 0 0 1
vn 0 0 -1
vn 0 -1 0
vn 0 1 0

# texcoords
vt 0.115234 0.5
vt 0.958984 0.5
vt 0.962891 0.5
vt 0.966797 0.5
vt 0.970703 0.5

# verts and faces
v -30 0 5
v -30 0 4
v -30 0 -4
v -30 0 -5
v -30 1 5
v -30 1 4
v -30 1 -4
v -30 1 -5
v -30 15 5
v -30 15 4
v -30 15 -4
v -30 15 -5
v -30 25 5
v -30 25 4
v -30 25 -4
v -30 25 -5
v -30 31 5
v -30 31 4
v -30 31 -4
v -30 31 -5
v -30 39 5
v -30 39 4
v -30 39 -4
v -30 39 -5
v -30 40 5
v -30 40 4
v -30 40 -4
v -30 40 -5
f -24/4/1 -27/4/1 -28/4/1
f -23/1/1 -26/1/1 -27/1/1
f -23/4/1 -27/4/1 -24/4/1
f -22/4/1 -25/4/1 -26/4/1
f -22/1/1 -26/1/1 -23/1/1
f -21/4/1 -25/4/1 -22/4/1
f -20/3/1 -23/3/1 -24/3/1
f -19/1/1 -22/1/1 -23/1/1
f -19/3/1 -23/3/1 -20/3/1
f -18/3/1 -21/3/1 -22/3/1
f -18/1/1 -22/1/1 -19/1/1
f -17/3/1 -21/3/1 -18/3/1
f -16/2/1 -19/2/1 -20/2/1
f -15/1/1 -18/1/1 -19/1/1
f -15/2/1 -19/2/1 -16/2/1
f -14/2/1 -17/2/1 -18/2/1
f -14/1/1 -18/1/1 -15/1/1
f -13/2/1 -17/2/1 -14/2/1
f -12/3/1 -15/3/1 -16/3/1
f -11/1/1 -14/1/1 -15/1/1
f -11/3/1 -15/3/1 -12/3/1
f -10/3/1 -13/3/1 -14/3/1
f -10/1/1 -14/1/1 -11/1/1
f -9/3/1 -13/3/1 -10/3/1
f -8/4/1 -11/4/1 -12/4/1
f -7/1/1 -10/1/1 -11/1/1
f -7/4/1 -11/4/1 -8/4/1
f -6/4/1 -9/4/1 -10/4/1
f -6/1/1 -10/1/1 -7/1/1
f -5/4/1 -9/4/1 -6/4/1
f -4/5/1 -7/5/1 -8/5/1
f -3/3/1 -6/3/1 -7/3/1
f -3/5/1 -7/5/1 -4/5/1
f -2/5/1 -5/5/1 -6/5/1
f -2/3/1 -6/3/1 -3/3/1
f -1/5/1 -5/5/1 -2/5/1
v 30 0 5
v 30 0 4
v 30 0 -4
v 30 0 -5
v 30 1 5
v 30 1 4
v 30 1 -4
v 30 1 -5
v 30 8 5
v 30 8 4
v 30 8 -4
v 30 8 -5
v 30 11 5
v 30 11 4
v 30 11 -4
v 30 11 -5
v 30 13 5
v 30 13 4
v 30 13 -4
v 30 13 -5
v 30 15 5
v 30 15 4
v 30 15 -4
v 30 15 -5
v 30 22 5
v 30 22 4
v 30 22 -4
v 30 22 -5
v 30 26 5
v 30 26 4
v 30 26 -4
v 30 26 -5
v 30 34 5
v 30 34 4
v 30 34 -4
v 30 34 -5
v 30 39 5
v 30 39 4
v 30 39 -4
v 30 39 -5
v 30 40 5
v 30 40 4
v 30 40 -4
v 30 40 -5
f -44/5/2 -43/5/2 -40/5/2
f -43/1/2 -42/1/2 -39/1/2
f -40/5/2 -43/5/2 -39/5/2
f -42/5/2 -41/5/2 -38/5/2
f -39/1/2 -42/1/2 -38/1/2
f -38/5/2 -41/5/2 -37/5/2
f -40/4/2 -39/4/2 -36/4/2
f -39/1/2 -38/1/2 -35/1/2
f -36/4/2 -39/4/2 -35/4/2
f -38/4/2 -37/4/2 -34/4/2
f -35/1/2 -38/1/2 -34/1/2
f -34/4/2 -37/4/2 -33/4/2
f -36/3/2 -35/3/2 -32/3/2
f -35/1/2 -34/1/2 -31/1/2
f -32/3/2 -35/3/2 -31/3/2
f -34/3/2 -33/3/2 -30/3/2
f -31/1/2 -34/1/2 -30/1/2
f -30/3/2 -33/3/2 -29/3/2
f -32/2/2 -31/2/2 -28/2/2
f -31/1/2 -30/1/2 -27/1/2
f -28/2/2 -31/2/2 -27/2/2
f -30/2/2 -29/2/2 -26/2/2
f -27/1/2 -30/1/2 -26/1/2
f -26/2/2 -29/2/2 -25/2/2
f -28/3/2 -27/3/2 -24/3/2
f -27/1/2 -26/1/2 -23/1/2
f -24/3/2 -27/3/2 -23/3/2
f -26/3/2 -25/3/2 -22/3/2
f -23/1/2 -26/1/2 -22/1/2
f -22/3/2 -25/3/2 -21/3/2
f -24/4/2 -23/4/2 -20/4/2
f -23/1/2 -22/1/2 -19/1/2
f -20/4/2 -23/4/2 -19/4/2
f -22/4/2 -21/4/2 -18/4/2
f -19/1/2 -22/1/2 -18/1/2
f -18/4/2 -21/4/2 -17/4/2
f -20/3/2 -19/3/2 -16/3/2
f -19/1/2 -18/1/2 -15/1/2
f -16/3/2 -19/3/2 -15/3/2
f -18/3/2 -17/3/2 -14/3/2
f -15/1/2 -18/1/2 -14/1/2
f -14/3/2 -17/3/2 -13/3/2
f -16/2/2 -15/2/2 -12/2/2
f -15/1/2 -14/1/2 -11/1/2
f -12/2/2 -15/2/2 -11/2/2
f -14/2/2 -13/2/2 -10/2/2
f -11/1/2 -14/1/2 -10/1/2
f -10/2/2 -13/2/2 -9/2/2
f -12/3/2 -11/3/2 -8/3/2
f -11/1/2 -10/1/2 -7/1/2
f -8/3/2 -11/3/2 -7/3/2
f -10/3/2 -9/3/2 -6/3/2
f -7/1/2 -10/1/2 -6/1/2
f -6/3/2 -9/3/2 -5/3/2
f -8/4/2 -7/4/2 -4/4/2
f -7/3/2 -6/3/2 -3/3/2
f -4/4/2 -7/4/2 -3/4/2
f -6/4/2 -5/4/2 -2/4/2
f -3/3/2 -6/3/2 -2/3/2
f -2/4/2 -5/4/2 -1/4/2
v -30 0 5
v -30 1 5
v -30 15 5
v -30 25 5
v -30 31 5
v -30 39 5
v -30 40 5
v -29 1 5
v -29 15 5
v -29 25 5
v -29 31 5
v -29 39 5
v -27 0 5
v -27 1 5
v -17 39 5
v -17 40 5
v -16 0 5
v -16 1 5
v -16 15 5
v -16 29 5
v -16 33 5
v -16 39 5
v -15 15 5
v -15 29 5
v -15 33 5
v -15 39 5
v -14 1 5
v -14 39 5
v -12 0 5
v -12 1 5
v -7 39 5
v -7 40 5
v -3 0 5
v -3 1 5
v -3 39 5
v -3 40 5
v -1 1 5
v -1 18 5
v -1 32 5
v -1 39 5
v 0 1 5
v 0 18 5
v 0 20 5
v 0 27 5
v 0 28 5
v 0 32 5
v 1 1 5
v 1 18 5
v 1 20 5
v 1 27 5
v 1 28 5
v 1 39 5
v 7 0 5
v 7 1 5
v 7 39 5
v 7 40 5
v 13 0 5
v 13 1 5
v 13 39 5
v 13 40 5
v 14 1 5
v 14 7 5
v 14 15 5
v 14 24 5
v 14 35 5
v 14 39 5
v 15 7 5
v 15 15 5
v 15 24 5
v 15 35 5
v 15 39 5
v 15 40 5
v 16 1 5
v 16 39 5
v 19 0 5
v 19 1 5
v 29 1 5
v 29 8 5
v 29 11 5
v 29 13 5
v 29 15 5
v 29 22 5
v 29 26 5
v 29 34 5
v 29 39 5
v 29 40 5
v 30 0 5
v 30 1 5
v 30 8 5
v 30 11 5
v 30 13 5
v 30 15 5
v 30 22 5
v 30 26 5
v 30 34 5
v 30 39 5
v 30 40 5
f -90/4/3 -96/4/3 -97/4/3
f -90/3/3 -95/3/3 -96/3/3
f -89/2/3 -94/2/3 -95/2/3
f -89/3/3 -95/3/3 -90/3/3
f -88/3/3 -93/3/3 -94/3/3
f -88/2/3 -94/2/3 -89/2/3
f -87/4/3 -92/4/3 -93/4/3
f -87/3/3 -93/3/3 -88/3/3
f -86/5/3 -91/5/3 -92/5/3
f -86/4/3 -92/4/3 -87/4/3
f -85/4/3 -90/4/3 -97/4/3
f -84/1/3 -87/1/3 -88/1/3
f -84/4/3 -90/4/3 -85/4/3
f -84/1/3 -88/1/3 -89/1/3
f -84/1/3 -86/1/3 -87/1/3
f -84/1/3 -89/1/3 -90/1/3
f -83/5/3 -91/5/3 -86/5/3
f -83/1/3 -86/1/3 -84/1/3
f -82/5/3 -91/5/3 -83/5/3
f -81/5/3 -84/5/3 -85/5/3
f -80/1/3 -83/1/3 -84/1/3
f -80/5/3 -84/5/3 -81/5/3
f -79/1/3 -83/1/3 -80/1/3
f -78/1/3 -83/1/3 -79/1/3
f -77/1/3 -83/1/3 -78/1/3
f -76/4/3 -82/4/3 -83/4/3
f -76/1/3 -83/1/3 -77/1/3
f -75/3/3 -79/3/3 -80/3/3
f -75/2/3 -78/2/3 -79/2/3
f -74/3/3 -77/3/3 -78/3/3
f -74/2/3 -78/2/3 -75/2/3
f -73/4/3 -76/4/3 -77/4/3
f -73/3/3 -77/3/3 -74/3/3
f -72/4/3 -82/4/3 -76/4/3
f -72/4/3 -76/4/3 -73/4/3
f -71/3/3 -75/3/3 -80/3/3
f -71/4/3 -80/4/3 -81/4/3
f -71/3/3 -72/3/3 -73/3/3
f -71/3/3 -74/3/3 -75/3/3
f -71/3/3 -73/3/3 -74/3/3
f -70/4/3 -82/4/3 -72/4/3
f -70/3/3 -72/3/3 -71/3/3
f -69/4/3 -71/4/3 -81/4/3
f -68/1/3 -70/1/3 -71/1/3
f -68/4/3 -71/4/3 -69/4/3
f -67/4/3 -82/4/3 -70/4/3
f -67/1/3 -70/1/3 -68/1/3
f -66/4/3 -82/4/3 -67/4/3
f -65/5/3 -68/5/3 -69/5/3
f -64/1/3 -67/1/3 -68/1/3
f -64/5/3 -68/5/3 -65/5/3
f -63/5/3 -66/5/3 -67/5/3
f -63/1/3 -67/1/3 -64/1/3
f -62/5/3 -66/5/3 -63/5/3
f -61/4/3 -64/4/3 -65/4/3
f -61/1/3 -63/1/3 -64/1/3
f -60/1/3 -63/1/3 -61/1/3
f -59/1/3 -63/1/3 -60/1/3
f -58/4/3 -62/4/3 -63/4/3
f -58/1/3 -63/1/3 -59/1/3
f -57/4/3 -61/4/3 -65/4/3
f -57/3/3 -60/3/3 -61/3/3
f -56/2/3 -59/2/3 -60/2/3
f -56/3/3 -60/3/3 -57/3/3
f -55/2/3 -59/2/3 -56/2/3
f -54/2/3 -59/2/3 -55/2/3
f -53/2/3 -59/2/3 -54/2/3
f -52/4/3 -58/4/3 -59/4/3
f -52/2/3 -59/2/3 -53/2/3
f -51/4/3 -57/4/3 -65/4/3
f -51/4/3 -56/4/3 -57/4/3
f -50/3/3 -55/3/3 -56/3/3
f -50/4/3 -56/4/3 -51/4/3
f -49/2/3 -54/2/3 -55/2/3
f -49/3/3 -55/3/3 -50/3/3
f -48/3/3 -53/3/3 -54/3/3
f -48/2/3 -54/2/3 -49/2/3
f -47/4/3 -52/4/3 -53/4/3
f -47/3/3 -53/3/3 -48/3/3
f -46/4/3 -58/4/3 -52/4/3
f -46/4/3 -52/4/3 -47/4/3
f -46/4/3 -62/4/3 -58/4/3
f -45/4/3 -51/4/3 -65/4/3
f -44/1/3 -47/1/3 -48/1/3
f -44/4/3 -51/4/3 -45/4/3
f -44/1/3 -50/1/3 -51/1/3
f -44/1/3 -46/1/3 -47/1/3
f -44/1/3 -49/1/3 -50/1/3
f -44/1/3 -48/1/3 -49/1/3
f -43/4/3 -62/4/3 -46/4/3
f -43/1/3 -46/1/3 -44/1/3
f -42/4/3 -62/4/3 -43/4/3
f -41/5/3 -44/5/3 -45/5/3
f -40/1/3 -43/1/3 -44/1/3
f -40/5/3 -44/5/3 -41/5/3
f -39/5/3 -42/5/3 -43/5/3
f -39/1/3 -43/1/3 -40/1/3
f -38/5/3 -42/5/3 -39/5/3
f -37/4/3 -40/4/3 -41/4/3
f -37/1/3 -39/1/3 -40/1/3
f -36/1/3 -39/1/3 -37/1/3
f -35/1/3 -39/1/3 -36/1/3
f -34/1/3 -39/1/3 -35/1/3
f -33/1/3 -39/1/3 -34/1/3
f -32/4/3 -38/4/3 -39/4/3
f -32/1/3 -39/1/3 -33/1/3
f -31/3/3 -36/3/3 -37/3/3
f -31/2/3 -35/2/3 -36/2/3
f -30/3/3 -34/3/3 -35/3/3
f -30/2/3 -35/2/3 -31/2/3
f -29/2/3 -33/2/3 -34/2/3
f -29/3/3 -34/3/3 -30/3/3
f -28/3/3 -32/3/3 -33/3/3
f -28/2/3 -33/2/3 -29/2/3
f -27/4/3 -38/4/3 -32/4/3
f -27/3/3 -32/3/3 -28/3/3
f -26/4/3 -38/4/3 -27/4/3
f -25/3/3 -30/3/3 -31/3/3
f -25/4/3 -37/4/3 -41/4/3
f -25/3/3 -28/3/3 -29/3/3
f -25/3/3 -27/3/3 -28/3/3
f -25/3/3 -31/3/3 -37/3/3
f -25/3/3 -29/3/3 -30/3/3
f -24/5/3 -26/5/3 -27/5/3
f -24/3/3 -27/3/3 -25/3/3
f -23/4/3 -25/4/3 -41/4/3
f -22/1/3 -24/1/3 -25/1/3
f -22/4/3 -25/4/3 -23/4/3
f -21/5/3 -22/5/3 -23/5/3
f -21/1/3 -24/1/3 -22/1/3
f -20/1/3 -24/1/3 -21/1/3
f -19/1/3 -24/1/3 -20/1/3
f -18/1/3 -24/1/3 -19/1/3
f -17/1/3 -24/1/3 -18/1/3
f -16/1/3 -24/1/3 -17/1/3
f -15/1/3 -24/1/3 -16/1/3
f -14/1/3 -24/1/3 -15/1/3
f -13/5/3 -26/5/3 -24/5/3
f -13/1/3 -24/1/3 -14/1/3
f -12/5/3 -26/5/3 -13/5/3
f -11/5/3 -21/5/3 -23/5/3
f -10/4/3 -20/4/3 -21/4/3
f -10/5/3 -21/5/3 -11/5/3
f -9/3/3 -19/3/3 -20/3/3
f -9/4/3 -20/4/3 -10/4/3
f -8/2/3 -18/2/3 -19/2/3
f -8/3/3 -19/3/3 -9/3/3
f -7/3/3 -17/3/3 -18/3/3
f -7/2/3 -18/2/3 -8/2/3
f -6/4/3 -16/4/3 -17/4/3
f -6/3/3 -17/3/3 -7/3/3
f -5/3/3 -15/3/3 -16/3/3
f -5/4/3 -16/4/3 -6/4/3
f -4/2/3 -14/2/3 -15/2/3
f -4/3/3 -15/3/3 -5/3/3
f -3/3/3 -13/3/3 -14/3/3
f -3/2/3 -14/2/3 -4/2/3
f -2/4/3 -12/4/3 -13/4/3
f -2/3/3 -13/3/3 -3/3/3
f -1/4/3 -12/4/3 -2/4/3
v -30 0 -5
v -30 1 -5
v -30 15 -5
v -30 25 -5
v -30 31 -5
v -30 39 -5
v -30 40 -5
v -29 1 -5
v -29 15 -5
v -29 25 -5
v -29 31 -5
v -29 39 -5
v -27 0 -5
v -27 1 -5
v -17 39 -5
v -17 40 -5
v -16 0 -5
v -16 1 -5
v -16 15 -5
v -16 29 -5
v -16 33 -5
v -16 39 -5
v -15 15 -5
v -15 29 -5
v -15 33 -5
v -15 39 -5
v -14 1 -5
v -14 39 -5
v -12 0 -5
v -12 1 -5
v -7 39 -5
v -7 40 -5
v -3 0 -5
v -3 1 -5
v -3 39 -5
v -3 40 -5
v -1 1 -5
v -1 18 -5
v -1 32 -5
v -1 39 -5
v 0 1 -5
v 0 18 -5
v 0 20 -5
v 0 27 -5
v 0 28 -5
v 0 32 -5
v 1 1 -5
v 1 18 -5
v 1 20 -5
v 1 27 -5
v 1 28 -5
v 1 39 -5
v 7 0 -5
v 7 1 -5
v 7 39 -5
v 7 40 -5
v 13 0 -5
v 13 1 -5
v 13 39 -5
v 13 40 -5
v 14 1 -5
v 14 7 -5
v 14 15 -5
v 14 24 -5
v 14 35 -5
v 14 39 -5
v 15 7 -5
v 15 15 -5
v 15 24 -5
v 15 35 -5
v 15 39 -5
v 15 40 -5
v 16 1 -5
v 16 39 -5
v 19 0 -5
v 19 1 -5
v 29 1 -5
v 29 8 -5
v 29 11 -5
v 29 13 -5
v 29 15 -5
v 29 22 -5
v 29 26 -5
v 29 34 -5
v 29 39 -5
v 29 40 -5
v 30 0 -5
v 30 1 -5
v 30 8 -5
v 30 11 -5
v 30 13 -5
v 30 15 -5
v 30 22 -5
v 30 26 -5
v 30 34 -5
v 30 39 -5
v 30 40 -5
f -97/4/4 -96/4/4 -90/4/4
f -96/3/4 -95/3/4 -90/3/4
f -95/2/4 -94/2/4 -89/2/4
f -90/3/4 -95/3/4 -89/3/4
f -94/3/4 -93/3/4 -88/3/4
f -89/2/4 -94/2/4 -88/2/4
f -93/4/4 -92/4/4 -87/4/4
f -88/3/4 -93/3/4 -87/3/4
f -92/5/4 -91/5/4 -86/5/4
f -87/4/4 -92/4/4 -86/4/4
f -97/4/4 -90/4/4 -85/4/4
f -88/1/4 -87/1/4 -84/1/4
f -85/4/4 -90/4/4 -84/4/4
f -89/1/4 -88/1/4 -84/1/4
f -87/1/4 -86/1/4 -84/1/4
f -90/1/4 -89/1/4 -84/1/4
f -86/5/4 -91/5/4 -83/5/4
f -84/1/4 -86/1/4 -83/1/4
f -83/5/4 -91/5/4 -82/5/4
f -85/5/4 -84/5/4 -81/5/4
f -84/1/4 -83/1/4 -80/1/4
f -81/5/4 -84/5/4 -80/5/4
f -80/1/4 -83/1/4 -79/1/4
f -79/1/4 -83/1/4 -78/1/4
f -78/1/4 -83/1/4 -77/1/4
f -83/4/4 -82/4/4 -76/4/4
f -77/1/4 -83/1/4 -76/1/4
f -80/3/4 -79/3/4 -75/3/4
f -79/2/4 -78/2/4 -75/2/4
f -78/3/4 -77/3/4 -74/3/4
f -75/2/4 -78/2/4 -74/2/4
f -77/4/4 -76/4/4 -73/4/4
f -74/3/4 -77/3/4 -73/3/4
f -76/4/4 -82/4/4 -72/4/4
f -73/4/4 -76/4/4 -72/4/4
f -80/3/4 -75/3/4 -71/3/4
f -81/4/4 -80/4/4 -71/4/4
f -73/3/4 -72/3/4 -71/3/4
f -75/3/4 -74/3/4 -71/3/4
f -74/3/4 -73/3/4 -71/3/4
f -72/4/4 -82/4/4 -70/4/4
f -71/3/4 -72/3/4 -70/3/4
f -81/4/4 -71/4/4 -69/4/4
f -71/1/4 -70/1/4 -68/1/4
f -69/4/4 -71/4/4 -68/4/4
f -70/4/4 -82/4/4 -67/4/4
f -68/1/4 -70/1/4 -67/1/4
f -67/4/4 -82/4/4 -66/4/4
f -69/5/4 -68/5/4 -65/5/4
f -68/1/4 -67/1/4 -64/1/4
f -65/5/4 -68/5/4 -64/5/4
f -67/5/4 -66/5/4 -63/5/4
f -64/1/4 -67/1/4 -63/1/4
f -63/5/4 -66/5/4 -62/5/4
f -65/4/4 -64/4/4 -61/4/4
f -64/1/4 -63/1/4 -61/1/4
f -61/1/4 -63/1/4 -60/1/4
f -60/1/4 -63/1/4 -59/1/4
f -63/4/4 -62/4/4 -58/4/4
f -59/1/4 -63/1/4 -58/1/4
f -65/4/4 -61/4/4 -57/4/4
f -61/3/4 -60/3/4 -57/3/4
f -60/2/4 -59/2/4 -56/2/4
f -57/3/4 -60/3/4 -56/3/4
f -56/2/4 -59/2/4 -55/2/4
f -55/2/4 -59/2/4 -54/2/4
f -54/2/4 -59/2/4 -53/2/4
f -59/4/4 -58/4/4 -52/4/4
f -53/2/4 -59/2/4 -52/2/4
f -65/4/4 -57/4/4 -51/4/4
f -57/4/4 -56/4/4 -51/4/4
f -56/3/4 -55/3/4 -50/3/4
f -51/4/4 -56/4/4 -50/4/4
f -55/2/4 -54/2/4 -49/2/4
f -50/3/4 -55/3/4 -49/3/4
f -54/3/4 -53/3/4 -48/3/4
f -49/2/4 -54/2/4 -48/2/4
f -53/4/4 -52/4/4 -47/4/4
f -48/3/4 -53/3/4 -47/3/4
f -52/4/4 -58/4/4 -46/4/4
f -47/4/4 -52/4/4 -46/4/4
f -58/4/4 -62/4/4 -46/4/4
f -65/4/4 -51/4/4 -45/4/4
f -48/1/4 -47/1/4 -44/1/4
f -45/4/4 -51/4/4 -44/4/4
f -51/1/4 -50/1/4 -44/1/4
f -47/1/4 -46/1/4 -44/1/4
f -50/1/4 -49/1/4 -44/1/4
f -49/1/4 -48/1/4 -44/1/4
f -46/4/4 -62/4/4 -43/4/4
f -44/1/4 -46/1/4 -43/1/4
f -43/4/4 -62/4/4 -42/4/4
f -45/5/4 -44/5/4 -41/5/4
f -44/1/4 -43/1/4 -40/1/4
f -41/5/4 -44/5/4 -40/5/4
f -43/5/4 -42/5/4 -39/5/4
f -40/1/4 -43/1/4 -39/1/4
f -39/5/4 -42/5/4 -38/5/4
f -41/4/4 -40/4/4 -37/4/4
f -40/1/4 -39/1/4 -37/1/4
f -37/1/4 -39/1/4 -36/1/4
f -36/1/4 -39/1/4 -35/1/4
f -35/1/4 -39/1/4 -34/1/4
f -34/1/4 -39/1/4 -33/1/4
f -39/4/4 -38/4/4 -32/4/4
f -33/1/4 -39/1/4 -32/1/4
f -37/3/4 -36/3/4 -31/3/4
f -36/2/4 -35/2/4 -31/2/4
f -35/3/4 -34/3/4 -30/3/4
f -31/2/4 -35/2/4 -30/2/4
f -34/2/4 -33/2/4 -29/2/4
f -30/3/4 -34/3/4 -29/3/4
f -33/3/4 -32/3/4 -28/3/4
f -29/2/4 -33/2/4 -28/2/4
f -32/4/4 -38/4/4 -27/4/4
f -28/3/4 -32/3/4 -27/3/4
f -27/4/4 -38/4/4 -26/4/4
f -31/3/4 -30/3/4 -25/3/4
f -41/4/4 -37/4/4 -25/4/4
f -29/3/4 -28/3/4 -25/3/4
f -28/3/4 -27/3/4 -25/3/4
f -37/3/4 -31/3/4 -25/3/4
f -30/3/4 -29/3/4 -25/3/4
f -27/5/4 -26/5/4 -24/5/4
f -25/3/4 -27/3/4 -24/3/4
f -41/4/4 -25/4/4 -23/4/4
f -25/1/4 -24/1/4 -22/1/4
f -23/4/4 -25/4/4 -22/4/4
f -23/5/4 -22/5/4 -21/5/4
f -22/1/4 -24/1/4 -21/1/4
f -21/1/4 -24/1/4 -20/1/4
f -20/1/4 -24/1/4 -19/1/4
f -19/1/4 -24/1/4 -18/1/4
f -18/1/4 -24/1/4 -17/1/4
f -17/1/4 -24/1/4 -16/1/4
f -16/1/4 -24/1/4 -15/1/4
f -15/1/4 -24/1/4 -14/1/4
f -24/5/4 -26/5/4 -13/5/4
f -14/1/4 -24/1/4 -13/1/4
f -13/5/4 -26/5/4 -12/5/4
f -23/5/4 -21/5/4 -11/5/4
f -21/4/4 -20/4/4 -10/4/4
f -11/5/4 -21/5/4 -10/5/4
f -20/3/4 -19/3/4 -9/3/4
f -10/4/4 -20/4/4 -9/4/4
f -19/2/4 -18/2/4 -8/2/4
f -9/3/4 -19/3/4 -8/3/4
f -18/3/4 -17/3/4 -7/3/4
f -8/2/4 -18/2/4 -7/2/4
f -17/4/4 -16/4/4 -6/4/4
f -7/3/4 -17/3/4 -6/3/4
f -16/3/4 -15/3/4 -5/3/4
f -6/4/4 -16/4/4 -5/4/4
f -15/2/4 -14/2/4 -4/2/4
f -5/3/4 -15/3/4 -4/3/4
f -14/3/4 -13/3/4 -3/3/4
f -4/2/4 -14/2/4 -3/2/4
f -13/4/4 -12/4/4 -2/4/4
f -3/3/4 -13/3/4 -2/3/4
f -2/4/4 -12/4/4 -1/4/4
v -30 0 5
v -27 0 5
v -16 0 5
v -12 0 5
v -3 0 5
v 7 0 5
v 13 0 5
v 19 0 5
v 30 0 5
v -30 0 4
v -27 0 4
v -16 0 4
v -12 0 4
v -3 0 4
v 7 0 4
v 13 0 4
v 19 0 4
v 30 0 4
v -30 0 -4
v -27 0 -4
v -16 0 -4
v -12 0 -4
v -3 0 -4
v 7 0 -4
v 13 0 -4
v 19 0 -4
v 30 0 -4
v -30 0 -5
v -27 0 -5
v -16 0 -5
v -12 0 -5
v -3 0 -5
v 7 0 -5
v 13 0 -5
v 19 0 -5
v 30 0 -5
f -27/4/5 -35/4/5 -36/4/5
f -26/5/5 -34/5/5 -35/5/5
f -26/4/5 -35/4/5 -27/4/5
f -25/4/5 -33/4/5 -34/4/5
f -25/5/5 -34/5/5 -26/5/5
f -24/5/5 -32/5/5 -33/5/5
f -24/4/5 -33/4/5 -25/4/5
f -23/4/5 -31/4/5 -32/4/5
f -23/5/5 -32/5/5 -24/5/5
f -22/5/5 -30/5/5 -31/5/5
f -22/4/5 -31/4/5 -23/4/5
f -21/4/5 -29/4/5 -30/4/5
f -21/5/5 -30/5/5 -22/5/5
f -20/5/5 -28/5/5 -29/5/5
f -20/4/5 -29/4/5 -21/4/5
f -19/5/5 -28/5/5 -20/5/5
f -18/1/5 -21/1/5 -22/1/5
f -18/1/5 -26/1/5 -27/1/5
f -18/1/5 -19/1/5 -20/1/5
f -18/1/5 -20/1/5 -21/1/5
f -18/1/5 -22/1/5 -23/1/5
f -18/1/5 -23/1/5 -24/1/5
f -18/1/5 -24/1/5 -25/1/5
f -18/1/5 -25/1/5 -26/1/5
f -17/1/5 -19/1/5 -18/1/5
f -16/1/5 -19/1/5 -17/1/5
f -15/1/5 -19/1/5 -16/1/5
f -14/1/5 -19/1/5 -15/1/5
f -13/1/5 -19/1/5 -14/1/5
f -12/1/5 -19/1/5 -13/1/5
f -11/1/5 -19/1/5 -12/1/5
f -10/1/5 -19/1/5 -11/1/5
f -9/4/5 -17/4/5 -18/4/5
f -8/5/5 -16/5/5 -17/5/5
f -8/4/5 -17/4/5 -9/4/5
f -7/4/5 -15/4/5 -16/4/5
f -7/5/5 -16/5/5 -8/5/5
f -6/5/5 -14/5/5 -15/5/5
f -6/4/5 -15/4/5 -7/4/5
f -5/4/5 -13/4/5 -14/4/5
f -5/5/5 -14/5/5 -6/5/5
f -4/5/5 -12/5/5 -13/5/5
f -4/4/5 -13/4/5 -5/4/5
f -3/4/5 -11/4/5 -12/4/5
f -3/5/5 -12/5/5 -4/5/5
f -2/5/5 -10/5/5 -11/5/5
f -2/4/5 -11/4/5 -3/4/5
f -1/5/5 -10/5/5 -2/5/5
v -30 40 5
v -17 40 5
v -7 40 5
v -3 40 5
v 7 40 5
v 13 40 5
v 15 40 5
v 29 40 5
v 30 40 5
v -30 40 4
v -29 40 4
v -17 40 4
v -7 40 4
v -3 40 4
v 7 40 4
v 13 40 4
v 15 40 4
v 29 40 4
v 30 40 4
v -30 40 -4
v -29 40 -4
v -17 40 -4
v -7 40 -4
v -3 40 -4
v 7 40 -4
v 13 40 -4
v 15 40 -4
v 29 40 -4
v 30 40 -4
v -30 40 -5
v -17 40 -5
v -7 40 -5
v -3 40 -5
v 7 40 -5
v 13 40 -5
v 15 40 -5
v 29 40 -5
v 30 40 -5
f -38/5/6 -37/5/6 -29/5/6
f -29/5/6 -37/5/6 -28/5/6
f -37/4/6 -36/4/6 -27/4/6
f -28/5/6 -37/5/6 -27/5/6
f -36/5/6 -35/5/6 -26/5/6
f -27/4/6 -36/4/6 -26/4/6
f -35/4/6 -34/4/6 -25/4/6
f -26/5/6 -35/5/6 -25/5/6
f -34/5/6 -33/5/6 -24/5/6
f -25/4/6 -34/4/6 -24/4/6
f -33/4/6 -32/4/6 -23/4/6
f -24/5/6 -33/5/6 -23/5/6
f -32/5/6 -31/5/6 -22/5/6
f -23/4/6 -32/4/6 -22/4/6
f -31/4/6 -30/4/6 -21/4/6
f -22/5/6 -31/5/6 -21/5/6
f -21/4/6 -30/4/6 -20/4/6
f -29/3/6 -28/3/6 -19/3/6
f -23/1/6 -22/1/6 -18/1/6
f -19/3/6 -28/3/6 -18/3/6
f -28/1/6 -27/1/6 -18/1/6
f -27/1/6 -26/1/6 -18/1/6
f -22/1/6 -21/1/6 -18/1/6
f -26/1/6 -25/1/6 -18/1/6
f -24/1/6 -23/1/6 -18/1/6
f -25/1/6 -24/1/6 -18/1/6
f -18/1/6 -21/1/6 -17/1/6
f -17/1/6 -21/1/6 -16/1/6
f -16/1/6 -21/1/6 -15/1/6
f -15/1/6 -21/1/6 -14/1/6
f -14/1/6 -21/1/6 -13/1/6
f -13/1/6 -21/1/6 -12/1/6
f -21/3/6 -20/3/6 -11/3/6
f -12/1/6 -21/1/6 -11/1/6
f -11/3/6 -20/3/6 -10/3/6
f -19/5/6 -18/5/6 -9/5/6
f -18/5/6 -17/5/6 -9/5/6
f -17/4/6 -16/4/6 -8/4/6
f -9/5/6 -17/5/6 -8/5/6
f -16/5/6 -15/5/6 -7/5/6
f -8/4/6 -16/4/6 -7/4/6
f -15/4/6 -14/4/6 -6/4/6
f -7/5/6 -15/5/6 -6/5/6
f -14/5/6 -13/5/6 -5/5/6
f -6/4/6 -14/4/6 -5/4/6
f -13/4/6 -12/4/6 -4/4/6
f -5/5/6 -13/5/6 -4/5/6
f -12/5/6 -11/5/6 -3/5/6
f -4/4/6 -12/4/6 -3/4/6
f -11/4/6 -10/4/6 -2/4/6
f -3/5/6 -11/5/6 -2/5/6
f -2/4/6 -10/4/6 -1/4/6
