ply
format ascii 1.0
comment : Shower Stall Hook
comment : MagicaVoxel @ ephtracy
element vertex 56
property float x
property float y
property float z
property uchar red
property uchar green
property uchar blue
element face 14
property list uchar int vertex_index
end_header
-1 -0.5 0 136 136 136
-1 -0.5 1 136 136 136
-1 0.5 1 136 136 136
-1 0.5 0 136 136 136
0 -0.5 1 170 170 170
0 -0.5 2 170 170 170
0 0.5 2 170 170 170
0 0.5 1 170 170 170
1 -0.5 0 170 170 170
1 0.5 0 170 170 170
1 0.5 1 170 170 170
1 -0.5 1 170 170 170
1 -0.5 1 170 170 170
1 0.5 1 170 170 170
1 0.5 2 170 170 170
1 -0.5 2 170 170 170
-1 -0.5 0 136 136 136
0 -0.5 0 136 136 136
0 -0.5 1 136 136 136
-1 -0.5 1 136 136 136
0 -0.5 0 170 170 170
1 -0.5 0 170 170 170
1 -0.5 1 170 170 170
0 -0.5 1 170 170 170
0 -0.5 1 170 170 170
1 -0.5 1 170 170 170
1 -0.5 2 170 170 170
0 -0.5 2 170 170 170
-1 0.5 0 136 136 136
-1 0.5 1 136 136 136
0 0.5 1 136 136 136
0 0.5 0 136 136 136
0 0.5 0 170 170 170
0 0.5 1 170 170 170
1 0.5 1 170 170 170
1 0.5 0 170 170 170
0 0.5 1 170 170 170
0 0.5 2 170 170 170
1 0.5 2 170 170 170
1 0.5 1 170 170 170
-1 -0.5 0 136 136 136
-1 0.5 0 136 136 136
0 0.5 0 136 136 136
0 -0.5 0 136 136 136
0 -0.5 0 170 170 170
0 0.5 0 170 170 170
1 0.5 0 170 170 170
1 -0.5 0 170 170 170
-1 -0.5 1 136 136 136
0 -0.5 1 136 136 136
0 0.5 1 136 136 136
-1 0.5 1 136 136 136
0 -0.5 2 170 170 170
1 -0.5 2 170 170 170
1 0.5 2 170 170 170
0 0.5 2 170 170 170
4 0 1 2 3
4 4 5 6 7
4 8 9 10 11
4 12 13 14 15
4 16 17 18 19
4 20 21 22 23
4 24 25 26 27
4 28 29 30 31
4 32 33 34 35
4 36 37 38 39
4 40 41 42 43
4 44 45 46 47
4 48 49 50 51
4 52 53 54 55
