# MagicaVoxel @ ephtracy

# material
mtllib Office Hanging 1.mtl
usemtl palette

# normals
vn -1 0 0
vn 1 0 0
vn 0 0 1
vn 0 0 -1
vn 0 -1 0
vn 0 1 0

# texcoords
vt 0.0605469 0.5
vt 0.369141 0.5
vt 0.478516 0.5
vt 0.537109 0.5
vt 0.728516 0.5
vt 0.958984 0.5
vt 0.966797 0.5
vt 0.990234 0.5

# verts and faces
v -6 0 1
v -6 0 -1
v -6 1 -0
v -6 1 -1
v -6 11 1
v -6 11 -0
f -4/6/1 -5/6/1 -6/6/1
f -3/6/1 -5/6/1 -4/6/1
f -2/6/1 -4/6/1 -6/6/1
f -1/6/1 -4/6/1 -2/6/1
v -4 3 1
v -4 3 -0
v -4 8 1
v -4 8 -0
f -2/8/1 -3/8/1 -4/8/1
f -1/8/1 -3/8/1 -2/8/1
v -3 1 1
v -3 1 -1
v -3 2 1
v -3 2 -1
f -2/4/1 -3/4/1 -4/4/1
f -1/4/1 -3/4/1 -2/4/1
v 1 1 1
v 1 1 -1
v 1 3 1
v 1 3 -1
v 1 8 1
v 1 8 -1
v 1 10 1
v 1 10 -0
v 1 10 -1
v 1 11 -0
v 1 11 -1
f -9/3/1 -10/3/1 -11/3/1
f -8/3/1 -10/3/1 -9/3/1
f -5/2/1 -6/2/1 -7/2/1
f -4/2/1 -6/2/1 -5/2/1
f -3/2/1 -6/2/1 -4/2/1
f -2/4/1 -3/4/1 -4/4/1
f -1/4/1 -3/4/1 -2/4/1
v 2 3 -0
v 2 3 -1
v 2 4 -0
v 2 4 -1
f -2/3/1 -3/3/1 -4/3/1
f -1/3/1 -3/3/1 -2/3/1
v 5 1 1
v 5 1 -0
v 5 10 1
v 5 10 -0
f -2/6/1 -3/6/1 -4/6/1
f -1/6/1 -3/6/1 -2/6/1
v -5 1 1
v -5 1 -0
v -5 10 1
v -5 10 -0
f -4/6/2 -3/6/2 -2/6/2
f -2/6/2 -3/6/2 -1/6/2
v -1 1 1
v -1 1 -1
v -1 2 1
v -1 2 -1
f -4/4/2 -3/4/2 -2/4/2
f -2/4/2 -3/4/2 -1/4/2
v 0 3 1
v 0 3 -0
v 0 8 1
v 0 8 -0
f -4/8/2 -3/8/2 -2/8/2
f -2/8/2 -3/8/2 -1/8/2
v 3 3 -0
v 3 3 -1
v 3 4 -0
v 3 4 -1
f -4/3/2 -3/3/2 -2/3/2
f -2/3/2 -3/3/2 -1/3/2
v 4 1 1
v 4 1 -1
v 4 3 1
v 4 3 -1
v 4 8 1
v 4 8 -1
v 4 10 1
v 4 10 -0
v 4 10 -1
v 4 11 -0
v 4 11 -1
f -11/3/2 -10/3/2 -9/3/2
f -9/3/2 -10/3/2 -8/3/2
f -7/2/2 -6/2/2 -5/2/2
f -5/2/2 -6/2/2 -4/2/2
f -4/2/2 -6/2/2 -3/2/2
f -4/4/2 -3/4/2 -2/4/2
f -2/4/2 -3/4/2 -1/4/2
v 6 0 1
v 6 0 -1
v 6 1 -0
v 6 1 -1
v 6 11 1
v 6 11 -0
f -6/6/2 -5/6/2 -4/6/2
f -4/6/2 -5/6/2 -3/6/2
f -6/6/2 -4/6/2 -2/6/2
f -2/6/2 -4/6/2 -1/6/2
v -6 0 1
v -6 11 1
v -5 1 1
v -5 10 1
v -4 3 1
v -4 8 1
v -3 1 1
v -3 2 1
v -3 4 1
v -3 5 1
v -3 6 1
v -3 7 1
v -2 5 1
v -2 6 1
v -1 1 1
v -1 2 1
v -1 4 1
v -1 5 1
v -1 7 1
v 0 3 1
v 0 8 1
v 1 1 1
v 1 3 1
v 1 8 1
v 1 10 1
v 1 11 1
v 4 1 1
v 4 3 1
v 4 8 1
v 4 10 1
v 4 11 1
v 5 1 1
v 5 10 1
v 6 0 1
v 6 11 1
f -33/6/3 -34/6/3 -35/6/3
f -32/6/3 -34/6/3 -33/6/3
f -29/6/3 -33/6/3 -35/6/3
f -27/8/3 -30/8/3 -31/8/3
f -26/8/3 -30/8/3 -27/8/3
f -25/8/3 -30/8/3 -26/8/3
f -24/8/3 -30/8/3 -25/8/3
f -23/5/3 -26/5/3 -27/5/3
f -23/1/3 -25/1/3 -26/1/3
f -22/7/3 -24/7/3 -25/7/3
f -22/1/3 -25/1/3 -23/1/3
f -21/4/3 -28/4/3 -29/4/3
f -21/6/3 -29/6/3 -35/6/3
f -20/4/3 -28/4/3 -21/4/3
f -19/8/3 -27/8/3 -31/8/3
f -19/5/3 -23/5/3 -27/5/3
f -18/7/3 -22/7/3 -23/7/3
f -18/5/3 -23/5/3 -19/5/3
f -17/7/3 -24/7/3 -22/7/3
f -17/7/3 -22/7/3 -18/7/3
f -17/8/3 -30/8/3 -24/8/3
f -16/8/3 -18/8/3 -19/8/3
f -16/8/3 -19/8/3 -31/8/3
f -16/8/3 -17/8/3 -18/8/3
f -15/8/3 -30/8/3 -17/8/3
f -15/8/3 -17/8/3 -16/8/3
f -14/6/3 -21/6/3 -35/6/3
f -11/6/3 -34/6/3 -32/6/3
f -10/6/3 -34/6/3 -11/6/3
f -9/3/3 -13/3/3 -14/3/3
f -9/6/3 -14/6/3 -35/6/3
f -8/3/3 -13/3/3 -9/3/3
f -7/2/3 -11/2/3 -12/2/3
f -6/4/3 -10/4/3 -11/4/3
f -6/2/3 -11/2/3 -7/2/3
f -5/4/3 -10/4/3 -6/4/3
f -4/6/3 -9/6/3 -35/6/3
f -3/6/3 -5/6/3 -6/6/3
f -2/6/3 -4/6/3 -35/6/3
f -2/6/3 -3/6/3 -4/6/3
f -1/6/3 -5/6/3 -3/6/3
f -1/6/3 -3/6/3 -2/6/3
v 2 3 -0
v 2 4 -0
v 3 3 -0
v 3 4 -0
f -2/3/3 -3/3/3 -4/3/3
f -1/3/3 -3/3/3 -2/3/3
v -6 1 -0
v -6 11 -0
v -5 1 -0
v -5 10 -0
v -4 3 -0
v -4 8 -0
v -3 4 -0
v -3 5 -0
v -3 6 -0
v -3 7 -0
v -2 5 -0
v -2 6 -0
v -1 4 -0
v -1 5 -0
v -1 7 -0
v 0 3 -0
v 0 8 -0
v 1 10 -0
v 1 11 -0
v 4 10 -0
v 4 11 -0
v 5 1 -0
v 5 10 -0
v 6 1 -0
v 6 11 -0
f -25/6/4 -24/6/4 -23/6/4
f -23/6/4 -24/6/4 -22/6/4
f -21/8/4 -20/8/4 -19/8/4
f -19/8/4 -20/8/4 -18/8/4
f -18/8/4 -20/8/4 -17/8/4
f -17/8/4 -20/8/4 -16/8/4
f -19/5/4 -18/5/4 -15/5/4
f -18/1/4 -17/1/4 -15/1/4
f -17/7/4 -16/7/4 -14/7/4
f -15/1/4 -17/1/4 -14/1/4
f -21/8/4 -19/8/4 -13/8/4
f -19/5/4 -15/5/4 -13/5/4
f -15/7/4 -14/7/4 -12/7/4
f -13/5/4 -15/5/4 -12/5/4
f -14/7/4 -16/7/4 -11/7/4
f -12/7/4 -14/7/4 -11/7/4
f -16/8/4 -20/8/4 -11/8/4
f -13/8/4 -12/8/4 -10/8/4
f -21/8/4 -13/8/4 -10/8/4
f -12/8/4 -11/8/4 -10/8/4
f -11/8/4 -20/8/4 -9/8/4
f -10/8/4 -11/8/4 -9/8/4
f -22/6/4 -24/6/4 -8/6/4
f -8/6/4 -24/6/4 -7/6/4
f -6/6/4 -5/6/4 -3/6/4
f -4/6/4 -3/6/4 -2/6/4
f -3/6/4 -5/6/4 -1/6/4
f -2/6/4 -3/6/4 -1/6/4
v -6 0 -1
v -6 1 -1
v -3 1 -1
v -3 2 -1
v -1 1 -1
v -1 2 -1
v 1 1 -1
v 1 3 -1
v 1 8 -1
v 1 10 -1
v 1 11 -1
v 2 3 -1
v 2 4 -1
v 3 3 -1
v 3 4 -1
v 4 1 -1
v 4 3 -1
v 4 8 -1
v 4 10 -1
v 4 11 -1
v 6 0 -1
v 6 1 -1
f -22/6/4 -21/6/4 -20/6/4
f -22/6/4 -20/6/4 -18/6/4
f -20/4/4 -19/4/4 -18/4/4
f -18/4/4 -19/4/4 -17/4/4
f -22/6/4 -18/6/4 -16/6/4
f -16/3/4 -15/3/4 -11/3/4
f -16/3/4 -11/3/4 -9/3/4
f -11/3/4 -10/3/4 -9/3/4
f -9/3/4 -10/3/4 -8/3/4
f -22/6/4 -16/6/4 -7/6/4
f -16/3/4 -9/3/4 -7/3/4
f -7/3/4 -9/3/4 -6/3/4
f -14/2/4 -13/2/4 -5/2/4
f -13/4/4 -12/4/4 -4/4/4
f -5/2/4 -13/2/4 -4/2/4
f -4/4/4 -12/4/4 -3/4/4
f -22/6/4 -7/6/4 -2/6/4
f -2/6/4 -7/6/4 -1/6/4
v -6 0 1
v 6 0 1
v -6 0 -1
v 6 0 -1
f -2/6/5 -3/6/5 -4/6/5
f -1/6/5 -3/6/5 -2/6/5
v -4 3 1
v 0 3 1
v -4 3 -0
v 0 3 -0
f -2/8/5 -3/8/5 -4/8/5
f -1/8/5 -3/8/5 -2/8/5
v 1 8 1
v 4 8 1
v 1 8 -1
v 4 8 -1
f -2/2/5 -3/2/5 -4/2/5
f -1/2/5 -3/2/5 -2/2/5
v -5 10 1
v 1 10 1
v 4 10 1
v 5 10 1
v -5 10 -0
v 1 10 -0
v 4 10 -0
v 5 10 -0
f -4/6/5 -7/6/5 -8/6/5
f -3/6/5 -7/6/5 -4/6/5
f -2/6/5 -5/6/5 -6/6/5
f -1/6/5 -5/6/5 -2/6/5
v -5 1 1
v -3 1 1
v -1 1 1
v 1 1 1
v 4 1 1
v 5 1 1
v -6 1 -0
v -5 1 -0
v 5 1 -0
v 6 1 -0
v -6 1 -1
v -3 1 -1
v -1 1 -1
v 1 1 -1
v 4 1 -1
v 6 1 -1
f -16/6/6 -15/6/6 -9/6/6
f -12/6/6 -11/6/6 -8/6/6
f -10/6/6 -9/6/6 -6/6/6
f -9/6/6 -15/6/6 -5/6/6
f -6/6/6 -9/6/6 -5/6/6
f -14/6/6 -13/6/6 -4/6/6
f -4/6/6 -13/6/6 -3/6/6
f -8/6/6 -7/6/6 -2/6/6
f -12/6/6 -8/6/6 -2/6/6
f -2/6/6 -7/6/6 -1/6/6
v -3 2 1
v -1 2 1
v -3 2 -1
v -1 2 -1
f -4/4/6 -3/4/6 -2/4/6
f -2/4/6 -3/4/6 -1/4/6
v 1 3 1
v 4 3 1
v 2 3 -0
v 3 3 -0
v 1 3 -1
v 2 3 -1
v 3 3 -1
v 4 3 -1
f -8/3/6 -7/3/6 -6/3/6
f -6/3/6 -7/3/6 -5/3/6
f -8/3/6 -6/3/6 -4/3/6
f -4/3/6 -6/3/6 -3/3/6
f -5/3/6 -7/3/6 -2/3/6
f -2/3/6 -7/3/6 -1/3/6
v 2 4 -0
v 3 4 -0
v 2 4 -1
v 3 4 -1
f -4/3/6 -3/3/6 -2/3/6
f -2/3/6 -3/3/6 -1/3/6
v -4 8 1
v 0 8 1
v -4 8 -0
v 0 8 -0
f -4/8/6 -3/8/6 -2/8/6
f -2/8/6 -3/8/6 -1/8/6
v -6 11 1
v 1 11 1
v 4 11 1
v 6 11 1
v -6 11 -0
v 1 11 -0
v 4 11 -0
v 6 11 -0
v 1 11 -1
v 4 11 -1
f -10/6/6 -9/6/6 -6/6/6
f -9/4/6 -8/4/6 -5/4/6
f -6/6/6 -9/6/6 -5/6/6
f -8/6/6 -7/6/6 -4/6/6
f -5/4/6 -8/4/6 -4/4/6
f -4/6/6 -7/6/6 -3/6/6
f -5/4/6 -4/4/6 -2/4/6
f -2/4/6 -4/4/6 -1/4/6
