# MagicaVoxel @ ephtracy

# material
mtllib Wall Pendant 2.mtl
usemtl palette

# normals
vn -1 0 0
vn 1 0 0
vn 0 0 1
vn 0 0 -1
vn 0 -1 0
vn 0 1 0

# texcoords
vt 0.966797 0.5
vt 0.982422 0.5
vt 0.986328 0.5
vt 0.990234 0.5

# verts and faces
v -5.5 5 1.5
v -5.5 5 -1.5
v -5.5 6 1.5
v -5.5 6 -1.5
f -2/4/1 -3/4/1 -4/4/1
f -1/4/1 -3/4/1 -2/4/1
v -4.5 4 1.5
v -4.5 4 -1.5
v -4.5 5 1.5
v -4.5 5 -1.5
v -4.5 6 1.5
v -4.5 6 -1.5
v -4.5 7 1.5
v -4.5 7 -1.5
f -6/4/1 -7/4/1 -8/4/1
f -5/4/1 -7/4/1 -6/4/1
f -2/4/1 -3/4/1 -4/4/1
f -1/4/1 -3/4/1 -2/4/1
v -3.5 3 1.5
v -3.5 3 -1.5
v -3.5 4 1.5
v -3.5 4 -1.5
v -3.5 7 1.5
v -3.5 7 -1.5
v -3.5 8 1.5
v -3.5 8 -1.5
f -6/4/1 -7/4/1 -8/4/1
f -5/4/1 -7/4/1 -6/4/1
f -2/4/1 -3/4/1 -4/4/1
f -1/4/1 -3/4/1 -2/4/1
v -2.5 2 1.5
v -2.5 2 -1.5
v -2.5 3 1.5
v -2.5 3 -1.5
v -2.5 8 1.5
v -2.5 8 -1.5
v -2.5 9 1.5
v -2.5 9 -1.5
f -6/4/1 -7/4/1 -8/4/1
f -5/4/1 -7/4/1 -6/4/1
f -2/4/1 -3/4/1 -4/4/1
f -1/4/1 -3/4/1 -2/4/1
v -1.5 1 1.5
v -1.5 1 -0.5
v -1.5 2 1.5
v -1.5 2 -0.5
v -1.5 9 1.5
v -1.5 9 -1.5
v -1.5 10 1.5
v -1.5 10 -1.5
v -1.5 29 0.5
v -1.5 29 -0.5
v -1.5 29 -1.5
v -1.5 30 0.5
v -1.5 30 -0.5
v -1.5 30 -1.5
f -12/4/1 -13/4/1 -14/4/1
f -11/4/1 -13/4/1 -12/4/1
f -8/4/1 -9/4/1 -10/4/1
f -7/4/1 -9/4/1 -8/4/1
f -3/3/1 -5/3/1 -6/3/1
f -2/4/1 -4/4/1 -5/4/1
f -2/3/1 -5/3/1 -3/3/1
f -1/4/1 -4/4/1 -2/4/1
v -0.5 0 1.5
v -0.5 0 -0.5
v -0.5 1 1.5
v -0.5 1 -0.5
v -0.5 1 -1.5
v -0.5 2 -0.5
v -0.5 2 -1.5
v -0.5 10 1.5
v -0.5 10 -1.5
v -0.5 11 1.5
v -0.5 11 0.5
v -0.5 11 -0.5
v -0.5 11 -1.5
v -0.5 12 0.5
v -0.5 12 -0.5
v -0.5 13 0.5
v -0.5 13 -0.5
v -0.5 14 0.5
v -0.5 14 -0.5
v -0.5 15 0.5
v -0.5 15 -0.5
v -0.5 16 0.5
v -0.5 16 -0.5
v -0.5 17 0.5
v -0.5 17 -0.5
v -0.5 18 0.5
v -0.5 18 -0.5
v -0.5 19 0.5
v -0.5 19 -0.5
v -0.5 20 0.5
v -0.5 20 -0.5
v -0.5 21 0.5
v -0.5 21 -0.5
v -0.5 22 0.5
v -0.5 22 -0.5
v -0.5 23 0.5
v -0.5 23 -0.5
v -0.5 24 0.5
v -0.5 24 -0.5
v -0.5 25 0.5
v -0.5 25 -0.5
v -0.5 26 0.5
v -0.5 26 -0.5
v -0.5 27 0.5
v -0.5 27 -0.5
v -0.5 28 0.5
v -0.5 28 -0.5
v -0.5 29 1.5
v -0.5 29 0.5
v -0.5 29 -0.5
v -0.5 30 1.5
v -0.5 30 0.5
f -50/4/1 -51/4/1 -52/4/1
f -49/4/1 -51/4/1 -50/4/1
f -47/4/1 -48/4/1 -49/4/1
f -46/4/1 -48/4/1 -47/4/1
f -43/4/1 -44/4/1 -45/4/1
f -42/4/1 -44/4/1 -43/4/1
f -41/4/1 -44/4/1 -42/4/1
f -40/4/1 -44/4/1 -41/4/1
f -39/2/1 -41/2/1 -42/2/1
f -38/2/1 -41/2/1 -39/2/1
f -37/3/1 -38/3/1 -39/3/1
f -36/3/1 -38/3/1 -37/3/1
f -35/2/1 -36/2/1 -37/2/1
f -34/2/1 -36/2/1 -35/2/1
f -33/3/1 -34/3/1 -35/3/1
f -32/3/1 -34/3/1 -33/3/1
f -31/2/1 -32/2/1 -33/2/1
f -30/2/1 -32/2/1 -31/2/1
f -29/3/1 -30/3/1 -31/3/1
f -28/3/1 -30/3/1 -29/3/1
f -27/2/1 -28/2/1 -29/2/1
f -26/2/1 -28/2/1 -27/2/1
f -25/3/1 -26/3/1 -27/3/1
f -24/3/1 -26/3/1 -25/3/1
f -23/2/1 -24/2/1 -25/2/1
f -22/2/1 -24/2/1 -23/2/1
f -21/3/1 -22/3/1 -23/3/1
f -20/3/1 -22/3/1 -21/3/1
f -19/2/1 -20/2/1 -21/2/1
f -18/2/1 -20/2/1 -19/2/1
f -17/3/1 -18/3/1 -19/3/1
f -16/3/1 -18/3/1 -17/3/1
f -15/2/1 -16/2/1 -17/2/1
f -14/2/1 -16/2/1 -15/2/1
f -13/3/1 -14/3/1 -15/3/1
f -12/3/1 -14/3/1 -13/3/1
f -11/2/1 -12/2/1 -13/2/1
f -10/2/1 -12/2/1 -11/2/1
f -9/3/1 -10/3/1 -11/3/1
f -8/3/1 -10/3/1 -9/3/1
f -7/2/1 -8/2/1 -9/2/1
f -6/2/1 -8/2/1 -7/2/1
f -4/3/1 -6/3/1 -7/3/1
f -3/3/1 -6/3/1 -4/3/1
f -2/2/1 -4/2/1 -5/2/1
f -1/2/1 -4/2/1 -2/2/1
v 0.5 2 1.5
v 0.5 2 0.5
v 0.5 3 1.5
v 0.5 3 0.5
v 0.5 8 1.5
v 0.5 8 0.5
v 0.5 9 1.5
v 0.5 9 0.5
f -6/4/1 -7/4/1 -8/4/1
f -5/4/1 -7/4/1 -6/4/1
f -2/4/1 -3/4/1 -4/4/1
f -1/4/1 -3/4/1 -2/4/1
v 1.5 3 1.5
v 1.5 3 0.5
v 1.5 4 1.5
v 1.5 4 0.5
v 1.5 7 1.5
v 1.5 7 0.5
v 1.5 8 1.5
v 1.5 8 0.5
f -6/4/1 -7/4/1 -8/4/1
f -5/4/1 -7/4/1 -6/4/1
f -2/4/1 -3/4/1 -4/4/1
f -1/4/1 -3/4/1 -2/4/1
v 2.5 4 1.5
v 2.5 4 0.5
v 2.5 5 1.5
v 2.5 5 0.5
v 2.5 6 1.5
v 2.5 6 0.5
v 2.5 7 1.5
v 2.5 7 0.5
f -6/4/1 -7/4/1 -8/4/1
f -5/4/1 -7/4/1 -6/4/1
f -2/4/1 -3/4/1 -4/4/1
f -1/4/1 -3/4/1 -2/4/1
v 3.5 5 1.5
v 3.5 5 0.5
v 3.5 6 1.5
v 3.5 6 0.5
f -2/4/1 -3/4/1 -4/4/1
f -1/4/1 -3/4/1 -2/4/1
v -3.5 5 1.5
v -3.5 5 0.5
v -3.5 6 1.5
v -3.5 6 0.5
f -4/4/2 -3/4/2 -2/4/2
f -2/4/2 -3/4/2 -1/4/2
v -2.5 4 1.5
v -2.5 4 0.5
v -2.5 5 1.5
v -2.5 5 0.5
v -2.5 6 1.5
v -2.5 6 0.5
v -2.5 7 1.5
v -2.5 7 0.5
f -8/4/2 -7/4/2 -6/4/2
f -6/4/2 -7/4/2 -5/4/2
f -4/4/2 -3/4/2 -2/4/2
f -2/4/2 -3/4/2 -1/4/2
v -1.5 3 1.5
v -1.5 3 0.5
v -1.5 4 1.5
v -1.5 4 0.5
v -1.5 7 1.5
v -1.5 7 0.5
v -1.5 8 1.5
v -1.5 8 0.5
f -8/4/2 -7/4/2 -6/4/2
f -6/4/2 -7/4/2 -5/4/2
f -4/4/2 -3/4/2 -2/4/2
f -2/4/2 -3/4/2 -1/4/2
v -0.5 2 1.5
v -0.5 2 0.5
v -0.5 3 1.5
v -0.5 3 0.5
v -0.5 8 1.5
v -0.5 8 0.5
v -0.5 9 1.5
v -0.5 9 0.5
f -8/4/2 -7/4/2 -6/4/2
f -6/4/2 -7/4/2 -5/4/2
f -4/4/2 -3/4/2 -2/4/2
f -2/4/2 -3/4/2 -1/4/2
v 0.5 0 1.5
v 0.5 0 -0.5
v 0.5 1 1.5
v 0.5 1 -0.5
v 0.5 1 -1.5
v 0.5 2 -0.5
v 0.5 2 -1.5
v 0.5 10 1.5
v 0.5 10 -1.5
v 0.5 11 1.5
v 0.5 11 0.5
v 0.5 11 -0.5
v 0.5 11 -1.5
v 0.5 12 0.5
v 0.5 12 -0.5
v 0.5 13 0.5
v 0.5 13 -0.5
v 0.5 14 0.5
v 0.5 14 -0.5
v 0.5 15 0.5
v 0.5 15 -0.5
v 0.5 16 0.5
v 0.5 16 -0.5
v 0.5 17 0.5
v 0.5 17 -0.5
v 0.5 18 0.5
v 0.5 18 -0.5
v 0.5 19 0.5
v 0.5 19 -0.5
v 0.5 20 0.5
v 0.5 20 -0.5
v 0.5 21 0.5
v 0.5 21 -0.5
v 0.5 22 0.5
v 0.5 22 -0.5
v 0.5 23 0.5
v 0.5 23 -0.5
v 0.5 24 0.5
v 0.5 24 -0.5
v 0.5 25 0.5
v 0.5 25 -0.5
v 0.5 26 0.5
v 0.5 26 -0.5
v 0.5 27 0.5
v 0.5 27 -0.5
v 0.5 28 0.5
v 0.5 28 -0.5
v 0.5 29 1.5
v 0.5 29 0.5
v 0.5 29 -0.5
v 0.5 30 1.5
v 0.5 30 0.5
f -52/4/2 -51/4/2 -50/4/2
f -50/4/2 -51/4/2 -49/4/2
f -49/4/2 -48/4/2 -47/4/2
f -47/4/2 -48/4/2 -46/4/2
f -45/4/2 -44/4/2 -43/4/2
f -43/4/2 -44/4/2 -42/4/2
f -42/4/2 -44/4/2 -41/4/2
f -41/4/2 -44/4/2 -40/4/2
f -42/2/2 -41/2/2 -39/2/2
f -39/2/2 -41/2/2 -38/2/2
f -39/3/2 -38/3/2 -37/3/2
f -37/3/2 -38/3/2 -36/3/2
f -37/2/2 -36/2/2 -35/2/2
f -35/2/2 -36/2/2 -34/2/2
f -35/3/2 -34/3/2 -33/3/2
f -33/3/2 -34/3/2 -32/3/2
f -33/2/2 -32/2/2 -31/2/2
f -31/2/2 -32/2/2 -30/2/2
f -31/3/2 -30/3/2 -29/3/2
f -29/3/2 -30/3/2 -28/3/2
f -29/2/2 -28/2/2 -27/2/2
f -27/2/2 -28/2/2 -26/2/2
f -27/3/2 -26/3/2 -25/3/2
f -25/3/2 -26/3/2 -24/3/2
f -25/2/2 -24/2/2 -23/2/2
f -23/2/2 -24/2/2 -22/2/2
f -23/3/2 -22/3/2 -21/3/2
f -21/3/2 -22/3/2 -20/3/2
f -21/2/2 -20/2/2 -19/2/2
f -19/2/2 -20/2/2 -18/2/2
f -19/3/2 -18/3/2 -17/3/2
f -17/3/2 -18/3/2 -16/3/2
f -17/2/2 -16/2/2 -15/2/2
f -15/2/2 -16/2/2 -14/2/2
f -15/3/2 -14/3/2 -13/3/2
f -13/3/2 -14/3/2 -12/3/2
f -13/2/2 -12/2/2 -11/2/2
f -11/2/2 -12/2/2 -10/2/2
f -11/3/2 -10/3/2 -9/3/2
f -9/3/2 -10/3/2 -8/3/2
f -9/2/2 -8/2/2 -7/2/2
f -7/2/2 -8/2/2 -6/2/2
f -7/3/2 -6/3/2 -4/3/2
f -4/3/2 -6/3/2 -3/3/2
f -5/2/2 -4/2/2 -2/2/2
f -2/2/2 -4/2/2 -1/2/2
v 1.5 1 1.5
v 1.5 1 -0.5
v 1.5 2 1.5
v 1.5 2 -0.5
v 1.5 9 1.5
v 1.5 9 -1.5
v 1.5 10 1.5
v 1.5 10 -1.5
v 1.5 29 0.5
v 1.5 29 -0.5
v 1.5 29 -1.5
v 1.5 30 0.5
v 1.5 30 -0.5
v 1.5 30 -1.5
f -14/4/2 -13/4/2 -12/4/2
f -12/4/2 -13/4/2 -11/4/2
f -10/4/2 -9/4/2 -8/4/2
f -8/4/2 -9/4/2 -7/4/2
f -6/3/2 -5/3/2 -3/3/2
f -5/4/2 -4/4/2 -2/4/2
f -3/3/2 -5/3/2 -2/3/2
f -2/4/2 -4/4/2 -1/4/2
v 2.5 2 1.5
v 2.5 2 -1.5
v 2.5 3 1.5
v 2.5 3 -1.5
v 2.5 8 1.5
v 2.5 8 -1.5
v 2.5 9 1.5
v 2.5 9 -1.5
f -8/4/2 -7/4/2 -6/4/2
f -6/4/2 -7/4/2 -5/4/2
f -4/4/2 -3/4/2 -2/4/2
f -2/4/2 -3/4/2 -1/4/2
v 3.5 3 1.5
v 3.5 3 -1.5
v 3.5 4 1.5
v 3.5 4 -1.5
v 3.5 7 1.5
v 3.5 7 -1.5
v 3.5 8 1.5
v 3.5 8 -1.5
f -8/4/2 -7/4/2 -6/4/2
f -6/4/2 -7/4/2 -5/4/2
f -4/4/2 -3/4/2 -2/4/2
f -2/4/2 -3/4/2 -1/4/2
v 4.5 4 1.5
v 4.5 4 -1.5
v 4.5 5 1.5
v 4.5 5 -1.5
v 4.5 6 1.5
v 4.5 6 -1.5
v 4.5 7 1.5
v 4.5 7 -1.5
f -8/4/2 -7/4/2 -6/4/2
f -6/4/2 -7/4/2 -5/4/2
f -4/4/2 -3/4/2 -2/4/2
f -2/4/2 -3/4/2 -1/4/2
v 5.5 5 1.5
v 5.5 5 -1.5
v 5.5 6 1.5
v 5.5 6 -1.5
f -4/4/2 -3/4/2 -2/4/2
f -2/4/2 -3/4/2 -1/4/2
v -5.5 5 1.5
v -5.5 6 1.5
v -4.5 4 1.5
v -4.5 5 1.5
v -4.5 6 1.5
v -4.5 7 1.5
v -3.5 3 1.5
v -3.5 4 1.5
v -3.5 5 1.5
v -3.5 6 1.5
v -3.5 7 1.5
v -3.5 8 1.5
v -2.5 2 1.5
v -2.5 3 1.5
v -2.5 4 1.5
v -2.5 5 1.5
v -2.5 6 1.5
v -2.5 7 1.5
v -2.5 8 1.5
v -2.5 9 1.5
v -1.5 1 1.5
v -1.5 2 1.5
v -1.5 3 1.5
v -1.5 4 1.5
v -1.5 7 1.5
v -1.5 8 1.5
v -1.5 9 1.5
v -1.5 10 1.5
v -0.5 0 1.5
v -0.5 1 1.5
v -0.5 2 1.5
v -0.5 3 1.5
v -0.5 8 1.5
v -0.5 9 1.5
v -0.5 10 1.5
v -0.5 11 1.5
v -0.5 29 1.5
v -0.5 30 1.5
v 0.5 0 1.5
v 0.5 1 1.5
v 0.5 2 1.5
v 0.5 3 1.5
v 0.5 8 1.5
v 0.5 9 1.5
v 0.5 10 1.5
v 0.5 11 1.5
v 0.5 29 1.5
v 0.5 30 1.5
v 1.5 1 1.5
v 1.5 2 1.5
v 1.5 3 1.5
v 1.5 4 1.5
v 1.5 7 1.5
v 1.5 8 1.5
v 1.5 9 1.5
v 1.5 10 1.5
v 2.5 2 1.5
v 2.5 3 1.5
v 2.5 4 1.5
v 2.5 5 1.5
v 2.5 6 1.5
v 2.5 7 1.5
v 2.5 8 1.5
v 2.5 9 1.5
v 3.5 3 1.5
v 3.5 4 1.5
v 3.5 5 1.5
v 3.5 6 1.5
v 3.5 7 1.5
v 3.5 8 1.5
v 4.5 4 1.5
v 4.5 5 1.5
v 4.5 6 1.5
v 4.5 7 1.5
v 5.5 5 1.5
v 5.5 6 1.5
f -73/4/3 -75/4/3 -76/4/3
f -72/4/3 -75/4/3 -73/4/3
f -69/4/3 -73/4/3 -74/4/3
f -69/4/3 -71/4/3 -72/4/3
f -69/4/3 -72/4/3 -73/4/3
f -68/4/3 -71/4/3 -69/4/3
f -67/4/3 -71/4/3 -68/4/3
f -66/4/3 -71/4/3 -67/4/3
f -63/4/3 -69/4/3 -70/4/3
f -63/4/3 -68/4/3 -69/4/3
f -62/4/3 -68/4/3 -63/4/3
f -61/4/3 -68/4/3 -62/4/3
f -60/4/3 -66/4/3 -67/4/3
f -60/4/3 -65/4/3 -66/4/3
f -59/4/3 -65/4/3 -60/4/3
f -58/4/3 -65/4/3 -59/4/3
f -55/4/3 -62/4/3 -63/4/3
f -55/4/3 -63/4/3 -64/4/3
f -54/4/3 -62/4/3 -55/4/3
f -53/4/3 -62/4/3 -54/4/3
f -52/4/3 -57/4/3 -58/4/3
f -52/4/3 -58/4/3 -59/4/3
f -51/4/3 -57/4/3 -52/4/3
f -50/4/3 -57/4/3 -51/4/3
f -47/4/3 -54/4/3 -55/4/3
f -47/4/3 -55/4/3 -56/4/3
f -46/4/3 -54/4/3 -47/4/3
f -45/4/3 -54/4/3 -46/4/3
f -44/4/3 -49/4/3 -50/4/3
f -44/4/3 -50/4/3 -51/4/3
f -43/4/3 -49/4/3 -44/4/3
f -42/4/3 -49/4/3 -43/4/3
f -38/4/3 -46/4/3 -47/4/3
f -38/4/3 -47/4/3 -48/4/3
f -37/4/3 -46/4/3 -38/4/3
f -36/4/3 -46/4/3 -37/4/3
f -33/4/3 -41/4/3 -42/4/3
f -33/4/3 -42/4/3 -43/4/3
f -32/4/3 -41/4/3 -33/4/3
f -31/4/3 -41/4/3 -32/4/3
f -30/2/3 -39/2/3 -40/2/3
f -29/2/3 -39/2/3 -30/2/3
f -28/4/3 -35/4/3 -36/4/3
f -28/4/3 -36/4/3 -37/4/3
f -27/4/3 -35/4/3 -28/4/3
f -26/4/3 -35/4/3 -27/4/3
f -23/4/3 -32/4/3 -33/4/3
f -23/4/3 -33/4/3 -34/4/3
f -22/4/3 -32/4/3 -23/4/3
f -21/4/3 -32/4/3 -22/4/3
f -20/4/3 -25/4/3 -26/4/3
f -20/4/3 -26/4/3 -27/4/3
f -19/4/3 -25/4/3 -20/4/3
f -18/4/3 -25/4/3 -19/4/3
f -15/4/3 -22/4/3 -23/4/3
f -15/4/3 -23/4/3 -24/4/3
f -14/4/3 -22/4/3 -15/4/3
f -13/4/3 -22/4/3 -14/4/3
f -12/4/3 -17/4/3 -18/4/3
f -12/4/3 -18/4/3 -19/4/3
f -11/4/3 -17/4/3 -12/4/3
f -10/4/3 -17/4/3 -11/4/3
f -9/4/3 -14/4/3 -15/4/3
f -9/4/3 -15/4/3 -16/4/3
f -8/4/3 -14/4/3 -9/4/3
f -7/4/3 -14/4/3 -8/4/3
f -6/4/3 -10/4/3 -11/4/3
f -6/4/3 -8/4/3 -9/4/3
f -6/4/3 -9/4/3 -10/4/3
f -5/4/3 -8/4/3 -6/4/3
f -4/4/3 -8/4/3 -5/4/3
f -3/4/3 -8/4/3 -4/4/3
f -2/4/3 -4/4/3 -5/4/3
f -1/4/3 -4/4/3 -2/4/3
v -3.5 5 0.5
v -3.5 6 0.5
v -2.5 4 0.5
v -2.5 5 0.5
v -2.5 6 0.5
v -2.5 7 0.5
v -1.5 3 0.5
v -1.5 4 0.5
v -1.5 7 0.5
v -1.5 8 0.5
v -1.5 29 0.5
v -1.5 30 0.5
v -0.5 2 0.5
v -0.5 3 0.5
v -0.5 8 0.5
v -0.5 9 0.5
v -0.5 11 0.5
v -0.5 12 0.5
v -0.5 13 0.5
v -0.5 14 0.5
v -0.5 15 0.5
v -0.5 16 0.5
v -0.5 17 0.5
v -0.5 18 0.5
v -0.5 19 0.5
v -0.5 20 0.5
v -0.5 21 0.5
v -0.5 22 0.5
v -0.5 23 0.5
v -0.5 24 0.5
v -0.5 25 0.5
v -0.5 26 0.5
v -0.5 27 0.5
v -0.5 28 0.5
v -0.5 29 0.5
v -0.5 30 0.5
v 0.5 2 0.5
v 0.5 3 0.5
v 0.5 8 0.5
v 0.5 9 0.5
v 0.5 11 0.5
v 0.5 12 0.5
v 0.5 13 0.5
v 0.5 14 0.5
v 0.5 15 0.5
v 0.5 16 0.5
v 0.5 17 0.5
v 0.5 18 0.5
v 0.5 19 0.5
v 0.5 20 0.5
v 0.5 21 0.5
v 0.5 22 0.5
v 0.5 23 0.5
v 0.5 24 0.5
v 0.5 25 0.5
v 0.5 26 0.5
v 0.5 27 0.5
v 0.5 28 0.5
v 0.5 29 0.5
v 0.5 30 0.5
v 1.5 3 0.5
v 1.5 4 0.5
v 1.5 7 0.5
v 1.5 8 0.5
v 1.5 29 0.5
v 1.5 30 0.5
v 2.5 4 0.5
v 2.5 5 0.5
v 2.5 6 0.5
v 2.5 7 0.5
v 3.5 5 0.5
v 3.5 6 0.5
f -69/1/3 -71/1/3 -72/1/3
f -68/1/3 -71/1/3 -69/1/3
f -65/1/3 -69/1/3 -70/1/3
f -65/1/3 -67/1/3 -68/1/3
f -65/1/3 -68/1/3 -69/1/3
f -64/1/3 -67/1/3 -65/1/3
f -59/1/3 -65/1/3 -66/1/3
f -59/1/3 -64/1/3 -65/1/3
f -59/1/3 -63/1/3 -64/1/3
f -58/1/3 -63/1/3 -59/1/3
f -38/3/3 -61/3/3 -62/3/3
f -37/3/3 -61/3/3 -38/3/3
f -36/1/3 -59/1/3 -60/1/3
f -36/1/3 -58/1/3 -59/1/3
f -36/1/3 -57/1/3 -58/1/3
f -35/1/3 -57/1/3 -36/1/3
f -34/1/3 -57/1/3 -35/1/3
f -33/1/3 -57/1/3 -34/1/3
f -32/2/3 -55/2/3 -56/2/3
f -31/3/3 -54/3/3 -55/3/3
f -31/2/3 -55/2/3 -32/2/3
f -30/2/3 -53/2/3 -54/2/3
f -30/3/3 -54/3/3 -31/3/3
f -29/3/3 -52/3/3 -53/3/3
f -29/2/3 -53/2/3 -30/2/3
f -28/2/3 -51/2/3 -52/2/3
f -28/3/3 -52/3/3 -29/3/3
f -27/3/3 -50/3/3 -51/3/3
f -27/2/3 -51/2/3 -28/2/3
f -26/2/3 -49/2/3 -50/2/3
f -26/3/3 -50/3/3 -27/3/3
f -25/3/3 -48/3/3 -49/3/3
f -25/2/3 -49/2/3 -26/2/3
f -24/2/3 -47/2/3 -48/2/3
f -24/3/3 -48/3/3 -25/3/3
f -23/3/3 -46/3/3 -47/3/3
f -23/2/3 -47/2/3 -24/2/3
f -22/2/3 -45/2/3 -46/2/3
f -22/3/3 -46/3/3 -23/3/3
f -21/3/3 -44/3/3 -45/3/3
f -21/2/3 -45/2/3 -22/2/3
f -20/2/3 -43/2/3 -44/2/3
f -20/3/3 -44/3/3 -21/3/3
f -19/3/3 -42/3/3 -43/3/3
f -19/2/3 -43/2/3 -20/2/3
f -18/2/3 -41/2/3 -42/2/3
f -18/3/3 -42/3/3 -19/3/3
f -17/3/3 -40/3/3 -41/3/3
f -17/2/3 -41/2/3 -18/2/3
f -16/2/3 -39/2/3 -40/2/3
f -16/3/3 -40/3/3 -17/3/3
f -15/3/3 -38/3/3 -39/3/3
f -15/2/3 -39/2/3 -16/2/3
f -14/3/3 -38/3/3 -15/3/3
f -12/1/3 -34/1/3 -35/1/3
f -11/1/3 -34/1/3 -12/1/3
f -10/1/3 -34/1/3 -11/1/3
f -9/1/3 -34/1/3 -10/1/3
f -8/3/3 -13/3/3 -14/3/3
f -7/3/3 -13/3/3 -8/3/3
f -6/1/3 -10/1/3 -11/1/3
f -5/1/3 -10/1/3 -6/1/3
f -4/1/3 -10/1/3 -5/1/3
f -3/1/3 -10/1/3 -4/1/3
f -2/1/3 -4/1/3 -5/1/3
f -1/1/3 -4/1/3 -2/1/3
v -1.5 1 -0.5
v -1.5 2 -0.5
v -0.5 0 -0.5
v -0.5 1 -0.5
v -0.5 2 -0.5
v -0.5 11 -0.5
v -0.5 12 -0.5
v -0.5 13 -0.5
v -0.5 14 -0.5
v -0.5 15 -0.5
v -0.5 16 -0.5
v -0.5 17 -0.5
v -0.5 18 -0.5
v -0.5 19 -0.5
v -0.5 20 -0.5
v -0.5 21 -0.5
v -0.5 22 -0.5
v -0.5 23 -0.5
v -0.5 24 -0.5
v -0.5 25 -0.5
v -0.5 26 -0.5
v -0.5 27 -0.5
v -0.5 28 -0.5
v -0.5 29 -0.5
v 0.5 0 -0.5
v 0.5 1 -0.5
v 0.5 2 -0.5
v 0.5 11 -0.5
v 0.5 12 -0.5
v 0.5 13 -0.5
v 0.5 14 -0.5
v 0.5 15 -0.5
v 0.5 16 -0.5
v 0.5 17 -0.5
v 0.5 18 -0.5
v 0.5 19 -0.5
v 0.5 20 -0.5
v 0.5 21 -0.5
v 0.5 22 -0.5
v 0.5 23 -0.5
v 0.5 24 -0.5
v 0.5 25 -0.5
v 0.5 26 -0.5
v 0.5 27 -0.5
v 0.5 28 -0.5
v 0.5 29 -0.5
v 1.5 1 -0.5
v 1.5 2 -0.5
f -48/4/4 -47/4/4 -45/4/4
f -45/4/4 -47/4/4 -44/4/4
f -46/4/4 -45/4/4 -24/4/4
f -24/4/4 -45/4/4 -23/4/4
f -43/2/4 -42/2/4 -21/2/4
f -42/3/4 -41/3/4 -20/3/4
f -21/2/4 -42/2/4 -20/2/4
f -41/2/4 -40/2/4 -19/2/4
f -20/3/4 -41/3/4 -19/3/4
f -40/3/4 -39/3/4 -18/3/4
f -19/2/4 -40/2/4 -18/2/4
f -39/2/4 -38/2/4 -17/2/4
f -18/3/4 -39/3/4 -17/3/4
f -38/3/4 -37/3/4 -16/3/4
f -17/2/4 -38/2/4 -16/2/4
f -37/2/4 -36/2/4 -15/2/4
f -16/3/4 -37/3/4 -15/3/4
f -36/3/4 -35/3/4 -14/3/4
f -15/2/4 -36/2/4 -14/2/4
f -35/2/4 -34/2/4 -13/2/4
f -14/3/4 -35/3/4 -13/3/4
f -34/3/4 -33/3/4 -12/3/4
f -13/2/4 -34/2/4 -12/2/4
f -33/2/4 -32/2/4 -11/2/4
f -12/3/4 -33/3/4 -11/3/4
f -32/3/4 -31/3/4 -10/3/4
f -11/2/4 -32/2/4 -10/2/4
f -31/2/4 -30/2/4 -9/2/4
f -10/3/4 -31/3/4 -9/3/4
f -30/3/4 -29/3/4 -8/3/4
f -9/2/4 -30/2/4 -8/2/4
f -29/2/4 -28/2/4 -7/2/4
f -8/3/4 -29/3/4 -7/3/4
f -28/3/4 -27/3/4 -6/3/4
f -7/2/4 -28/2/4 -6/2/4
f -27/2/4 -26/2/4 -5/2/4
f -6/3/4 -27/3/4 -5/3/4
f -26/3/4 -25/3/4 -4/3/4
f -5/2/4 -26/2/4 -4/2/4
f -4/3/4 -25/3/4 -3/3/4
f -23/4/4 -22/4/4 -2/4/4
f -2/4/4 -22/4/4 -1/4/4
v -5.5 5 -1.5
v -5.5 6 -1.5
v -4.5 4 -1.5
v -4.5 5 -1.5
v -4.5 6 -1.5
v -4.5 7 -1.5
v -3.5 3 -1.5
v -3.5 4 -1.5
v -3.5 7 -1.5
v -3.5 8 -1.5
v -2.5 2 -1.5
v -2.5 3 -1.5
v -2.5 8 -1.5
v -2.5 9 -1.5
v -1.5 9 -1.5
v -1.5 10 -1.5
v -1.5 29 -1.5
v -1.5 30 -1.5
v -0.5 1 -1.5
v -0.5 2 -1.5
v -0.5 10 -1.5
v -0.5 11 -1.5
v 0.5 1 -1.5
v 0.5 2 -1.5
v 0.5 10 -1.5
v 0.5 11 -1.5
v 1.5 9 -1.5
v 1.5 10 -1.5
v 1.5 29 -1.5
v 1.5 30 -1.5
v 2.5 2 -1.5
v 2.5 3 -1.5
v 2.5 8 -1.5
v 2.5 9 -1.5
v 3.5 3 -1.5
v 3.5 4 -1.5
v 3.5 7 -1.5
v 3.5 8 -1.5
v 4.5 4 -1.5
v 4.5 5 -1.5
v 4.5 6 -1.5
v 4.5 7 -1.5
v 5.5 5 -1.5
v 5.5 6 -1.5
f -44/4/4 -43/4/4 -41/4/4
f -41/4/4 -43/4/4 -40/4/4
f -42/4/4 -41/4/4 -37/4/4
f -40/4/4 -39/4/4 -37/4/4
f -41/4/4 -40/4/4 -37/4/4
f -37/4/4 -39/4/4 -36/4/4
f -38/4/4 -37/4/4 -33/4/4
f -36/4/4 -35/4/4 -33/4/4
f -37/4/4 -36/4/4 -33/4/4
f -33/4/4 -35/4/4 -32/4/4
f -34/4/4 -33/4/4 -30/4/4
f -32/4/4 -31/4/4 -30/4/4
f -33/4/4 -32/4/4 -30/4/4
f -34/4/4 -30/4/4 -25/4/4
f -30/4/4 -29/4/4 -25/4/4
f -25/4/4 -29/4/4 -24/4/4
f -26/4/4 -25/4/4 -22/4/4
f -24/4/4 -23/4/4 -22/4/4
f -25/4/4 -24/4/4 -22/4/4
f -22/4/4 -23/4/4 -21/4/4
f -21/4/4 -23/4/4 -20/4/4
f -20/4/4 -23/4/4 -19/4/4
f -21/4/4 -20/4/4 -18/4/4
f -18/4/4 -20/4/4 -17/4/4
f -28/4/4 -27/4/4 -16/4/4
f -16/4/4 -27/4/4 -15/4/4
f -21/4/4 -18/4/4 -14/4/4
f -14/4/4 -18/4/4 -13/4/4
f -13/4/4 -18/4/4 -12/4/4
f -12/4/4 -18/4/4 -11/4/4
f -13/4/4 -12/4/4 -10/4/4
f -10/4/4 -12/4/4 -9/4/4
f -9/4/4 -12/4/4 -8/4/4
f -8/4/4 -12/4/4 -7/4/4
f -9/4/4 -8/4/4 -6/4/4
f -6/4/4 -8/4/4 -5/4/4
f -5/4/4 -8/4/4 -4/4/4
f -4/4/4 -8/4/4 -3/4/4
f -5/4/4 -4/4/4 -2/4/4
f -2/4/4 -4/4/4 -1/4/4
v -0.5 0 1.5
v 0.5 0 1.5
v -0.5 0 -0.5
v 0.5 0 -0.5
f -2/4/5 -3/4/5 -4/4/5
f -1/4/5 -3/4/5 -2/4/5
v -1.5 1 1.5
v -0.5 1 1.5
v 0.5 1 1.5
v 1.5 1 1.5
v -1.5 1 -0.5
v -0.5 1 -0.5
v 0.5 1 -0.5
v 1.5 1 -0.5
v -0.5 1 -1.5
v 0.5 1 -1.5
f -6/4/5 -9/4/5 -10/4/5
f -5/4/5 -9/4/5 -6/4/5
f -4/4/5 -7/4/5 -8/4/5
f -3/4/5 -7/4/5 -4/4/5
f -2/4/5 -4/4/5 -5/4/5
f -1/4/5 -4/4/5 -2/4/5
v -2.5 2 1.5
v -1.5 2 1.5
v 1.5 2 1.5
v 2.5 2 1.5
v -1.5 2 -0.5
v -0.5 2 -0.5
v 0.5 2 -0.5
v 1.5 2 -0.5
v -2.5 2 -1.5
v -0.5 2 -1.5
v 0.5 2 -1.5
v 2.5 2 -1.5
f -8/4/5 -11/4/5 -12/4/5
f -5/4/5 -9/4/5 -10/4/5
f -4/4/5 -7/4/5 -8/4/5
f -4/4/5 -8/4/5 -12/4/5
f -3/4/5 -7/4/5 -4/4/5
f -2/4/5 -5/4/5 -6/4/5
f -1/4/5 -9/4/5 -5/4/5
f -1/4/5 -5/4/5 -2/4/5
v -3.5 3 1.5
v -2.5 3 1.5
v 2.5 3 1.5
v 3.5 3 1.5
v -3.5 3 -1.5
v -2.5 3 -1.5
v 2.5 3 -1.5
v 3.5 3 -1.5
f -4/4/5 -7/4/5 -8/4/5
f -3/4/5 -7/4/5 -4/4/5
f -2/4/5 -5/4/5 -6/4/5
f -1/4/5 -5/4/5 -2/4/5
v -4.5 4 1.5
v -3.5 4 1.5
v 3.5 4 1.5
v 4.5 4 1.5
v -4.5 4 -1.5
v -3.5 4 -1.5
v 3.5 4 -1.5
v 4.5 4 -1.5
f -4/4/5 -7/4/5 -8/4/5
f -3/4/5 -7/4/5 -4/4/5
f -2/4/5 -5/4/5 -6/4/5
f -1/4/5 -5/4/5 -2/4/5
v -5.5 5 1.5
v -4.5 5 1.5
v 4.5 5 1.5
v 5.5 5 1.5
v -5.5 5 -1.5
v -4.5 5 -1.5
v 4.5 5 -1.5
v 5.5 5 -1.5
f -4/4/5 -7/4/5 -8/4/5
f -3/4/5 -7/4/5 -4/4/5
f -2/4/5 -5/4/5 -6/4/5
f -1/4/5 -5/4/5 -2/4/5
v -3.5 6 1.5
v -2.5 6 1.5
v 2.5 6 1.5
v 3.5 6 1.5
v -3.5 6 0.5
v -2.5 6 0.5
v 2.5 6 0.5
v 3.5 6 0.5
f -4/4/5 -7/4/5 -8/4/5
f -3/4/5 -7/4/5 -4/4/5
f -2/4/5 -5/4/5 -6/4/5
f -1/4/5 -5/4/5 -2/4/5
v -2.5 7 1.5
v -1.5 7 1.5
v 1.5 7 1.5
v 2.5 7 1.5
v -2.5 7 0.5
v -1.5 7 0.5
v 1.5 7 0.5
v 2.5 7 0.5
f -4/4/5 -7/4/5 -8/4/5
f -3/4/5 -7/4/5 -4/4/5
f -2/4/5 -5/4/5 -6/4/5
f -1/4/5 -5/4/5 -2/4/5
v -1.5 8 1.5
v -0.5 8 1.5
v 0.5 8 1.5
v 1.5 8 1.5
v -1.5 8 0.5
v -0.5 8 0.5
v 0.5 8 0.5
v 1.5 8 0.5
f -4/4/5 -7/4/5 -8/4/5
f -3/4/5 -7/4/5 -4/4/5
f -2/4/5 -5/4/5 -6/4/5
f -1/4/5 -5/4/5 -2/4/5
v -0.5 9 1.5
v 0.5 9 1.5
v -0.5 9 0.5
v 0.5 9 0.5
f -2/4/5 -3/4/5 -4/4/5
f -1/4/5 -3/4/5 -2/4/5
v -0.5 29 1.5
v 0.5 29 1.5
v -1.5 29 0.5
v -0.5 29 0.5
v 0.5 29 0.5
v 1.5 29 0.5
v -1.5 29 -0.5
v -0.5 29 -0.5
v 0.5 29 -0.5
v 1.5 29 -0.5
v -1.5 29 -1.5
v 1.5 29 -1.5
f -9/2/5 -11/2/5 -12/2/5
f -8/2/5 -11/2/5 -9/2/5
f -6/3/5 -9/3/5 -10/3/5
f -5/3/5 -9/3/5 -6/3/5
f -4/3/5 -7/3/5 -8/3/5
f -3/3/5 -7/3/5 -4/3/5
f -2/4/5 -5/4/5 -6/4/5
f -2/4/5 -4/4/5 -5/4/5
f -2/4/5 -3/4/5 -4/4/5
f -1/4/5 -3/4/5 -2/4/5
v -0.5 2 1.5
v 0.5 2 1.5
v -0.5 2 0.5
v 0.5 2 0.5
f -4/4/6 -3/4/6 -2/4/6
f -2/4/6 -3/4/6 -1/4/6
v -1.5 3 1.5
v -0.5 3 1.5
v 0.5 3 1.5
v 1.5 3 1.5
v -1.5 3 0.5
v -0.5 3 0.5
v 0.5 3 0.5
v 1.5 3 0.5
f -8/4/6 -7/4/6 -4/4/6
f -4/4/6 -7/4/6 -3/4/6
f -6/4/6 -5/4/6 -2/4/6
f -2/4/6 -5/4/6 -1/4/6
v -2.5 4 1.5
v -1.5 4 1.5
v 1.5 4 1.5
v 2.5 4 1.5
v -2.5 4 0.5
v -1.5 4 0.5
v 1.5 4 0.5
v 2.5 4 0.5
f -8/4/6 -7/4/6 -4/4/6
f -4/4/6 -7/4/6 -3/4/6
f -6/4/6 -5/4/6 -2/4/6
f -2/4/6 -5/4/6 -1/4/6
v -3.5 5 1.5
v -2.5 5 1.5
v 2.5 5 1.5
v 3.5 5 1.5
v -3.5 5 0.5
v -2.5 5 0.5
v 2.5 5 0.5
v 3.5 5 0.5
f -8/4/6 -7/4/6 -4/4/6
f -4/4/6 -7/4/6 -3/4/6
f -6/4/6 -5/4/6 -2/4/6
f -2/4/6 -5/4/6 -1/4/6
v -5.5 6 1.5
v -4.5 6 1.5
v 4.5 6 1.5
v 5.5 6 1.5
v -5.5 6 -1.5
v -4.5 6 -1.5
v 4.5 6 -1.5
v 5.5 6 -1.5
f -8/4/6 -7/4/6 -4/4/6
f -4/4/6 -7/4/6 -3/4/6
f -6/4/6 -5/4/6 -2/4/6
f -2/4/6 -5/4/6 -1/4/6
v -4.5 7 1.5
v -3.5 7 1.5
v 3.5 7 1.5
v 4.5 7 1.5
v -4.5 7 -1.5
v -3.5 7 -1.5
v 3.5 7 -1.5
v 4.5 7 -1.5
f -8/4/6 -7/4/6 -4/4/6
f -4/4/6 -7/4/6 -3/4/6
f -6/4/6 -5/4/6 -2/4/6
f -2/4/6 -5/4/6 -1/4/6
v -3.5 8 1.5
v -2.5 8 1.5
v 2.5 8 1.5
v 3.5 8 1.5
v -3.5 8 -1.5
v -2.5 8 -1.5
v 2.5 8 -1.5
v 3.5 8 -1.5
f -8/4/6 -7/4/6 -4/4/6
f -4/4/6 -7/4/6 -3/4/6
f -6/4/6 -5/4/6 -2/4/6
f -2/4/6 -5/4/6 -1/4/6
v -2.5 9 1.5
v -1.5 9 1.5
v 1.5 9 1.5
v 2.5 9 1.5
v -2.5 9 -1.5
v -1.5 9 -1.5
v 1.5 9 -1.5
v 2.5 9 -1.5
f -8/4/6 -7/4/6 -4/4/6
f -4/4/6 -7/4/6 -3/4/6
f -6/4/6 -5/4/6 -2/4/6
f -2/4/6 -5/4/6 -1/4/6
v -1.5 10 1.5
v -0.5 10 1.5
v 0.5 10 1.5
v 1.5 10 1.5
v -1.5 10 -1.5
v -0.5 10 -1.5
v 0.5 10 -1.5
v 1.5 10 -1.5
f -8/4/6 -7/4/6 -4/4/6
f -4/4/6 -7/4/6 -3/4/6
f -6/4/6 -5/4/6 -2/4/6
f -2/4/6 -5/4/6 -1/4/6
v -0.5 11 1.5
v 0.5 11 1.5
v -0.5 11 0.5
v 0.5 11 0.5
v -0.5 11 -0.5
v 0.5 11 -0.5
v -0.5 11 -1.5
v 0.5 11 -1.5
f -8/4/6 -7/4/6 -6/4/6
f -6/4/6 -7/4/6 -5/4/6
f -4/4/6 -3/4/6 -2/4/6
f -2/4/6 -3/4/6 -1/4/6
v -0.5 30 1.5
v 0.5 30 1.5
v -1.5 30 0.5
v -0.5 30 0.5
v 0.5 30 0.5
v 1.5 30 0.5
v -1.5 30 -0.5
v -0.5 30 -0.5
v 0.5 30 -0.5
v 1.5 30 -0.5
v -1.5 30 -1.5
v 1.5 30 -1.5
f -12/2/6 -11/2/6 -9/2/6
f -9/2/6 -11/2/6 -8/2/6
f -10/3/6 -9/3/6 -6/3/6
f -9/2/6 -8/2/6 -5/2/6
f -6/3/6 -9/3/6 -5/3/6
f -8/3/6 -7/3/6 -4/3/6
f -5/2/6 -8/2/6 -4/2/6
f -4/3/6 -7/3/6 -3/3/6
f -6/4/6 -5/4/6 -2/4/6
f -5/4/6 -4/4/6 -2/4/6
f -4/4/6 -3/4/6 -2/4/6
f -2/4/6 -3/4/6 -1/4/6
