# MagicaVoxel @ ephtracy

# material
mtllib Conference Room Wall 6.mtl
usemtl palette

# normals
vn -1 0 0
vn 1 0 0
vn 0 0 1
vn 0 0 -1
vn 0 -1 0
vn 0 1 0

# texcoords
vt 0.337891 0.5
vt 0.341797 0.5
vt 0.478516 0.5
vt 0.962891 0.5
vt 0.978516 0.5

# verts and faces
v -30 0 4
v -30 0 -4
v -30 1 5
v -30 1 4
v -30 1 -4
v -30 1 -5
v -30 33 5
v -30 33 4
v -30 33 -4
v -30 33 -5
v -30 34 5
v -30 34 4
v -30 34 -4
v -30 34 -5
v -30 36 5
v -30 36 4
v -30 36 -4
v -30 36 -5
v -30 39 5
v -30 39 4
v -30 39 -4
v -30 39 -5
v -30 40 5
v -30 40 -5
f -21/1/1 -23/1/1 -24/1/1
f -20/1/1 -23/1/1 -21/1/1
f -18/1/1 -21/1/1 -22/1/1
f -18/1/1 -19/1/1 -20/1/1
f -18/1/1 -20/1/1 -21/1/1
f -17/1/1 -19/1/1 -18/1/1
f -16/1/1 -19/1/1 -17/1/1
f -15/1/1 -19/1/1 -16/1/1
f -13/1/1 -16/1/1 -17/1/1
f -12/1/1 -16/1/1 -13/1/1
f -10/2/1 -13/2/1 -14/2/1
f -9/1/1 -12/1/1 -13/1/1
f -9/2/1 -13/2/1 -10/2/1
f -8/2/1 -11/2/1 -12/2/1
f -8/1/1 -12/1/1 -9/1/1
f -7/2/1 -11/2/1 -8/2/1
f -6/4/1 -9/4/1 -10/4/1
f -5/1/1 -8/1/1 -9/1/1
f -5/4/1 -9/4/1 -6/4/1
f -4/4/1 -7/4/1 -8/4/1
f -4/1/1 -8/1/1 -5/1/1
f -3/4/1 -7/4/1 -4/4/1
f -2/1/1 -5/1/1 -6/1/1
f -2/1/1 -4/1/1 -5/1/1
f -2/1/1 -3/1/1 -4/1/1
f -1/1/1 -3/1/1 -2/1/1
v 30 0 4
v 30 0 -4
v 30 1 5
v 30 1 4
v 30 1 -4
v 30 1 -5
v 30 33 5
v 30 33 4
v 30 33 -4
v 30 33 -5
v 30 34 5
v 30 34 4
v 30 34 -4
v 30 34 -5
v 30 35 5
v 30 35 4
v 30 35 -4
v 30 35 -5
v 30 36 5
v 30 36 4
v 30 36 -4
v 30 36 -5
v 30 38 5
v 30 38 4
v 30 38 -4
v 30 38 -5
v 30 39 5
v 30 39 4
v 30 39 -4
v 30 39 -5
v 30 40 5
v 30 40 -5
f -32/1/2 -31/1/2 -29/1/2
f -29/1/2 -31/1/2 -28/1/2
f -30/1/2 -29/1/2 -26/1/2
f -28/1/2 -27/1/2 -26/1/2
f -29/1/2 -28/1/2 -26/1/2
f -26/1/2 -27/1/2 -25/1/2
f -25/1/2 -27/1/2 -24/1/2
f -24/1/2 -27/1/2 -23/1/2
f -25/1/2 -24/1/2 -21/1/2
f -21/1/2 -24/1/2 -20/1/2
f -22/4/2 -21/4/2 -18/4/2
f -21/1/2 -20/1/2 -17/1/2
f -18/4/2 -21/4/2 -17/4/2
f -20/4/2 -19/4/2 -16/4/2
f -17/1/2 -20/1/2 -16/1/2
f -16/4/2 -19/4/2 -15/4/2
f -18/3/2 -17/3/2 -14/3/2
f -17/1/2 -16/1/2 -13/1/2
f -14/3/2 -17/3/2 -13/3/2
f -16/3/2 -15/3/2 -12/3/2
f -13/1/2 -16/1/2 -12/1/2
f -12/3/2 -15/3/2 -11/3/2
f -14/5/2 -13/5/2 -10/5/2
f -13/1/2 -12/1/2 -9/1/2
f -10/5/2 -13/5/2 -9/5/2
f -12/5/2 -11/5/2 -8/5/2
f -9/1/2 -12/1/2 -8/1/2
f -8/5/2 -11/5/2 -7/5/2
f -10/4/2 -9/4/2 -6/4/2
f -9/1/2 -8/1/2 -5/1/2
f -6/4/2 -9/4/2 -5/4/2
f -8/4/2 -7/4/2 -4/4/2
f -5/1/2 -8/1/2 -4/1/2
f -4/4/2 -7/4/2 -3/4/2
f -6/1/2 -5/1/2 -2/1/2
f -5/1/2 -4/1/2 -2/1/2
f -4/1/2 -3/1/2 -2/1/2
f -2/1/2 -3/1/2 -1/1/2
v -30 1 5
v -30 33 5
v -30 34 5
v -30 36 5
v -30 39 5
v -30 40 5
v -29 35 5
v -29 36 5
v -26 36 5
v -26 38 5
v 25 34 5
v 25 35 5
v 26 34 5
v 26 35 5
v 30 1 5
v 30 33 5
v 30 34 5
v 30 35 5
v 30 36 5
v 30 38 5
v 30 39 5
v 30 40 5
f -16/2/3 -19/2/3 -20/2/3
f -15/4/3 -18/4/3 -19/4/3
f -15/2/3 -19/2/3 -16/2/3
f -14/3/3 -15/3/3 -16/3/3
f -14/4/3 -18/4/3 -15/4/3
f -13/4/3 -18/4/3 -14/4/3
f -12/2/3 -16/2/3 -20/2/3
f -11/3/3 -14/3/3 -16/3/3
f -11/2/3 -16/2/3 -12/2/3
f -10/3/3 -11/3/3 -12/3/3
f -9/3/3 -14/3/3 -11/3/3
f -9/3/3 -11/3/3 -10/3/3
f -8/1/3 -21/1/3 -22/1/3
f -7/1/3 -21/1/3 -8/1/3
f -6/4/3 -9/4/3 -10/4/3
f -5/3/3 -14/3/3 -9/3/3
f -5/4/3 -9/4/3 -6/4/3
f -4/5/3 -13/5/3 -14/5/3
f -4/3/3 -14/3/3 -5/3/3
f -3/4/3 -18/4/3 -13/4/3
f -3/5/3 -13/5/3 -4/5/3
f -2/1/3 -17/1/3 -18/1/3
f -2/4/3 -18/4/3 -3/4/3
f -1/1/3 -17/1/3 -2/1/3
v -30 0 4
v -30 1 4
v -30 33 4
v -30 34 4
v 25 34 4
v 26 34 4
v 30 0 4
v 30 1 4
v 30 33 4
v 30 34 4
f -6/1/3 -7/1/3 -8/1/3
f -5/1/3 -6/1/3 -8/1/3
f -4/1/3 -9/1/3 -10/1/3
f -3/1/3 -9/1/3 -4/1/3
f -2/1/3 -5/1/3 -8/1/3
f -1/1/3 -5/1/3 -2/1/3
v -30 0 -4
v -30 1 -4
v -30 33 -4
v -30 34 -4
v 25 34 -4
v 26 34 -4
v 30 0 -4
v 30 1 -4
v 30 33 -4
v 30 34 -4
f -8/1/4 -7/1/4 -6/1/4
f -8/1/4 -6/1/4 -5/1/4
f -10/1/4 -9/1/4 -4/1/4
f -4/1/4 -9/1/4 -3/1/4
f -8/1/4 -5/1/4 -2/1/4
f -2/1/4 -5/1/4 -1/1/4
v -30 1 -5
v -30 33 -5
v -30 34 -5
v -30 36 -5
v -30 39 -5
v -30 40 -5
v -29 35 -5
v -29 36 -5
v -26 36 -5
v -26 38 -5
v 25 34 -5
v 25 35 -5
v 26 34 -5
v 26 35 -5
v 30 1 -5
v 30 33 -5
v 30 34 -5
v 30 35 -5
v 30 36 -5
v 30 38 -5
v 30 39 -5
v 30 40 -5
f -20/2/4 -19/2/4 -16/2/4
f -19/4/4 -18/4/4 -15/4/4
f -16/2/4 -19/2/4 -15/2/4
f -16/3/4 -15/3/4 -14/3/4
f -15/4/4 -18/4/4 -14/4/4
f -14/4/4 -18/4/4 -13/4/4
f -20/2/4 -16/2/4 -12/2/4
f -16/3/4 -14/3/4 -11/3/4
f -12/2/4 -16/2/4 -11/2/4
f -12/3/4 -11/3/4 -10/3/4
f -11/3/4 -14/3/4 -9/3/4
f -10/3/4 -11/3/4 -9/3/4
f -22/1/4 -21/1/4 -8/1/4
f -8/1/4 -21/1/4 -7/1/4
f -10/4/4 -9/4/4 -6/4/4
f -9/3/4 -14/3/4 -5/3/4
f -6/4/4 -9/4/4 -5/4/4
f -14/5/4 -13/5/4 -4/5/4
f -5/3/4 -14/3/4 -4/3/4
f -13/4/4 -18/4/4 -3/4/4
f -4/5/4 -13/5/4 -3/5/4
f -18/1/4 -17/1/4 -2/1/4
f -3/4/4 -18/4/4 -2/4/4
f -2/1/4 -17/1/4 -1/1/4
v -30 0 4
v 30 0 4
v -30 0 -4
v 30 0 -4
f -2/1/5 -3/1/5 -4/1/5
f -1/1/5 -3/1/5 -2/1/5
v -30 1 5
v 30 1 5
v -30 1 4
v 30 1 4
v -30 1 -4
v 30 1 -4
v -30 1 -5
v 30 1 -5
f -6/1/5 -7/1/5 -8/1/5
f -5/1/5 -7/1/5 -6/1/5
f -2/1/5 -3/1/5 -4/1/5
f -1/1/5 -3/1/5 -2/1/5
v -30 34 5
v 25 34 5
v 26 34 5
v 30 34 5
v -30 34 4
v 25 34 4
v 26 34 4
v 30 34 4
v -30 34 -4
v 25 34 -4
v 26 34 -4
v 30 34 -4
v -30 34 -5
v 25 34 -5
v 26 34 -5
v 30 34 -5
f -12/2/5 -15/2/5 -16/2/5
f -11/3/5 -14/3/5 -15/3/5
f -11/2/5 -15/2/5 -12/2/5
f -10/4/5 -13/4/5 -14/4/5
f -10/3/5 -14/3/5 -11/3/5
f -9/4/5 -13/4/5 -10/4/5
f -4/2/5 -7/2/5 -8/2/5
f -3/3/5 -6/3/5 -7/3/5
f -3/2/5 -7/2/5 -4/2/5
f -2/4/5 -5/4/5 -6/4/5
f -2/3/5 -6/3/5 -3/3/5
f -1/4/5 -5/4/5 -2/4/5
v -30 33 5
v 30 33 5
v -30 33 4
v 30 33 4
v -30 33 -4
v 30 33 -4
v -30 33 -5
v 30 33 -5
f -8/1/6 -7/1/6 -6/1/6
f -6/1/6 -7/1/6 -5/1/6
f -4/1/6 -3/1/6 -2/1/6
f -2/1/6 -3/1/6 -1/1/6
v -30 40 5
v 30 40 5
v -30 40 -5
v 30 40 -5
f -4/1/6 -3/1/6 -2/1/6
f -2/1/6 -3/1/6 -1/1/6
