# MagicaVoxel @ ephtracy

# material
mtllib Engineering Spacer.mtl
usemtl palette

# normals
vn -1 0 0
vn 1 0 0
vn 0 0 1
vn 0 0 -1
vn 0 -1 0
vn 0 1 0

# texcoords
vt 0.115234 0.5
vt 0.958984 0.5
vt 0.962891 0.5
vt 0.966797 0.5
vt 0.970703 0.5

# verts and faces
v -5 0 5
v -5 0 -5
v -5 1 4
v -5 1 -4
v -5 8 5
v -5 8 4
v -5 15 -4
v -5 15 -5
v -5 19 -4
v -5 19 -5
v -5 22 5
v -5 22 4
v -5 23 -4
v -5 23 -5
v -5 26 5
v -5 26 4
v -5 27 -4
v -5 27 -5
v -5 29 5
v -5 29 4
v -5 29 -4
v -5 29 -5
v -5 30 -4
v -5 30 -5
v -5 34 -4
v -5 34 -5
v -5 35 5
v -5 35 4
v -5 37 5
v -5 37 4
v -5 38 5
v -5 38 4
v -5 39 4
v -5 39 3
v -5 39 -1
v -5 39 -4
v -5 39 -5
v -5 40 5
v -5 40 3
v -5 40 -1
v -5 40 -4
v -5 40 -5
f -40/5/1 -41/5/1 -42/5/1
f -39/5/1 -41/5/1 -40/5/1
f -38/5/1 -40/5/1 -42/5/1
f -37/1/1 -39/1/1 -40/1/1
f -37/5/1 -40/5/1 -38/5/1
f -36/5/1 -41/5/1 -39/5/1
f -36/1/1 -39/1/1 -37/1/1
f -35/5/1 -41/5/1 -36/5/1
f -34/1/1 -36/1/1 -37/1/1
f -34/4/1 -35/4/1 -36/4/1
f -33/4/1 -35/4/1 -34/4/1
f -32/4/1 -37/4/1 -38/4/1
f -31/1/1 -34/1/1 -37/1/1
f -31/4/1 -37/4/1 -32/4/1
f -30/2/1 -33/2/1 -34/2/1
f -30/1/1 -34/1/1 -31/1/1
f -29/2/1 -33/2/1 -30/2/1
f -28/5/1 -31/5/1 -32/5/1
f -27/1/1 -30/1/1 -31/1/1
f -27/5/1 -31/5/1 -28/5/1
f -26/4/1 -29/4/1 -30/4/1
f -26/1/1 -30/1/1 -27/1/1
f -25/4/1 -29/4/1 -26/4/1
f -24/4/1 -27/4/1 -28/4/1
f -23/1/1 -26/1/1 -27/1/1
f -23/4/1 -27/4/1 -24/4/1
f -22/5/1 -25/5/1 -26/5/1
f -22/1/1 -26/1/1 -23/1/1
f -21/5/1 -25/5/1 -22/5/1
f -20/1/1 -22/1/1 -23/1/1
f -20/4/1 -21/4/1 -22/4/1
f -19/4/1 -21/4/1 -20/4/1
f -18/1/1 -20/1/1 -23/1/1
f -18/2/1 -19/2/1 -20/2/1
f -17/2/1 -19/2/1 -18/2/1
f -16/2/1 -23/2/1 -24/2/1
f -15/1/1 -18/1/1 -23/1/1
f -15/2/1 -23/2/1 -16/2/1
f -14/4/1 -15/4/1 -16/4/1
f -13/1/1 -18/1/1 -15/1/1
f -13/4/1 -15/4/1 -14/4/1
f -12/5/1 -13/5/1 -14/5/1
f -11/1/1 -18/1/1 -13/1/1
f -11/5/1 -13/5/1 -12/5/1
f -10/4/1 -11/4/1 -12/4/1
f -10/1/1 -18/1/1 -11/1/1
f -9/1/1 -18/1/1 -10/1/1
f -8/1/1 -18/1/1 -9/1/1
f -7/4/1 -17/4/1 -18/4/1
f -7/1/1 -18/1/1 -8/1/1
f -6/4/1 -17/4/1 -7/4/1
f -5/4/1 -10/4/1 -12/4/1
f -5/4/1 -9/4/1 -10/4/1
f -4/5/1 -8/5/1 -9/5/1
f -4/4/1 -9/4/1 -5/4/1
f -3/4/1 -7/4/1 -8/4/1
f -3/5/1 -8/5/1 -4/5/1
f -2/5/1 -6/5/1 -7/5/1
f -2/4/1 -7/4/1 -3/4/1
f -1/5/1 -6/5/1 -2/5/1
v 5 0 5
v 5 0 4
v 5 0 -4
v 5 0 -5
v 5 1 5
v 5 1 4
v 5 1 -4
v 5 1 -5
v 5 8 5
v 5 8 4
v 5 8 -4
v 5 8 -5
v 5 11 5
v 5 11 4
v 5 11 -4
v 5 11 -5
v 5 13 5
v 5 13 4
v 5 13 -4
v 5 13 -5
v 5 15 5
v 5 15 4
v 5 15 -4
v 5 15 -5
v 5 22 5
v 5 22 4
v 5 22 -4
v 5 22 -5
v 5 26 5
v 5 26 4
v 5 26 -4
v 5 26 -5
v 5 34 5
v 5 34 4
v 5 34 -4
v 5 34 -5
v 5 39 5
v 5 39 4
v 5 39 -4
v 5 39 -5
v 5 40 5
v 5 40 4
v 5 40 -4
v 5 40 -5
f -44/5/2 -43/5/2 -40/5/2
f -43/1/2 -42/1/2 -39/1/2
f -40/5/2 -43/5/2 -39/5/2
f -42/5/2 -41/5/2 -38/5/2
f -39/1/2 -42/1/2 -38/1/2
f -38/5/2 -41/5/2 -37/5/2
f -40/4/2 -39/4/2 -36/4/2
f -39/1/2 -38/1/2 -35/1/2
f -36/4/2 -39/4/2 -35/4/2
f -38/4/2 -37/4/2 -34/4/2
f -35/1/2 -38/1/2 -34/1/2
f -34/4/2 -37/4/2 -33/4/2
f -36/3/2 -35/3/2 -32/3/2
f -35/1/2 -34/1/2 -31/1/2
f -32/3/2 -35/3/2 -31/3/2
f -34/3/2 -33/3/2 -30/3/2
f -31/1/2 -34/1/2 -30/1/2
f -30/3/2 -33/3/2 -29/3/2
f -32/2/2 -31/2/2 -28/2/2
f -31/1/2 -30/1/2 -27/1/2
f -28/2/2 -31/2/2 -27/2/2
f -30/2/2 -29/2/2 -26/2/2
f -27/1/2 -30/1/2 -26/1/2
f -26/2/2 -29/2/2 -25/2/2
f -28/3/2 -27/3/2 -24/3/2
f -27/1/2 -26/1/2 -23/1/2
f -24/3/2 -27/3/2 -23/3/2
f -26/3/2 -25/3/2 -22/3/2
f -23/1/2 -26/1/2 -22/1/2
f -22/3/2 -25/3/2 -21/3/2
f -24/4/2 -23/4/2 -20/4/2
f -23/1/2 -22/1/2 -19/1/2
f -20/4/2 -23/4/2 -19/4/2
f -22/4/2 -21/4/2 -18/4/2
f -19/1/2 -22/1/2 -18/1/2
f -18/4/2 -21/4/2 -17/4/2
f -20/3/2 -19/3/2 -16/3/2
f -19/1/2 -18/1/2 -15/1/2
f -16/3/2 -19/3/2 -15/3/2
f -18/3/2 -17/3/2 -14/3/2
f -15/1/2 -18/1/2 -14/1/2
f -14/3/2 -17/3/2 -13/3/2
f -16/2/2 -15/2/2 -12/2/2
f -15/1/2 -14/1/2 -11/1/2
f -12/2/2 -15/2/2 -11/2/2
f -14/2/2 -13/2/2 -10/2/2
f -11/1/2 -14/1/2 -10/1/2
f -10/2/2 -13/2/2 -9/2/2
f -12/3/2 -11/3/2 -8/3/2
f -11/1/2 -10/1/2 -7/1/2
f -8/3/2 -11/3/2 -7/3/2
f -10/3/2 -9/3/2 -6/3/2
f -7/1/2 -10/1/2 -6/1/2
f -6/3/2 -9/3/2 -5/3/2
f -8/4/2 -7/4/2 -4/4/2
f -7/3/2 -6/3/2 -3/3/2
f -4/4/2 -7/4/2 -3/4/2
f -6/4/2 -5/4/2 -2/4/2
f -3/3/2 -6/3/2 -2/3/2
f -2/4/2 -5/4/2 -1/4/2
v -5 0 5
v -5 8 5
v -5 22 5
v -5 26 5
v -5 29 5
v -5 35 5
v -5 37 5
v -5 38 5
v -5 40 5
v -4 1 5
v -4 8 5
v -4 22 5
v -4 26 5
v -4 29 5
v -4 35 5
v -4 37 5
v -4 38 5
v -4 39 5
v -4 40 5
v 4 1 5
v 4 8 5
v 4 11 5
v 4 13 5
v 4 15 5
v 4 22 5
v 4 26 5
v 4 34 5
v 4 39 5
v 4 40 5
v 5 0 5
v 5 1 5
v 5 8 5
v 5 11 5
v 5 13 5
v 5 15 5
v 5 22 5
v 5 26 5
v 5 34 5
v 5 39 5
v 5 40 5
f -31/5/3 -39/5/3 -40/5/3
f -30/4/3 -38/4/3 -39/4/3
f -30/5/3 -39/5/3 -31/5/3
f -29/5/3 -37/5/3 -38/5/3
f -29/4/3 -38/4/3 -30/4/3
f -28/4/3 -36/4/3 -37/4/3
f -28/5/3 -37/5/3 -29/5/3
f -27/2/3 -35/2/3 -36/2/3
f -27/4/3 -36/4/3 -28/4/3
f -26/4/3 -34/4/3 -35/4/3
f -26/2/3 -35/2/3 -27/2/3
f -25/5/3 -33/5/3 -34/5/3
f -25/4/3 -34/4/3 -26/4/3
f -24/4/3 -32/4/3 -33/4/3
f -24/5/3 -33/5/3 -25/5/3
f -23/4/3 -32/4/3 -24/4/3
f -22/4/3 -32/4/3 -23/4/3
f -21/1/3 -25/1/3 -26/1/3
f -21/5/3 -31/5/3 -40/5/3
f -21/1/3 -30/1/3 -31/1/3
f -21/1/3 -23/1/3 -24/1/3
f -21/1/3 -24/1/3 -25/1/3
f -21/1/3 -26/1/3 -27/1/3
f -21/1/3 -27/1/3 -28/1/3
f -21/1/3 -28/1/3 -29/1/3
f -21/1/3 -29/1/3 -30/1/3
f -20/1/3 -23/1/3 -21/1/3
f -19/1/3 -23/1/3 -20/1/3
f -18/1/3 -23/1/3 -19/1/3
f -17/1/3 -23/1/3 -18/1/3
f -16/1/3 -23/1/3 -17/1/3
f -15/1/3 -23/1/3 -16/1/3
f -14/1/3 -23/1/3 -15/1/3
f -13/5/3 -22/5/3 -23/5/3
f -13/1/3 -23/1/3 -14/1/3
f -12/5/3 -22/5/3 -13/5/3
f -11/5/3 -21/5/3 -40/5/3
f -10/4/3 -20/4/3 -21/4/3
f -10/5/3 -21/5/3 -11/5/3
f -9/3/3 -19/3/3 -20/3/3
f -9/4/3 -20/4/3 -10/4/3
f -8/2/3 -18/2/3 -19/2/3
f -8/3/3 -19/3/3 -9/3/3
f -7/3/3 -17/3/3 -18/3/3
f -7/2/3 -18/2/3 -8/2/3
f -6/4/3 -16/4/3 -17/4/3
f -6/3/3 -17/3/3 -7/3/3
f -5/3/3 -15/3/3 -16/3/3
f -5/4/3 -16/4/3 -6/4/3
f -4/2/3 -14/2/3 -15/2/3
f -4/3/3 -15/3/3 -5/3/3
f -3/3/3 -13/3/3 -14/3/3
f -3/2/3 -14/2/3 -4/2/3
f -2/4/3 -12/4/3 -13/4/3
f -2/3/3 -13/3/3 -3/3/3
f -1/4/3 -12/4/3 -2/4/3
v -5 0 -5
v -5 15 -5
v -5 19 -5
v -5 23 -5
v -5 27 -5
v -5 29 -5
v -5 30 -5
v -5 34 -5
v -5 39 -5
v -5 40 -5
v -4 1 -5
v -4 15 -5
v -4 19 -5
v -4 23 -5
v -4 27 -5
v -4 29 -5
v -4 30 -5
v -4 34 -5
v -4 39 -5
v 4 1 -5
v 4 8 -5
v 4 11 -5
v 4 13 -5
v 4 15 -5
v 4 22 -5
v 4 26 -5
v 4 34 -5
v 4 39 -5
v 4 40 -5
v 5 0 -5
v 5 1 -5
v 5 8 -5
v 5 11 -5
v 5 13 -5
v 5 15 -5
v 5 22 -5
v 5 26 -5
v 5 34 -5
v 5 39 -5
v 5 40 -5
f -40/5/4 -39/5/4 -30/5/4
f -39/4/4 -38/4/4 -29/4/4
f -30/5/4 -39/5/4 -29/5/4
f -38/2/4 -37/2/4 -28/2/4
f -29/4/4 -38/4/4 -28/4/4
f -37/4/4 -36/4/4 -27/4/4
f -28/2/4 -37/2/4 -27/2/4
f -36/5/4 -35/5/4 -26/5/4
f -27/4/4 -36/4/4 -26/4/4
f -35/4/4 -34/4/4 -25/4/4
f -26/5/4 -35/5/4 -25/5/4
f -34/2/4 -33/2/4 -24/2/4
f -25/4/4 -34/4/4 -24/4/4
f -33/4/4 -32/4/4 -23/4/4
f -24/2/4 -33/2/4 -23/2/4
f -32/5/4 -31/5/4 -22/5/4
f -23/4/4 -32/4/4 -22/4/4
f -24/1/4 -23/1/4 -21/1/4
f -40/5/4 -30/5/4 -21/5/4
f -23/1/4 -22/1/4 -21/1/4
f -25/1/4 -24/1/4 -21/1/4
f -26/1/4 -25/1/4 -21/1/4
f -27/1/4 -26/1/4 -21/1/4
f -28/1/4 -27/1/4 -21/1/4
f -29/1/4 -28/1/4 -21/1/4
f -30/1/4 -29/1/4 -21/1/4
f -21/1/4 -22/1/4 -20/1/4
f -20/1/4 -22/1/4 -19/1/4
f -19/1/4 -22/1/4 -18/1/4
f -18/1/4 -22/1/4 -17/1/4
f -17/1/4 -22/1/4 -16/1/4
f -16/1/4 -22/1/4 -15/1/4
f -15/1/4 -22/1/4 -14/1/4
f -22/5/4 -31/5/4 -13/5/4
f -14/1/4 -22/1/4 -13/1/4
f -13/5/4 -31/5/4 -12/5/4
f -40/5/4 -21/5/4 -11/5/4
f -21/4/4 -20/4/4 -10/4/4
f -11/5/4 -21/5/4 -10/5/4
f -20/3/4 -19/3/4 -9/3/4
f -10/4/4 -20/4/4 -9/4/4
f -19/2/4 -18/2/4 -8/2/4
f -9/3/4 -19/3/4 -8/3/4
f -18/3/4 -17/3/4 -7/3/4
f -8/2/4 -18/2/4 -7/2/4
f -17/4/4 -16/4/4 -6/4/4
f -7/3/4 -17/3/4 -6/3/4
f -16/3/4 -15/3/4 -5/3/4
f -6/4/4 -16/4/4 -5/4/4
f -15/2/4 -14/2/4 -4/2/4
f -5/3/4 -15/3/4 -4/3/4
f -14/3/4 -13/3/4 -3/3/4
f -4/2/4 -14/2/4 -3/2/4
f -13/4/4 -12/4/4 -2/4/4
f -3/3/4 -13/3/4 -2/3/4
f -2/4/4 -12/4/4 -1/4/4
v -5 0 5
v 5 0 5
v -4 0 4
v 5 0 4
v -4 0 -4
v 5 0 -4
v -5 0 -5
v 5 0 -5
f -6/5/5 -7/5/5 -8/5/5
f -5/5/5 -7/5/5 -6/5/5
f -4/5/5 -6/5/5 -8/5/5
f -4/1/5 -5/1/5 -6/1/5
f -3/1/5 -5/1/5 -4/1/5
f -2/5/5 -4/5/5 -8/5/5
f -2/5/5 -3/5/5 -4/5/5
f -1/5/5 -3/5/5 -2/5/5
v -5 40 5
v -4 40 5
v 4 40 5
v 5 40 5
v -4 40 4
v 4 40 4
v 5 40 4
v -5 40 3
v -4 40 3
v -5 40 -1
v -4 40 -1
v -5 40 -4
v -4 40 -4
v 4 40 -4
v 5 40 -4
v -5 40 -5
v 4 40 -5
v 5 40 -5
f -18/4/6 -17/4/6 -14/4/6
f -17/5/6 -16/5/6 -14/5/6
f -16/4/6 -15/4/6 -13/4/6
f -14/5/6 -16/5/6 -13/5/6
f -13/4/6 -15/4/6 -12/4/6
f -18/4/6 -14/4/6 -11/4/6
f -14/1/6 -13/1/6 -10/1/6
f -11/4/6 -14/4/6 -10/4/6
f -11/5/6 -10/5/6 -9/5/6
f -10/1/6 -13/1/6 -8/1/6
f -9/5/6 -10/5/6 -8/5/6
f -9/4/6 -8/4/6 -7/4/6
f -8/1/6 -13/1/6 -6/1/6
f -7/4/6 -8/4/6 -6/4/6
f -13/3/6 -12/3/6 -5/3/6
f -6/1/6 -13/1/6 -5/1/6
f -5/3/6 -12/3/6 -4/3/6
f -7/5/6 -6/5/6 -3/5/6
f -6/5/6 -5/5/6 -3/5/6
f -5/4/6 -4/4/6 -2/4/6
f -3/5/6 -5/5/6 -2/5/6
f -2/4/6 -4/4/6 -1/4/6
