# MagicaVoxel @ ephtracy

# material
mtllib Door.mtl
usemtl palette

# normals
vn -1 0 0
vn 1 0 0
vn 0 0 1
vn 0 0 -1
vn 0 -1 0
vn 0 1 0

# texcoords
vt 0.970703 0.5
vt 0.974609 0.5
vt 0.978516 0.5
vt 0.982422 0.5

# verts and faces
v -14 10 0.5
v -14 10 -0.5
v -14 11 0.5
v -14 11 -0.5
v -14 12 0.5
v -14 12 -0.5
v -14 13 0.5
v -14 13 -0.5
v -14 14 0.5
v -14 14 -0.5
v -14 15 0.5
v -14 15 -0.5
f -10/3/1 -11/3/1 -12/3/1
f -9/3/1 -11/3/1 -10/3/1
f -6/3/1 -7/3/1 -8/3/1
f -5/3/1 -7/3/1 -6/3/1
f -2/3/1 -3/3/1 -4/3/1
f -1/3/1 -3/3/1 -2/3/1
v -13 11 0.5
v -13 11 -0.5
v -13 12 0.5
v -13 12 -0.5
v -13 13 0.5
v -13 13 -0.5
v -13 14 0.5
v -13 14 -0.5
f -6/4/1 -7/4/1 -8/4/1
f -5/4/1 -7/4/1 -6/4/1
f -2/4/1 -3/4/1 -4/4/1
f -1/4/1 -3/4/1 -2/4/1
v -12 0 1.5
v -12 0 0.5
v -12 0 -0.5
v -12 0 -1.5
v -12 10 0.5
v -12 10 -0.5
v -12 11 0.5
v -12 11 -0.5
v -12 12 0.5
v -12 12 -0.5
v -12 13 0.5
v -12 13 -0.5
v -12 14 0.5
v -12 14 -0.5
v -12 15 0.5
v -12 15 -0.5
v -12 28 1.5
v -12 28 0.5
v -12 28 -0.5
v -12 28 -1.5
v -12 33 1.5
v -12 33 0.5
v -12 33 -0.5
v -12 33 -1.5
v -12 34 0.5
v -12 34 -0.5
v -12 35 1.5
v -12 35 -1.5
f -24/2/1 -27/2/1 -28/2/1
f -24/1/1 -26/1/1 -27/1/1
f -23/2/1 -25/2/1 -26/2/1
f -23/1/1 -26/1/1 -24/1/1
f -22/2/1 -24/2/1 -28/2/1
f -21/2/1 -25/2/1 -23/2/1
f -20/2/1 -22/2/1 -28/2/1
f -19/2/1 -25/2/1 -21/2/1
f -18/2/1 -20/2/1 -28/2/1
f -17/2/1 -25/2/1 -19/2/1
f -16/2/1 -18/2/1 -28/2/1
f -15/2/1 -25/2/1 -17/2/1
f -14/2/1 -16/2/1 -28/2/1
f -13/2/1 -25/2/1 -15/2/1
f -12/2/1 -14/2/1 -28/2/1
f -11/2/1 -14/2/1 -12/2/1
f -10/2/1 -25/2/1 -13/2/1
f -9/2/1 -25/2/1 -10/2/1
f -8/3/1 -11/3/1 -12/3/1
f -7/3/1 -11/3/1 -8/3/1
f -6/3/1 -9/3/1 -10/3/1
f -5/3/1 -9/3/1 -6/3/1
f -4/4/1 -7/4/1 -8/4/1
f -3/4/1 -5/4/1 -6/4/1
f -2/4/1 -4/4/1 -8/4/1
f -2/4/1 -3/4/1 -4/4/1
f -1/4/1 -5/4/1 -3/4/1
f -1/4/1 -3/4/1 -2/4/1
v -11 15 0.5
v -11 15 -0.5
v -11 28 0.5
v -11 28 -0.5
v -11 33 0.5
v -11 33 -0.5
v -11 34 0.5
v -11 34 -0.5
f -6/2/1 -7/2/1 -8/2/1
f -5/2/1 -7/2/1 -6/2/1
f -4/2/1 -5/2/1 -6/2/1
f -3/2/1 -5/2/1 -4/2/1
f -2/2/1 -3/2/1 -4/2/1
f -1/2/1 -3/2/1 -2/2/1
v 13 0 0.5
v 13 0 -0.5
v 13 28 0.5
v 13 28 -0.5
v 13 29 0.5
v 13 29 -0.5
v 13 31 0.5
v 13 31 -0.5
v 13 33 0.5
v 13 33 -0.5
v 13 34 0.5
v 13 34 -0.5
f -12/2/2 -11/2/2 -10/2/2
f -10/2/2 -11/2/2 -9/2/2
f -10/2/2 -9/2/2 -8/2/2
f -8/2/2 -9/2/2 -7/2/2
f -8/2/2 -7/2/2 -6/2/2
f -6/2/2 -7/2/2 -5/2/2
f -6/2/2 -5/2/2 -4/2/2
f -4/2/2 -5/2/2 -3/2/2
f -4/2/2 -3/2/2 -2/2/2
f -2/2/2 -3/2/2 -1/2/2
v 14 0 1.5
v 14 0 0.5
v 14 0 -0.5
v 14 0 -1.5
v 14 28 1.5
v 14 28 0.5
v 14 28 -0.5
v 14 28 -1.5
v 14 29 1.5
v 14 29 0.5
v 14 29 -0.5
v 14 29 -1.5
v 14 31 1.5
v 14 31 0.5
v 14 31 -0.5
v 14 31 -1.5
v 14 33 1.5
v 14 33 0.5
v 14 33 -0.5
v 14 33 -1.5
v 14 34 0.5
v 14 34 -0.5
v 14 35 1.5
v 14 35 -1.5
f -24/2/2 -23/2/2 -20/2/2
f -20/2/2 -23/2/2 -19/2/2
f -22/2/2 -21/2/2 -18/2/2
f -18/2/2 -21/2/2 -17/2/2
f -20/3/2 -19/3/2 -16/3/2
f -16/3/2 -19/3/2 -15/3/2
f -18/3/2 -17/3/2 -14/3/2
f -14/3/2 -17/3/2 -13/3/2
f -16/2/2 -15/2/2 -12/2/2
f -12/2/2 -15/2/2 -11/2/2
f -14/2/2 -13/2/2 -10/2/2
f -10/2/2 -13/2/2 -9/2/2
f -12/3/2 -11/3/2 -8/3/2
f -8/3/2 -11/3/2 -7/3/2
f -10/3/2 -9/3/2 -6/3/2
f -6/3/2 -9/3/2 -5/3/2
f -8/4/2 -7/4/2 -4/4/2
f -6/4/2 -5/4/2 -3/4/2
f -8/4/2 -4/4/2 -2/4/2
f -4/4/2 -3/4/2 -2/4/2
f -3/4/2 -5/4/2 -1/4/2
f -2/4/2 -3/4/2 -1/4/2
v -12 0 1.5
v -12 28 1.5
v -12 33 1.5
v -12 35 1.5
v -10 29 1.5
v -10 31 1.5
v 14 0 1.5
v 14 28 1.5
v 14 29 1.5
v 14 31 1.5
v 14 33 1.5
v 14 35 1.5
f -8/3/3 -10/3/3 -11/3/3
f -7/3/3 -10/3/3 -8/3/3
f -6/2/3 -11/2/3 -12/2/3
f -5/3/3 -8/3/3 -11/3/3
f -5/2/3 -11/2/3 -6/2/3
f -4/2/3 -7/2/3 -8/2/3
f -4/3/3 -8/3/3 -5/3/3
f -3/3/3 -10/3/3 -7/3/3
f -3/2/3 -7/2/3 -4/2/3
f -2/4/3 -9/4/3 -10/4/3
f -2/3/3 -10/3/3 -3/3/3
f -1/4/3 -9/4/3 -2/4/3
v -14 10 0.5
v -14 11 0.5
v -14 12 0.5
v -14 13 0.5
v -14 14 0.5
v -14 15 0.5
v -13 11 0.5
v -13 12 0.5
v -13 13 0.5
v -13 14 0.5
v -12 10 0.5
v -12 11 0.5
v -12 12 0.5
v -12 13 0.5
v -12 14 0.5
v -12 15 0.5
f -10/3/3 -15/3/3 -16/3/3
f -9/3/3 -13/3/3 -14/3/3
f -8/3/3 -13/3/3 -9/3/3
f -7/3/3 -11/3/3 -12/3/3
f -6/3/3 -10/3/3 -16/3/3
f -5/4/3 -9/4/3 -10/4/3
f -5/3/3 -10/3/3 -6/3/3
f -4/3/3 -8/3/3 -9/3/3
f -4/4/3 -9/4/3 -5/4/3
f -3/4/3 -7/4/3 -8/4/3
f -3/3/3 -8/3/3 -4/3/3
f -2/3/3 -11/3/3 -7/3/3
f -2/4/3 -7/4/3 -3/4/3
f -1/3/3 -11/3/3 -2/3/3
v -12 15 -0.5
v -12 28 -0.5
v -12 33 -0.5
v -12 34 -0.5
v -11 15 -0.5
v -11 28 -0.5
v -11 33 -0.5
v -11 34 -0.5
v 13 0 -0.5
v 13 28 -0.5
v 13 29 -0.5
v 13 31 -0.5
v 13 33 -0.5
v 13 34 -0.5
v 14 0 -0.5
v 14 28 -0.5
v 14 29 -0.5
v 14 31 -0.5
v 14 33 -0.5
v 14 34 -0.5
f -16/2/3 -19/2/3 -20/2/3
f -15/3/3 -18/3/3 -19/3/3
f -15/2/3 -19/2/3 -16/2/3
f -14/4/3 -17/4/3 -18/4/3
f -14/3/3 -18/3/3 -15/3/3
f -13/4/3 -17/4/3 -14/4/3
f -6/2/3 -11/2/3 -12/2/3
f -5/3/3 -10/3/3 -11/3/3
f -5/2/3 -11/2/3 -6/2/3
f -4/2/3 -9/2/3 -10/2/3
f -4/3/3 -10/3/3 -5/3/3
f -3/3/3 -8/3/3 -9/3/3
f -3/2/3 -9/2/3 -4/2/3
f -2/4/3 -7/4/3 -8/4/3
f -2/3/3 -8/3/3 -3/3/3
f -1/4/3 -7/4/3 -2/4/3
v -12 15 0.5
v -12 28 0.5
v -12 33 0.5
v -12 34 0.5
v -11 15 0.5
v -11 28 0.5
v -11 33 0.5
v -11 34 0.5
v 13 0 0.5
v 13 28 0.5
v 13 29 0.5
v 13 31 0.5
v 13 33 0.5
v 13 34 0.5
v 14 0 0.5
v 14 28 0.5
v 14 29 0.5
v 14 31 0.5
v 14 33 0.5
v 14 34 0.5
f -20/2/4 -19/2/4 -16/2/4
f -19/3/4 -18/3/4 -15/3/4
f -16/2/4 -19/2/4 -15/2/4
f -18/4/4 -17/4/4 -14/4/4
f -15/3/4 -18/3/4 -14/3/4
f -14/4/4 -17/4/4 -13/4/4
f -12/2/4 -11/2/4 -6/2/4
f -11/3/4 -10/3/4 -5/3/4
f -6/2/4 -11/2/4 -5/2/4
f -10/2/4 -9/2/4 -4/2/4
f -5/3/4 -10/3/4 -4/3/4
f -9/3/4 -8/3/4 -3/3/4
f -4/2/4 -9/2/4 -3/2/4
f -8/4/4 -7/4/4 -2/4/4
f -3/3/4 -8/3/4 -2/3/4
f -2/4/4 -7/4/4 -1/4/4
v -14 10 -0.5
v -14 11 -0.5
v -14 12 -0.5
v -14 13 -0.5
v -14 14 -0.5
v -14 15 -0.5
v -13 11 -0.5
v -13 12 -0.5
v -13 13 -0.5
v -13 14 -0.5
v -12 10 -0.5
v -12 11 -0.5
v -12 12 -0.5
v -12 13 -0.5
v -12 14 -0.5
v -12 15 -0.5
f -16/3/4 -15/3/4 -10/3/4
f -14/3/4 -13/3/4 -9/3/4
f -9/3/4 -13/3/4 -8/3/4
f -12/3/4 -11/3/4 -7/3/4
f -16/3/4 -10/3/4 -6/3/4
f -10/4/4 -9/4/4 -5/4/4
f -6/3/4 -10/3/4 -5/3/4
f -9/3/4 -8/3/4 -4/3/4
f -5/4/4 -9/4/4 -4/4/4
f -8/4/4 -7/4/4 -3/4/4
f -4/3/4 -8/3/4 -3/3/4
f -7/3/4 -11/3/4 -2/3/4
f -3/4/4 -7/4/4 -2/4/4
f -2/3/4 -11/3/4 -1/3/4
v -12 0 -1.5
v -12 28 -1.5
v -12 33 -1.5
v -12 35 -1.5
v -10 29 -1.5
v -10 31 -1.5
v 14 0 -1.5
v 14 28 -1.5
v 14 29 -1.5
v 14 31 -1.5
v 14 33 -1.5
v 14 35 -1.5
f -11/3/4 -10/3/4 -8/3/4
f -8/3/4 -10/3/4 -7/3/4
f -12/2/4 -11/2/4 -6/2/4
f -11/3/4 -8/3/4 -5/3/4
f -6/2/4 -11/2/4 -5/2/4
f -8/2/4 -7/2/4 -4/2/4
f -5/3/4 -8/3/4 -4/3/4
f -7/3/4 -10/3/4 -3/3/4
f -4/2/4 -7/2/4 -3/2/4
f -10/4/4 -9/4/4 -2/4/4
f -3/3/4 -10/3/4 -2/3/4
f -2/4/4 -9/4/4 -1/4/4
v -12 0 1.5
v 14 0 1.5
v -12 0 0.5
v -11 0 0.5
v 13 0 0.5
v 14 0 0.5
v -12 0 -0.5
v -11 0 -0.5
v 13 0 -0.5
v 14 0 -0.5
v -12 0 -1.5
v 14 0 -1.5
f -10/2/5 -11/2/5 -12/2/5
f -9/2/5 -11/2/5 -10/2/5
f -8/2/5 -11/2/5 -9/2/5
f -7/2/5 -11/2/5 -8/2/5
f -6/1/5 -9/1/5 -10/1/5
f -5/2/5 -8/2/5 -9/2/5
f -5/1/5 -9/1/5 -6/1/5
f -4/2/5 -8/2/5 -5/2/5
f -2/2/5 -5/2/5 -6/2/5
f -2/2/5 -3/2/5 -4/2/5
f -2/2/5 -4/2/5 -5/2/5
f -1/2/5 -3/2/5 -2/2/5
v -14 10 0.5
v -12 10 0.5
v -14 10 -0.5
v -12 10 -0.5
f -2/3/5 -3/3/5 -4/3/5
f -1/3/5 -3/3/5 -2/3/5
v -14 12 0.5
v -13 12 0.5
v -14 12 -0.5
v -13 12 -0.5
f -2/3/5 -3/3/5 -4/3/5
f -1/3/5 -3/3/5 -2/3/5
v -14 14 0.5
v -13 14 0.5
v -14 14 -0.5
v -13 14 -0.5
f -2/3/5 -3/3/5 -4/3/5
f -1/3/5 -3/3/5 -2/3/5
v -12 34 0.5
v -11 34 0.5
v 13 34 0.5
v 14 34 0.5
v -12 34 -0.5
v -11 34 -0.5
v 13 34 -0.5
v 14 34 -0.5
f -4/4/5 -7/4/5 -8/4/5
f -3/4/5 -7/4/5 -4/4/5
f -2/4/5 -5/4/5 -6/4/5
f -1/4/5 -5/4/5 -2/4/5
v -14 11 0.5
v -13 11 0.5
v -14 11 -0.5
v -13 11 -0.5
f -4/3/6 -3/3/6 -2/3/6
f -2/3/6 -3/3/6 -1/3/6
v -14 13 0.5
v -13 13 0.5
v -14 13 -0.5
v -13 13 -0.5
f -4/3/6 -3/3/6 -2/3/6
f -2/3/6 -3/3/6 -1/3/6
v -14 15 0.5
v -12 15 0.5
v -11 15 0.5
v -14 15 -0.5
v -12 15 -0.5
v -11 15 -0.5
f -6/3/6 -5/3/6 -3/3/6
f -5/2/6 -4/2/6 -2/2/6
f -3/3/6 -5/3/6 -2/3/6
f -2/2/6 -4/2/6 -1/2/6
v -12 35 1.5
v 14 35 1.5
v -11 35 0.5
v 13 35 0.5
v -11 35 -0.5
v 13 35 -0.5
v -12 35 -1.5
v 14 35 -1.5
f -8/4/6 -7/4/6 -6/4/6
f -6/4/6 -7/4/6 -5/4/6
f -8/4/6 -6/4/6 -4/4/6
f -6/2/6 -5/2/6 -4/2/6
f -5/4/6 -7/4/6 -3/4/6
f -4/2/6 -5/2/6 -3/2/6
f -8/4/6 -4/4/6 -2/4/6
f -4/4/6 -3/4/6 -2/4/6
f -3/4/6 -7/4/6 -1/4/6
f -2/4/6 -3/4/6 -1/4/6
