# MagicaVoxel @ ephtracy

# material
mtllib Elevator Wall.mtl
usemtl palette

# normals
vn -1 0 0
vn 1 0 0
vn 0 0 1
vn 0 0 -1
vn 0 -1 0
vn 0 1 0

# texcoords
vt 0.958984 0.5
vt 0.978516 0.5
vt 0.982422 0.5
vt 0.994141 0.5

# verts and faces
v -30 0 2
v -30 0 -5
v -30 5 2
v -30 5 -4
v -30 6 2
v -30 6 -4
v -30 12 2
v -30 12 -4
v -30 13 2
v -30 13 -4
v -30 19 2
v -30 19 -4
v -30 20 2
v -30 20 -4
v -30 26 2
v -30 26 -4
v -30 27 2
v -30 27 -4
v -30 33 2
v -30 33 -4
v -30 34 2
v -30 34 -4
v -30 40 2
v -30 40 -5
f -22/4/1 -23/4/1 -24/4/1
f -21/4/1 -23/4/1 -22/4/1
f -19/4/1 -23/4/1 -21/4/1
f -18/4/1 -19/4/1 -20/4/1
f -17/4/1 -23/4/1 -19/4/1
f -17/4/1 -19/4/1 -18/4/1
f -15/4/1 -23/4/1 -17/4/1
f -14/4/1 -15/4/1 -16/4/1
f -13/4/1 -23/4/1 -15/4/1
f -13/4/1 -15/4/1 -14/4/1
f -11/4/1 -23/4/1 -13/4/1
f -10/4/1 -11/4/1 -12/4/1
f -9/4/1 -23/4/1 -11/4/1
f -9/4/1 -11/4/1 -10/4/1
f -7/4/1 -23/4/1 -9/4/1
f -6/4/1 -7/4/1 -8/4/1
f -5/4/1 -23/4/1 -7/4/1
f -5/4/1 -7/4/1 -6/4/1
f -3/4/1 -23/4/1 -5/4/1
f -2/4/1 -3/4/1 -4/4/1
f -1/4/1 -23/4/1 -3/4/1
f -1/4/1 -3/4/1 -2/4/1
v -29 5 1
v -29 5 -4
v -29 6 1
v -29 6 -4
v -29 12 1
v -29 12 -4
v -29 13 1
v -29 13 -4
v -29 19 1
v -29 19 -4
v -29 20 1
v -29 20 -4
v -29 26 1
v -29 26 -4
v -29 27 1
v -29 27 -4
v -29 33 1
v -29 33 -4
v -29 34 1
v -29 34 -4
f -18/1/1 -19/1/1 -20/1/1
f -17/1/1 -19/1/1 -18/1/1
f -14/1/1 -15/1/1 -16/1/1
f -13/1/1 -15/1/1 -14/1/1
f -10/1/1 -11/1/1 -12/1/1
f -9/1/1 -11/1/1 -10/1/1
f -6/1/1 -7/1/1 -8/1/1
f -5/1/1 -7/1/1 -6/1/1
f -2/1/1 -3/1/1 -4/1/1
f -1/1/1 -3/1/1 -2/1/1
v -17 5 2
v -17 5 1
v -17 6 2
v -17 6 1
v -17 12 2
v -17 12 1
v -17 13 2
v -17 13 1
v -17 19 2
v -17 19 1
v -17 20 2
v -17 20 1
v -17 26 2
v -17 26 1
v -17 27 2
v -17 27 1
v -17 33 2
v -17 33 1
v -17 34 2
v -17 34 1
f -18/4/1 -19/4/1 -20/4/1
f -17/4/1 -19/4/1 -18/4/1
f -14/4/1 -15/4/1 -16/4/1
f -13/4/1 -15/4/1 -14/4/1
f -10/4/1 -11/4/1 -12/4/1
f -9/4/1 -11/4/1 -10/4/1
f -6/4/1 -7/4/1 -8/4/1
f -5/4/1 -7/4/1 -6/4/1
f -2/4/1 -3/4/1 -4/4/1
f -1/4/1 -3/4/1 -2/4/1
v -16 0 5
v -16 0 3
v -16 39 5
v -16 39 3
f -2/2/1 -3/2/1 -4/2/1
f -1/2/1 -3/2/1 -2/2/1
v -15 0 3
v -15 0 2
v -15 38 3
v -15 38 2
f -2/2/1 -3/2/1 -4/2/1
f -1/2/1 -3/2/1 -2/2/1
v 11 0 2
v 11 0 1
v 11 0 -2
v 11 0 -3
v 11 36 2
v 11 36 1
v 11 36 -2
v 11 36 -3
f -4/3/1 -7/3/1 -8/3/1
f -3/3/1 -7/3/1 -4/3/1
f -2/2/1 -5/2/1 -6/2/1
f -1/2/1 -5/2/1 -2/2/1
v 12 0 5
v 12 0 2
v 12 37 5
v 12 37 2
f -2/2/1 -3/2/1 -4/2/1
f -1/2/1 -3/2/1 -2/2/1
v 15 0 -3
v 15 0 -4
v 15 0 -5
v 15 37 1
v 15 37 -2
v 15 37 -3
v 15 37 -4
v 15 37 -5
v 15 38 1
v 15 38 -2
f -5/2/1 -9/2/1 -10/2/1
f -4/4/1 -8/4/1 -9/4/1
f -4/2/1 -9/2/1 -5/2/1
f -3/4/1 -8/4/1 -4/4/1
f -2/2/1 -6/2/1 -7/2/1
f -1/2/1 -6/2/1 -2/2/1
v 17 0 1
v 17 0 -2
v 17 5 1
v 17 5 -0
v 17 6 1
v 17 6 -0
v 17 12 1
v 17 12 -0
v 17 13 1
v 17 13 -0
v 17 19 1
v 17 19 -0
v 17 20 1
v 17 20 -0
v 17 26 1
v 17 26 -0
v 17 27 1
v 17 27 -0
v 17 33 1
v 17 33 -0
v 17 34 1
v 17 34 -0
v 17 37 1
v 17 37 -2
f -22/2/1 -23/2/1 -24/2/1
f -21/2/1 -23/2/1 -22/2/1
f -20/1/1 -21/1/1 -22/1/1
f -19/2/1 -23/2/1 -21/2/1
f -19/1/1 -21/1/1 -20/1/1
f -18/2/1 -19/2/1 -20/2/1
f -17/2/1 -23/2/1 -19/2/1
f -17/2/1 -19/2/1 -18/2/1
f -16/1/1 -17/1/1 -18/1/1
f -15/2/1 -23/2/1 -17/2/1
f -15/1/1 -17/1/1 -16/1/1
f -14/2/1 -15/2/1 -16/2/1
f -13/2/1 -23/2/1 -15/2/1
f -13/2/1 -15/2/1 -14/2/1
f -12/1/1 -13/1/1 -14/1/1
f -11/2/1 -23/2/1 -13/2/1
f -11/1/1 -13/1/1 -12/1/1
f -10/2/1 -11/2/1 -12/2/1
f -9/2/1 -23/2/1 -11/2/1
f -9/2/1 -11/2/1 -10/2/1
f -8/1/1 -9/1/1 -10/1/1
f -7/2/1 -23/2/1 -9/2/1
f -7/1/1 -9/1/1 -8/1/1
f -6/2/1 -7/2/1 -8/2/1
f -5/2/1 -23/2/1 -7/2/1
f -5/2/1 -7/2/1 -6/2/1
f -4/1/1 -5/1/1 -6/1/1
f -3/2/1 -23/2/1 -5/2/1
f -3/1/1 -5/1/1 -4/1/1
f -2/2/1 -3/2/1 -4/2/1
f -1/2/1 -23/2/1 -3/2/1
f -1/2/1 -3/2/1 -2/2/1
v -17 0 1
v -17 0 -2
v -17 5 1
v -17 5 -0
v -17 6 1
v -17 6 -0
v -17 12 1
v -17 12 -0
v -17 13 1
v -17 13 -0
v -17 19 1
v -17 19 -0
v -17 20 1
v -17 20 -0
v -17 26 1
v -17 26 -0
v -17 27 1
v -17 27 -0
v -17 33 1
v -17 33 -0
v -17 34 1
v -17 34 -0
v -17 37 1
v -17 37 -2
f -24/2/2 -23/2/2 -22/2/2
f -22/2/2 -23/2/2 -21/2/2
f -22/1/2 -21/1/2 -20/1/2
f -21/2/2 -23/2/2 -19/2/2
f -20/1/2 -21/1/2 -19/1/2
f -20/2/2 -19/2/2 -18/2/2
f -19/2/2 -23/2/2 -17/2/2
f -18/2/2 -19/2/2 -17/2/2
f -18/1/2 -17/1/2 -16/1/2
f -17/2/2 -23/2/2 -15/2/2
f -16/1/2 -17/1/2 -15/1/2
f -16/2/2 -15/2/2 -14/2/2
f -15/2/2 -23/2/2 -13/2/2
f -14/2/2 -15/2/2 -13/2/2
f -14/1/2 -13/1/2 -12/1/2
f -13/2/2 -23/2/2 -11/2/2
f -12/1/2 -13/1/2 -11/1/2
f -12/2/2 -11/2/2 -10/2/2
f -11/2/2 -23/2/2 -9/2/2
f -10/2/2 -11/2/2 -9/2/2
f -10/1/2 -9/1/2 -8/1/2
f -9/2/2 -23/2/2 -7/2/2
f -8/1/2 -9/1/2 -7/1/2
f -8/2/2 -7/2/2 -6/2/2
f -7/2/2 -23/2/2 -5/2/2
f -6/2/2 -7/2/2 -5/2/2
f -6/1/2 -5/1/2 -4/1/2
f -5/2/2 -23/2/2 -3/2/2
f -4/1/2 -5/1/2 -3/1/2
f -4/2/2 -3/2/2 -2/2/2
f -3/2/2 -23/2/2 -1/2/2
f -2/2/2 -3/2/2 -1/2/2
v -15 0 -3
v -15 0 -4
v -15 0 -5
v -15 37 1
v -15 37 -2
v -15 37 -3
v -15 37 -4
v -15 37 -5
v -15 38 1
v -15 38 -2
f -10/2/2 -9/2/2 -5/2/2
f -9/4/2 -8/4/2 -4/4/2
f -5/2/2 -9/2/2 -4/2/2
f -4/4/2 -8/4/2 -3/4/2
f -7/2/2 -6/2/2 -2/2/2
f -2/2/2 -6/2/2 -1/2/2
v -12 0 5
v -12 0 2
v -12 37 5
v -12 37 2
f -4/2/2 -3/2/2 -2/2/2
f -2/2/2 -3/2/2 -1/2/2
v -11 0 2
v -11 0 1
v -11 0 -2
v -11 0 -3
v -11 36 2
v -11 36 1
v -11 36 -2
v -11 36 -3
f -8/3/2 -7/3/2 -4/3/2
f -4/3/2 -7/3/2 -3/3/2
f -6/2/2 -5/2/2 -2/2/2
f -2/2/2 -5/2/2 -1/2/2
v 15 0 3
v 15 0 2
v 15 38 3
v 15 38 2
f -4/2/2 -3/2/2 -2/2/2
f -2/2/2 -3/2/2 -1/2/2
v 16 0 5
v 16 0 3
v 16 39 5
v 16 39 3
f -4/2/2 -3/2/2 -2/2/2
f -2/2/2 -3/2/2 -1/2/2
v 17 5 2
v 17 5 1
v 17 6 2
v 17 6 1
v 17 12 2
v 17 12 1
v 17 13 2
v 17 13 1
v 17 19 2
v 17 19 1
v 17 20 2
v 17 20 1
v 17 26 2
v 17 26 1
v 17 27 2
v 17 27 1
v 17 33 2
v 17 33 1
v 17 34 2
v 17 34 1
f -20/4/2 -19/4/2 -18/4/2
f -18/4/2 -19/4/2 -17/4/2
f -16/4/2 -15/4/2 -14/4/2
f -14/4/2 -15/4/2 -13/4/2
f -12/4/2 -11/4/2 -10/4/2
f -10/4/2 -11/4/2 -9/4/2
f -8/4/2 -7/4/2 -6/4/2
f -6/4/2 -7/4/2 -5/4/2
f -4/4/2 -3/4/2 -2/4/2
f -2/4/2 -3/4/2 -1/4/2
v 29 5 1
v 29 5 -4
v 29 6 1
v 29 6 -4
v 29 12 1
v 29 12 -4
v 29 13 1
v 29 13 -4
v 29 19 1
v 29 19 -4
v 29 20 1
v 29 20 -4
v 29 26 1
v 29 26 -4
v 29 27 1
v 29 27 -4
v 29 33 1
v 29 33 -4
v 29 34 1
v 29 34 -4
f -20/1/2 -19/1/2 -18/1/2
f -18/1/2 -19/1/2 -17/1/2
f -16/1/2 -15/1/2 -14/1/2
f -14/1/2 -15/1/2 -13/1/2
f -12/1/2 -11/1/2 -10/1/2
f -10/1/2 -11/1/2 -9/1/2
f -8/1/2 -7/1/2 -6/1/2
f -6/1/2 -7/1/2 -5/1/2
f -4/1/2 -3/1/2 -2/1/2
f -2/1/2 -3/1/2 -1/1/2
v 30 0 2
v 30 0 -5
v 30 5 2
v 30 5 -4
v 30 6 2
v 30 6 -4
v 30 12 2
v 30 12 -4
v 30 13 2
v 30 13 -4
v 30 19 2
v 30 19 -4
v 30 20 2
v 30 20 -4
v 30 26 2
v 30 26 -4
v 30 27 2
v 30 27 -4
v 30 33 2
v 30 33 -4
v 30 34 2
v 30 34 -4
v 30 40 2
v 30 40 -5
f -24/4/2 -23/4/2 -22/4/2
f -22/4/2 -23/4/2 -21/4/2
f -21/4/2 -23/4/2 -19/4/2
f -20/4/2 -19/4/2 -18/4/2
f -19/4/2 -23/4/2 -17/4/2
f -18/4/2 -19/4/2 -17/4/2
f -17/4/2 -23/4/2 -15/4/2
f -16/4/2 -15/4/2 -14/4/2
f -15/4/2 -23/4/2 -13/4/2
f -14/4/2 -15/4/2 -13/4/2
f -13/4/2 -23/4/2 -11/4/2
f -12/4/2 -11/4/2 -10/4/2
f -11/4/2 -23/4/2 -9/4/2
f -10/4/2 -11/4/2 -9/4/2
f -9/4/2 -23/4/2 -7/4/2
f -8/4/2 -7/4/2 -6/4/2
f -7/4/2 -23/4/2 -5/4/2
f -6/4/2 -7/4/2 -5/4/2
f -5/4/2 -23/4/2 -3/4/2
f -4/4/2 -3/4/2 -2/4/2
f -3/4/2 -23/4/2 -1/4/2
f -2/4/2 -3/4/2 -1/4/2
v -16 0 5
v -16 39 5
v -12 0 5
v -12 37 5
v 12 0 5
v 12 37 5
v 16 0 5
v 16 39 5
f -6/2/3 -7/2/3 -8/2/3
f -5/2/3 -7/2/3 -6/2/3
f -3/2/3 -7/2/3 -5/2/3
f -2/2/3 -3/2/3 -4/2/3
f -1/2/3 -7/2/3 -3/2/3
f -1/2/3 -3/2/3 -2/2/3
v -30 0 2
v -30 5 2
v -30 6 2
v -30 12 2
v -30 13 2
v -30 19 2
v -30 20 2
v -30 26 2
v -30 27 2
v -30 33 2
v -30 34 2
v -30 40 2
v -17 5 2
v -17 6 2
v -17 12 2
v -17 13 2
v -17 19 2
v -17 20 2
v -17 26 2
v -17 27 2
v -17 33 2
v -17 34 2
v -15 0 2
v -15 38 2
v -12 0 2
v -12 37 2
v -11 0 2
v -11 36 2
v 11 0 2
v 11 36 2
v 12 0 2
v 12 37 2
v 15 0 2
v 15 38 2
v 17 5 2
v 17 6 2
v 17 12 2
v 17 13 2
v 17 19 2
v 17 20 2
v 17 26 2
v 17 27 2
v 17 33 2
v 17 34 2
v 30 0 2
v 30 5 2
v 30 6 2
v 30 12 2
v 30 13 2
v 30 19 2
v 30 20 2
v 30 26 2
v 30 27 2
v 30 33 2
v 30 34 2
v 30 40 2
f -44/4/3 -55/4/3 -56/4/3
f -43/4/3 -53/4/3 -54/4/3
f -42/4/3 -53/4/3 -43/4/3
f -41/4/3 -51/4/3 -52/4/3
f -40/4/3 -51/4/3 -41/4/3
f -39/4/3 -49/4/3 -50/4/3
f -38/4/3 -49/4/3 -39/4/3
f -37/4/3 -47/4/3 -48/4/3
f -36/4/3 -47/4/3 -37/4/3
f -35/4/3 -45/4/3 -46/4/3
f -34/4/3 -36/4/3 -37/4/3
f -34/4/3 -35/4/3 -36/4/3
f -34/4/3 -44/4/3 -56/4/3
f -34/4/3 -42/4/3 -43/4/3
f -34/4/3 -37/4/3 -38/4/3
f -34/4/3 -40/4/3 -41/4/3
f -34/4/3 -39/4/3 -40/4/3
f -34/4/3 -38/4/3 -39/4/3
f -34/4/3 -41/4/3 -42/4/3
f -34/4/3 -43/4/3 -44/4/3
f -33/4/3 -45/4/3 -35/4/3
f -33/4/3 -35/4/3 -34/4/3
f -30/3/3 -31/3/3 -32/3/3
f -29/3/3 -31/3/3 -30/3/3
f -27/3/3 -31/3/3 -29/3/3
f -26/3/3 -27/3/3 -28/3/3
f -25/3/3 -31/3/3 -27/3/3
f -25/3/3 -27/3/3 -26/3/3
f -23/4/3 -45/4/3 -33/4/3
f -22/4/3 -23/4/3 -24/4/3
f -21/4/3 -23/4/3 -22/4/3
f -20/4/3 -23/4/3 -21/4/3
f -19/4/3 -23/4/3 -20/4/3
f -18/4/3 -23/4/3 -19/4/3
f -17/4/3 -23/4/3 -18/4/3
f -16/4/3 -23/4/3 -17/4/3
f -15/4/3 -23/4/3 -16/4/3
f -14/4/3 -23/4/3 -15/4/3
f -13/4/3 -23/4/3 -14/4/3
f -12/4/3 -22/4/3 -24/4/3
f -11/4/3 -22/4/3 -12/4/3
f -10/4/3 -20/4/3 -21/4/3
f -9/4/3 -20/4/3 -10/4/3
f -8/4/3 -18/4/3 -19/4/3
f -7/4/3 -18/4/3 -8/4/3
f -6/4/3 -16/4/3 -17/4/3
f -5/4/3 -16/4/3 -6/4/3
f -4/4/3 -14/4/3 -15/4/3
f -3/4/3 -14/4/3 -4/4/3
f -2/4/3 -23/4/3 -13/4/3
f -1/4/3 -45/4/3 -23/4/3
f -1/4/3 -23/4/3 -2/4/3
v -29 5 1
v -29 6 1
v -29 12 1
v -29 13 1
v -29 19 1
v -29 20 1
v -29 26 1
v -29 27 1
v -29 33 1
v -29 34 1
v -17 5 1
v -17 6 1
v -17 12 1
v -17 13 1
v -17 19 1
v -17 20 1
v -17 26 1
v -17 27 1
v -17 33 1
v -17 34 1
v 17 5 1
v 17 6 1
v 17 12 1
v 17 13 1
v 17 19 1
v 17 20 1
v 17 26 1
v 17 27 1
v 17 33 1
v 17 34 1
v 29 5 1
v 29 6 1
v 29 12 1
v 29 13 1
v 29 19 1
v 29 20 1
v 29 26 1
v 29 27 1
v 29 33 1
v 29 34 1
f -30/1/3 -39/1/3 -40/1/3
f -29/1/3 -39/1/3 -30/1/3
f -28/1/3 -37/1/3 -38/1/3
f -27/1/3 -37/1/3 -28/1/3
f -26/1/3 -35/1/3 -36/1/3
f -25/1/3 -35/1/3 -26/1/3
f -24/1/3 -33/1/3 -34/1/3
f -23/1/3 -33/1/3 -24/1/3
f -22/1/3 -31/1/3 -32/1/3
f -21/1/3 -31/1/3 -22/1/3
f -10/1/3 -19/1/3 -20/1/3
f -9/1/3 -19/1/3 -10/1/3
f -8/1/3 -17/1/3 -18/1/3
f -7/1/3 -17/1/3 -8/1/3
f -6/1/3 -15/1/3 -16/1/3
f -5/1/3 -15/1/3 -6/1/3
f -4/1/3 -13/1/3 -14/1/3
f -3/1/3 -13/1/3 -4/1/3
f -2/1/3 -11/1/3 -12/1/3
f -1/1/3 -11/1/3 -2/1/3
v -17 0 -2
v -17 37 -2
v -15 37 -2
v -15 38 -2
v -11 0 -2
v -11 36 -2
v 11 0 -2
v 11 36 -2
v 15 37 -2
v 15 38 -2
v 17 0 -2
v 17 37 -2
f -10/2/3 -11/2/3 -12/2/3
f -8/2/3 -10/2/3 -12/2/3
f -8/2/3 -9/2/3 -10/2/3
f -7/2/3 -9/2/3 -8/2/3
f -5/2/3 -9/2/3 -7/2/3
f -4/2/3 -9/2/3 -5/2/3
f -4/2/3 -5/2/3 -6/2/3
f -3/2/3 -9/2/3 -4/2/3
f -2/2/3 -4/2/3 -6/2/3
f -1/2/3 -4/2/3 -2/2/3
v -30 5 -4
v -30 6 -4
v -30 12 -4
v -30 13 -4
v -30 19 -4
v -30 20 -4
v -30 26 -4
v -30 27 -4
v -30 33 -4
v -30 34 -4
v -29 5 -4
v -29 6 -4
v -29 12 -4
v -29 13 -4
v -29 19 -4
v -29 20 -4
v -29 26 -4
v -29 27 -4
v -29 33 -4
v -29 34 -4
v 29 5 -4
v 29 6 -4
v 29 12 -4
v 29 13 -4
v 29 19 -4
v 29 20 -4
v 29 26 -4
v 29 27 -4
v 29 33 -4
v 29 34 -4
v 30 5 -4
v 30 6 -4
v 30 12 -4
v 30 13 -4
v 30 19 -4
v 30 20 -4
v 30 26 -4
v 30 27 -4
v 30 33 -4
v 30 34 -4
f -30/4/3 -39/4/3 -40/4/3
f -29/4/3 -39/4/3 -30/4/3
f -28/4/3 -37/4/3 -38/4/3
f -27/4/3 -37/4/3 -28/4/3
f -26/4/3 -35/4/3 -36/4/3
f -25/4/3 -35/4/3 -26/4/3
f -24/4/3 -33/4/3 -34/4/3
f -23/4/3 -33/4/3 -24/4/3
f -22/4/3 -31/4/3 -32/4/3
f -21/4/3 -31/4/3 -22/4/3
f -10/4/3 -19/4/3 -20/4/3
f -9/4/3 -19/4/3 -10/4/3
f -8/4/3 -17/4/3 -18/4/3
f -7/4/3 -17/4/3 -8/4/3
f -6/4/3 -15/4/3 -16/4/3
f -5/4/3 -15/4/3 -6/4/3
f -4/4/3 -13/4/3 -14/4/3
f -3/4/3 -13/4/3 -4/4/3
f -2/4/3 -11/4/3 -12/4/3
f -1/4/3 -11/4/3 -2/4/3
v -16 0 3
v -16 39 3
v -15 0 3
v -15 38 3
v 15 0 3
v 15 38 3
v 16 0 3
v 16 39 3
f -8/2/4 -7/2/4 -6/2/4
f -6/2/4 -7/2/4 -5/2/4
f -5/2/4 -7/2/4 -3/2/4
f -4/2/4 -3/2/4 -2/2/4
f -3/2/4 -7/2/4 -1/2/4
f -2/2/4 -3/2/4 -1/2/4
v -17 0 1
v -17 5 1
v -17 6 1
v -17 12 1
v -17 13 1
v -17 19 1
v -17 20 1
v -17 26 1
v -17 27 1
v -17 33 1
v -17 34 1
v -17 37 1
v -15 0 1
v -15 37 1
v -15 38 1
v -12 0 1
v -12 37 1
v -11 0 1
v -11 36 1
v 11 0 1
v 11 36 1
v 12 0 1
v 12 37 1
v 15 0 1
v 15 37 1
v 15 38 1
v 17 0 1
v 17 5 1
v 17 6 1
v 17 12 1
v 17 13 1
v 17 19 1
v 17 20 1
v 17 26 1
v 17 27 1
v 17 33 1
v 17 34 1
v 17 37 1
f -38/4/4 -37/4/4 -26/4/4
f -28/4/4 -27/4/4 -26/4/4
f -29/4/4 -28/4/4 -26/4/4
f -30/4/4 -29/4/4 -26/4/4
f -31/4/4 -30/4/4 -26/4/4
f -32/4/4 -31/4/4 -26/4/4
f -33/4/4 -32/4/4 -26/4/4
f -34/4/4 -33/4/4 -26/4/4
f -35/4/4 -34/4/4 -26/4/4
f -36/4/4 -35/4/4 -26/4/4
f -37/4/4 -36/4/4 -26/4/4
f -26/4/4 -27/4/4 -25/4/4
f -26/2/4 -25/2/4 -23/2/4
f -25/2/4 -24/2/4 -23/2/4
f -23/2/4 -24/2/4 -22/2/4
f -23/3/4 -22/3/4 -21/3/4
f -21/3/4 -22/3/4 -20/3/4
f -20/3/4 -22/3/4 -18/3/4
f -19/3/4 -18/3/4 -17/3/4
f -22/2/4 -24/2/4 -16/2/4
f -17/3/4 -18/3/4 -16/3/4
f -18/3/4 -22/3/4 -16/3/4
f -17/2/4 -16/2/4 -15/2/4
f -16/2/4 -24/2/4 -14/2/4
f -15/2/4 -16/2/4 -14/2/4
f -14/2/4 -24/2/4 -13/2/4
f -15/4/4 -14/4/4 -12/4/4
f -12/4/4 -14/4/4 -11/4/4
f -11/4/4 -14/4/4 -10/4/4
f -10/4/4 -14/4/4 -9/4/4
f -9/4/4 -14/4/4 -8/4/4
f -8/4/4 -14/4/4 -7/4/4
f -7/4/4 -14/4/4 -6/4/4
f -6/4/4 -14/4/4 -5/4/4
f -5/4/4 -14/4/4 -4/4/4
f -4/4/4 -14/4/4 -3/4/4
f -3/4/4 -14/4/4 -2/4/4
f -2/4/4 -14/4/4 -1/4/4
v -15 0 -3
v -15 37 -3
v -11 0 -3
v -11 36 -3
v 11 0 -3
v 11 36 -3
v 15 0 -3
v 15 37 -3
f -8/2/4 -7/2/4 -6/2/4
f -6/2/4 -7/2/4 -5/2/4
f -5/2/4 -7/2/4 -3/2/4
f -4/2/4 -3/2/4 -2/2/4
f -3/2/4 -7/2/4 -1/2/4
f -2/2/4 -3/2/4 -1/2/4
v -30 0 -5
v -30 40 -5
v -15 0 -5
v -15 37 -5
v 15 0 -5
v 15 37 -5
v 30 0 -5
v 30 40 -5
f -8/4/4 -7/4/4 -6/4/4
f -6/4/4 -7/4/4 -5/4/4
f -5/4/4 -7/4/4 -3/4/4
f -4/4/4 -3/4/4 -2/4/4
f -3/4/4 -7/4/4 -1/4/4
f -2/4/4 -3/4/4 -1/4/4
v -16 0 5
v -12 0 5
v 12 0 5
v 16 0 5
v -16 0 3
v -15 0 3
v 15 0 3
v 16 0 3
v -30 0 2
v -15 0 2
v -12 0 2
v -11 0 2
v 11 0 2
v 12 0 2
v 15 0 2
v 30 0 2
v -29 0 1
v -17 0 1
v -15 0 1
v -12 0 1
v -11 0 1
v 11 0 1
v 12 0 1
v 15 0 1
v 17 0 1
v 29 0 1
v -17 0 -2
v -11 0 -2
v 11 0 -2
v 17 0 -2
v -15 0 -3
v -11 0 -3
v 11 0 -3
v 15 0 -3
v -29 0 -4
v -15 0 -4
v 15 0 -4
v 29 0 -4
v -30 0 -5
v -15 0 -5
v 15 0 -5
v 30 0 -5
f -38/2/5 -41/2/5 -42/2/5
f -37/2/5 -41/2/5 -38/2/5
f -36/2/5 -39/2/5 -40/2/5
f -35/2/5 -39/2/5 -36/2/5
f -33/2/5 -41/2/5 -37/2/5
f -32/2/5 -41/2/5 -33/2/5
f -29/2/5 -36/2/5 -40/2/5
f -28/2/5 -36/2/5 -29/2/5
f -26/4/5 -33/4/5 -34/4/5
f -25/4/5 -33/4/5 -26/4/5
f -24/2/5 -32/2/5 -33/2/5
f -24/4/5 -33/4/5 -25/4/5
f -23/3/5 -31/3/5 -32/3/5
f -23/2/5 -32/2/5 -24/2/5
f -22/3/5 -31/3/5 -23/3/5
f -21/3/5 -29/3/5 -30/3/5
f -20/2/5 -28/2/5 -29/2/5
f -20/3/5 -29/3/5 -21/3/5
f -19/4/5 -27/4/5 -28/4/5
f -19/2/5 -28/2/5 -20/2/5
f -18/4/5 -27/4/5 -19/4/5
f -17/4/5 -27/4/5 -18/4/5
f -16/2/5 -25/2/5 -26/2/5
f -13/2/5 -17/2/5 -18/2/5
f -12/2/5 -15/2/5 -16/2/5
f -11/2/5 -15/2/5 -12/2/5
f -10/2/5 -13/2/5 -14/2/5
f -9/2/5 -13/2/5 -10/2/5
f -8/4/5 -26/4/5 -34/4/5
f -8/2/5 -16/2/5 -26/2/5
f -8/2/5 -12/2/5 -16/2/5
f -7/2/5 -12/2/5 -8/2/5
f -6/2/5 -13/2/5 -9/2/5
f -5/4/5 -27/4/5 -17/4/5
f -5/2/5 -13/2/5 -6/2/5
f -5/2/5 -17/2/5 -13/2/5
f -4/4/5 -7/4/5 -8/4/5
f -4/4/5 -8/4/5 -34/4/5
f -3/4/5 -7/4/5 -4/4/5
f -2/4/5 -5/4/5 -6/4/5
f -1/4/5 -27/4/5 -5/4/5
f -1/4/5 -5/4/5 -2/4/5
v -30 6 2
v -17 6 2
v 17 6 2
v 30 6 2
v -29 6 1
v -17 6 1
v 17 6 1
v 29 6 1
v -30 6 -4
v -29 6 -4
v 29 6 -4
v 30 6 -4
f -8/4/5 -11/4/5 -12/4/5
f -7/4/5 -11/4/5 -8/4/5
f -6/4/5 -9/4/5 -10/4/5
f -5/4/5 -9/4/5 -6/4/5
f -4/4/5 -8/4/5 -12/4/5
f -3/4/5 -8/4/5 -4/4/5
f -2/4/5 -9/4/5 -5/4/5
f -1/4/5 -9/4/5 -2/4/5
v -30 13 2
v -17 13 2
v 17 13 2
v 30 13 2
v -29 13 1
v -17 13 1
v 17 13 1
v 29 13 1
v -30 13 -4
v -29 13 -4
v 29 13 -4
v 30 13 -4
f -8/4/5 -11/4/5 -12/4/5
f -7/4/5 -11/4/5 -8/4/5
f -6/4/5 -9/4/5 -10/4/5
f -5/4/5 -9/4/5 -6/4/5
f -4/4/5 -8/4/5 -12/4/5
f -3/4/5 -8/4/5 -4/4/5
f -2/4/5 -9/4/5 -5/4/5
f -1/4/5 -9/4/5 -2/4/5
v -30 20 2
v -17 20 2
v 17 20 2
v 30 20 2
v -29 20 1
v -17 20 1
v 17 20 1
v 29 20 1
v -30 20 -4
v -29 20 -4
v 29 20 -4
v 30 20 -4
f -8/4/5 -11/4/5 -12/4/5
f -7/4/5 -11/4/5 -8/4/5
f -6/4/5 -9/4/5 -10/4/5
f -5/4/5 -9/4/5 -6/4/5
f -4/4/5 -8/4/5 -12/4/5
f -3/4/5 -8/4/5 -4/4/5
f -2/4/5 -9/4/5 -5/4/5
f -1/4/5 -9/4/5 -2/4/5
v -30 27 2
v -17 27 2
v 17 27 2
v 30 27 2
v -29 27 1
v -17 27 1
v 17 27 1
v 29 27 1
v -30 27 -4
v -29 27 -4
v 29 27 -4
v 30 27 -4
f -8/4/5 -11/4/5 -12/4/5
f -7/4/5 -11/4/5 -8/4/5
f -6/4/5 -9/4/5 -10/4/5
f -5/4/5 -9/4/5 -6/4/5
f -4/4/5 -8/4/5 -12/4/5
f -3/4/5 -8/4/5 -4/4/5
f -2/4/5 -9/4/5 -5/4/5
f -1/4/5 -9/4/5 -2/4/5
v -30 34 2
v -17 34 2
v 17 34 2
v 30 34 2
v -29 34 1
v -17 34 1
v 17 34 1
v 29 34 1
v -30 34 -4
v -29 34 -4
v 29 34 -4
v 30 34 -4
f -8/4/5 -11/4/5 -12/4/5
f -7/4/5 -11/4/5 -8/4/5
f -6/4/5 -9/4/5 -10/4/5
f -5/4/5 -9/4/5 -6/4/5
f -4/4/5 -8/4/5 -12/4/5
f -3/4/5 -8/4/5 -4/4/5
f -2/4/5 -9/4/5 -5/4/5
f -1/4/5 -9/4/5 -2/4/5
v -11 36 2
v 11 36 2
v -11 36 1
v 11 36 1
v -11 36 -2
v 11 36 -2
v -11 36 -3
v 11 36 -3
f -6/3/5 -7/3/5 -8/3/5
f -5/3/5 -7/3/5 -6/3/5
f -2/2/5 -3/2/5 -4/2/5
f -1/2/5 -3/2/5 -2/2/5
v -12 37 5
v 12 37 5
v -12 37 2
v 12 37 2
v -17 37 1
v -15 37 1
v 15 37 1
v 17 37 1
v -17 37 -2
v -15 37 -2
v 15 37 -2
v 17 37 -2
v -15 37 -3
v 15 37 -3
v -15 37 -4
v 15 37 -4
v -15 37 -5
v 15 37 -5
f -16/2/5 -17/2/5 -18/2/5
f -15/2/5 -17/2/5 -16/2/5
f -10/2/5 -13/2/5 -14/2/5
f -9/2/5 -13/2/5 -10/2/5
f -8/2/5 -11/2/5 -12/2/5
f -7/2/5 -11/2/5 -8/2/5
f -4/2/5 -5/2/5 -6/2/5
f -3/2/5 -5/2/5 -4/2/5
f -2/4/5 -3/4/5 -4/4/5
f -1/4/5 -3/4/5 -2/4/5
v -15 38 1
v 15 38 1
v -15 38 -2
v 15 38 -2
f -2/2/5 -3/2/5 -4/2/5
f -1/2/5 -3/2/5 -2/2/5
v -30 5 2
v -17 5 2
v 17 5 2
v 30 5 2
v -29 5 1
v -17 5 1
v 17 5 1
v 29 5 1
v -30 5 -4
v -29 5 -4
v 29 5 -4
v 30 5 -4
f -12/4/6 -11/4/6 -8/4/6
f -8/4/6 -11/4/6 -7/4/6
f -10/4/6 -9/4/6 -6/4/6
f -6/4/6 -9/4/6 -5/4/6
f -12/4/6 -8/4/6 -4/4/6
f -4/4/6 -8/4/6 -3/4/6
f -5/4/6 -9/4/6 -2/4/6
f -2/4/6 -9/4/6 -1/4/6
v -30 12 2
v -17 12 2
v 17 12 2
v 30 12 2
v -29 12 1
v -17 12 1
v 17 12 1
v 29 12 1
v -30 12 -4
v -29 12 -4
v 29 12 -4
v 30 12 -4
f -12/4/6 -11/4/6 -8/4/6
f -8/4/6 -11/4/6 -7/4/6
f -10/4/6 -9/4/6 -6/4/6
f -6/4/6 -9/4/6 -5/4/6
f -12/4/6 -8/4/6 -4/4/6
f -4/4/6 -8/4/6 -3/4/6
f -5/4/6 -9/4/6 -2/4/6
f -2/4/6 -9/4/6 -1/4/6
v -30 19 2
v -17 19 2
v 17 19 2
v 30 19 2
v -29 19 1
v -17 19 1
v 17 19 1
v 29 19 1
v -30 19 -4
v -29 19 -4
v 29 19 -4
v 30 19 -4
f -12/4/6 -11/4/6 -8/4/6
f -8/4/6 -11/4/6 -7/4/6
f -10/4/6 -9/4/6 -6/4/6
f -6/4/6 -9/4/6 -5/4/6
f -12/4/6 -8/4/6 -4/4/6
f -4/4/6 -8/4/6 -3/4/6
f -5/4/6 -9/4/6 -2/4/6
f -2/4/6 -9/4/6 -1/4/6
v -30 26 2
v -17 26 2
v 17 26 2
v 30 26 2
v -29 26 1
v -17 26 1
v 17 26 1
v 29 26 1
v -30 26 -4
v -29 26 -4
v 29 26 -4
v 30 26 -4
f -12/4/6 -11/4/6 -8/4/6
f -8/4/6 -11/4/6 -7/4/6
f -10/4/6 -9/4/6 -6/4/6
f -6/4/6 -9/4/6 -5/4/6
f -12/4/6 -8/4/6 -4/4/6
f -4/4/6 -8/4/6 -3/4/6
f -5/4/6 -9/4/6 -2/4/6
f -2/4/6 -9/4/6 -1/4/6
v -30 33 2
v -17 33 2
v 17 33 2
v 30 33 2
v -29 33 1
v -17 33 1
v 17 33 1
v 29 33 1
v -30 33 -4
v -29 33 -4
v 29 33 -4
v 30 33 -4
f -12/4/6 -11/4/6 -8/4/6
f -8/4/6 -11/4/6 -7/4/6
f -10/4/6 -9/4/6 -6/4/6
f -6/4/6 -9/4/6 -5/4/6
f -12/4/6 -8/4/6 -4/4/6
f -4/4/6 -8/4/6 -3/4/6
f -5/4/6 -9/4/6 -2/4/6
f -2/4/6 -9/4/6 -1/4/6
v -15 38 3
v 15 38 3
v -15 38 2
v 15 38 2
f -4/2/6 -3/2/6 -2/2/6
f -2/2/6 -3/2/6 -1/2/6
v -16 39 5
v 16 39 5
v -16 39 3
v 16 39 3
f -4/2/6 -3/2/6 -2/2/6
f -2/2/6 -3/2/6 -1/2/6
v -30 40 2
v 30 40 2
v -30 40 -5
v 30 40 -5
f -4/4/6 -3/4/6 -2/4/6
f -2/4/6 -3/4/6 -1/4/6
