# MagicaVoxel @ ephtracy

# material
mtllib B&W Pic 2.mtl
usemtl palette

# normals
vn -1 0 0
vn 1 0 0
vn 0 0 1
vn 0 0 -1
vn 0 -1 0
vn 0 1 0

# texcoords
vt 0.958984 0.5
vt 0.974609 0.5
vt 0.982422 0.5
vt 0.990234 0.5
vt 0.994141 0.5

# verts and faces
v -5.5 0 0.5
v -5.5 0 -0.5
v -5.5 10 0.5
v -5.5 10 -0.5
f -2/5/1 -3/5/1 -4/5/1
f -1/5/1 -3/5/1 -2/5/1
v 5.5 0 0.5
v 5.5 0 -0.5
v 5.5 10 0.5
v 5.5 10 -0.5
f -4/5/2 -3/5/2 -2/5/2
f -2/5/2 -3/5/2 -1/5/2
v -5.5 0 0.5
v -5.5 10 0.5
v -4.5 1 0.5
v -4.5 9 0.5
v -2.5 3 0.5
v -2.5 6 0.5
v -2.5 7 0.5
v -1.5 3 0.5
v -1.5 6 0.5
v -1.5 7 0.5
v -0.5 3 0.5
v -0.5 4 0.5
v -0.5 5 0.5
v -0.5 6 0.5
v -0.5 7 0.5
v 0.5 3 0.5
v 0.5 4 0.5
v 0.5 5 0.5
v 0.5 6 0.5
v 0.5 7 0.5
v 1.5 3 0.5
v 1.5 4 0.5
v 1.5 5 0.5
v 1.5 6 0.5
v 2.5 3 0.5
v 2.5 7 0.5
v 4.5 1 0.5
v 4.5 9 0.5
v 5.5 0 0.5
v 5.5 10 0.5
f -28/5/3 -29/5/3 -30/5/3
f -27/5/3 -29/5/3 -28/5/3
f -26/1/3 -27/1/3 -28/1/3
f -25/1/3 -27/1/3 -26/1/3
f -24/1/3 -27/1/3 -25/1/3
f -23/1/3 -26/1/3 -28/1/3
f -23/3/3 -25/3/3 -26/3/3
f -22/4/3 -24/4/3 -25/4/3
f -22/3/3 -25/3/3 -23/3/3
f -21/1/3 -27/1/3 -24/1/3
f -21/4/3 -24/4/3 -22/4/3
f -20/4/3 -22/4/3 -23/4/3
f -20/1/3 -23/1/3 -28/1/3
f -19/4/3 -22/4/3 -20/4/3
f -18/4/3 -22/4/3 -19/4/3
f -17/2/3 -21/2/3 -22/2/3
f -17/4/3 -22/4/3 -18/4/3
f -16/1/3 -27/1/3 -21/1/3
f -16/2/3 -21/2/3 -17/2/3
f -15/1/3 -20/1/3 -28/1/3
f -15/2/3 -19/2/3 -20/2/3
f -14/4/3 -18/4/3 -19/4/3
f -14/2/3 -19/2/3 -15/2/3
f -13/2/3 -17/2/3 -18/2/3
f -13/4/3 -18/4/3 -14/4/3
f -12/4/3 -16/4/3 -17/4/3
f -12/2/3 -17/2/3 -13/2/3
f -11/1/3 -27/1/3 -16/1/3
f -11/4/3 -16/4/3 -12/4/3
f -10/4/3 -14/4/3 -15/4/3
f -10/1/3 -15/1/3 -28/1/3
f -9/2/3 -13/2/3 -14/2/3
f -9/4/3 -14/4/3 -10/4/3
f -8/4/3 -12/4/3 -13/4/3
f -8/2/3 -13/2/3 -9/2/3
f -7/2/3 -11/2/3 -12/2/3
f -7/4/3 -12/4/3 -8/4/3
f -6/2/3 -8/2/3 -9/2/3
f -6/2/3 -9/2/3 -10/2/3
f -6/2/3 -7/2/3 -8/2/3
f -6/1/3 -10/1/3 -28/1/3
f -5/1/3 -27/1/3 -11/1/3
f -5/2/3 -7/2/3 -6/2/3
f -5/2/3 -11/2/3 -7/2/3
f -4/5/3 -28/5/3 -30/5/3
f -4/1/3 -6/1/3 -28/1/3
f -4/1/3 -5/1/3 -6/1/3
f -3/1/3 -27/1/3 -5/1/3
f -3/1/3 -5/1/3 -4/1/3
f -3/5/3 -29/5/3 -27/5/3
f -2/5/3 -4/5/3 -30/5/3
f -2/5/3 -3/5/3 -4/5/3
f -1/5/3 -29/5/3 -3/5/3
f -1/5/3 -3/5/3 -2/5/3
v -5.5 0 -0.5
v -5.5 10 -0.5
v -4.5 1 -0.5
v -4.5 9 -0.5
v -2.5 3 -0.5
v -2.5 6 -0.5
v -2.5 7 -0.5
v -1.5 3 -0.5
v -1.5 6 -0.5
v -1.5 7 -0.5
v -0.5 3 -0.5
v -0.5 4 -0.5
v -0.5 5 -0.5
v -0.5 6 -0.5
v -0.5 7 -0.5
v 0.5 3 -0.5
v 0.5 4 -0.5
v 0.5 5 -0.5
v 0.5 6 -0.5
v 0.5 7 -0.5
v 1.5 3 -0.5
v 1.5 4 -0.5
v 1.5 5 -0.5
v 1.5 6 -0.5
v 2.5 3 -0.5
v 2.5 7 -0.5
v 4.5 1 -0.5
v 4.5 9 -0.5
v 5.5 0 -0.5
v 5.5 10 -0.5
f -30/5/4 -29/5/4 -28/5/4
f -28/5/4 -29/5/4 -27/5/4
f -28/1/4 -27/1/4 -26/1/4
f -26/1/4 -27/1/4 -25/1/4
f -25/1/4 -27/1/4 -24/1/4
f -28/1/4 -26/1/4 -23/1/4
f -26/3/4 -25/3/4 -23/3/4
f -25/4/4 -24/4/4 -22/4/4
f -23/3/4 -25/3/4 -22/3/4
f -24/1/4 -27/1/4 -21/1/4
f -22/4/4 -24/4/4 -21/4/4
f -23/4/4 -22/4/4 -20/4/4
f -28/1/4 -23/1/4 -20/1/4
f -20/4/4 -22/4/4 -19/4/4
f -19/4/4 -22/4/4 -18/4/4
f -22/2/4 -21/2/4 -17/2/4
f -18/4/4 -22/4/4 -17/4/4
f -21/1/4 -27/1/4 -16/1/4
f -17/2/4 -21/2/4 -16/2/4
f -28/1/4 -20/1/4 -15/1/4
f -20/2/4 -19/2/4 -15/2/4
f -19/4/4 -18/4/4 -14/4/4
f -15/2/4 -19/2/4 -14/2/4
f -18/2/4 -17/2/4 -13/2/4
f -14/4/4 -18/4/4 -13/4/4
f -17/4/4 -16/4/4 -12/4/4
f -13/2/4 -17/2/4 -12/2/4
f -16/1/4 -27/1/4 -11/1/4
f -12/4/4 -16/4/4 -11/4/4
f -15/4/4 -14/4/4 -10/4/4
f -28/1/4 -15/1/4 -10/1/4
f -14/2/4 -13/2/4 -9/2/4
f -10/4/4 -14/4/4 -9/4/4
f -13/4/4 -12/4/4 -8/4/4
f -9/2/4 -13/2/4 -8/2/4
f -12/2/4 -11/2/4 -7/2/4
f -8/4/4 -12/4/4 -7/4/4
f -9/2/4 -8/2/4 -6/2/4
f -10/2/4 -9/2/4 -6/2/4
f -8/2/4 -7/2/4 -6/2/4
f -28/1/4 -10/1/4 -6/1/4
f -11/1/4 -27/1/4 -5/1/4
f -6/2/4 -7/2/4 -5/2/4
f -7/2/4 -11/2/4 -5/2/4
f -30/5/4 -28/5/4 -4/5/4
f -28/1/4 -6/1/4 -4/1/4
f -6/1/4 -5/1/4 -4/1/4
f -5/1/4 -27/1/4 -3/1/4
f -4/1/4 -5/1/4 -3/1/4
f -27/5/4 -29/5/4 -3/5/4
f -30/5/4 -4/5/4 -2/5/4
f -4/5/4 -3/5/4 -2/5/4
f -3/5/4 -29/5/4 -1/5/4
f -2/5/4 -3/5/4 -1/5/4
v -5.5 0 0.5
v 5.5 0 0.5
v -5.5 0 -0.5
v 5.5 0 -0.5
f -2/5/5 -3/5/5 -4/5/5
f -1/5/5 -3/5/5 -2/5/5
v -5.5 10 0.5
v 5.5 10 0.5
v -5.5 10 -0.5
v 5.5 10 -0.5
f -4/5/6 -3/5/6 -2/5/6
f -2/5/6 -3/5/6 -1/5/6
