# MagicaVoxel @ ephtracy

# material
mtllib Computer Desk Activated.mtl
usemtl palette

# normals
vn -1 0 0
vn 1 0 0
vn 0 0 1
vn 0 0 -1
vn 0 -1 0
vn 0 1 0

# texcoords
vt 0.154297 0.5
vt 0.337891 0.5
vt 0.505859 0.5
vt 0.513672 0.5
vt 0.677734 0.5
vt 0.912109 0.5
vt 0.990234 0.5

# verts and faces
v -4 0 13
v -4 0 12
v -4 1 13
v -4 1 12
v -4 8 13
v -4 8 12
v -4 8 10
v -4 8 -12
v -4 8 -13
v -4 9 13
v -4 9 10
v -4 9 -12
v -4 9 -13
f -11/3/1 -12/3/1 -13/3/1
f -10/3/1 -12/3/1 -11/3/1
f -9/2/1 -10/2/1 -11/2/1
f -8/2/1 -10/2/1 -9/2/1
f -4/3/1 -8/3/1 -9/3/1
f -4/3/1 -7/3/1 -8/3/1
f -3/2/1 -6/2/1 -7/2/1
f -3/3/1 -7/3/1 -4/3/1
f -2/1/1 -5/1/1 -6/1/1
f -2/2/1 -6/2/1 -3/2/1
f -1/1/1 -5/1/1 -2/1/1
v 4 0 13
v 4 0 12
v 4 8 13
v 4 8 12
v 4 8 -13
v 4 9 13
v 4 9 -13
f -7/3/2 -6/3/2 -5/3/2
f -5/3/2 -6/3/2 -4/3/2
f -5/1/2 -4/1/2 -2/1/2
f -4/1/2 -3/1/2 -2/1/2
f -2/1/2 -3/1/2 -1/1/2
v -4 0 13
v -4 1 13
v -4 8 13
v -4 9 13
v 3 1 13
v 3 8 13
v 3 9 13
v 4 0 13
v 4 8 13
v 4 9 13
f -6/3/3 -9/3/3 -10/3/3
f -6/2/3 -8/2/3 -9/2/3
f -5/3/3 -7/3/3 -8/3/3
f -5/2/3 -8/2/3 -6/2/3
f -4/3/3 -7/3/3 -5/3/3
f -3/3/3 -6/3/3 -10/3/3
f -3/3/3 -5/3/3 -6/3/3
f -2/1/3 -4/1/3 -5/1/3
f -2/3/3 -5/3/3 -3/3/3
f -1/1/3 -4/1/3 -2/1/3
v -4 0 12
v -4 1 12
v -4 8 12
v 3 1 12
v 3 8 12
v 4 0 12
v 4 8 12
f -7/3/4 -6/3/4 -4/3/4
f -6/2/4 -5/2/4 -4/2/4
f -4/2/4 -5/2/4 -3/2/4
f -7/3/4 -4/3/4 -2/3/4
f -4/3/4 -3/3/4 -2/3/4
f -2/3/4 -3/3/4 -1/3/4
v -4 8 -13
v -4 9 -13
v 4 8 -13
v 4 9 -13
f -4/1/4 -3/1/4 -2/1/4
f -2/1/4 -3/1/4 -1/1/4
v -4 0 13
v 4 0 13
v -4 0 12
v 4 0 12
f -2/3/5 -3/3/5 -4/3/5
f -1/3/5 -3/3/5 -2/3/5
v -4 8 12
v 3 8 12
v 4 8 12
v -4 8 10
v -2 8 10
v -2 8 6
v 1 8 6
v -1 8 5
v 0 8 5
v -1 8 4
v 0 8 4
v 1 8 2
v 3 8 2
v -1 8 1
v 0 8 1
v -1 8 -3
v 0 8 -3
v -1 8 -6
v 0 8 -6
v -1 8 -7
v 0 8 -7
v -2 8 -8
v 1 8 -8
v -4 8 -12
v 3 8 -12
v -4 8 -13
v 4 8 -13
f -24/3/5 -26/3/5 -27/3/5
f -23/3/5 -26/3/5 -24/3/5
f -22/2/5 -23/2/5 -24/2/5
f -22/3/5 -26/3/5 -23/3/5
f -21/3/5 -26/3/5 -22/3/5
f -20/7/5 -21/7/5 -22/7/5
f -19/7/5 -21/7/5 -20/7/5
f -18/7/5 -20/7/5 -22/7/5
f -18/6/5 -19/6/5 -20/6/5
f -17/7/5 -21/7/5 -19/7/5
f -17/6/5 -19/6/5 -18/6/5
f -16/3/5 -26/3/5 -21/3/5
f -16/7/5 -21/7/5 -17/7/5
f -15/1/5 -25/1/5 -26/1/5
f -15/3/5 -26/3/5 -16/3/5
f -14/5/5 -17/5/5 -18/5/5
f -14/7/5 -18/7/5 -22/7/5
f -13/7/5 -16/7/5 -17/7/5
f -13/5/5 -17/5/5 -14/5/5
f -12/7/5 -14/7/5 -22/7/5
f -12/4/5 -13/4/5 -14/4/5
f -11/7/5 -16/7/5 -13/7/5
f -11/4/5 -13/4/5 -12/4/5
f -10/7/5 -12/7/5 -22/7/5
f -10/5/5 -11/5/5 -12/5/5
f -9/7/5 -16/7/5 -11/7/5
f -9/5/5 -11/5/5 -10/5/5
f -8/7/5 -10/7/5 -22/7/5
f -8/6/5 -9/6/5 -10/6/5
f -7/7/5 -16/7/5 -9/7/5
f -7/6/5 -9/6/5 -8/6/5
f -6/7/5 -8/7/5 -22/7/5
f -6/2/5 -22/2/5 -24/2/5
f -6/7/5 -7/7/5 -8/7/5
f -5/7/5 -16/7/5 -7/7/5
f -5/7/5 -7/7/5 -6/7/5
f -5/2/5 -15/2/5 -16/2/5
f -4/2/5 -6/2/5 -24/2/5
f -4/2/5 -5/2/5 -6/2/5
f -3/2/5 -15/2/5 -5/2/5
f -3/2/5 -5/2/5 -4/2/5
f -3/1/5 -25/1/5 -15/1/5
f -2/1/5 -3/1/5 -4/1/5
f -1/1/5 -25/1/5 -3/1/5
f -1/1/5 -3/1/5 -2/1/5
v -4 9 13
v 3 9 13
v 4 9 13
v -4 9 10
v -2 9 10
v -2 9 6
v 1 9 6
v -1 9 5
v 0 9 5
v -1 9 4
v 0 9 4
v 1 9 2
v 3 9 2
v -1 9 1
v 0 9 1
v -1 9 -3
v 0 9 -3
v -1 9 -6
v 0 9 -6
v -1 9 -7
v 0 9 -7
v -2 9 -8
v 1 9 -8
v -4 9 -12
v 3 9 -12
v -4 9 -13
v 4 9 -13
f -27/3/6 -26/3/6 -24/3/6
f -24/3/6 -26/3/6 -23/3/6
f -24/2/6 -23/2/6 -22/2/6
f -23/3/6 -26/3/6 -22/3/6
f -22/3/6 -26/3/6 -21/3/6
f -22/7/6 -21/7/6 -20/7/6
f -20/7/6 -21/7/6 -19/7/6
f -22/7/6 -20/7/6 -18/7/6
f -20/6/6 -19/6/6 -18/6/6
f -19/7/6 -21/7/6 -17/7/6
f -18/6/6 -19/6/6 -17/6/6
f -21/3/6 -26/3/6 -16/3/6
f -17/7/6 -21/7/6 -16/7/6
f -26/1/6 -25/1/6 -15/1/6
f -16/3/6 -26/3/6 -15/3/6
f -18/5/6 -17/5/6 -14/5/6
f -22/7/6 -18/7/6 -14/7/6
f -17/7/6 -16/7/6 -13/7/6
f -14/5/6 -17/5/6 -13/5/6
f -22/7/6 -14/7/6 -12/7/6
f -14/4/6 -13/4/6 -12/4/6
f -13/7/6 -16/7/6 -11/7/6
f -12/4/6 -13/4/6 -11/4/6
f -22/7/6 -12/7/6 -10/7/6
f -12/5/6 -11/5/6 -10/5/6
f -11/7/6 -16/7/6 -9/7/6
f -10/5/6 -11/5/6 -9/5/6
f -22/7/6 -10/7/6 -8/7/6
f -10/6/6 -9/6/6 -8/6/6
f -9/7/6 -16/7/6 -7/7/6
f -8/6/6 -9/6/6 -7/6/6
f -22/7/6 -8/7/6 -6/7/6
f -24/2/6 -22/2/6 -6/2/6
f -8/7/6 -7/7/6 -6/7/6
f -7/7/6 -16/7/6 -5/7/6
f -6/7/6 -7/7/6 -5/7/6
f -16/2/6 -15/2/6 -5/2/6
f -24/2/6 -6/2/6 -4/2/6
f -6/2/6 -5/2/6 -4/2/6
f -5/2/6 -15/2/6 -3/2/6
f -4/2/6 -5/2/6 -3/2/6
f -15/1/6 -25/1/6 -3/1/6
f -4/1/6 -3/1/6 -2/1/6
f -3/1/6 -25/1/6 -1/1/6
f -2/1/6 -3/1/6 -1/1/6
