# MagicaVoxel @ ephtracy

# material
mtllib Desk Lamp 5.mtl
usemtl palette

# normals
vn -1 0 0
vn 1 0 0
vn 0 0 1
vn 0 0 -1
vn 0 -1 0
vn 0 1 0

# texcoords
vt 0.0332031 0.5
vt 0.505859 0.5
vt 0.509766 0.5
vt 0.974609 0.5
vt 0.982422 0.5

# verts and faces
v -3.5 8 4
v -3.5 8 3
v -3.5 11 4
v -3.5 11 3
f -2/3/1 -3/3/1 -4/3/1
f -1/3/1 -3/3/1 -2/3/1
v -2.5 0 -2
v -2.5 0 -5
v -2.5 1 -2
v -2.5 1 -5
v -2.5 7 4
v -2.5 7 3
v -2.5 8 5
v -2.5 8 4
v -2.5 8 3
v -2.5 8 2
v -2.5 11 5
v -2.5 11 4
v -2.5 11 3
v -2.5 11 2
v -2.5 12 4
v -2.5 12 3
f -14/3/1 -15/3/1 -16/3/1
f -13/3/1 -15/3/1 -14/3/1
f -9/3/1 -11/3/1 -12/3/1
f -8/3/1 -11/3/1 -9/3/1
f -6/3/1 -9/3/1 -10/3/1
f -5/3/1 -9/3/1 -6/3/1
f -4/3/1 -7/3/1 -8/3/1
f -3/3/1 -7/3/1 -4/3/1
f -2/3/1 -4/3/1 -5/3/1
f -1/3/1 -4/3/1 -2/3/1
v -1.5 7 5
v -1.5 7 4
v -1.5 7 3
v -1.5 7 2
v -1.5 8 5
v -1.5 8 4
v -1.5 8 3
v -1.5 8 2
v -1.5 8 -1
v -1.5 9 -0
v -1.5 9 -1
v -1.5 11 5
v -1.5 11 4
v -1.5 11 3
v -1.5 11 2
v -1.5 11 -0
v -1.5 12 5
v -1.5 12 4
v -1.5 12 3
v -1.5 12 2
f -16/3/1 -19/3/1 -20/3/1
f -15/3/1 -19/3/1 -16/3/1
f -14/3/1 -17/3/1 -18/3/1
f -13/3/1 -17/3/1 -14/3/1
f -11/3/1 -12/3/1 -13/3/1
f -10/3/1 -12/3/1 -11/3/1
f -6/3/1 -11/3/1 -13/3/1
f -5/3/1 -11/3/1 -6/3/1
f -4/3/1 -8/3/1 -9/3/1
f -3/3/1 -8/3/1 -4/3/1
f -2/3/1 -6/3/1 -7/3/1
f -1/3/1 -6/3/1 -2/3/1
v -0.5 1 -3
v -0.5 1 -4
v -0.5 2 -3
v -0.5 2 -4
v -0.5 5 -4
v -0.5 5 -5
v -0.5 6 1
v -0.5 6 -0
v -0.5 6 -3
v -0.5 6 -4
v -0.5 6 -5
v -0.5 7 1
v -0.5 7 -0
v -0.5 7 -3
v -0.5 7 -4
v -0.5 8 1
v -0.5 8 -0
v -0.5 9 5
v -0.5 9 3
v -0.5 9 2
v -0.5 9 -0
v -0.5 9 -1
v -0.5 10 5
v -0.5 10 3
v -0.5 10 2
v -0.5 10 -0
v -0.5 10 -1
f -25/3/1 -26/3/1 -27/3/1
f -24/3/1 -26/3/1 -25/3/1
f -23/2/1 -24/2/1 -25/2/1
f -19/2/1 -23/2/1 -25/2/1
f -18/3/1 -22/3/1 -23/3/1
f -18/2/1 -23/2/1 -19/2/1
f -17/3/1 -22/3/1 -18/3/1
f -16/4/1 -20/4/1 -21/4/1
f -15/2/1 -19/2/1 -20/2/1
f -15/4/1 -20/4/1 -16/4/1
f -14/4/1 -18/4/1 -19/4/1
f -14/2/1 -19/2/1 -15/2/1
f -13/4/1 -18/4/1 -14/4/1
f -12/2/1 -15/2/1 -16/2/1
f -11/2/1 -15/2/1 -12/2/1
f -5/1/1 -9/1/1 -10/1/1
f -4/5/1 -8/5/1 -9/5/1
f -4/1/1 -9/1/1 -5/1/1
f -3/5/1 -8/5/1 -4/5/1
f -2/3/1 -6/3/1 -7/3/1
f -1/3/1 -6/3/1 -2/3/1
v 0.5 8 -0
v 0.5 8 -1
v 0.5 9 -0
v 0.5 9 -1
f -2/3/1 -3/3/1 -4/3/1
f -1/3/1 -3/3/1 -2/3/1
v 1.5 8 5
v 1.5 8 2
v 1.5 11 5
v 1.5 11 2
f -2/3/1 -3/3/1 -4/3/1
f -1/3/1 -3/3/1 -2/3/1
v -1.5 8 5
v -1.5 8 2
v -1.5 11 5
v -1.5 11 2
f -4/3/2 -3/3/2 -2/3/2
f -2/3/2 -3/3/2 -1/3/2
v -0.5 8 -0
v -0.5 8 -1
v -0.5 9 -0
v -0.5 9 -1
f -4/3/2 -3/3/2 -2/3/2
f -2/3/2 -3/3/2 -1/3/2
v 0.5 1 -3
v 0.5 1 -4
v 0.5 2 -3
v 0.5 2 -4
v 0.5 5 -4
v 0.5 5 -5
v 0.5 6 1
v 0.5 6 -0
v 0.5 6 -3
v 0.5 6 -4
v 0.5 6 -5
v 0.5 7 1
v 0.5 7 -0
v 0.5 7 -3
v 0.5 7 -4
v 0.5 8 1
v 0.5 8 -0
v 0.5 9 5
v 0.5 9 3
v 0.5 9 2
v 0.5 9 -0
v 0.5 9 -1
v 0.5 10 5
v 0.5 10 3
v 0.5 10 2
v 0.5 10 -0
v 0.5 10 -1
f -27/3/2 -26/3/2 -25/3/2
f -25/3/2 -26/3/2 -24/3/2
f -25/2/2 -24/2/2 -23/2/2
f -25/2/2 -23/2/2 -19/2/2
f -23/3/2 -22/3/2 -18/3/2
f -19/2/2 -23/2/2 -18/2/2
f -18/3/2 -22/3/2 -17/3/2
f -21/4/2 -20/4/2 -16/4/2
f -20/2/2 -19/2/2 -15/2/2
f -16/4/2 -20/4/2 -15/4/2
f -19/4/2 -18/4/2 -14/4/2
f -15/2/2 -19/2/2 -14/2/2
f -14/4/2 -18/4/2 -13/4/2
f -16/2/2 -15/2/2 -12/2/2
f -12/2/2 -15/2/2 -11/2/2
f -10/1/2 -9/1/2 -5/1/2
f -9/5/2 -8/5/2 -4/5/2
f -5/1/2 -9/1/2 -4/1/2
f -4/5/2 -8/5/2 -3/5/2
f -7/3/2 -6/3/2 -2/3/2
f -2/3/2 -6/3/2 -1/3/2
v 1.5 7 5
v 1.5 7 4
v 1.5 7 3
v 1.5 7 2
v 1.5 8 5
v 1.5 8 4
v 1.5 8 3
v 1.5 8 2
v 1.5 8 -1
v 1.5 9 -0
v 1.5 9 -1
v 1.5 11 5
v 1.5 11 4
v 1.5 11 3
v 1.5 11 2
v 1.5 11 -0
v 1.5 12 5
v 1.5 12 4
v 1.5 12 3
v 1.5 12 2
f -20/3/2 -19/3/2 -16/3/2
f -16/3/2 -19/3/2 -15/3/2
f -18/3/2 -17/3/2 -14/3/2
f -14/3/2 -17/3/2 -13/3/2
f -13/3/2 -12/3/2 -11/3/2
f -11/3/2 -12/3/2 -10/3/2
f -13/3/2 -11/3/2 -6/3/2
f -6/3/2 -11/3/2 -5/3/2
f -9/3/2 -8/3/2 -4/3/2
f -4/3/2 -8/3/2 -3/3/2
f -7/3/2 -6/3/2 -2/3/2
f -2/3/2 -6/3/2 -1/3/2
v 2.5 0 -2
v 2.5 0 -5
v 2.5 1 -2
v 2.5 1 -5
v 2.5 7 4
v 2.5 7 3
v 2.5 8 5
v 2.5 8 4
v 2.5 8 3
v 2.5 8 2
v 2.5 11 5
v 2.5 11 4
v 2.5 11 3
v 2.5 11 2
v 2.5 12 4
v 2.5 12 3
f -16/3/2 -15/3/2 -14/3/2
f -14/3/2 -15/3/2 -13/3/2
f -12/3/2 -11/3/2 -9/3/2
f -9/3/2 -11/3/2 -8/3/2
f -10/3/2 -9/3/2 -6/3/2
f -6/3/2 -9/3/2 -5/3/2
f -8/3/2 -7/3/2 -4/3/2
f -4/3/2 -7/3/2 -3/3/2
f -5/3/2 -4/3/2 -2/3/2
f -2/3/2 -4/3/2 -1/3/2
v 3.5 8 4
v 3.5 8 3
v 3.5 11 4
v 3.5 11 3
f -4/3/2 -3/3/2 -2/3/2
f -2/3/2 -3/3/2 -1/3/2
v -2.5 8 5
v -2.5 11 5
v -1.5 7 5
v -1.5 8 5
v -1.5 11 5
v -1.5 12 5
v -0.5 9 5
v -0.5 10 5
v 0.5 9 5
v 0.5 10 5
v 1.5 7 5
v 1.5 8 5
v 1.5 11 5
v 1.5 12 5
v 2.5 8 5
v 2.5 11 5
f -13/3/3 -15/3/3 -16/3/3
f -12/3/3 -15/3/3 -13/3/3
f -8/1/3 -9/1/3 -10/1/3
f -7/1/3 -9/1/3 -8/1/3
f -6/3/3 -13/3/3 -14/3/3
f -5/3/3 -13/3/3 -6/3/3
f -4/3/3 -11/3/3 -12/3/3
f -3/3/3 -11/3/3 -4/3/3
f -2/3/3 -4/3/3 -5/3/3
f -1/3/3 -4/3/3 -2/3/3
v -3.5 8 4
v -3.5 11 4
v -2.5 7 4
v -2.5 8 4
v -2.5 11 4
v -2.5 12 4
v -1.5 7 4
v -1.5 8 4
v -1.5 11 4
v -1.5 12 4
v 1.5 7 4
v 1.5 8 4
v 1.5 11 4
v 1.5 12 4
v 2.5 7 4
v 2.5 8 4
v 2.5 11 4
v 2.5 12 4
v 3.5 8 4
v 3.5 11 4
f -17/3/3 -19/3/3 -20/3/3
f -16/3/3 -19/3/3 -17/3/3
f -14/3/3 -17/3/3 -18/3/3
f -13/3/3 -17/3/3 -14/3/3
f -12/3/3 -15/3/3 -16/3/3
f -11/3/3 -15/3/3 -12/3/3
f -6/3/3 -9/3/3 -10/3/3
f -5/3/3 -9/3/3 -6/3/3
f -4/3/3 -7/3/3 -8/3/3
f -3/3/3 -7/3/3 -4/3/3
f -2/3/3 -4/3/3 -5/3/3
f -1/3/3 -4/3/3 -2/3/3
v -1.5 8 2
v -1.5 11 2
v -0.5 9 2
v -0.5 10 2
v 0.5 9 2
v 0.5 10 2
v 1.5 8 2
v 1.5 11 2
f -6/3/3 -7/3/3 -8/3/3
f -5/3/3 -7/3/3 -6/3/3
f -4/3/3 -6/3/3 -8/3/3
f -3/3/3 -7/3/3 -5/3/3
f -2/3/3 -4/3/3 -8/3/3
f -2/3/3 -3/3/3 -4/3/3
f -1/3/3 -7/3/3 -3/3/3
f -1/3/3 -3/3/3 -2/3/3
v -0.5 6 1
v -0.5 7 1
v -0.5 8 1
v 0.5 6 1
v 0.5 7 1
v 0.5 8 1
f -3/4/3 -5/4/3 -6/4/3
f -2/2/3 -4/2/3 -5/2/3
f -2/4/3 -5/4/3 -3/4/3
f -1/2/3 -4/2/3 -2/2/3
v -2.5 0 -2
v -2.5 1 -2
v 2.5 0 -2
v 2.5 1 -2
f -2/3/3 -3/3/3 -4/3/3
f -1/3/3 -3/3/3 -2/3/3
v -0.5 1 -3
v -0.5 2 -3
v -0.5 6 -3
v 0.5 1 -3
v 0.5 2 -3
v 0.5 6 -3
f -3/3/3 -5/3/3 -6/3/3
f -2/2/3 -4/2/3 -5/2/3
f -2/3/3 -5/3/3 -3/3/3
f -1/2/3 -4/2/3 -2/2/3
v -3.5 8 3
v -3.5 11 3
v -2.5 7 3
v -2.5 8 3
v -2.5 11 3
v -2.5 12 3
v -1.5 7 3
v -1.5 8 3
v -1.5 11 3
v -1.5 12 3
v 1.5 7 3
v 1.5 8 3
v 1.5 11 3
v 1.5 12 3
v 2.5 7 3
v 2.5 8 3
v 2.5 11 3
v 2.5 12 3
v 3.5 8 3
v 3.5 11 3
f -20/3/4 -19/3/4 -17/3/4
f -17/3/4 -19/3/4 -16/3/4
f -18/3/4 -17/3/4 -14/3/4
f -14/3/4 -17/3/4 -13/3/4
f -16/3/4 -15/3/4 -12/3/4
f -12/3/4 -15/3/4 -11/3/4
f -10/3/4 -9/3/4 -6/3/4
f -6/3/4 -9/3/4 -5/3/4
f -8/3/4 -7/3/4 -4/3/4
f -4/3/4 -7/3/4 -3/3/4
f -5/3/4 -4/3/4 -2/3/4
f -2/3/4 -4/3/4 -1/3/4
v -2.5 8 2
v -2.5 11 2
v -1.5 7 2
v -1.5 8 2
v -1.5 11 2
v -1.5 12 2
v 1.5 7 2
v 1.5 8 2
v 1.5 11 2
v 1.5 12 2
v 2.5 8 2
v 2.5 11 2
f -12/3/4 -11/3/4 -9/3/4
f -9/3/4 -11/3/4 -8/3/4
f -10/3/4 -9/3/4 -6/3/4
f -6/3/4 -9/3/4 -5/3/4
f -8/3/4 -7/3/4 -4/3/4
f -4/3/4 -7/3/4 -3/3/4
f -5/3/4 -4/3/4 -2/3/4
f -2/3/4 -4/3/4 -1/3/4
v -1.5 9 -0
v -1.5 11 -0
v -0.5 7 -0
v -0.5 8 -0
v -0.5 9 -0
v -0.5 10 -0
v 0.5 7 -0
v 0.5 8 -0
v 0.5 9 -0
v 0.5 10 -0
v 1.5 9 -0
v 1.5 11 -0
f -12/3/4 -11/3/4 -8/3/4
f -8/3/4 -11/3/4 -7/3/4
f -10/2/4 -9/2/4 -6/2/4
f -9/2/4 -8/2/4 -6/2/4
f -6/2/4 -8/2/4 -5/2/4
f -5/2/4 -8/2/4 -4/2/4
f -7/3/4 -11/3/4 -3/3/4
f -4/3/4 -3/3/4 -2/3/4
f -3/3/4 -11/3/4 -1/3/4
f -2/3/4 -3/3/4 -1/3/4
v -1.5 8 -1
v -1.5 9 -1
v -0.5 8 -1
v -0.5 9 -1
v -0.5 10 -1
v 0.5 8 -1
v 0.5 9 -1
v 0.5 10 -1
v 1.5 8 -1
v 1.5 9 -1
f -10/3/4 -9/3/4 -8/3/4
f -8/3/4 -9/3/4 -7/3/4
f -7/3/4 -6/3/4 -4/3/4
f -4/3/4 -6/3/4 -3/3/4
f -5/3/4 -4/3/4 -2/3/4
f -2/3/4 -4/3/4 -1/3/4
v -0.5 1 -4
v -0.5 2 -4
v -0.5 5 -4
v -0.5 6 -4
v -0.5 7 -4
v 0.5 1 -4
v 0.5 2 -4
v 0.5 5 -4
v 0.5 6 -4
v 0.5 7 -4
f -10/3/4 -9/3/4 -5/3/4
f -9/2/4 -8/2/4 -4/2/4
f -5/3/4 -9/3/4 -4/3/4
f -4/2/4 -8/2/4 -3/2/4
f -7/4/4 -6/4/4 -2/4/4
f -2/4/4 -6/4/4 -1/4/4
v -2.5 0 -5
v -2.5 1 -5
v -0.5 5 -5
v -0.5 6 -5
v 0.5 5 -5
v 0.5 6 -5
v 2.5 0 -5
v 2.5 1 -5
f -6/3/4 -5/3/4 -4/3/4
f -4/3/4 -5/3/4 -3/3/4
f -8/3/4 -7/3/4 -2/3/4
f -2/3/4 -7/3/4 -1/3/4
v -2.5 0 -2
v 2.5 0 -2
v -2.5 0 -5
v 2.5 0 -5
f -2/3/5 -3/3/5 -4/3/5
f -1/3/5 -3/3/5 -2/3/5
v -0.5 5 -4
v 0.5 5 -4
v -0.5 5 -5
v 0.5 5 -5
f -2/3/5 -3/3/5 -4/3/5
f -1/3/5 -3/3/5 -2/3/5
v -0.5 6 1
v 0.5 6 1
v -0.5 6 -0
v 0.5 6 -0
v -0.5 6 -3
v 0.5 6 -3
f -4/4/5 -5/4/5 -6/4/5
f -3/4/5 -5/4/5 -4/4/5
f -2/2/5 -3/2/5 -4/2/5
f -1/2/5 -3/2/5 -2/2/5
v -1.5 7 5
v 1.5 7 5
v -2.5 7 4
v -1.5 7 4
v 1.5 7 4
v 2.5 7 4
v -2.5 7 3
v -1.5 7 3
v 1.5 7 3
v 2.5 7 3
v -1.5 7 2
v 1.5 7 2
f -9/3/5 -11/3/5 -12/3/5
f -8/3/5 -11/3/5 -9/3/5
f -6/3/5 -9/3/5 -10/3/5
f -6/3/5 -7/3/5 -8/3/5
f -6/3/5 -8/3/5 -9/3/5
f -5/3/5 -7/3/5 -6/3/5
f -4/3/5 -7/3/5 -5/3/5
f -3/3/5 -7/3/5 -4/3/5
f -2/3/5 -4/3/5 -5/3/5
f -1/3/5 -4/3/5 -2/3/5
v -2.5 8 5
v -1.5 8 5
v 1.5 8 5
v 2.5 8 5
v -3.5 8 4
v -2.5 8 4
v -1.5 8 4
v 1.5 8 4
v 2.5 8 4
v 3.5 8 4
v -3.5 8 3
v -2.5 8 3
v -1.5 8 3
v 1.5 8 3
v 2.5 8 3
v 3.5 8 3
v -2.5 8 2
v -1.5 8 2
v 1.5 8 2
v 2.5 8 2
v -0.5 8 1
v 0.5 8 1
v -0.5 8 -0
v 0.5 8 -0
v -1.5 8 -1
v -0.5 8 -1
v 0.5 8 -1
v 1.5 8 -1
f -23/3/5 -27/3/5 -28/3/5
f -22/3/5 -27/3/5 -23/3/5
f -21/3/5 -25/3/5 -26/3/5
f -20/3/5 -25/3/5 -21/3/5
f -18/3/5 -23/3/5 -24/3/5
f -17/3/5 -23/3/5 -18/3/5
f -14/3/5 -19/3/5 -20/3/5
f -13/3/5 -19/3/5 -14/3/5
f -12/3/5 -16/3/5 -17/3/5
f -11/3/5 -16/3/5 -12/3/5
f -10/3/5 -14/3/5 -15/3/5
f -9/3/5 -14/3/5 -10/3/5
f -8/3/5 -10/3/5 -11/3/5
f -7/3/5 -10/3/5 -8/3/5
f -6/3/5 -8/3/5 -11/3/5
f -5/3/5 -10/3/5 -7/3/5
f -4/3/5 -6/3/5 -11/3/5
f -3/3/5 -6/3/5 -4/3/5
f -2/3/5 -10/3/5 -5/3/5
f -1/3/5 -10/3/5 -2/3/5
v -0.5 9 5
v 0.5 9 5
v -0.5 9 3
v 0.5 9 3
v -0.5 9 2
v 0.5 9 2
v -0.5 9 -0
v 0.5 9 -0
v -0.5 9 -1
v 0.5 9 -1
f -8/1/5 -9/1/5 -10/1/5
f -7/1/5 -9/1/5 -8/1/5
f -6/5/5 -7/5/5 -8/5/5
f -5/5/5 -7/5/5 -6/5/5
f -2/3/5 -3/3/5 -4/3/5
f -1/3/5 -3/3/5 -2/3/5
v -1.5 11 5
v 1.5 11 5
v -1.5 11 2
v 1.5 11 2
f -2/3/5 -3/3/5 -4/3/5
f -1/3/5 -3/3/5 -2/3/5
v -2.5 1 -2
v 2.5 1 -2
v -0.5 1 -3
v 0.5 1 -3
v -0.5 1 -4
v 0.5 1 -4
v -2.5 1 -5
v 2.5 1 -5
f -8/3/6 -7/3/6 -6/3/6
f -6/3/6 -7/3/6 -5/3/6
f -8/3/6 -6/3/6 -4/3/6
f -5/3/6 -7/3/6 -3/3/6
f -8/3/6 -4/3/6 -2/3/6
f -4/3/6 -3/3/6 -2/3/6
f -3/3/6 -7/3/6 -1/3/6
f -2/3/6 -3/3/6 -1/3/6
v -0.5 6 -4
v 0.5 6 -4
v -0.5 6 -5
v 0.5 6 -5
f -4/3/6 -3/3/6 -2/3/6
f -2/3/6 -3/3/6 -1/3/6
v -0.5 7 -0
v 0.5 7 -0
v -0.5 7 -3
v 0.5 7 -3
v -0.5 7 -4
v 0.5 7 -4
f -6/2/6 -5/2/6 -4/2/6
f -4/2/6 -5/2/6 -3/2/6
f -4/4/6 -3/4/6 -2/4/6
f -2/4/6 -3/4/6 -1/4/6
v -1.5 8 5
v 1.5 8 5
v -1.5 8 2
v 1.5 8 2
f -4/3/6 -3/3/6 -2/3/6
f -2/3/6 -3/3/6 -1/3/6
v -1.5 9 -0
v -0.5 9 -0
v 0.5 9 -0
v 1.5 9 -0
v -1.5 9 -1
v -0.5 9 -1
v 0.5 9 -1
v 1.5 9 -1
f -8/3/6 -7/3/6 -4/3/6
f -4/3/6 -7/3/6 -3/3/6
f -6/3/6 -5/3/6 -2/3/6
f -2/3/6 -5/3/6 -1/3/6
v -0.5 10 5
v 0.5 10 5
v -0.5 10 3
v 0.5 10 3
v -0.5 10 2
v 0.5 10 2
v -0.5 10 -0
v 0.5 10 -0
v -0.5 10 -1
v 0.5 10 -1
f -10/1/6 -9/1/6 -8/1/6
f -8/1/6 -9/1/6 -7/1/6
f -8/5/6 -7/5/6 -6/5/6
f -6/5/6 -7/5/6 -5/5/6
f -4/3/6 -3/3/6 -2/3/6
f -2/3/6 -3/3/6 -1/3/6
v -2.5 11 5
v -1.5 11 5
v 1.5 11 5
v 2.5 11 5
v -3.5 11 4
v -2.5 11 4
v -1.5 11 4
v 1.5 11 4
v 2.5 11 4
v 3.5 11 4
v -3.5 11 3
v -2.5 11 3
v -1.5 11 3
v 1.5 11 3
v 2.5 11 3
v 3.5 11 3
v -2.5 11 2
v -1.5 11 2
v 1.5 11 2
v 2.5 11 2
v -1.5 11 -0
v 1.5 11 -0
f -22/3/6 -21/3/6 -17/3/6
f -17/3/6 -21/3/6 -16/3/6
f -20/3/6 -19/3/6 -15/3/6
f -15/3/6 -19/3/6 -14/3/6
f -18/3/6 -17/3/6 -12/3/6
f -12/3/6 -17/3/6 -11/3/6
f -14/3/6 -13/3/6 -8/3/6
f -8/3/6 -13/3/6 -7/3/6
f -11/3/6 -10/3/6 -6/3/6
f -6/3/6 -10/3/6 -5/3/6
f -9/3/6 -8/3/6 -4/3/6
f -4/3/6 -8/3/6 -3/3/6
f -5/3/6 -4/3/6 -2/3/6
f -2/3/6 -4/3/6 -1/3/6
v -1.5 12 5
v 1.5 12 5
v -2.5 12 4
v -1.5 12 4
v 1.5 12 4
v 2.5 12 4
v -2.5 12 3
v -1.5 12 3
v 1.5 12 3
v 2.5 12 3
v -1.5 12 2
v 1.5 12 2
f -12/3/6 -11/3/6 -9/3/6
f -9/3/6 -11/3/6 -8/3/6
f -10/3/6 -9/3/6 -6/3/6
f -8/3/6 -7/3/6 -6/3/6
f -9/3/6 -8/3/6 -6/3/6
f -6/3/6 -7/3/6 -5/3/6
f -5/3/6 -7/3/6 -4/3/6
f -4/3/6 -7/3/6 -3/3/6
f -5/3/6 -4/3/6 -2/3/6
f -2/3/6 -4/3/6 -1/3/6
