# MagicaVoxel @ ephtracy

# material
mtllib B&W Pic 1.mtl
usemtl palette

# normals
vn -1 0 0
vn 1 0 0
vn 0 0 1
vn 0 0 -1
vn 0 -1 0
vn 0 1 0

# texcoords
vt 0.958984 0.5
vt 0.966797 0.5
vt 0.974609 0.5
vt 0.982422 0.5
vt 0.986328 0.5
vt 0.990234 0.5
vt 0.994141 0.5

# verts and faces
v -4.5 0 0.5
v -4.5 0 -0.5
v -4.5 8 0.5
v -4.5 8 -0.5
f -2/7/1 -3/7/1 -4/7/1
f -1/7/1 -3/7/1 -2/7/1
v 4.5 0 0.5
v 4.5 0 -0.5
v 4.5 8 0.5
v 4.5 8 -0.5
f -4/7/2 -3/7/2 -2/7/2
f -2/7/2 -3/7/2 -1/7/2
v -4.5 0 0.5
v -4.5 8 0.5
v -3.5 1 0.5
v -3.5 7 0.5
v -2.5 2 0.5
v -2.5 3 0.5
v -2.5 6 0.5
v -1.5 3 0.5
v -1.5 6 0.5
v -0.5 3 0.5
v -0.5 4 0.5
v -0.5 5 0.5
v -0.5 6 0.5
v 0.5 3 0.5
v 0.5 4 0.5
v 0.5 5 0.5
v 0.5 6 0.5
v 1.5 3 0.5
v 1.5 4 0.5
v 1.5 5 0.5
v 1.5 6 0.5
v 2.5 2 0.5
v 2.5 3 0.5
v 2.5 4 0.5
v 2.5 5 0.5
v 2.5 6 0.5
v 3.5 1 0.5
v 3.5 7 0.5
v 4.5 0 0.5
v 4.5 8 0.5
f -28/7/3 -29/7/3 -30/7/3
f -27/7/3 -29/7/3 -28/7/3
f -26/1/3 -27/1/3 -28/1/3
f -25/1/3 -27/1/3 -26/1/3
f -24/1/3 -27/1/3 -25/1/3
f -23/3/3 -25/3/3 -26/3/3
f -23/4/3 -24/4/3 -25/4/3
f -22/1/3 -27/1/3 -24/1/3
f -22/4/3 -24/4/3 -23/4/3
f -21/3/3 -23/3/3 -26/3/3
f -21/5/3 -22/5/3 -23/5/3
f -20/5/3 -22/5/3 -21/5/3
f -19/5/3 -22/5/3 -20/5/3
f -18/1/3 -27/1/3 -22/1/3
f -18/5/3 -22/5/3 -19/5/3
f -17/3/3 -21/3/3 -26/3/3
f -17/6/3 -20/6/3 -21/6/3
f -16/2/3 -19/2/3 -20/2/3
f -16/6/3 -20/6/3 -17/6/3
f -15/6/3 -18/6/3 -19/6/3
f -15/2/3 -19/2/3 -16/2/3
f -14/1/3 -27/1/3 -18/1/3
f -14/6/3 -18/6/3 -15/6/3
f -13/3/3 -17/3/3 -26/3/3
f -13/2/3 -16/2/3 -17/2/3
f -12/6/3 -15/6/3 -16/6/3
f -12/2/3 -16/2/3 -13/2/3
f -11/2/3 -14/2/3 -15/2/3
f -11/6/3 -15/6/3 -12/6/3
f -10/1/3 -27/1/3 -14/1/3
f -10/2/3 -14/2/3 -11/2/3
f -9/1/3 -26/1/3 -28/1/3
f -9/3/3 -13/3/3 -26/3/3
f -8/6/3 -12/6/3 -13/6/3
f -8/3/3 -13/3/3 -9/3/3
f -7/2/3 -11/2/3 -12/2/3
f -7/6/3 -12/6/3 -8/6/3
f -6/6/3 -10/6/3 -11/6/3
f -6/2/3 -11/2/3 -7/2/3
f -5/1/3 -27/1/3 -10/1/3
f -5/6/3 -10/6/3 -6/6/3
f -4/7/3 -28/7/3 -30/7/3
f -4/1/3 -6/1/3 -7/1/3
f -4/1/3 -5/1/3 -6/1/3
f -4/1/3 -9/1/3 -28/1/3
f -4/1/3 -7/1/3 -8/1/3
f -4/1/3 -8/1/3 -9/1/3
f -3/1/3 -27/1/3 -5/1/3
f -3/1/3 -5/1/3 -4/1/3
f -3/7/3 -29/7/3 -27/7/3
f -2/7/3 -4/7/3 -30/7/3
f -2/7/3 -3/7/3 -4/7/3
f -1/7/3 -29/7/3 -3/7/3
f -1/7/3 -3/7/3 -2/7/3
v -4.5 0 -0.5
v -4.5 8 -0.5
v -3.5 1 -0.5
v -3.5 7 -0.5
v -2.5 2 -0.5
v -2.5 3 -0.5
v -2.5 6 -0.5
v -1.5 3 -0.5
v -1.5 6 -0.5
v -0.5 3 -0.5
v -0.5 4 -0.5
v -0.5 5 -0.5
v -0.5 6 -0.5
v 0.5 3 -0.5
v 0.5 4 -0.5
v 0.5 5 -0.5
v 0.5 6 -0.5
v 1.5 3 -0.5
v 1.5 4 -0.5
v 1.5 5 -0.5
v 1.5 6 -0.5
v 2.5 2 -0.5
v 2.5 3 -0.5
v 2.5 4 -0.5
v 2.5 5 -0.5
v 2.5 6 -0.5
v 3.5 1 -0.5
v 3.5 7 -0.5
v 4.5 0 -0.5
v 4.5 8 -0.5
f -30/7/4 -29/7/4 -28/7/4
f -28/7/4 -29/7/4 -27/7/4
f -28/1/4 -27/1/4 -26/1/4
f -26/1/4 -27/1/4 -25/1/4
f -25/1/4 -27/1/4 -24/1/4
f -26/3/4 -25/3/4 -23/3/4
f -25/4/4 -24/4/4 -23/4/4
f -24/1/4 -27/1/4 -22/1/4
f -23/4/4 -24/4/4 -22/4/4
f -26/3/4 -23/3/4 -21/3/4
f -23/5/4 -22/5/4 -21/5/4
f -21/5/4 -22/5/4 -20/5/4
f -20/5/4 -22/5/4 -19/5/4
f -22/1/4 -27/1/4 -18/1/4
f -19/5/4 -22/5/4 -18/5/4
f -26/3/4 -21/3/4 -17/3/4
f -21/6/4 -20/6/4 -17/6/4
f -20/2/4 -19/2/4 -16/2/4
f -17/6/4 -20/6/4 -16/6/4
f -19/6/4 -18/6/4 -15/6/4
f -16/2/4 -19/2/4 -15/2/4
f -18/1/4 -27/1/4 -14/1/4
f -15/6/4 -18/6/4 -14/6/4
f -26/3/4 -17/3/4 -13/3/4
f -17/2/4 -16/2/4 -13/2/4
f -16/6/4 -15/6/4 -12/6/4
f -13/2/4 -16/2/4 -12/2/4
f -15/2/4 -14/2/4 -11/2/4
f -12/6/4 -15/6/4 -11/6/4
f -14/1/4 -27/1/4 -10/1/4
f -11/2/4 -14/2/4 -10/2/4
f -28/1/4 -26/1/4 -9/1/4
f -26/3/4 -13/3/4 -9/3/4
f -13/6/4 -12/6/4 -8/6/4
f -9/3/4 -13/3/4 -8/3/4
f -12/2/4 -11/2/4 -7/2/4
f -8/6/4 -12/6/4 -7/6/4
f -11/6/4 -10/6/4 -6/6/4
f -7/2/4 -11/2/4 -6/2/4
f -10/1/4 -27/1/4 -5/1/4
f -6/6/4 -10/6/4 -5/6/4
f -30/7/4 -28/7/4 -4/7/4
f -7/1/4 -6/1/4 -4/1/4
f -6/1/4 -5/1/4 -4/1/4
f -28/1/4 -9/1/4 -4/1/4
f -8/1/4 -7/1/4 -4/1/4
f -9/1/4 -8/1/4 -4/1/4
f -5/1/4 -27/1/4 -3/1/4
f -4/1/4 -5/1/4 -3/1/4
f -27/7/4 -29/7/4 -3/7/4
f -30/7/4 -4/7/4 -2/7/4
f -4/7/4 -3/7/4 -2/7/4
f -3/7/4 -29/7/4 -1/7/4
f -2/7/4 -3/7/4 -1/7/4
v -4.5 0 0.5
v 4.5 0 0.5
v -4.5 0 -0.5
v 4.5 0 -0.5
f -2/7/5 -3/7/5 -4/7/5
f -1/7/5 -3/7/5 -2/7/5
v -4.5 8 0.5
v 4.5 8 0.5
v -4.5 8 -0.5
v 4.5 8 -0.5
f -4/7/6 -3/7/6 -2/7/6
f -2/7/6 -3/7/6 -1/7/6
