# MagicaVoxel @ ephtracy

# material
mtllib Shower Stall Shower Head.mtl
usemtl palette

# normals
vn -1 0 0
vn 1 0 0
vn 0 0 1
vn 0 0 -1
vn 0 -1 0
vn 0 1 0

# texcoords
vt 0.966797 0.5
vt 0.970703 0.5
vt 0.974609 0.5
vt 0.978516 0.5

# verts and faces
v -3.5 15 0.5
v -3.5 15 -1.5
v -3.5 16 0.5
v -3.5 16 -1.5
f -2/2/1 -3/2/1 -4/2/1
f -1/2/1 -3/2/1 -2/2/1
v 1.5 2 1.5
v 1.5 2 0.5
v 1.5 3 1.5
v 1.5 3 0.5
v 1.5 4 1.5
v 1.5 4 0.5
v 1.5 5 1.5
v 1.5 5 0.5
f -6/2/1 -7/2/1 -8/2/1
f -5/2/1 -7/2/1 -6/2/1
f -4/3/1 -5/3/1 -6/3/1
f -3/3/1 -5/3/1 -4/3/1
f -2/2/1 -3/2/1 -4/2/1
f -1/2/1 -3/2/1 -2/2/1
v 2.5 0 0.5
v 2.5 0 -1.5
v 2.5 2 0.5
v 2.5 3 0.5
v 2.5 4 0.5
v 2.5 5 0.5
v 2.5 15 0.5
v 2.5 15 -1.5
f -6/1/1 -7/1/1 -8/1/1
f -5/1/1 -7/1/1 -6/1/1
f -4/1/1 -7/1/1 -5/1/1
f -3/1/1 -7/1/1 -4/1/1
f -2/1/1 -7/1/1 -3/1/1
f -1/1/1 -7/1/1 -2/1/1
v 3.5 0 0.5
v 3.5 0 -1.5
v 3.5 2 1.5
v 3.5 2 0.5
v 3.5 5 1.5
v 3.5 5 0.5
v 3.5 16 0.5
v 3.5 16 -1.5
f -8/1/2 -7/1/2 -5/1/2
f -6/4/2 -5/4/2 -4/4/2
f -5/1/2 -7/1/2 -3/1/2
f -4/4/2 -5/4/2 -3/4/2
f -3/1/2 -7/1/2 -2/1/2
f -2/1/2 -7/1/2 -1/1/2
v 1.5 2 1.5
v 1.5 3 1.5
v 1.5 4 1.5
v 1.5 5 1.5
v 2.5 2 1.5
v 2.5 3 1.5
v 2.5 4 1.5
v 2.5 5 1.5
v 3.5 2 1.5
v 3.5 5 1.5
f -6/2/3 -9/2/3 -10/2/3
f -5/3/3 -8/3/3 -9/3/3
f -5/2/3 -9/2/3 -6/2/3
f -4/2/3 -7/2/3 -8/2/3
f -4/3/3 -8/3/3 -5/3/3
f -3/2/3 -7/2/3 -4/2/3
f -2/4/3 -5/4/3 -6/4/3
f -2/4/3 -4/4/3 -5/4/3
f -2/4/3 -3/4/3 -4/4/3
f -1/4/3 -3/4/3 -2/4/3
v -3.5 15 0.5
v -3.5 16 0.5
v -2.5 15 0.5
v -2.5 16 0.5
v 2.5 0 0.5
v 2.5 2 0.5
v 2.5 5 0.5
v 2.5 15 0.5
v 3.5 0 0.5
v 3.5 2 0.5
v 3.5 5 0.5
v 3.5 16 0.5
f -10/2/3 -11/2/3 -12/2/3
f -9/2/3 -11/2/3 -10/2/3
f -5/1/3 -9/1/3 -10/1/3
f -4/1/3 -7/1/3 -8/1/3
f -3/1/3 -7/1/3 -4/1/3
f -2/1/3 -5/1/3 -6/1/3
f -1/1/3 -9/1/3 -5/1/3
f -1/1/3 -5/1/3 -2/1/3
v 1.5 2 0.5
v 1.5 3 0.5
v 1.5 4 0.5
v 1.5 5 0.5
v 2.5 2 0.5
v 2.5 3 0.5
v 2.5 4 0.5
v 2.5 5 0.5
f -8/2/4 -7/2/4 -4/2/4
f -7/3/4 -6/3/4 -3/3/4
f -4/2/4 -7/2/4 -3/2/4
f -6/2/4 -5/2/4 -2/2/4
f -3/3/4 -6/3/4 -2/3/4
f -2/2/4 -5/2/4 -1/2/4
v -3.5 15 -1.5
v -3.5 16 -1.5
v -2.5 15 -1.5
v -2.5 16 -1.5
v 2.5 0 -1.5
v 2.5 15 -1.5
v 3.5 0 -1.5
v 3.5 16 -1.5
f -8/2/4 -7/2/4 -6/2/4
f -6/2/4 -7/2/4 -5/2/4
f -6/1/4 -5/1/4 -3/1/4
f -4/1/4 -3/1/4 -2/1/4
f -3/1/4 -5/1/4 -1/1/4
f -2/1/4 -3/1/4 -1/1/4
v 2.5 0 0.5
v 3.5 0 0.5
v 2.5 0 -1.5
v 3.5 0 -1.5
f -2/1/5 -3/1/5 -4/1/5
f -1/1/5 -3/1/5 -2/1/5
v 1.5 2 1.5
v 2.5 2 1.5
v 3.5 2 1.5
v 1.5 2 0.5
v 2.5 2 0.5
v 3.5 2 0.5
f -3/2/5 -5/2/5 -6/2/5
f -2/4/5 -4/4/5 -5/4/5
f -2/2/5 -5/2/5 -3/2/5
f -1/4/5 -4/4/5 -2/4/5
v -3.5 15 0.5
v -2.5 15 0.5
v 2.5 15 0.5
v -3.5 15 -1.5
v -2.5 15 -1.5
v 2.5 15 -1.5
f -3/2/5 -5/2/5 -6/2/5
f -2/1/5 -4/1/5 -5/1/5
f -2/2/5 -5/2/5 -3/2/5
f -1/1/5 -4/1/5 -2/1/5
v 1.5 5 1.5
v 2.5 5 1.5
v 3.5 5 1.5
v 1.5 5 0.5
v 2.5 5 0.5
v 3.5 5 0.5
f -6/2/6 -5/2/6 -3/2/6
f -5/4/6 -4/4/6 -2/4/6
f -3/2/6 -5/2/6 -2/2/6
f -2/4/6 -4/4/6 -1/4/6
v -3.5 16 0.5
v -2.5 16 0.5
v 3.5 16 0.5
v -3.5 16 -1.5
v -2.5 16 -1.5
v 3.5 16 -1.5
f -6/2/6 -5/2/6 -3/2/6
f -5/1/6 -4/1/6 -2/1/6
f -3/2/6 -5/2/6 -2/2/6
f -2/1/6 -4/1/6 -1/1/6
