# MagicaVoxel @ ephtracy

# material
mtllib Commisary Corner.mtl
usemtl palette

# normals
vn -1 0 0
vn 1 0 0
vn 0 0 1
vn 0 0 -1
vn 0 -1 0
vn 0 1 0

# texcoords
vt 0.0878906 0.5
vt 0.958984 0.5

# verts and faces
v -30 0 30
v -30 0 -30
v -30 20 30
v -30 20 -30
v -30 28 30
v -30 28 -30
v -30 40 30
v -30 40 -30
f -6/2/1 -7/2/1 -8/2/1
f -5/2/1 -7/2/1 -6/2/1
f -2/2/1 -3/2/1 -4/2/1
f -1/2/1 -3/2/1 -2/2/1
v -29 20 30
v -29 20 -29
v -29 28 30
v -29 28 -29
f -2/1/1 -3/1/1 -4/1/1
f -1/1/1 -3/1/1 -2/1/1
v -23 20 -20
v -23 20 -21
v -23 22 -20
v -23 22 -21
f -2/2/1 -3/2/1 -4/2/1
f -1/2/1 -3/2/1 -2/2/1
v -20 27 -22
v -20 27 -26
v -20 28 -22
v -20 28 -26
f -2/2/1 -3/2/1 -4/2/1
f -1/2/1 -3/2/1 -2/2/1
v 21 27 -22
v 21 27 -26
v 21 28 -22
v 21 28 -26
f -2/2/1 -3/2/1 -4/2/1
f -1/2/1 -3/2/1 -2/2/1
v -27 20 -20
v -27 20 -21
v -27 22 -20
v -27 22 -21
f -4/2/2 -3/2/2 -2/2/2
f -2/2/2 -3/2/2 -1/2/2
v -21 20 30
v -21 20 -21
v -21 27 -22
v -21 27 -26
v -21 28 30
v -21 28 -21
v -21 28 -22
v -21 28 -26
f -8/1/2 -7/1/2 -4/1/2
f -4/1/2 -7/1/2 -3/1/2
f -6/1/2 -5/1/2 -2/1/2
f -2/1/2 -5/1/2 -1/1/2
v -20 0 30
v -20 0 -20
v -20 20 30
v -20 20 -20
v -20 28 30
v -20 28 -20
v -20 40 30
v -20 40 -20
f -8/2/2 -7/2/2 -6/2/2
f -6/2/2 -7/2/2 -5/2/2
f -4/2/2 -3/2/2 -2/2/2
f -2/2/2 -3/2/2 -1/2/2
v 20 27 -22
v 20 27 -26
v 20 28 -22
v 20 28 -26
f -4/2/2 -3/2/2 -2/2/2
f -2/2/2 -3/2/2 -1/2/2
v 30 0 -20
v 30 0 -30
v 30 20 -20
v 30 20 -21
v 30 20 -29
v 30 20 -30
v 30 28 -20
v 30 28 -21
v 30 28 -29
v 30 28 -30
v 30 40 -20
v 30 40 -30
f -12/2/2 -11/2/2 -10/2/2
f -10/2/2 -11/2/2 -9/2/2
f -9/2/2 -11/2/2 -8/2/2
f -8/2/2 -11/2/2 -7/2/2
f -9/1/2 -8/1/2 -5/1/2
f -5/1/2 -8/1/2 -4/1/2
f -6/2/2 -5/2/2 -2/2/2
f -4/2/2 -3/2/2 -2/2/2
f -5/2/2 -4/2/2 -2/2/2
f -2/2/2 -3/2/2 -1/2/2
v -30 0 30
v -30 20 30
v -30 28 30
v -30 40 30
v -29 20 30
v -29 28 30
v -21 20 30
v -21 28 30
v -20 0 30
v -20 20 30
v -20 28 30
v -20 40 30
f -8/2/3 -11/2/3 -12/2/3
f -7/2/3 -9/2/3 -10/2/3
f -6/2/3 -8/2/3 -12/2/3
f -6/1/3 -7/1/3 -8/1/3
f -5/2/3 -9/2/3 -7/2/3
f -5/1/3 -7/1/3 -6/1/3
f -4/2/3 -6/2/3 -12/2/3
f -3/2/3 -6/2/3 -4/2/3
f -2/2/3 -9/2/3 -5/2/3
f -1/2/3 -9/2/3 -2/2/3
v -20 0 -20
v -20 20 -20
v -20 28 -20
v -20 40 -20
v 30 0 -20
v 30 20 -20
v 30 28 -20
v 30 40 -20
f -4/2/3 -7/2/3 -8/2/3
f -3/2/3 -7/2/3 -4/2/3
f -2/2/3 -5/2/3 -6/2/3
f -1/2/3 -5/2/3 -2/2/3
v -27 20 -21
v -27 22 -21
v -23 20 -21
v -23 22 -21
v -21 20 -21
v -21 28 -21
v 30 20 -21
v 30 28 -21
f -6/2/3 -7/2/3 -8/2/3
f -5/2/3 -7/2/3 -6/2/3
f -2/1/3 -3/1/3 -4/1/3
f -1/1/3 -3/1/3 -2/1/3
v -21 27 -26
v -21 28 -26
v -20 27 -26
v -20 28 -26
v 20 27 -26
v 20 28 -26
v 21 27 -26
v 21 28 -26
f -6/2/3 -7/2/3 -8/2/3
f -5/2/3 -7/2/3 -6/2/3
f -2/2/3 -3/2/3 -4/2/3
f -1/2/3 -3/2/3 -2/2/3
v -27 20 -20
v -27 22 -20
v -23 20 -20
v -23 22 -20
f -4/2/4 -3/2/4 -2/2/4
f -2/2/4 -3/2/4 -1/2/4
v -21 27 -22
v -21 28 -22
v -20 27 -22
v -20 28 -22
v 20 27 -22
v 20 28 -22
v 21 27 -22
v 21 28 -22
f -8/1/4 -7/1/4 -6/1/4
f -6/1/4 -7/1/4 -5/1/4
f -4/1/4 -3/1/4 -2/1/4
f -2/1/4 -3/1/4 -1/1/4
v -29 20 -29
v -29 28 -29
v 30 20 -29
v 30 28 -29
f -4/1/4 -3/1/4 -2/1/4
f -2/1/4 -3/1/4 -1/1/4
v -30 0 -30
v -30 20 -30
v -30 28 -30
v -30 40 -30
v 30 0 -30
v 30 20 -30
v 30 28 -30
v 30 40 -30
f -8/2/4 -7/2/4 -4/2/4
f -4/2/4 -7/2/4 -3/2/4
f -6/2/4 -5/2/4 -2/2/4
f -2/2/4 -5/2/4 -1/2/4
v -30 0 30
v -20 0 30
v -20 0 -20
v 30 0 -20
v -30 0 -30
v 30 0 -30
f -4/2/5 -5/2/5 -6/2/5
f -2/2/5 -4/2/5 -6/2/5
f -2/2/5 -3/2/5 -4/2/5
f -1/2/5 -3/2/5 -2/2/5
v -27 22 -20
v -23 22 -20
v -27 22 -21
v -23 22 -21
f -2/2/5 -3/2/5 -4/2/5
f -1/2/5 -3/2/5 -2/2/5
v -30 28 30
v -29 28 30
v -21 28 30
v -20 28 30
v -20 28 -20
v 30 28 -20
v -21 28 -21
v 30 28 -21
v -21 28 -22
v -20 28 -22
v 20 28 -22
v 21 28 -22
v -21 28 -26
v -20 28 -26
v 20 28 -26
v 21 28 -26
v -29 28 -29
v 30 28 -29
v -30 28 -30
v 30 28 -30
f -16/2/5 -17/2/5 -18/2/5
f -14/2/5 -16/2/5 -18/2/5
f -14/2/5 -15/2/5 -16/2/5
f -13/2/5 -15/2/5 -14/2/5
f -8/2/5 -11/2/5 -12/2/5
f -7/2/5 -11/2/5 -8/2/5
f -6/2/5 -9/2/5 -10/2/5
f -5/2/5 -9/2/5 -6/2/5
f -4/2/5 -19/2/5 -20/2/5
f -2/2/5 -4/2/5 -20/2/5
f -2/2/5 -3/2/5 -4/2/5
f -1/2/5 -3/2/5 -2/2/5
v -30 20 30
v -29 20 30
v -21 20 30
v -20 20 30
v -27 20 -20
v -23 20 -20
v -20 20 -20
v 30 20 -20
v -27 20 -21
v -23 20 -21
v -21 20 -21
v 30 20 -21
v -29 20 -29
v 30 20 -29
v -30 20 -30
v 30 20 -30
f -14/2/6 -13/2/6 -10/2/6
f -12/2/6 -11/2/6 -8/2/6
f -8/2/6 -11/2/6 -7/2/6
f -10/2/6 -9/2/6 -6/2/6
f -14/2/6 -10/2/6 -6/2/6
f -6/2/6 -9/2/6 -5/2/6
f -16/2/6 -15/2/6 -4/2/6
f -16/2/6 -4/2/6 -2/2/6
f -4/2/6 -3/2/6 -2/2/6
f -2/2/6 -3/2/6 -1/2/6
v -21 27 -22
v -20 27 -22
v 20 27 -22
v 21 27 -22
v -21 27 -26
v -20 27 -26
v 20 27 -26
v 21 27 -26
f -8/2/6 -7/2/6 -4/2/6
f -4/2/6 -7/2/6 -3/2/6
f -6/2/6 -5/2/6 -2/2/6
f -2/2/6 -5/2/6 -1/2/6
v -30 40 30
v -20 40 30
v -20 40 -20
v 30 40 -20
v -30 40 -30
v 30 40 -30
f -6/2/6 -5/2/6 -4/2/6
f -6/2/6 -4/2/6 -2/2/6
f -4/2/6 -3/2/6 -2/2/6
f -2/2/6 -3/2/6 -1/2/6
