# MagicaVoxel @ ephtracy

# material
mtllib Security Wall 4.mtl
usemtl palette

# normals
vn -1 0 0
vn 1 0 0
vn 0 0 1
vn 0 0 -1
vn 0 -1 0
vn 0 1 0

# texcoords
vt 0.337891 0.5
vt 0.966797 0.5
vt 0.970703 0.5

# verts and faces
v -30 0 5
v -30 0 -5
v -30 40 5
v -30 40 -5
f -2/2/1 -3/2/1 -4/2/1
f -1/2/1 -3/2/1 -2/2/1
v -21 16 5
v -21 16 4
v -21 16 3
v -21 16 2
v -21 33 5
v -21 33 4
v -21 33 3
v -21 33 2
f -4/3/1 -7/3/1 -8/3/1
f -3/3/1 -7/3/1 -4/3/1
f -2/3/1 -5/3/1 -6/3/1
f -1/3/1 -5/3/1 -2/3/1
v 20 17 5
v 20 17 4
v 20 17 3
v 20 17 2
v 20 32 5
v 20 32 4
v 20 32 3
v 20 32 2
f -4/3/1 -7/3/1 -8/3/1
f -3/3/1 -7/3/1 -4/3/1
f -2/3/1 -5/3/1 -6/3/1
f -1/3/1 -5/3/1 -2/3/1
v 21 16 4
v 21 16 3
v 21 33 4
v 21 33 3
f -2/1/1 -3/1/1 -4/1/1
f -1/1/1 -3/1/1 -2/1/1
v 28 16 3
v 28 16 -4
v 28 33 3
v 28 33 -4
f -2/1/1 -3/1/1 -4/1/1
f -1/1/1 -3/1/1 -2/1/1
v 29 1 5
v 29 1 4
v 29 1 -4
v 29 1 -5
v 29 39 5
v 29 39 4
v 29 39 -4
v 29 39 -5
f -4/2/1 -7/2/1 -8/2/1
f -3/2/1 -7/2/1 -4/2/1
f -2/2/1 -5/2/1 -6/2/1
f -1/2/1 -5/2/1 -2/2/1
v -29 1 5
v -29 1 4
v -29 1 -4
v -29 1 -5
v -29 39 5
v -29 39 4
v -29 39 -4
v -29 39 -5
f -8/2/2 -7/2/2 -4/2/2
f -4/2/2 -7/2/2 -3/2/2
f -6/2/2 -5/2/2 -2/2/2
f -2/2/2 -5/2/2 -1/2/2
v -28 16 3
v -28 16 -4
v -28 33 3
v -28 33 -4
f -4/1/2 -3/1/2 -2/1/2
f -2/1/2 -3/1/2 -1/1/2
v -21 16 4
v -21 16 3
v -21 33 4
v -21 33 3
f -4/1/2 -3/1/2 -2/1/2
f -2/1/2 -3/1/2 -1/1/2
v -20 17 5
v -20 17 4
v -20 17 3
v -20 17 2
v -20 32 5
v -20 32 4
v -20 32 3
v -20 32 2
f -8/3/2 -7/3/2 -4/3/2
f -4/3/2 -7/3/2 -3/3/2
f -6/3/2 -5/3/2 -2/3/2
f -2/3/2 -5/3/2 -1/3/2
v 21 16 5
v 21 16 4
v 21 16 3
v 21 16 2
v 21 33 5
v 21 33 4
v 21 33 3
v 21 33 2
f -8/3/2 -7/3/2 -4/3/2
f -4/3/2 -7/3/2 -3/3/2
f -6/3/2 -5/3/2 -2/3/2
f -2/3/2 -5/3/2 -1/3/2
v 30 0 5
v 30 0 -5
v 30 40 5
v 30 40 -5
f -4/2/2 -3/2/2 -2/2/2
f -2/2/2 -3/2/2 -1/2/2
v -30 0 5
v -30 40 5
v -29 1 5
v -29 39 5
v -21 16 5
v -21 33 5
v -20 17 5
v -20 32 5
v 20 17 5
v 20 32 5
v 21 16 5
v 21 33 5
v 29 1 5
v 29 39 5
v 30 0 5
v 30 40 5
f -14/2/3 -15/2/3 -16/2/3
f -13/2/3 -15/2/3 -14/2/3
f -10/3/3 -11/3/3 -12/3/3
f -9/3/3 -11/3/3 -10/3/3
f -8/3/3 -10/3/3 -12/3/3
f -7/3/3 -11/3/3 -9/3/3
f -6/3/3 -8/3/3 -12/3/3
f -6/3/3 -7/3/3 -8/3/3
f -5/3/3 -11/3/3 -7/3/3
f -5/3/3 -7/3/3 -6/3/3
f -4/2/3 -14/2/3 -16/2/3
f -3/2/3 -15/2/3 -13/2/3
f -2/2/3 -4/2/3 -16/2/3
f -2/2/3 -3/2/3 -4/2/3
f -1/2/3 -15/2/3 -3/2/3
f -1/2/3 -3/2/3 -2/2/3
v -29 1 4
v -29 39 4
v -21 16 4
v -21 33 4
v 21 16 4
v 21 33 4
v 29 1 4
v 29 39 4
f -6/1/3 -7/1/3 -8/1/3
f -5/1/3 -7/1/3 -6/1/3
f -4/1/3 -6/1/3 -8/1/3
f -3/1/3 -7/1/3 -5/1/3
f -2/1/3 -4/1/3 -8/1/3
f -2/1/3 -3/1/3 -4/1/3
f -1/1/3 -7/1/3 -3/1/3
f -1/1/3 -3/1/3 -2/1/3
v -21 16 3
v -21 33 3
v -20 17 3
v -20 32 3
v 20 17 3
v 20 32 3
v 21 16 3
v 21 33 3
f -6/3/3 -7/3/3 -8/3/3
f -5/3/3 -7/3/3 -6/3/3
f -4/3/3 -6/3/3 -8/3/3
f -3/3/3 -7/3/3 -5/3/3
f -2/3/3 -4/3/3 -8/3/3
f -2/3/3 -3/3/3 -4/3/3
f -1/3/3 -7/3/3 -3/3/3
f -1/3/3 -3/3/3 -2/3/3
v -21 16 4
v -21 33 4
v -20 17 4
v -20 32 4
v 20 17 4
v 20 32 4
v 21 16 4
v 21 33 4
f -8/3/4 -7/3/4 -6/3/4
f -6/3/4 -7/3/4 -5/3/4
f -8/3/4 -6/3/4 -4/3/4
f -5/3/4 -7/3/4 -3/3/4
f -8/3/4 -4/3/4 -2/3/4
f -4/3/4 -3/3/4 -2/3/4
f -3/3/4 -7/3/4 -1/3/4
f -2/3/4 -3/3/4 -1/3/4
v -28 16 3
v -28 33 3
v -21 16 3
v -21 33 3
v 21 16 3
v 21 33 3
v 28 16 3
v 28 33 3
f -8/1/4 -7/1/4 -6/1/4
f -6/1/4 -7/1/4 -5/1/4
f -4/1/4 -3/1/4 -2/1/4
f -2/1/4 -3/1/4 -1/1/4
v -21 16 2
v -21 33 2
v -20 17 2
v -20 32 2
v 20 17 2
v 20 32 2
v 21 16 2
v 21 33 2
f -8/3/4 -7/3/4 -6/3/4
f -6/3/4 -7/3/4 -5/3/4
f -8/3/4 -6/3/4 -4/3/4
f -5/3/4 -7/3/4 -3/3/4
f -8/3/4 -4/3/4 -2/3/4
f -4/3/4 -3/3/4 -2/3/4
f -3/3/4 -7/3/4 -1/3/4
f -2/3/4 -3/3/4 -1/3/4
v -29 1 -4
v -29 39 -4
v -28 16 -4
v -28 33 -4
v 28 16 -4
v 28 33 -4
v 29 1 -4
v 29 39 -4
f -8/1/4 -7/1/4 -6/1/4
f -6/1/4 -7/1/4 -5/1/4
f -8/1/4 -6/1/4 -4/1/4
f -5/1/4 -7/1/4 -3/1/4
f -8/1/4 -4/1/4 -2/1/4
f -4/1/4 -3/1/4 -2/1/4
f -3/1/4 -7/1/4 -1/1/4
f -2/1/4 -3/1/4 -1/1/4
v -30 0 -5
v -30 40 -5
v -29 1 -5
v -29 39 -5
v 29 1 -5
v 29 39 -5
v 30 0 -5
v 30 40 -5
f -8/2/4 -7/2/4 -6/2/4
f -6/2/4 -7/2/4 -5/2/4
f -8/2/4 -6/2/4 -4/2/4
f -5/2/4 -7/2/4 -3/2/4
f -8/2/4 -4/2/4 -2/2/4
f -4/2/4 -3/2/4 -2/2/4
f -3/2/4 -7/2/4 -1/2/4
f -2/2/4 -3/2/4 -1/2/4
v -30 0 5
v 30 0 5
v -30 0 -5
v 30 0 -5
f -2/2/5 -3/2/5 -4/2/5
f -1/2/5 -3/2/5 -2/2/5
v -21 16 5
v 21 16 5
v -21 16 4
v 21 16 4
f -2/3/5 -3/3/5 -4/3/5
f -1/3/5 -3/3/5 -2/3/5
v -20 32 5
v 20 32 5
v -20 32 4
v 20 32 4
v -20 32 3
v 20 32 3
v -20 32 2
v 20 32 2
f -6/3/5 -7/3/5 -8/3/5
f -5/3/5 -7/3/5 -6/3/5
f -2/3/5 -3/3/5 -4/3/5
f -1/3/5 -3/3/5 -2/3/5
v -21 33 4
v 21 33 4
v -28 33 3
v -21 33 3
v 21 33 3
v 28 33 3
v -21 33 2
v 21 33 2
v -28 33 -4
v 28 33 -4
f -7/1/5 -9/1/5 -10/1/5
f -6/1/5 -9/1/5 -7/1/5
f -4/1/5 -7/1/5 -8/1/5
f -3/1/5 -5/1/5 -6/1/5
f -2/1/5 -4/1/5 -8/1/5
f -2/1/5 -3/1/5 -4/1/5
f -1/1/5 -5/1/5 -3/1/5
f -1/1/5 -3/1/5 -2/1/5
v -29 39 5
v 29 39 5
v -29 39 4
v 29 39 4
v -29 39 -4
v 29 39 -4
v -29 39 -5
v 29 39 -5
f -6/2/5 -7/2/5 -8/2/5
f -5/2/5 -7/2/5 -6/2/5
f -2/2/5 -3/2/5 -4/2/5
f -1/2/5 -3/2/5 -2/2/5
v -29 1 5
v 29 1 5
v -29 1 4
v 29 1 4
v -29 1 -4
v 29 1 -4
v -29 1 -5
v 29 1 -5
f -8/2/6 -7/2/6 -6/2/6
f -6/2/6 -7/2/6 -5/2/6
f -4/2/6 -3/2/6 -2/2/6
f -2/2/6 -3/2/6 -1/2/6
v -21 16 4
v 21 16 4
v -28 16 3
v -21 16 3
v 21 16 3
v 28 16 3
v -21 16 2
v 21 16 2
v -28 16 -4
v 28 16 -4
f -10/1/6 -9/1/6 -7/1/6
f -7/1/6 -9/1/6 -6/1/6
f -8/1/6 -7/1/6 -4/1/6
f -6/1/6 -5/1/6 -3/1/6
f -8/1/6 -4/1/6 -2/1/6
f -4/1/6 -3/1/6 -2/1/6
f -3/1/6 -5/1/6 -1/1/6
f -2/1/6 -3/1/6 -1/1/6
v -20 17 5
v 20 17 5
v -20 17 4
v 20 17 4
v -20 17 3
v 20 17 3
v -20 17 2
v 20 17 2
f -8/3/6 -7/3/6 -6/3/6
f -6/3/6 -7/3/6 -5/3/6
f -4/3/6 -3/3/6 -2/3/6
f -2/3/6 -3/3/6 -1/3/6
v -21 33 5
v 21 33 5
v -21 33 4
v 21 33 4
f -4/3/6 -3/3/6 -2/3/6
f -2/3/6 -3/3/6 -1/3/6
v -30 40 5
v 30 40 5
v -30 40 -5
v 30 40 -5
f -4/2/6 -3/2/6 -2/2/6
f -2/2/6 -3/2/6 -1/2/6
