# MagicaVoxel @ ephtracy

# material
mtllib Med Bay Sink 1.mtl
usemtl palette

# normals
vn -1 0 0
vn 1 0 0
vn 0 0 1
vn 0 0 -1
vn 0 -1 0
vn 0 1 0

# texcoords
vt 0.337891 0.5
vt 0.478516 0.5
vt 0.646484 0.5
vt 0.966797 0.5
vt 0.970703 0.5
vt 0.974609 0.5

# verts and faces
v -4 0 6
v -4 0 -6
v -4 4 1
v -4 4 -1
v -4 5 6
v -4 5 1
v -4 5 -1
v -4 5 -6
v -4 6 6
v -4 6 -6
f -8/6/1 -9/6/1 -10/6/1
f -7/6/1 -9/6/1 -8/6/1
f -6/6/1 -8/6/1 -10/6/1
f -5/1/1 -7/1/1 -8/1/1
f -5/6/1 -8/6/1 -6/6/1
f -4/6/1 -9/6/1 -7/6/1
f -4/1/1 -7/1/1 -5/1/1
f -3/6/1 -9/6/1 -4/6/1
f -2/5/1 -5/5/1 -6/5/1
f -2/5/1 -4/5/1 -5/5/1
f -2/5/1 -3/5/1 -4/5/1
f -1/5/1 -3/5/1 -2/5/1
v -3 6 1
v -3 6 -1
v -3 8 1
v -3 8 -1
f -2/4/1 -3/4/1 -4/4/1
f -1/4/1 -3/4/1 -2/4/1
v 2 2 5
v 2 2 -5
v 2 5 5
v 2 5 -5
v 2 6 5
v 2 6 -5
f -4/6/1 -5/6/1 -6/6/1
f -3/6/1 -5/6/1 -4/6/1
f -2/5/1 -3/5/1 -4/5/1
f -1/5/1 -3/5/1 -2/5/1
v -3 5 5
v -3 5 1
v -3 5 -1
v -3 5 -5
v -3 6 5
v -3 6 1
v -3 6 -1
v -3 6 -5
f -8/5/2 -7/5/2 -4/5/2
f -4/5/2 -7/5/2 -3/5/2
f -6/5/2 -5/5/2 -2/5/2
f -2/5/2 -5/5/2 -1/5/2
v -2 2 5
v -2 2 1
v -2 2 -1
v -2 2 -5
v -2 4 1
v -2 4 -1
v -2 5 5
v -2 5 1
v -2 5 -1
v -2 5 -5
v -2 7 1
v -2 7 -1
f -12/6/2 -11/6/2 -8/6/2
f -10/6/2 -9/6/2 -8/6/2
f -11/6/2 -10/6/2 -8/6/2
f -8/6/2 -9/6/2 -7/6/2
f -12/6/2 -8/6/2 -6/6/2
f -8/4/2 -7/4/2 -5/4/2
f -6/6/2 -8/6/2 -5/6/2
f -7/6/2 -9/6/2 -4/6/2
f -5/4/2 -7/4/2 -4/4/2
f -4/6/2 -9/6/2 -3/6/2
f -5/4/2 -4/4/2 -2/4/2
f -2/4/2 -4/4/2 -1/4/2
v -1 7 1
v -1 7 -1
v -1 8 1
v -1 8 -1
f -4/4/2 -3/4/2 -2/4/2
f -2/4/2 -3/4/2 -1/4/2
v 3 0 6
v 3 0 -6
v 3 5 6
v 3 5 -6
f -4/6/2 -3/6/2 -2/6/2
f -2/6/2 -3/6/2 -1/6/2
v 4 5 6
v 4 5 -6
v 4 6 6
v 4 6 -6
f -4/5/2 -3/5/2 -2/5/2
f -2/5/2 -3/5/2 -1/5/2
v -4 0 6
v -4 5 6
v -4 6 6
v 3 0 6
v 3 5 6
v 4 5 6
v 4 6 6
f -4/6/3 -6/6/3 -7/6/3
f -3/5/3 -5/5/3 -6/5/3
f -3/6/3 -6/6/3 -4/6/3
f -2/5/3 -5/5/3 -3/5/3
f -1/5/3 -5/5/3 -2/5/3
v -3 5 1
v -3 6 1
v -3 8 1
v -2 5 1
v -2 7 1
v -1 7 1
v -1 8 1
f -4/4/3 -6/4/3 -7/4/3
f -4/4/3 -5/4/3 -6/4/3
f -3/4/3 -5/4/3 -4/4/3
f -2/4/3 -5/4/3 -3/4/3
f -1/4/3 -5/4/3 -2/4/3
v -3 5 -5
v -3 6 -5
v -2 2 -5
v -2 5 -5
v 2 2 -5
v 2 5 -5
v 2 6 -5
f -4/5/3 -6/5/3 -7/5/3
f -3/6/3 -4/6/3 -5/6/3
f -2/5/3 -6/5/3 -4/5/3
f -2/6/3 -4/6/3 -3/6/3
f -1/5/3 -6/5/3 -2/5/3
v -3 5 5
v -3 6 5
v -2 2 5
v -2 5 5
v 2 2 5
v 2 5 5
v 2 6 5
f -7/5/4 -6/5/4 -4/5/4
f -5/6/4 -4/6/4 -3/6/4
f -4/5/4 -6/5/4 -2/5/4
f -3/6/4 -4/6/4 -2/6/4
f -2/5/4 -6/5/4 -1/5/4
v -3 5 -1
v -3 6 -1
v -3 8 -1
v -2 5 -1
v -2 7 -1
v -1 7 -1
v -1 8 -1
f -7/4/4 -6/4/4 -4/4/4
f -6/4/4 -5/4/4 -4/4/4
f -4/4/4 -5/4/4 -3/4/4
f -3/4/4 -5/4/4 -2/4/4
f -2/4/4 -5/4/4 -1/4/4
v -4 0 -6
v -4 5 -6
v -4 6 -6
v 3 0 -6
v 3 5 -6
v 4 5 -6
v 4 6 -6
f -7/6/4 -6/6/4 -4/6/4
f -6/5/4 -5/5/4 -3/5/4
f -4/6/4 -6/6/4 -3/6/4
f -3/5/4 -5/5/4 -2/5/4
f -2/5/4 -5/5/4 -1/5/4
v -4 0 6
v 3 0 6
v -4 0 -6
v 3 0 -6
f -2/6/5 -3/6/5 -4/6/5
f -1/6/5 -3/6/5 -2/6/5
v 3 5 6
v 4 5 6
v 3 5 -6
v 4 5 -6
f -2/5/5 -3/5/5 -4/5/5
f -1/5/5 -3/5/5 -2/5/5
v -2 7 1
v -1 7 1
v -2 7 -1
v -1 7 -1
f -2/4/5 -3/4/5 -4/4/5
f -1/4/5 -3/4/5 -2/4/5
v -2 2 5
v 2 2 5
v -2 2 1
v 1 2 1
v -2 2 -1
v 1 2 -1
v -2 2 -5
v 2 2 -5
f -8/2/6 -7/2/6 -6/2/6
f -6/2/6 -7/2/6 -5/2/6
f -6/3/6 -5/3/6 -4/3/6
f -5/2/6 -7/2/6 -3/2/6
f -4/3/6 -5/3/6 -3/3/6
f -4/2/6 -3/2/6 -2/2/6
f -3/2/6 -7/2/6 -1/2/6
f -2/2/6 -3/2/6 -1/2/6
v -3 5 5
v -2 5 5
v -3 5 1
v -2 5 1
v -3 5 -1
v -2 5 -1
v -3 5 -5
v -2 5 -5
f -8/6/6 -7/6/6 -6/6/6
f -6/6/6 -7/6/6 -5/6/6
f -4/6/6 -3/6/6 -2/6/6
f -2/6/6 -3/6/6 -1/6/6
v -4 6 6
v 4 6 6
v -3 6 5
v 2 6 5
v -3 6 1
v -3 6 -1
v -3 6 -5
v 2 6 -5
v -4 6 -6
v 4 6 -6
f -10/5/6 -9/5/6 -8/5/6
f -8/5/6 -9/5/6 -7/5/6
f -10/5/6 -8/5/6 -6/5/6
f -10/5/6 -6/5/6 -5/5/6
f -10/5/6 -5/5/6 -4/5/6
f -7/5/6 -9/5/6 -3/5/6
f -10/5/6 -4/5/6 -2/5/6
f -4/5/6 -3/5/6 -2/5/6
f -3/5/6 -9/5/6 -1/5/6
f -2/5/6 -3/5/6 -1/5/6
v -3 8 1
v -1 8 1
v -3 8 -1
v -1 8 -1
f -4/4/6 -3/4/6 -2/4/6
f -2/4/6 -3/4/6 -1/4/6
