# MagicaVoxel @ ephtracy

# material
mtllib Med Bay Locker 2.mtl
usemtl palette

# normals
vn -1 0 0
vn 1 0 0
vn 0 0 1
vn 0 0 -1
vn 0 -1 0
vn 0 1 0

# texcoords
vt 0.0371094 0.5
vt 0.970703 0.5
vt 0.978516 0.5

# verts and faces
v -5.5 0 -3
v -5.5 0 -4
v -5.5 1 3
v -5.5 1 -3
v -5.5 21 3
v -5.5 21 -3
v -5.5 22 -3
v -5.5 22 -4
f -5/3/1 -7/3/1 -8/3/1
f -4/3/1 -5/3/1 -6/3/1
f -3/3/1 -7/3/1 -5/3/1
f -3/3/1 -5/3/1 -4/3/1
f -2/3/1 -7/3/1 -3/3/1
f -1/3/1 -7/3/1 -2/3/1
v 2.5 10 4
v 2.5 10 3
v 2.5 11 4
v 2.5 11 3
f -2/2/1 -3/2/1 -4/2/1
f -1/2/1 -3/2/1 -2/2/1
v 3.5 2 2
v 3.5 2 -3
v 3.5 20 2
v 3.5 20 -3
f -2/3/1 -3/3/1 -4/3/1
f -1/3/1 -3/3/1 -2/3/1
v -4.5 2 2
v -4.5 2 -3
v -4.5 20 2
v -4.5 20 -3
f -4/3/2 -3/3/2 -2/3/2
f -2/3/2 -3/3/2 -1/3/2
v 4.5 0 -3
v 4.5 0 -4
v 4.5 1 3
v 4.5 1 -3
v 4.5 2 3
v 4.5 2 2
v 4.5 10 3
v 4.5 10 2
v 4.5 11 3
v 4.5 11 2
v 4.5 20 3
v 4.5 20 2
v 4.5 21 3
v 4.5 21 -3
v 4.5 22 -3
v 4.5 22 -4
f -16/3/2 -15/3/2 -13/3/2
f -14/3/2 -13/3/2 -12/3/2
f -12/3/2 -13/3/2 -11/3/2
f -12/1/2 -11/1/2 -10/1/2
f -11/3/2 -13/3/2 -9/3/2
f -10/1/2 -11/1/2 -9/1/2
f -10/2/2 -9/2/2 -8/2/2
f -9/3/2 -13/3/2 -7/3/2
f -8/2/2 -9/2/2 -7/2/2
f -8/1/2 -7/1/2 -6/1/2
f -7/3/2 -13/3/2 -5/3/2
f -6/1/2 -7/1/2 -5/1/2
f -6/3/2 -5/3/2 -4/3/2
f -13/3/2 -15/3/2 -3/3/2
f -4/3/2 -5/3/2 -3/3/2
f -5/3/2 -13/3/2 -3/3/2
f -3/3/2 -15/3/2 -2/3/2
f -2/3/2 -15/3/2 -1/3/2
v 5.5 10 4
v 5.5 10 3
v 5.5 11 4
v 5.5 11 3
f -4/2/2 -3/2/2 -2/2/2
f -2/2/2 -3/2/2 -1/2/2
v 2.5 10 4
v 2.5 11 4
v 5.5 10 4
v 5.5 11 4
f -2/2/3 -3/2/3 -4/2/3
f -1/2/3 -3/2/3 -2/2/3
v -5.5 1 3
v -5.5 21 3
v -4.5 2 3
v -4.5 20 3
v 2.5 10 3
v 2.5 11 3
v 4.5 1 3
v 4.5 2 3
v 4.5 10 3
v 4.5 11 3
v 4.5 20 3
v 4.5 21 3
f -10/3/3 -11/3/3 -12/3/3
f -9/3/3 -11/3/3 -10/3/3
f -8/1/3 -9/1/3 -10/1/3
f -7/1/3 -9/1/3 -8/1/3
f -6/3/3 -10/3/3 -12/3/3
f -5/1/3 -8/1/3 -10/1/3
f -5/3/3 -10/3/3 -6/3/3
f -4/1/3 -8/1/3 -5/1/3
f -3/1/3 -9/1/3 -7/1/3
f -2/3/3 -11/3/3 -9/3/3
f -2/1/3 -9/1/3 -3/1/3
f -1/3/3 -11/3/3 -2/3/3
v -5.5 0 -3
v -5.5 1 -3
v -5.5 21 -3
v -5.5 22 -3
v -4.5 2 -3
v -4.5 20 -3
v 3.5 2 -3
v 3.5 20 -3
v 4.5 0 -3
v 4.5 1 -3
v 4.5 21 -3
v 4.5 22 -3
f -6/3/3 -7/3/3 -8/3/3
f -5/3/3 -7/3/3 -6/3/3
f -4/3/3 -11/3/3 -12/3/3
f -3/3/3 -11/3/3 -4/3/3
f -2/3/3 -9/3/3 -10/3/3
f -1/3/3 -9/3/3 -2/3/3
v 4.5 10 3
v 4.5 11 3
v 5.5 10 3
v 5.5 11 3
f -4/2/4 -3/2/4 -2/2/4
f -2/2/4 -3/2/4 -1/2/4
v -4.5 2 2
v -4.5 20 2
v 3.5 2 2
v 3.5 20 2
f -4/1/4 -3/1/4 -2/1/4
f -2/1/4 -3/1/4 -1/1/4
v -5.5 0 -4
v -5.5 22 -4
v 4.5 0 -4
v 4.5 22 -4
f -4/3/4 -3/3/4 -2/3/4
f -2/3/4 -3/3/4 -1/3/4
v -5.5 0 -3
v 4.5 0 -3
v -5.5 0 -4
v 4.5 0 -4
f -2/3/5 -3/3/5 -4/3/5
f -1/3/5 -3/3/5 -2/3/5
v -5.5 1 3
v 4.5 1 3
v -5.5 1 -3
v 4.5 1 -3
f -2/3/5 -3/3/5 -4/3/5
f -1/3/5 -3/3/5 -2/3/5
v 2.5 10 4
v 5.5 10 4
v 2.5 10 3
v 4.5 10 3
v 5.5 10 3
f -3/2/5 -4/2/5 -5/2/5
f -2/2/5 -4/2/5 -3/2/5
f -1/2/5 -4/2/5 -2/2/5
v -4.5 20 2
v 3.5 20 2
v -4.5 20 -3
v 3.5 20 -3
f -2/3/5 -3/3/5 -4/3/5
f -1/3/5 -3/3/5 -2/3/5
v -4.5 2 2
v 3.5 2 2
v -4.5 2 -3
v 3.5 2 -3
f -4/3/6 -3/3/6 -2/3/6
f -2/3/6 -3/3/6 -1/3/6
v 2.5 11 4
v 5.5 11 4
v 2.5 11 3
v 4.5 11 3
v 5.5 11 3
f -5/2/6 -4/2/6 -3/2/6
f -3/2/6 -4/2/6 -2/2/6
f -2/2/6 -4/2/6 -1/2/6
v -5.5 21 3
v 4.5 21 3
v -5.5 21 -3
v 4.5 21 -3
f -4/3/6 -3/3/6 -2/3/6
f -2/3/6 -3/3/6 -1/3/6
v -5.5 22 -3
v 4.5 22 -3
v -5.5 22 -4
v 4.5 22 -4
f -4/3/6 -3/3/6 -2/3/6
f -2/3/6 -3/3/6 -1/3/6
