# MagicaVoxel @ ephtracy

# material
mtllib Med Bay Sink 2.mtl
usemtl palette

# normals
vn -1 0 0
vn 1 0 0
vn 0 0 1
vn 0 0 -1
vn 0 -1 0
vn 0 1 0

# texcoords
vt 0.283203 0.5
vt 0.337891 0.5
vt 0.478516 0.5
vt 0.966797 0.5
vt 0.970703 0.5
vt 0.974609 0.5

# verts and faces
v -4 0 6
v -4 0 -6
v -4 4 1
v -4 4 -1
v -4 5 6
v -4 5 1
v -4 5 -1
v -4 5 -6
v -4 6 6
v -4 6 -6
f -8/6/1 -9/6/1 -10/6/1
f -7/6/1 -9/6/1 -8/6/1
f -6/6/1 -8/6/1 -10/6/1
f -5/2/1 -7/2/1 -8/2/1
f -5/6/1 -8/6/1 -6/6/1
f -4/6/1 -9/6/1 -7/6/1
f -4/2/1 -7/2/1 -5/2/1
f -3/6/1 -9/6/1 -4/6/1
f -2/5/1 -5/5/1 -6/5/1
f -2/5/1 -4/5/1 -5/5/1
f -2/5/1 -3/5/1 -4/5/1
f -1/5/1 -3/5/1 -2/5/1
v -3 6 1
v -3 6 -1
v -3 8 1
v -3 8 -1
f -2/4/1 -3/4/1 -4/4/1
f -1/4/1 -3/4/1 -2/4/1
v 2 1 5
v 2 1 2
v 2 1 1
v 2 1 -0
v 2 1 -1
v 2 1 -2
v 2 1 -3
v 2 1 -5
v 2 5 5
v 2 5 -5
v 2 6 5
v 2 6 -5
f -4/6/1 -11/6/1 -12/6/1
f -4/6/1 -5/6/1 -6/6/1
f -4/6/1 -6/6/1 -7/6/1
f -4/6/1 -7/6/1 -8/6/1
f -4/6/1 -8/6/1 -9/6/1
f -4/6/1 -9/6/1 -10/6/1
f -4/6/1 -10/6/1 -11/6/1
f -3/6/1 -5/6/1 -4/6/1
f -2/5/1 -3/5/1 -4/5/1
f -1/5/1 -3/5/1 -2/5/1
v -3 5 5
v -3 5 1
v -3 5 -1
v -3 5 -5
v -3 6 5
v -3 6 1
v -3 6 -1
v -3 6 -5
f -8/5/2 -7/5/2 -4/5/2
f -4/5/2 -7/5/2 -3/5/2
f -6/5/2 -5/5/2 -2/5/2
f -2/5/2 -5/5/2 -1/5/2
v -2 1 5
v -2 1 2
v -2 1 1
v -2 1 -1
v -2 1 -2
v -2 1 -5
v -2 4 1
v -2 4 -1
v -2 5 5
v -2 5 1
v -2 5 -1
v -2 5 -5
v -2 7 1
v -2 7 -1
f -14/6/2 -13/6/2 -8/6/2
f -10/6/2 -9/6/2 -8/6/2
f -11/6/2 -10/6/2 -8/6/2
f -12/6/2 -11/6/2 -8/6/2
f -13/6/2 -12/6/2 -8/6/2
f -8/6/2 -9/6/2 -7/6/2
f -14/6/2 -8/6/2 -6/6/2
f -8/4/2 -7/4/2 -5/4/2
f -6/6/2 -8/6/2 -5/6/2
f -7/6/2 -9/6/2 -4/6/2
f -5/4/2 -7/4/2 -4/4/2
f -4/6/2 -9/6/2 -3/6/2
f -5/4/2 -4/4/2 -2/4/2
f -2/4/2 -4/4/2 -1/4/2
v -1 7 1
v -1 7 -1
v -1 8 1
v -1 8 -1
f -4/4/2 -3/4/2 -2/4/2
f -2/4/2 -3/4/2 -1/4/2
v 3 0 6
v 3 0 -6
v 3 5 6
v 3 5 -6
f -4/6/2 -3/6/2 -2/6/2
f -2/6/2 -3/6/2 -1/6/2
v 4 5 6
v 4 5 -6
v 4 6 6
v 4 6 -6
f -4/5/2 -3/5/2 -2/5/2
f -2/5/2 -3/5/2 -1/5/2
v -4 0 6
v -4 5 6
v -4 6 6
v 3 0 6
v 3 5 6
v 4 5 6
v 4 6 6
f -4/6/3 -6/6/3 -7/6/3
f -3/5/3 -5/5/3 -6/5/3
f -3/6/3 -6/6/3 -4/6/3
f -2/5/3 -5/5/3 -3/5/3
f -1/5/3 -5/5/3 -2/5/3
v -3 5 1
v -3 6 1
v -3 8 1
v -2 5 1
v -2 7 1
v -1 7 1
v -1 8 1
f -4/4/3 -6/4/3 -7/4/3
f -4/4/3 -5/4/3 -6/4/3
f -3/4/3 -5/4/3 -4/4/3
f -2/4/3 -5/4/3 -3/4/3
f -1/4/3 -5/4/3 -2/4/3
v -3 5 -5
v -3 6 -5
v -2 1 -5
v -2 5 -5
v 2 1 -5
v 2 5 -5
v 2 6 -5
f -4/5/3 -6/5/3 -7/5/3
f -3/6/3 -4/6/3 -5/6/3
f -2/5/3 -6/5/3 -4/5/3
f -2/6/3 -4/6/3 -3/6/3
f -1/5/3 -6/5/3 -2/5/3
v -3 5 5
v -3 6 5
v -2 1 5
v -2 5 5
v 2 1 5
v 2 5 5
v 2 6 5
f -7/5/4 -6/5/4 -4/5/4
f -5/6/4 -4/6/4 -3/6/4
f -4/5/4 -6/5/4 -2/5/4
f -3/6/4 -4/6/4 -2/6/4
f -2/5/4 -6/5/4 -1/5/4
v -3 5 -1
v -3 6 -1
v -3 8 -1
v -2 5 -1
v -2 7 -1
v -1 7 -1
v -1 8 -1
f -7/4/4 -6/4/4 -4/4/4
f -6/4/4 -5/4/4 -4/4/4
f -4/4/4 -5/4/4 -3/4/4
f -3/4/4 -5/4/4 -2/4/4
f -2/4/4 -5/4/4 -1/4/4
v -4 0 -6
v -4 5 -6
v -4 6 -6
v 3 0 -6
v 3 5 -6
v 4 5 -6
v 4 6 -6
f -7/6/4 -6/6/4 -4/6/4
f -6/5/4 -5/5/4 -3/5/4
f -4/6/4 -6/6/4 -3/6/4
f -3/5/4 -5/5/4 -2/5/4
f -2/5/4 -5/5/4 -1/5/4
v -4 0 6
v 3 0 6
v -1 0 3
v 0 0 3
v -2 0 2
v -1 0 2
v 0 0 2
v 1 0 2
v 2 0 2
v -2 0 1
v -1 0 1
v 1 0 1
v 2 0 1
v -1 0 -0
v 0 0 -0
v 1 0 -0
v 2 0 -0
v -2 0 -1
v -1 0 -1
v 0 0 -1
v 1 0 -1
v 2 0 -1
v -2 0 -2
v -1 0 -2
v 0 0 -2
v 1 0 -2
v 2 0 -2
v -1 0 -3
v 0 0 -3
v 1 0 -3
v 2 0 -3
v -1 0 -4
v 0 0 -4
v -4 0 -6
v 3 0 -6
f -33/6/5 -34/6/5 -35/6/5
f -32/6/5 -34/6/5 -33/6/5
f -31/6/5 -33/6/5 -35/6/5
f -30/1/5 -32/1/5 -33/1/5
f -30/6/5 -33/6/5 -31/6/5
f -29/6/5 -34/6/5 -32/6/5
f -29/1/5 -32/1/5 -30/1/5
f -28/6/5 -34/6/5 -29/6/5
f -27/6/5 -34/6/5 -28/6/5
f -26/1/5 -30/1/5 -31/1/5
f -26/6/5 -31/6/5 -35/6/5
f -25/3/5 -29/3/5 -30/3/5
f -25/1/5 -30/1/5 -26/1/5
f -24/3/5 -27/3/5 -28/3/5
f -24/1/5 -28/1/5 -29/1/5
f -23/6/5 -34/6/5 -27/6/5
f -23/3/5 -27/3/5 -24/3/5
f -22/3/5 -29/3/5 -25/3/5
f -22/6/5 -25/6/5 -26/6/5
f -21/1/5 -24/1/5 -29/1/5
f -21/3/5 -29/3/5 -22/3/5
f -20/6/5 -23/6/5 -24/6/5
f -20/1/5 -24/1/5 -21/1/5
f -19/6/5 -34/6/5 -23/6/5
f -19/6/5 -23/6/5 -20/6/5
f -18/6/5 -22/6/5 -26/6/5
f -18/6/5 -26/6/5 -35/6/5
f -17/1/5 -21/1/5 -22/1/5
f -17/6/5 -22/6/5 -18/6/5
f -16/3/5 -20/3/5 -21/3/5
f -16/1/5 -21/1/5 -17/1/5
f -15/1/5 -19/1/5 -20/1/5
f -15/3/5 -20/3/5 -16/3/5
f -14/6/5 -34/6/5 -19/6/5
f -14/1/5 -19/1/5 -15/1/5
f -13/1/5 -17/1/5 -18/1/5
f -13/6/5 -18/6/5 -35/6/5
f -12/3/5 -15/3/5 -16/3/5
f -12/1/5 -17/1/5 -13/1/5
f -12/3/5 -16/3/5 -17/3/5
f -11/3/5 -15/3/5 -12/3/5
f -10/6/5 -14/6/5 -15/6/5
f -10/3/5 -15/3/5 -11/3/5
f -9/6/5 -34/6/5 -14/6/5
f -9/6/5 -14/6/5 -10/6/5
f -8/3/5 -11/3/5 -12/3/5
f -8/6/5 -12/6/5 -13/6/5
f -7/1/5 -10/1/5 -11/1/5
f -7/3/5 -11/3/5 -8/3/5
f -6/3/5 -9/3/5 -10/3/5
f -6/1/5 -10/1/5 -7/1/5
f -5/6/5 -34/6/5 -9/6/5
f -5/3/5 -9/3/5 -6/3/5
f -4/6/5 -8/6/5 -13/6/5
f -4/1/5 -7/1/5 -8/1/5
f -3/6/5 -6/6/5 -7/6/5
f -3/1/5 -7/1/5 -4/1/5
f -3/6/5 -5/6/5 -6/6/5
f -2/6/5 -13/6/5 -35/6/5
f -2/6/5 -4/6/5 -13/6/5
f -2/6/5 -3/6/5 -4/6/5
f -1/6/5 -5/6/5 -3/6/5
f -1/6/5 -3/6/5 -2/6/5
f -1/6/5 -34/6/5 -5/6/5
v 3 5 6
v 4 5 6
v 3 5 -6
v 4 5 -6
f -2/5/5 -3/5/5 -4/5/5
f -1/5/5 -3/5/5 -2/5/5
v -2 7 1
v -1 7 1
v -2 7 -1
v -1 7 -1
f -2/4/5 -3/4/5 -4/4/5
f -1/4/5 -3/4/5 -2/4/5
v -2 1 5
v 2 1 5
v -1 1 3
v 0 1 3
v -2 1 2
v -1 1 2
v 0 1 2
v 1 1 2
v 2 1 2
v -2 1 1
v -1 1 1
v 1 1 1
v 2 1 1
v -1 1 -0
v 0 1 -0
v 1 1 -0
v 2 1 -0
v -2 1 -1
v -1 1 -1
v 0 1 -1
v 1 1 -1
v 2 1 -1
v -2 1 -2
v -1 1 -2
v 0 1 -2
v 1 1 -2
v 2 1 -2
v -1 1 -3
v 0 1 -3
v 1 1 -3
v 2 1 -3
v -1 1 -4
v 0 1 -4
v -2 1 -5
v 2 1 -5
f -35/6/6 -34/6/6 -33/6/6
f -33/6/6 -34/6/6 -32/6/6
f -35/6/6 -33/6/6 -31/6/6
f -33/1/6 -32/1/6 -30/1/6
f -31/6/6 -33/6/6 -30/6/6
f -32/6/6 -34/6/6 -29/6/6
f -30/1/6 -32/1/6 -29/1/6
f -29/6/6 -34/6/6 -28/6/6
f -28/6/6 -34/6/6 -27/6/6
f -31/1/6 -30/1/6 -26/1/6
f -30/3/6 -29/3/6 -25/3/6
f -26/1/6 -30/1/6 -25/1/6
f -29/1/6 -28/1/6 -24/1/6
f -28/3/6 -27/3/6 -24/3/6
f -24/3/6 -27/3/6 -23/3/6
f -25/3/6 -29/3/6 -22/3/6
f -26/6/6 -25/6/6 -22/6/6
f -29/1/6 -24/1/6 -21/1/6
f -22/3/6 -29/3/6 -21/3/6
f -24/6/6 -23/6/6 -20/6/6
f -21/1/6 -24/1/6 -20/1/6
f -20/6/6 -23/6/6 -19/6/6
f -26/6/6 -22/6/6 -18/6/6
f -22/1/6 -21/1/6 -17/1/6
f -18/6/6 -22/6/6 -17/6/6
f -21/3/6 -20/3/6 -16/3/6
f -17/1/6 -21/1/6 -16/1/6
f -20/1/6 -19/1/6 -15/1/6
f -16/3/6 -20/3/6 -15/3/6
f -15/1/6 -19/1/6 -14/1/6
f -18/1/6 -17/1/6 -13/1/6
f -17/3/6 -16/3/6 -12/3/6
f -13/1/6 -17/1/6 -12/1/6
f -16/3/6 -15/3/6 -12/3/6
f -12/3/6 -15/3/6 -11/3/6
f -15/6/6 -14/6/6 -10/6/6
f -11/3/6 -15/3/6 -10/3/6
f -10/6/6 -14/6/6 -9/6/6
f -12/3/6 -11/3/6 -8/3/6
f -13/6/6 -12/6/6 -8/6/6
f -11/1/6 -10/1/6 -7/1/6
f -8/3/6 -11/3/6 -7/3/6
f -10/3/6 -9/3/6 -6/3/6
f -7/1/6 -10/1/6 -6/1/6
f -6/3/6 -9/3/6 -5/3/6
f -8/1/6 -7/1/6 -4/1/6
f -13/6/6 -8/6/6 -4/6/6
f -6/6/6 -5/6/6 -3/6/6
f -4/1/6 -7/1/6 -3/1/6
f -7/6/6 -6/6/6 -3/6/6
f -13/6/6 -4/6/6 -2/6/6
f -4/6/6 -3/6/6 -2/6/6
f -3/6/6 -5/6/6 -1/6/6
f -2/6/6 -3/6/6 -1/6/6
v -3 5 5
v -2 5 5
v -3 5 1
v -2 5 1
v -3 5 -1
v -2 5 -1
v -3 5 -5
v -2 5 -5
f -8/6/6 -7/6/6 -6/6/6
f -6/6/6 -7/6/6 -5/6/6
f -4/6/6 -3/6/6 -2/6/6
f -2/6/6 -3/6/6 -1/6/6
v -4 6 6
v 4 6 6
v -3 6 5
v 2 6 5
v -3 6 1
v -3 6 -1
v -3 6 -5
v 2 6 -5
v -4 6 -6
v 4 6 -6
f -10/5/6 -9/5/6 -8/5/6
f -8/5/6 -9/5/6 -7/5/6
f -10/5/6 -8/5/6 -6/5/6
f -10/5/6 -6/5/6 -5/5/6
f -10/5/6 -5/5/6 -4/5/6
f -7/5/6 -9/5/6 -3/5/6
f -10/5/6 -4/5/6 -2/5/6
f -4/5/6 -3/5/6 -2/5/6
f -3/5/6 -9/5/6 -1/5/6
f -2/5/6 -3/5/6 -1/5/6
v -3 8 1
v -1 8 1
v -3 8 -1
v -1 8 -1
f -4/4/6 -3/4/6 -2/4/6
f -2/4/6 -3/4/6 -1/4/6
