# MagicaVoxel @ ephtracy

# material
mtllib Manufacturing Corner 3.mtl
usemtl palette

# normals
vn -1 0 0
vn 1 0 0
vn 0 0 1
vn 0 0 -1
vn 0 -1 0
vn 0 1 0

# texcoords
vt 0.337891 0.5
vt 0.814453 0.5
vt 0.982422 0.5

# verts and faces
v -30 1 30
v -30 1 -30
v -30 35 30
v -30 35 -30
v -30 36 30
v -30 36 -30
v -30 40 30
v -30 40 -30
f -6/3/1 -7/3/1 -8/3/1
f -5/3/1 -7/3/1 -6/3/1
f -2/3/1 -3/3/1 -4/3/1
f -1/3/1 -3/3/1 -2/3/1
v -29 0 30
v -29 0 -29
v -29 1 30
v -29 1 -29
v -29 35 30
v -29 35 -29
v -29 36 30
v -29 36 -29
f -6/1/1 -7/1/1 -8/1/1
f -5/1/1 -7/1/1 -6/1/1
f -2/1/1 -3/1/1 -4/1/1
f -1/1/1 -3/1/1 -2/1/1
v -21 0 30
v -21 0 -21
v -21 1 30
v -21 1 -20
v -21 1 -21
v -21 35 30
v -21 35 -21
v -21 36 30
v -21 36 -20
v -21 36 -21
f -10/1/2 -9/1/2 -8/1/2
f -8/1/2 -9/1/2 -7/1/2
f -7/1/2 -9/1/2 -6/1/2
f -5/1/2 -4/1/2 -3/1/2
f -3/1/2 -4/1/2 -2/1/2
f -2/1/2 -4/1/2 -1/1/2
v -20 1 30
v -20 1 -20
v -20 35 30
v -20 35 -20
v -20 36 30
v -20 36 -20
v -20 40 30
v -20 40 -20
f -8/2/2 -7/2/2 -6/2/2
f -6/2/2 -7/2/2 -5/2/2
f -4/2/2 -3/2/2 -2/2/2
f -2/2/2 -3/2/2 -1/2/2
v 30 0 -21
v 30 0 -29
v 30 1 -20
v 30 1 -21
v 30 1 -29
v 30 1 -30
v 30 35 -20
v 30 35 -21
v 30 35 -29
v 30 35 -30
v 30 36 -20
v 30 36 -21
v 30 36 -29
v 30 36 -30
v 30 40 -20
v 30 40 -21
v 30 40 -29
v 30 40 -30
f -18/1/2 -17/1/2 -15/1/2
f -15/1/2 -17/1/2 -14/1/2
f -16/2/2 -15/2/2 -12/2/2
f -15/1/2 -14/1/2 -11/1/2
f -12/2/2 -15/2/2 -11/2/2
f -14/3/2 -13/3/2 -10/3/2
f -11/1/2 -14/1/2 -10/1/2
f -10/3/2 -13/3/2 -9/3/2
f -11/1/2 -10/1/2 -7/1/2
f -7/1/2 -10/1/2 -6/1/2
f -8/2/2 -7/2/2 -4/2/2
f -7/1/2 -6/1/2 -3/1/2
f -4/2/2 -7/2/2 -3/2/2
f -6/3/2 -5/3/2 -2/3/2
f -3/1/2 -6/1/2 -2/1/2
f -2/3/2 -5/3/2 -1/3/2
v -30 1 30
v -30 35 30
v -30 36 30
v -30 40 30
v -29 0 30
v -29 1 30
v -29 35 30
v -29 36 30
v -29 40 30
v -21 0 30
v -21 1 30
v -21 35 30
v -21 36 30
v -21 40 30
v -20 1 30
v -20 35 30
v -20 36 30
v -20 40 30
f -13/3/3 -17/3/3 -18/3/3
f -12/3/3 -17/3/3 -13/3/3
f -11/3/3 -15/3/3 -16/3/3
f -10/3/3 -15/3/3 -11/3/3
f -9/1/3 -12/1/3 -13/1/3
f -9/1/3 -13/1/3 -14/1/3
f -9/1/3 -10/1/3 -11/1/3
f -9/1/3 -11/1/3 -12/1/3
f -8/1/3 -10/1/3 -9/1/3
f -7/1/3 -10/1/3 -8/1/3
f -6/1/3 -10/1/3 -7/1/3
f -5/1/3 -10/1/3 -6/1/3
f -4/2/3 -7/2/3 -8/2/3
f -3/2/3 -7/2/3 -4/2/3
f -2/2/3 -5/2/3 -6/2/3
f -1/2/3 -5/2/3 -2/2/3
v -20 1 -20
v -20 35 -20
v -20 36 -20
v -20 40 -20
v 30 1 -20
v 30 35 -20
v 30 36 -20
v 30 40 -20
f -4/2/3 -7/2/3 -8/2/3
f -3/2/3 -7/2/3 -4/2/3
f -2/2/3 -5/2/3 -6/2/3
f -1/2/3 -5/2/3 -2/2/3
v -21 0 -21
v -21 1 -21
v -21 35 -21
v -21 36 -21
v -20 1 -21
v -20 36 -21
v 30 0 -21
v 30 1 -21
v 30 35 -21
v 30 36 -21
f -6/1/3 -9/1/3 -10/1/3
f -5/1/3 -7/1/3 -8/1/3
f -4/1/3 -6/1/3 -10/1/3
f -3/1/3 -6/1/3 -4/1/3
f -2/1/3 -5/1/3 -8/1/3
f -1/1/3 -5/1/3 -2/1/3
v -29 0 -29
v -29 1 -29
v -29 35 -29
v -29 36 -29
v 30 0 -29
v 30 1 -29
v 30 35 -29
v 30 36 -29
f -8/1/4 -7/1/4 -4/1/4
f -4/1/4 -7/1/4 -3/1/4
f -6/1/4 -5/1/4 -2/1/4
f -2/1/4 -5/1/4 -1/1/4
v -30 1 -30
v -30 35 -30
v -30 36 -30
v -30 40 -30
v 30 1 -30
v 30 35 -30
v 30 36 -30
v 30 40 -30
f -8/3/4 -7/3/4 -4/3/4
f -4/3/4 -7/3/4 -3/3/4
f -6/3/4 -5/3/4 -2/3/4
f -2/3/4 -5/3/4 -1/3/4
v -29 0 30
v -21 0 30
v -21 0 -21
v 30 0 -21
v -29 0 -29
v 30 0 -29
f -4/1/5 -5/1/5 -6/1/5
f -2/1/5 -4/1/5 -6/1/5
f -2/1/5 -3/1/5 -4/1/5
f -1/1/5 -3/1/5 -2/1/5
v -30 1 30
v -29 1 30
v -21 1 30
v -20 1 30
v -21 1 -20
v -20 1 -20
v 30 1 -20
v -21 1 -21
v -20 1 -21
v 30 1 -21
v -29 1 -29
v 30 1 -29
v -30 1 -30
v 30 1 -30
f -10/2/5 -11/2/5 -12/2/5
f -9/2/5 -11/2/5 -10/2/5
f -7/1/5 -9/1/5 -10/1/5
f -6/2/5 -8/2/5 -9/2/5
f -6/1/5 -9/1/5 -7/1/5
f -5/2/5 -8/2/5 -6/2/5
f -4/3/5 -13/3/5 -14/3/5
f -2/3/5 -4/3/5 -14/3/5
f -2/3/5 -3/3/5 -4/3/5
f -1/3/5 -3/3/5 -2/3/5
v -30 36 30
v -29 36 30
v -21 36 30
v -20 36 30
v -21 36 -20
v -20 36 -20
v 30 36 -20
v -21 36 -21
v -20 36 -21
v 30 36 -21
v -29 36 -29
v 30 36 -29
v -30 36 -30
v 30 36 -30
f -10/2/5 -11/2/5 -12/2/5
f -9/2/5 -11/2/5 -10/2/5
f -7/1/5 -9/1/5 -10/1/5
f -6/2/5 -8/2/5 -9/2/5
f -6/1/5 -9/1/5 -7/1/5
f -5/2/5 -8/2/5 -6/2/5
f -4/3/5 -13/3/5 -14/3/5
f -2/3/5 -4/3/5 -14/3/5
f -2/3/5 -3/3/5 -4/3/5
f -1/3/5 -3/3/5 -2/3/5
v -30 35 30
v -29 35 30
v -21 35 30
v -20 35 30
v -20 35 -20
v 30 35 -20
v -21 35 -21
v 30 35 -21
v -29 35 -29
v 30 35 -29
v -30 35 -30
v 30 35 -30
f -10/2/6 -9/2/6 -8/2/6
f -10/2/6 -8/2/6 -6/2/6
f -8/2/6 -7/2/6 -6/2/6
f -6/2/6 -7/2/6 -5/2/6
f -12/3/6 -11/3/6 -4/3/6
f -12/3/6 -4/3/6 -2/3/6
f -4/3/6 -3/3/6 -2/3/6
f -2/3/6 -3/3/6 -1/3/6
v -30 40 30
v -29 40 30
v -21 40 30
v -20 40 30
v -20 40 -20
v 30 40 -20
v -21 40 -21
v 30 40 -21
v -29 40 -29
v 30 40 -29
v -30 40 -30
v 30 40 -30
f -10/2/6 -9/2/6 -8/2/6
f -11/1/6 -10/1/6 -6/1/6
f -8/2/6 -7/2/6 -6/2/6
f -10/2/6 -8/2/6 -6/2/6
f -6/2/6 -7/2/6 -5/2/6
f -12/3/6 -11/3/6 -4/3/6
f -11/1/6 -6/1/6 -4/1/6
f -6/1/6 -5/1/6 -4/1/6
f -4/1/6 -5/1/6 -3/1/6
f -12/3/6 -4/3/6 -2/3/6
f -4/3/6 -3/3/6 -2/3/6
f -2/3/6 -3/3/6 -1/3/6
