# MagicaVoxel @ ephtracy

# material
mtllib Future Toilet.mtl
usemtl palette

# normals
vn -1 0 0
vn 1 0 0
vn 0 0 1
vn 0 0 -1
vn 0 -1 0
vn 0 1 0

# texcoords
vt 0.00195313 0.5
vt 0.287109 0.5
vt 0.306641 0.5
vt 0.310547 0.5
vt 0.337891 0.5
vt 0.958984 0.5
vt 0.966797 0.5
vt 0.974609 0.5
vt 0.990234 0.5

# verts and faces
v -4 0 -0
v -4 0 -1
v -4 1 1
v -4 1 -0
v -4 2 2
v -4 2 1
v -4 2 -1
v -4 2 -2
v -4 3 2
v -4 3 -2
v -4 9 2
v -4 9 1
v -4 10 2
v -4 10 1
f -11/5/1 -13/5/1 -14/5/1
f -9/5/1 -11/5/1 -12/5/1
f -8/5/1 -13/5/1 -11/5/1
f -8/5/1 -11/5/1 -9/5/1
f -6/5/1 -9/5/1 -10/5/1
f -6/5/1 -7/5/1 -8/5/1
f -6/5/1 -8/5/1 -9/5/1
f -5/5/1 -7/5/1 -6/5/1
f -2/8/1 -3/8/1 -4/8/1
f -1/8/1 -3/8/1 -2/8/1
v -3 2 3
v -3 2 2
v -3 2 -2
v -3 2 -3
v -3 3 3
v -3 3 2
v -3 3 -2
v -3 3 -3
v -3 4 3
v -3 4 2
v -3 4 -2
v -3 4 -3
v -3 5 3
v -3 5 -3
f -10/5/1 -13/5/1 -14/5/1
f -9/5/1 -13/5/1 -10/5/1
f -8/5/1 -11/5/1 -12/5/1
f -7/5/1 -11/5/1 -8/5/1
f -5/5/1 -8/5/1 -9/5/1
f -4/5/1 -8/5/1 -5/5/1
f -2/6/1 -5/6/1 -6/6/1
f -2/6/1 -3/6/1 -4/6/1
f -2/6/1 -4/6/1 -5/6/1
f -1/6/1 -3/6/1 -2/6/1
v -2 3 3
v -2 3 2
v -2 3 -2
v -2 3 -3
v -2 4 3
v -2 4 2
v -2 4 -2
v -2 4 -3
f -4/6/1 -7/6/1 -8/6/1
f -3/6/1 -7/6/1 -4/6/1
f -2/6/1 -5/6/1 -6/6/1
f -1/6/1 -5/6/1 -2/6/1
v 0 3 1
v 0 3 -0
v 0 3 -1
v 0 4 1
v 0 4 -0
v 0 4 -1
f -3/3/1 -5/3/1 -6/3/1
f -2/2/1 -4/2/1 -5/2/1
f -2/3/1 -5/3/1 -3/3/1
f -1/2/1 -4/2/1 -2/2/1
v 3 4 2
v 3 4 1
v 3 4 -0
v 3 4 -1
v 3 4 -2
v 3 5 2
v 3 5 -2
f -2/6/1 -6/6/1 -7/6/1
f -2/6/1 -3/6/1 -4/6/1
f -2/6/1 -4/6/1 -5/6/1
f -2/6/1 -5/6/1 -6/6/1
f -1/6/1 -3/6/1 -2/6/1
v -3 9 2
v -3 9 1
v -3 10 2
v -3 10 1
f -4/8/2 -3/8/2 -2/8/2
f -2/8/2 -3/8/2 -1/8/2
v -2 0 -0
v -2 0 -1
v -2 1 -0
v -2 1 -1
f -4/5/2 -3/5/2 -2/5/2
f -2/5/2 -3/5/2 -1/5/2
v -1 3 1
v -1 3 -1
v -1 4 2
v -1 4 1
v -1 4 -1
v -1 4 -2
v -1 5 2
v -1 5 -2
f -8/7/2 -7/7/2 -5/7/2
f -5/7/2 -7/7/2 -4/7/2
f -6/6/2 -5/6/2 -2/6/2
f -4/6/2 -3/6/2 -2/6/2
f -5/6/2 -4/6/2 -2/6/2
f -2/6/2 -3/6/2 -1/6/2
v 1 1 1
v 1 1 -1
v 1 2 1
v 1 2 -1
f -4/5/2 -3/5/2 -2/5/2
f -2/5/2 -3/5/2 -1/5/2
v 2 2 3
v 2 2 2
v 2 2 -2
v 2 2 -3
v 2 3 3
v 2 3 2
v 2 3 -2
v 2 3 -3
f -8/5/2 -7/5/2 -4/5/2
f -4/5/2 -7/5/2 -3/5/2
f -6/5/2 -5/5/2 -2/5/2
f -2/5/2 -5/5/2 -1/5/2
v 3 2 2
v 3 2 -2
v 3 3 2
v 3 3 -2
f -4/6/2 -3/6/2 -2/6/2
f -2/6/2 -3/6/2 -1/6/2
v 4 3 3
v 4 3 -3
v 4 5 3
v 4 5 -3
f -4/6/2 -3/6/2 -2/6/2
f -2/6/2 -3/6/2 -1/6/2
v -3 2 3
v -3 3 3
v -3 4 3
v -3 5 3
v -2 3 3
v -2 4 3
v 2 2 3
v 2 3 3
v 4 3 3
v 4 5 3
f -6/5/3 -9/5/3 -10/5/3
f -5/6/3 -7/6/3 -8/6/3
f -4/5/3 -6/5/3 -10/5/3
f -3/6/3 -5/6/3 -6/6/3
f -3/5/3 -6/5/3 -4/5/3
f -2/6/3 -5/6/3 -3/6/3
f -1/6/3 -7/6/3 -5/6/3
f -1/6/3 -5/6/3 -2/6/3
v -4 2 2
v -4 3 2
v -4 9 2
v -4 10 2
v -3 2 2
v -3 3 2
v -3 4 2
v -3 9 2
v -3 10 2
v -2 3 2
v -2 4 2
v 2 2 2
v 2 3 2
v 3 2 2
v 3 3 2
f -11/5/3 -14/5/3 -15/5/3
f -10/5/3 -14/5/3 -11/5/3
f -8/8/3 -12/8/3 -13/8/3
f -7/8/3 -12/8/3 -8/8/3
f -6/5/3 -9/5/3 -10/5/3
f -5/5/3 -9/5/3 -6/5/3
f -2/6/3 -3/6/3 -4/6/3
f -1/6/3 -3/6/3 -2/6/3
v -4 1 1
v -4 2 1
v -2 2 1
v 1 1 1
v 1 2 1
f -3/5/3 -4/5/3 -5/5/3
f -2/5/3 -3/5/3 -5/5/3
f -1/5/3 -3/5/3 -2/5/3
v -4 0 -0
v -4 1 -0
v -2 0 -0
v -2 1 -0
f -2/5/3 -3/5/3 -4/5/3
f -1/5/3 -3/5/3 -2/5/3
v -1 3 -1
v -1 4 -1
v 0 3 -1
v 0 4 -1
f -2/4/3 -3/4/3 -4/4/3
f -1/4/3 -3/4/3 -2/4/3
v -1 4 -2
v -1 5 -2
v 0 4 -2
v 1 4 -2
v 2 4 -2
v 3 4 -2
v 3 5 -2
f -5/6/3 -6/6/3 -7/6/3
f -4/6/3 -6/6/3 -5/6/3
f -3/6/3 -6/6/3 -4/6/3
f -2/6/3 -6/6/3 -3/6/3
f -1/6/3 -6/6/3 -2/6/3
v -1 4 2
v -1 5 2
v 0 4 2
v 1 4 2
v 2 4 2
v 3 4 2
v 3 5 2
f -7/6/4 -6/6/4 -5/6/4
f -5/6/4 -6/6/4 -4/6/4
f -4/6/4 -6/6/4 -3/6/4
f -3/6/4 -6/6/4 -2/6/4
f -2/6/4 -6/6/4 -1/6/4
v -4 9 1
v -4 10 1
v -3 9 1
v -3 10 1
v -1 3 1
v -1 4 1
v 0 3 1
v 0 4 1
f -8/8/4 -7/8/4 -6/8/4
f -6/8/4 -7/8/4 -5/8/4
f -4/4/4 -3/4/4 -2/4/4
f -2/4/4 -3/4/4 -1/4/4
v -4 0 -1
v -4 2 -1
v -2 0 -1
v -2 1 -1
v -2 2 -1
v 1 1 -1
v 1 2 -1
f -7/5/4 -6/5/4 -5/5/4
f -5/5/4 -6/5/4 -4/5/4
f -4/5/4 -6/5/4 -3/5/4
f -4/5/4 -3/5/4 -2/5/4
f -2/5/4 -3/5/4 -1/5/4
v -4 2 -2
v -4 3 -2
v -3 2 -2
v -3 3 -2
v -3 4 -2
v -2 3 -2
v -2 4 -2
v 2 2 -2
v 2 3 -2
v 3 2 -2
v 3 3 -2
f -11/5/4 -10/5/4 -9/5/4
f -9/5/4 -10/5/4 -8/5/4
f -8/5/4 -7/5/4 -6/5/4
f -6/5/4 -7/5/4 -5/5/4
f -4/6/4 -3/6/4 -2/6/4
f -2/6/4 -3/6/4 -1/6/4
v -3 2 -3
v -3 3 -3
v -3 4 -3
v -3 5 -3
v -2 3 -3
v -2 4 -3
v 2 2 -3
v 2 3 -3
v 4 3 -3
v 4 5 -3
f -10/5/4 -9/5/4 -6/5/4
f -8/6/4 -7/6/4 -5/6/4
f -10/5/4 -6/5/4 -4/5/4
f -6/6/4 -5/6/4 -3/6/4
f -4/5/4 -6/5/4 -3/5/4
f -3/6/4 -5/6/4 -2/6/4
f -5/6/4 -7/6/4 -1/6/4
f -2/6/4 -5/6/4 -1/6/4
v -4 0 -0
v -2 0 -0
v -4 0 -1
v -2 0 -1
f -2/5/5 -3/5/5 -4/5/5
f -1/5/5 -3/5/5 -2/5/5
v -4 1 1
v 1 1 1
v -4 1 -0
v -2 1 -0
v -2 1 -1
v 1 1 -1
f -4/5/5 -5/5/5 -6/5/5
f -3/5/5 -5/5/5 -4/5/5
f -2/5/5 -5/5/5 -3/5/5
f -1/5/5 -5/5/5 -2/5/5
v -3 2 3
v 2 2 3
v -4 2 2
v -3 2 2
v -2 2 2
v 2 2 2
v 3 2 2
v -4 2 1
v -2 2 1
v 1 2 1
v -4 2 -1
v -2 2 -1
v 1 2 -1
v -4 2 -2
v -3 2 -2
v -2 2 -2
v 2 2 -2
v 3 2 -2
v -3 2 -3
v 2 2 -3
f -17/5/5 -19/5/5 -20/5/5
f -16/5/5 -19/5/5 -17/5/5
f -15/5/5 -19/5/5 -16/5/5
f -13/5/5 -17/5/5 -18/5/5
f -13/5/5 -16/5/5 -17/5/5
f -12/6/5 -14/6/5 -15/6/5
f -12/5/5 -16/5/5 -13/5/5
f -12/6/5 -15/6/5 -16/6/5
f -11/6/5 -14/6/5 -12/6/5
f -8/6/5 -14/6/5 -11/6/5
f -7/5/5 -9/5/5 -10/5/5
f -6/5/5 -9/5/5 -7/5/5
f -5/6/5 -8/6/5 -9/6/5
f -5/5/5 -9/5/5 -6/5/5
f -4/6/5 -14/6/5 -8/6/5
f -4/6/5 -8/6/5 -5/6/5
f -3/6/5 -14/6/5 -4/6/5
f -2/5/5 -5/5/5 -6/5/5
f -2/5/5 -4/5/5 -5/5/5
f -1/5/5 -4/5/5 -2/5/5
v 2 3 3
v 4 3 3
v 2 3 2
v 3 3 2
v 2 3 -2
v 3 3 -2
v 2 3 -3
v 4 3 -3
f -6/6/5 -7/6/5 -8/6/5
f -5/6/5 -7/6/5 -6/6/5
f -3/6/5 -7/6/5 -5/6/5
f -2/6/5 -3/6/5 -4/6/5
f -1/6/5 -7/6/5 -3/6/5
f -1/6/5 -3/6/5 -2/6/5
v -3 4 3
v -2 4 3
v -3 4 2
v -2 4 2
v -3 4 -2
v -2 4 -2
v -3 4 -3
v -2 4 -3
f -6/6/5 -7/6/5 -8/6/5
f -5/6/5 -7/6/5 -6/6/5
f -2/6/5 -3/6/5 -4/6/5
f -1/6/5 -3/6/5 -2/6/5
v -4 9 2
v -3 9 2
v -4 9 1
v -3 9 1
f -2/8/5 -3/8/5 -4/8/5
f -1/8/5 -3/8/5 -2/8/5
v -3 3 3
v -2 3 3
v -4 3 2
v -3 3 2
v -2 3 2
v -1 3 1
v 0 3 1
v 0 3 -0
v -1 3 -1
v 0 3 -1
v -4 3 -2
v -3 3 -2
v -2 3 -2
v -3 3 -3
v -2 3 -3
f -15/5/6 -14/5/6 -12/5/6
f -12/5/6 -14/5/6 -11/5/6
f -10/9/6 -9/9/6 -8/9/6
f -10/9/6 -8/9/6 -7/9/6
f -7/9/6 -8/9/6 -6/9/6
f -13/5/6 -12/5/6 -5/5/6
f -5/5/6 -12/5/6 -4/5/6
f -4/5/6 -3/5/6 -2/5/6
f -2/5/6 -3/5/6 -1/5/6
v -1 4 2
v 0 4 2
v 1 4 2
v 2 4 2
v 3 4 2
v -1 4 1
v 0 4 1
v 1 4 1
v 2 4 1
v 3 4 1
v 0 4 -0
v 1 4 -0
v 2 4 -0
v 3 4 -0
v -1 4 -1
v 0 4 -1
v 1 4 -1
v 2 4 -1
v 3 4 -1
v -1 4 -2
v 0 4 -2
v 1 4 -2
v 2 4 -2
v 3 4 -2
f -24/4/6 -23/4/6 -19/4/6
f -23/6/6 -22/6/6 -18/6/6
f -19/4/6 -23/4/6 -18/4/6
f -22/3/6 -21/3/6 -17/3/6
f -18/6/6 -22/6/6 -17/6/6
f -21/6/6 -20/6/6 -16/6/6
f -17/3/6 -21/3/6 -16/3/6
f -16/6/6 -20/6/6 -15/6/6
f -18/3/6 -17/3/6 -14/3/6
f -17/6/6 -16/6/6 -13/6/6
f -14/3/6 -17/3/6 -13/3/6
f -16/3/6 -15/3/6 -12/3/6
f -13/6/6 -16/6/6 -12/6/6
f -12/3/6 -15/3/6 -11/3/6
f -14/2/6 -13/2/6 -9/2/6
f -13/4/6 -12/4/6 -8/4/6
f -9/2/6 -13/2/6 -8/2/6
f -12/6/6 -11/6/6 -7/6/6
f -8/4/6 -12/4/6 -7/4/6
f -7/6/6 -11/6/6 -6/6/6
f -10/4/6 -9/4/6 -5/4/6
f -9/1/6 -8/1/6 -4/1/6
f -5/4/6 -9/4/6 -4/4/6
f -8/2/6 -7/2/6 -3/2/6
f -4/1/6 -8/1/6 -3/1/6
f -7/3/6 -6/3/6 -2/3/6
f -3/2/6 -7/2/6 -2/2/6
f -2/3/6 -6/3/6 -1/3/6
v -3 5 3
v 4 5 3
v -1 5 2
v 3 5 2
v -1 5 -2
v 3 5 -2
v -3 5 -3
v 4 5 -3
f -8/6/6 -7/6/6 -6/6/6
f -6/6/6 -7/6/6 -5/6/6
f -8/6/6 -6/6/6 -4/6/6
f -5/6/6 -7/6/6 -3/6/6
f -8/6/6 -4/6/6 -2/6/6
f -4/6/6 -3/6/6 -2/6/6
f -3/6/6 -7/6/6 -1/6/6
f -2/6/6 -3/6/6 -1/6/6
v -4 10 2
v -3 10 2
v -4 10 1
v -3 10 1
f -4/8/6 -3/8/6 -2/8/6
f -2/8/6 -3/8/6 -1/8/6
