# MagicaVoxel @ ephtracy

# material
mtllib Green House Wall Glass 2.mtl
usemtl palette

# normals
vn -1 0 0
vn 1 0 0
vn 0 0 1
vn 0 0 -1
vn 0 -1 0
vn 0 1 0

# texcoords
vt 0.287109 0.5

# verts and faces
v -14 0 0.5
v -14 0 -0.5
v -14 38 0.5
v -14 38 -0.5
f -2/1/1 -3/1/1 -4/1/1
f -1/1/1 -3/1/1 -2/1/1
v 14 0 0.5
v 14 0 -0.5
v 14 38 0.5
v 14 38 -0.5
f -4/1/2 -3/1/2 -2/1/2
f -2/1/2 -3/1/2 -1/1/2
v -14 0 0.5
v -14 38 0.5
v 14 0 0.5
v 14 38 0.5
f -2/1/3 -3/1/3 -4/1/3
f -1/1/3 -3/1/3 -2/1/3
v -14 0 -0.5
v -14 38 -0.5
v 14 0 -0.5
v 14 38 -0.5
f -4/1/4 -3/1/4 -2/1/4
f -2/1/4 -3/1/4 -1/1/4
v -14 0 0.5
v 14 0 0.5
v -14 0 -0.5
v 14 0 -0.5
f -2/1/5 -3/1/5 -4/1/5
f -1/1/5 -3/1/5 -2/1/5
v -14 38 0.5
v 14 38 0.5
v -14 38 -0.5
v 14 38 -0.5
f -4/1/6 -3/1/6 -2/1/6
f -2/1/6 -3/1/6 -1/1/6
