# MagicaVoxel @ ephtracy

# material
mtllib Security Corner.mtl
usemtl palette

# normals
vn -1 0 0
vn 1 0 0
vn 0 0 1
vn 0 0 -1
vn 0 -1 0
vn 0 1 0

# texcoords
vt 0.337891 0.5
vt 0.966797 0.5

# verts and faces
v -30 0 30
v -30 0 -30
v -30 1 29
v -30 1 -30
v -30 39 29
v -30 39 -30
v -30 40 30
v -30 40 -30
f -6/2/1 -7/2/1 -8/2/1
f -5/2/1 -7/2/1 -6/2/1
f -4/2/1 -6/2/1 -8/2/1
f -2/2/1 -4/2/1 -8/2/1
f -2/2/1 -3/2/1 -4/2/1
f -1/2/1 -3/2/1 -2/2/1
v -29 1 29
v -29 1 -29
v -29 39 29
v -29 39 -29
f -2/1/1 -3/1/1 -4/1/1
f -1/1/1 -3/1/1 -2/1/1
v 29 1 -29
v 29 1 -30
v 29 2 -20
v 29 2 -21
v 29 39 -20
v 29 39 -21
v 29 39 -29
v 29 39 -30
f -4/2/1 -5/2/1 -6/2/1
f -3/2/1 -5/2/1 -4/2/1
f -2/2/1 -7/2/1 -8/2/1
f -1/2/1 -7/2/1 -2/2/1
v -21 2 29
v -21 2 -21
v -21 39 29
v -21 39 -21
f -4/1/2 -3/1/2 -2/1/2
f -2/1/2 -3/1/2 -1/1/2
v -20 0 30
v -20 0 -20
v -20 1 29
v -20 1 -20
v -20 2 29
v -20 2 -20
v -20 39 29
v -20 39 -20
v -20 40 30
v -20 40 -20
f -10/2/2 -9/2/2 -8/2/2
f -8/2/2 -9/2/2 -7/2/2
f -10/2/2 -8/2/2 -6/2/2
f -8/1/2 -7/1/2 -6/1/2
f -6/1/2 -7/1/2 -5/1/2
f -10/2/2 -6/2/2 -4/2/2
f -10/2/2 -4/2/2 -2/2/2
f -4/2/2 -3/2/2 -2/2/2
f -2/2/2 -3/2/2 -1/2/2
v 30 0 -20
v 30 0 -30
v 30 40 -20
v 30 40 -30
f -4/2/2 -3/2/2 -2/2/2
f -2/2/2 -3/2/2 -1/2/2
v -30 0 30
v -30 40 30
v -20 0 30
v -20 40 30
f -2/2/3 -3/2/3 -4/2/3
f -1/2/3 -3/2/3 -2/2/3
v -20 0 -20
v -20 1 -20
v -20 2 -20
v -20 39 -20
v -20 40 -20
v 29 1 -20
v 29 2 -20
v 29 39 -20
v 30 0 -20
v 30 40 -20
f -5/2/3 -9/2/3 -10/2/3
f -5/1/3 -8/1/3 -9/1/3
f -4/1/3 -8/1/3 -5/1/3
f -3/2/3 -6/2/3 -7/2/3
f -2/2/3 -4/2/3 -5/2/3
f -2/2/3 -3/2/3 -4/2/3
f -2/2/3 -5/2/3 -10/2/3
f -1/2/3 -6/2/3 -3/2/3
f -1/2/3 -3/2/3 -2/2/3
v -21 2 -21
v -21 39 -21
v 29 2 -21
v 29 39 -21
f -2/1/3 -3/1/3 -4/1/3
f -1/1/3 -3/1/3 -2/1/3
v -30 1 29
v -30 39 29
v -29 1 29
v -29 39 29
v -21 2 29
v -21 39 29
v -20 2 29
v -20 39 29
f -8/2/4 -7/2/4 -6/2/4
f -6/2/4 -7/2/4 -5/2/4
f -4/2/4 -3/2/4 -2/2/4
f -2/2/4 -3/2/4 -1/2/4
v -29 1 -29
v -29 39 -29
v 29 1 -29
v 29 39 -29
f -4/1/4 -3/1/4 -2/1/4
f -2/1/4 -3/1/4 -1/1/4
v -30 0 -30
v -30 1 -30
v -30 39 -30
v -30 40 -30
v 29 1 -30
v 29 39 -30
v 30 0 -30
v 30 40 -30
f -8/2/4 -7/2/4 -4/2/4
f -6/2/4 -5/2/4 -3/2/4
f -8/2/4 -4/2/4 -2/2/4
f -4/2/4 -3/2/4 -2/2/4
f -3/2/4 -5/2/4 -1/2/4
f -2/2/4 -3/2/4 -1/2/4
v -30 0 30
v -20 0 30
v -20 0 -20
v 30 0 -20
v -30 0 -30
v 30 0 -30
f -4/2/5 -5/2/5 -6/2/5
f -2/2/5 -4/2/5 -6/2/5
f -2/2/5 -3/2/5 -4/2/5
f -1/2/5 -3/2/5 -2/2/5
v -30 39 29
v -29 39 29
v -21 39 29
v -20 39 29
v -20 39 -20
v 29 39 -20
v -21 39 -21
v 29 39 -21
v -29 39 -29
v 29 39 -29
v -30 39 -30
v 29 39 -30
f -8/2/5 -9/2/5 -10/2/5
f -6/2/5 -8/2/5 -10/2/5
f -6/2/5 -7/2/5 -8/2/5
f -5/2/5 -7/2/5 -6/2/5
f -4/2/5 -11/2/5 -12/2/5
f -2/2/5 -4/2/5 -12/2/5
f -2/2/5 -3/2/5 -4/2/5
f -1/2/5 -3/2/5 -2/2/5
v -30 1 29
v -29 1 29
v -29 1 -29
v 29 1 -29
v -30 1 -30
v 29 1 -30
f -6/2/6 -5/2/6 -4/2/6
f -6/2/6 -4/2/6 -2/2/6
f -4/2/6 -3/2/6 -2/2/6
f -2/2/6 -3/2/6 -1/2/6
v -21 2 29
v -20 2 29
v -20 2 -20
v 29 2 -20
v -21 2 -21
v 29 2 -21
f -6/1/6 -5/1/6 -4/1/6
f -6/1/6 -4/1/6 -2/1/6
f -4/1/6 -3/1/6 -2/1/6
f -2/1/6 -3/1/6 -1/1/6
v -30 40 30
v -20 40 30
v -20 40 -20
v 30 40 -20
v -30 40 -30
v 30 40 -30
f -6/2/6 -5/2/6 -4/2/6
f -6/2/6 -4/2/6 -2/2/6
f -4/2/6 -3/2/6 -2/2/6
f -2/2/6 -3/2/6 -1/2/6
