# MagicaVoxel @ ephtracy

# material
mtllib 2d Trees.mtl
usemtl palette

# normals
vn -1 0 0
vn 1 0 0
vn 0 0 1
vn 0 0 -1
vn 0 -1 0
vn 0 1 0

# texcoords
vt 0.537109 0.5
vt 0.962891 0.5
vt 0.990234 0.5

# verts and faces
v -6.5 8 1
v -6.5 8 -0
v -6.5 13 1
v -6.5 13 -0
f -2/2/1 -3/2/1 -4/2/1
f -1/2/1 -3/2/1 -2/2/1
v -5.5 0 2
v -5.5 0 -2
v -5.5 1 2
v -5.5 1 -2
v -5.5 7 1
v -5.5 7 -0
v -5.5 8 1
v -5.5 8 -0
f -6/1/1 -7/1/1 -8/1/1
f -5/1/1 -7/1/1 -6/1/1
f -2/2/1 -3/2/1 -4/2/1
f -1/2/1 -3/2/1 -2/2/1
v -4.5 1 1
v -4.5 1 -0
v -4.5 4 -0
v -4.5 4 -1
v -4.5 7 1
v -4.5 7 -0
v -4.5 9 -0
v -4.5 9 -1
f -6/3/1 -7/3/1 -8/3/1
f -4/3/1 -6/3/1 -8/3/1
f -3/2/1 -5/2/1 -6/2/1
f -3/3/1 -6/3/1 -4/3/1
f -2/2/1 -5/2/1 -3/2/1
f -1/2/1 -5/2/1 -2/2/1
v -2.5 1 -0
v -2.5 1 -1
v -2.5 4 -0
v -2.5 4 -1
f -2/3/1 -3/3/1 -4/3/1
f -1/3/1 -3/3/1 -2/3/1
v -0.5 1 1
v -0.5 1 -0
v -0.5 4 -0
v -0.5 8 1
v -0.5 8 -0
f -3/3/1 -4/3/1 -5/3/1
f -2/3/1 -3/3/1 -5/3/1
f -1/3/1 -3/3/1 -2/3/1
v 1.5 1 -0
v 1.5 1 -1
v 1.5 5 -0
v 1.5 5 -1
f -2/3/1 -3/3/1 -4/3/1
f -1/3/1 -3/3/1 -2/3/1
v 2.5 7 1
v 2.5 7 -0
v 2.5 8 -0
v 2.5 13 1
v 2.5 13 -0
f -3/2/1 -4/2/1 -5/2/1
f -2/2/1 -3/2/1 -5/2/1
f -1/2/1 -3/2/1 -2/2/1
v 3.5 1 1
v 3.5 1 -0
v 3.5 5 -0
v 3.5 7 1
v 3.5 7 -0
f -3/3/1 -4/3/1 -5/3/1
f -2/3/1 -3/3/1 -5/3/1
f -1/3/1 -3/3/1 -2/3/1
v -3.5 1 1
v -3.5 1 -0
v -3.5 4 -0
v -3.5 8 1
v -3.5 8 -0
f -5/3/2 -4/3/2 -3/3/2
f -5/3/2 -3/3/2 -2/3/2
f -2/3/2 -3/3/2 -1/3/2
v -2.5 12 1
v -2.5 12 -0
v -2.5 13 1
v -2.5 13 -0
f -4/2/2 -3/2/2 -2/2/2
f -2/2/2 -3/2/2 -1/2/2
v -1.5 1 -0
v -1.5 1 -1
v -1.5 4 -0
v -1.5 4 -1
f -4/3/2 -3/3/2 -2/3/2
f -2/3/2 -3/3/2 -1/3/2
v -0.5 4 -0
v -0.5 4 -1
v -0.5 5 -0
v -0.5 5 -1
v -0.5 8 -0
v -0.5 8 -1
v -0.5 9 -0
v -0.5 9 -1
f -8/2/2 -7/2/2 -6/2/2
f -6/2/2 -7/2/2 -5/2/2
f -4/2/2 -3/2/2 -2/2/2
f -2/2/2 -3/2/2 -1/2/2
v 0.5 1 1
v 0.5 1 -0
v 0.5 5 -0
v 0.5 8 1
v 0.5 8 -0
f -5/3/2 -4/3/2 -3/3/2
f -5/3/2 -3/3/2 -2/3/2
f -2/3/2 -3/3/2 -1/3/2
v 1.5 8 1
v 1.5 8 -0
v 1.5 12 1
v 1.5 12 -0
f -4/2/2 -3/2/2 -2/2/2
f -2/2/2 -3/2/2 -1/2/2
v 2.5 1 -0
v 2.5 1 -1
v 2.5 5 -0
v 2.5 5 -1
f -4/3/2 -3/3/2 -2/3/2
f -2/3/2 -3/3/2 -1/3/2
v 4.5 1 1
v 4.5 1 -0
v 4.5 5 -0
v 4.5 5 -1
v 4.5 7 1
v 4.5 7 -0
v 4.5 8 -0
v 4.5 8 -1
f -8/3/2 -7/3/2 -6/3/2
f -8/3/2 -6/3/2 -4/3/2
f -6/2/2 -5/2/2 -3/2/2
f -4/3/2 -6/3/2 -3/3/2
f -3/2/2 -5/2/2 -2/2/2
f -2/2/2 -5/2/2 -1/2/2
v 5.5 0 2
v 5.5 0 -2
v 5.5 1 2
v 5.5 1 -2
f -4/1/2 -3/1/2 -2/1/2
f -2/1/2 -3/1/2 -1/1/2
v 6.5 7 1
v 6.5 7 -0
v 6.5 13 1
v 6.5 13 -0
f -4/2/2 -3/2/2 -2/2/2
f -2/2/2 -3/2/2 -1/2/2
v -5.5 0 2
v -5.5 1 2
v 5.5 0 2
v 5.5 1 2
f -2/1/3 -3/1/3 -4/1/3
f -1/1/3 -3/1/3 -2/1/3
v -6.5 8 1
v -6.5 13 1
v -5.5 7 1
v -5.5 8 1
v -4.5 1 1
v -4.5 7 1
v -4.5 10 1
v -3.5 1 1
v -3.5 8 1
v -3.5 10 1
v -2.5 12 1
v -2.5 13 1
v -0.5 1 1
v -0.5 8 1
v -0.5 10 1
v 0.5 1 1
v 0.5 8 1
v 0.5 10 1
v 1.5 8 1
v 1.5 12 1
v 2.5 7 1
v 2.5 13 1
v 3.5 1 1
v 3.5 7 1
v 3.5 10 1
v 4.5 1 1
v 4.5 7 1
v 4.5 10 1
v 6.5 7 1
v 6.5 13 1
f -27/2/3 -29/2/3 -30/2/3
f -25/2/3 -27/2/3 -28/2/3
f -24/2/3 -29/2/3 -27/2/3
f -24/2/3 -27/2/3 -25/2/3
f -23/3/3 -25/3/3 -26/3/3
f -23/3/3 -24/3/3 -25/3/3
f -22/3/3 -24/3/3 -23/3/3
f -21/2/3 -29/2/3 -24/2/3
f -21/3/3 -24/3/3 -22/3/3
f -20/2/3 -29/2/3 -21/2/3
f -20/2/3 -21/2/3 -22/2/3
f -19/2/3 -29/2/3 -20/2/3
f -17/2/3 -20/2/3 -22/2/3
f -16/2/3 -20/2/3 -17/2/3
f -15/3/3 -17/3/3 -18/3/3
f -15/3/3 -16/3/3 -17/3/3
f -14/3/3 -16/3/3 -15/3/3
f -13/2/3 -20/2/3 -16/2/3
f -13/3/3 -16/3/3 -14/3/3
f -12/2/3 -13/2/3 -14/2/3
f -11/2/3 -20/2/3 -13/2/3
f -11/2/3 -13/2/3 -12/2/3
f -7/2/3 -9/2/3 -10/2/3
f -6/2/3 -9/2/3 -7/2/3
f -5/3/3 -7/3/3 -8/3/3
f -5/3/3 -6/3/3 -7/3/3
f -4/3/3 -6/3/3 -5/3/3
f -3/2/3 -9/2/3 -6/2/3
f -3/3/3 -6/3/3 -4/3/3
f -2/2/3 -3/2/3 -4/2/3
f -1/2/3 -9/2/3 -3/2/3
f -1/2/3 -3/2/3 -2/2/3
v -3.5 4 -0
v -3.5 8 -0
v -2.5 1 -0
v -2.5 4 -0
v -2.5 6 -0
v -1.5 1 -0
v -1.5 4 -0
v -1.5 6 -0
v -0.5 4 -0
v -0.5 8 -0
v 0.5 5 -0
v 0.5 8 -0
v 1.5 1 -0
v 1.5 5 -0
v 1.5 6 -0
v 1.5 8 -0
v 2.5 1 -0
v 2.5 5 -0
v 2.5 6 -0
v 2.5 7 -0
v 2.5 8 -0
v 3.5 5 -0
v 3.5 7 -0
f -20/2/3 -22/2/3 -23/2/3
f -19/2/3 -22/2/3 -20/2/3
f -18/3/3 -20/3/3 -21/3/3
f -18/3/3 -19/3/3 -20/3/3
f -17/3/3 -19/3/3 -18/3/3
f -16/2/3 -22/2/3 -19/2/3
f -16/3/3 -19/3/3 -17/3/3
f -15/2/3 -16/2/3 -17/2/3
f -14/2/3 -22/2/3 -16/2/3
f -14/2/3 -16/2/3 -15/2/3
f -10/2/3 -12/2/3 -13/2/3
f -9/2/3 -12/2/3 -10/2/3
f -8/2/3 -12/2/3 -9/2/3
f -7/3/3 -10/3/3 -11/3/3
f -7/3/3 -9/3/3 -10/3/3
f -6/3/3 -9/3/3 -7/3/3
f -5/2/3 -8/2/3 -9/2/3
f -5/3/3 -9/3/3 -6/3/3
f -4/2/3 -8/2/3 -5/2/3
f -3/2/3 -8/2/3 -4/2/3
f -2/2/3 -5/2/3 -6/2/3
f -2/2/3 -4/2/3 -5/2/3
f -1/2/3 -4/2/3 -2/2/3
v -6.5 8 -0
v -6.5 13 -0
v -5.5 7 -0
v -5.5 8 -0
v -4.5 1 -0
v -4.5 4 -0
v -4.5 7 -0
v -4.5 9 -0
v -4.5 10 -0
v -3.5 1 -0
v -3.5 4 -0
v -3.5 9 -0
v -3.5 10 -0
v -2.5 12 -0
v -2.5 13 -0
v -0.5 1 -0
v -0.5 4 -0
v -0.5 5 -0
v -0.5 8 -0
v -0.5 9 -0
v -0.5 10 -0
v 0.5 1 -0
v 0.5 5 -0
v 0.5 8 -0
v 0.5 10 -0
v 1.5 8 -0
v 1.5 12 -0
v 2.5 8 -0
v 2.5 13 -0
v 3.5 1 -0
v 3.5 5 -0
v 3.5 8 -0
v 3.5 10 -0
v 4.5 1 -0
v 4.5 5 -0
v 4.5 7 -0
v 4.5 8 -0
v 4.5 10 -0
v 6.5 7 -0
v 6.5 13 -0
f -40/2/4 -39/2/4 -37/2/4
f -38/2/4 -37/2/4 -34/2/4
f -37/2/4 -39/2/4 -33/2/4
f -34/2/4 -37/2/4 -33/2/4
f -33/2/4 -39/2/4 -32/2/4
f -36/3/4 -35/3/4 -31/3/4
f -31/3/4 -35/3/4 -30/3/4
f -33/3/4 -32/3/4 -29/3/4
f -32/2/4 -39/2/4 -28/2/4
f -29/3/4 -32/3/4 -28/3/4
f -28/2/4 -39/2/4 -27/2/4
f -29/2/4 -28/2/4 -27/2/4
f -27/2/4 -39/2/4 -26/2/4
f -29/2/4 -27/2/4 -21/2/4
f -21/2/4 -27/2/4 -20/2/4
f -24/3/4 -23/3/4 -19/3/4
f -25/3/4 -24/3/4 -19/3/4
f -19/3/4 -23/3/4 -18/3/4
f -21/3/4 -20/3/4 -17/3/4
f -22/3/4 -21/3/4 -17/3/4
f -20/2/4 -27/2/4 -16/2/4
f -17/3/4 -20/3/4 -16/3/4
f -17/2/4 -16/2/4 -15/2/4
f -16/2/4 -27/2/4 -14/2/4
f -15/2/4 -16/2/4 -14/2/4
f -13/2/4 -12/2/4 -9/2/4
f -9/2/4 -12/2/4 -8/2/4
f -11/3/4 -10/3/4 -7/3/4
f -7/3/4 -10/3/4 -6/3/4
f -9/3/4 -8/3/4 -4/3/4
f -8/2/4 -12/2/4 -3/2/4
f -4/3/4 -8/3/4 -3/3/4
f -5/2/4 -4/2/4 -2/2/4
f -4/2/4 -3/2/4 -2/2/4
f -3/2/4 -12/2/4 -1/2/4
f -2/2/4 -3/2/4 -1/2/4
v -4.5 4 -1
v -4.5 9 -1
v -2.5 1 -1
v -2.5 4 -1
v -2.5 6 -1
v -1.5 1 -1
v -1.5 4 -1
v -1.5 6 -1
v -0.5 4 -1
v -0.5 5 -1
v -0.5 8 -1
v -0.5 9 -1
v 1.5 1 -1
v 1.5 5 -1
v 1.5 6 -1
v 2.5 1 -1
v 2.5 5 -1
v 2.5 6 -1
v 4.5 5 -1
v 4.5 8 -1
f -20/2/4 -19/2/4 -17/2/4
f -17/2/4 -19/2/4 -16/2/4
f -18/3/4 -17/3/4 -15/3/4
f -17/3/4 -16/3/4 -15/3/4
f -15/3/4 -16/3/4 -14/3/4
f -16/2/4 -19/2/4 -13/2/4
f -14/3/4 -16/3/4 -13/3/4
f -14/2/4 -13/2/4 -12/2/4
f -12/2/4 -13/2/4 -11/2/4
f -13/2/4 -19/2/4 -10/2/4
f -11/2/4 -13/2/4 -10/2/4
f -10/2/4 -19/2/4 -9/2/4
f -11/2/4 -10/2/4 -7/2/4
f -7/2/4 -10/2/4 -6/2/4
f -8/3/4 -7/3/4 -5/3/4
f -7/3/4 -6/3/4 -5/3/4
f -5/3/4 -6/3/4 -4/3/4
f -6/2/4 -10/2/4 -3/2/4
f -4/3/4 -6/3/4 -3/3/4
f -4/2/4 -3/2/4 -2/2/4
f -3/2/4 -10/2/4 -1/2/4
f -2/2/4 -3/2/4 -1/2/4
v -5.5 0 -2
v -5.5 1 -2
v 5.5 0 -2
v 5.5 1 -2
f -4/1/4 -3/1/4 -2/1/4
f -2/1/4 -3/1/4 -1/1/4
v -5.5 0 2
v 5.5 0 2
v -5.5 0 -2
v 5.5 0 -2
f -2/1/5 -3/1/5 -4/1/5
f -1/1/5 -3/1/5 -2/1/5
v -4.5 4 -0
v -3.5 4 -0
v -2.5 4 -0
v -1.5 4 -0
v -0.5 4 -0
v -4.5 4 -1
v -2.5 4 -1
v -1.5 4 -1
v -0.5 4 -1
f -4/2/5 -8/2/5 -9/2/5
f -4/2/5 -7/2/5 -8/2/5
f -3/2/5 -7/2/5 -4/2/5
f -2/2/5 -5/2/5 -6/2/5
f -1/2/5 -5/2/5 -2/2/5
v -0.5 5 -0
v 0.5 5 -0
v 1.5 5 -0
v 2.5 5 -0
v 3.5 5 -0
v 4.5 5 -0
v -0.5 5 -1
v 1.5 5 -1
v 2.5 5 -1
v 4.5 5 -1
f -4/2/5 -9/2/5 -10/2/5
f -4/2/5 -8/2/5 -9/2/5
f -3/2/5 -8/2/5 -4/2/5
f -2/2/5 -5/2/5 -6/2/5
f -2/2/5 -6/2/5 -7/2/5
f -1/2/5 -5/2/5 -2/2/5
v -5.5 7 1
v -4.5 7 1
v 2.5 7 1
v 3.5 7 1
v 4.5 7 1
v 6.5 7 1
v -5.5 7 -0
v -4.5 7 -0
v 2.5 7 -0
v 3.5 7 -0
v 4.5 7 -0
v 6.5 7 -0
f -6/2/5 -11/2/5 -12/2/5
f -5/2/5 -11/2/5 -6/2/5
f -4/2/5 -9/2/5 -10/2/5
f -3/2/5 -9/2/5 -4/2/5
f -2/2/5 -7/2/5 -8/2/5
f -1/2/5 -7/2/5 -2/2/5
v -6.5 8 1
v -5.5 8 1
v -3.5 8 1
v -0.5 8 1
v 0.5 8 1
v 1.5 8 1
v -6.5 8 -0
v -5.5 8 -0
v -3.5 8 -0
v -0.5 8 -0
v 0.5 8 -0
v 1.5 8 -0
f -6/2/5 -11/2/5 -12/2/5
f -5/2/5 -11/2/5 -6/2/5
f -4/2/5 -9/2/5 -10/2/5
f -3/2/5 -9/2/5 -4/2/5
f -2/2/5 -7/2/5 -8/2/5
f -1/2/5 -7/2/5 -2/2/5
v -5.5 1 2
v 5.5 1 2
v -4.5 1 1
v -3.5 1 1
v -0.5 1 1
v 0.5 1 1
v 3.5 1 1
v 4.5 1 1
v -4.5 1 -0
v -3.5 1 -0
v -2.5 1 -0
v -1.5 1 -0
v -0.5 1 -0
v 0.5 1 -0
v 1.5 1 -0
v 2.5 1 -0
v 3.5 1 -0
v 4.5 1 -0
v -2.5 1 -1
v -1.5 1 -1
v 1.5 1 -1
v 2.5 1 -1
v -5.5 1 -2
v 5.5 1 -2
f -24/1/6 -23/1/6 -22/1/6
f -22/1/6 -23/1/6 -21/1/6
f -21/1/6 -23/1/6 -20/1/6
f -20/1/6 -23/1/6 -19/1/6
f -19/1/6 -23/1/6 -18/1/6
f -18/1/6 -23/1/6 -17/1/6
f -24/1/6 -22/1/6 -16/1/6
f -21/1/6 -20/1/6 -15/1/6
f -15/1/6 -20/1/6 -14/1/6
f -14/1/6 -20/1/6 -13/1/6
f -13/1/6 -20/1/6 -12/1/6
f -19/1/6 -18/1/6 -11/1/6
f -11/1/6 -18/1/6 -10/1/6
f -10/1/6 -18/1/6 -9/1/6
f -9/1/6 -18/1/6 -8/1/6
f -17/1/6 -23/1/6 -7/1/6
f -16/1/6 -15/1/6 -6/1/6
f -15/1/6 -14/1/6 -6/1/6
f -13/1/6 -12/1/6 -5/1/6
f -12/1/6 -11/1/6 -5/1/6
f -11/1/6 -10/1/6 -5/1/6
f -5/1/6 -10/1/6 -4/1/6
f -9/1/6 -8/1/6 -3/1/6
f -8/1/6 -7/1/6 -3/1/6
f -5/1/6 -4/1/6 -2/1/6
f -4/1/6 -3/1/6 -2/1/6
f -16/1/6 -6/1/6 -2/1/6
f -24/1/6 -16/1/6 -2/1/6
f -6/1/6 -5/1/6 -2/1/6
f -3/1/6 -7/1/6 -1/1/6
f -2/1/6 -3/1/6 -1/1/6
f -7/1/6 -23/1/6 -1/1/6
v -0.5 8 -0
v 0.5 8 -0
v 1.5 8 -0
v 2.5 8 -0
v 3.5 8 -0
v 4.5 8 -0
v -0.5 8 -1
v 4.5 8 -1
f -8/2/6 -7/2/6 -2/2/6
f -4/2/6 -3/2/6 -2/2/6
f -5/2/6 -4/2/6 -2/2/6
f -6/2/6 -5/2/6 -2/2/6
f -7/2/6 -6/2/6 -2/2/6
f -2/2/6 -3/2/6 -1/2/6
v -4.5 9 -0
v -3.5 9 -0
v -0.5 9 -0
v -4.5 9 -1
v -0.5 9 -1
f -5/2/6 -4/2/6 -2/2/6
f -4/2/6 -3/2/6 -2/2/6
f -2/2/6 -3/2/6 -1/2/6
v -2.5 12 1
v 1.5 12 1
v -2.5 12 -0
v 1.5 12 -0
f -4/2/6 -3/2/6 -2/2/6
f -2/2/6 -3/2/6 -1/2/6
v -6.5 13 1
v -2.5 13 1
v 2.5 13 1
v 6.5 13 1
v -6.5 13 -0
v -2.5 13 -0
v 2.5 13 -0
v 6.5 13 -0
f -8/2/6 -7/2/6 -4/2/6
f -4/2/6 -7/2/6 -3/2/6
f -6/2/6 -5/2/6 -2/2/6
f -2/2/6 -5/2/6 -1/2/6
