# MagicaVoxel @ ephtracy

# material
mtllib Engineering Consul.mtl
usemtl palette

# normals
vn -1 0 0
vn 1 0 0
vn 0 0 1
vn 0 0 -1
vn 0 -1 0
vn 0 1 0

# texcoords
vt 0.0175781 0.5
vt 0.111328 0.5
vt 0.115234 0.5
vt 0.482422 0.5
vt 0.486328 0.5
vt 0.623047 0.5
vt 0.650391 0.5
vt 0.767578 0.5
vt 0.888672 0.5
vt 0.896484 0.5
vt 0.958984 0.5
vt 0.962891 0.5
vt 0.966797 0.5
vt 0.970703 0.5
vt 0.978516 0.5
vt 0.982422 0.5
vt 0.986328 0.5
vt 0.990234 0.5

# verts and faces
v -30 0 -4
v -30 0 -5
v -30 15 -4
v -30 15 -5
v -30 25 -4
v -30 25 -5
v -30 34 -4
v -30 34 -5
f -6/12/1 -7/12/1 -8/12/1
f -5/12/1 -7/12/1 -6/12/1
f -4/11/1 -5/11/1 -6/11/1
f -3/11/1 -5/11/1 -4/11/1
f -2/12/1 -3/12/1 -4/12/1
f -1/12/1 -3/12/1 -2/12/1
v -20 14 3
v -20 14 -3
v -20 14 -4
v -20 15 -4
v -20 15 -5
v -20 17 -4
v -20 17 -5
v -20 19 -4
v -20 19 -5
v -20 20 5
v -20 20 3
v -20 20 -3
v -20 20 -4
v -20 20 -5
v -20 22 5
v -20 22 4
v -20 22 -4
v -20 25 5
v -20 25 4
v -20 26 5
v -20 26 4
v -20 27 5
v -20 27 4
v -20 27 -4
v -20 27 -5
f -22/13/1 -23/13/1 -24/13/1
f -20/13/1 -22/13/1 -24/13/1
f -20/13/1 -21/13/1 -22/13/1
f -19/13/1 -21/13/1 -20/13/1
f -18/13/1 -20/13/1 -24/13/1
f -15/3/1 -24/3/1 -25/3/1
f -14/13/1 -18/13/1 -24/13/1
f -14/3/1 -24/3/1 -15/3/1
f -13/12/1 -17/12/1 -18/12/1
f -13/13/1 -18/13/1 -14/13/1
f -12/12/1 -17/12/1 -13/12/1
f -11/13/1 -14/13/1 -15/13/1
f -11/13/1 -15/13/1 -16/13/1
f -11/13/1 -12/13/1 -13/13/1
f -11/13/1 -13/13/1 -14/13/1
f -10/13/1 -12/13/1 -11/13/1
f -9/13/1 -12/13/1 -10/13/1
f -8/12/1 -10/12/1 -11/12/1
f -7/3/1 -9/3/1 -10/3/1
f -7/12/1 -10/12/1 -8/12/1
f -6/13/1 -7/13/1 -8/13/1
f -5/3/1 -9/3/1 -7/3/1
f -5/13/1 -7/13/1 -6/13/1
f -4/12/1 -5/12/1 -6/12/1
f -3/3/1 -9/3/1 -5/3/1
f -3/12/1 -5/12/1 -4/12/1
f -2/13/1 -12/13/1 -9/13/1
f -2/3/1 -9/3/1 -3/3/1
f -1/13/1 -12/13/1 -2/13/1
v 29 0 -4
v 29 0 -5
v 29 11 -4
v 29 11 -5
v 29 13 -4
v 29 13 -5
v 29 15 -4
v 29 15 -5
v 29 17 -4
v 29 17 -5
v 29 20 -4
v 29 20 -5
v 29 26 -4
v 29 26 -5
v 29 28 -4
v 29 28 -5
v 29 29 -4
v 29 29 -5
v 29 33 -4
v 29 33 -5
f -18/12/1 -19/12/1 -20/12/1
f -17/12/1 -19/12/1 -18/12/1
f -16/11/1 -17/11/1 -18/11/1
f -15/11/1 -17/11/1 -16/11/1
f -12/12/1 -13/12/1 -14/12/1
f -11/12/1 -13/12/1 -12/12/1
f -8/12/1 -9/12/1 -10/12/1
f -7/12/1 -9/12/1 -8/12/1
f -6/11/1 -7/11/1 -8/11/1
f -5/11/1 -7/11/1 -6/11/1
f -2/11/1 -3/11/1 -4/11/1
f -1/11/1 -3/11/1 -2/11/1
v -29 0 -4
v -29 0 -5
v -29 13 -4
v -29 13 -5
v -29 15 -4
v -29 15 -5
v -29 17 -4
v -29 17 -5
v -29 19 -4
v -29 19 -5
v -29 25 -4
v -29 25 -5
v -29 28 -4
v -29 28 -5
v -29 29 -4
v -29 29 -5
v -29 33 -4
v -29 33 -5
f -18/12/2 -17/12/2 -16/12/2
f -16/12/2 -17/12/2 -15/12/2
f -14/11/2 -13/11/2 -12/11/2
f -12/11/2 -13/11/2 -11/11/2
f -10/11/2 -9/11/2 -8/11/2
f -8/11/2 -9/11/2 -7/11/2
f -8/12/2 -7/12/2 -6/12/2
f -6/12/2 -7/12/2 -5/12/2
f -4/12/2 -3/12/2 -2/12/2
f -2/12/2 -3/12/2 -1/12/2
v 21 14 3
v 21 14 -3
v 21 14 -4
v 21 15 -4
v 21 15 -5
v 21 17 -4
v 21 17 -5
v 21 20 5
v 21 20 3
v 21 20 -3
v 21 20 -4
v 21 20 -5
v 21 23 4
v 21 23 -4
v 21 27 5
v 21 27 4
v 21 27 -4
v 21 27 -5
f -17/13/2 -16/13/2 -15/13/2
f -17/13/2 -15/13/2 -13/13/2
f -15/13/2 -14/13/2 -13/13/2
f -13/13/2 -14/13/2 -12/13/2
f -18/3/2 -17/3/2 -10/3/2
f -17/13/2 -13/13/2 -9/13/2
f -10/3/2 -17/3/2 -9/3/2
f -9/13/2 -13/13/2 -8/13/2
f -11/13/2 -10/13/2 -6/13/2
f -8/13/2 -7/13/2 -6/13/2
f -9/13/2 -8/13/2 -6/13/2
f -10/13/2 -9/13/2 -6/13/2
f -6/13/2 -7/13/2 -5/13/2
f -11/13/2 -6/13/2 -4/13/2
f -6/3/2 -5/3/2 -3/3/2
f -4/13/2 -6/13/2 -3/13/2
f -5/13/2 -7/13/2 -2/13/2
f -3/3/2 -5/3/2 -2/3/2
f -2/13/2 -7/13/2 -1/13/2
v 30 0 -4
v 30 0 -5
v 30 11 -4
v 30 11 -5
v 30 15 -4
v 30 15 -5
v 30 26 -4
v 30 26 -5
v 30 34 -4
v 30 34 -5
f -10/12/2 -9/12/2 -8/12/2
f -8/12/2 -9/12/2 -7/12/2
f -8/11/2 -7/11/2 -6/11/2
f -6/11/2 -7/11/2 -5/11/2
f -6/12/2 -5/12/2 -4/12/2
f -4/12/2 -5/12/2 -3/12/2
f -4/11/2 -3/11/2 -2/11/2
f -2/11/2 -3/11/2 -1/11/2
v -20 20 5
v -20 22 5
v -20 25 5
v -20 26 5
v -20 27 5
v -19 20 5
v -19 22 5
v -19 25 5
v -19 26 5
v -7 26 5
v -7 27 5
v -6 26 5
v -6 27 5
v -3 26 5
v -3 27 5
v 1 26 5
v 1 27 5
v 17 26 5
v 17 27 5
v 20 20 5
v 20 26 5
v 21 20 5
v 21 27 5
f -18/13/3 -22/13/3 -23/13/3
f -17/12/3 -21/12/3 -22/12/3
f -17/13/3 -22/13/3 -18/13/3
f -16/13/3 -20/13/3 -21/13/3
f -16/12/3 -21/12/3 -17/12/3
f -15/12/3 -19/12/3 -20/12/3
f -15/13/3 -20/13/3 -16/13/3
f -14/3/3 -16/3/3 -17/3/3
f -14/12/3 -19/12/3 -15/12/3
f -14/3/3 -15/3/3 -16/3/3
f -14/3/3 -17/3/3 -18/3/3
f -13/12/3 -19/12/3 -14/12/3
f -12/3/3 -14/3/3 -18/3/3
f -12/13/3 -13/13/3 -14/13/3
f -11/13/3 -13/13/3 -12/13/3
f -10/3/3 -12/3/3 -18/3/3
f -10/12/3 -11/12/3 -12/12/3
f -9/12/3 -11/12/3 -10/12/3
f -8/3/3 -10/3/3 -18/3/3
f -8/13/3 -9/13/3 -10/13/3
f -7/13/3 -9/13/3 -8/13/3
f -6/3/3 -8/3/3 -18/3/3
f -6/14/3 -7/14/3 -8/14/3
f -5/14/3 -7/14/3 -6/14/3
f -4/3/3 -6/3/3 -18/3/3
f -3/13/3 -5/13/3 -6/13/3
f -3/3/3 -6/3/3 -4/3/3
f -2/13/3 -3/13/3 -4/13/3
f -1/13/3 -5/13/3 -3/13/3
f -1/13/3 -3/13/3 -2/13/3
v -20 14 3
v -20 20 3
v -19 20 3
v 20 20 3
v 21 14 3
v 21 20 3
f -4/3/3 -5/3/3 -6/3/3
f -3/3/3 -4/3/3 -6/3/3
f -2/3/3 -3/3/3 -6/3/3
f -1/3/3 -3/3/3 -2/3/3
v -30 0 -4
v -30 15 -4
v -30 25 -4
v -30 34 -4
v -29 0 -4
v -29 13 -4
v -29 15 -4
v -29 17 -4
v -29 19 -4
v -29 25 -4
v -29 28 -4
v -29 29 -4
v -29 33 -4
v -29 34 -4
v -20 14 -4
v -20 15 -4
v -20 17 -4
v -20 19 -4
v -19 14 -4
v -17 33 -4
v -17 34 -4
v -11 13 -4
v -11 14 -4
v -11 33 -4
v -11 34 -4
v -2 33 -4
v -2 34 -4
v 8 33 -4
v 8 34 -4
v 13 33 -4
v 13 34 -4
v 16 33 -4
v 16 34 -4
v 20 14 -4
v 21 14 -4
v 21 15 -4
v 21 17 -4
v 21 20 -4
v 22 13 -4
v 22 14 -4
v 26 14 -4
v 26 15 -4
v 27 13 -4
v 27 14 -4
v 27 15 -4
v 29 0 -4
v 29 11 -4
v 29 13 -4
v 29 14 -4
v 29 15 -4
v 29 17 -4
v 29 20 -4
v 29 26 -4
v 29 28 -4
v 29 29 -4
v 29 33 -4
v 29 34 -4
v 30 0 -4
v 30 11 -4
v 30 15 -4
v 30 26 -4
v 30 34 -4
f -58/12/3 -61/12/3 -62/12/3
f -57/12/3 -61/12/3 -58/12/3
f -56/11/3 -60/11/3 -61/11/3
f -56/12/3 -61/12/3 -57/12/3
f -55/11/3 -60/11/3 -56/11/3
f -54/11/3 -60/11/3 -55/11/3
f -53/12/3 -59/12/3 -60/12/3
f -53/11/3 -60/11/3 -54/11/3
f -52/12/3 -59/12/3 -53/12/3
f -51/12/3 -59/12/3 -52/12/3
f -50/12/3 -59/12/3 -51/12/3
f -49/12/3 -59/12/3 -50/12/3
f -48/13/3 -56/13/3 -57/13/3
f -47/13/3 -56/13/3 -48/13/3
f -46/11/3 -54/11/3 -55/11/3
f -45/11/3 -54/11/3 -46/11/3
f -44/13/3 -48/13/3 -57/13/3
f -43/14/3 -49/14/3 -50/14/3
f -42/14/3 -49/14/3 -43/14/3
f -41/13/3 -44/13/3 -57/13/3
f -40/13/3 -44/13/3 -41/13/3
f -39/13/3 -42/13/3 -43/13/3
f -38/13/3 -42/13/3 -39/13/3
f -37/14/3 -38/14/3 -39/14/3
f -36/14/3 -38/14/3 -37/14/3
f -35/13/3 -36/13/3 -37/13/3
f -34/13/3 -36/13/3 -35/13/3
f -33/14/3 -34/14/3 -35/14/3
f -32/14/3 -34/14/3 -33/14/3
f -31/13/3 -32/13/3 -33/13/3
f -30/13/3 -32/13/3 -31/13/3
f -29/14/3 -40/14/3 -41/14/3
f -28/14/3 -29/14/3 -41/14/3
f -24/14/3 -28/14/3 -41/14/3
f -23/13/3 -27/13/3 -28/13/3
f -23/14/3 -28/14/3 -24/14/3
f -22/13/3 -23/13/3 -24/13/3
f -22/13/3 -27/13/3 -23/13/3
f -21/13/3 -27/13/3 -22/13/3
f -20/13/3 -22/13/3 -24/13/3
f -19/14/3 -21/14/3 -22/14/3
f -19/13/3 -22/13/3 -20/13/3
f -18/14/3 -21/14/3 -19/14/3
f -15/14/3 -19/14/3 -20/14/3
f -14/13/3 -18/13/3 -19/13/3
f -14/14/3 -19/14/3 -15/14/3
f -13/13/3 -18/13/3 -14/13/3
f -12/12/3 -25/12/3 -26/12/3
f -11/12/3 -25/12/3 -12/12/3
f -9/14/3 -51/14/3 -52/14/3
f -8/14/3 -51/14/3 -9/14/3
f -7/14/3 -30/14/3 -31/14/3
f -6/14/3 -30/14/3 -7/14/3
f -5/12/3 -16/12/3 -17/12/3
f -4/11/3 -13/11/3 -14/11/3
f -4/12/3 -16/12/3 -5/12/3
f -4/11/3 -14/11/3 -15/11/3
f -4/11/3 -15/11/3 -16/11/3
f -3/12/3 -10/12/3 -11/12/3
f -3/11/3 -13/11/3 -4/11/3
f -3/12/3 -12/12/3 -13/12/3
f -3/12/3 -11/12/3 -12/12/3
f -2/11/3 -8/11/3 -9/11/3
f -2/12/3 -10/12/3 -3/12/3
f -2/11/3 -6/11/3 -7/11/3
f -2/11/3 -7/11/3 -8/11/3
f -2/11/3 -9/11/3 -10/11/3
f -1/11/3 -6/11/3 -2/11/3
v -30 0 -5
v -30 15 -5
v -30 25 -5
v -30 34 -5
v -29 0 -5
v -29 13 -5
v -29 15 -5
v -29 17 -5
v -29 19 -5
v -29 25 -5
v -29 28 -5
v -29 29 -5
v -29 33 -5
v -29 34 -5
v -20 15 -5
v -20 17 -5
v -20 19 -5
v -20 20 -5
v -20 27 -5
v -19 20 -5
v -19 26 -5
v -17 33 -5
v -17 34 -5
v -16 19 -5
v -16 20 -5
v -11 13 -5
v -11 14 -5
v -11 17 -5
v -11 18 -5
v -11 33 -5
v -11 34 -5
v -3 17 -5
v -3 18 -5
v -2 33 -5
v -2 34 -5
v 4 17 -5
v 4 19 -5
v 8 19 -5
v 8 20 -5
v 8 33 -5
v 8 34 -5
v 13 33 -5
v 13 34 -5
v 16 33 -5
v 16 34 -5
v 20 20 -5
v 20 26 -5
v 21 15 -5
v 21 17 -5
v 21 20 -5
v 21 27 -5
v 22 13 -5
v 22 14 -5
v 26 14 -5
v 26 15 -5
v 27 13 -5
v 27 14 -5
v 27 15 -5
v 29 0 -5
v 29 11 -5
v 29 13 -5
v 29 14 -5
v 29 15 -5
v 29 17 -5
v 29 20 -5
v 29 26 -5
v 29 28 -5
v 29 29 -5
v 29 33 -5
v 29 34 -5
v 30 0 -5
v 30 11 -5
v 30 15 -5
v 30 26 -5
v 30 34 -5
f -75/12/4 -74/12/4 -71/12/4
f -71/12/4 -74/12/4 -70/12/4
f -74/11/4 -73/11/4 -69/11/4
f -70/12/4 -74/12/4 -69/12/4
f -69/11/4 -73/11/4 -68/11/4
f -68/11/4 -73/11/4 -67/11/4
f -73/12/4 -72/12/4 -66/12/4
f -67/11/4 -73/11/4 -66/11/4
f -66/12/4 -72/12/4 -65/12/4
f -65/12/4 -72/12/4 -64/12/4
f -64/12/4 -72/12/4 -63/12/4
f -63/12/4 -72/12/4 -62/12/4
f -70/13/4 -69/13/4 -61/13/4
f -68/11/4 -67/11/4 -60/11/4
f -60/11/4 -67/11/4 -59/11/4
f -59/12/4 -58/12/4 -56/12/4
f -58/13/4 -57/13/4 -56/13/4
f -56/13/4 -57/13/4 -55/13/4
f -63/14/4 -62/14/4 -54/14/4
f -54/14/4 -62/14/4 -53/14/4
f -60/11/4 -59/11/4 -52/11/4
f -59/12/4 -56/12/4 -52/12/4
f -56/3/4 -55/3/4 -51/3/4
f -52/12/4 -56/12/4 -51/12/4
f -70/13/4 -61/13/4 -50/13/4
f -61/13/4 -60/13/4 -50/13/4
f -50/13/4 -60/13/4 -49/13/4
f -52/11/4 -51/11/4 -48/11/4
f -49/13/4 -60/13/4 -48/13/4
f -60/11/4 -52/11/4 -48/11/4
f -48/11/4 -51/11/4 -47/11/4
f -54/13/4 -53/13/4 -46/13/4
f -46/13/4 -53/13/4 -45/13/4
f -49/13/4 -48/13/4 -44/13/4
f -48/12/4 -47/12/4 -44/12/4
f -47/11/4 -51/11/4 -43/11/4
f -44/12/4 -47/12/4 -43/12/4
f -46/14/4 -45/14/4 -42/14/4
f -42/14/4 -45/14/4 -41/14/4
f -49/13/4 -44/13/4 -40/13/4
f -44/11/4 -43/11/4 -40/11/4
f -43/11/4 -51/11/4 -39/11/4
f -40/11/4 -43/11/4 -39/11/4
f -40/12/4 -39/12/4 -38/12/4
f -39/11/4 -51/11/4 -38/11/4
f -51/3/4 -55/3/4 -37/3/4
f -38/11/4 -51/11/4 -37/11/4
f -42/13/4 -41/13/4 -36/13/4
f -36/13/4 -41/13/4 -35/13/4
f -36/14/4 -35/14/4 -34/14/4
f -34/14/4 -35/14/4 -33/14/4
f -34/13/4 -33/13/4 -32/13/4
f -32/13/4 -33/13/4 -31/13/4
f -37/3/4 -55/3/4 -30/3/4
f -38/12/4 -37/12/4 -30/12/4
f -55/13/4 -57/13/4 -29/13/4
f -30/3/4 -55/3/4 -29/3/4
f -49/13/4 -40/13/4 -28/13/4
f -40/12/4 -38/12/4 -27/12/4
f -28/13/4 -40/13/4 -27/13/4
f -38/12/4 -30/12/4 -27/12/4
f -30/13/4 -29/13/4 -26/13/4
f -27/12/4 -30/12/4 -26/12/4
f -29/13/4 -57/13/4 -25/13/4
f -26/13/4 -29/13/4 -25/13/4
f -50/14/4 -49/14/4 -24/14/4
f -49/13/4 -28/13/4 -23/13/4
f -24/14/4 -49/14/4 -23/14/4
f -24/13/4 -23/13/4 -22/13/4
f -23/13/4 -28/13/4 -22/13/4
f -22/13/4 -28/13/4 -21/13/4
f -24/13/4 -22/13/4 -20/13/4
f -22/14/4 -21/14/4 -19/14/4
f -20/13/4 -22/13/4 -19/13/4
f -19/14/4 -21/14/4 -18/14/4
f -20/14/4 -19/14/4 -15/14/4
f -19/13/4 -18/13/4 -14/13/4
f -15/14/4 -19/14/4 -14/14/4
f -14/13/4 -18/13/4 -13/13/4
f -27/12/4 -26/12/4 -12/12/4
f -12/12/4 -26/12/4 -11/12/4
f -65/14/4 -64/14/4 -9/14/4
f -9/14/4 -64/14/4 -8/14/4
f -32/14/4 -31/14/4 -7/14/4
f -7/14/4 -31/14/4 -6/14/4
f -17/12/4 -16/12/4 -5/12/4
f -14/11/4 -13/11/4 -4/11/4
f -5/12/4 -16/12/4 -4/12/4
f -15/11/4 -14/11/4 -4/11/4
f -16/11/4 -15/11/4 -4/11/4
f -11/12/4 -10/12/4 -3/12/4
f -4/11/4 -13/11/4 -3/11/4
f -12/12/4 -11/12/4 -3/12/4
f -13/12/4 -12/12/4 -3/12/4
f -9/11/4 -8/11/4 -2/11/4
f -3/12/4 -10/12/4 -2/12/4
f -7/11/4 -6/11/4 -2/11/4
f -8/11/4 -7/11/4 -2/11/4
f -10/11/4 -9/11/4 -2/11/4
f -2/11/4 -6/11/4 -1/11/4
v -30 0 -4
v -29 0 -4
v 29 0 -4
v 30 0 -4
v -30 0 -5
v -29 0 -5
v 29 0 -5
v 30 0 -5
f -4/12/5 -7/12/5 -8/12/5
f -3/12/5 -7/12/5 -4/12/5
f -2/12/5 -5/12/5 -6/12/5
f -1/12/5 -5/12/5 -2/12/5
v -29 13 -4
v -11 13 -4
v 22 13 -4
v 27 13 -4
v 29 13 -4
v -29 13 -5
v -11 13 -5
v 22 13 -5
v 27 13 -5
v 29 13 -5
f -5/13/5 -9/13/5 -10/13/5
f -4/14/5 -8/14/5 -9/14/5
f -4/13/5 -9/13/5 -5/13/5
f -3/13/5 -7/13/5 -8/13/5
f -3/14/5 -8/14/5 -4/14/5
f -2/14/5 -6/14/5 -7/14/5
f -2/13/5 -7/13/5 -3/13/5
f -1/14/5 -6/14/5 -2/14/5
v -20 14 3
v 21 14 3
v -20 14 -3
v -19 14 -3
v 20 14 -3
v 21 14 -3
v -20 14 -4
v -19 14 -4
v -11 14 -4
v 20 14 -4
v 21 14 -4
f -9/3/5 -10/3/5 -11/3/5
f -8/3/5 -10/3/5 -9/3/5
f -7/3/5 -10/3/5 -8/3/5
f -6/3/5 -10/3/5 -7/3/5
f -5/13/5 -8/13/5 -9/13/5
f -4/3/5 -7/3/5 -8/3/5
f -4/13/5 -8/13/5 -5/13/5
f -3/3/5 -7/3/5 -4/3/5
f -2/13/5 -6/13/5 -7/13/5
f -2/3/5 -7/3/5 -3/3/5
f -1/13/5 -6/13/5 -2/13/5
v -29 17 -4
v -20 17 -4
v 21 17 -4
v 29 17 -4
v -29 17 -5
v -20 17 -5
v 21 17 -5
v 29 17 -5
f -4/11/5 -7/11/5 -8/11/5
f -3/11/5 -7/11/5 -4/11/5
f -2/12/5 -5/12/5 -6/12/5
f -1/12/5 -5/12/5 -2/12/5
v -20 20 5
v -19 20 5
v 20 20 5
v 21 20 5
v -20 20 3
v -19 20 3
v 20 20 3
v 21 20 3
f -4/13/5 -7/13/5 -8/13/5
f -3/3/5 -6/3/5 -7/3/5
f -3/13/5 -7/13/5 -4/13/5
f -2/13/5 -5/13/5 -6/13/5
f -2/3/5 -6/3/5 -3/3/5
f -1/13/5 -5/13/5 -2/13/5
v -29 28 -4
v 29 28 -4
v -29 28 -5
v 29 28 -5
f -2/14/5 -3/14/5 -4/14/5
f -1/14/5 -3/14/5 -2/14/5
v -29 33 -4
v -17 33 -4
v -11 33 -4
v -2 33 -4
v 8 33 -4
v 13 33 -4
v 16 33 -4
v 29 33 -4
v -29 33 -5
v -17 33 -5
v -11 33 -5
v -2 33 -5
v 8 33 -5
v 13 33 -5
v 16 33 -5
v 29 33 -5
f -8/14/5 -15/14/5 -16/14/5
f -7/13/5 -14/13/5 -15/13/5
f -7/14/5 -15/14/5 -8/14/5
f -6/14/5 -13/14/5 -14/14/5
f -6/13/5 -14/13/5 -7/13/5
f -5/13/5 -12/13/5 -13/13/5
f -5/14/5 -13/14/5 -6/14/5
f -4/14/5 -11/14/5 -12/14/5
f -4/13/5 -12/13/5 -5/13/5
f -3/13/5 -10/13/5 -11/13/5
f -3/14/5 -11/14/5 -4/14/5
f -2/14/5 -9/14/5 -10/14/5
f -2/13/5 -10/13/5 -3/13/5
f -1/14/5 -9/14/5 -2/14/5
v -29 15 -4
v -20 15 -4
v 21 15 -4
v 26 15 -4
v 27 15 -4
v 29 15 -4
v -29 15 -5
v -20 15 -5
v 21 15 -5
v 26 15 -5
v 27 15 -5
v 29 15 -5
f -12/13/6 -11/13/6 -6/13/6
f -6/13/6 -11/13/6 -5/13/6
f -10/13/6 -9/13/6 -4/13/6
f -9/14/6 -8/14/6 -3/14/6
f -4/13/6 -9/13/6 -3/13/6
f -8/13/6 -7/13/6 -2/13/6
f -3/14/6 -8/14/6 -2/14/6
f -2/13/6 -7/13/6 -1/13/6
v -29 19 -4
v -20 19 -4
v -29 19 -5
v -20 19 -5
f -4/11/6 -3/11/6 -2/11/6
f -2/11/6 -3/11/6 -1/11/6
v 21 20 -4
v 29 20 -4
v 21 20 -5
v 29 20 -5
f -4/12/6 -3/12/6 -2/12/6
f -2/12/6 -3/12/6 -1/12/6
v -20 27 5
v -7 27 5
v -6 27 5
v -3 27 5
v 1 27 5
v 17 27 5
v 21 27 5
v -20 27 4
v -19 27 4
v -7 27 4
v -6 27 4
v -3 27 4
v 1 27 4
v 17 27 4
v 19 27 4
v 21 27 4
v -18 27 3
v 18 27 3
v -17 27 2
v -16 27 2
v -15 27 2
v -14 27 2
v -10 27 2
v -8 27 2
v -7 27 2
v -4 27 2
v -3 27 2
v -1 27 2
v 2 27 2
v 4 27 2
v 5 27 2
v 8 27 2
v 9 27 2
v 10 27 2
v 11 27 2
v 13 27 2
v 14 27 2
v 15 27 2
v 16 27 2
v -16 27 1
v -15 27 1
v -14 27 1
v -13 27 1
v -11 27 1
v -9 27 1
v -8 27 1
v -7 27 1
v -6 27 1
v -1 27 1
v 0 27 1
v 1 27 1
v 2 27 1
v 3 27 1
v 4 27 1
v 5 27 1
v 6 27 1
v 8 27 1
v 9 27 1
v 10 27 1
v 11 27 1
v 13 27 1
v 14 27 1
v 15 27 1
v 16 27 1
v -17 27 -0
v -16 27 -0
v -13 27 -0
v -11 27 -0
v -9 27 -0
v -8 27 -0
v -7 27 -0
v -6 27 -0
v -5 27 -0
v -4 27 -0
v -3 27 -0
v -2 27 -0
v 3 27 -0
v 4 27 -0
v 5 27 -0
v 6 27 -0
v 8 27 -0
v 9 27 -0
v 10 27 -0
v 11 27 -0
v 13 27 -0
v 14 27 -0
v 15 27 -0
v 16 27 -0
v -17 27 -1
v -10 27 -1
v -8 27 -1
v -7 27 -1
v -5 27 -1
v -2 27 -1
v 0 27 -1
v 1 27 -1
v 4 27 -1
v 5 27 -1
v 8 27 -1
v 9 27 -1
v 10 27 -1
v 11 27 -1
v 13 27 -1
v 14 27 -1
v 15 27 -1
v 16 27 -1
v -18 27 -2
v 18 27 -2
v -19 27 -3
v 19 27 -3
v -20 27 -4
v 21 27 -4
v -20 27 -5
v 21 27 -5
f -114/12/6 -113/12/6 -107/12/6
f -107/12/6 -113/12/6 -106/12/6
f -113/13/6 -112/13/6 -105/13/6
f -106/12/6 -113/12/6 -105/12/6
f -112/12/6 -111/12/6 -104/12/6
f -105/13/6 -112/13/6 -104/13/6
f -111/13/6 -110/13/6 -103/13/6
f -104/12/6 -111/12/6 -103/12/6
f -110/14/6 -109/14/6 -102/14/6
f -103/13/6 -110/13/6 -102/13/6
f -109/13/6 -108/13/6 -101/13/6
f -102/14/6 -109/14/6 -101/14/6
f -101/13/6 -108/13/6 -100/13/6
f -100/13/6 -108/13/6 -99/13/6
f -103/17/6 -102/17/6 -98/17/6
f -106/17/6 -105/17/6 -98/17/6
f -105/17/6 -104/17/6 -98/17/6
f -101/17/6 -100/17/6 -98/17/6
f -102/17/6 -101/17/6 -98/17/6
f -104/17/6 -103/17/6 -98/17/6
f -98/17/6 -100/17/6 -97/17/6
f -98/18/6 -97/18/6 -96/18/6
f -96/18/6 -97/18/6 -95/18/6
f -95/18/6 -97/18/6 -94/18/6
f -94/18/6 -97/18/6 -93/18/6
f -93/18/6 -97/18/6 -92/18/6
f -92/18/6 -97/18/6 -91/18/6
f -91/18/6 -97/18/6 -90/18/6
f -90/18/6 -97/18/6 -89/18/6
f -89/18/6 -97/18/6 -88/18/6
f -88/18/6 -97/18/6 -87/18/6
f -87/18/6 -97/18/6 -86/18/6
f -86/18/6 -97/18/6 -85/18/6
f -85/18/6 -97/18/6 -84/18/6
f -84/18/6 -97/18/6 -83/18/6
f -83/18/6 -97/18/6 -82/18/6
f -82/18/6 -97/18/6 -81/18/6
f -81/18/6 -97/18/6 -80/18/6
f -80/18/6 -97/18/6 -79/18/6
f -79/18/6 -97/18/6 -78/18/6
f -78/18/6 -97/18/6 -77/18/6
f -77/18/6 -97/18/6 -76/18/6
f -96/10/6 -95/10/6 -75/10/6
f -95/9/6 -94/9/6 -75/9/6
f -94/2/6 -93/2/6 -74/2/6
f -75/9/6 -94/9/6 -74/9/6
f -93/16/6 -92/16/6 -73/16/6
f -74/2/6 -93/2/6 -73/2/6
f -73/16/6 -92/16/6 -72/16/6
f -72/16/6 -92/16/6 -71/16/6
f -92/18/6 -91/18/6 -70/18/6
f -91/15/6 -90/15/6 -69/15/6
f -70/18/6 -91/18/6 -69/18/6
f -90/18/6 -89/18/6 -68/18/6
f -69/15/6 -90/15/6 -68/15/6
f -68/18/6 -89/18/6 -67/18/6
f -88/18/6 -87/18/6 -66/18/6
f -87/12/6 -86/12/6 -66/12/6
f -66/12/6 -86/12/6 -65/12/6
f -65/12/6 -86/12/6 -64/12/6
f -86/18/6 -85/18/6 -63/18/6
f -64/12/6 -86/12/6 -63/12/6
f -63/18/6 -85/18/6 -62/18/6
f -85/15/6 -84/15/6 -61/15/6
f -62/18/6 -85/18/6 -61/18/6
f -84/18/6 -83/18/6 -60/18/6
f -61/15/6 -84/15/6 -60/15/6
f -60/18/6 -83/18/6 -59/18/6
f -83/7/6 -82/7/6 -58/7/6
f -59/18/6 -83/18/6 -58/18/6
f -82/8/6 -81/8/6 -57/8/6
f -58/7/6 -82/7/6 -57/7/6
f -81/7/6 -80/7/6 -56/7/6
f -57/8/6 -81/8/6 -56/8/6
f -80/18/6 -79/18/6 -55/18/6
f -56/7/6 -80/7/6 -55/7/6
f -79/7/6 -78/7/6 -54/7/6
f -55/18/6 -79/18/6 -54/18/6
f -78/6/6 -77/6/6 -53/6/6
f -54/7/6 -78/7/6 -53/7/6
f -77/7/6 -76/7/6 -52/7/6
f -53/6/6 -77/6/6 -52/6/6
f -76/18/6 -97/18/6 -51/18/6
f -52/7/6 -76/7/6 -51/7/6
f -98/18/6 -96/18/6 -50/18/6
f -96/10/6 -75/10/6 -50/10/6
f -75/16/6 -74/16/6 -49/16/6
f -50/10/6 -75/10/6 -49/10/6
f -74/16/6 -73/16/6 -49/16/6
f -73/16/6 -72/16/6 -49/16/6
f -72/1/6 -71/1/6 -48/1/6
f -49/16/6 -72/16/6 -48/16/6
f -71/16/6 -92/16/6 -47/16/6
f -48/1/6 -71/1/6 -47/1/6
f -92/18/6 -70/18/6 -46/18/6
f -70/12/6 -69/12/6 -46/12/6
f -68/12/6 -67/12/6 -46/12/6
f -69/12/6 -68/12/6 -46/12/6
f -46/12/6 -67/12/6 -45/12/6
f -45/12/6 -67/12/6 -44/12/6
f -67/18/6 -89/18/6 -43/18/6
f -44/12/6 -67/12/6 -43/12/6
f -43/18/6 -89/18/6 -42/18/6
f -89/15/6 -88/15/6 -41/15/6
f -42/18/6 -89/18/6 -41/18/6
f -66/18/6 -65/18/6 -40/18/6
f -41/15/6 -88/15/6 -40/15/6
f -88/18/6 -66/18/6 -40/18/6
f -40/18/6 -65/18/6 -39/18/6
f -63/18/6 -62/18/6 -38/18/6
f -62/12/6 -61/12/6 -38/12/6
f -60/12/6 -59/12/6 -38/12/6
f -61/12/6 -60/12/6 -38/12/6
f -64/18/6 -63/18/6 -38/18/6
f -38/12/6 -59/12/6 -37/12/6
f -37/12/6 -59/12/6 -36/12/6
f -59/18/6 -58/18/6 -35/18/6
f -36/12/6 -59/12/6 -35/12/6
f -58/6/6 -57/6/6 -34/6/6
f -35/18/6 -58/18/6 -34/18/6
f -57/7/6 -56/7/6 -33/7/6
f -34/6/6 -57/6/6 -33/6/6
f -56/4/6 -55/4/6 -32/4/6
f -33/7/6 -56/7/6 -32/7/6
f -55/18/6 -54/18/6 -31/18/6
f -32/4/6 -55/4/6 -31/4/6
f -54/4/6 -53/4/6 -30/4/6
f -31/18/6 -54/18/6 -30/18/6
f -53/7/6 -52/7/6 -29/7/6
f -30/4/6 -53/4/6 -29/4/6
f -52/8/6 -51/8/6 -28/8/6
f -29/7/6 -52/7/6 -28/7/6
f -51/18/6 -97/18/6 -27/18/6
f -28/8/6 -51/8/6 -27/8/6
f -98/18/6 -50/18/6 -26/18/6
f -49/16/6 -48/16/6 -26/16/6
f -48/16/6 -47/16/6 -26/16/6
f -50/16/6 -49/16/6 -26/16/6
f -47/16/6 -92/16/6 -25/16/6
f -26/16/6 -47/16/6 -25/16/6
f -46/18/6 -45/18/6 -25/18/6
f -92/18/6 -46/18/6 -25/18/6
f -45/15/6 -44/15/6 -24/15/6
f -25/18/6 -45/18/6 -24/18/6
f -43/18/6 -42/18/6 -23/18/6
f -24/15/6 -44/15/6 -23/15/6
f -44/18/6 -43/18/6 -23/18/6
f -42/12/6 -41/12/6 -22/12/6
f -23/18/6 -42/18/6 -22/18/6
f -40/12/6 -39/12/6 -22/12/6
f -41/12/6 -40/12/6 -22/12/6
f -39/18/6 -65/18/6 -21/18/6
f -22/12/6 -39/12/6 -21/12/6
f -65/15/6 -64/15/6 -20/15/6
f -21/18/6 -65/18/6 -20/18/6
f -38/18/6 -37/18/6 -19/18/6
f -20/15/6 -64/15/6 -19/15/6
f -64/18/6 -38/18/6 -19/18/6
f -37/15/6 -36/15/6 -18/15/6
f -19/18/6 -37/18/6 -18/18/6
f -36/18/6 -35/18/6 -17/18/6
f -18/15/6 -36/15/6 -17/15/6
f -35/18/6 -34/18/6 -17/18/6
f -34/7/6 -33/7/6 -16/7/6
f -17/18/6 -34/18/6 -16/18/6
f -33/5/6 -32/5/6 -15/5/6
f -16/7/6 -33/7/6 -15/7/6
f -32/7/6 -31/7/6 -14/7/6
f -15/5/6 -32/5/6 -14/5/6
f -31/18/6 -30/18/6 -13/18/6
f -14/7/6 -31/7/6 -13/7/6
f -30/7/6 -29/7/6 -12/7/6
f -13/18/6 -30/18/6 -12/18/6
f -29/5/6 -28/5/6 -11/5/6
f -12/7/6 -29/7/6 -11/7/6
f -28/7/6 -27/7/6 -10/7/6
f -11/5/6 -28/5/6 -10/5/6
f -27/18/6 -97/18/6 -9/18/6
f -10/7/6 -27/7/6 -9/7/6
f -106/17/6 -98/17/6 -8/17/6
f -13/18/6 -12/18/6 -8/18/6
f -10/18/6 -9/18/6 -8/18/6
f -19/18/6 -18/18/6 -8/18/6
f -20/18/6 -19/18/6 -8/18/6
f -17/18/6 -16/18/6 -8/18/6
f -18/18/6 -17/18/6 -8/18/6
f -23/18/6 -22/18/6 -8/18/6
f -22/18/6 -21/18/6 -8/18/6
f -24/18/6 -23/18/6 -8/18/6
f -26/18/6 -25/18/6 -8/18/6
f -25/18/6 -24/18/6 -8/18/6
f -21/18/6 -20/18/6 -8/18/6
f -98/18/6 -26/18/6 -8/18/6
f -12/18/6 -11/18/6 -8/18/6
f -11/18/6 -10/18/6 -8/18/6
f -14/18/6 -13/18/6 -8/18/6
f -16/18/6 -15/18/6 -8/18/6
f -15/18/6 -14/18/6 -8/18/6
f -9/18/6 -97/18/6 -7/18/6
f -8/18/6 -9/18/6 -7/18/6
f -97/17/6 -100/17/6 -7/17/6
f -107/3/6 -106/3/6 -6/3/6
f -106/17/6 -8/17/6 -6/17/6
f -8/17/6 -7/17/6 -6/17/6
f -7/17/6 -100/17/6 -5/17/6
f -6/17/6 -7/17/6 -5/17/6
f -100/3/6 -99/3/6 -5/3/6
f -107/3/6 -6/3/6 -4/3/6
f -6/3/6 -5/3/6 -4/3/6
f -5/3/6 -99/3/6 -3/3/6
f -4/3/6 -5/3/6 -3/3/6
f -4/13/6 -3/13/6 -2/13/6
f -2/13/6 -3/13/6 -1/13/6
v -29 29 -4
v 29 29 -4
v -29 29 -5
v 29 29 -5
f -4/14/6 -3/14/6 -2/14/6
f -2/14/6 -3/14/6 -1/14/6
v -30 34 -4
v -29 34 -4
v -17 34 -4
v -11 34 -4
v -2 34 -4
v 8 34 -4
v 13 34 -4
v 16 34 -4
v 29 34 -4
v 30 34 -4
v -30 34 -5
v -29 34 -5
v -17 34 -5
v -11 34 -5
v -2 34 -5
v 8 34 -5
v 13 34 -5
v 16 34 -5
v 29 34 -5
v 30 34 -5
f -20/12/6 -19/12/6 -10/12/6
f -19/14/6 -18/14/6 -9/14/6
f -10/12/6 -19/12/6 -9/12/6
f -18/13/6 -17/13/6 -8/13/6
f -9/14/6 -18/14/6 -8/14/6
f -17/14/6 -16/14/6 -7/14/6
f -8/13/6 -17/13/6 -7/13/6
f -16/13/6 -15/13/6 -6/13/6
f -7/14/6 -16/14/6 -6/14/6
f -15/14/6 -14/14/6 -5/14/6
f -6/13/6 -15/13/6 -5/13/6
f -14/13/6 -13/13/6 -4/13/6
f -5/14/6 -14/14/6 -4/14/6
f -13/14/6 -12/14/6 -3/14/6
f -4/13/6 -13/13/6 -3/13/6
f -12/11/6 -11/11/6 -2/11/6
f -3/14/6 -12/14/6 -2/14/6
f -2/11/6 -11/11/6 -1/11/6
