# MagicaVoxel @ ephtracy

# material
mtllib Green House Table 1.mtl
usemtl palette

# normals
vn -1 0 0
vn 1 0 0
vn 0 0 1
vn 0 0 -1
vn 0 -1 0
vn 0 1 0

# texcoords
vt 0.873047 0.5
vt 0.970703 0.5
vt 0.974609 0.5
vt 0.978516 0.5

# verts and faces
v -27.5 0 5
v -27.5 0 -5
v -27.5 20 5
v -27.5 20 -5
f -2/2/1 -3/2/1 -4/2/1
f -1/2/1 -3/2/1 -2/2/1
v 24.5 3 3
v 24.5 3 -3
v 24.5 15 3
v 24.5 15 -3
f -2/4/1 -3/4/1 -4/4/1
f -1/4/1 -3/4/1 -2/4/1
v 25.5 0 5
v 25.5 0 -5
v 25.5 1 4
v 25.5 1 -4
v 25.5 2 4
v 25.5 2 -4
v 25.5 3 4
v 25.5 3 3
v 25.5 3 -3
v 25.5 3 -4
v 25.5 15 4
v 25.5 15 3
v 25.5 15 -3
v 25.5 15 -4
v 25.5 16 5
v 25.5 16 4
v 25.5 16 -4
v 25.5 16 -5
v 25.5 19 3
v 25.5 19 -3
v 25.5 20 3
v 25.5 20 -3
f -20/3/1 -21/3/1 -22/3/1
f -19/3/1 -21/3/1 -20/3/1
f -18/3/1 -20/3/1 -22/3/1
f -17/3/1 -21/3/1 -19/3/1
f -16/3/1 -18/3/1 -22/3/1
f -13/3/1 -21/3/1 -17/3/1
f -12/3/1 -15/3/1 -16/3/1
f -12/3/1 -16/3/1 -22/3/1
f -11/3/1 -15/3/1 -12/3/1
f -10/3/1 -13/3/1 -14/3/1
f -9/3/1 -21/3/1 -13/3/1
f -9/3/1 -13/3/1 -10/3/1
f -8/3/1 -12/3/1 -22/3/1
f -7/3/1 -12/3/1 -8/3/1
f -6/3/1 -21/3/1 -9/3/1
f -5/3/1 -21/3/1 -6/3/1
f -2/1/1 -3/1/1 -4/1/1
f -1/1/1 -3/1/1 -2/1/1
v -25.5 0 5
v -25.5 0 -5
v -25.5 1 4
v -25.5 1 -4
v -25.5 2 4
v -25.5 2 -4
v -25.5 3 4
v -25.5 3 3
v -25.5 3 -3
v -25.5 3 -4
v -25.5 15 4
v -25.5 15 3
v -25.5 15 -3
v -25.5 15 -4
v -25.5 16 5
v -25.5 16 4
v -25.5 16 -4
v -25.5 16 -5
v -25.5 19 3
v -25.5 19 -3
v -25.5 20 3
v -25.5 20 -3
f -22/3/2 -21/3/2 -20/3/2
f -20/3/2 -21/3/2 -19/3/2
f -22/3/2 -20/3/2 -18/3/2
f -19/3/2 -21/3/2 -17/3/2
f -22/3/2 -18/3/2 -16/3/2
f -17/3/2 -21/3/2 -13/3/2
f -16/3/2 -15/3/2 -12/3/2
f -22/3/2 -16/3/2 -12/3/2
f -12/3/2 -15/3/2 -11/3/2
f -14/3/2 -13/3/2 -10/3/2
f -13/3/2 -21/3/2 -9/3/2
f -10/3/2 -13/3/2 -9/3/2
f -22/3/2 -12/3/2 -8/3/2
f -8/3/2 -12/3/2 -7/3/2
f -9/3/2 -21/3/2 -6/3/2
f -6/3/2 -21/3/2 -5/3/2
f -4/1/2 -3/1/2 -2/1/2
f -2/1/2 -3/1/2 -1/1/2
v -24.5 3 3
v -24.5 3 -3
v -24.5 15 3
v -24.5 15 -3
f -4/4/2 -3/4/2 -2/4/2
f -2/4/2 -3/4/2 -1/4/2
v 27.5 0 5
v 27.5 0 -5
v 27.5 20 5
v 27.5 20 -5
f -4/2/2 -3/2/2 -2/2/2
f -2/2/2 -3/2/2 -1/2/2
v -27.5 0 5
v -27.5 20 5
v -26.5 0 5
v -26.5 17 5
v -25.5 0 5
v -25.5 16 5
v 25.5 0 5
v 25.5 16 5
v 26.5 0 5
v 26.5 17 5
v 27.5 0 5
v 27.5 20 5
f -10/2/3 -11/2/3 -12/2/3
f -9/2/3 -11/2/3 -10/2/3
f -8/3/3 -9/3/3 -10/3/3
f -7/3/3 -9/3/3 -8/3/3
f -5/3/3 -9/3/3 -7/3/3
f -4/3/3 -5/3/3 -6/3/3
f -3/2/3 -11/2/3 -9/2/3
f -3/3/3 -5/3/3 -4/3/3
f -3/3/3 -9/3/3 -5/3/3
f -2/2/3 -3/2/3 -4/2/3
f -1/2/3 -11/2/3 -3/2/3
f -1/2/3 -3/2/3 -2/2/3
v -25.5 1 4
v -25.5 2 4
v -25.5 3 4
v -25.5 15 4
v -25.5 16 4
v 25.5 1 4
v 25.5 2 4
v 25.5 3 4
v 25.5 15 4
v 25.5 16 4
f -5/4/3 -9/4/3 -10/4/3
f -4/3/3 -8/3/3 -9/3/3
f -4/4/3 -9/4/3 -5/4/3
f -3/3/3 -8/3/3 -4/3/3
f -2/3/3 -6/3/3 -7/3/3
f -1/3/3 -6/3/3 -2/3/3
v -25.5 3 3
v -25.5 15 3
v -24.5 3 3
v -24.5 15 3
v 24.5 3 3
v 24.5 15 3
v 25.5 3 3
v 25.5 15 3
f -6/4/3 -7/4/3 -8/4/3
f -5/4/3 -7/4/3 -6/4/3
f -2/4/3 -3/4/3 -4/4/3
f -1/4/3 -3/4/3 -2/4/3
v -25.5 19 -3
v -25.5 20 -3
v 25.5 19 -3
v 25.5 20 -3
f -2/1/3 -3/1/3 -4/1/3
f -1/1/3 -3/1/3 -2/1/3
v -25.5 19 3
v -25.5 20 3
v 25.5 19 3
v 25.5 20 3
f -4/1/4 -3/1/4 -2/1/4
f -2/1/4 -3/1/4 -1/1/4
v -25.5 3 -3
v -25.5 15 -3
v -24.5 3 -3
v -24.5 15 -3
v 24.5 3 -3
v 24.5 15 -3
v 25.5 3 -3
v 25.5 15 -3
f -8/4/4 -7/4/4 -6/4/4
f -6/4/4 -7/4/4 -5/4/4
f -4/4/4 -3/4/4 -2/4/4
f -2/4/4 -3/4/4 -1/4/4
v -25.5 1 -4
v -25.5 2 -4
v -25.5 3 -4
v -25.5 15 -4
v -25.5 16 -4
v 25.5 1 -4
v 25.5 2 -4
v 25.5 3 -4
v 25.5 15 -4
v 25.5 16 -4
f -10/4/4 -9/4/4 -5/4/4
f -9/3/4 -8/3/4 -4/3/4
f -5/4/4 -9/4/4 -4/4/4
f -4/3/4 -8/3/4 -3/3/4
f -7/3/4 -6/3/4 -2/3/4
f -2/3/4 -6/3/4 -1/3/4
v -27.5 0 -5
v -27.5 20 -5
v -26.5 0 -5
v -26.5 17 -5
v -25.5 0 -5
v -25.5 16 -5
v 25.5 0 -5
v 25.5 16 -5
v 26.5 0 -5
v 26.5 17 -5
v 27.5 0 -5
v 27.5 20 -5
f -12/2/4 -11/2/4 -10/2/4
f -10/2/4 -11/2/4 -9/2/4
f -10/3/4 -9/3/4 -8/3/4
f -8/3/4 -9/3/4 -7/3/4
f -7/3/4 -9/3/4 -5/3/4
f -6/3/4 -5/3/4 -4/3/4
f -9/2/4 -11/2/4 -3/2/4
f -4/3/4 -5/3/4 -3/3/4
f -5/3/4 -9/3/4 -3/3/4
f -4/2/4 -3/2/4 -2/2/4
f -3/2/4 -11/2/4 -1/2/4
f -2/2/4 -3/2/4 -1/2/4
v -27.5 0 5
v -26.5 0 5
v -25.5 0 5
v 25.5 0 5
v 26.5 0 5
v 27.5 0 5
v -27.5 0 -5
v -26.5 0 -5
v -25.5 0 -5
v 25.5 0 -5
v 26.5 0 -5
v 27.5 0 -5
f -6/2/5 -11/2/5 -12/2/5
f -5/3/5 -10/3/5 -11/3/5
f -5/2/5 -11/2/5 -6/2/5
f -4/3/5 -10/3/5 -5/3/5
f -3/3/5 -8/3/5 -9/3/5
f -2/2/5 -7/2/5 -8/2/5
f -2/3/5 -8/3/5 -3/3/5
f -1/2/5 -7/2/5 -2/2/5
v -25.5 1 4
v 25.5 1 4
v -25.5 1 -4
v 25.5 1 -4
f -2/4/5 -3/4/5 -4/4/5
f -1/4/5 -3/4/5 -2/4/5
v -25.5 15 4
v 25.5 15 4
v -25.5 15 3
v -24.5 15 3
v 24.5 15 3
v 25.5 15 3
v -25.5 15 -3
v -24.5 15 -3
v 24.5 15 -3
v 25.5 15 -3
v -25.5 15 -4
v 25.5 15 -4
f -10/3/5 -11/3/5 -12/3/5
f -9/3/5 -11/3/5 -10/3/5
f -8/3/5 -11/3/5 -9/3/5
f -7/3/5 -11/3/5 -8/3/5
f -5/3/5 -8/3/5 -9/3/5
f -4/3/5 -8/3/5 -5/3/5
f -2/3/5 -5/3/5 -6/3/5
f -2/3/5 -3/3/5 -4/3/5
f -2/3/5 -4/3/5 -5/3/5
f -1/3/5 -3/3/5 -2/3/5
v -25.5 16 5
v 25.5 16 5
v -25.5 16 4
v 25.5 16 4
v -25.5 16 -4
v 25.5 16 -4
v -25.5 16 -5
v 25.5 16 -5
f -6/3/5 -7/3/5 -8/3/5
f -5/3/5 -7/3/5 -6/3/5
f -2/3/5 -3/3/5 -4/3/5
f -1/3/5 -3/3/5 -2/3/5
v -25.5 3 4
v 25.5 3 4
v -25.5 3 3
v -24.5 3 3
v 24.5 3 3
v 25.5 3 3
v -25.5 3 -3
v -24.5 3 -3
v 24.5 3 -3
v 25.5 3 -3
v -25.5 3 -4
v 25.5 3 -4
f -12/3/6 -11/3/6 -10/3/6
f -10/3/6 -11/3/6 -9/3/6
f -9/3/6 -11/3/6 -8/3/6
f -8/3/6 -11/3/6 -7/3/6
f -9/3/6 -8/3/6 -5/3/6
f -5/3/6 -8/3/6 -4/3/6
f -6/3/6 -5/3/6 -2/3/6
f -4/3/6 -3/3/6 -2/3/6
f -5/3/6 -4/3/6 -2/3/6
f -2/3/6 -3/3/6 -1/3/6
v -25.5 19 3
v 25.5 19 3
v -25.5 19 -3
v 25.5 19 -3
f -4/1/6 -3/1/6 -2/1/6
f -2/1/6 -3/1/6 -1/1/6
v -27.5 20 5
v 27.5 20 5
v -26.5 20 4
v 26.5 20 4
v -25.5 20 3
v 25.5 20 3
v -25.5 20 -3
v 25.5 20 -3
v -26.5 20 -4
v 26.5 20 -4
v -27.5 20 -5
v 27.5 20 -5
f -12/2/6 -11/2/6 -10/2/6
f -10/2/6 -11/2/6 -9/2/6
f -10/1/6 -9/1/6 -8/1/6
f -8/1/6 -9/1/6 -7/1/6
f -10/1/6 -8/1/6 -6/1/6
f -7/1/6 -9/1/6 -5/1/6
f -12/2/6 -10/2/6 -4/2/6
f -6/1/6 -5/1/6 -4/1/6
f -10/1/6 -6/1/6 -4/1/6
f -5/1/6 -9/1/6 -3/1/6
f -4/1/6 -5/1/6 -3/1/6
f -9/2/6 -11/2/6 -3/2/6
f -12/2/6 -4/2/6 -2/2/6
f -4/2/6 -3/2/6 -2/2/6
f -3/2/6 -11/2/6 -1/2/6
f -2/2/6 -3/2/6 -1/2/6
